<svg id="Capa_1" enable-background="new 0 0 512 512" height="512" viewBox="0 0 512 512" width="512" xmlns="http://www.w3.org/2000/svg"><g><g><path d="m401.733 182.981h55.207v15.453h-55.207z" fill="#b4d0d5" transform="matrix(.866 -.5 .5 .866 -37.833 240.221)"/></g><g><path d="m123.191 343.889h55.183v15.453h-55.183z" fill="#b4d0d5" transform="matrix(.866 -.5 .5 .866 -155.608 122.5)"/></g><g><path d="m282.317 404.415h15.453v55.194h-15.453z" fill="#b4d0d5"/></g><g><path d="m330.23 155.57h15.453v65.312h-15.453z" fill="#b4d0d5" transform="matrix(.5 -.866 .866 .5 5.97 386.794)"/></g><g><path d="m305.3 346.402h65.306v15.453h-65.306z" fill="#b4d0d5" transform="matrix(.866 -.5 .5 .866 -131.788 216.423)"/></g><g><path d="m234.451 321.475h15.453v65.307h-15.453z" fill="#b4d0d5" transform="matrix(.5 -.866 .866 .5 -185.595 386.798)"/></g><g><path d="m209.517 180.5h65.313v15.453h-65.313z" fill="#b4d0d5" transform="matrix(.866 -.5 .5 .866 -61.668 146.306)"/></g><g><path d="m378.122 238.515h15.453v65.337h-15.453z" fill="#b4d0d5"/></g><g><path d="m138.663 155.566h15.453v65.318h-15.453z" fill="#b4d0d5" transform="matrix(.5 -.866 .866 .5 -89.813 220.89)"/></g><g><path d="m90.776 82.752h15.453v55.181h-15.453z" fill="#b4d0d5"/></g><g><path d="m47.271 107.867h15.453v55.182h-15.453z" fill="#b4d0d5" transform="matrix(.5 -.866 .866 .5 -89.811 115.356)"/></g><g><path d="m27.406 177.968h55.181v15.453h-55.181z" fill="#b4d0d5" transform="matrix(.866 -.5 .5 .866 -85.48 52.377)"/></g><g><path d="m295.216 69.757h15.453v71.039h-15.453z" fill="#b4d0d5"/></g><g><path d="m269.462 69.757h15.453v71.039h-15.453z" fill="#b4d0d5"/></g><g><path d="m432.449 307.452h15.453v71.043h-15.453z" fill="#b4d0d5" transform="matrix(.5 -.866 .866 .5 -76.938 552.686)"/></g><g><path d="m419.578 329.764h15.453v71.032h-15.453z" fill="#b4d0d5" transform="matrix(.5 -.866 .866 .5 -102.691 552.694)"/></g><g><path d="m199.434 235.657h15.453v71.053h-15.453z" fill="#b4d0d5"/></g><g><path d="m173.679 235.657h15.453v71.053h-15.453z" fill="#b4d0d5"/></g><circle cx="290.065" cy="160.576" fill="#407093" r="30.365"/><circle cx="290.065" cy="381.776" fill="#f1f4f6" r="30.365"/><circle cx="385.848" cy="326.49" fill="#407093" r="30.365"/><circle cx="194.283" cy="326.49" fill="#407093" r="30.365"/><circle cx="385.848" cy="215.876" fill="#f1f4f6" r="30.365"/><circle cx="194.283" cy="215.876" fill="#407093" r="30.365"/><g fill="#6bbef6"><circle cx="464.091" cy="170.642" r="20.249"/><circle cx="116.04" cy="371.675" r="20.249"/><circle cx="290.044" cy="472.136" r="20.249"/></g><circle cx="290.065" cy="49.976" fill="#dd636e" r="30.365"/><circle cx="481.63" cy="381.776" fill="#dd636e" r="30.365"/><circle cx="98.5" cy="160.576" fill="#407093" r="30.365"/><path d="m196.545 185.595c4.67 5.34 7.499 12.329 7.499 19.98 0 16.77-13.595 30.365-30.365 30.365-.761 0-1.515-.028-2.262-.083 5.566 6.365 13.746 10.385 22.865 10.385 16.77 0 30.365-13.595 30.365-30.365.001-16.01-12.389-29.125-28.102-30.282z" fill="#365e7d"/><path d="m113.683 134.28c-4.09-2.361-8.501-3.663-12.915-3.99 8.312 9.511 10.093 23.619 3.426 35.168-6.024 10.433-17.304 15.94-28.564 15.105 2.141 2.449 4.714 4.594 7.689 6.311 14.523 8.385 33.094 3.409 41.479-11.114 8.384-14.525 3.408-33.096-11.115-41.48z" fill="#365e7d"/><path d="m292.327 351.495c4.67 5.34 7.5 12.329 7.5 19.98 0 16.77-13.595 30.365-30.365 30.365-.761 0-1.515-.028-2.262-.083 5.566 6.365 13.746 10.385 22.865 10.385 16.77 0 30.365-13.595 30.365-30.365 0-16.01-12.389-29.125-28.103-30.282z" fill="#dfeaef"/><path d="m292.327 19.695c4.67 5.34 7.5 12.329 7.5 19.98 0 16.77-13.595 30.365-30.365 30.365-.761 0-1.515-.028-2.262-.083 5.566 6.365 13.746 10.385 22.865 10.385 16.77 0 30.365-13.595 30.365-30.365 0-16.01-12.389-29.125-28.103-30.282z" fill="#da4a54"/><path d="m292.327 130.295c4.67 5.34 7.5 12.329 7.5 19.98 0 16.77-13.595 30.365-30.365 30.365-.761 0-1.515-.028-2.262-.083 5.566 6.365 13.746 10.385 22.865 10.385 16.77 0 30.365-13.595 30.365-30.365 0-16.01-12.389-29.125-28.103-30.282z" fill="#365e7d"/><path d="m388.109 185.595c4.67 5.34 7.499 12.329 7.499 19.98 0 16.77-13.595 30.365-30.365 30.365-.761 0-1.515-.028-2.262-.083 5.566 6.365 13.746 10.385 22.865 10.385 16.77 0 30.365-13.595 30.365-30.365.001-16.01-12.388-29.125-28.102-30.282z" fill="#dfeaef"/><path d="m496.813 355.48c-4.09-2.361-8.501-3.663-12.915-3.99 8.312 9.511 10.093 23.619 3.425 35.168-6.024 10.433-17.304 15.939-28.564 15.104 2.141 2.45 4.714 4.594 7.689 6.311 14.523 8.385 33.094 3.409 41.479-11.114 8.385-14.524 3.409-33.094-11.114-41.479z" fill="#da4a54"/><path d="m388.109 296.209c4.67 5.34 7.499 12.329 7.499 19.98 0 16.77-13.595 30.365-30.365 30.365-.761 0-1.515-.028-2.262-.083 5.566 6.365 13.746 10.385 22.865 10.385 16.77 0 30.365-13.595 30.365-30.365.001-16.01-12.388-29.125-28.102-30.282z" fill="#365e7d"/><circle cx="98.502" cy="70.224" fill="#6bbef6" r="20.25"/><circle cx="20.254" cy="115.399" fill="#6bbef6" r="20.25"/><circle cx="20.254" cy="205.754" fill="#6bbef6" r="20.25"/><path d="m196.545 296.209c4.67 5.34 7.499 12.329 7.499 19.98 0 16.77-13.595 30.365-30.365 30.365-.761 0-1.515-.028-2.262-.083 5.566 6.365 13.746 10.385 22.865 10.385 16.77 0 30.365-13.595 30.365-30.365.001-16.01-12.389-29.125-28.102-30.282z" fill="#365e7d"/></g></svg>