<svg id="Capa_1" data-name="Capa 1" xmlns="http://www.w3.org/2000/svg" viewBox="0 0 198.94 67"><defs><style>.cls-1{fill:#fff;}.cls-2{fill:none;stroke:#fff;stroke-miterlimit:10;stroke-width:2px;}</style></defs><title>2lewis</title><path class="cls-1" d="M204.14,290.93l-2.52,7.63h-3.24l8.25-24.26h3.78l8.28,24.26h-3.35l-2.59-7.63Zm8-2.45-2.38-7c-.54-1.59-.9-3-1.26-4.43h-.07c-.36,1.44-.76,2.92-1.22,4.39l-2.38,7Z" transform="translate(-108.06 -255)"/><ellipse class="cls-2" cx="99.94" cy="33.5" rx="35" ry="32.5"/><line class="cls-2" x1="135.28" y1="33.5" x2="178.6" y2="33.5"/><line class="cls-2" x1="20.78" y1="33.5" x2="64.09" y2="33.5"/><path class="cls-1" d="M302.72,281a2.15,2.15,0,1,1,4.29,0,2.15,2.15,0,1,1-4.29,0Zm0,12.7a2.15,2.15,0,1,1,2.13,2.24A2.12,2.12,0,0,1,302.72,293.72Z" transform="translate(-108.06 -255)"/><path class="cls-1" d="M108.06,282a2.15,2.15,0,1,1,4.29,0,2.15,2.15,0,1,1-4.29,0Zm0,12.7a2.15,2.15,0,1,1,2.13,2.24A2.12,2.12,0,0,1,108.06,294.72Z" transform="translate(-108.06 -255)"/></svg>