<svg id="Capa_1" data-name="Capa 1" xmlns="http://www.w3.org/2000/svg" viewBox="0 0 162.91 144.01"><defs><style>.cls-1{fill:#fff;}.cls-2{fill:none;stroke:#fff;stroke-miterlimit:10;stroke-width:2px;}</style></defs><title>3lewis</title><path class="cls-1" d="M204.14,290.93l-2.52,7.63h-3.24l8.25-24.26h3.78l8.28,24.26h-3.35l-2.59-7.63Zm8-2.45-2.38-7c-.54-1.59-.9-3-1.26-4.43h-.07c-.36,1.44-.76,2.92-1.22,4.39l-2.38,7Z" transform="translate(-123.15 -200.19)"/><ellipse class="cls-2" cx="84.85" cy="88.31" rx="35" ry="32.5"/><line class="cls-2" x1="148.67" y1="130.91" x2="118.04" y2="100.28"/><line class="cls-2" x1="15.59" y1="122.64" x2="53.1" y2="100.98"/><path class="cls-1" d="M282.48,332.48a2.15,2.15,0,1,1,2.63,3.38,2.14,2.14,0,1,1-2.63-3.38Zm-10,7.81a2.15,2.15,0,1,1,2.63,3.38,2.14,2.14,0,1,1-2.63-3.38Z" transform="translate(-123.15 -200.19)"/><path class="cls-1" d="M123.51,325.17A2.15,2.15,0,1,1,127.2,323a2.14,2.14,0,1,1-3.69,2.18ZM130,336.12a2.15,2.15,0,1,1,3.69-2.18,2.14,2.14,0,1,1-3.69,2.18Z" transform="translate(-123.15 -200.19)"/><line class="cls-2" x1="85.95" y1="55.81" x2="85.95" y2="12.5"/><path class="cls-1" d="M215.5,200.61a2.14,2.14,0,1,1-.14,4.28,2.14,2.14,0,1,1,.14-4.28Zm-12.7-.42a2.14,2.14,0,1,1-.14,4.28,2.14,2.14,0,1,1,.14-4.28Z" transform="translate(-123.15 -200.19)"/></svg>