<svg id="Capa_1" data-name="Capa 1" xmlns="http://www.w3.org/2000/svg" viewBox="0 0 182.51 173.94"><defs><style>.cls-1{fill:#fff;}.cls-2{fill:none;stroke:#fff;stroke-miterlimit:10;stroke-width:2px;}</style></defs><title>4lewis</title><path class="cls-1" d="M204.14,290.93l-2.52,7.63h-3.24l8.25-24.26h3.78l8.28,24.26h-3.35l-2.59-7.63Zm8-2.45-2.38-7c-.54-1.59-.9-3-1.26-4.43h-.07c-.36,1.44-.76,2.92-1.22,4.39l-2.38,7Z" transform="translate(-116.26 -200.19)"/><ellipse class="cls-2" cx="91.74" cy="88.31" rx="35" ry="32.5"/><line class="cls-2" x1="166.43" y1="108.36" x2="125.51" y2="94.16"/><line class="cls-2" x1="112.23" y1="160.58" x2="94.63" y2="121"/><path class="cls-1" d="M294.85,305.69a2.14,2.14,0,1,1,3.37,2.64,2.08,2.08,0,0,1-3.07.42A2.11,2.11,0,0,1,294.85,305.69Zm-7.84,10a2.15,2.15,0,1,1,3.37,2.65,2.15,2.15,0,1,1-3.37-2.65Z" transform="translate(-116.26 -200.19)"/><path class="cls-1" d="M116.51,310.15a2.14,2.14,0,1,1,3.87-1.83,2.14,2.14,0,1,1-3.87,1.83Zm5.43,11.48a2.15,2.15,0,1,1,2.88,1.11A2.13,2.13,0,0,1,121.94,321.63Z" transform="translate(-116.26 -200.19)"/><line class="cls-2" x1="92.84" y1="55.81" x2="92.84" y2="12.5"/><path class="cls-1" d="M216.5,200.61a2.14,2.14,0,1,1-.14,4.28,2.14,2.14,0,1,1,.14-4.28Zm-12.7-.42a2.14,2.14,0,1,1-.14,4.28,2.14,2.14,0,1,1,.14-4.28Z" transform="translate(-116.26 -200.19)"/><line class="cls-2" x1="16.34" y1="110.57" x2="57.26" y2="96.37"/><path class="cls-1" d="M238.61,365.14a2.15,2.15,0,1,1-1.26,2.82A2.12,2.12,0,0,1,238.61,365.14ZM226.85,370a2.13,2.13,0,0,1,2.92,1.14,2.11,2.11,0,0,1-1.29,2.82,2.09,2.09,0,0,1-2.88-1.15A2.11,2.11,0,0,1,226.85,370Z" transform="translate(-116.26 -200.19)"/></svg>