<svg id="Capa_1" data-name="Capa 1" xmlns="http://www.w3.org/2000/svg" viewBox="0 0 1190.34 238.79"><defs><style>.cls-1{fill:#fff;}.cls-2,.cls-4,.cls-7,.cls-9{fill:none;stroke-miterlimit:10;}.cls-2{stroke:#eee542;}.cls-2,.cls-4{stroke-width:2px;}.cls-3{fill:#dedc00;}.cls-4{stroke:#f39200;}.cls-5{fill:#f39200;}.cls-6{fill:#ede543;}.cls-7{stroke:#e71d73;}.cls-7,.cls-9{stroke-width:3px;}.cls-8{fill:#e71d73;}.cls-9{stroke:#36a9e1;}.cls-10{fill:#36a9e1;}.cls-11{fill:#ffed00;}</style></defs><title>Azido-baseak</title><path class="cls-1" d="M-322.31,336.77a15.67,15.67,0,0,1-6.41,1.15c-6.84,0-12-4.32-12-12.27,0-7.6,5.14-12.75,12.67-12.75a13.06,13.06,0,0,1,5.76,1.08l-.76,2.56a11.36,11.36,0,0,0-4.9-1c-5.68,0-9.46,3.64-9.46,10,0,5.94,3.42,9.75,9.32,9.75a12.39,12.39,0,0,0,5.11-1Z" transform="translate(340.7 -235.58)"/><path class="cls-1" d="M-315.25,313.3v10.15h11.73V313.3h3.17v24.26h-3.17V326.19h-11.73v11.37h-3.13V313.3Z" transform="translate(340.7 -235.58)"/><path class="cls-1" d="M-296.64,329.75a8,8,0,0,1,4.14-1.12c3.09,0,4.39,1.66,4.39,3.39a3.57,3.57,0,0,1-2.77,3.24v.07a3.58,3.58,0,0,1,3.35,3.49c0,2.23-2,4.21-5.69,4.21a8,8,0,0,1-4.11-1l.65-1.8a6.73,6.73,0,0,0,3.35.94c2.2,0,3.17-1.3,3.13-2.41,0-1.8-1.91-2.52-3.81-2.52h-1v-1.66h1c1.33,0,3.24-.61,3.28-2.3,0-.87-.65-1.77-2.27-1.77a5.76,5.76,0,0,0-3.06.94Z" transform="translate(340.7 -235.58)"/><path class="cls-1" d="M-267,336.77a15.67,15.67,0,0,1-6.41,1.15c-6.84,0-12-4.32-12-12.27,0-7.6,5.14-12.75,12.67-12.75a13.06,13.06,0,0,1,5.76,1.08l-.76,2.56a11.34,11.34,0,0,0-4.89-1c-5.69,0-9.47,3.64-9.47,10,0,5.94,3.42,9.75,9.32,9.75a12.39,12.39,0,0,0,5.11-1Z" transform="translate(340.7 -235.58)"/><path class="cls-1" d="M-243.08,325.18c0,8.35-5.07,12.78-11.26,12.78-6.41,0-10.91-5-10.91-12.31,0-7.71,4.79-12.75,11.27-12.75S-243.08,318-243.08,325.18Zm-18.82.39c0,5.19,2.81,9.83,7.74,9.83s7.77-4.57,7.77-10.08c0-4.82-2.52-9.86-7.74-9.86S-261.9,320.25-261.9,325.57Z" transform="translate(340.7 -235.58)"/><path class="cls-1" d="M-218.27,325.18c0,8.35-5.08,12.78-11.27,12.78-6.41,0-10.91-5-10.91-12.31,0-7.71,4.79-12.75,11.27-12.75S-218.27,318-218.27,325.18Zm-18.83.39c0,5.19,2.81,9.83,7.74,9.83s7.78-4.57,7.78-10.08c0-4.82-2.52-9.86-7.74-9.86S-237.1,320.25-237.1,325.57Z" transform="translate(340.7 -235.58)"/><path class="cls-1" d="M-211.07,313.3v10.15h11.73V313.3h3.17v24.26h-3.17V326.19h-11.73v11.37h-3.13V313.3Z" transform="translate(340.7 -235.58)"/><path class="cls-1" d="M-174,318.41v8.46h8.14V329H-174v8.53h-2.3V329h-8.13v-2.16h8.13v-8.46Z" transform="translate(340.7 -235.58)"/><path class="cls-1" d="M-150.88,313.3v10.15h11.73V313.3H-136v24.26h-3.17V326.19h-11.73v11.37H-154V313.3Z" transform="translate(340.7 -235.58)"/><path class="cls-1" d="M-132.84,336.23l2.26-2.13c3-2.7,4.54-4.39,4.54-6.22a2.44,2.44,0,0,0-2.74-2.52,5.46,5.46,0,0,0-3,1.11l-.76-1.62a7.08,7.08,0,0,1,4.4-1.51c3.38,0,4.78,2.12,4.78,4.07,0,2.7-2.05,4.68-4.78,7.09l-1.12,1v.07h6.16v2h-9.72Z" transform="translate(340.7 -235.58)"/><path class="cls-1" d="M-98.61,325.18c0,8.35-5.08,12.78-11.27,12.78-6.4,0-10.9-5-10.9-12.31,0-7.71,4.78-12.75,11.26-12.75S-98.61,318-98.61,325.18Zm-18.83.39c0,5.19,2.81,9.83,7.74,9.83s7.78-4.57,7.78-10.08c0-4.82-2.52-9.86-7.74-9.86S-117.44,320.25-117.44,325.57Z" transform="translate(340.7 -235.58)"/><path class="cls-1" d="M-23,336.77a15.67,15.67,0,0,1-6.41,1.15c-6.84,0-12-4.32-12-12.27,0-7.6,5.14-12.75,12.67-12.75A13.06,13.06,0,0,1-22.94,314l-.76,2.56a11.36,11.36,0,0,0-4.9-1c-5.68,0-9.46,3.64-9.46,10,0,5.94,3.42,9.75,9.32,9.75a12.39,12.39,0,0,0,5.11-1Z" transform="translate(340.7 -235.58)"/><path class="cls-1" d="M-15.92,313.3v10.15H-4.19V313.3H-1v24.26H-4.19V326.19H-15.92v11.37H-19V313.3Z" transform="translate(340.7 -235.58)"/><path class="cls-1" d="M2.69,329.75a8,8,0,0,1,4.14-1.12c3.09,0,4.39,1.66,4.39,3.39a3.57,3.57,0,0,1-2.77,3.24v.07a3.58,3.58,0,0,1,3.35,3.49c0,2.23-2,4.21-5.69,4.21A7.93,7.93,0,0,1,2,342l.64-1.8a6.73,6.73,0,0,0,3.35.94c2.2,0,3.17-1.3,3.13-2.41,0-1.8-1.91-2.52-3.81-2.52h-1v-1.66h1c1.33,0,3.24-.61,3.28-2.3,0-.87-.65-1.77-2.27-1.77a5.8,5.8,0,0,0-3.06.94Z" transform="translate(340.7 -235.58)"/><path class="cls-1" d="M32.35,336.77a15.63,15.63,0,0,1-6.41,1.15c-6.84,0-12-4.32-12-12.27,0-7.6,5.14-12.75,12.67-12.75A13.06,13.06,0,0,1,32.39,314l-.76,2.56a11.34,11.34,0,0,0-4.89-1c-5.69,0-9.47,3.64-9.47,10,0,5.94,3.42,9.75,9.32,9.75a12.39,12.39,0,0,0,5.11-1Z" transform="translate(340.7 -235.58)"/><path class="cls-1" d="M56.25,325.18C56.25,333.53,51.18,338,45,338c-6.41,0-10.91-5-10.91-12.31,0-7.71,4.79-12.75,11.27-12.75S56.25,318,56.25,325.18Zm-18.82.39c0,5.19,2.81,9.83,7.74,9.83s7.77-4.57,7.77-10.08c0-4.82-2.52-9.86-7.74-9.86S37.43,320.25,37.43,325.57Z" transform="translate(340.7 -235.58)"/><path class="cls-1" d="M81.06,325.18C81.06,333.53,76,338,69.79,338c-6.41,0-10.91-5-10.91-12.31,0-7.71,4.79-12.75,11.27-12.75S81.06,318,81.06,325.18Zm-18.83.39c0,5.19,2.81,9.83,7.74,9.83s7.78-4.57,7.78-10.08c0-4.82-2.52-9.86-7.74-9.86S62.23,320.25,62.23,325.57Z" transform="translate(340.7 -235.58)"/><path class="cls-1" d="M88.26,313.3v10.15H100V313.3h3.17v24.26H100V326.19H88.26v11.37H85.13V313.3Z" transform="translate(340.7 -235.58)"/><path class="cls-1" d="M112.09,314.16v1.73h-5.58v-1.73Z" transform="translate(340.7 -235.58)"/><path class="cls-1" d="M132.25,318.41v8.46h8.14V329h-8.14v8.53H130V329h-8.14v-2.16H130v-8.46Z" transform="translate(340.7 -235.58)"/><path class="cls-1" d="M155.33,313.3v10.15h11.73V313.3h3.17v24.26h-3.17V326.19H155.33v11.37H152.2V313.3Z" transform="translate(340.7 -235.58)"/><path class="cls-1" d="M173.94,324.46a8,8,0,0,1,4.14-1.12c3.09,0,4.39,1.66,4.39,3.39A3.56,3.56,0,0,1,179.7,330V330a3.58,3.58,0,0,1,3.35,3.49c0,2.23-2,4.21-5.69,4.21a7.93,7.93,0,0,1-4.1-1l.64-1.8a6.73,6.73,0,0,0,3.35.94c2.2,0,3.17-1.3,3.13-2.41,0-1.8-1.91-2.52-3.81-2.52h-1v-1.66h1c1.33,0,3.24-.61,3.28-2.3,0-.87-.65-1.77-2.27-1.77a5.8,5.8,0,0,0-3.06.94Z" transform="translate(340.7 -235.58)"/><path class="cls-1" d="M207.38,325.18c0,8.35-5.08,12.78-11.27,12.78-6.4,0-10.9-5-10.9-12.31,0-7.71,4.78-12.75,11.26-12.75C203.1,312.9,207.38,318,207.38,325.18Zm-18.83.39c0,5.19,2.81,9.83,7.74,9.83s7.78-4.57,7.78-10.08c0-4.82-2.52-9.86-7.74-9.86S188.55,320.25,188.55,325.57Z" transform="translate(340.7 -235.58)"/><path class="cls-1" d="M442.49,337.56V313.3h3.42l7.77,12.27a70,70,0,0,1,4.36,7.89l.07,0c-.29-3.24-.36-6.19-.36-10V313.3h2.95v24.26h-3.17l-7.7-12.31a78.33,78.33,0,0,1-4.54-8.1l-.1,0c.18,3.06.25,6,.25,10v10.37Z" transform="translate(340.7 -235.58)"/><path class="cls-1" d="M469.3,313.3v10.15H481V313.3h3.17v24.26H481V326.19H469.3v11.37h-3.13V313.3Z" transform="translate(340.7 -235.58)"/><path class="cls-1" d="M487.92,329.75a8,8,0,0,1,4.14-1.12c3.09,0,4.39,1.66,4.39,3.39a3.58,3.58,0,0,1-2.77,3.24v.07a3.57,3.57,0,0,1,3.34,3.49c0,2.23-2,4.21-5.68,4.21a8,8,0,0,1-4.11-1l.65-1.8a6.73,6.73,0,0,0,3.35.94c2.19,0,3.17-1.3,3.13-2.41,0-1.8-1.91-2.52-3.82-2.52h-1v-1.66h1c1.33,0,3.24-.61,3.28-2.3,0-.87-.65-1.77-2.27-1.77a5.76,5.76,0,0,0-3.06.94Z" transform="translate(340.7 -235.58)"/><path class="cls-1" d="M517.4,318.41v8.46h8.14V329H517.4v8.53h-2.3V329H507v-2.16h8.14v-8.46Z" transform="translate(340.7 -235.58)"/><path class="cls-1" d="M540.48,313.3v10.15h11.73V313.3h3.17v24.26h-3.17V326.19H540.48v11.37h-3.14V313.3Z" transform="translate(340.7 -235.58)"/><path class="cls-1" d="M558.51,336.23l2.27-2.13c3-2.7,4.53-4.39,4.53-6.22a2.44,2.44,0,0,0-2.73-2.52,5.46,5.46,0,0,0-3,1.11l-.76-1.62a7,7,0,0,1,4.39-1.51c3.39,0,4.79,2.12,4.79,4.07,0,2.7-2.05,4.68-4.79,7.09l-1.11,1v.07h6.15v2h-9.72Z" transform="translate(340.7 -235.58)"/><path class="cls-1" d="M592.75,325.18c0,8.35-5.08,12.78-11.27,12.78-6.41,0-10.91-5-10.91-12.31,0-7.71,4.79-12.75,11.27-12.75S592.75,318,592.75,325.18Zm-18.83.39c0,5.19,2.81,9.83,7.74,9.83s7.77-4.57,7.77-10.08c0-4.82-2.52-9.86-7.74-9.86S573.92,320.25,573.92,325.57Z" transform="translate(340.7 -235.58)"/><path class="cls-1" d="M659.05,337.56V313.3h3.42l7.78,12.27a68.32,68.32,0,0,1,4.35,7.89l.08,0c-.29-3.24-.36-6.19-.36-10V313.3h2.95v24.26H674.1l-7.7-12.31a76.51,76.51,0,0,1-4.54-8.1l-.11,0c.18,3.06.26,6,.26,10v10.37Z" transform="translate(340.7 -235.58)"/><path class="cls-1" d="M685.87,313.3v10.15h11.74V313.3h3.17v24.26h-3.17V326.19H685.87v11.37h-3.13V313.3Z" transform="translate(340.7 -235.58)"/><path class="cls-1" d="M710.86,337.56v-3.71h-6.81v-1.44l6.37-9h2.85v8.64h2v1.76h-2v3.71Zm0-9.72c0-.79.07-1.55.1-2.27h-.07a22.42,22.42,0,0,1-1.22,2.13L706.54,332l0,.07h4.29Z" transform="translate(340.7 -235.58)"/><path class="cls-1" d="M750.74,318.41v8.46h8.14V329h-8.14v8.53h-2.3V329H740.3v-2.16h8.14v-8.46Z" transform="translate(340.7 -235.58)"/><path class="cls-1" d="M791.42,325.18c0,8.35-5.07,12.78-11.27,12.78-6.4,0-10.9-5-10.9-12.31,0-7.71,4.79-12.75,11.26-12.75C787.14,312.9,791.42,318,791.42,325.18Zm-18.83.39c0,5.19,2.81,9.83,7.74,9.83s7.78-4.57,7.78-10.08c0-4.82-2.52-9.86-7.74-9.86S772.59,320.25,772.59,325.57Z" transform="translate(340.7 -235.58)"/><path class="cls-1" d="M798.62,313.3v10.15h11.74V313.3h3.17v24.26h-3.17V326.19H798.62v11.37h-3.13V313.3Z" transform="translate(340.7 -235.58)"/><path class="cls-1" d="M822.46,314.16v1.73h-5.58v-1.73Z" transform="translate(340.7 -235.58)"/><path class="cls-1" d="M217.94,311.2v4.23H222v1.08h-4.07v4.27h-1.15v-4.27h-4.07v-1.08h4.07V311.2Z" transform="translate(340.7 -235.58)"/><path class="cls-1" d="M717.1,311.2v4.23h4.07v1.08H717.1v4.27H716v-4.27h-4.07v-1.08H716V311.2Z" transform="translate(340.7 -235.58)"/><line class="cls-2" x1="122.7" y1="63.42" x2="156.7" y2="63.42"/><line class="cls-2" x1="139.7" y1="63.42" x2="139.7" y2="37.42"/><line class="cls-2" x1="139.7" y1="37.42" x2="226.7" y2="37.42"/><line class="cls-2" x1="225.61" y1="63.42" x2="225.61" y2="37.42"/><line class="cls-2" x1="225.42" y1="64.61" x2="217.82" y2="55.55"/><line class="cls-2" x1="224.92" y1="64.61" x2="232.53" y2="55.55"/><line class="cls-2" x1="1021.54" y1="70.32" x2="1055.54" y2="70.32"/><line class="cls-2" x1="1038.54" y1="69.32" x2="1038.54" y2="43.32"/><line class="cls-2" x1="1038.54" y1="43.32" x2="1125.54" y2="43.32"/><line class="cls-2" x1="1124.44" y1="69.32" x2="1124.44" y2="43.32"/><line class="cls-2" x1="1124.25" y1="70.51" x2="1116.65" y2="61.45"/><line class="cls-2" x1="1123.75" y1="70.51" x2="1131.36" y2="61.45"/><path class="cls-3" d="M-150,257.68a14.88,14.88,0,0,0,0,1.53,2.92,2.92,0,0,0,.17.81,1.78,1.78,0,0,0,.3.5,1.84,1.84,0,0,0,.5.36,7,7,0,0,0,1,.33v.86h-7.36v-.86a4,4,0,0,0,1.35-.54,1.59,1.59,0,0,0,.54-.92,9.86,9.86,0,0,0,.15-2.07v-7.37H-163v7.37a14.26,14.26,0,0,0,.07,1.72,2.42,2.42,0,0,0,.27.86,1.45,1.45,0,0,0,.54.53,5,5,0,0,0,1.17.42v.86h-7.4v-.86a3.78,3.78,0,0,0,1.46-.62,1.66,1.66,0,0,0,.48-1,11.32,11.32,0,0,0,.12-1.93V242.47a12.05,12.05,0,0,0-.09-1.76,2.39,2.39,0,0,0-.29-.87,1.42,1.42,0,0,0-.54-.49,5.9,5.9,0,0,0-1.14-.41v-.86h7.4v.86a4.67,4.67,0,0,0-1.11.39,1.61,1.61,0,0,0-.55.48,2.29,2.29,0,0,0-.3.87,12.83,12.83,0,0,0-.09,1.79v6.22h9.77v-6.22a9.51,9.51,0,0,0-.15-2.09,1.66,1.66,0,0,0-.5-.86,4,4,0,0,0-1.39-.58v-.86h7.36v.86a3.9,3.9,0,0,0-1.37.55,1.6,1.6,0,0,0-.52.93,9.88,9.88,0,0,0-.14,2.05Z" transform="translate(340.7 -235.58)"/><path class="cls-3" d="M-137.47,242.17v4.68h-2v-4.68H-144v-1.93h4.54v-4.66h2v4.66h4.55v1.93Z" transform="translate(340.7 -235.58)"/><path class="cls-3" d="M750.63,263.47a14.27,14.27,0,0,0,.06,1.53,2.92,2.92,0,0,0,.17.81,1.41,1.41,0,0,0,.3.5,1.7,1.7,0,0,0,.5.36,6.6,6.6,0,0,0,1,.33v.86h-7.36V267a4.07,4.07,0,0,0,1.35-.54,1.59,1.59,0,0,0,.54-.92,9.86,9.86,0,0,0,.15-2.07V256.1h-9.78v7.37a13.77,13.77,0,0,0,.08,1.72,2.23,2.23,0,0,0,.27.86,1.45,1.45,0,0,0,.54.53,5,5,0,0,0,1.17.42v.86h-7.4V267a3.78,3.78,0,0,0,1.46-.62,1.78,1.78,0,0,0,.48-1,11.32,11.32,0,0,0,.12-1.93V248.26a12.05,12.05,0,0,0-.09-1.76,2.39,2.39,0,0,0-.29-.87,1.7,1.7,0,0,0-.54-.49,5.9,5.9,0,0,0-1.14-.41v-.86h7.4v.86a4.79,4.79,0,0,0-1.12.39,1.49,1.49,0,0,0-.54.48,2,2,0,0,0-.3.87,11.15,11.15,0,0,0-.1,1.79v6.22h9.78v-6.22a9.57,9.57,0,0,0-.15-2.09,1.7,1.7,0,0,0-.5-.86,4,4,0,0,0-1.39-.58v-.86h7.36v.86a3.9,3.9,0,0,0-1.37.55,1.64,1.64,0,0,0-.53.93,10.65,10.65,0,0,0-.14,2Z" transform="translate(340.7 -235.58)"/><path class="cls-3" d="M763.15,248v4.68h-2V248h-4.53V246h4.53v-4.66h2V246h4.55V248Z" transform="translate(340.7 -235.58)"/><line class="cls-4" x1="912.77" y1="69.45" x2="878.77" y2="69.45"/><line class="cls-4" x1="895.77" y1="69.45" x2="895.77" y2="43.45"/><line class="cls-4" x1="895.77" y1="43.45" x2="808.77" y2="43.45"/><line class="cls-4" x1="809.87" y1="69.45" x2="809.87" y2="43.45"/><line class="cls-4" x1="810.05" y1="70.64" x2="817.66" y2="61.58"/><line class="cls-4" x1="810.55" y1="70.64" x2="802.95" y2="61.58"/><line class="cls-4" x1="538.65" y1="69.45" x2="504.65" y2="69.45"/><line class="cls-4" x1="521.65" y1="69.45" x2="521.65" y2="43.45"/><line class="cls-4" x1="521.65" y1="43.45" x2="434.65" y2="43.45"/><line class="cls-4" x1="435.74" y1="69.45" x2="435.74" y2="43.45"/><line class="cls-4" x1="435.93" y1="70.64" x2="443.54" y2="61.58"/><line class="cls-4" x1="436.43" y1="70.64" x2="428.82" y2="61.58"/><path class="cls-5" d="M147.11,263.47a14.88,14.88,0,0,0,0,1.53,2.92,2.92,0,0,0,.17.81,1.78,1.78,0,0,0,.3.5,1.84,1.84,0,0,0,.5.36,6.81,6.81,0,0,0,1,.33v.86h-7.37V267a4,4,0,0,0,1.35-.54,1.59,1.59,0,0,0,.54-.92,9.86,9.86,0,0,0,.15-2.07V256.1h-9.77v7.37a14.26,14.26,0,0,0,.07,1.72,2.64,2.64,0,0,0,.27.86,1.45,1.45,0,0,0,.54.53,5,5,0,0,0,1.17.42v.86h-7.4V267a3.78,3.78,0,0,0,1.46-.62,1.66,1.66,0,0,0,.48-1,11.32,11.32,0,0,0,.12-1.93V248.26a12.05,12.05,0,0,0-.09-1.76,2.22,2.22,0,0,0-.29-.87,1.51,1.51,0,0,0-.54-.49,5.9,5.9,0,0,0-1.14-.41v-.86h7.4v.86a4.67,4.67,0,0,0-1.11.39,1.61,1.61,0,0,0-.55.48,2.29,2.29,0,0,0-.3.87,12.83,12.83,0,0,0-.09,1.79v6.22h9.77v-6.22a9.57,9.57,0,0,0-.15-2.09,1.7,1.7,0,0,0-.5-.86,4,4,0,0,0-1.39-.58v-.86h7.37v.86a3.88,3.88,0,0,0-1.38.55,1.63,1.63,0,0,0-.52.93,9.88,9.88,0,0,0-.14,2Z" transform="translate(340.7 -235.58)"/><path class="cls-5" d="M159.62,248v4.68h-2V248h-4.54V246h4.54v-4.66h2V246h4.55V248Z" transform="translate(340.7 -235.58)"/><path class="cls-5" d="M524.85,265a14.06,14.06,0,0,0,.06,1.52,3,3,0,0,0,.17.82,1.7,1.7,0,0,0,.3.5,1.64,1.64,0,0,0,.5.35,5.79,5.79,0,0,0,1,.34v.86h-7.36v-.86a4,4,0,0,0,1.35-.55,1.56,1.56,0,0,0,.54-.91,9.86,9.86,0,0,0,.15-2.07v-7.37h-9.78V265a13.89,13.89,0,0,0,.08,1.72,2.42,2.42,0,0,0,.27.86,1.45,1.45,0,0,0,.54.53,5,5,0,0,0,1.17.42v.86h-7.4v-.86a3.61,3.61,0,0,0,1.46-.63,1.6,1.6,0,0,0,.48-1,11.32,11.32,0,0,0,.12-1.93V249.8a12.31,12.31,0,0,0-.09-1.77,2.33,2.33,0,0,0-.29-.86,1.5,1.5,0,0,0-.54-.49,5.9,5.9,0,0,0-1.14-.41v-.86h7.4v.86a4.87,4.87,0,0,0-1.12.38,1.6,1.6,0,0,0-.54.49,2.13,2.13,0,0,0-.3.87,12.38,12.38,0,0,0-.1,1.79V256h9.78V249.8a9.51,9.51,0,0,0-.15-2.09,1.66,1.66,0,0,0-.5-.86,3.82,3.82,0,0,0-1.39-.58v-.86h7.36v.86a3.9,3.9,0,0,0-1.37.55,1.55,1.55,0,0,0-.52.92,9.82,9.82,0,0,0-.15,2.06Z" transform="translate(340.7 -235.58)"/><path class="cls-5" d="M537.37,249.5v4.68h-2V249.5h-4.54v-1.93h4.54v-4.66h2v4.66h4.55v1.93Z" transform="translate(340.7 -235.58)"/><path class="cls-5" d="M-53.11,333.52h-22.2l4,5.13-1,1-6.9-6.7V331.8l6.9-6.7,1,1-4,5.11h22.2Z" transform="translate(340.7 -235.58)"/><path class="cls-6" d="M643,333.52h-22.2l4,5.13-1,1-6.91-6.7V331.8l6.91-6.7,1,1-4,5.11H643Z" transform="translate(340.7 -235.58)"/><line class="cls-7" x1="2.09" y1="118.42" x2="144.04" y2="118.42"/><line class="cls-7" x1="293.79" y1="118.42" x2="435.74" y2="118.42"/><line class="cls-7" x1="773.01" y1="118.42" x2="829.93" y2="118.42"/><line class="cls-7" x1="997.46" y1="116.42" x2="1054.38" y2="116.42"/><path class="cls-8" d="M-315.56,390.7v-.86a6,6,0,0,0,1.31-.39,1.42,1.42,0,0,0,.64-.59,2.08,2.08,0,0,0,.21-1,6.77,6.77,0,0,0-.14-1.29c-.09-.46-.23-1-.4-1.56l-.65-2.27h-8.2l-.59,1.73a15.12,15.12,0,0,0-.6,2,6.16,6.16,0,0,0-.14,1.21,2,2,0,0,0,.53,1.55,3.15,3.15,0,0,0,1.65.65v.86h-7.51v-.86a2.68,2.68,0,0,0,1.72-1.15,11.93,11.93,0,0,0,1.41-2.81l7.33-19.46h2.78l6,19.6a19.83,19.83,0,0,0,.74,2.09,3.41,3.41,0,0,0,.78,1.13,3,3,0,0,0,1.25.6v.86Zm-6.75-9.49H-315l-3.34-11.34Z" transform="translate(340.7 -235.58)"/><path class="cls-8" d="M-292.16,385.6v5.1H-305.7v-.86l9.63-14.52h-4.76a2.63,2.63,0,0,0-1.39.31,3.27,3.27,0,0,0-1,1.06,10,10,0,0,0-.87,2h-1.53v-4.78h13.32v.88l-9.62,14.5h4.63a4.77,4.77,0,0,0,1.37-.14,2,2,0,0,0,.79-.44,3.38,3.38,0,0,0,.65-1,18.48,18.48,0,0,0,.76-2.11Z" transform="translate(340.7 -235.58)"/><path class="cls-8" d="M-289,389.84a6.28,6.28,0,0,0,1-.37,1.38,1.38,0,0,0,.49-.44,2.28,2.28,0,0,0,.32-.86,9.84,9.84,0,0,0,.12-1.81v-7.67c0-.75,0-1.35,0-1.81a2.71,2.71,0,0,0-.25-1.1,1.31,1.31,0,0,0-.64-.61,4.93,4.93,0,0,0-1.22-.35v-.93l4.1-.16h1.07V386.3a10.76,10.76,0,0,0,.14,2.1,1.47,1.47,0,0,0,.54.9,3.62,3.62,0,0,0,1.29.54v.86H-289Zm5-22.84v3.41h-3.23V367Z" transform="translate(340.7 -235.58)"/><path class="cls-8" d="M-267.19,371.59c0-1.12,0-1.91,0-2.36a6.56,6.56,0,0,0-.14-1.13,2,2,0,0,0-.32-.73,1.54,1.54,0,0,0-.54-.42,5.84,5.84,0,0,0-1.24-.32v-.91l4.25-.18h1V385.9c0,.91,0,1.57.05,2a2.75,2.75,0,0,0,.23.94,1.43,1.43,0,0,0,.55.57,4.77,4.77,0,0,0,1.33.41v.92l-4.15.17h-1.05L-267,388l-.27-.07a14.23,14.23,0,0,1-1.92,1.77,8.15,8.15,0,0,1-1.74.94,5.65,5.65,0,0,1-2,.35,5.16,5.16,0,0,1-4.45-2.19,10.8,10.8,0,0,1-1.56-6.32,10.71,10.71,0,0,1,1-4.89,6.88,6.88,0,0,1,2.75-3,7.68,7.68,0,0,1,3.89-1,11.25,11.25,0,0,1,2.11.19,8.93,8.93,0,0,1,1.95.61Zm0,8.68a15.88,15.88,0,0,0-.12-2.19,4.48,4.48,0,0,0-.41-1.39,3,3,0,0,0-.78-.95,3.06,3.06,0,0,0-1.09-.56A4.83,4.83,0,0,0-271,375a3.85,3.85,0,0,0-3.43,1.8,9.52,9.52,0,0,0-1.18,5.18,10.91,10.91,0,0,0,1,5.13,3.16,3.16,0,0,0,2.94,1.76,5.15,5.15,0,0,0,1.28-.13,4.1,4.1,0,0,0,1-.42,5.31,5.31,0,0,0,1-.8,4.38,4.38,0,0,0,.75-.94,3.42,3.42,0,0,0,.36-1,6.78,6.78,0,0,0,.12-1.41Z" transform="translate(340.7 -235.58)"/><path class="cls-8" d="M-251.44,391a7.13,7.13,0,0,1-5.58-2.15c-1.28-1.44-1.92-3.56-1.92-6.38a10.86,10.86,0,0,1,1-4.9,6.75,6.75,0,0,1,2.77-3,8.13,8.13,0,0,1,4-1,7.2,7.2,0,0,1,5.69,2.19,9.21,9.21,0,0,1,1.93,6.29,11.36,11.36,0,0,1-1,4.92,6.73,6.73,0,0,1-2.74,3A8.54,8.54,0,0,1-251.44,391Zm-4.18-8.9a11,11,0,0,0,1.15,5.57,3.65,3.65,0,0,0,3.3,1.94,3.44,3.44,0,0,0,2-.57,4.32,4.32,0,0,0,1.35-1.54,7.56,7.56,0,0,0,.74-2.24,14.39,14.39,0,0,0,.23-2.66,13.66,13.66,0,0,0-.57-4.29,5.31,5.31,0,0,0-1.56-2.51,3.46,3.46,0,0,0-2.25-.8,3.63,3.63,0,0,0-3.26,1.85A10.14,10.14,0,0,0-255.62,382.08Z" transform="translate(340.7 -235.58)"/><path class="cls-8" d="M-221.54,386.11a7.38,7.38,0,0,0,.12,1.54,1.83,1.83,0,0,0,.4.84,1.88,1.88,0,0,0,.84.51,6.69,6.69,0,0,0,1.37.28c.55.07,1.28.11,2.18.13v1.29h-13v-1.29a22.32,22.32,0,0,0,2.78-.23,3.32,3.32,0,0,0,1.28-.45,1.7,1.7,0,0,0,.64-.84,5.5,5.5,0,0,0,.2-1.78V371.85a1.72,1.72,0,0,0-.24-1,.86.86,0,0,0-.72-.33,3.62,3.62,0,0,0-1.6.58c-.7.39-1.55.92-2.57,1.6l-.77-1.35,8.22-4.91h1c-.07,1.13-.11,2.69-.11,4.68Z" transform="translate(340.7 -235.58)"/><path class="cls-8" d="M-27.26,390.83V390a3.61,3.61,0,0,0,1.46-.63,1.63,1.63,0,0,0,.48-1,11.46,11.46,0,0,0,.12-1.94v-15.2a12.31,12.31,0,0,0-.09-1.77,2.27,2.27,0,0,0-.29-.86,1.35,1.35,0,0,0-.54-.49,5.76,5.76,0,0,0-1.14-.42v-.86h9.62a13.79,13.79,0,0,1,4.49.6,5,5,0,0,1,2.52,1.77,5.1,5.1,0,0,1,.83,3,5.7,5.7,0,0,1-.59,2.66,5.73,5.73,0,0,1-1.54,1.86,11,11,0,0,1-2.44,1.37v.16a7.23,7.23,0,0,1,3.62,2.22,5.48,5.48,0,0,1,1.23,3.58,6.63,6.63,0,0,1-1.07,3.9,5.88,5.88,0,0,1-3,2.19,14,14,0,0,1-4.64.68Zm8.42-13.24a5.88,5.88,0,0,0,4.09-1.29,4.83,4.83,0,0,0,1.41-3.75,4.63,4.63,0,0,0-.39-2,3.3,3.3,0,0,0-1.09-1.27,4.63,4.63,0,0,0-1.65-.68,10.11,10.11,0,0,0-2.05-.2l-1.76,0-1.64.07v9.11Zm-3.08,11.57c.86.08,1.82.12,2.87.12a8.8,8.8,0,0,0,3.58-.58A3.71,3.71,0,0,0-13.63,387a6.33,6.33,0,0,0,.57-2.84,5.66,5.66,0,0,0-.62-2.82,3.92,3.92,0,0,0-1.92-1.65,9.65,9.65,0,0,0-3.59-.54h-2.73Z" transform="translate(340.7 -235.58)"/><path class="cls-8" d="M4.49,388.31l-.27-.07a10.71,10.71,0,0,1-2.87,2.22,6.55,6.55,0,0,1-2.86.65,5.05,5.05,0,0,1-2.35-.52,3.76,3.76,0,0,1-1.57-1.46A4.29,4.29,0,0,1-6,387a4.32,4.32,0,0,1,2.54-4q2.54-1.41,7.62-1.63v-1.14a9.66,9.66,0,0,0-.35-2.89,2.88,2.88,0,0,0-1.11-1.54,3.64,3.64,0,0,0-2-.49A3.27,3.27,0,0,0-1.5,376a4.44,4.44,0,0,0-1.25,2.16H-5.06V375.9a27.59,27.59,0,0,1,2.81-1.29A17.32,17.32,0,0,1,0,374a11,11,0,0,1,2.29-.24,6,6,0,0,1,2.79.56A3.49,3.49,0,0,1,6.67,376a8.66,8.66,0,0,1,.52,3.45v6.12c0,.86,0,1.48,0,1.83a6.12,6.12,0,0,0,.11,1,2.15,2.15,0,0,0,.26.73,1.47,1.47,0,0,0,.52.46,5.7,5.7,0,0,0,1.12.41v.86H4.4Zm-.3-5.5a12.36,12.36,0,0,0-5.35.95,3,3,0,0,0-1.77,2.76,2.7,2.7,0,0,0,.4,1.58,2,2,0,0,0,1,.8,4.27,4.27,0,0,0,1.46.22,4.12,4.12,0,0,0,2.17-.58,4.32,4.32,0,0,0,1.52-1.48,3.3,3.3,0,0,0,.55-1.77Z" transform="translate(340.7 -235.58)"/><path class="cls-8" d="M23.68,377.87H22a5.36,5.36,0,0,0-.92-1.66,2.92,2.92,0,0,0-1.19-.85,4.64,4.64,0,0,0-1.64-.25,3.51,3.51,0,0,0-2.24.66,2.17,2.17,0,0,0-.84,1.8,2.49,2.49,0,0,0,.34,1.34,3.29,3.29,0,0,0,1,1A17.43,17.43,0,0,0,19,381.11a17.72,17.72,0,0,1,2.77,1.42A5.25,5.25,0,0,1,23.32,384a3.73,3.73,0,0,1,.56,2.06,5.19,5.19,0,0,1-.48,2.34A4.13,4.13,0,0,1,22.07,390a5.66,5.66,0,0,1-2.05.86,11.73,11.73,0,0,1-2.6.27,19.15,19.15,0,0,1-2.86-.22c-.93-.15-1.83-.34-2.71-.57v-3.68h1.73A4.46,4.46,0,0,0,15,389a4,4,0,0,0,2.57.73,5.74,5.74,0,0,0,1.24-.13,3.46,3.46,0,0,0,1.08-.44,2.26,2.26,0,0,0,.75-.84,2.74,2.74,0,0,0,.29-1.32,2.64,2.64,0,0,0-.36-1.45,3.2,3.2,0,0,0-1.09-1,20.72,20.72,0,0,0-2.6-1.26A15.82,15.82,0,0,1,14.3,382a4.92,4.92,0,0,1-1.52-1.49,3.71,3.71,0,0,1-.56-2,4.14,4.14,0,0,1,.78-2.51,4.88,4.88,0,0,1,2.26-1.62,9.63,9.63,0,0,1,3.47-.57,20.33,20.33,0,0,1,2.24.12,25.6,25.6,0,0,1,2.71.45Z" transform="translate(340.7 -235.58)"/><path class="cls-8" d="M41.42,387.84a14.59,14.59,0,0,1-2.07,1.84,7.56,7.56,0,0,1-2.06,1.05,7.82,7.82,0,0,1-2.48.38,6.81,6.81,0,0,1-5.47-2.17q-1.85-2.18-1.84-6.41a10.68,10.68,0,0,1,.94-4.62,7.08,7.08,0,0,1,2.68-3.1,7.44,7.44,0,0,1,4-1.09,7.23,7.23,0,0,1,3,.57,5,5,0,0,1,2,1.53,7,7,0,0,1,1.16,2.46,15.77,15.77,0,0,1,.47,3.88H30.7v.32a11.35,11.35,0,0,0,.46,3.49,4.38,4.38,0,0,0,1.53,2.21,4.51,4.51,0,0,0,2.77.8,6,6,0,0,0,2.59-.54,7.76,7.76,0,0,0,2.3-1.74Zm-3-7.14a13.12,13.12,0,0,0-.48-3.1,3.82,3.82,0,0,0-1.11-1.85,2.86,2.86,0,0,0-1.93-.64,3.44,3.44,0,0,0-2.89,1.45,7.84,7.84,0,0,0-1.28,4.14Z" transform="translate(340.7 -235.58)"/><path class="cls-8" d="M63.37,386.24a7.38,7.38,0,0,0,.12,1.54,1.83,1.83,0,0,0,.4.84,1.88,1.88,0,0,0,.84.51,6.69,6.69,0,0,0,1.37.28c.55.07,1.28.11,2.18.13v1.29h-13v-1.29a24.5,24.5,0,0,0,2.78-.23,3.32,3.32,0,0,0,1.28-.45A1.68,1.68,0,0,0,60,388a5.39,5.39,0,0,0,.2-1.77V372a1.76,1.76,0,0,0-.24-1,.88.88,0,0,0-.72-.32,3.62,3.62,0,0,0-1.6.58c-.7.39-1.55.92-2.57,1.6l-.77-1.35,8.22-4.91h1c-.07,1.13-.11,2.68-.11,4.68Z" transform="translate(340.7 -235.58)"/><path class="cls-8" d="M405.22,390.7v-.86a3.54,3.54,0,0,0,1.46-.63,1.7,1.7,0,0,0,.49-1,12.83,12.83,0,0,0,.11-1.94V371.1a12.31,12.31,0,0,0-.09-1.77,2.16,2.16,0,0,0-.29-.86,1.47,1.47,0,0,0-.53-.49,6.34,6.34,0,0,0-1.15-.41v-.87h9.62a13.79,13.79,0,0,1,4.49.6,5,5,0,0,1,2.52,1.77,5.1,5.1,0,0,1,.83,3,5.7,5.7,0,0,1-.59,2.66,5.61,5.61,0,0,1-1.54,1.86,11,11,0,0,1-2.44,1.37v.16a7.23,7.23,0,0,1,3.62,2.22,5.5,5.5,0,0,1,1.23,3.58,6.61,6.61,0,0,1-1.06,3.9,6,6,0,0,1-3,2.19,14.06,14.06,0,0,1-4.64.68Zm8.42-13.24a5.87,5.87,0,0,0,4.09-1.29,4.83,4.83,0,0,0,1.42-3.75,4.63,4.63,0,0,0-.4-2,3.29,3.29,0,0,0-1.09-1.27,4.58,4.58,0,0,0-1.64-.68,10.28,10.28,0,0,0-2.06-.2c-.45,0-1,0-1.76,0s-1.27,0-1.63.07v9.1ZM410.57,389c.85.08,1.81.12,2.86.12a8.8,8.8,0,0,0,3.58-.58,3.77,3.77,0,0,0,1.85-1.71,6.3,6.3,0,0,0,.57-2.84,5.59,5.59,0,0,0-.63-2.81,3.8,3.8,0,0,0-1.92-1.66,9.61,9.61,0,0,0-3.59-.54h-2.72Z" transform="translate(340.7 -235.58)"/><path class="cls-8" d="M437,388.18l-.26-.07a10.53,10.53,0,0,1-2.88,2.22A6.5,6.5,0,0,1,431,391a5.07,5.07,0,0,1-2.36-.52,3.62,3.62,0,0,1-1.56-1.46,4.17,4.17,0,0,1-.55-2.17,4.34,4.34,0,0,1,2.54-4,17.94,17.94,0,0,1,7.62-1.63V380.1a9.54,9.54,0,0,0-.35-2.88,2.82,2.82,0,0,0-1.11-1.55,3.64,3.64,0,0,0-2-.49,3.28,3.28,0,0,0-2.21.72,4.44,4.44,0,0,0-1.25,2.16h-2.31v-2.29a27.6,27.6,0,0,1,2.82-1.29,17.32,17.32,0,0,1,2.25-.65,10.9,10.9,0,0,1,2.28-.24,6.06,6.06,0,0,1,2.8.56,3.52,3.52,0,0,1,1.58,1.69,8.66,8.66,0,0,1,.53,3.45v6.12c0,.86,0,1.48,0,1.83a7.46,7.46,0,0,0,.11,1,2.29,2.29,0,0,0,.26.73,1.47,1.47,0,0,0,.52.46,5.11,5.11,0,0,0,1.12.41v.86h-4.82Zm-.3-5.5a12.43,12.43,0,0,0-5.34.95,2.94,2.94,0,0,0-1.78,2.76A2.7,2.7,0,0,0,430,388a2,2,0,0,0,1,.8,4.21,4.21,0,0,0,1.45.22,4.16,4.16,0,0,0,2.18-.58,4.38,4.38,0,0,0,1.52-1.47,3.43,3.43,0,0,0,.54-1.78Z" transform="translate(340.7 -235.58)"/><path class="cls-8" d="M456.17,377.74h-1.69a5.27,5.27,0,0,0-.92-1.66,2.92,2.92,0,0,0-1.19-.85,4.88,4.88,0,0,0-1.64-.25,3.53,3.53,0,0,0-2.24.66,2.19,2.19,0,0,0-.83,1.8,2.49,2.49,0,0,0,.33,1.34,3.29,3.29,0,0,0,1,1,17.7,17.7,0,0,0,2.48,1.22,18.19,18.19,0,0,1,2.77,1.42,5.09,5.09,0,0,1,1.52,1.51,3.73,3.73,0,0,1,.56,2.06,5.16,5.16,0,0,1-.48,2.34,4,4,0,0,1-1.33,1.54,5.86,5.86,0,0,1-2.05.87,12.35,12.35,0,0,1-2.59.26,17.94,17.94,0,0,1-2.87-.22c-.92-.15-1.83-.34-2.71-.57v-3.68h1.73a4.42,4.42,0,0,0,1.4,2.35,4,4,0,0,0,2.57.73,5.67,5.67,0,0,0,1.24-.13,3.46,3.46,0,0,0,1.08-.44,2.21,2.21,0,0,0,.76-.84,2.85,2.85,0,0,0,.28-1.31,2.74,2.74,0,0,0-.35-1.46,3.4,3.4,0,0,0-1.09-1,21,21,0,0,0-2.61-1.26,15.82,15.82,0,0,1-2.56-1.3,5,5,0,0,1-1.52-1.49,3.71,3.71,0,0,1-.56-2,4.08,4.08,0,0,1,.79-2.51,4.78,4.78,0,0,1,2.26-1.62,9.54,9.54,0,0,1,3.46-.57,20.33,20.33,0,0,1,2.24.12c.72.08,1.63.22,2.72.45Z" transform="translate(340.7 -235.58)"/><path class="cls-8" d="M473.9,387.71a15.3,15.3,0,0,1-2.06,1.85,8,8,0,0,1-2.07,1,7.82,7.82,0,0,1-2.48.38,6.76,6.76,0,0,1-5.46-2.17c-1.24-1.45-1.85-3.58-1.85-6.41a10.71,10.71,0,0,1,.94-4.62,7.14,7.14,0,0,1,2.68-3.1,7.46,7.46,0,0,1,4-1.09,7.23,7.23,0,0,1,3,.57,5,5,0,0,1,2,1.54,7.21,7.21,0,0,1,1.16,2.46,16.24,16.24,0,0,1,.46,3.87H463.18v.32a11.35,11.35,0,0,0,.46,3.49,4.15,4.15,0,0,0,4.3,3,6.23,6.23,0,0,0,2.6-.53,7.77,7.77,0,0,0,2.29-1.75ZM471,380.57a13.12,13.12,0,0,0-.48-3.1,3.8,3.8,0,0,0-1.1-1.84,2.86,2.86,0,0,0-1.94-.65,3.45,3.45,0,0,0-2.89,1.45,7.84,7.84,0,0,0-1.27,4.14Z" transform="translate(340.7 -235.58)"/><path class="cls-8" d="M495.86,386.11a7.52,7.52,0,0,0,.11,1.54,1.79,1.79,0,0,0,.41.84,1.84,1.84,0,0,0,.83.51,6.08,6.08,0,0,0,1.37.28c.55.07,1.28.11,2.18.14v1.28h-13v-1.28a24.35,24.35,0,0,0,2.79-.24,3.33,3.33,0,0,0,1.27-.45,1.7,1.7,0,0,0,.64-.84,5.5,5.5,0,0,0,.2-1.78V371.85a1.72,1.72,0,0,0-.24-1,.86.86,0,0,0-.72-.33,3.62,3.62,0,0,0-1.6.58c-.69.39-1.55.92-2.57,1.6l-.77-1.35,8.23-4.91h1c-.07,1.13-.1,2.69-.1,4.68Z" transform="translate(340.7 -235.58)"/><path class="cls-8" d="M636.3,390.05v-.86a6,6,0,0,0,1.31-.39,1.47,1.47,0,0,0,.64-.59,2.08,2.08,0,0,0,.21-1,6.77,6.77,0,0,0-.14-1.29c-.1-.46-.23-1-.41-1.56l-.65-2.27h-8.19l-.6,1.73a16.43,16.43,0,0,0-.59,2,5.49,5.49,0,0,0-.14,1.21,2,2,0,0,0,.53,1.55,3.15,3.15,0,0,0,1.65.65v.86h-7.51v-.86a2.64,2.64,0,0,0,1.71-1.15,11.53,11.53,0,0,0,1.42-2.81l7.33-19.46h2.78l6,19.6a17.47,17.47,0,0,0,.75,2.09,3.41,3.41,0,0,0,.78,1.13,2.92,2.92,0,0,0,1.25.6v.86Zm-6.75-9.49h7.34l-3.34-11.34Z" transform="translate(340.7 -235.58)"/><path class="cls-8" d="M659.69,385v5.1H646.16v-.86l9.63-14.52H651a2.63,2.63,0,0,0-1.39.31,3.27,3.27,0,0,0-1,1.06,9.93,9.93,0,0,0-.88,2h-1.53v-4.78h13.33v.88L650,388.62h4.63a4.77,4.77,0,0,0,1.37-.14,2,2,0,0,0,.79-.44,3.38,3.38,0,0,0,.65-1,17,17,0,0,0,.75-2.11Z" transform="translate(340.7 -235.58)"/><path class="cls-8" d="M662.8,389.19a6.09,6.09,0,0,0,1-.37,1.47,1.47,0,0,0,.49-.44,2.28,2.28,0,0,0,.32-.86,10,10,0,0,0,.11-1.81V378c0-.75,0-1.35,0-1.81a2.88,2.88,0,0,0-.25-1.1,1.31,1.31,0,0,0-.64-.61,5.07,5.07,0,0,0-1.22-.35v-.93l4.09-.16h1.08v12.57a10,10,0,0,0,.14,2.1,1.51,1.51,0,0,0,.53.9,3.77,3.77,0,0,0,1.3.54v.86h-6.9Zm5-22.84v3.41H664.6v-3.41Z" transform="translate(340.7 -235.58)"/><path class="cls-8" d="M684.67,370.94c0-1.12,0-1.91,0-2.36a5.63,5.63,0,0,0-.15-1.13,2,2,0,0,0-.31-.73,1.58,1.58,0,0,0-.55-.42,5.51,5.51,0,0,0-1.24-.32v-.91l4.26-.18h1v20.36c0,.91,0,1.57,0,2a2.49,2.49,0,0,0,.23.94,1.37,1.37,0,0,0,.55.57,4.66,4.66,0,0,0,1.33.41v.92l-4.15.17h-1.06l.22-2.88-.27-.07a14.85,14.85,0,0,1-1.92,1.77,8.15,8.15,0,0,1-1.74.94,5.65,5.65,0,0,1-2,.35,5.14,5.14,0,0,1-4.45-2.19,13,13,0,0,1-.54-11.21,6.82,6.82,0,0,1,2.75-3,7.68,7.68,0,0,1,3.89-1,11.33,11.33,0,0,1,2.11.19,9.28,9.28,0,0,1,1.95.61Zm0,8.68a15.88,15.88,0,0,0-.12-2.19,4.48,4.48,0,0,0-.41-1.39,3.1,3.1,0,0,0-1.87-1.51,4.83,4.83,0,0,0-1.41-.18,3.84,3.84,0,0,0-3.43,1.8,9.43,9.43,0,0,0-1.18,5.18,10.79,10.79,0,0,0,1,5.13,3.14,3.14,0,0,0,2.93,1.76,5.18,5.18,0,0,0,1.29-.13,4.1,4.1,0,0,0,1-.42,5.31,5.31,0,0,0,1-.8,4.38,4.38,0,0,0,.75-.94,3.42,3.42,0,0,0,.36-1,6.78,6.78,0,0,0,.12-1.41Z" transform="translate(340.7 -235.58)"/><path class="cls-8" d="M700.42,390.33a7.1,7.1,0,0,1-5.58-2.15c-1.28-1.44-1.92-3.56-1.92-6.38a10.73,10.73,0,0,1,1-4.9,6.7,6.7,0,0,1,2.77-3,8.09,8.09,0,0,1,4-1,7.21,7.21,0,0,1,5.7,2.19,9.21,9.21,0,0,1,1.93,6.29,11.36,11.36,0,0,1-1,4.92,6.7,6.7,0,0,1-2.75,3A8.47,8.47,0,0,1,700.42,390.33Zm-4.18-8.9a11,11,0,0,0,1.15,5.57,3.65,3.65,0,0,0,3.3,1.94,3.44,3.44,0,0,0,2-.57,4.2,4.2,0,0,0,1.34-1.54,7.29,7.29,0,0,0,.75-2.24,15.31,15.31,0,0,0,.23-2.66,13.66,13.66,0,0,0-.57-4.29,5.31,5.31,0,0,0-1.56-2.51,3.46,3.46,0,0,0-2.25-.8,3.62,3.62,0,0,0-3.26,1.85A10.14,10.14,0,0,0,696.24,381.43Z" transform="translate(340.7 -235.58)"/><path class="cls-8" d="M730.32,385.46a7.38,7.38,0,0,0,.12,1.54,1.78,1.78,0,0,0,.4.84,1.82,1.82,0,0,0,.84.51,6.69,6.69,0,0,0,1.37.28c.55.07,1.27.11,2.18.13v1.29h-13v-1.29a22.32,22.32,0,0,0,2.78-.23,3.39,3.39,0,0,0,1.28-.45,1.76,1.76,0,0,0,.64-.84,5.8,5.8,0,0,0,.2-1.78V371.2a1.65,1.65,0,0,0-.25-1,.83.83,0,0,0-.72-.33,3.7,3.7,0,0,0-1.6.58c-.69.39-1.54.92-2.56,1.6l-.78-1.35,8.23-4.91h1c-.07,1.13-.11,2.69-.11,4.68Z" transform="translate(340.7 -235.58)"/><path class="cls-6" d="M-78.21,318.69H-56l-4-5.11,1-1,6.91,6.7v1.12l-6.91,6.7-1-1,4-5.13h-22.2Z" transform="translate(340.7 -235.58)"/><path class="cls-5" d="M617.88,318.69h22.2l-4-5.11,1-1,6.91,6.7v1.12l-6.91,6.7-1-1,4-5.13h-22.2Z" transform="translate(340.7 -235.58)"/><line class="cls-9" x1="176.81" y1="118.42" x2="245.07" y2="118.42"/><line class="cls-9" x1="485.45" y1="118.42" x2="553.7" y2="118.42"/><line class="cls-9" x1="871.28" y1="117.42" x2="939.53" y2="117.42"/><line class="cls-9" x1="1102.45" y1="116.42" x2="1170.7" y2="116.42"/><path class="cls-10" d="M-174.63,390.83V390a3.61,3.61,0,0,0,1.46-.63,1.63,1.63,0,0,0,.48-1,11.46,11.46,0,0,0,.12-1.94v-15.2a12.31,12.31,0,0,0-.09-1.77,2.27,2.27,0,0,0-.29-.86,1.42,1.42,0,0,0-.54-.49,5.76,5.76,0,0,0-1.14-.42v-.86H-165a13.79,13.79,0,0,1,4.49.6A5,5,0,0,1-158,369.2a5.1,5.1,0,0,1,.83,3,5.7,5.7,0,0,1-.59,2.66,5.73,5.73,0,0,1-1.54,1.86,10.85,10.85,0,0,1-2.45,1.37v.16a7.22,7.22,0,0,1,3.63,2.22,5.48,5.48,0,0,1,1.23,3.58A6.63,6.63,0,0,1-158,388a5.92,5.92,0,0,1-3,2.19,14,14,0,0,1-4.64.68Zm8.42-13.24a5.88,5.88,0,0,0,4.09-1.29,4.83,4.83,0,0,0,1.41-3.75,4.63,4.63,0,0,0-.39-2,3.3,3.3,0,0,0-1.09-1.27,4.63,4.63,0,0,0-1.65-.68,10.18,10.18,0,0,0-2-.2l-1.76,0-1.64.07v9.11Zm-3.08,11.57c.86.08,1.81.12,2.87.12a8.83,8.83,0,0,0,3.58-.58A3.71,3.71,0,0,0-161,387a6.33,6.33,0,0,0,.57-2.84,5.66,5.66,0,0,0-.62-2.82,3.9,3.9,0,0,0-1.93-1.65,9.56,9.56,0,0,0-3.58-.54h-2.73Z" transform="translate(340.7 -235.58)"/><path class="cls-10" d="M-142.88,388.31l-.27-.07a10.86,10.86,0,0,1-2.87,2.22,6.55,6.55,0,0,1-2.86.65,5.05,5.05,0,0,1-2.35-.52,3.76,3.76,0,0,1-1.57-1.46,4.29,4.29,0,0,1-.54-2.17,4.32,4.32,0,0,1,2.54-4q2.53-1.41,7.62-1.63v-1.14a9.66,9.66,0,0,0-.35-2.89,2.88,2.88,0,0,0-1.11-1.54,3.66,3.66,0,0,0-2-.49,3.27,3.27,0,0,0-2.21.72,4.45,4.45,0,0,0-1.26,2.16h-2.3V375.9a27.59,27.59,0,0,1,2.81-1.29,17.32,17.32,0,0,1,2.25-.65,11,11,0,0,1,2.29-.24,6,6,0,0,1,2.79.56A3.53,3.53,0,0,1-140.7,376a8.66,8.66,0,0,1,.52,3.45v6.12c0,.86,0,1.48,0,1.83a6.12,6.12,0,0,0,.11,1,2,2,0,0,0,.26.73,1.47,1.47,0,0,0,.52.46,5.81,5.81,0,0,0,1.11.41v.86H-143Zm-.3-5.5a12.36,12.36,0,0,0-5.35.95,3,3,0,0,0-1.77,2.76,2.7,2.7,0,0,0,.4,1.58,2,2,0,0,0,1,.8,4.27,4.27,0,0,0,1.46.22,4.12,4.12,0,0,0,2.17-.58,4.32,4.32,0,0,0,1.52-1.48,3.3,3.3,0,0,0,.55-1.77Z" transform="translate(340.7 -235.58)"/><path class="cls-10" d="M-123.69,377.87h-1.69a5.16,5.16,0,0,0-.91-1.66,2.89,2.89,0,0,0-1.2-.85,4.58,4.58,0,0,0-1.63-.25,3.51,3.51,0,0,0-2.24.66,2.17,2.17,0,0,0-.84,1.8,2.49,2.49,0,0,0,.34,1.34,3.36,3.36,0,0,0,1,1,18.3,18.3,0,0,0,2.48,1.22,17.72,17.72,0,0,1,2.77,1.42A5.25,5.25,0,0,1-124,384a3.73,3.73,0,0,1,.55,2.06,5.19,5.19,0,0,1-.47,2.34,4.07,4.07,0,0,1-1.34,1.54,5.54,5.54,0,0,1-2,.86,11.73,11.73,0,0,1-2.6.27,19,19,0,0,1-2.86-.22c-.93-.15-1.83-.34-2.71-.57v-3.68h1.72a4.53,4.53,0,0,0,1.41,2.35,4,4,0,0,0,2.57.73,5.74,5.74,0,0,0,1.24-.13,3.46,3.46,0,0,0,1.08-.44,2.26,2.26,0,0,0,.75-.84,2.75,2.75,0,0,0,.28-1.32,2.64,2.64,0,0,0-.35-1.45,3.29,3.29,0,0,0-1.09-1,20.72,20.72,0,0,0-2.6-1.26,16,16,0,0,1-2.57-1.3,5.15,5.15,0,0,1-1.52-1.49,3.79,3.79,0,0,1-.55-2,4.14,4.14,0,0,1,.78-2.51,4.83,4.83,0,0,1,2.26-1.62,9.61,9.61,0,0,1,3.46-.57,20.51,20.51,0,0,1,2.25.12,25.6,25.6,0,0,1,2.71.45Z" transform="translate(340.7 -235.58)"/><path class="cls-10" d="M-105.95,387.84a14.59,14.59,0,0,1-2.07,1.84,7.56,7.56,0,0,1-2.06,1.05,7.82,7.82,0,0,1-2.48.38,6.8,6.8,0,0,1-5.47-2.17q-1.84-2.18-1.84-6.41a10.68,10.68,0,0,1,.94-4.62,7.08,7.08,0,0,1,2.68-3.1,7.43,7.43,0,0,1,4-1.09,7.25,7.25,0,0,1,3,.57,5,5,0,0,1,2,1.53,7,7,0,0,1,1.16,2.46,16.27,16.27,0,0,1,.47,3.88h-11.07v.32a11.35,11.35,0,0,0,.46,3.49,4.38,4.38,0,0,0,1.53,2.21,4.51,4.51,0,0,0,2.77.8,6,6,0,0,0,2.59-.54,7.76,7.76,0,0,0,2.3-1.74Zm-3-7.14a13.18,13.18,0,0,0-.47-3.1,4,4,0,0,0-1.11-1.85,2.86,2.86,0,0,0-1.93-.64,3.44,3.44,0,0,0-2.89,1.45,7.84,7.84,0,0,0-1.28,4.14Z" transform="translate(340.7 -235.58)"/><path class="cls-10" d="M-83.87,388a7.36,7.36,0,0,0,1.38-.1,2,2,0,0,0,.85-.35,1.76,1.76,0,0,0,.5-.64c.12-.27.28-.68.47-1.23h1.49l-.3,5.14H-93.95V390a22.74,22.74,0,0,1,2-3.78,42,42,0,0,1,3.64-4.55q2-2.25,2.94-3.41a15,15,0,0,0,1.46-2.19,7.63,7.63,0,0,0,.7-1.74,6.53,6.53,0,0,0,.21-1.64,6,6,0,0,0-.42-2.33,3.49,3.49,0,0,0-1.29-1.59,3.84,3.84,0,0,0-2.19-.58q-3.28,0-4.43,3.65h-2.13v-3.37a21.15,21.15,0,0,1,4-1.45,14.33,14.33,0,0,1,3.33-.45A7.43,7.43,0,0,1-81.17,368a5.16,5.16,0,0,1,1.67,4.16,7.61,7.61,0,0,1-.18,1.71,6.63,6.63,0,0,1-.58,1.55,12,12,0,0,1-1.07,1.65c-.44.58-.93,1.18-1.47,1.78s-1.47,1.61-2.8,3A37.59,37.59,0,0,0-90.5,388Z" transform="translate(340.7 -235.58)"/><path class="cls-10" d="M754.19,390.83V390a3.68,3.68,0,0,0,1.46-.63,1.75,1.75,0,0,0,.48-1,11.69,11.69,0,0,0,.11-1.94v-15.2a14.49,14.49,0,0,0-.08-1.77,2.27,2.27,0,0,0-.29-.86,1.49,1.49,0,0,0-.54-.49,5.76,5.76,0,0,0-1.14-.42v-.86h9.61a13.75,13.75,0,0,1,4.49.6,4.56,4.56,0,0,1,3.35,4.78,5.58,5.58,0,0,1-.59,2.66,5.49,5.49,0,0,1-1.54,1.86,10.76,10.76,0,0,1-2.44,1.37v.16a7.19,7.19,0,0,1,3.62,2.22,5.48,5.48,0,0,1,1.23,3.58,6.63,6.63,0,0,1-1.06,3.9,5.92,5.92,0,0,1-3,2.19,14,14,0,0,1-4.64.68Zm8.42-13.24a5.84,5.84,0,0,0,4.08-1.29,4.8,4.8,0,0,0,1.42-3.75,4.49,4.49,0,0,0-.4-2,3.14,3.14,0,0,0-1.09-1.27,4.58,4.58,0,0,0-1.64-.68,10.21,10.21,0,0,0-2.06-.2l-1.75,0-1.64.07v9.11Zm-3.08,11.57c.86.08,1.81.12,2.87.12a8.78,8.78,0,0,0,3.57-.58,3.73,3.73,0,0,0,1.85-1.71,6.33,6.33,0,0,0,.57-2.84,5.77,5.77,0,0,0-.62-2.82,3.9,3.9,0,0,0-1.93-1.65,9.61,9.61,0,0,0-3.59-.54h-2.72Z" transform="translate(340.7 -235.58)"/><path class="cls-10" d="M785.93,388.31l-.26-.07a10.73,10.73,0,0,1-2.88,2.22,6.47,6.47,0,0,1-2.85.65,5.09,5.09,0,0,1-2.36-.52,3.68,3.68,0,0,1-1.56-1.46,4.29,4.29,0,0,1-.55-2.17,4.34,4.34,0,0,1,2.54-4q2.55-1.41,7.62-1.63v-1.14a9.34,9.34,0,0,0-.35-2.89,2.78,2.78,0,0,0-1.11-1.54,3.62,3.62,0,0,0-2-.49,3.24,3.24,0,0,0-2.2.72,4.37,4.37,0,0,0-1.26,2.16h-2.3V375.9a26.63,26.63,0,0,1,2.81-1.29,17.32,17.32,0,0,1,2.25-.65,10.92,10.92,0,0,1,2.29-.24,6,6,0,0,1,2.79.56,3.52,3.52,0,0,1,1.58,1.69,8.63,8.63,0,0,1,.53,3.45v6.12c0,.86,0,1.48,0,1.83a6.16,6.16,0,0,0,.1,1,2.14,2.14,0,0,0,.27.73,1.44,1.44,0,0,0,.51.46,6,6,0,0,0,1.12.41v.86h-4.82Zm-.3-5.5a12.28,12.28,0,0,0-5.34.95,3,3,0,0,0-1.78,2.76,2.7,2.7,0,0,0,.41,1.58,2,2,0,0,0,1,.8,4.23,4.23,0,0,0,1.46.22,4.15,4.15,0,0,0,2.17-.58,4.32,4.32,0,0,0,1.52-1.48,3.37,3.37,0,0,0,.54-1.77Z" transform="translate(340.7 -235.58)"/><path class="cls-10" d="M805.13,377.87h-1.69a5.36,5.36,0,0,0-.91-1.66,3,3,0,0,0-1.2-.85,4.58,4.58,0,0,0-1.63-.25,3.49,3.49,0,0,0-2.24.66,2.17,2.17,0,0,0-.84,1.8,2.49,2.49,0,0,0,.33,1.34,3.41,3.41,0,0,0,1,1,18.3,18.3,0,0,0,2.48,1.22,17.72,17.72,0,0,1,2.77,1.42,5.25,5.25,0,0,1,1.53,1.51,3.73,3.73,0,0,1,.55,2.06,5.33,5.33,0,0,1-.47,2.34,4.15,4.15,0,0,1-1.34,1.54,5.59,5.59,0,0,1-2,.86,11.64,11.64,0,0,1-2.59.27,19.28,19.28,0,0,1-2.87-.22q-1.38-.22-2.7-.57v-3.68H795a4.53,4.53,0,0,0,1.41,2.35,4,4,0,0,0,2.56.73,5.61,5.61,0,0,0,1.24-.13,3.27,3.27,0,0,0,1.08-.44,2.28,2.28,0,0,0,.76-.84,3.21,3.21,0,0,0-.07-2.77,3.4,3.4,0,0,0-1.09-1,20.72,20.72,0,0,0-2.6-1.26,16,16,0,0,1-2.57-1.3,5.15,5.15,0,0,1-1.52-1.49,3.71,3.71,0,0,1-.55-2,4.14,4.14,0,0,1,.78-2.51,4.78,4.78,0,0,1,2.26-1.62,9.58,9.58,0,0,1,3.46-.57,20.33,20.33,0,0,1,2.24.12,25.72,25.72,0,0,1,2.72.45Z" transform="translate(340.7 -235.58)"/><path class="cls-10" d="M822.86,387.84a14.57,14.57,0,0,1-2.06,1.84,7.64,7.64,0,0,1-4.55,1.43,6.79,6.79,0,0,1-5.46-2.17q-1.85-2.18-1.85-6.41a10.83,10.83,0,0,1,.94-4.62,7.14,7.14,0,0,1,2.68-3.1,7.46,7.46,0,0,1,4-1.09,7.23,7.23,0,0,1,3,.57,5,5,0,0,1,2,1.53,7.21,7.21,0,0,1,1.16,2.46,16.27,16.27,0,0,1,.47,3.88H812.14v.32a11.33,11.33,0,0,0,.47,3.49,4.38,4.38,0,0,0,1.53,2.21,4.51,4.51,0,0,0,2.77.8,6,6,0,0,0,2.59-.54,7.6,7.6,0,0,0,2.29-1.74Zm-3-7.14a13.72,13.72,0,0,0-.47-3.1,4,4,0,0,0-1.11-1.85,2.88,2.88,0,0,0-1.93-.64,3.45,3.45,0,0,0-2.9,1.45,7.84,7.84,0,0,0-1.27,4.14Z" transform="translate(340.7 -235.58)"/><path class="cls-10" d="M844.94,388a7.41,7.41,0,0,0,1.39-.1,2,2,0,0,0,.84-.35,1.79,1.79,0,0,0,.51-.64c.12-.27.27-.68.46-1.23h1.5l-.3,5.14H834.87V390a21.35,21.35,0,0,1,2-3.78,40.78,40.78,0,0,1,3.64-4.55q2-2.25,2.93-3.41a14.39,14.39,0,0,0,1.47-2.19,8.67,8.67,0,0,0,.7-1.74,6.53,6.53,0,0,0,.21-1.64,5.84,5.84,0,0,0-.43-2.33,3.49,3.49,0,0,0-1.29-1.59,3.84,3.84,0,0,0-2.19-.58c-2.19,0-3.66,1.22-4.43,3.65H835.4v-3.37a20.91,20.91,0,0,1,4-1.45,14.33,14.33,0,0,1,3.33-.45,7.43,7.43,0,0,1,4.94,1.43,5.19,5.19,0,0,1,1.67,4.16,7.05,7.05,0,0,1-.19,1.71,6.22,6.22,0,0,1-.58,1.55,11,11,0,0,1-1.06,1.65c-.44.58-.94,1.18-1.48,1.78s-1.47,1.61-2.79,3a37.06,37.06,0,0,0-4.9,6.17Z" transform="translate(340.7 -235.58)"/><path class="cls-10" d="M137,390.83V390a5.31,5.31,0,0,0,1.3-.38A1.44,1.44,0,0,0,139,389a2.08,2.08,0,0,0,.21-1,6.77,6.77,0,0,0-.14-1.29c-.1-.47-.23-1-.41-1.56l-.65-2.27H129.8l-.6,1.73a17,17,0,0,0-.59,2,5.63,5.63,0,0,0-.15,1.22,2,2,0,0,0,.54,1.54,3,3,0,0,0,1.64.65v.87h-7.5V390a2.61,2.61,0,0,0,1.71-1.14,11.53,11.53,0,0,0,1.42-2.81l7.33-19.46h2.78l6,19.6a18.15,18.15,0,0,0,.75,2.09,3.41,3.41,0,0,0,.78,1.13,2.8,2.8,0,0,0,1.25.59v.87Zm-6.75-9.5h7.34L134.28,370Z" transform="translate(340.7 -235.58)"/><path class="cls-10" d="M160.42,385.73v5.1H146.89V390l9.63-14.51h-4.76a2.63,2.63,0,0,0-1.39.31,3.17,3.17,0,0,0-1,1.06,9.93,9.93,0,0,0-.88,2H147V374h13.33v.88l-9.62,14.5h4.62a4.85,4.85,0,0,0,1.38-.14,2,2,0,0,0,.79-.45,3.18,3.18,0,0,0,.65-1,17,17,0,0,0,.75-2.11Z" transform="translate(340.7 -235.58)"/><path class="cls-10" d="M163.53,390a6.31,6.31,0,0,0,1-.36,1.59,1.59,0,0,0,.49-.44,2.27,2.27,0,0,0,.32-.87,11,11,0,0,0,.11-1.81v-7.66c0-.75,0-1.35,0-1.81a2.88,2.88,0,0,0-.25-1.1,1.31,1.31,0,0,0-.64-.61,5.21,5.21,0,0,0-1.22-.35V374l4.09-.16h1.08v12.57a10,10,0,0,0,.14,2.1,1.57,1.57,0,0,0,.53.9,3.81,3.81,0,0,0,1.29.53v.87h-6.89Zm5-22.83v3.41h-3.23v-3.41Z" transform="translate(340.7 -235.58)"/><path class="cls-10" d="M185.4,371.72c0-1.13,0-1.91,0-2.36a5,5,0,0,0-.14-1.13,2,2,0,0,0-.31-.73,1.37,1.37,0,0,0-.55-.42,5.67,5.67,0,0,0-1.24-.32v-.91l4.26-.18h1V386c0,.91,0,1.56.06,2a2.54,2.54,0,0,0,.23.94,1.37,1.37,0,0,0,.55.57,4.66,4.66,0,0,0,1.33.41v.92l-4.15.17h-1.06l.21-2.88-.26-.07a15.62,15.62,0,0,1-1.92,1.77,8.15,8.15,0,0,1-1.74.94,5.65,5.65,0,0,1-2,.35,5.14,5.14,0,0,1-4.45-2.19,13,13,0,0,1-.54-11.22,6.85,6.85,0,0,1,2.75-3,7.68,7.68,0,0,1,3.89-1,10.54,10.54,0,0,1,2.11.19,9.85,9.85,0,0,1,2,.6Zm0,8.68a15.88,15.88,0,0,0-.12-2.19,4.15,4.15,0,0,0-.42-1.39,2.77,2.77,0,0,0-.78-.95,3.3,3.3,0,0,0-1.08-.57,5.23,5.23,0,0,0-1.41-.17,3.84,3.84,0,0,0-3.43,1.8,9.43,9.43,0,0,0-1.18,5.18,10.79,10.79,0,0,0,1,5.13,3.14,3.14,0,0,0,2.93,1.76,5.7,5.7,0,0,0,1.29-.13,3.78,3.78,0,0,0,1-.43,4.93,4.93,0,0,0,1-.8,4.62,4.62,0,0,0,.75-.93,3.42,3.42,0,0,0,.36-1,6.85,6.85,0,0,0,.12-1.41Z" transform="translate(340.7 -235.58)"/><path class="cls-10" d="M201.15,391.11a7.07,7.07,0,0,1-5.58-2.16c-1.28-1.43-1.93-3.56-1.93-6.37a10.7,10.7,0,0,1,1-4.9,6.73,6.73,0,0,1,2.76-3,8.16,8.16,0,0,1,4-1,7.21,7.21,0,0,1,5.7,2.19,9.19,9.19,0,0,1,1.93,6.29,11.21,11.21,0,0,1-1,4.92,6.55,6.55,0,0,1-2.74,3A8.37,8.37,0,0,1,201.15,391.11Zm-4.18-8.9a11,11,0,0,0,1.15,5.57,3.63,3.63,0,0,0,3.29,1.94,3.45,3.45,0,0,0,2-.57,4.28,4.28,0,0,0,1.34-1.54,7.38,7.38,0,0,0,.75-2.24,15.31,15.31,0,0,0,.23-2.66,13.66,13.66,0,0,0-.57-4.29,5.26,5.26,0,0,0-1.56-2.51,3.46,3.46,0,0,0-2.25-.8A3.62,3.62,0,0,0,198.1,377,10,10,0,0,0,197,382.21Z" transform="translate(340.7 -235.58)"/><path class="cls-10" d="M231.17,388a7.41,7.41,0,0,0,1.39-.1,2.08,2.08,0,0,0,.85-.35,1.88,1.88,0,0,0,.5-.64c.12-.27.28-.68.46-1.23h1.5l-.3,5.14H221.1V390a22.74,22.74,0,0,1,2-3.78,42,42,0,0,1,3.64-4.55q2-2.25,2.93-3.41a14.39,14.39,0,0,0,1.47-2.19,8.12,8.12,0,0,0,.7-1.74,6.53,6.53,0,0,0,.21-1.64,6,6,0,0,0-.42-2.33,3.52,3.52,0,0,0-1.3-1.59,3.83,3.83,0,0,0-2.18-.58c-2.2,0-3.67,1.22-4.43,3.65h-2.13v-3.37a20.91,20.91,0,0,1,4-1.45,14.33,14.33,0,0,1,3.33-.45,7.43,7.43,0,0,1,4.94,1.43,5.19,5.19,0,0,1,1.67,4.16,7.61,7.61,0,0,1-.18,1.71,7.11,7.11,0,0,1-.58,1.55,11.34,11.34,0,0,1-1.07,1.64c-.44.59-.93,1.19-1.47,1.79s-1.47,1.61-2.8,3a37.06,37.06,0,0,0-4.9,6.17Z" transform="translate(340.7 -235.58)"/><path class="cls-10" d="M544.57,390.83V390a6,6,0,0,0,1.31-.39,1.47,1.47,0,0,0,.64-.59,2.08,2.08,0,0,0,.21-1,6.77,6.77,0,0,0-.14-1.29c-.1-.47-.23-1-.41-1.56l-.65-2.27h-8.19l-.6,1.73a16.43,16.43,0,0,0-.59,2,5.42,5.42,0,0,0-.14,1.21,2,2,0,0,0,.53,1.54,3.07,3.07,0,0,0,1.65.66v.86h-7.51V390a2.64,2.64,0,0,0,1.71-1.15,11.53,11.53,0,0,0,1.42-2.81l7.33-19.46h2.78l6,19.6a18.15,18.15,0,0,0,.75,2.09,3.41,3.41,0,0,0,.78,1.13,2.92,2.92,0,0,0,1.25.6v.86Zm-6.75-9.5h7.34L541.82,370Z" transform="translate(340.7 -235.58)"/><path class="cls-10" d="M568,385.73v5.1H554.43V390l9.63-14.52H559.3a2.63,2.63,0,0,0-1.39.31,3.17,3.17,0,0,0-1,1.06,9.93,9.93,0,0,0-.88,2h-1.53V374h13.33v.88l-9.62,14.5h4.63a4.81,4.81,0,0,0,1.37-.14,2,2,0,0,0,.79-.45,3.18,3.18,0,0,0,.65-1,17,17,0,0,0,.75-2.11Z" transform="translate(340.7 -235.58)"/><path class="cls-10" d="M589.64,388a7.55,7.55,0,0,0,1.39-.1,2,2,0,0,0,.84-.35,1.76,1.76,0,0,0,.5-.64c.12-.27.28-.68.47-1.23h1.49l-.3,5.14H579.56V390a22.74,22.74,0,0,1,2-3.78,42,42,0,0,1,3.64-4.55q2-2.25,2.94-3.41a16.06,16.06,0,0,0,1.47-2.19,8.05,8.05,0,0,0,.69-1.74,6.53,6.53,0,0,0,.21-1.64,6,6,0,0,0-.42-2.33,3.49,3.49,0,0,0-1.29-1.59,3.84,3.84,0,0,0-2.19-.58q-3.28,0-4.43,3.65h-2.13v-3.37a21.15,21.15,0,0,1,4-1.45,14.33,14.33,0,0,1,3.33-.45,7.43,7.43,0,0,1,4.94,1.43,5.16,5.16,0,0,1,1.67,4.16,7.61,7.61,0,0,1-.18,1.71,6.63,6.63,0,0,1-.58,1.55,11.82,11.82,0,0,1-1.06,1.65c-.45.58-.94,1.18-1.48,1.78s-1.47,1.61-2.8,3A37.59,37.59,0,0,0,583,388Z" transform="translate(340.7 -235.58)"/><path class="cls-11" d="M-68.93,449.37a7.58,7.58,0,0,1-3.25-.6,4.31,4.31,0,0,1-2-1.82,9.29,9.29,0,0,1-1-3.18,34.89,34.89,0,0,1-.32-5.31,35.32,35.32,0,0,1,.31-5.3,9.61,9.61,0,0,1,1-3.22,4.4,4.4,0,0,1,2-1.86,7.49,7.49,0,0,1,3.26-.62v1a6.92,6.92,0,0,0-1.45.14,2.64,2.64,0,0,0-1.22.63,3.68,3.68,0,0,0-.91,1.44,11.66,11.66,0,0,0-.61,2.86,45.9,45.9,0,0,0-.21,4.88c0,1.76,0,3.25.17,4.48a12.89,12.89,0,0,0,.59,3,4.3,4.3,0,0,0,.82,1.53,2.77,2.77,0,0,0,1,.73,4.77,4.77,0,0,0,1.79.28Z" transform="translate(340.7 -235.58)"/><path class="cls-11" d="M-67,444.27v-.57a2.27,2.27,0,0,0,1-.42,1.11,1.11,0,0,0,.32-.65,8.17,8.17,0,0,0,.07-1.29V431.21a8.61,8.61,0,0,0,0-1.18,1.4,1.4,0,0,0-.2-.57,1,1,0,0,0-.35-.33,4.09,4.09,0,0,0-.77-.28v-.57h6.41a9.14,9.14,0,0,1,3,.4,3.31,3.31,0,0,1,1.68,1.17,3.39,3.39,0,0,1,.55,2,3.79,3.79,0,0,1-.39,1.77,3.82,3.82,0,0,1-1,1.25,7.39,7.39,0,0,1-1.63.91v.11A4.79,4.79,0,0,1-56,437.38a3.68,3.68,0,0,1,.82,2.38,4.42,4.42,0,0,1-.71,2.6,3.92,3.92,0,0,1-2,1.46,9.33,9.33,0,0,1-3.09.45Zm5.62-8.82a3.93,3.93,0,0,0,2.72-.86,3.22,3.22,0,0,0,.94-2.5,2.94,2.94,0,0,0-.26-1.34,2.09,2.09,0,0,0-.73-.85,2.83,2.83,0,0,0-1.09-.46,6.57,6.57,0,0,0-1.37-.13l-1.17,0-1.09.05v6.07Zm-2,7.71a18.47,18.47,0,0,0,1.91.08,6.06,6.06,0,0,0,2.38-.38,2.43,2.43,0,0,0,1.23-1.15,4.08,4.08,0,0,0,.38-1.89,3.84,3.84,0,0,0-.41-1.87,2.58,2.58,0,0,0-1.29-1.11,6.35,6.35,0,0,0-2.39-.36h-1.81Z" transform="translate(340.7 -235.58)"/><path class="cls-11" d="M-45.84,442.6l-.18-.05A7.21,7.21,0,0,1-47.93,444a4.34,4.34,0,0,1-1.91.43,3.42,3.42,0,0,1-1.57-.34,2.46,2.46,0,0,1-1-1,2.82,2.82,0,0,1-.36-1.44,2.9,2.9,0,0,1,1.69-2.65A12,12,0,0,1-46,438v-.76a6.11,6.11,0,0,0-.24-1.92,1.9,1.9,0,0,0-.73-1,2.54,2.54,0,0,0-1.35-.32,2.17,2.17,0,0,0-1.47.48,3,3,0,0,0-.84,1.44h-1.54v-1.52a16.51,16.51,0,0,1,1.88-.87,12.07,12.07,0,0,1,1.5-.43,7.07,7.07,0,0,1,1.52-.16,4.11,4.11,0,0,1,1.87.37,2.36,2.36,0,0,1,1,1.13,5.68,5.68,0,0,1,.35,2.3v4.08c0,.58,0,1,0,1.22a6.08,6.08,0,0,0,.07.66,1.32,1.32,0,0,0,.18.49,1,1,0,0,0,.35.31,3.1,3.1,0,0,0,.74.27v.57H-45.9Zm-.2-3.67a8.39,8.39,0,0,0-3.56.63,2,2,0,0,0-1.19,1.84,1.83,1.83,0,0,0,.27,1.06,1.4,1.4,0,0,0,.68.53,2.86,2.86,0,0,0,1,.15,2.74,2.74,0,0,0,1.45-.39,2.91,2.91,0,0,0,1-1,2.31,2.31,0,0,0,.36-1.19Z" transform="translate(340.7 -235.58)"/><path class="cls-11" d="M-33,435.64h-1.12a3.59,3.59,0,0,0-.61-1.11,1.91,1.91,0,0,0-.8-.57,3.13,3.13,0,0,0-1.09-.16,2.3,2.3,0,0,0-1.49.44,1.44,1.44,0,0,0-.56,1.2,1.63,1.63,0,0,0,.23.89,2.2,2.2,0,0,0,.69.66,11.66,11.66,0,0,0,1.65.8,12.09,12.09,0,0,1,1.84.95,3.39,3.39,0,0,1,1,1,2.44,2.44,0,0,1,.37,1.37,3.47,3.47,0,0,1-.31,1.56,2.69,2.69,0,0,1-.89,1,3.86,3.86,0,0,1-1.37.58,8.46,8.46,0,0,1-1.73.17,13.31,13.31,0,0,1-1.91-.14,17.41,17.41,0,0,1-1.8-.39v-2.44h1.15a3,3,0,0,0,.93,1.56,2.76,2.76,0,0,0,1.71.49,3.77,3.77,0,0,0,.83-.09,2.31,2.31,0,0,0,.72-.29,1.62,1.62,0,0,0,.51-.56,1.94,1.94,0,0,0,.18-.88,1.86,1.86,0,0,0-.23-1,2.32,2.32,0,0,0-.73-.69,14.19,14.19,0,0,0-1.73-.84,10.37,10.37,0,0,1-1.71-.86,3.48,3.48,0,0,1-1-1,2.51,2.51,0,0,1-.37-1.36,2.73,2.73,0,0,1,.53-1.67,3.23,3.23,0,0,1,1.5-1.08,6.5,6.5,0,0,1,2.31-.38,14.26,14.26,0,0,1,1.49.08c.48.05,1.09.15,1.81.3Z" transform="translate(340.7 -235.58)"/><path class="cls-11" d="M-21.22,442.28a9,9,0,0,1-1.38,1.23,5.27,5.27,0,0,1-1.38.7,5.1,5.1,0,0,1-1.65.25A4.49,4.49,0,0,1-29.27,443a6.42,6.42,0,0,1-1.23-4.27,7.3,7.3,0,0,1,.62-3.08,4.75,4.75,0,0,1,1.79-2.06,4.91,4.91,0,0,1,2.67-.73,4.92,4.92,0,0,1,2,.38,3.43,3.43,0,0,1,1.33,1,4.8,4.8,0,0,1,.77,1.64A10.34,10.34,0,0,1-21,438.5h-7.38v.21a7.36,7.36,0,0,0,.31,2.32,3,3,0,0,0,1,1.48,3,3,0,0,0,1.85.53,4.13,4.13,0,0,0,1.72-.35,5,5,0,0,0,1.53-1.17Zm-2-4.76a8.66,8.66,0,0,0-.32-2.06,2.56,2.56,0,0,0-.73-1.23,1.88,1.88,0,0,0-1.29-.43,2.29,2.29,0,0,0-1.93,1,5.19,5.19,0,0,0-.85,2.76Z" transform="translate(340.7 -235.58)"/><path class="cls-11" d="M-10.46,437.75h.37a2.15,2.15,0,0,0,.63-.08,3.09,3.09,0,0,0,.65-.36,12.2,12.2,0,0,0,1-.85A8.32,8.32,0,0,0-7,435.6a2.48,2.48,0,0,0,.38-.64,1.46,1.46,0,0,0,.09-.49.71.71,0,0,0-.21-.55,1.23,1.23,0,0,0-.71-.27v-.58H-2.4v.58a3.54,3.54,0,0,0-1.15.48,7.4,7.4,0,0,0-1.25,1l-2.7,2.56,3.38,4.4a5.74,5.74,0,0,0,1.06,1.14,2.45,2.45,0,0,0,1,.49v.57h-4.5v-.57a1.1,1.1,0,0,0,.46-.13.4.4,0,0,0,.14-.34,1,1,0,0,0-.06-.34,2.51,2.51,0,0,0-.27-.47l-.72-1-1.4-1.87a5.64,5.64,0,0,0-.57-.69,1.1,1.1,0,0,0-.35-.24,1.74,1.74,0,0,0-.51-.07h-.65v2.81a7.4,7.4,0,0,0,.09,1.41,1,1,0,0,0,.36.59,2.27,2.27,0,0,0,.86.36v.57H-13.8v-.57a2.52,2.52,0,0,0,.81-.32,1,1,0,0,0,.33-.39,2.11,2.11,0,0,0,.14-.62,9.54,9.54,0,0,0,0-1v-9.8c0-.75,0-1.28,0-1.57a3.86,3.86,0,0,0-.09-.76,1.31,1.31,0,0,0-.21-.49,1,1,0,0,0-.36-.28,4,4,0,0,0-.83-.21v-.61l2.82-.12h.71Z" transform="translate(340.7 -235.58)"/><path class="cls-11" d="M3.68,444.46A4.76,4.76,0,0,1,0,443a6.19,6.19,0,0,1-1.28-4.25,7.19,7.19,0,0,1,.67-3.27,4.59,4.59,0,0,1,1.85-2,5.44,5.44,0,0,1,2.67-.65,4.82,4.82,0,0,1,3.8,1.46A6.18,6.18,0,0,1,9,438.52a7.49,7.49,0,0,1-.64,3.28,4.41,4.41,0,0,1-1.83,2A5.66,5.66,0,0,1,3.68,444.46ZM.89,438.53a7.35,7.35,0,0,0,.77,3.71,2.43,2.43,0,0,0,2.2,1.3,2.29,2.29,0,0,0,1.33-.38,2.91,2.91,0,0,0,.9-1,5,5,0,0,0,.5-1.49,10.26,10.26,0,0,0,.15-1.78A9.25,9.25,0,0,0,6.36,436a3.58,3.58,0,0,0-1-1.67,2.35,2.35,0,0,0-1.5-.53A2.4,2.4,0,0,0,1.65,435,6.66,6.66,0,0,0,.89,438.53Z" transform="translate(340.7 -235.58)"/><path class="cls-11" d="M22.74,444.27H18.12v-.57a3.7,3.7,0,0,0,.65-.25.87.87,0,0,0,.34-.29,1.47,1.47,0,0,0,.21-.58,6.79,6.79,0,0,0,.08-1.19v-3.07c0-.55,0-1,0-1.49a5.52,5.52,0,0,0-.16-1.09,2,2,0,0,0-.27-.67,1.62,1.62,0,0,0-.37-.41,2,2,0,0,0-.5-.27,2.43,2.43,0,0,0-1.61.08,3.54,3.54,0,0,0-.9.63,3,3,0,0,0-.71.88,2.13,2.13,0,0,0-.23,1v4.37a6.45,6.45,0,0,0,.1,1.41,1,1,0,0,0,.35.59,2.41,2.41,0,0,0,.87.36v.57h-4.6v-.57a3.4,3.4,0,0,0,.65-.25.91.91,0,0,0,.33-.29,1.48,1.48,0,0,0,.21-.57,6.89,6.89,0,0,0,.08-1.21v-5.11c0-.5,0-.9,0-1.21a1.79,1.79,0,0,0-.16-.73.9.9,0,0,0-.43-.41,3.22,3.22,0,0,0-.81-.23v-.62l2.74-.1h.71l-.12,1.91.16,0a11.53,11.53,0,0,1,1.4-1.25,5.18,5.18,0,0,1,1.08-.58,3.17,3.17,0,0,1,1.15-.21,3.91,3.91,0,0,1,1.13.15,2.53,2.53,0,0,1,.88.45,2.33,2.33,0,0,1,.63.76,3.8,3.8,0,0,1,.37,1.08,8.89,8.89,0,0,1,.12,1.61v4.41a10.64,10.64,0,0,0,.05,1.18,1.44,1.44,0,0,0,.16.56,1,1,0,0,0,.34.33,3.32,3.32,0,0,0,.78.29Z" transform="translate(340.7 -235.58)"/><path class="cls-11" d="M27.89,444.05a8.18,8.18,0,0,1-.34,2.63,3.67,3.67,0,0,1-1.18,1.67A6.57,6.57,0,0,1,24,449.47l-.4-1a5.81,5.81,0,0,0,1.11-.53,2.19,2.19,0,0,0,1-1.48,7.08,7.08,0,0,0,.13-1.44v-8.71c0-.61,0-1,0-1.31a1.62,1.62,0,0,0-.15-.63,1,1,0,0,0-.36-.37,3.84,3.84,0,0,0-.89-.27v-.62l2.74-.1h.71ZM28,428.48v2.27H25.81v-2.27Z" transform="translate(340.7 -235.58)"/><path class="cls-11" d="M36.2,444.46A4.76,4.76,0,0,1,32.48,443a6.19,6.19,0,0,1-1.28-4.25,7.19,7.19,0,0,1,.67-3.27,4.59,4.59,0,0,1,1.85-2,5.44,5.44,0,0,1,2.67-.65,4.82,4.82,0,0,1,3.8,1.46,6.18,6.18,0,0,1,1.28,4.19,7.49,7.49,0,0,1-.64,3.28,4.41,4.41,0,0,1-1.83,2A5.66,5.66,0,0,1,36.2,444.46Zm-2.79-5.93a7.35,7.35,0,0,0,.77,3.71,2.43,2.43,0,0,0,2.2,1.3,2.29,2.29,0,0,0,1.33-.38,2.91,2.91,0,0,0,.9-1,5,5,0,0,0,.5-1.49,10.26,10.26,0,0,0,.15-1.78,9.25,9.25,0,0,0-.38-2.86,3.58,3.58,0,0,0-1-1.67,2.35,2.35,0,0,0-1.5-.53A2.4,2.4,0,0,0,34.17,435,6.66,6.66,0,0,0,33.41,438.53Z" transform="translate(340.7 -235.58)"/><path class="cls-11" d="M47,437.75h.38a2.25,2.25,0,0,0,.63-.08,3,3,0,0,0,.64-.36,10.7,10.7,0,0,0,1-.85,7.34,7.34,0,0,0,.81-.86,2.23,2.23,0,0,0,.38-.64,1.26,1.26,0,0,0,.1-.49.68.68,0,0,0-.22-.55,1.2,1.2,0,0,0-.71-.27v-.58H55v.58a3.54,3.54,0,0,0-1.15.48,7.82,7.82,0,0,0-1.25,1l-2.69,2.56,3.37,4.4a5.74,5.74,0,0,0,1.06,1.14,2.49,2.49,0,0,0,1,.49v.57h-4.5v-.57a1.1,1.1,0,0,0,.45-.13.38.38,0,0,0,.15-.34,1,1,0,0,0-.07-.34,2.35,2.35,0,0,0-.26-.47l-.73-1-1.39-1.87a8.53,8.53,0,0,0-.57-.69,1.13,1.13,0,0,0-.36-.24,1.62,1.62,0,0,0-.5-.07H47v2.81a7.4,7.4,0,0,0,.09,1.41,1.06,1.06,0,0,0,.36.59,2.35,2.35,0,0,0,.86.36v.57H43.63v-.57a2.52,2.52,0,0,0,.81-.32.87.87,0,0,0,.33-.39,1.83,1.83,0,0,0,.14-.62,9.54,9.54,0,0,0,0-1v-9.8c0-.75,0-1.28,0-1.57a3.79,3.79,0,0,0-.1-.76,1.31,1.31,0,0,0-.21-.49,1,1,0,0,0-.36-.28,3.82,3.82,0,0,0-.83-.21v-.61l2.83-.12H47Z" transform="translate(340.7 -235.58)"/><path class="cls-11" d="M63,442.6l-.17-.05A7.09,7.09,0,0,1,60.93,444a4.27,4.27,0,0,1-1.9.43,3.42,3.42,0,0,1-1.57-.34,2.46,2.46,0,0,1-1-1,2.73,2.73,0,0,1-.37-1.44,2.91,2.91,0,0,1,1.7-2.65A12,12,0,0,1,62.83,438v-.76a6.11,6.11,0,0,0-.24-1.92,1.86,1.86,0,0,0-.74-1,2.48,2.48,0,0,0-1.34-.32,2.21,2.21,0,0,0-1.48.48,2.88,2.88,0,0,0-.83,1.44H56.66v-1.52a16.51,16.51,0,0,1,1.88-.87A12.07,12.07,0,0,1,60,433a7,7,0,0,1,1.52-.16,4.1,4.1,0,0,1,1.86.37,2.38,2.38,0,0,1,1.06,1.13,5.86,5.86,0,0,1,.35,2.3v4.08c0,.58,0,1,0,1.22a4.31,4.31,0,0,0,.07.66,1.32,1.32,0,0,0,.18.49,1,1,0,0,0,.34.31,3.21,3.21,0,0,0,.75.27v.57H63Zm-.19-3.67a8.45,8.45,0,0,0-3.57.63,2,2,0,0,0-1.18,1.84,1.83,1.83,0,0,0,.27,1.06A1.4,1.4,0,0,0,59,443a2.82,2.82,0,0,0,1,.15,2.76,2.76,0,0,0,1.45-.39,2.88,2.88,0,0,0,1-1,2.33,2.33,0,0,0,.37-1.19Z" transform="translate(340.7 -235.58)"/><path class="cls-11" d="M67.27,433.66a2.58,2.58,0,0,0,1-.33,1.69,1.69,0,0,0,.56-.6,3.36,3.36,0,0,0,.33-.93q.12-.56.24-1.62H71v2.89H74.8v1.18H71v5.22a14.31,14.31,0,0,0,.09,1.81,2.44,2.44,0,0,0,.35,1.05,1.53,1.53,0,0,0,.59.55,1.88,1.88,0,0,0,.84.16,2,2,0,0,0,.88-.19,3.28,3.28,0,0,0,.81-.56l.53.64a6.27,6.27,0,0,1-1.58,1.17,3.51,3.51,0,0,1-1.54.36,2.76,2.76,0,0,1-2.25-.89,4.41,4.41,0,0,1-.74-2.81v-6.51H67.27Z" transform="translate(340.7 -235.58)"/><path class="cls-11" d="M75.81,433.07h3.34v6a15.16,15.16,0,0,0,.11,2.08,3.12,3.12,0,0,0,.31,1.08,1.75,1.75,0,0,0,.6.61,2,2,0,0,0,1.07.25,2.09,2.09,0,0,0,.85-.18,3.7,3.7,0,0,0,.92-.62,3.07,3.07,0,0,0,.72-.87,2.28,2.28,0,0,0,.21-1V436c0-.45,0-.78,0-1a2,2,0,0,0-.12-.54.9.9,0,0,0-.51-.57,3.11,3.11,0,0,0-.66-.22v-.58H86v8c0,.6,0,1,0,1.3a1.92,1.92,0,0,0,.16.63.88.88,0,0,0,.36.38,3.11,3.11,0,0,0,.88.28v.6l-2.69.12H84l.07-1.92-.18-.05A7.48,7.48,0,0,1,82,444a3.6,3.6,0,0,1-1.78.49,3.35,3.35,0,0,1-1.76-.42,2.55,2.55,0,0,1-1-1.26,6.66,6.66,0,0,1-.34-2.36V436a8.06,8.06,0,0,0-.07-1.35,1.07,1.07,0,0,0-.3-.59,2.21,2.21,0,0,0-.94-.4Z" transform="translate(340.7 -235.58)"/><path class="cls-11" d="M96.12,442.6l-.18-.05A7.21,7.21,0,0,1,94,444a4.34,4.34,0,0,1-1.91.43,3.45,3.45,0,0,1-1.57-.34,2.46,2.46,0,0,1-1-1,2.82,2.82,0,0,1-.36-1.44,2.9,2.9,0,0,1,1.69-2.65A12,12,0,0,1,95.92,438v-.76a6.47,6.47,0,0,0-.23-1.92,2,2,0,0,0-.74-1,2.54,2.54,0,0,0-1.35-.32,2.17,2.17,0,0,0-1.47.48,3,3,0,0,0-.84,1.44H89.76v-1.52a16.49,16.49,0,0,1,1.87-.87,12.07,12.07,0,0,1,1.5-.43,7.07,7.07,0,0,1,1.52-.16,4.11,4.11,0,0,1,1.87.37,2.31,2.31,0,0,1,1,1.13,5.68,5.68,0,0,1,.35,2.3v4.08c0,.58,0,1,0,1.22a3.34,3.34,0,0,0,.07.66,1.17,1.17,0,0,0,.17.49,1,1,0,0,0,.35.31,3.1,3.1,0,0,0,.74.27v.57H96.06Zm-.2-3.67a8.39,8.39,0,0,0-3.56.63,2,2,0,0,0-1.19,1.84,1.83,1.83,0,0,0,.27,1.06,1.4,1.4,0,0,0,.68.53,2.88,2.88,0,0,0,1,.15,2.73,2.73,0,0,0,1.44-.39,2.91,2.91,0,0,0,1-1,2.31,2.31,0,0,0,.36-1.19Z" transform="translate(340.7 -235.58)"/><path class="cls-11" d="M100.43,427.46a7.58,7.58,0,0,1,3.25.6,4.34,4.34,0,0,1,2,1.82,9.74,9.74,0,0,1,1,3.18,45.55,45.55,0,0,1,0,10.61,9.62,9.62,0,0,1-1,3.22,4.48,4.48,0,0,1-2,1.86,7.32,7.32,0,0,1-3.26.62v-1a6.92,6.92,0,0,0,1.45-.14,2.59,2.59,0,0,0,1.22-.63,3.81,3.81,0,0,0,.92-1.44,12.67,12.67,0,0,0,.61-2.86,45.9,45.9,0,0,0,.21-4.88c0-1.76-.06-3.25-.18-4.48a13.48,13.48,0,0,0-.58-3,4.47,4.47,0,0,0-.82-1.53,2.81,2.81,0,0,0-1-.73,4.73,4.73,0,0,0-1.79-.28Z" transform="translate(340.7 -235.58)"/><path class="cls-11" d="M-45.73,474.37a7.61,7.61,0,0,1-3.25-.6,4.31,4.31,0,0,1-2-1.82,9.29,9.29,0,0,1-1-3.18,34.89,34.89,0,0,1-.32-5.31,36.72,36.72,0,0,1,.31-5.3,9.61,9.61,0,0,1,1-3.22,4.43,4.43,0,0,1,2-1.86,7.44,7.44,0,0,1,3.25-.62v1a7,7,0,0,0-1.45.14,2.69,2.69,0,0,0-1.22.63,3.79,3.79,0,0,0-.91,1.44,12.14,12.14,0,0,0-.61,2.86,45.9,45.9,0,0,0-.21,4.88c0,1.76.06,3.25.17,4.48a13.42,13.42,0,0,0,.59,3,4.3,4.3,0,0,0,.82,1.53,2.77,2.77,0,0,0,1,.73,4.77,4.77,0,0,0,1.79.28Z" transform="translate(340.7 -235.58)"/><path class="cls-11" d="M-35.89,469.27v-.57a3.53,3.53,0,0,0,.87-.26,1,1,0,0,0,.43-.39,1.42,1.42,0,0,0,.14-.67,3.94,3.94,0,0,0-.1-.87c-.06-.3-.15-.65-.26-1l-.44-1.51h-5.46l-.4,1.14c-.2.58-.33,1-.4,1.32a4,4,0,0,0-.09.81,1.34,1.34,0,0,0,.36,1,2,2,0,0,0,1.09.43v.57h-5v-.57a1.74,1.74,0,0,0,1.14-.76,7.74,7.74,0,0,0,.95-1.88l4.88-13h1.85l4,13.07a11.78,11.78,0,0,0,.5,1.39,2,2,0,0,0,.52.75,2,2,0,0,0,.83.4v.57Zm-4.5-6.32h4.9l-2.23-7.56Z" transform="translate(340.7 -235.58)"/><path class="cls-11" d="M-20.3,465.88v3.39h-9v-.57L-22.9,459h-3.17a1.78,1.78,0,0,0-.93.21,2.1,2.1,0,0,0-.64.7,6.28,6.28,0,0,0-.59,1.33h-1v-3.19h8.88v.59l-6.41,9.67h3.09a3.36,3.36,0,0,0,.91-.1,1.33,1.33,0,0,0,.53-.3,2,2,0,0,0,.43-.65,11.32,11.32,0,0,0,.51-1.4Z" transform="translate(340.7 -235.58)"/><path class="cls-11" d="M-18.22,468.7a3.7,3.7,0,0,0,.65-.25.91.91,0,0,0,.33-.29,1.48,1.48,0,0,0,.21-.57,7.13,7.13,0,0,0,.07-1.21v-5.11c0-.5,0-.9,0-1.21a1.79,1.79,0,0,0-.16-.73,1,1,0,0,0-.43-.41,3.19,3.19,0,0,0-.82-.23v-.62l2.74-.1h.71v8.37a7.4,7.4,0,0,0,.09,1.41,1.06,1.06,0,0,0,.36.59,2.35,2.35,0,0,0,.86.36v.57h-4.59Zm3.35-15.22v2.27H-17v-2.27Z" transform="translate(340.7 -235.58)"/><path class="cls-11" d="M-3.64,456.54c0-.75,0-1.28,0-1.57a3.86,3.86,0,0,0-.09-.76,1.5,1.5,0,0,0-.22-.49,1,1,0,0,0-.36-.28,3.85,3.85,0,0,0-.82-.21v-.61l2.83-.12h.69v13.58c0,.6,0,1,0,1.3a1.71,1.71,0,0,0,.15.63.9.9,0,0,0,.37.38,3.23,3.23,0,0,0,.88.28v.6l-2.76.12h-.7l.14-1.92-.18-.05A9,9,0,0,1-5,468.6a5.45,5.45,0,0,1-1.16.63,3.81,3.81,0,0,1-1.32.23,3.43,3.43,0,0,1-3-1.46,7.21,7.21,0,0,1-1-4.21,7.17,7.17,0,0,1,.68-3.26,4.58,4.58,0,0,1,1.83-2,5.16,5.16,0,0,1,2.6-.66,6.83,6.83,0,0,1,1.41.13,6.41,6.41,0,0,1,1.3.4Zm0,5.79a9.57,9.57,0,0,0-.09-1.47,2.84,2.84,0,0,0-.27-.93,1.87,1.87,0,0,0-.52-.63,2.06,2.06,0,0,0-.72-.37,3.28,3.28,0,0,0-1-.12A2.55,2.55,0,0,0-8.47,460a6.33,6.33,0,0,0-.79,3.45,7.23,7.23,0,0,0,.65,3.42,2.09,2.09,0,0,0,2,1.18A3.4,3.4,0,0,0-5.8,468a2.58,2.58,0,0,0,.67-.28,3.45,3.45,0,0,0,.67-.54,2.75,2.75,0,0,0,.49-.62,2.12,2.12,0,0,0,.24-.64,4,4,0,0,0,.09-.94Z" transform="translate(340.7 -235.58)"/><path class="cls-11" d="M6.86,469.46A4.74,4.74,0,0,1,3.14,468a6.19,6.19,0,0,1-1.29-4.25,7.19,7.19,0,0,1,.68-3.27,4.57,4.57,0,0,1,1.84-2A5.44,5.44,0,0,1,7,457.87a4.81,4.81,0,0,1,3.8,1.46,6.13,6.13,0,0,1,1.29,4.19,7.49,7.49,0,0,1-.64,3.28,4.41,4.41,0,0,1-1.83,2A5.66,5.66,0,0,1,6.86,469.46Zm-2.79-5.93a7.25,7.25,0,0,0,.77,3.71A2.42,2.42,0,0,0,7,468.54a2.32,2.32,0,0,0,1.34-.38,3,3,0,0,0,.9-1,5,5,0,0,0,.49-1.49,10.25,10.25,0,0,0,.16-1.78A8.93,8.93,0,0,0,9.53,461a3.49,3.49,0,0,0-1-1.67A2.35,2.35,0,0,0,7,458.8,2.42,2.42,0,0,0,4.82,460,6.77,6.77,0,0,0,4.07,463.53Z" transform="translate(340.7 -235.58)"/><path class="cls-11" d="M26.79,466.22a5.09,5.09,0,0,0,.08,1,1.18,1.18,0,0,0,.27.56,1.2,1.2,0,0,0,.55.34,4,4,0,0,0,.92.19c.36,0,.85.07,1.45.09v.85H21.4v-.85a15.35,15.35,0,0,0,1.86-.16,2.38,2.38,0,0,0,.85-.3,1.15,1.15,0,0,0,.42-.56,3.67,3.67,0,0,0,.14-1.18v-9.51a1.19,1.19,0,0,0-.16-.68.56.56,0,0,0-.49-.22,2.42,2.42,0,0,0-1.06.39c-.46.25-1,.61-1.71,1.06l-.52-.9,5.49-3.27h.64c-.05.75-.07,1.79-.07,3.12Z" transform="translate(340.7 -235.58)"/><path class="cls-11" d="M38.64,464H33.2V462.2h5.44Z" transform="translate(340.7 -235.58)"/><path class="cls-11" d="M50.4,467.28A9.48,9.48,0,0,1,49,468.51a5.27,5.27,0,0,1-1.38.7,5.1,5.1,0,0,1-1.65.25A4.51,4.51,0,0,1,42.35,468a6.42,6.42,0,0,1-1.23-4.27,7.15,7.15,0,0,1,.63-3.08,4.69,4.69,0,0,1,1.79-2.06,5.35,5.35,0,0,1,4.68-.35,3.36,3.36,0,0,1,1.33,1,4.81,4.81,0,0,1,.78,1.64,11.37,11.37,0,0,1,.31,2.59H43.26v.21a7.36,7.36,0,0,0,.31,2.32,2.84,2.84,0,0,0,1,1.48,2.93,2.93,0,0,0,1.84.53,4.18,4.18,0,0,0,1.73-.35,5.21,5.21,0,0,0,1.53-1.17Zm-2-4.76a9.2,9.2,0,0,0-.32-2.06,2.57,2.57,0,0,0-.74-1.23,1.88,1.88,0,0,0-1.29-.43,2.3,2.3,0,0,0-1.93,1,5.27,5.27,0,0,0-.85,2.76Z" transform="translate(340.7 -235.58)"/><path class="cls-11" d="M64.16,469.27H59.54v-.57a3.57,3.57,0,0,0,.66-.25.91.91,0,0,0,.33-.29,1.63,1.63,0,0,0,.22-.58,7,7,0,0,0,.07-1.19v-3.07c0-.55,0-1,0-1.49a6.51,6.51,0,0,0-.15-1.09,2.57,2.57,0,0,0-.27-.67,1.66,1.66,0,0,0-.38-.41,1.83,1.83,0,0,0-.5-.27,2.4,2.4,0,0,0-1.6.08,3.38,3.38,0,0,0-.9.63,3.24,3.24,0,0,0-.72.88,2.12,2.12,0,0,0-.22,1v4.37a7.4,7.4,0,0,0,.09,1.41,1,1,0,0,0,.36.59,2.35,2.35,0,0,0,.86.36v.57H52.75v-.57a3.7,3.7,0,0,0,.65-.25.91.91,0,0,0,.33-.29,1.48,1.48,0,0,0,.21-.57,7.13,7.13,0,0,0,.07-1.21v-5.11c0-.5,0-.9,0-1.21a2,2,0,0,0-.16-.73,1,1,0,0,0-.43-.41,3.19,3.19,0,0,0-.82-.23v-.62l2.75-.1H56l-.13,1.91.17,0a10.82,10.82,0,0,1,1.4-1.25,4.88,4.88,0,0,1,1.07-.58,3.22,3.22,0,0,1,1.16-.21,3.91,3.91,0,0,1,1.13.15,2.72,2.72,0,0,1,.88.45,2.61,2.61,0,0,1,.63.76,3.8,3.8,0,0,1,.36,1.08,8,8,0,0,1,.13,1.61v4.41a11.29,11.29,0,0,0,0,1.18,1.62,1.62,0,0,0,.17.56,1,1,0,0,0,.34.33,3.2,3.2,0,0,0,.77.29Z" transform="translate(340.7 -235.58)"/><path class="cls-11" d="M72.92,467.6l-.18-.05A7.09,7.09,0,0,1,70.82,469a4.27,4.27,0,0,1-1.9.43,3.42,3.42,0,0,1-1.57-.34,2.46,2.46,0,0,1-1-1,2.73,2.73,0,0,1-.37-1.44,2.91,2.91,0,0,1,1.7-2.65A12,12,0,0,1,72.72,463v-.76a6.11,6.11,0,0,0-.24-1.92,1.86,1.86,0,0,0-.74-1,2.48,2.48,0,0,0-1.34-.32,2.17,2.17,0,0,0-1.47.48,2.82,2.82,0,0,0-.84,1.44H66.55v-1.52a16.51,16.51,0,0,1,1.88-.87,12.07,12.07,0,0,1,1.5-.43,7.07,7.07,0,0,1,1.52-.16,4.07,4.07,0,0,1,1.86.37,2.38,2.38,0,0,1,1.06,1.13,5.86,5.86,0,0,1,.35,2.3v4.08c0,.58,0,1,0,1.22a4.31,4.31,0,0,0,.07.66,1.32,1.32,0,0,0,.18.49,1,1,0,0,0,.34.31,3.21,3.21,0,0,0,.75.27v.57H72.86Zm-.2-3.67a8.45,8.45,0,0,0-3.57.63A2,2,0,0,0,68,466.4a1.83,1.83,0,0,0,.27,1.06,1.4,1.4,0,0,0,.68.53,2.82,2.82,0,0,0,1,.15,2.76,2.76,0,0,0,1.45-.39,2.88,2.88,0,0,0,1-1,2.23,2.23,0,0,0,.37-1.19Z" transform="translate(340.7 -235.58)"/><path class="cls-11" d="M77.23,452.46a7.58,7.58,0,0,1,3.25.6,4.31,4.31,0,0,1,2,1.82,9.29,9.29,0,0,1,1,3.18,34.89,34.89,0,0,1,.32,5.31,35.32,35.32,0,0,1-.31,5.3,9.61,9.61,0,0,1-1,3.22,4.4,4.4,0,0,1-2,1.86,7.35,7.35,0,0,1-3.26.62v-1a7,7,0,0,0,1.45-.14,2.64,2.64,0,0,0,1.22-.63,3.79,3.79,0,0,0,.91-1.44,11.66,11.66,0,0,0,.61-2.86,45.9,45.9,0,0,0,.21-4.88c0-1.76,0-3.25-.17-4.48a12.89,12.89,0,0,0-.59-3,4.3,4.3,0,0,0-.82-1.53,2.77,2.77,0,0,0-1-.73,4.77,4.77,0,0,0-1.79-.28Z" transform="translate(340.7 -235.58)"/><path class="cls-11" d="M142.23,449.37a7.61,7.61,0,0,1-3.25-.6,4.31,4.31,0,0,1-2-1.82,9.29,9.29,0,0,1-1-3.18,34.89,34.89,0,0,1-.32-5.31,36.72,36.72,0,0,1,.31-5.3,9.61,9.61,0,0,1,1-3.22,4.43,4.43,0,0,1,2-1.86,7.44,7.44,0,0,1,3.25-.62v1a7,7,0,0,0-1.45.14,2.64,2.64,0,0,0-1.22.63,3.79,3.79,0,0,0-.91,1.44,12.14,12.14,0,0,0-.61,2.86,45.9,45.9,0,0,0-.21,4.88c0,1.76.06,3.25.17,4.48a13.42,13.42,0,0,0,.59,3,4.3,4.3,0,0,0,.82,1.53,2.77,2.77,0,0,0,1,.73,4.77,4.77,0,0,0,1.79.28Z" transform="translate(340.7 -235.58)"/><path class="cls-11" d="M152.07,444.27v-.57a3.53,3.53,0,0,0,.87-.26,1,1,0,0,0,.43-.39,1.42,1.42,0,0,0,.14-.67,3.94,3.94,0,0,0-.1-.87,10,10,0,0,0-.27-1l-.43-1.51h-5.46l-.4,1.14c-.2.58-.33,1-.4,1.32a4,4,0,0,0-.09.81,1.34,1.34,0,0,0,.36,1,2,2,0,0,0,1.09.43v.57h-5v-.57a1.74,1.74,0,0,0,1.14-.76,7.42,7.42,0,0,0,.94-1.88l4.89-13h1.85l4,13.07a10.2,10.2,0,0,0,.5,1.39,2,2,0,0,0,.52.75,2,2,0,0,0,.83.4v.57Zm-4.5-6.32h4.89l-2.22-7.56Z" transform="translate(340.7 -235.58)"/><path class="cls-11" d="M167.66,440.88v3.39h-9v-.57l6.42-9.68h-3.17a1.78,1.78,0,0,0-.93.21,2.1,2.1,0,0,0-.64.7,6.28,6.28,0,0,0-.59,1.33h-1v-3.19h8.88v.59l-6.41,9.67h3.09a3.36,3.36,0,0,0,.91-.1,1.33,1.33,0,0,0,.53-.3,2,2,0,0,0,.43-.65,10.13,10.13,0,0,0,.5-1.4Z" transform="translate(340.7 -235.58)"/><path class="cls-11" d="M169.74,443.7a3.7,3.7,0,0,0,.65-.25.91.91,0,0,0,.33-.29,1.48,1.48,0,0,0,.21-.57,7.13,7.13,0,0,0,.07-1.21v-5.11c0-.5,0-.9,0-1.21a2,2,0,0,0-.16-.73,1,1,0,0,0-.43-.41,3.19,3.19,0,0,0-.82-.23v-.62l2.73-.1H173v8.37a7.4,7.4,0,0,0,.09,1.41,1,1,0,0,0,.36.59,2.35,2.35,0,0,0,.86.36v.57h-4.59Zm3.35-15.22v2.27h-2.16v-2.27Z" transform="translate(340.7 -235.58)"/><path class="cls-11" d="M184.32,431.54c0-.75,0-1.28,0-1.57a3.86,3.86,0,0,0-.09-.76,1.5,1.5,0,0,0-.22-.49,1,1,0,0,0-.36-.28,3.82,3.82,0,0,0-.83-.21v-.61l2.84-.12h.69v13.58c0,.6,0,1,0,1.3a1.71,1.71,0,0,0,.15.63.9.9,0,0,0,.37.38,3.23,3.23,0,0,0,.88.28v.6l-2.76.12h-.71l.15-1.92-.18-.05A9,9,0,0,1,183,443.6a5.45,5.45,0,0,1-1.16.63,3.81,3.81,0,0,1-1.32.23,3.43,3.43,0,0,1-3-1.46,8.64,8.64,0,0,1-.36-7.47,4.58,4.58,0,0,1,1.83-2,5.16,5.16,0,0,1,2.6-.66A6.83,6.83,0,0,1,183,433a6.41,6.41,0,0,1,1.3.4Zm0,5.79a9.57,9.57,0,0,0-.09-1.47,2.84,2.84,0,0,0-.27-.93,1.87,1.87,0,0,0-.52-.63,2.06,2.06,0,0,0-.72-.37,3.28,3.28,0,0,0-.95-.12,2.55,2.55,0,0,0-2.28,1.2,6.25,6.25,0,0,0-.79,3.45,7.23,7.23,0,0,0,.65,3.42,2.09,2.09,0,0,0,2,1.18,3.43,3.43,0,0,0,.86-.09,2.58,2.58,0,0,0,.67-.28,3.45,3.45,0,0,0,.67-.54,2.75,2.75,0,0,0,.49-.62,2.12,2.12,0,0,0,.24-.64,4,4,0,0,0,.09-.94Z" transform="translate(340.7 -235.58)"/><path class="cls-11" d="M194.82,444.46A4.74,4.74,0,0,1,191.1,443a6.19,6.19,0,0,1-1.29-4.25,7.19,7.19,0,0,1,.68-3.27,4.57,4.57,0,0,1,1.84-2,5.44,5.44,0,0,1,2.67-.65,4.81,4.81,0,0,1,3.8,1.46,6.13,6.13,0,0,1,1.29,4.19,7.49,7.49,0,0,1-.64,3.28,4.41,4.41,0,0,1-1.83,2A5.68,5.68,0,0,1,194.82,444.46ZM192,438.53a7.36,7.36,0,0,0,.76,3.71,2.45,2.45,0,0,0,2.2,1.3,2.32,2.32,0,0,0,1.34-.38,2.88,2.88,0,0,0,.89-1,4.76,4.76,0,0,0,.5-1.49,10.25,10.25,0,0,0,.16-1.78,8.93,8.93,0,0,0-.39-2.86,3.57,3.57,0,0,0-1-1.67,2.35,2.35,0,0,0-1.5-.53,2.42,2.42,0,0,0-2.18,1.23A6.77,6.77,0,0,0,192,438.53Z" transform="translate(340.7 -235.58)"/><path class="cls-11" d="M210.87,437.75h.38a2.25,2.25,0,0,0,.63-.08,3,3,0,0,0,.64-.36,10.7,10.7,0,0,0,1-.85,7.34,7.34,0,0,0,.81-.86,2.23,2.23,0,0,0,.38-.64,1.26,1.26,0,0,0,.1-.49.68.68,0,0,0-.22-.55,1.2,1.2,0,0,0-.71-.27v-.58h5.05v.58a3.41,3.41,0,0,0-1.14.48,7.45,7.45,0,0,0-1.26,1l-2.69,2.56,3.37,4.4a6,6,0,0,0,1.06,1.14,2.49,2.49,0,0,0,1,.49v.57h-4.5v-.57a1.1,1.1,0,0,0,.45-.13.38.38,0,0,0,.15-.34,1,1,0,0,0-.07-.34,2.35,2.35,0,0,0-.26-.47l-.73-1L213,439.53a8.53,8.53,0,0,0-.57-.69,1,1,0,0,0-.36-.24,1.62,1.62,0,0,0-.5-.07h-.66v2.81a7.4,7.4,0,0,0,.09,1.41,1.06,1.06,0,0,0,.36.59,2.43,2.43,0,0,0,.86.36v.57h-4.65v-.57a2.71,2.71,0,0,0,.82-.32.91.91,0,0,0,.32-.39,1.83,1.83,0,0,0,.14-.62,9.15,9.15,0,0,0,.05-1v-9.8c0-.75,0-1.28,0-1.57a3.79,3.79,0,0,0-.1-.76,1.31,1.31,0,0,0-.21-.49,1,1,0,0,0-.36-.28,3.82,3.82,0,0,0-.83-.21v-.61l2.83-.12h.7Z" transform="translate(340.7 -235.58)"/><path class="cls-11" d="M225,444.46a4.77,4.77,0,0,1-3.73-1.43,6.24,6.24,0,0,1-1.28-4.25,7.19,7.19,0,0,1,.68-3.27,4.51,4.51,0,0,1,1.84-2,5.44,5.44,0,0,1,2.67-.65,4.81,4.81,0,0,1,3.8,1.46,6.13,6.13,0,0,1,1.29,4.19,7.49,7.49,0,0,1-.65,3.28,4.39,4.39,0,0,1-1.82,2A5.68,5.68,0,0,1,225,444.46Zm-2.79-5.93a7.36,7.36,0,0,0,.76,3.71,2.45,2.45,0,0,0,2.2,1.3,2.35,2.35,0,0,0,1.34-.38,3,3,0,0,0,.89-1,5,5,0,0,0,.5-1.49,10.26,10.26,0,0,0,.15-1.78,9,9,0,0,0-.38-2.86,3.57,3.57,0,0,0-1-1.67,2.35,2.35,0,0,0-1.5-.53A2.42,2.42,0,0,0,223,435,6.77,6.77,0,0,0,222.23,438.53Z" transform="translate(340.7 -235.58)"/><path class="cls-11" d="M244.07,444.27h-4.62v-.57a3.57,3.57,0,0,0,.66-.25.91.91,0,0,0,.33-.29,1.47,1.47,0,0,0,.21-.58,5.93,5.93,0,0,0,.08-1.19v-3.07c0-.55,0-1,0-1.49a6.51,6.51,0,0,0-.15-1.09,2.57,2.57,0,0,0-.27-.67,1.66,1.66,0,0,0-.38-.41,1.83,1.83,0,0,0-.5-.27,2.13,2.13,0,0,0-.74-.1,2.11,2.11,0,0,0-.86.18,4.09,4.09,0,0,0-1.62,1.51,2.12,2.12,0,0,0-.22,1v4.37a7.4,7.4,0,0,0,.09,1.41,1,1,0,0,0,.36.59,2.27,2.27,0,0,0,.86.36v.57h-4.59v-.57a3.7,3.7,0,0,0,.65-.25.88.88,0,0,0,.32-.29,1.65,1.65,0,0,0,.22-.57,7.13,7.13,0,0,0,.07-1.21v-5.11c0-.5,0-.9,0-1.21a1.78,1.78,0,0,0-.17-.73.88.88,0,0,0-.42-.41,3.31,3.31,0,0,0-.82-.23v-.62l2.74-.1H236l-.13,1.91.16,0a12.34,12.34,0,0,1,1.4-1.25,5.18,5.18,0,0,1,1.08-.58,3.22,3.22,0,0,1,1.16-.21,3.91,3.91,0,0,1,1.13.15,2.72,2.72,0,0,1,.88.45,2.44,2.44,0,0,1,.62.76,3.52,3.52,0,0,1,.37,1.08,8,8,0,0,1,.13,1.61v4.41a11.29,11.29,0,0,0,0,1.18,1.43,1.43,0,0,0,.17.56,1,1,0,0,0,.34.33,3.2,3.2,0,0,0,.77.29Z" transform="translate(340.7 -235.58)"/><path class="cls-11" d="M249.23,444.05a8.48,8.48,0,0,1-.34,2.63,3.75,3.75,0,0,1-1.18,1.67,6.71,6.71,0,0,1-2.34,1.12l-.4-1a5.26,5.26,0,0,0,1.11-.53,2.7,2.7,0,0,0,.63-.58,2.49,2.49,0,0,0,.37-.9,6.43,6.43,0,0,0,.13-1.44v-8.71c0-.61,0-1,0-1.31a1.79,1.79,0,0,0-.16-.63.91.91,0,0,0-.36-.37,3.53,3.53,0,0,0-.89-.27v-.62l2.74-.1h.72Zm.06-15.57v2.27h-2.15v-2.27Z" transform="translate(340.7 -235.58)"/><path class="cls-11" d="M257.54,444.46a4.77,4.77,0,0,1-3.73-1.43,6.24,6.24,0,0,1-1.28-4.25,7.19,7.19,0,0,1,.68-3.27,4.51,4.51,0,0,1,1.84-2,5.44,5.44,0,0,1,2.67-.65,4.82,4.82,0,0,1,3.8,1.46,6.13,6.13,0,0,1,1.29,4.19,7.49,7.49,0,0,1-.65,3.28,4.39,4.39,0,0,1-1.82,2A5.68,5.68,0,0,1,257.54,444.46Zm-2.79-5.93a7.36,7.36,0,0,0,.76,3.71,2.45,2.45,0,0,0,2.2,1.3,2.35,2.35,0,0,0,1.34-.38,3,3,0,0,0,.89-1,5,5,0,0,0,.5-1.49,10.26,10.26,0,0,0,.15-1.78,9,9,0,0,0-.38-2.86,3.57,3.57,0,0,0-1-1.67,2.35,2.35,0,0,0-1.5-.53A2.42,2.42,0,0,0,255.5,435,6.77,6.77,0,0,0,254.75,438.53Z" transform="translate(340.7 -235.58)"/><path class="cls-11" d="M268.3,437.75h.38a2.15,2.15,0,0,0,.63-.08,3.09,3.09,0,0,0,.65-.36,12.46,12.46,0,0,0,1-.85,8.6,8.6,0,0,0,.82-.86,2.48,2.48,0,0,0,.38-.64,1.46,1.46,0,0,0,.09-.49.71.71,0,0,0-.21-.55,1.26,1.26,0,0,0-.71-.27v-.58h5.05v.58a3.54,3.54,0,0,0-1.15.48,7.45,7.45,0,0,0-1.26,1l-2.69,2.56,3.37,4.4a6,6,0,0,0,1.07,1.14,2.45,2.45,0,0,0,1,.49v.57h-4.5v-.57a1,1,0,0,0,.45-.13.38.38,0,0,0,.15-.34,1,1,0,0,0-.06-.34,3.25,3.25,0,0,0-.27-.47l-.72-1-1.4-1.87a5.64,5.64,0,0,0-.57-.69,1,1,0,0,0-.36-.24,1.62,1.62,0,0,0-.5-.07h-.66v2.81a7.17,7.17,0,0,0,.1,1.41,1,1,0,0,0,.36.59,2.27,2.27,0,0,0,.86.36v.57H265v-.57a2.5,2.5,0,0,0,.82-.32,1,1,0,0,0,.33-.39,2.49,2.49,0,0,0,.14-.62,9.54,9.54,0,0,0,0-1v-9.8c0-.75,0-1.28,0-1.57a3.86,3.86,0,0,0-.09-.76,1.31,1.31,0,0,0-.21-.49,1,1,0,0,0-.37-.28,3.69,3.69,0,0,0-.82-.21v-.61l2.82-.12h.7Z" transform="translate(340.7 -235.58)"/><path class="cls-11" d="M284.36,442.6l-.18-.05a7.06,7.06,0,0,1-1.91,1.48,4.31,4.31,0,0,1-1.91.43,3.45,3.45,0,0,1-1.57-.34,2.46,2.46,0,0,1-1-1,2.82,2.82,0,0,1-.36-1.44,2.9,2.9,0,0,1,1.69-2.65,12,12,0,0,1,5.08-1.08v-.76a6.47,6.47,0,0,0-.23-1.92,2,2,0,0,0-.74-1,2.54,2.54,0,0,0-1.35-.32,2.17,2.17,0,0,0-1.47.48,3,3,0,0,0-.84,1.44H278v-1.52a16.49,16.49,0,0,1,1.87-.87,12.07,12.07,0,0,1,1.5-.43,7.07,7.07,0,0,1,1.52-.16,4.11,4.11,0,0,1,1.87.37,2.31,2.31,0,0,1,1.05,1.13,5.68,5.68,0,0,1,.35,2.3v4.08c0,.58,0,1,0,1.22a3.34,3.34,0,0,0,.07.66,1.33,1.33,0,0,0,.17.49,1.07,1.07,0,0,0,.35.31,3.1,3.1,0,0,0,.74.27v.57H284.3Zm-.2-3.67a8.39,8.39,0,0,0-3.56.63,2,2,0,0,0-1.19,1.84,1.83,1.83,0,0,0,.27,1.06,1.4,1.4,0,0,0,.68.53,2.88,2.88,0,0,0,1,.15,2.73,2.73,0,0,0,1.44-.39,2.91,2.91,0,0,0,1-1,2.31,2.31,0,0,0,.36-1.19Z" transform="translate(340.7 -235.58)"/><path class="cls-11" d="M288.6,433.66a2.52,2.52,0,0,0,.95-.33,1.81,1.81,0,0,0,.57-.6,3.37,3.37,0,0,0,.32-.93c.08-.37.16-.91.25-1.62h1.66v2.89h3.79v1.18h-3.79v5.22a12.41,12.41,0,0,0,.1,1.81,2.44,2.44,0,0,0,.35,1.05,1.51,1.51,0,0,0,.58.55,1.9,1.9,0,0,0,.85.16,2.05,2.05,0,0,0,.88-.19,3.07,3.07,0,0,0,.8-.56l.53.64a6.23,6.23,0,0,1-1.57,1.17,3.52,3.52,0,0,1-1.55.36,2.79,2.79,0,0,1-2.25-.89,4.42,4.42,0,0,1-.73-2.81v-6.51H288.6Z" transform="translate(340.7 -235.58)"/><path class="cls-11" d="M297.14,433.07h3.34v6a15.16,15.16,0,0,0,.11,2.08,3.09,3.09,0,0,0,.32,1.08,1.81,1.81,0,0,0,.59.61,2,2,0,0,0,1.07.25,2.14,2.14,0,0,0,.86-.18,3.67,3.67,0,0,0,.91-.62,2.77,2.77,0,0,0,.72-.87,2.15,2.15,0,0,0,.22-1V436a8.58,8.58,0,0,0,0-1,2,2,0,0,0-.11-.54,1.22,1.22,0,0,0-.2-.34,1.14,1.14,0,0,0-.31-.23,3,3,0,0,0-.67-.22v-.58h3.34v8c0,.6,0,1,0,1.3a1.71,1.71,0,0,0,.15.63.94.94,0,0,0,.36.38,3.23,3.23,0,0,0,.88.28v.6l-2.68.12h-.72l.07-1.92-.17-.05a7.69,7.69,0,0,1-1.86,1.55,3.59,3.59,0,0,1-1.77.49,3.35,3.35,0,0,1-1.76-.42,2.5,2.5,0,0,1-1-1.26,6.44,6.44,0,0,1-.34-2.36V436a7.74,7.74,0,0,0-.08-1.35,1.13,1.13,0,0,0-.29-.59,2.27,2.27,0,0,0-.95-.4Z" transform="translate(340.7 -235.58)"/><path class="cls-11" d="M317.45,442.6l-.17-.05a7.09,7.09,0,0,1-1.92,1.48,4.3,4.3,0,0,1-1.9.43,3.39,3.39,0,0,1-1.57-.34,2.49,2.49,0,0,1-1.05-1,2.82,2.82,0,0,1-.36-1.44,2.9,2.9,0,0,1,1.69-2.65,12,12,0,0,1,5.08-1.08v-.76a6.15,6.15,0,0,0-.23-1.92,1.91,1.91,0,0,0-.74-1,2.5,2.5,0,0,0-1.35-.32,2.17,2.17,0,0,0-1.47.48,2.88,2.88,0,0,0-.83,1.44h-1.54v-1.52a16.49,16.49,0,0,1,1.87-.87,12.07,12.07,0,0,1,1.5-.43,7.1,7.1,0,0,1,1.53-.16,4.1,4.1,0,0,1,1.86.37,2.38,2.38,0,0,1,1.06,1.13,5.86,5.86,0,0,1,.35,2.3v4.08c0,.58,0,1,0,1.22a4.31,4.31,0,0,0,.07.66,1.32,1.32,0,0,0,.18.49.94.94,0,0,0,.34.31,3,3,0,0,0,.75.27v.57h-3.22Zm-.2-3.67a8.43,8.43,0,0,0-3.56.63,2,2,0,0,0-1.18,1.84,1.83,1.83,0,0,0,.27,1.06,1.36,1.36,0,0,0,.68.53,3,3,0,0,0,2.42-.24,2.88,2.88,0,0,0,1-1,2.31,2.31,0,0,0,.36-1.19Z" transform="translate(340.7 -235.58)"/><path class="cls-11" d="M321.77,427.46a7.61,7.61,0,0,1,3.25.6,4.31,4.31,0,0,1,2,1.82,9.29,9.29,0,0,1,1,3.18,34.89,34.89,0,0,1,.32,5.31,36.72,36.72,0,0,1-.31,5.3,9.61,9.61,0,0,1-1,3.22,4.43,4.43,0,0,1-2,1.86,7.3,7.3,0,0,1-3.25.62v-1a7,7,0,0,0,1.45-.14,2.64,2.64,0,0,0,1.22-.63,3.79,3.79,0,0,0,.91-1.44,11.66,11.66,0,0,0,.61-2.86,45.9,45.9,0,0,0,.21-4.88c0-1.76-.06-3.25-.17-4.48a13.42,13.42,0,0,0-.59-3,4.3,4.3,0,0,0-.82-1.53,2.77,2.77,0,0,0-1-.73,4.77,4.77,0,0,0-1.79-.28Z" transform="translate(340.7 -235.58)"/><path class="cls-11" d="M170.82,474.37a7.58,7.58,0,0,1-3.25-.6,4.31,4.31,0,0,1-2-1.82,9.29,9.29,0,0,1-1-3.18,34.89,34.89,0,0,1-.32-5.31,36.72,36.72,0,0,1,.31-5.3,9.61,9.61,0,0,1,1-3.22,4.4,4.4,0,0,1,2-1.86,7.49,7.49,0,0,1,3.26-.62v1a7,7,0,0,0-1.45.14,2.64,2.64,0,0,0-1.22.63,3.79,3.79,0,0,0-.91,1.44,11.66,11.66,0,0,0-.61,2.86,45.9,45.9,0,0,0-.21,4.88c0,1.76.05,3.25.17,4.48a12.89,12.89,0,0,0,.59,3,4.3,4.3,0,0,0,.82,1.53,2.77,2.77,0,0,0,1,.73,4.77,4.77,0,0,0,1.79.28Z" transform="translate(340.7 -235.58)"/><path class="cls-11" d="M172.74,469.27v-.57a2.27,2.27,0,0,0,1-.42,1.11,1.11,0,0,0,.32-.65,7.91,7.91,0,0,0,.08-1.29V456.21a8.24,8.24,0,0,0-.06-1.18,1.4,1.4,0,0,0-.2-.57,1,1,0,0,0-.35-.33,4.09,4.09,0,0,0-.77-.28v-.57h6.41a9.14,9.14,0,0,1,3,.4,3.31,3.31,0,0,1,1.68,1.17,3.39,3.39,0,0,1,.55,2,3.67,3.67,0,0,1-1.42,3,7.39,7.39,0,0,1-1.63.91v.11a4.79,4.79,0,0,1,2.42,1.48,3.68,3.68,0,0,1,.82,2.38,4.42,4.42,0,0,1-.71,2.6,3.92,3.92,0,0,1-2,1.46,9.33,9.33,0,0,1-3.09.45Zm5.62-8.82a3.93,3.93,0,0,0,2.72-.86,3.23,3.23,0,0,0,.95-2.5,2.93,2.93,0,0,0-.27-1.34,2.14,2.14,0,0,0-.72-.85,3,3,0,0,0-1.1-.46,6.57,6.57,0,0,0-1.37-.13l-1.17,0-1.09.05v6.07Zm-2.05,7.71a18.47,18.47,0,0,0,1.91.08,6,6,0,0,0,2.38-.38,2.43,2.43,0,0,0,1.23-1.15,4.08,4.08,0,0,0,.38-1.89,3.84,3.84,0,0,0-.41-1.87,2.58,2.58,0,0,0-1.29-1.11,6.35,6.35,0,0,0-2.39-.36h-1.81Z" transform="translate(340.7 -235.58)"/><path class="cls-11" d="M193.91,467.6l-.18-.05a7.21,7.21,0,0,1-1.91,1.48,4.34,4.34,0,0,1-1.91.43,3.42,3.42,0,0,1-1.57-.34,2.46,2.46,0,0,1-1-1,2.82,2.82,0,0,1-.36-1.44,2.9,2.9,0,0,1,1.69-2.65,12,12,0,0,1,5.08-1.08v-.76a6.11,6.11,0,0,0-.24-1.92,1.9,1.9,0,0,0-.73-1,2.54,2.54,0,0,0-1.35-.32,2.17,2.17,0,0,0-1.47.48,3,3,0,0,0-.84,1.44h-1.54v-1.52a16.51,16.51,0,0,1,1.88-.87,12.07,12.07,0,0,1,1.5-.43,7.07,7.07,0,0,1,1.52-.16,4.11,4.11,0,0,1,1.87.37,2.31,2.31,0,0,1,1.05,1.13,5.68,5.68,0,0,1,.35,2.3v4.08c0,.58,0,1,0,1.22a6.08,6.08,0,0,0,.07.66,1.32,1.32,0,0,0,.18.49,1,1,0,0,0,.35.31,3.1,3.1,0,0,0,.74.27v.57h-3.21Zm-.2-3.67a8.39,8.39,0,0,0-3.56.63A2,2,0,0,0,189,466.4a1.83,1.83,0,0,0,.27,1.06,1.4,1.4,0,0,0,.68.53,2.86,2.86,0,0,0,1,.15,2.74,2.74,0,0,0,1.45-.39,2.91,2.91,0,0,0,1-1,2.31,2.31,0,0,0,.36-1.19Z" transform="translate(340.7 -235.58)"/><path class="cls-11" d="M206.71,460.64h-1.13a3.4,3.4,0,0,0-.61-1.11,1.91,1.91,0,0,0-.8-.57,3.13,3.13,0,0,0-1.09-.16,2.3,2.3,0,0,0-1.49.44,1.44,1.44,0,0,0-.56,1.2,1.63,1.63,0,0,0,.23.89,2.2,2.2,0,0,0,.69.66,11.66,11.66,0,0,0,1.65.8,12.8,12.8,0,0,1,1.85.95,3.47,3.47,0,0,1,1,1,2.44,2.44,0,0,1,.37,1.37,3.47,3.47,0,0,1-.31,1.56,2.69,2.69,0,0,1-.89,1,3.86,3.86,0,0,1-1.37.58,8.46,8.46,0,0,1-1.73.17,13.31,13.31,0,0,1-1.91-.14,17.41,17.41,0,0,1-1.8-.39v-2.44H200a3,3,0,0,0,.93,1.56,2.77,2.77,0,0,0,1.72.49,3.75,3.75,0,0,0,.82-.09,2.31,2.31,0,0,0,.72-.29,1.62,1.62,0,0,0,.51-.56,1.94,1.94,0,0,0,.18-.88,1.77,1.77,0,0,0-.23-1,2.32,2.32,0,0,0-.73-.69,14.19,14.19,0,0,0-1.73-.84,10.37,10.37,0,0,1-1.71-.86,3.48,3.48,0,0,1-1-1,2.51,2.51,0,0,1-.37-1.36,2.73,2.73,0,0,1,.53-1.67,3.23,3.23,0,0,1,1.5-1.08,6.5,6.5,0,0,1,2.31-.38,14.26,14.26,0,0,1,1.49.08c.49.05,1.09.15,1.82.3Z" transform="translate(340.7 -235.58)"/><path class="cls-11" d="M218.53,467.28a9,9,0,0,1-1.38,1.23,5,5,0,0,1-3,.95,4.49,4.49,0,0,1-3.64-1.45,6.42,6.42,0,0,1-1.23-4.27,7.15,7.15,0,0,1,.63-3.08,4.67,4.67,0,0,1,1.78-2.06,5.37,5.37,0,0,1,4.69-.35,3.43,3.43,0,0,1,1.33,1,4.8,4.8,0,0,1,.77,1.64,10.34,10.34,0,0,1,.31,2.59h-7.38v.21a7.36,7.36,0,0,0,.31,2.32,2.76,2.76,0,0,0,2.87,2,4.21,4.21,0,0,0,1.73-.35,5.05,5.05,0,0,0,1.52-1.17Zm-2-4.76a8.66,8.66,0,0,0-.32-2.06,2.56,2.56,0,0,0-.73-1.23,1.88,1.88,0,0,0-1.29-.43,2.29,2.29,0,0,0-1.93,1,5.27,5.27,0,0,0-.85,2.76Z" transform="translate(340.7 -235.58)"/><path class="cls-11" d="M233.25,467.4a4.58,4.58,0,0,0,.92-.07,1.36,1.36,0,0,0,.57-.24,1.07,1.07,0,0,0,.33-.42,8.38,8.38,0,0,0,.31-.82h1l-.2,3.42h-9.65v-.56a14.92,14.92,0,0,1,1.36-2.52,26.67,26.67,0,0,1,2.43-3c.9-1,1.56-1.76,2-2.28a10.12,10.12,0,0,0,1-1.46,5.43,5.43,0,0,0,.47-1.16,4.46,4.46,0,0,0,.14-1.09,4.12,4.12,0,0,0-.28-1.55,2.28,2.28,0,0,0-.87-1.06,2.53,2.53,0,0,0-1.45-.39,3,3,0,0,0-3,2.44h-1.42v-2.25a13.79,13.79,0,0,1,2.66-1,9.46,9.46,0,0,1,2.22-.3,4.91,4.91,0,0,1,3.29,1,3.45,3.45,0,0,1,1.12,2.77,4.69,4.69,0,0,1-.51,2.17,8.73,8.73,0,0,1-.71,1.1c-.3.39-.63.78-1,1.19s-1,1.07-1.86,2a25.19,25.19,0,0,0-3.27,4.11Z" transform="translate(340.7 -235.58)"/><path class="cls-11" d="M245,464h-5.43V462.2H245Z" transform="translate(340.7 -235.58)"/><path class="cls-11" d="M250.58,460l.16,0a8.85,8.85,0,0,1,1.2-1.23,4,4,0,0,1,1.19-.7,3.87,3.87,0,0,1,1.45-.25,11.36,11.36,0,0,1,1.23.07v2.7h-1.33a2.66,2.66,0,0,0-.6-.92,1.24,1.24,0,0,0-.86-.29,1.6,1.6,0,0,0-.84.25,2.9,2.9,0,0,0-.8.71,2.49,2.49,0,0,0-.68,1.85v4.1a5.45,5.45,0,0,0,.13,1.48,1,1,0,0,0,.42.59,2.7,2.7,0,0,0,.9.29v.57h-4.72v-.57a3.87,3.87,0,0,0,.64-.25.91.91,0,0,0,.33-.29,1.48,1.48,0,0,0,.21-.57,7.13,7.13,0,0,0,.07-1.21v-5.11c0-.5,0-.9,0-1.21a1.78,1.78,0,0,0-.17-.73.88.88,0,0,0-.42-.41,3.31,3.31,0,0,0-.82-.23v-.61L250,458h.72Z" transform="translate(340.7 -235.58)"/><path class="cls-11" d="M266.35,467.28a9.48,9.48,0,0,1-1.37,1.23,5.27,5.27,0,0,1-1.38.7,5.1,5.1,0,0,1-1.65.25A4.51,4.51,0,0,1,258.3,468a6.42,6.42,0,0,1-1.23-4.27,7.15,7.15,0,0,1,.63-3.08,4.69,4.69,0,0,1,1.79-2.06,5.35,5.35,0,0,1,4.68-.35,3.36,3.36,0,0,1,1.33,1,4.81,4.81,0,0,1,.78,1.64,11.37,11.37,0,0,1,.31,2.59h-7.38v.21a7.36,7.36,0,0,0,.31,2.32,2.84,2.84,0,0,0,1,1.48,2.93,2.93,0,0,0,1.84.53,4.18,4.18,0,0,0,1.73-.35,5.21,5.21,0,0,0,1.53-1.17Zm-2-4.76a8.71,8.71,0,0,0-.31-2.06,2.57,2.57,0,0,0-.74-1.23,1.88,1.88,0,0,0-1.29-.43,2.3,2.3,0,0,0-1.93,1,5.27,5.27,0,0,0-.85,2.76Z" transform="translate(340.7 -235.58)"/><path class="cls-11" d="M280.11,469.27h-4.62v-.57a3.57,3.57,0,0,0,.66-.25.91.91,0,0,0,.33-.29,1.63,1.63,0,0,0,.22-.58,7,7,0,0,0,.07-1.19v-3.07c0-.55,0-1,0-1.49a6.51,6.51,0,0,0-.15-1.09,2.57,2.57,0,0,0-.27-.67,1.66,1.66,0,0,0-.38-.41,1.83,1.83,0,0,0-.5-.27,2.4,2.4,0,0,0-1.6.08A4.09,4.09,0,0,0,272.2,461a2.12,2.12,0,0,0-.22,1v4.37a7.4,7.4,0,0,0,.09,1.41,1,1,0,0,0,.36.59,2.35,2.35,0,0,0,.86.36v.57H268.7v-.57a3.7,3.7,0,0,0,.65-.25.91.91,0,0,0,.33-.29,1.48,1.48,0,0,0,.21-.57,7.13,7.13,0,0,0,.07-1.21v-5.11c0-.5,0-.9,0-1.21a2,2,0,0,0-.16-.73,1,1,0,0,0-.43-.41,3.31,3.31,0,0,0-.82-.23v-.62l2.75-.1H272l-.13,1.91.17,0a10.82,10.82,0,0,1,1.4-1.25,4.88,4.88,0,0,1,1.07-.58,3.22,3.22,0,0,1,1.16-.21,3.91,3.91,0,0,1,1.13.15,2.72,2.72,0,0,1,.88.45,2.44,2.44,0,0,1,.62.76,3.52,3.52,0,0,1,.37,1.08,8,8,0,0,1,.13,1.61v4.41a11.29,11.29,0,0,0,0,1.18,1.62,1.62,0,0,0,.17.56,1,1,0,0,0,.34.33,3.2,3.2,0,0,0,.77.29Z" transform="translate(340.7 -235.58)"/><path class="cls-11" d="M288.87,467.6l-.18-.05a7.09,7.09,0,0,1-1.92,1.48,4.27,4.27,0,0,1-1.9.43,3.42,3.42,0,0,1-1.57-.34,2.46,2.46,0,0,1-1-1,2.73,2.73,0,0,1-.37-1.44,2.91,2.91,0,0,1,1.7-2.65,12,12,0,0,1,5.08-1.08v-.76a6.11,6.11,0,0,0-.24-1.92,1.86,1.86,0,0,0-.74-1,2.48,2.48,0,0,0-1.34-.32,2.17,2.17,0,0,0-1.47.48,2.82,2.82,0,0,0-.84,1.44H282.5v-1.52a16.51,16.51,0,0,1,1.88-.87,12.07,12.07,0,0,1,1.5-.43,7,7,0,0,1,1.52-.16,4.1,4.1,0,0,1,1.86.37,2.38,2.38,0,0,1,1.06,1.13,5.86,5.86,0,0,1,.35,2.3v4.08c0,.58,0,1,0,1.22a4.31,4.31,0,0,0,.07.66,1.32,1.32,0,0,0,.18.49,1,1,0,0,0,.34.31,3.21,3.21,0,0,0,.75.27v.57h-3.21Zm-.2-3.67a8.45,8.45,0,0,0-3.57.63,2,2,0,0,0-1.18,1.84,1.83,1.83,0,0,0,.27,1.06,1.4,1.4,0,0,0,.68.53,2.82,2.82,0,0,0,1,.15,2.76,2.76,0,0,0,1.45-.39,2.88,2.88,0,0,0,1-1,2.33,2.33,0,0,0,.37-1.19Z" transform="translate(340.7 -235.58)"/><path class="cls-11" d="M293.18,452.46a7.58,7.58,0,0,1,3.25.6,4.31,4.31,0,0,1,2,1.82,9.29,9.29,0,0,1,1,3.18,34.89,34.89,0,0,1,.32,5.31,35.32,35.32,0,0,1-.31,5.3,9.61,9.61,0,0,1-1,3.22,4.4,4.4,0,0,1-2,1.86,7.35,7.35,0,0,1-3.26.62v-1a7,7,0,0,0,1.45-.14,2.64,2.64,0,0,0,1.22-.63,3.79,3.79,0,0,0,.91-1.44,11.66,11.66,0,0,0,.61-2.86,45.9,45.9,0,0,0,.21-4.88c0-1.76-.05-3.25-.17-4.48a12.89,12.89,0,0,0-.59-3,4.3,4.3,0,0,0-.82-1.53,2.77,2.77,0,0,0-1-.73,4.77,4.77,0,0,0-1.79-.28Z" transform="translate(340.7 -235.58)"/></svg>