<svg id="Capa_1" data-name="Capa 1" xmlns="http://www.w3.org/2000/svg" viewBox="0 0 1158.08 414.83"><defs><style>.cls-1,.cls-4{fill:#a980b8;}.cls-2,.cls-3{fill:none;}.cls-2,.cls-3,.cls-4{stroke:#a980b8;stroke-miterlimit:10;}.cls-2,.cls-4{stroke-width:5px;}.cls-3{stroke-width:4px;}</style></defs><title>bandak</title><path class="cls-1" d="M-225.89,403.26h-.59a4.46,4.46,0,0,1-1.38-.24q-3.39-1-3.39-3.48a1.11,1.11,0,0,1,1.26-1.26,2.62,2.62,0,0,1,1.33.32,1,1,0,0,1,.57.82,2.21,2.21,0,0,0,.47,1.5.34.34,0,0,0,.29.2,1.07,1.07,0,0,0,.44-.15,6.73,6.73,0,0,0,.85-.52,27.19,27.19,0,0,0,5.64-5.63,89.13,89.13,0,0,0,6.84-9.87l1.29-2.11a115.19,115.19,0,0,1-2.84-11.31Q-216,367-216.66,361c-.2-1.81-.3-2.92-.3-3.31a4.14,4.14,0,0,1,.06-.7,2.83,2.83,0,0,1,.24-.73,5,5,0,0,1,2.69-2,11.91,11.91,0,0,1,4.4-.8c1.89,0,3.13.38,3.72,1.12a2.9,2.9,0,0,1,.41,1.08q.34,1.47,1.14,7.41.44,3.19.91,5.57c3-4.67,5-7.67,6-9q8-11.43,13.07-14.86a9.52,9.52,0,0,1,5.1-2,4.26,4.26,0,0,1,2.43.79,4.33,4.33,0,0,1,1.9,2.32,6.85,6.85,0,0,1,.12,1.49,1,1,0,0,1-.12.6.56.56,0,0,1-.44.13,2.1,2.1,0,0,1-1.7-.73,4.16,4.16,0,0,1-.49-1.82h-.56q-5.25.15-17.58,18.55-3.08,4.57-5.36,8.29a12,12,0,0,0-1.08,1.93,37.19,37.19,0,0,0,1.78,6.68,42.84,42.84,0,0,0,1.88,4.9,29.54,29.54,0,0,0,2.25,3.75q2.58,3.83,3.67,3.83a2.32,2.32,0,0,0,.9-.55,18.06,18.06,0,0,0,5-8.32c.32-1,.94-3.06,1.88-6.3a5,5,0,0,1,.47-1.53,1.4,1.4,0,0,1,.66-.42,5.56,5.56,0,0,1,1.65-.16h.44c.3,0,.48.09.56.26a10.17,10.17,0,0,1-.24,1.67,65.86,65.86,0,0,1-3.22,10.31,14.46,14.46,0,0,1-2.66,4.28,13.13,13.13,0,0,1-8.06,5.07,14.43,14.43,0,0,1-3.11.29,10.86,10.86,0,0,1-9.63-5c-.26-.39-.59-1-1-1.73a29.26,29.26,0,0,1-1.61-3.29c0-.13,0-.19-.09-.19s-.8,1-2.23,3.07c-2.65,3.52-4.32,5.7-5,6.55a30.33,30.33,0,0,1-2.24,2.51,15.39,15.39,0,0,1-3.09,2.5A5.81,5.81,0,0,1-225.89,403.26Z" transform="translate(232 -211.5)"/><rect class="cls-2" x="143" y="2.5" width="66" height="80"/><path class="cls-1" d="M54.71,396.61h-.59a4.74,4.74,0,0,1-1.38-.23q-3.39-1-3.39-3.49a1.11,1.11,0,0,1,1.26-1.26,2.62,2.62,0,0,1,1.33.32,1,1,0,0,1,.57.82,2.19,2.19,0,0,0,.47,1.5.32.32,0,0,0,.29.2,1,1,0,0,0,.44-.14,8.71,8.71,0,0,0,.85-.53,27.08,27.08,0,0,0,5.64-5.62A88.9,88.9,0,0,0,67,378.3l1.29-2.11a113.8,113.8,0,0,1-2.84-11.31q-.85-4.56-1.55-10.57c-.2-1.82-.3-2.92-.3-3.31a4.25,4.25,0,0,1,.06-.71,3,3,0,0,1,.24-.73,5.06,5.06,0,0,1,2.69-2,11.91,11.91,0,0,1,4.4-.79q2.84,0,3.72,1.11a3,3,0,0,1,.41,1.09q.34,1.46,1.14,7.41.44,3.19.91,5.56c3-4.66,5-7.66,6-9q8-11.43,13.07-14.85a9.55,9.55,0,0,1,5.1-2,5,5,0,0,1,4.33,3.11,6.85,6.85,0,0,1,.12,1.49,1,1,0,0,1-.12.6.56.56,0,0,1-.44.14,2.1,2.1,0,0,1-1.7-.74,4.15,4.15,0,0,1-.49-1.81h-.56q-5.25.15-17.58,18.54-3.07,4.57-5.36,8.29a11.82,11.82,0,0,0-1.08,1.94,37.42,37.42,0,0,0,1.78,6.68,42.58,42.58,0,0,0,1.88,4.89A28.2,28.2,0,0,0,84.41,383q2.58,3.84,3.67,3.84a2.41,2.41,0,0,0,.9-.56A18.06,18.06,0,0,0,94,378c.32-1,.94-3.06,1.88-6.3a4.82,4.82,0,0,1,.47-1.52,1.33,1.33,0,0,1,.66-.43,5.93,5.93,0,0,1,1.65-.16h.44c.3,0,.48.09.56.27a10.17,10.17,0,0,1-.24,1.67,66.21,66.21,0,0,1-3.22,10.31,14.59,14.59,0,0,1-2.66,4.28,13.16,13.16,0,0,1-8.06,5.06,14.39,14.39,0,0,1-3.11.3,10.86,10.86,0,0,1-9.63-5c-.26-.39-.59-1-1-1.73a32.25,32.25,0,0,1-1.61-3.3c0-.12,0-.19-.09-.19s-.8,1-2.23,3.08c-2.65,3.51-4.32,5.7-5,6.55a30.23,30.23,0,0,1-2.24,2.5,15.5,15.5,0,0,1-3.09,2.51A5.91,5.91,0,0,1,54.71,396.61Z" transform="translate(232 -211.5)"/><path class="cls-3" d="M-106.29,275.36q3.84-3.42,7.65-6.87" transform="translate(232 -211.5)"/><path class="cls-3" d="M-121.16,288.56l4.62-4.09" transform="translate(232 -211.5)"/><path class="cls-3" d="M-137.54,303.17l6.13-5.5" transform="translate(232 -211.5)"/><path class="cls-3" d="M-156.92,321.13q4.65-4.45,9.38-8.82" transform="translate(232 -211.5)"/><path class="cls-3" d="M-174,336.52l7.51-6.77" transform="translate(232 -211.5)"/><path class="cls-3" d="M-5.86,275.27l-7.5-6.78" transform="translate(232 -211.5)"/><path class="cls-3" d="M13.31,292.48l-8.74-7.79" transform="translate(232 -211.5)"/><path class="cls-3" d="M31.77,309,24,302.08" transform="translate(232 -211.5)"/><path class="cls-3" d="M46.65,322.49l-5.12-4.66" transform="translate(232 -211.5)"/><path class="cls-3" d="M62,336.52l-4.58-4.22" transform="translate(232 -211.5)"/><path class="cls-3" d="M48.4,410q3.51-3.21,7.06-6.4" transform="translate(232 -211.5)"/><path class="cls-3" d="M32.42,424.78l6.48-6" transform="translate(232 -211.5)"/><path class="cls-3" d="M16.4,439.53c2.19-2,4.36-4,6.54-6" transform="translate(232 -211.5)"/><path class="cls-3" d="M-1.71,455.21q4.11-3.39,8.14-6.86" transform="translate(232 -211.5)"/><path class="cls-3" d="M-19.86,471.61l9-8.16" transform="translate(232 -211.5)"/><path class="cls-3" d="M-171,404.69l-6.25-5.64" transform="translate(232 -211.5)"/><path class="cls-3" d="M-152.2,421.76l-8.7-7.92" transform="translate(232 -211.5)"/><path class="cls-3" d="M-136.42,436l-5.65-5.1" transform="translate(232 -211.5)"/><path class="cls-3" d="M-119.45,451.33l-6.68-6" transform="translate(232 -211.5)"/><path class="cls-3" d="M-102,467.08l-6.68-6" transform="translate(232 -211.5)"/><rect class="cls-4" x="138.09" y="234.35" width="66" height="80"/><path class="cls-1" d="M191.7,389.61h-.59a4.63,4.63,0,0,1-1.37-.23q-3.41-1-3.4-3.49a1.11,1.11,0,0,1,1.26-1.26,2.59,2.59,0,0,1,1.33.32,1,1,0,0,1,.57.82,2.21,2.21,0,0,0,.47,1.5.35.35,0,0,0,.29.2,1.07,1.07,0,0,0,.44-.15,6.73,6.73,0,0,0,.85-.52,26.71,26.71,0,0,0,5.64-5.63A87.79,87.79,0,0,0,204,371.3l1.29-2.11q-1.9-6.39-2.84-11.31-.85-4.58-1.55-10.57c-.2-1.82-.29-2.92-.29-3.32a4.2,4.2,0,0,1,.05-.7,2.83,2.83,0,0,1,.24-.73,5.09,5.09,0,0,1,2.69-2,12,12,0,0,1,4.4-.79q2.83,0,3.72,1.11a2.8,2.8,0,0,1,.41,1.08q.34,1.47,1.14,7.41c.29,2.13.6,4,.91,5.57q4.55-7,6-9,8-11.43,13.06-14.86a9.61,9.61,0,0,1,5.1-2,4.33,4.33,0,0,1,2.43.79,4.39,4.39,0,0,1,1.91,2.32,7.72,7.72,0,0,1,.11,1.49,1.09,1.09,0,0,1-.11.6.58.58,0,0,1-.44.13,2.08,2.08,0,0,1-1.7-.73,4.1,4.1,0,0,1-.5-1.81h-.56q-5.23.14-17.58,18.54-3.08,4.57-5.36,8.29a12,12,0,0,0-1.08,1.93,36.71,36.71,0,0,0,1.79,6.68,40.57,40.57,0,0,0,1.87,4.9,28.65,28.65,0,0,0,2.26,3.75c1.72,2.56,2.94,3.83,3.66,3.83a2.33,2.33,0,0,0,.91-.55,18.06,18.06,0,0,0,5-8.32c.31-1,.94-3.06,1.87-6.3a4.82,4.82,0,0,1,.47-1.52,1.43,1.43,0,0,1,.66-.43,5.59,5.59,0,0,1,1.66-.16h.44c.29,0,.47.09.55.26a10.86,10.86,0,0,1-.23,1.67,67,67,0,0,1-3.23,10.32,14.53,14.53,0,0,1-2.66,4.27,13.13,13.13,0,0,1-8.06,5.07,14.4,14.4,0,0,1-3.1.29,10.87,10.87,0,0,1-9.64-5c-.26-.39-.59-1-1-1.72a32.25,32.25,0,0,1-1.61-3.3c0-.13,0-.19-.09-.19s-.8,1-2.22,3.08q-4,5.27-5,6.54a28.62,28.62,0,0,1-2.24,2.51,14.78,14.78,0,0,1-3.09,2.5A5.78,5.78,0,0,1,191.7,389.61Z" transform="translate(232 -211.5)"/><rect class="cls-2" x="560.59" y="50.85" width="66" height="80"/><path class="cls-1" d="M472.3,383h-.59a4.32,4.32,0,0,1-1.37-.23c-2.27-.66-3.4-1.83-3.4-3.49A1.11,1.11,0,0,1,468.2,378a2.5,2.5,0,0,1,1.33.33,1,1,0,0,1,.57.82,2.18,2.18,0,0,0,.47,1.49.35.35,0,0,0,.29.21,1.07,1.07,0,0,0,.44-.15,8.71,8.71,0,0,0,.85-.53,26.6,26.6,0,0,0,5.64-5.62,88.9,88.9,0,0,0,6.84-9.88l1.29-2.11q-1.91-6.37-2.84-11.3-.85-4.58-1.55-10.58c-.2-1.82-.29-2.92-.29-3.31a4,4,0,0,1,.05-.7,2.89,2.89,0,0,1,.24-.74,5.14,5.14,0,0,1,2.69-2,12,12,0,0,1,4.4-.79q2.83,0,3.72,1.11a2.87,2.87,0,0,1,.41,1.09q.35,1.45,1.14,7.41c.29,2.13.6,4,.91,5.56q4.54-7,6-9,8-11.43,13.06-14.85a9.52,9.52,0,0,1,5.1-2,4.26,4.26,0,0,1,2.43.79,4.34,4.34,0,0,1,1.91,2.31,7.76,7.76,0,0,1,.11,1.5,1.09,1.09,0,0,1-.11.6.62.62,0,0,1-.44.13,2.11,2.11,0,0,1-1.7-.73,4,4,0,0,1-.5-1.82h-.56q-5.24.15-17.58,18.54-3.07,4.57-5.36,8.29a11.82,11.82,0,0,0-1.08,1.94,36.93,36.93,0,0,0,1.79,6.68,42.8,42.8,0,0,0,1.87,4.89,27.39,27.39,0,0,0,2.26,3.75c1.71,2.56,2.94,3.84,3.66,3.84a2.49,2.49,0,0,0,.91-.56q3.17-2.72,5-8.32c.31-.95.94-3.05,1.87-6.3a4.92,4.92,0,0,1,.47-1.52,1.43,1.43,0,0,1,.66-.43,6,6,0,0,1,1.66-.16h.44c.29,0,.47.09.55.27a11,11,0,0,1-.23,1.67,67.16,67.16,0,0,1-3.23,10.31,14.59,14.59,0,0,1-2.66,4.28,13.21,13.21,0,0,1-8.06,5.07,15.06,15.06,0,0,1-3.1.29,10.87,10.87,0,0,1-9.64-5c-.26-.39-.59-1-1-1.73a32.25,32.25,0,0,1-1.61-3.3c0-.12,0-.19-.09-.19s-.8,1-2.22,3.08q-4,5.28-5,6.55a28.53,28.53,0,0,1-2.24,2.5,15.22,15.22,0,0,1-3.09,2.51A5.76,5.76,0,0,1,472.3,383Z" transform="translate(232 -211.5)"/><rect class="cls-4" x="560.68" y="157.7" width="66" height="80"/><path class="cls-3" d="M303.85,427.53l15.1,10" transform="translate(232 -211.5)"/><path class="cls-3" d="M284.09,414.43l7.55,5" transform="translate(232 -211.5)"/><path class="cls-3" d="M262.27,400l8.62,5.71" transform="translate(232 -211.5)"/><path class="cls-3" d="M240.32,385.4l9.92,6.58" transform="translate(232 -211.5)"/><path class="cls-3" d="M413,431.51l-8.73,6" transform="translate(232 -211.5)"/><path class="cls-3" d="M433.53,417q-4.54,3.22-9,6.55" transform="translate(232 -211.5)"/><path class="cls-3" d="M451.87,404.32q-3.72,2.52-7.44,5.06" transform="translate(232 -211.5)"/><path class="cls-3" d="M473.05,389.92q-4.56,3.15-9.14,6.25" transform="translate(232 -211.5)"/><path class="cls-3" d="M309.84,282.09c3.05-1.91,6.1-3.85,9.11-5.82" transform="translate(232 -211.5)"/><path class="cls-3" d="M287.9,295.46l9.84-5.94" transform="translate(232 -211.5)"/><path class="cls-3" d="M264.59,309.91q5.52-3.57,11.11-7" transform="translate(232 -211.5)"/><path class="cls-3" d="M243.64,322.88l9.21-5.7" transform="translate(232 -211.5)"/><path class="cls-3" d="M412.82,276.24l-9.67-6.75" transform="translate(232 -211.5)"/><path class="cls-3" d="M431.89,289.32q-3.58-2.44-7.21-4.79" transform="translate(232 -211.5)"/><path class="cls-3" d="M453.55,304.76c-3.27-2.38-6.54-4.77-9.83-7.13" transform="translate(232 -211.5)"/><path class="cls-3" d="M479.55,322.88c-4.73-3-9.37-6.21-14-9.45" transform="translate(232 -211.5)"/><path class="cls-1" d="M594.36,376.64h-.59a4.63,4.63,0,0,1-1.37-.23q-3.4-1-3.4-3.49a1.11,1.11,0,0,1,1.26-1.26,2.59,2.59,0,0,1,1.33.32,1,1,0,0,1,.57.82,2.19,2.19,0,0,0,.47,1.5.35.35,0,0,0,.29.2,1.19,1.19,0,0,0,.44-.14,8.71,8.71,0,0,0,.85-.53,26.46,26.46,0,0,0,5.64-5.63,87.79,87.79,0,0,0,6.84-9.87l1.29-2.11q-1.9-6.39-2.84-11.31-.85-4.56-1.55-10.57c-.2-1.82-.3-2.92-.3-3.31a4.25,4.25,0,0,1,.06-.71,3,3,0,0,1,.24-.73,5.14,5.14,0,0,1,2.69-2,12,12,0,0,1,4.4-.79q2.84,0,3.72,1.11a3.06,3.06,0,0,1,.41,1.08q.35,1.47,1.14,7.42c.29,2.13.6,4,.91,5.56q4.54-7,6-9,8-11.43,13.06-14.85a9.55,9.55,0,0,1,5.1-2,4.27,4.27,0,0,1,2.43.8,4.34,4.34,0,0,1,1.91,2.31,7.72,7.72,0,0,1,.11,1.49,1,1,0,0,1-.11.6.58.58,0,0,1-.44.14,2.09,2.09,0,0,1-1.7-.74,4,4,0,0,1-.5-1.81h-.56q-5.25.15-17.58,18.54-3.08,4.57-5.36,8.29a11.82,11.82,0,0,0-1.08,1.94,36.93,36.93,0,0,0,1.79,6.68,41,41,0,0,0,1.87,4.89,27.39,27.39,0,0,0,2.26,3.75c1.71,2.56,2.94,3.84,3.66,3.84a2.49,2.49,0,0,0,.91-.56,18.06,18.06,0,0,0,5-8.32q.46-1.44,1.87-6.3a4.82,4.82,0,0,1,.47-1.52,1.43,1.43,0,0,1,.66-.43,6,6,0,0,1,1.66-.16h.43c.3,0,.48.09.56.27a11.18,11.18,0,0,1-.23,1.67,67.16,67.16,0,0,1-3.23,10.31,14.59,14.59,0,0,1-2.66,4.28,13.16,13.16,0,0,1-8.06,5.06,14.36,14.36,0,0,1-3.1.3,10.87,10.87,0,0,1-9.64-5c-.26-.39-.59-1-1-1.73a32.25,32.25,0,0,1-1.61-3.3c0-.12,0-.19-.09-.19s-.8,1-2.22,3.08c-2.66,3.51-4.33,5.7-5,6.55a28.53,28.53,0,0,1-2.24,2.5,15.22,15.22,0,0,1-3.09,2.51A5.88,5.88,0,0,1,594.36,376.64Z" transform="translate(232 -211.5)"/><rect class="cls-2" x="953.25" y="73.88" width="66" height="80"/><path class="cls-1" d="M875,370h-.59a4.35,4.35,0,0,1-1.37-.24c-2.27-.66-3.4-1.83-3.4-3.49a1.11,1.11,0,0,1,1.26-1.25,2.52,2.52,0,0,1,1.33.32,1,1,0,0,1,.57.82,2.18,2.18,0,0,0,.47,1.49.35.35,0,0,0,.29.21,1.07,1.07,0,0,0,.44-.15,7.09,7.09,0,0,0,.85-.53,26.36,26.36,0,0,0,5.64-5.62,88.72,88.72,0,0,0,6.84-9.87l1.29-2.11q-1.91-6.39-2.84-11.31-.86-4.57-1.55-10.58c-.2-1.82-.3-2.92-.3-3.31a4.14,4.14,0,0,1,.06-.7,2.89,2.89,0,0,1,.24-.74,5.14,5.14,0,0,1,2.69-2,12,12,0,0,1,4.4-.79q2.84,0,3.72,1.11a3,3,0,0,1,.41,1.09q.35,1.47,1.14,7.41c.29,2.13.6,4,.91,5.57q4.54-7,6-9,8-11.42,13.07-14.85a9.52,9.52,0,0,1,5.1-2,4.95,4.95,0,0,1,4.33,3.1,7,7,0,0,1,.12,1.5,1,1,0,0,1-.12.6.54.54,0,0,1-.43.13,2.08,2.08,0,0,1-1.7-.73,4,4,0,0,1-.5-1.82h-.56q-5.24.15-17.58,18.55-3.08,4.56-5.36,8.29a11.53,11.53,0,0,0-1.08,1.93,36.93,36.93,0,0,0,1.79,6.68,41,41,0,0,0,1.87,4.89,27.39,27.39,0,0,0,2.26,3.75c1.71,2.56,2.94,3.84,3.66,3.84a2.49,2.49,0,0,0,.91-.56q3.16-2.72,5-8.32.46-1.43,1.87-6.3a5,5,0,0,1,.47-1.52,1.42,1.42,0,0,1,.66-.42,5.59,5.59,0,0,1,1.66-.16h.43c.3,0,.48.08.56.26a11,11,0,0,1-.23,1.67,67.16,67.16,0,0,1-3.23,10.31,14.46,14.46,0,0,1-2.66,4.28,13.13,13.13,0,0,1-8.06,5.07,15.06,15.06,0,0,1-3.1.29,10.87,10.87,0,0,1-9.64-5c-.26-.39-.59-1-1-1.73a34.14,34.14,0,0,1-1.61-3.29c0-.13,0-.19-.09-.19a36.84,36.84,0,0,0-2.22,3.07q-4,5.28-5,6.55a28.53,28.53,0,0,1-2.24,2.5,14.88,14.88,0,0,1-3.09,2.51A5.78,5.78,0,0,1,875,370Z" transform="translate(232 -211.5)"/><rect class="cls-4" x="967.34" y="119.73" width="66" height="80"/><path class="cls-3" d="M703.72,388.43l17.53,4.62" transform="translate(232 -211.5)"/><path class="cls-3" d="M667.39,378.86l23.54,6.2" transform="translate(232 -211.5)"/><path class="cls-3" d="M643,372.43l12.55,3.3" transform="translate(232 -211.5)"/><path class="cls-3" d="M698.65,300c3.93-.87,7.87-1.71,11.84-2.41" transform="translate(232 -211.5)"/><path class="cls-3" d="M670.41,305.29a145.64,145.64,0,0,0,15.83-2.52" transform="translate(232 -211.5)"/><path class="cls-3" d="M646.3,309.91l12.09-2.32" transform="translate(232 -211.5)"/><path class="cls-3" d="M825.93,393l-9.74,3.14" transform="translate(232 -211.5)"/><path class="cls-3" d="M850.4,385.14q-6.4,2.08-12.81,4.12" transform="translate(232 -211.5)"/><path class="cls-3" d="M875.71,377c-4.33,1.37-8.64,2.77-13,4.17" transform="translate(232 -211.5)"/><path class="cls-3" d="M813.85,292.5l-12.51-3.18" transform="translate(232 -211.5)"/><path class="cls-3" d="M851.21,302l-25.31-6.45" transform="translate(232 -211.5)"/><path class="cls-3" d="M882.21,309.91,864,305.28" transform="translate(232 -211.5)"/><path class="cls-1" d="M-229.07,613.52a1.31,1.31,0,0,1-.53-.2,2.26,2.26,0,0,1-.54-.43,5.38,5.38,0,0,1-.5-.73,2,2,0,0,1-.31-1c0-.92.72-1.72,2.14-2.4a13,13,0,0,1,5.57-1.53h.82l-.06-.58a81.76,81.76,0,0,1-.72-9.6q-.08-4.78-.07-6.46,0-6.27.35-12.51A76.55,76.55,0,0,1-221.25,565a1.75,1.75,0,0,0-.53,0,26.35,26.35,0,0,0-2.81.17,13.06,13.06,0,0,0-5.18,1.44,1.74,1.74,0,0,1-.8.32q-.47,0-1-.93a2.42,2.42,0,0,1-.41-1.21q0-1.23,2.31-2.37a12,12,0,0,1,3.27-1,32.18,32.18,0,0,1,4.88-.28c1.5,0,2.59,0,3.25.06.88.06,2.19.19,3.93.38a76.1,76.1,0,0,0,7.88.56,3.62,3.62,0,0,0,2.55-.68,3.67,3.67,0,0,1,.61-.41,1.92,1.92,0,0,1,.47.33,2.88,2.88,0,0,1,1,2.28,1.83,1.83,0,0,1-1.5,1.91,6.39,6.39,0,0,1-1.81.17q-.85,0-6.1,0l.29.67a5,5,0,0,1,.42,1.88q0,3-.27,6.65-.59,7.38-.58,18.52a87,87,0,0,0,.41,10.31,24.68,24.68,0,0,0,.52,4,.7.7,0,0,0,.44.12,14.77,14.77,0,0,0,1.67-.09,3.32,3.32,0,0,0,2.67-1.46c.17-.28.36-.41.55-.41s.68.24,1,.73a3.38,3.38,0,0,1,.67,2,2.39,2.39,0,0,1-.26.94,3.69,3.69,0,0,1-3,1.93,23.6,23.6,0,0,1-2.75.09c-1.45,0-3.26-.08-5.45-.23-2-.16-3.85-.24-5.63-.24q-6,0-8.17,2.2A.48.48,0,0,1-229.07,613.52Z" transform="translate(232 -211.5)"/><path class="cls-1" d="M-179.79,610.74a9.71,9.71,0,0,1-1.18-.06,8.69,8.69,0,0,1-3.22-1.23q-3.34-1.73-3.34-4.22c0-.51.16-.76.47-.76a4.41,4.41,0,0,1,1.82.35,2.13,2.13,0,0,1,1.46,1.88,1.55,1.55,0,0,0,.47.88,1.32,1.32,0,0,0,1,.52,8.47,8.47,0,0,0,1.17-.17,5.57,5.57,0,0,0,2.52-2.52,9.69,9.69,0,0,0,1.4-5c0-1,0-1.62-.05-1.94a2.09,2.09,0,0,0-.53-1.17.4.4,0,0,0-.29-.12q-1.53,0-7.39,3.23a27.9,27.9,0,0,1-5.1,2.52,11.47,11.47,0,0,1-1.69.11,11,11,0,0,1-7.09-3.45,9.4,9.4,0,0,1-2.52-6.45,24.57,24.57,0,0,1,5.56-13.07,15.14,15.14,0,0,1,8.73-4.86,17.11,17.11,0,0,1,3.58-.29,13,13,0,0,1,5.27.88,11.87,11.87,0,0,1,3.16,2.11,6.08,6.08,0,0,1,1.82,2.69,9.48,9.48,0,0,1,.65,3.69,16.28,16.28,0,0,1-.71,4.34c-.66,2-1.36,2.93-2.11,2.93a2.2,2.2,0,0,1-.88-.26,4.86,4.86,0,0,1-.93-.62.91.91,0,0,1-.41-.64,7.82,7.82,0,0,1,.52-1.76,18.85,18.85,0,0,0,.88-5.28,8.5,8.5,0,0,0-.52-3.1c-.14-.37-.28-.59-.41-.65a7,7,0,0,0-4.81,2.35c-.51.51-1.62,1.83-3.34,4a23.67,23.67,0,0,0-4.86,11.08,8.37,8.37,0,0,0-.09,1l0,.15,5.16-1.7a18.11,18.11,0,0,1,5.39-1.41,6.75,6.75,0,0,1,1.75.18,13.75,13.75,0,0,1,1.64.59c2.62,1.38,3.93,3.71,3.93,7a8.63,8.63,0,0,1-1.46,4.92Q-176.51,610.75-179.79,610.74Z" transform="translate(232 -211.5)"/><path class="cls-1" d="M-160.55,607.19a8.82,8.82,0,0,1-1.58-.14,10.42,10.42,0,0,1-7.67-5.92,16.38,16.38,0,0,1-1.47-6.88,22,22,0,0,1,1.06-6.54q1.94-5.38,5.5-6c.37-.06.59-.22.65-.47.25-.82,1.35-1.23,3.28-1.23a8.23,8.23,0,0,1,5.27,1.7l.47.35q5.63,0,11.25-.12c1,0,1.53.44,1.58,1.32s-.46,1.18-1.17,1.2c-6.4,0-9.61.06-9.61.18a15,15,0,0,1,1.82,7.56,24,24,0,0,1-.65,5.44q-1.23,5.1-3.8,7.5A6.73,6.73,0,0,1-160.55,607.19Zm.38-4.13c.18,0,.58-.29,1.21-.88a13.35,13.35,0,0,0,3.28-6,20,20,0,0,0,.7-5.39,16.81,16.81,0,0,0-.2-3,10.46,10.46,0,0,0-.8-2.31s-.05,0-.05-.06c-.32-.63-.63-1-.94-1a4.69,4.69,0,0,0-.88-.09c-.47,0-.7,0-.7.06l.14.88a16.35,16.35,0,0,1-.38,2.93,57.53,57.53,0,0,0-1.73,11.69,19.16,19.16,0,0,0,.21,2.61C-160.27,602.87-160.22,603.06-160.17,603.06Z" transform="translate(232 -211.5)"/><path class="cls-1" d="M-133.8,613.67a14.3,14.3,0,0,1-8.23-2.58,11.18,11.18,0,0,1-4.5-6,33.45,33.45,0,0,1-1.21-10q.56-15.58,5-24.43a11,11,0,0,1,3.92-5,14.27,14.27,0,0,1,7.68-2.43,9.49,9.49,0,0,1,4.74,1.2q3.58,1.66,3.58,6.47a16.47,16.47,0,0,1-.88,5q-3.57,11.22-8.7,16.35a28.21,28.21,0,0,1-3.81,3.28,54.32,54.32,0,0,0,.82,9.29,22.19,22.19,0,0,0,1.23,3.69c.23.55.38.82.44.82a3.51,3.51,0,0,0,1.43-.85,18.34,18.34,0,0,0,3.7-4.33,46.84,46.84,0,0,0,4.65-10.08c.82-2.62,1.25-4,1.29-4.25s.14-.12.36-.12a5.36,5.36,0,0,1,1,.12l1.22.26a1.24,1.24,0,0,1,.51.18.36.36,0,0,1,.09.26q-.39,1.75-2.43,7.71a62.4,62.4,0,0,1-2.76,6.18c-.92,1.76-1.82,3.32-2.72,4.69Q-130.26,613.67-133.8,613.67Zm-2-23.15a2.66,2.66,0,0,0,.37-.33l.89-.94c.37-.4.71-.81,1-1.22q6.94-11.38,6.95-17.43a13.86,13.86,0,0,0-.09-1.56,9.9,9.9,0,0,0-.23-1.34c-.1-.35-.19-.53-.27-.53s-.52.35-1.14,1a14,14,0,0,0-1.73,3.08c-.39,1.09-1,2.5-1.76,4.22a60.8,60.8,0,0,0-3.51,11.86A23,23,0,0,0-135.76,590.52Z" transform="translate(232 -211.5)"/><path class="cls-1" d="M-94.36,619.06a9.34,9.34,0,0,1-2.93-.53q-7.56-2.34-9.44-14.06a40,40,0,0,1-.29-4.69l-.53.82q-2.28,3.69-4.22,4.34a5.26,5.26,0,0,1-1.61.23,8.79,8.79,0,0,1-3.72-.88q-6-2.89-6-10.51a20.51,20.51,0,0,1,1.55-8.12c1.66-4,3.85-6.39,6.56-7.26a5.94,5.94,0,0,1,2.08-.36,12.71,12.71,0,0,1,6.68,2.29,11.17,11.17,0,0,1,1.49,1.14,3.92,3.92,0,0,0,.88.68l.47-1.23a23.05,23.05,0,0,1,.94-2.58c1.33-3.32,3.12-5,5.39-5a5.66,5.66,0,0,1,2,.41c2.68.9,4,2.63,4,5.21a12.13,12.13,0,0,1-.49,3.22,125,125,0,0,0-3.18,13.26,68.52,68.52,0,0,0-.78,10.88c0,2.09,0,3.58,0,4.46a17.38,17.38,0,0,0,.57,3.48c.11.49.21.74.29.74a5.19,5.19,0,0,0,1.46-1q4.81-4.54,9.26-20.68a9.44,9.44,0,0,1,.93-2.84,3.64,3.64,0,0,1,1.06-.09c1.33,0,2,.15,2,.47a49.59,49.59,0,0,1-1.67,6.88q-3,11.74-7.42,17.93Q-91.29,619.06-94.36,619.06Zm-18.49-17.64a26.17,26.17,0,0,0,5.33-6.06,4.84,4.84,0,0,0,1.06-2c.23-1.66.82-4.43,1.75-8.29a9.84,9.84,0,0,0-.82-1.59,7.91,7.91,0,0,0-2.16-1.87,2.23,2.23,0,0,0-1-.41q-.68,0-1.38,2.61-.78,3-1.46,6.24-.5,2.34-.9,5.62A49.44,49.44,0,0,0-112.85,601.42Z" transform="translate(232 -211.5)"/><path class="cls-1" d="M-72.1,614.69a8.83,8.83,0,0,1-1.32-.08,11.79,11.79,0,0,1-7.2-4.75q-2.82-3.66-2.82-15.44c0-4.43.1-7.63.3-9.58.23-2.5.58-5.6,1-9.32.65-3.88,1.21-6.79,1.7-8.73l.06-.41c0-.07-.27-.15-.82-.23l-7.3-1q-5.79-.73-7.64-.73c-4.14.27-7,1.36-8.59,3.25a1.91,1.91,0,0,1-1.4.56q-1.47,0-1.47-1.32.21-2.43,3.55-4a19.93,19.93,0,0,1,8.11-1.44,109,109,0,0,1,11.25,1.09l5.36.76q1.53-2.85,3.4-3.46a9.2,9.2,0,0,1,1.29-.06c2.81,0,4.71,1.16,5.68,3.49l.18,1.11c1.37.08,2.5.12,3.4.12a57.58,57.58,0,0,0,7.62-.53q9.41-1.41,9.9-4.19a1.67,1.67,0,0,1,1.26-.67q1.14,0,1.14,1.26a4.49,4.49,0,0,1-2.4,3.78,13.18,13.18,0,0,1-3.58,1.64,56.19,56.19,0,0,1-14.82,1.64l-2.23-.06q-.14,1.47-1.46,7.24a142.34,142.34,0,0,0-1.64,14.82l-.06,3a98.18,98.18,0,0,0,1.2,15.41,11.92,11.92,0,0,0,.32,2.28l.24-.11.41-.47A40.24,40.24,0,0,0-64.16,599c.31-.92,1.14-3.11,2.49-6.59a4.82,4.82,0,0,1,.7-1.26,1.36,1.36,0,0,1,.88-.21,1.83,1.83,0,0,1,1.35.47q.12.12.12.18a51.43,51.43,0,0,1-1.61,5.59q-1.32,4.26-3.52,9.5-2.37,5.5-4,6.85a5.12,5.12,0,0,1-3.58,1.12Z" transform="translate(232 -211.5)"/><path class="cls-1" d="M-44.38,626.33a2.65,2.65,0,0,1-1.09-.21q-3.39-1.17-4.92-5.48a7,7,0,0,1-.29-2.28,6.19,6.19,0,0,1,.35-2.38,14.34,14.34,0,0,1,5.86-7c.35-.23.68-.47,1-.7s.73-.52,1.23-.87,1-.67,1.47-1h.06q1.32-.87,1.32-1.08c0-.16-.34-.31-1-.47a0,0,0,0,1,0,0,7.14,7.14,0,0,0-1.82-.2,18.7,18.7,0,0,0-5,.76A8.44,8.44,0,0,0-50.8,607c-1.33,1.43-2.6,2.14-3.81,2.14a5.81,5.81,0,0,1-3-1A7.84,7.84,0,0,1-61.11,604a4.51,4.51,0,0,1-.12-1.2,4.88,4.88,0,0,1,1.29-3c.59-.72,1.46-1.7,2.64-2.93A65.23,65.23,0,0,0-48.63,586a62.75,62.75,0,0,0,3.69-6.38A11.52,11.52,0,0,0-43.36,575c0-1.43-1-2.14-2.93-2.14q-6.15,0-10.37,5.92a19.54,19.54,0,0,0-2.52,8.67c0,1.13.28,1.85.85,2.15a3.44,3.44,0,0,1,1.26,1,1.87,1.87,0,0,1,.41,1q0,1-1.41,1a6,6,0,0,1-3.38-1.3,9.92,9.92,0,0,1-2.94-3.3,6.09,6.09,0,0,1-.88-3.1,15.74,15.74,0,0,1,5.86-12.36,15.81,15.81,0,0,1,8.64-3.67l1.61-.11a16.09,16.09,0,0,1,2.29.19,3.72,3.72,0,0,0,.58.13A10.7,10.7,0,0,1-41,572.74a15.94,15.94,0,0,1,3,5.83,21.55,21.55,0,0,1,1,5.92q0,5.25-6,13.59l-1,1.47c0,.06.08.09.26.09h.23a9,9,0,0,1,2.67.64,8.59,8.59,0,0,1,3.28,2.14l.94,1a35.25,35.25,0,0,0,5.39-6A33.49,33.49,0,0,0-28.3,592a4.22,4.22,0,0,1,.63-1.42,2.24,2.24,0,0,1,1-.13c1.25,0,1.88.15,1.88.47A14.32,14.32,0,0,1-26,594.54a33.29,33.29,0,0,1-7.53,11.13,4.47,4.47,0,0,0-.9,1,17.07,17.07,0,0,1,1,3.6,18,18,0,0,1,.21,3,15.06,15.06,0,0,1-2.49,7.65A13.77,13.77,0,0,1-42,626,13.7,13.7,0,0,1-44.38,626.33Zm-1.2-4.6.76-.14a2,2,0,0,0,.61-.2l.91-.43a12.38,12.38,0,0,0,6.5-8.73,13.75,13.75,0,0,0,.15-2.34c0-.94-.09-1.41-.26-1.41l-1.47,1c-.43.25-.86.54-1.29.85s-.78.56-1,.73A22.74,22.74,0,0,0-46,615.78a7.78,7.78,0,0,0-1.82,4.42,1.7,1.7,0,0,0,.29,1.17,2.32,2.32,0,0,0,1.53.36Z" transform="translate(232 -211.5)"/><path class="cls-1" d="M.47,619.06a9.34,9.34,0,0,1-2.93-.53q-7.56-2.34-9.43-14.06a37.07,37.07,0,0,1-.3-4.69l-.52.82c-1.53,2.46-2.93,3.91-4.22,4.34a5.3,5.3,0,0,1-1.61.23,8.72,8.72,0,0,1-3.72-.88q-6-2.89-6-10.51a20.69,20.69,0,0,1,1.55-8.12c1.66-4,3.85-6.39,6.56-7.26a5.94,5.94,0,0,1,2.08-.36,12.68,12.68,0,0,1,6.68,2.29,11.91,11.91,0,0,1,1.5,1.14,3.69,3.69,0,0,0,.88.68l.47-1.23a22.15,22.15,0,0,1,.93-2.58q2-5,5.39-5a5.71,5.71,0,0,1,2.06.41c2.67.9,4,2.63,4,5.21a12.18,12.18,0,0,1-.5,3.22A125,125,0,0,0,.16,595.46a68.6,68.6,0,0,0-.77,10.88c0,2.09,0,3.58,0,4.46A18.14,18.14,0,0,0,0,614.28c.12.49.22.74.29.74a5.16,5.16,0,0,0,1.47-1q4.8-4.54,9.26-20.68a9.63,9.63,0,0,1,.92-2.84,3.73,3.73,0,0,1,1.07-.09c1.33,0,2,.15,2,.47a49.59,49.59,0,0,1-1.67,6.88q-3,11.74-7.41,17.93Q3.55,619.06.47,619.06ZM-18,601.42a26.16,26.16,0,0,0,5.34-6.06,4.91,4.91,0,0,0,1-2c.23-1.66.82-4.43,1.76-8.29a10.76,10.76,0,0,0-.82-1.59,8,8,0,0,0-2.17-1.87,2.19,2.19,0,0,0-1-.41c-.45,0-.9.87-1.37,2.61q-.79,3-1.47,6.24-.49,2.34-.89,5.62A49.67,49.67,0,0,0-18,601.42Z" transform="translate(232 -211.5)"/><path class="cls-1" d="M22.56,612.15a12.56,12.56,0,0,1-6.33-1.88,11.37,11.37,0,0,1-3.92-3.81c-1.08-1.83-1.62-4.69-1.62-8.55a49.7,49.7,0,0,1,2-13c.54-2.11,1.13-3.44,1.74-4a5.11,5.11,0,0,1,3.35-.83,8.13,8.13,0,0,1,2.52.3q4.36,1.23,4.37,4a24.52,24.52,0,0,1-.85,5.1,51.09,51.09,0,0,0-1.38,10.72q0,1.23.21,3.69a18.8,18.8,0,0,0,.53,3.81,7.92,7.92,0,0,0,.93-.58q4.28-3.17,8.41-16.91c.1-.35.27-.53.53-.53a7.77,7.77,0,0,1,1.38.24c.6.15.9.36.9.61a67.41,67.41,0,0,1-4,12.72A29.34,29.34,0,0,1,29,607.81Q26,612.12,22.56,612.15Zm1.11-34.25a7.18,7.18,0,0,1-4.27-1.34c-1.25-.88-1.88-1.74-1.88-2.56a.78.78,0,0,1,.21-.44,2,2,0,0,1,.79-.5,4.69,4.69,0,0,1,1.29-.29,5.81,5.81,0,0,1,5.5,3,2.31,2.31,0,0,1,.3,1C25.61,577.53,25,577.9,23.67,577.9Z" transform="translate(232 -211.5)"/><path class="cls-1" d="M46.14,613.67a14.3,14.3,0,0,1-8.23-2.58,11.18,11.18,0,0,1-4.5-6,33.45,33.45,0,0,1-1.21-10q.55-15.58,5-24.43a11,11,0,0,1,3.92-5,14.27,14.27,0,0,1,7.68-2.43,9.49,9.49,0,0,1,4.74,1.2q3.59,1.66,3.58,6.47a16.17,16.17,0,0,1-.88,5q-3.57,11.22-8.7,16.35a27.6,27.6,0,0,1-3.81,3.28,54.32,54.32,0,0,0,.82,9.29,22.19,22.19,0,0,0,1.23,3.69c.24.55.38.82.44.82a3.52,3.52,0,0,0,1.44-.85,18.58,18.58,0,0,0,3.69-4.33,47.35,47.35,0,0,0,4.66-10.08c.82-2.62,1.25-4,1.28-4.25s.14-.12.36-.12a5.36,5.36,0,0,1,1,.12l1.22.26a1.24,1.24,0,0,1,.51.18.36.36,0,0,1,.09.26c-.25,1.17-1.07,3.74-2.43,7.71a62.4,62.4,0,0,1-2.76,6.18,52.31,52.31,0,0,1-2.72,4.69Q49.69,613.67,46.14,613.67Zm-2-23.15a2.66,2.66,0,0,0,.37-.33l.89-.94c.37-.4.71-.81,1-1.22q6.93-11.38,6.94-17.43a13.86,13.86,0,0,0-.09-1.56,9.9,9.9,0,0,0-.23-1.34c-.1-.35-.19-.53-.27-.53s-.51.35-1.14,1A14,14,0,0,0,50,571.28c-.39,1.09-1,2.5-1.76,4.22a60.8,60.8,0,0,0-3.51,11.86A24.82,24.82,0,0,0,44.18,590.52Z" transform="translate(232 -211.5)"/><path class="cls-1" d="M69.05,608.07a11.69,11.69,0,0,1-7-2.55,12.66,12.66,0,0,1-3.56-4.68,16.48,16.48,0,0,1-1.68-7.5q0-11.19,5-16.64a20.09,20.09,0,0,1,3.51-2.82,9.12,9.12,0,0,1,3.93-.93,9.49,9.49,0,0,1,4.8,1.4,8.44,8.44,0,0,1,3.64,4.1A6.46,6.46,0,0,1,78,580.3a7.71,7.71,0,0,1-.32,2.26q-2.17,5.79-8.73,10.4a1.28,1.28,0,0,0-.41.38,13.37,13.37,0,0,0-.12,2.72,18.32,18.32,0,0,0,.44,3.63c.41,2,.75,3.39,1,4.31.08.55.24.82.47.82q3,0,8.94-11.4a24.55,24.55,0,0,1,1.73-3,.74.74,0,0,1,.44-.33c1.19.06,1.78.36,1.78.88a19.88,19.88,0,0,1-.82,2q-1.57,3.6-2.4,5.27-3.57,7-6.62,8.85A9.07,9.07,0,0,1,69.05,608.07Zm-.14-18.48.79-.65a18.46,18.46,0,0,0,5-7.38,5.88,5.88,0,0,0,.32-1.93,3.62,3.62,0,0,0-.67-2.52.43.43,0,0,0-.3-.15c-.11,0-.29.19-.52.5a5.63,5.63,0,0,0-1.06,1.46,40.54,40.54,0,0,0-1.73,4.1,45.52,45.52,0,0,0-1.49,4.63A10.83,10.83,0,0,1,69,588.8a1.65,1.65,0,0,0-.1.46.6.6,0,0,1-.06.27S68.89,589.59,68.91,589.59Z" transform="translate(232 -211.5)"/><path class="cls-1" d="M109.25,619.06a9.34,9.34,0,0,1-2.93-.53q-7.56-2.34-9.43-14.06a37.07,37.07,0,0,1-.3-4.69l-.52.82c-1.53,2.46-2.93,3.91-4.22,4.34a5.3,5.3,0,0,1-1.61.23,8.79,8.79,0,0,1-3.73-.88q-6-2.89-6-10.51a20.69,20.69,0,0,1,1.55-8.12c1.66-4,3.85-6.39,6.56-7.26A5.94,5.94,0,0,1,90.7,578a12.71,12.71,0,0,1,6.68,2.29,11.91,11.91,0,0,1,1.5,1.14,3.69,3.69,0,0,0,.88.68l.47-1.23a22.15,22.15,0,0,1,.93-2.58q2-5,5.39-5a5.62,5.62,0,0,1,2,.41c2.68.9,4,2.63,4,5.21a12.18,12.18,0,0,1-.5,3.22,125,125,0,0,0-3.18,13.26,68.6,68.6,0,0,0-.77,10.88c0,2.09,0,3.58,0,4.46a18.14,18.14,0,0,0,.57,3.48c.12.49.22.74.29.74a5.16,5.16,0,0,0,1.47-1q4.8-4.54,9.26-20.68a9.28,9.28,0,0,1,.92-2.84,3.73,3.73,0,0,1,1.07-.09c1.33,0,2,.15,2,.47a49.59,49.59,0,0,1-1.67,6.88q-3,11.74-7.41,17.93Q112.33,619.06,109.25,619.06ZM90.76,601.42a25.94,25.94,0,0,0,5.33-6.06,4.84,4.84,0,0,0,1.06-2c.23-1.66.82-4.43,1.76-8.29a10.76,10.76,0,0,0-.82-1.59,8,8,0,0,0-2.17-1.87,2.19,2.19,0,0,0-1-.41c-.45,0-.9.87-1.37,2.61q-.8,3-1.47,6.24-.49,2.34-.89,5.62A47.53,47.53,0,0,0,90.76,601.42Z" transform="translate(232 -211.5)"/><path class="cls-1" d="M206.16,621.38a10.31,10.31,0,0,1-7.21-3.25,13.27,13.27,0,0,1-3.6-5.78,10.1,10.1,0,0,1-.38-2.84q0-7,6.44-13.65a32.31,32.31,0,0,1,4.72-4.09,33,33,0,0,1,5.48-3c.13-.06.2-.1.2-.12a3.7,3.7,0,0,0-1.08-.06,6.55,6.55,0,0,1-2.32-.35,13,13,0,0,1-4.68-2.75c-2-1.78-2.93-3.61-2.93-5.51a11.35,11.35,0,0,1,1.32-4.72,23.08,23.08,0,0,1,10.34-10.66,10.71,10.71,0,0,1,4.92-1.26,11.89,11.89,0,0,1,6.65,2.23c2.15,1.42,3.27,2.85,3.37,4.27l0,.62q0,4-2,5.86a2.11,2.11,0,0,1-1.17.59,2.77,2.77,0,0,1-1.52-.56,1.2,1.2,0,0,1-.59-.91,1.77,1.77,0,0,1,.15-.64,13,13,0,0,0,1-3.9c0-.23,0-.35-.06-.35a15.47,15.47,0,0,0-3.46,2.2c-.88.62-1.63,1.2-2.26,1.72a21.91,21.91,0,0,0-3.92,4.74,16.18,16.18,0,0,0-2.29,5.49c1.53.13,2.49.21,2.9.23a12.2,12.2,0,0,1,4.52,1.06,7.48,7.48,0,0,1,3.1,5.42,4.06,4.06,0,0,1-.32,1.55,11.68,11.68,0,0,1-2,2.87,20.51,20.51,0,0,1-3.75,3.28A33.32,33.32,0,0,0,204.69,612a13.06,13.06,0,0,0-1.73,4.89,1,1,0,0,0,.21.74,4.54,4.54,0,0,0,2.55.44q1.47,0,2.34,0a13.33,13.33,0,0,0,5.77-2,30.15,30.15,0,0,0,5.45-3.87,34.59,34.59,0,0,0,9.32-11.93,67.35,67.35,0,0,0,3.11-8.78,3.76,3.76,0,0,1,.29-.82,1,1,0,0,1,.73-.24c1.54,0,2.31.29,2.31.82a51.87,51.87,0,0,1-2.13,7.12,39.73,39.73,0,0,1-7.27,12.48,32.29,32.29,0,0,1-12.33,9.11A19.2,19.2,0,0,1,206.16,621.38Z" transform="translate(232 -211.5)"/><path class="cls-1" d="M252.42,617.22a10.28,10.28,0,0,1-4.28-1.12,8.76,8.76,0,0,1-3.75-2.75,13.41,13.41,0,0,1-2.14-5,27.38,27.38,0,0,1-.32-4.66l0-4.19a66.73,66.73,0,0,1,.79-7.29,106,106,0,0,0,1.2-12l-.09-3.58-5-2.05c-.13.9-.39,2.35-.76,4.34q-2.7,12.33-3.38,13.36c-.46.68-.87,1-1.22,1a2.35,2.35,0,0,1-1.1-.29,2.1,2.1,0,0,1-.69-.48.89.89,0,0,1-.11-.43l0-.29q3.72-17,3.72-19.22a.81.81,0,0,0-.24-.59v-.05a3.94,3.94,0,0,1-1-2.58,2.58,2.58,0,0,1,1-2.17,2.25,2.25,0,0,1,1.41-.41,5.84,5.84,0,0,1,3.05.82,5.93,5.93,0,0,1,1.87,2.58,6.33,6.33,0,0,0,.94,1.64,20.71,20.71,0,0,0,4,1.76,17,17,0,0,1,6.8,3.92,6.72,6.72,0,0,1,1.79,2.76,13.42,13.42,0,0,1,.49,4q0,2.22-1,10.19-.83,5.89-.94,8.09-.06,1.17-.06,2.7c0,.89,0,1.84.09,2.84s.14,1.86.23,2.6.19,1.12.27,1.12l1-1.35q1.77-2.43,5.54-12.25c.92-2.55,1.48-4.14,1.69-4.74s.38-1.11.54-1.5.32-.6.5-.63a2,2,0,0,1,.64,0,15.87,15.87,0,0,1,1.67.44c.31.1.45.25.41.47q-.21,2.19-3.05,10.34Q258.4,616,254.76,617A16.15,16.15,0,0,1,252.42,617.22Z" transform="translate(232 -211.5)"/><path class="cls-1" d="M294,606.82a8.61,8.61,0,0,1-4.22-1.06,14.93,14.93,0,0,1-6.68-7.15l-.82-1.64a8.09,8.09,0,0,0-1,1.76,23.19,23.19,0,0,1-2.7,4.1,5.4,5.4,0,0,1-4.19,1.91,9.79,9.79,0,0,1-3.19-.62q-6.74-2.52-8.38-10.49a18.2,18.2,0,0,1-.26-3.13,18.76,18.76,0,0,1,.9-5.71q2.85-8.85,10.84-8.85a20.13,20.13,0,0,1,5.51,1l1.53.44c.07,0,.21-.37.41-1.11a31.86,31.86,0,0,1,6.73-13.3,9.23,9.23,0,0,1,6.92-3.46,7.79,7.79,0,0,1,4.77,1.55,5.72,5.72,0,0,1,1.88,2.14,7,7,0,0,1,.5,2.82,13.73,13.73,0,0,1-1.7,6.32,19.76,19.76,0,0,1-7,7.86l-1.41,1c-.2,1.49-.37,3.2-.53,5.13q-.17,2.13-.17,6.47a43.56,43.56,0,0,0,.23,6.21,15.56,15.56,0,0,0,1.29,4.87q2.49-.36,5.89-4.75a20.54,20.54,0,0,0,2.9-5.59l.85-2.58a.75.75,0,0,1,.64-.24l.44,0a3.6,3.6,0,0,1,2,.82l0,.09a28.59,28.59,0,0,1-1.55,4.6q-2.64,6.51-6.8,9.35A6.22,6.22,0,0,1,294,606.82Zm-20.16-6.15.82-.62q2.79-2.09,5.45-7.3l.82-1.64c-.11-1.23-.17-2.29-.17-3.19v-6.65a1.68,1.68,0,0,0-.65-.41q-2.4,0-4.33,4.28a23.63,23.63,0,0,0-2.29,10.69A24.71,24.71,0,0,0,273.83,600.67Zm19.34-24.09c.19,0,.55-.31,1.05-.93a15.63,15.63,0,0,0,4.46-7.74,13.65,13.65,0,0,0,.17-2.75,4.05,4.05,0,0,0-.17-1.35,8.2,8.2,0,0,0-2.76,3.46,63,63,0,0,0-2.28,7A11.94,11.94,0,0,0,293.17,576.58Z" transform="translate(232 -211.5)"/><path class="cls-1" d="M313.68,613.15a12.56,12.56,0,0,1-6.33-1.88,11.49,11.49,0,0,1-3.93-3.81c-1.07-1.83-1.61-4.69-1.61-8.55a49.7,49.7,0,0,1,2-13c.54-2.11,1.12-3.44,1.74-4a5.09,5.09,0,0,1,3.35-.83,8.13,8.13,0,0,1,2.52.3q4.37,1.23,4.37,4a25.23,25.23,0,0,1-.85,5.1,51.09,51.09,0,0,0-1.38,10.72q0,1.23.21,3.69a19.87,19.87,0,0,0,.52,3.81,6.71,6.71,0,0,0,.94-.58q4.28-3.17,8.41-16.91c.1-.35.27-.53.53-.53a7.56,7.56,0,0,1,1.37.24c.61.15.91.36.91.61a67.41,67.41,0,0,1-4,12.72,28.39,28.39,0,0,1-2.35,4.51Q317.14,613.12,313.68,613.15Zm1.11-34.25a7.21,7.21,0,0,1-4.28-1.34c-1.25-.88-1.87-1.74-1.87-2.56a.83.83,0,0,1,.2-.44,2,2,0,0,1,.79-.5,4.86,4.86,0,0,1,1.29-.29,5.82,5.82,0,0,1,5.51,3,2.28,2.28,0,0,1,.29,1C316.72,578.53,316.08,578.9,314.79,578.9Z" transform="translate(232 -211.5)"/><path class="cls-1" d="M335.45,609.07a11.7,11.7,0,0,1-7-2.55,12.77,12.77,0,0,1-3.56-4.68,16.48,16.48,0,0,1-1.68-7.5q0-11.19,5-16.64a20.09,20.09,0,0,1,3.51-2.82,9.12,9.12,0,0,1,3.93-.93,9.49,9.49,0,0,1,4.8,1.4,8.44,8.44,0,0,1,3.64,4.1,6.46,6.46,0,0,1,.26,1.85,7.71,7.71,0,0,1-.32,2.26q-2.18,5.79-8.73,10.4a1.39,1.39,0,0,0-.41.38,13.37,13.37,0,0,0-.12,2.72,18.32,18.32,0,0,0,.44,3.63c.41,2,.75,3.39,1,4.31.07.55.23.82.46.82q3,0,8.94-11.4a26.06,26.06,0,0,1,1.73-3,.74.74,0,0,1,.44-.33c1.19.06,1.79.36,1.79.88a21.84,21.84,0,0,1-.83,2q-1.57,3.6-2.4,5.27-3.57,7-6.62,8.85A9.05,9.05,0,0,1,335.45,609.07Zm-.15-18.48.79-.65a18.46,18.46,0,0,0,5-7.38,5.88,5.88,0,0,0,.32-1.93,3.57,3.57,0,0,0-.67-2.52.43.43,0,0,0-.3-.15c-.11,0-.29.19-.52.5a5.87,5.87,0,0,0-1.06,1.46,40.54,40.54,0,0,0-1.73,4.1,45.52,45.52,0,0,0-1.49,4.63,10.83,10.83,0,0,1-.25,1.15,1.65,1.65,0,0,0-.1.46.6.6,0,0,1-.06.27S335.28,590.59,335.3,590.59Z" transform="translate(232 -211.5)"/><path class="cls-1" d="M368,617.22a10.24,10.24,0,0,1-4.27-1.12,8.7,8.7,0,0,1-3.75-2.75,13.25,13.25,0,0,1-2.14-5,26.38,26.38,0,0,1-.32-4.66l0-4.19a64.27,64.27,0,0,1,.79-7.29,106,106,0,0,0,1.2-12l-.09-3.58-5-2.05c-.14.9-.39,2.35-.76,4.34q-2.7,12.33-3.39,13.36c-.46.68-.86,1-1.21,1A2.35,2.35,0,0,1,348,593a2.1,2.1,0,0,1-.69-.48.8.8,0,0,1-.12-.43l0-.29q3.72-17,3.72-19.22a.8.8,0,0,0-.23-.59v-.05a3.9,3.9,0,0,1-1-2.58,2.56,2.56,0,0,1,1-2.17,2.25,2.25,0,0,1,1.41-.41,4.77,4.77,0,0,1,4.92,3.4,6.71,6.71,0,0,0,.93,1.64,20.61,20.61,0,0,0,4,1.76,17.07,17.07,0,0,1,6.8,3.92,6.59,6.59,0,0,1,1.78,2.76,13.07,13.07,0,0,1,.5,4q0,2.22-1,10.19-.81,5.89-.93,8.09-.06,1.17-.06,2.7c0,.89,0,1.84.09,2.84s.13,1.86.23,2.6.19,1.12.26,1.12l1-1.35q1.75-2.43,5.54-12.25c.92-2.55,1.48-4.14,1.68-4.74s.39-1.11.54-1.5.33-.6.5-.63a2.08,2.08,0,0,1,.65,0,16.54,16.54,0,0,1,1.67.44c.31.1.45.25.41.47q-.21,2.19-3,10.34Q374,616,370.34,617A16.36,16.36,0,0,1,368,617.22Z" transform="translate(232 -211.5)"/><path class="cls-1" d="M388.12,608.19a8.74,8.74,0,0,1-1.58-.14,10.42,10.42,0,0,1-7.68-5.92,16.53,16.53,0,0,1-1.46-6.88,22.33,22.33,0,0,1,1.05-6.54q1.94-5.38,5.51-6c.37-.06.59-.22.65-.47.25-.82,1.34-1.23,3.28-1.23a8.25,8.25,0,0,1,5.27,1.7l.47.35q5.63,0,11.25-.12c1,0,1.52.44,1.58,1.32s-.47,1.18-1.17,1.2q-9.62,0-9.61.18a15,15,0,0,1,1.82,7.56,24,24,0,0,1-.65,5.44q-1.23,5.1-3.81,7.5A6.69,6.69,0,0,1,388.12,608.19Zm.38-4.13c.18,0,.58-.29,1.2-.88a13.16,13.16,0,0,0,3.28-6,20,20,0,0,0,.71-5.39,15.72,15.72,0,0,0-.21-3,10.38,10.38,0,0,0-.79-2.31.05.05,0,0,1-.06-.06c-.31-.63-.62-1-.93-1a4.78,4.78,0,0,0-.88-.09c-.47,0-.71,0-.71.06l.15.88a17.34,17.34,0,0,1-.38,2.93,57.53,57.53,0,0,0-1.73,11.69,19.16,19.16,0,0,0,.21,2.61C388.39,603.87,388.44,604.06,388.5,604.06Z" transform="translate(232 -211.5)"/><path class="cls-1" d="M429.58,620.06a9.34,9.34,0,0,1-2.93-.53q-7.56-2.34-9.44-14.06a40,40,0,0,1-.29-4.69l-.53.82q-2.28,3.69-4.22,4.34a5.21,5.21,0,0,1-1.61.23,8.79,8.79,0,0,1-3.72-.88q-6-2.89-6-10.51a20.51,20.51,0,0,1,1.55-8.12c1.66-4,3.85-6.39,6.56-7.26A5.94,5.94,0,0,1,411,579a12.71,12.71,0,0,1,6.68,2.29,11.91,11.91,0,0,1,1.5,1.14,3.76,3.76,0,0,0,.87.68l.47-1.23a23.05,23.05,0,0,1,.94-2.58q2-5,5.39-5a5.62,5.62,0,0,1,2.05.41c2.68.9,4,2.63,4,5.21a12.18,12.18,0,0,1-.5,3.22,125,125,0,0,0-3.18,13.26,68.52,68.52,0,0,0-.78,10.88c0,2.09,0,3.58.05,4.46a18.14,18.14,0,0,0,.57,3.48c.11.49.21.74.29.74a5.31,5.31,0,0,0,1.47-1q4.8-4.54,9.25-20.68a9.44,9.44,0,0,1,.93-2.84,3.68,3.68,0,0,1,1.07-.09c1.32,0,2,.15,2,.47a49.59,49.59,0,0,1-1.67,6.88q-3,11.74-7.41,17.93C433.44,618.93,431.63,620.06,429.58,620.06Zm-18.49-17.64a26.17,26.17,0,0,0,5.33-6.06,4.84,4.84,0,0,0,1.06-2c.23-1.66.82-4.43,1.75-8.29a9.84,9.84,0,0,0-.82-1.59,7.76,7.76,0,0,0-2.16-1.87,2.19,2.19,0,0,0-1-.41q-.68,0-1.38,2.61-.78,3-1.46,6.24-.5,2.34-.89,5.62A47.53,47.53,0,0,0,411.09,602.42Z" transform="translate(232 -211.5)"/><path class="cls-1" d="M454.36,614.67a14.3,14.3,0,0,1-8.23-2.58,11.18,11.18,0,0,1-4.5-6,33.45,33.45,0,0,1-1.21-10q.56-15.58,5-24.43a11,11,0,0,1,3.92-5,14.27,14.27,0,0,1,7.68-2.43,9.52,9.52,0,0,1,4.74,1.2q3.58,1.66,3.58,6.47a16.47,16.47,0,0,1-.88,5q-3.57,11.22-8.7,16.35a28.84,28.84,0,0,1-3.81,3.28,54.32,54.32,0,0,0,.82,9.29,22.19,22.19,0,0,0,1.23,3.69c.23.55.38.82.44.82a3.51,3.51,0,0,0,1.43-.85,18.34,18.34,0,0,0,3.7-4.33,46.84,46.84,0,0,0,4.65-10.08c.82-2.62,1.25-4,1.29-4.25s.14-.12.35-.12a5.35,5.35,0,0,1,1,.12l1.22.26a1.24,1.24,0,0,1,.51.18.36.36,0,0,1,.09.26q-.39,1.75-2.43,7.71a62.4,62.4,0,0,1-2.76,6.18c-.92,1.76-1.82,3.32-2.72,4.69Q457.9,614.67,454.36,614.67Zm-2-23.15a2.34,2.34,0,0,0,.36-.33c.23-.23.53-.54.9-.94s.71-.81,1-1.22q6.94-11.38,6.95-17.43a13.86,13.86,0,0,0-.09-1.56,8.41,8.41,0,0,0-.24-1.34c-.09-.35-.18-.53-.26-.53s-.52.35-1.14,1a14,14,0,0,0-1.73,3.08c-.39,1.09-1,2.5-1.76,4.22a60.8,60.8,0,0,0-3.51,11.86A23,23,0,0,0,452.4,591.52Z" transform="translate(232 -211.5)"/><path class="cls-1" d="M477.27,609.07a11.67,11.67,0,0,1-7-2.55,12.66,12.66,0,0,1-3.56-4.68,16.48,16.48,0,0,1-1.69-7.5q0-11.19,5-16.64a20.54,20.54,0,0,1,3.52-2.82,9.12,9.12,0,0,1,3.93-.93,9.49,9.49,0,0,1,4.8,1.4,8.41,8.41,0,0,1,3.63,4.1,6.13,6.13,0,0,1,.27,1.85,7.39,7.39,0,0,1-.33,2.26q-2.16,5.79-8.73,10.4a1.54,1.54,0,0,0-.41.38,14.93,14.93,0,0,0-.11,2.72,17.6,17.6,0,0,0,.44,3.63c.41,2,.75,3.39,1,4.31.08.55.24.82.47.82q3,0,8.94-11.4a26.68,26.68,0,0,1,1.72-3,.8.8,0,0,1,.44-.33c1.2.06,1.79.36,1.79.88a19.88,19.88,0,0,1-.82,2q-1.58,3.6-2.4,5.27-3.57,7-6.62,8.85A9.07,9.07,0,0,1,477.27,609.07Zm-.14-18.48.79-.65a18.46,18.46,0,0,0,5-7.38,5.88,5.88,0,0,0,.32-1.93,3.57,3.57,0,0,0-.68-2.52.4.4,0,0,0-.29-.15c-.12,0-.29.19-.53.5a5.59,5.59,0,0,0-1,1.46A38.33,38.33,0,0,0,479,584a45.52,45.52,0,0,0-1.49,4.63,10.83,10.83,0,0,1-.25,1.15,1.78,1.78,0,0,0-.11.46.76.76,0,0,1,0,.27S477.11,590.59,477.13,590.59Z" transform="translate(232 -211.5)"/><path class="cls-1" d="M517.47,620.06a9.34,9.34,0,0,1-2.93-.53q-7.56-2.34-9.44-14.06a40,40,0,0,1-.29-4.69l-.53.82q-2.28,3.69-4.22,4.34a5.21,5.21,0,0,1-1.61.23,8.79,8.79,0,0,1-3.72-.88q-6-2.89-6-10.51a20.51,20.51,0,0,1,1.55-8.12c1.66-4,3.85-6.39,6.56-7.26a5.94,5.94,0,0,1,2.08-.36,12.71,12.71,0,0,1,6.68,2.29,11.91,11.91,0,0,1,1.5,1.14,3.76,3.76,0,0,0,.87.68l.47-1.23a23.05,23.05,0,0,1,.94-2.58q2-5,5.39-5a5.62,5.62,0,0,1,2.05.41c2.68.9,4,2.63,4,5.21a12.18,12.18,0,0,1-.5,3.22,125,125,0,0,0-3.18,13.26,68.52,68.52,0,0,0-.78,10.88c0,2.09,0,3.58,0,4.46a18.14,18.14,0,0,0,.57,3.48c.12.49.21.74.29.74a5.16,5.16,0,0,0,1.47-1q4.8-4.54,9.25-20.68a9.44,9.44,0,0,1,.93-2.84,3.68,3.68,0,0,1,1.07-.09c1.32,0,2,.15,2,.47a49.59,49.59,0,0,1-1.67,6.88q-3,11.74-7.41,17.93C521.33,618.93,519.52,620.06,517.47,620.06ZM499,602.42a26.17,26.17,0,0,0,5.33-6.06,4.84,4.84,0,0,0,1.06-2c.23-1.66.82-4.43,1.76-8.29a10.48,10.48,0,0,0-.83-1.59,7.76,7.76,0,0,0-2.16-1.87,2.19,2.19,0,0,0-1-.41q-.67,0-1.38,2.61-.78,3-1.46,6.24-.5,2.34-.89,5.62A47.53,47.53,0,0,0,499,602.42Z" transform="translate(232 -211.5)"/><path class="cls-1" d="M656.61,621.38a10.29,10.29,0,0,1-7.21-3.25,13.27,13.27,0,0,1-3.6-5.78,10.1,10.1,0,0,1-.38-2.84q0-7,6.44-13.65a31.8,31.8,0,0,1,4.72-4.09,32.56,32.56,0,0,1,5.48-3c.13-.06.2-.1.2-.12a3.7,3.7,0,0,0-1.08-.06,6.55,6.55,0,0,1-2.32-.35,13.09,13.09,0,0,1-4.69-2.75c-1.95-1.78-2.92-3.61-2.92-5.51a11.31,11.31,0,0,1,1.31-4.72,23.14,23.14,0,0,1,10.35-10.66,10.71,10.71,0,0,1,4.92-1.26,11.92,11.92,0,0,1,6.65,2.23c2.15,1.42,3.27,2.85,3.37,4.27l0,.62q0,4-2,5.86a2.11,2.11,0,0,1-1.17.59,2.75,2.75,0,0,1-1.52-.56,1.2,1.2,0,0,1-.59-.91,1.77,1.77,0,0,1,.15-.64,12.94,12.94,0,0,0,1-3.9c0-.23,0-.35,0-.35a15.47,15.47,0,0,0-3.46,2.2c-.88.62-1.63,1.2-2.26,1.72a21.91,21.91,0,0,0-3.92,4.74,16,16,0,0,0-2.29,5.49c1.52.13,2.49.21,2.9.23a12.09,12.09,0,0,1,4.51,1.06,6.32,6.32,0,0,1,1.88,1.93,6.45,6.45,0,0,1,1.23,3.49A4.06,4.06,0,0,1,672,593a11.77,11.77,0,0,1-2,2.87,20.17,20.17,0,0,1-3.75,3.28A33.29,33.29,0,0,0,655.14,612a13.06,13.06,0,0,0-1.73,4.89,1,1,0,0,0,.21.74,4.54,4.54,0,0,0,2.55.44q1.46,0,2.34,0a13.37,13.37,0,0,0,5.77-2,30.15,30.15,0,0,0,5.45-3.87,34.72,34.72,0,0,0,9.32-11.93,67.14,67.14,0,0,0,3.1-8.78,4.28,4.28,0,0,1,.3-.82,1,1,0,0,1,.73-.24c1.54,0,2.31.29,2.31.82a51.85,51.85,0,0,1-2.14,7.12,39.51,39.51,0,0,1-7.26,12.48,32.32,32.32,0,0,1-12.34,9.11A19.12,19.12,0,0,1,656.61,621.38Z" transform="translate(232 -211.5)"/><path class="cls-1" d="M702.87,617.22a10.28,10.28,0,0,1-4.28-1.12,8.7,8.7,0,0,1-3.75-2.75,13.41,13.41,0,0,1-2.14-5,26.38,26.38,0,0,1-.32-4.66l0-4.19a66.73,66.73,0,0,1,.79-7.29,106,106,0,0,0,1.2-12l-.09-3.58-5-2.05c-.14.9-.39,2.35-.76,4.34q-2.7,12.33-3.38,13.36c-.46.68-.87,1-1.22,1a2.35,2.35,0,0,1-1.1-.29,2.1,2.1,0,0,1-.69-.48.79.79,0,0,1-.11-.43l0-.29q3.72-17,3.73-19.22a.81.81,0,0,0-.24-.59v-.05a4,4,0,0,1-1-2.58,2.58,2.58,0,0,1,1-2.17,2.25,2.25,0,0,1,1.41-.41,5.78,5.78,0,0,1,3,.82,5.86,5.86,0,0,1,1.88,2.58,6.33,6.33,0,0,0,.94,1.64,20.39,20.39,0,0,0,4,1.76,17.07,17.07,0,0,1,6.8,3.92,6.72,6.72,0,0,1,1.79,2.76,13.42,13.42,0,0,1,.49,4q0,2.22-1,10.19-.82,5.89-.94,8.09-.06,1.17-.06,2.7c0,.89,0,1.84.09,2.84s.13,1.86.23,2.6.19,1.12.27,1.12l1-1.35q1.76-2.43,5.54-12.25c.92-2.55,1.48-4.14,1.68-4.74s.39-1.11.55-1.5.32-.6.49-.63a2.08,2.08,0,0,1,.65,0,15.87,15.87,0,0,1,1.67.44c.31.1.45.25.41.47q-.21,2.19-3,10.34Q708.84,616,705.21,617A16.15,16.15,0,0,1,702.87,617.22Z" transform="translate(232 -211.5)"/><path class="cls-1" d="M723,608.19a8.74,8.74,0,0,1-1.58-.14,10.41,10.41,0,0,1-7.67-5.92,16.38,16.38,0,0,1-1.47-6.88,22,22,0,0,1,1.06-6.54c1.28-3.59,3.12-5.6,5.5-6,.37-.06.59-.22.65-.47.25-.82,1.35-1.23,3.28-1.23a8.23,8.23,0,0,1,5.27,1.7l.47.35q5.63,0,11.25-.12c1,0,1.52.44,1.58,1.32s-.47,1.18-1.17,1.2q-9.61,0-9.61.18a15,15,0,0,1,1.82,7.56,24,24,0,0,1-.65,5.44q-1.23,5.1-3.8,7.5A6.73,6.73,0,0,1,723,608.19Zm.38-4.13c.18,0,.58-.29,1.21-.88a13.35,13.35,0,0,0,3.28-6,20,20,0,0,0,.7-5.39,15.72,15.72,0,0,0-.21-3,10.38,10.38,0,0,0-.79-2.31.05.05,0,0,1-.06-.06c-.31-.63-.62-1-.93-1a4.78,4.78,0,0,0-.88-.09c-.47,0-.7,0-.7.06l.14.88a17.34,17.34,0,0,1-.38,2.93A57.53,57.53,0,0,0,723,600.87a19.16,19.16,0,0,0,.21,2.61C723.27,603.87,723.32,604.06,723.37,604.06Z" transform="translate(232 -211.5)"/><path class="cls-1" d="M764.45,620.06a9.34,9.34,0,0,1-2.93-.53q-7.56-2.34-9.44-14.06a40,40,0,0,1-.29-4.69l-.53.82c-1.52,2.46-2.93,3.91-4.21,4.34a5.32,5.32,0,0,1-1.62.23,8.79,8.79,0,0,1-3.72-.88q-6-2.89-6-10.51a20.51,20.51,0,0,1,1.55-8.12c1.66-4,3.85-6.39,6.56-7.26a5.94,5.94,0,0,1,2.08-.36,12.71,12.71,0,0,1,6.68,2.29,11.91,11.91,0,0,1,1.5,1.14,3.48,3.48,0,0,0,.88.68l.46-1.23a25.47,25.47,0,0,1,.94-2.58q2-5,5.39-5a5.62,5.62,0,0,1,2,.41c2.68.9,4,2.63,4,5.21a12.18,12.18,0,0,1-.5,3.22,125,125,0,0,0-3.18,13.26,68.52,68.52,0,0,0-.78,10.88c0,2.09,0,3.58,0,4.46a18.14,18.14,0,0,0,.57,3.48c.12.49.21.74.29.74a5.16,5.16,0,0,0,1.47-1q4.8-4.54,9.26-20.68a9.28,9.28,0,0,1,.92-2.84,3.68,3.68,0,0,1,1.07-.09c1.33,0,2,.15,2,.47a49.59,49.59,0,0,1-1.67,6.88q-3,11.74-7.41,17.93Q767.53,620.06,764.45,620.06ZM746,602.42a26.17,26.17,0,0,0,5.33-6.06,4.84,4.84,0,0,0,1.06-2c.23-1.66.82-4.43,1.76-8.29a10.76,10.76,0,0,0-.82-1.59,8,8,0,0,0-2.17-1.87,2.19,2.19,0,0,0-1-.41c-.45,0-.91.87-1.37,2.61q-.79,3-1.47,6.24-.5,2.34-.89,5.62A47.53,47.53,0,0,0,746,602.42Z" transform="translate(232 -211.5)"/><path class="cls-1" d="M789.23,614.67a14.3,14.3,0,0,1-8.23-2.58,11.18,11.18,0,0,1-4.5-6,33.45,33.45,0,0,1-1.21-10q.56-15.58,5-24.43a11,11,0,0,1,3.92-5,14.27,14.27,0,0,1,7.68-2.43,9.49,9.49,0,0,1,4.74,1.2q3.58,1.66,3.58,6.47a16.17,16.17,0,0,1-.88,5q-3.57,11.22-8.7,16.35a27.6,27.6,0,0,1-3.81,3.28,54.32,54.32,0,0,0,.82,9.29,22.19,22.19,0,0,0,1.23,3.69c.24.55.38.82.44.82a3.58,3.58,0,0,0,1.44-.85,18.58,18.58,0,0,0,3.69-4.33,47.35,47.35,0,0,0,4.66-10.08c.82-2.62,1.24-4,1.28-4.25s.14-.12.36-.12a5.36,5.36,0,0,1,1,.12l1.22.26a1.24,1.24,0,0,1,.51.18.36.36,0,0,1,.09.26c-.25,1.17-1.07,3.74-2.43,7.71a62.4,62.4,0,0,1-2.76,6.18,52.31,52.31,0,0,1-2.72,4.69C793.73,613.17,791.6,614.67,789.23,614.67Zm-2-23.15a2.66,2.66,0,0,0,.37-.33l.89-.94c.37-.4.71-.81,1-1.22q6.93-11.38,6.94-17.43a13.86,13.86,0,0,0-.09-1.56,9.9,9.9,0,0,0-.23-1.34c-.1-.35-.19-.53-.27-.53s-.51.35-1.14,1a14,14,0,0,0-1.73,3.08c-.39,1.09-1,2.5-1.76,4.22a60.8,60.8,0,0,0-3.51,11.86A24.82,24.82,0,0,0,787.27,591.52Z" transform="translate(232 -211.5)"/><path class="cls-1" d="M812.14,609.07a11.67,11.67,0,0,1-7-2.55,12.66,12.66,0,0,1-3.56-4.68,16.48,16.48,0,0,1-1.68-7.5q0-11.19,5-16.64a20.09,20.09,0,0,1,3.51-2.82,9.12,9.12,0,0,1,3.93-.93,9.49,9.49,0,0,1,4.8,1.4,8.44,8.44,0,0,1,3.64,4.1,6.46,6.46,0,0,1,.26,1.85,7.71,7.71,0,0,1-.32,2.26q-2.18,5.79-8.73,10.4a1.28,1.28,0,0,0-.41.38,13.37,13.37,0,0,0-.12,2.72,18.32,18.32,0,0,0,.44,3.63c.41,2,.75,3.39,1,4.31.08.55.24.82.47.82q3,0,8.94-11.4a24.55,24.55,0,0,1,1.73-3,.74.74,0,0,1,.44-.33c1.19.06,1.78.36,1.78.88a19.88,19.88,0,0,1-.82,2q-1.57,3.6-2.4,5.27-3.57,7-6.62,8.85A9.07,9.07,0,0,1,812.14,609.07ZM812,590.59l.79-.65a18.46,18.46,0,0,0,5-7.38,5.88,5.88,0,0,0,.32-1.93,3.62,3.62,0,0,0-.67-2.52.43.43,0,0,0-.3-.15c-.11,0-.29.19-.52.5a5.63,5.63,0,0,0-1.06,1.46,40.54,40.54,0,0,0-1.73,4.1,45.52,45.52,0,0,0-1.49,4.63,10.83,10.83,0,0,1-.25,1.15,1.65,1.65,0,0,0-.1.46.6.6,0,0,1-.06.27S812,590.59,812,590.59Z" transform="translate(232 -211.5)"/><path class="cls-1" d="M852.34,620.06a9.34,9.34,0,0,1-2.93-.53q-7.56-2.34-9.43-14.06a37.07,37.07,0,0,1-.3-4.69l-.52.82c-1.53,2.46-2.93,3.91-4.22,4.34a5.3,5.3,0,0,1-1.61.23,8.79,8.79,0,0,1-3.73-.88q-6-2.89-6-10.51a20.69,20.69,0,0,1,1.55-8.12c1.66-4,3.85-6.39,6.56-7.26a5.94,5.94,0,0,1,2.08-.36,12.71,12.71,0,0,1,6.68,2.29,11.91,11.91,0,0,1,1.5,1.14,3.69,3.69,0,0,0,.88.68l.47-1.23a22.15,22.15,0,0,1,.93-2.58q2-5,5.39-5a5.62,5.62,0,0,1,2.05.41c2.68.9,4,2.63,4,5.21a12.18,12.18,0,0,1-.5,3.22A125,125,0,0,0,852,596.46a68.52,68.52,0,0,0-.78,10.88c0,2.09,0,3.58,0,4.46a18.14,18.14,0,0,0,.57,3.48c.12.49.21.74.29.74a5.16,5.16,0,0,0,1.47-1q4.8-4.54,9.26-20.68a9.28,9.28,0,0,1,.92-2.84,3.73,3.73,0,0,1,1.07-.09c1.33,0,2,.15,2,.47a49.59,49.59,0,0,1-1.67,6.88q-3,11.74-7.41,17.93Q855.42,620.06,852.34,620.06Zm-18.49-17.64a25.94,25.94,0,0,0,5.33-6.06,4.84,4.84,0,0,0,1.06-2c.23-1.66.82-4.43,1.76-8.29a10.76,10.76,0,0,0-.82-1.59,8,8,0,0,0-2.17-1.87,2.19,2.19,0,0,0-1-.41c-.45,0-.9.87-1.37,2.61q-.79,3-1.47,6.24-.5,2.34-.89,5.62A47.53,47.53,0,0,0,833.85,602.42Z" transform="translate(232 -211.5)"/></svg>