<svg id="Capa_1" data-name="Capa 1" xmlns="http://www.w3.org/2000/svg" viewBox="0 0 467.58 74.56"><defs><style>.cls-1{fill:#ef7d53;}.cls-2{fill:none;stroke:#ef7d53;stroke-miterlimit:10;stroke-width:2px;}</style></defs><title>energia askea</title><path class="cls-1" d="M16.48,347.13v-.75L22.61,331h1.73l4.95,15.43v.75Zm2.07-1.87h8.16L23,333.54Z" transform="translate(-16.48 -301.3)"/><path class="cls-1" d="M42.81,347.07l-.91.25L41,346.4a5.89,5.89,0,0,1-1.59.7,7.83,7.83,0,0,1-1.91.22,5.19,5.19,0,0,1-4.47-2q-1.5-2-1.5-6a11,11,0,0,1,.82-4.38,6.51,6.51,0,0,1,2.36-2.9,6.36,6.36,0,0,1,3.61-1,18,18,0,0,1,2.1.12,17.29,17.29,0,0,1,2.23.43v3.22H41.53a5.54,5.54,0,0,0-.75-1.65,2.5,2.5,0,0,0-1-.84,4,4,0,0,0-1.53-.25,3.33,3.33,0,0,0-2.24.82,5.34,5.34,0,0,0-1.5,2.42,12.41,12.41,0,0,0-.53,3.86A15,15,0,0,0,34.4,343a5.17,5.17,0,0,0,1.34,2.45,3.14,3.14,0,0,0,2.2.83,3,3,0,0,0,2.05-.61,2.39,2.39,0,0,0,.66-1.85v-.71a6.94,6.94,0,0,0-.11-1.52,1.36,1.36,0,0,0-.39-.73,2.26,2.26,0,0,0-.92-.42v-.57H44v.57a1.84,1.84,0,0,0-.63.32,1.25,1.25,0,0,0-.33.45,2.67,2.67,0,0,0-.15.67,10.71,10.71,0,0,0,0,1.12Z" transform="translate(-16.48 -301.3)"/><path class="cls-1" d="M51.58,338.66V337H62v1.63Zm0,4.86v-1.63H62v1.63Z" transform="translate(-16.48 -301.3)"/><path class="cls-1" d="M69.3,347.13v-.75L75.42,331h1.74l4.94,15.43v.75Zm2.07-1.87h8.16l-3.7-11.72Z" transform="translate(-16.48 -301.3)"/><path class="cls-1" d="M96.68,344.2a8.77,8.77,0,0,0,0,1,2.21,2.21,0,0,0,.11.55,1.7,1.7,0,0,0,.2.33,1,1,0,0,0,.34.23,3.84,3.84,0,0,0,.67.23v.57H93.13v-.57a2.44,2.44,0,0,0,.9-.37,1,1,0,0,0,.36-.61,6.31,6.31,0,0,0,.1-1.38v-4.91H88v4.91a8.21,8.21,0,0,0,0,1.15,1.54,1.54,0,0,0,.17.57,1,1,0,0,0,.37.35,3.23,3.23,0,0,0,.78.29v.57H84.41v-.57a2.55,2.55,0,0,0,1-.42,1.14,1.14,0,0,0,.32-.65,8.17,8.17,0,0,0,.07-1.29V334.06a10.3,10.3,0,0,0,0-1.17,1.51,1.51,0,0,0-.2-.58,1.15,1.15,0,0,0-.36-.33,3.81,3.81,0,0,0-.76-.27v-.58h4.94v.58a2.73,2.73,0,0,0-.75.26,1,1,0,0,0-.36.32,1.39,1.39,0,0,0-.2.58,8.5,8.5,0,0,0-.06,1.19v4.15h6.51v-4.15a6.12,6.12,0,0,0-.1-1.39,1.14,1.14,0,0,0-.33-.57,2.45,2.45,0,0,0-.93-.39v-.58H98v.58a2.43,2.43,0,0,0-.91.37,1,1,0,0,0-.35.61,6.33,6.33,0,0,0-.1,1.37Z" transform="translate(-16.48 -301.3)"/><path class="cls-1" d="M111.46,341.87H106v-1.82h5.44Z" transform="translate(-16.48 -301.3)"/><path class="cls-1" d="M118.78,331.13h12.68v4.08h-1.15a12.27,12.27,0,0,0-.5-1.59,3.11,3.11,0,0,0-.54-.89,1.71,1.71,0,0,0-.6-.44,3,3,0,0,0-1-.12h-1.49v12a6.36,6.36,0,0,0,.08,1.1,1.89,1.89,0,0,0,.23.65,1.11,1.11,0,0,0,.43.37,4.06,4.06,0,0,0,.85.27v.57h-5.36v-.57l.62-.18a1.4,1.4,0,0,0,.44-.23,1,1,0,0,0,.28-.34,2.1,2.1,0,0,0,.18-.58,7,7,0,0,0,.06-1.06v-12h-1.47a3.32,3.32,0,0,0-.91.1,1.45,1.45,0,0,0-.66.44,3.09,3.09,0,0,0-.56,1,10.73,10.73,0,0,0-.48,1.55h-1.16Z" transform="translate(-16.48 -301.3)"/><path class="cls-1" d="M132.83,347.13v-.75L139,331h1.74l4.94,15.43v.75Zm2.08-1.87h8.15l-3.69-11.72Z" transform="translate(-16.48 -301.3)"/><path class="cls-1" d="M149,343.49a4.84,4.84,0,0,0,.63,1.62,2.45,2.45,0,0,0,1,.89,4,4,0,0,0,1.63.29,2.85,2.85,0,0,0,2.1-.72,2.76,2.76,0,0,0,.74-2.08,3.15,3.15,0,0,0-.31-1.48,3.42,3.42,0,0,0-1-1.13,14.12,14.12,0,0,0-2.11-1.23,11,11,0,0,1-2.17-1.33,4.44,4.44,0,0,1-1.19-1.41,3.59,3.59,0,0,1-.39-1.66,4.13,4.13,0,0,1,.61-2.28,4,4,0,0,1,1.81-1.5,6.67,6.67,0,0,1,2.72-.52,16.33,16.33,0,0,1,1.74.09,15.13,15.13,0,0,1,2.13.42v3.17h-1.16a5,5,0,0,0-.68-1.61,2.26,2.26,0,0,0-1-.8,3.85,3.85,0,0,0-1.43-.23,3.2,3.2,0,0,0-1.37.28,2.17,2.17,0,0,0-1,.85,2.47,2.47,0,0,0-.35,1.35,3,3,0,0,0,.3,1.41,3.16,3.16,0,0,0,.93,1.07,11.84,11.84,0,0,0,1.87,1.1,14.23,14.23,0,0,1,2.33,1.39,5,5,0,0,1,1.29,1.47,3.88,3.88,0,0,1,.46,1.93,5,5,0,0,1-.39,2.08,3.43,3.43,0,0,1-1.07,1.38,4.31,4.31,0,0,1-1.64.78,8.57,8.57,0,0,1-2.09.24,17.35,17.35,0,0,1-4.24-.62v-3.21Z" transform="translate(-16.48 -301.3)"/><path class="cls-1" d="M221.79,318.07v-.75l6.13-15.43h1.74l4.94,15.43v.75Zm2.08-1.88H232l-3.69-11.71Z" transform="translate(-16.48 -301.3)"/><path class="cls-1" d="M248.13,318l-.92.25-.85-.92a5.5,5.5,0,0,1-1.6.69,7.3,7.3,0,0,1-1.91.23,5.19,5.19,0,0,1-4.46-2c-1-1.35-1.5-3.37-1.5-6a10.87,10.87,0,0,1,.82-4.38,6.16,6.16,0,0,1,6-3.91,17.71,17.71,0,0,1,2.1.12,17.41,17.41,0,0,1,2.24.43v3.22h-1.16a5.54,5.54,0,0,0-.75-1.65,2.52,2.52,0,0,0-1-.84,4,4,0,0,0-1.53-.25,3.33,3.33,0,0,0-2.24.82,5.2,5.2,0,0,0-1.49,2.42,12.12,12.12,0,0,0-.53,3.86,14.83,14.83,0,0,0,.45,3.92,5.07,5.07,0,0,0,1.34,2.46,3.09,3.09,0,0,0,2.19.83,3,3,0,0,0,2.05-.61,2.35,2.35,0,0,0,.67-1.85v-.71a7.64,7.64,0,0,0-.11-1.52,1.44,1.44,0,0,0-.4-.73,2.13,2.13,0,0,0-.92-.42v-.57h4.73v.57a1.84,1.84,0,0,0-.63.32,1.12,1.12,0,0,0-.32.45,2,2,0,0,0-.15.67,10.62,10.62,0,0,0,0,1.11Z" transform="translate(-16.48 -301.3)"/><path class="cls-1" d="M256.89,312v-1.64l10.38-4.46v1.76l-8.64,3.52,8.64,3.53v1.76Z" transform="translate(-16.48 -301.3)"/><path class="cls-1" d="M280.53,318.26a4.14,4.14,0,0,1-3.77-2,11.76,11.76,0,0,1-1.24-6,16.23,16.23,0,0,1,.38-3.73A8,8,0,0,1,277,303.9a4.4,4.4,0,0,1,1.65-1.52,4.5,4.5,0,0,1,2.09-.49,4.22,4.22,0,0,1,3.83,2,11.41,11.41,0,0,1,1.25,6,11.94,11.94,0,0,1-1.34,6.28A4.35,4.35,0,0,1,280.53,318.26Zm-2.72-8.39a16.1,16.1,0,0,0,.71,5.6,2.34,2.34,0,0,0,2.19,1.79,2.26,2.26,0,0,0,2.11-1.68,14.67,14.67,0,0,0,.68-5.21,21.43,21.43,0,0,0-.35-4.36,5.32,5.32,0,0,0-1-2.4,1.9,1.9,0,0,0-1.51-.73,2,2,0,0,0-1.36.48,3.43,3.43,0,0,0-.88,1.39,9.19,9.19,0,0,0-.47,2.19A28.5,28.5,0,0,0,277.81,309.87Z" transform="translate(-16.48 -301.3)"/><path class="cls-1" d="M320.43,318.07v-.57a2.48,2.48,0,0,0,1-.42,1.09,1.09,0,0,0,.32-.65,6.9,6.9,0,0,0,.08-1.29V305a8,8,0,0,0-.06-1.17,1.52,1.52,0,0,0-.19-.58,1,1,0,0,0-.36-.33,4.07,4.07,0,0,0-.76-.27v-.58h6.41a9.34,9.34,0,0,1,3,.4,3.37,3.37,0,0,1,1.69,1.18,3.46,3.46,0,0,1,.55,2,3.67,3.67,0,0,1-.4,1.77,3.75,3.75,0,0,1-1,1.24,7.63,7.63,0,0,1-1.63.92v.1a4.83,4.83,0,0,1,2.41,1.48,3.65,3.65,0,0,1,.82,2.39,4.37,4.37,0,0,1-.71,2.6,4,4,0,0,1-2,1.46,9.35,9.35,0,0,1-3.1.45Zm5.61-8.82a3.89,3.89,0,0,0,2.73-.87,3.19,3.19,0,0,0,.94-2.5,3.11,3.11,0,0,0-.26-1.34,2.24,2.24,0,0,0-.73-.85,3.06,3.06,0,0,0-1.09-.45,6.65,6.65,0,0,0-1.38-.14l-1.17,0c-.48,0-.85,0-1.09.05v6.07ZM324,317c.57.05,1.21.08,1.91.08a5.88,5.88,0,0,0,2.39-.39,2.54,2.54,0,0,0,1.23-1.14,4.24,4.24,0,0,0,.38-1.89,3.76,3.76,0,0,0-.42-1.88,2.5,2.5,0,0,0-1.28-1.1,6.43,6.43,0,0,0-2.39-.36H324Z" transform="translate(-16.48 -301.3)"/><path class="cls-1" d="M344.18,316.08a10.85,10.85,0,0,1-1.37,1.23,5.6,5.6,0,0,1-1.38.7,5.39,5.39,0,0,1-1.65.25,4.54,4.54,0,0,1-3.65-1.45,6.44,6.44,0,0,1-1.23-4.27,7.12,7.12,0,0,1,.63-3.08,4.77,4.77,0,0,1,1.79-2.07,4.94,4.94,0,0,1,2.67-.72,4.84,4.84,0,0,1,2,.37,3.29,3.29,0,0,1,1.33,1,4.72,4.72,0,0,1,.78,1.64,11.35,11.35,0,0,1,.31,2.58H337v.21a7.43,7.43,0,0,0,.31,2.33,2.88,2.88,0,0,0,1,1.48,3,3,0,0,0,1.84.53,4,4,0,0,0,1.73-.36,5.34,5.34,0,0,0,1.53-1.16Zm-2-4.76a8.89,8.89,0,0,0-.31-2.07,2.67,2.67,0,0,0-.74-1.23,1.93,1.93,0,0,0-1.29-.43,2.31,2.31,0,0,0-1.93,1,5.21,5.21,0,0,0-.85,2.76Z" transform="translate(-16.48 -301.3)"/><path class="cls-1" d="M349.69,308.81l.17,0a8.44,8.44,0,0,1,1.19-1.24,4.49,4.49,0,0,1,1.19-.7,4.12,4.12,0,0,1,1.45-.24,9.28,9.28,0,0,1,1.23.07v2.69h-1.33a2.65,2.65,0,0,0-.59-.92,1.25,1.25,0,0,0-.87-.28,1.68,1.68,0,0,0-.84.24,3.1,3.1,0,0,0-.8.72,2.71,2.71,0,0,0-.53.88,2.78,2.78,0,0,0-.15,1v4.1a5.41,5.41,0,0,0,.13,1.47,1,1,0,0,0,.43.59,2.35,2.35,0,0,0,.89.3v.57h-4.72v-.57a4.49,4.49,0,0,0,.64-.25,1,1,0,0,0,.33-.29,1.26,1.26,0,0,0,.21-.58,7.07,7.07,0,0,0,.07-1.2v-5.11c0-.5,0-.91,0-1.21a1.93,1.93,0,0,0-.16-.73.9.9,0,0,0-.43-.41,3.31,3.31,0,0,0-.82-.23v-.61l2.75-.12h.71Z" transform="translate(-16.48 -301.3)"/><path class="cls-1" d="M365.46,316.08a10.2,10.2,0,0,1-1.37,1.23,5.6,5.6,0,0,1-1.38.7,5.39,5.39,0,0,1-1.65.25,4.54,4.54,0,0,1-3.65-1.45,6.44,6.44,0,0,1-1.23-4.27,7.12,7.12,0,0,1,.63-3.08,4.77,4.77,0,0,1,1.79-2.07,5.47,5.47,0,0,1,4.69-.35,3.43,3.43,0,0,1,1.33,1,4.71,4.71,0,0,1,.77,1.64,10.81,10.81,0,0,1,.31,2.58h-7.38v.21a7.43,7.43,0,0,0,.31,2.33,2.88,2.88,0,0,0,1,1.48,3,3,0,0,0,1.84.53,4,4,0,0,0,1.73-.36,5.34,5.34,0,0,0,1.53-1.16Zm-2-4.76a9.4,9.4,0,0,0-.32-2.07,2.59,2.59,0,0,0-.74-1.23,1.93,1.93,0,0,0-1.29-.43,2.32,2.32,0,0,0-1.93,1,5.13,5.13,0,0,0-.84,2.76Z" transform="translate(-16.48 -301.3)"/><path class="cls-1" d="M374.58,316.39l-.17,0a7.23,7.23,0,0,1-1.92,1.47,4.31,4.31,0,0,1-1.9.44,3.4,3.4,0,0,1-1.57-.35,2.41,2.41,0,0,1-1-1,3,3,0,0,1,1.33-4.09,12,12,0,0,1,5.08-1.08V311a6.52,6.52,0,0,0-.23-1.92,1.88,1.88,0,0,0-.74-1,2.43,2.43,0,0,0-1.35-.33,2.17,2.17,0,0,0-1.47.48,3,3,0,0,0-.84,1.44h-1.53v-1.52a16.16,16.16,0,0,1,1.87-.86,10.57,10.57,0,0,1,1.5-.43,7.1,7.1,0,0,1,1.53-.16A4,4,0,0,1,375,307a2.34,2.34,0,0,1,1.06,1.13,5.8,5.8,0,0,1,.35,2.29v4.08c0,.58,0,1,0,1.23a4.31,4.31,0,0,0,.07.66,1.75,1.75,0,0,0,.17.49,1.07,1.07,0,0,0,.35.31,4.33,4.33,0,0,0,.74.27v.57h-3.21Zm-.2-3.66a8.12,8.12,0,0,0-3.56.63,2,2,0,0,0-1.18,1.84,1.79,1.79,0,0,0,.27,1.05,1.38,1.38,0,0,0,.68.54,3.06,3.06,0,0,0,1,.14,2.84,2.84,0,0,0,2.46-1.37,2.28,2.28,0,0,0,.36-1.18Z" transform="translate(-16.48 -301.3)"/><path class="cls-1" d="M388.36,314.67v3.4h-9v-.57l6.42-9.68h-3.17a1.78,1.78,0,0,0-.93.21,2,2,0,0,0-.64.7,6.41,6.41,0,0,0-.59,1.32h-1v-3.18h8.88v.58l-6.41,9.67H385a3.47,3.47,0,0,0,.92-.09,1.62,1.62,0,0,0,.53-.3,2.43,2.43,0,0,0,.43-.65,10.91,10.91,0,0,0,.5-1.41Z" transform="translate(-16.48 -301.3)"/><path class="cls-1" d="M393.57,311.54h.37a1.86,1.86,0,0,0,.63-.08,2.7,2.7,0,0,0,.65-.36,9.45,9.45,0,0,0,1-.85,7.63,7.63,0,0,0,.82-.85,2.52,2.52,0,0,0,.38-.65,1.37,1.37,0,0,0,.09-.49.72.72,0,0,0-.21-.55,1.39,1.39,0,0,0-.71-.27v-.57h5.05v.57a3.54,3.54,0,0,0-1.15.48,7.5,7.5,0,0,0-1.25,1l-2.7,2.55,3.38,4.41A6.36,6.36,0,0,0,401,317a2.45,2.45,0,0,0,1,.49v.57h-4.5v-.57a1.09,1.09,0,0,0,.46-.14.39.39,0,0,0,.14-.33,1,1,0,0,0-.06-.35,2.5,2.5,0,0,0-.27-.46q-.19-.3-.72-1l-1.4-1.88a5.64,5.64,0,0,0-.57-.69.92.92,0,0,0-.35-.23,1.46,1.46,0,0,0-.51-.07h-.65v2.81a7.27,7.27,0,0,0,.09,1.4,1,1,0,0,0,.36.6,2.65,2.65,0,0,0,.86.36v.57h-4.65v-.57a2.78,2.78,0,0,0,.81-.32,1,1,0,0,0,.33-.39,2.19,2.19,0,0,0,.14-.62,9.78,9.78,0,0,0,0-1v-9.81c0-.75,0-1.27,0-1.57a3.66,3.66,0,0,0-.09-.75,1.31,1.31,0,0,0-.21-.49.92.92,0,0,0-.36-.28A4,4,0,0,0,390,302v-.61l2.82-.12h.71Z" transform="translate(-16.48 -301.3)"/><path class="cls-1" d="M407.71,318.26a4.74,4.74,0,0,1-3.72-1.44,6.17,6.17,0,0,1-1.28-4.25,7.19,7.19,0,0,1,.67-3.27,4.51,4.51,0,0,1,1.85-2,5.33,5.33,0,0,1,2.67-.65,4.79,4.79,0,0,1,3.8,1.46,6.18,6.18,0,0,1,1.28,4.19,7.52,7.52,0,0,1-.64,3.28,4.46,4.46,0,0,1-1.83,2A5.66,5.66,0,0,1,407.71,318.26Zm-2.79-5.93a7.38,7.38,0,0,0,.77,3.71,2.42,2.42,0,0,0,2.2,1.29,2.29,2.29,0,0,0,1.33-.38,2.88,2.88,0,0,0,.9-1,5,5,0,0,0,.5-1.5,10.23,10.23,0,0,0,.15-1.77,9.21,9.21,0,0,0-.38-2.86,3.53,3.53,0,0,0-1-1.67,2.3,2.3,0,0,0-1.5-.54,2.4,2.4,0,0,0-2.17,1.23A6.68,6.68,0,0,0,404.92,312.33Z" transform="translate(-16.48 -301.3)"/><path class="cls-1" d="M422.13,316.39l-.18,0a7.23,7.23,0,0,1-1.92,1.47,4.27,4.27,0,0,1-1.9.44,3.43,3.43,0,0,1-1.57-.35,2.44,2.44,0,0,1-1-1,2.77,2.77,0,0,1-.37-1.45,2.9,2.9,0,0,1,1.7-2.64,12,12,0,0,1,5.08-1.08V311a6.16,6.16,0,0,0-.24-1.92,1.84,1.84,0,0,0-.74-1,2.39,2.39,0,0,0-1.34-.33,2.21,2.21,0,0,0-1.48.48,2.88,2.88,0,0,0-.83,1.44h-1.54v-1.52a16.18,16.18,0,0,1,1.88-.86,10.57,10.57,0,0,1,1.5-.43,7,7,0,0,1,1.52-.16,4,4,0,0,1,1.86.37,2.34,2.34,0,0,1,1.06,1.13,5.8,5.8,0,0,1,.35,2.29v4.08c0,.58,0,1,0,1.23a4.31,4.31,0,0,0,.07.66,1.48,1.48,0,0,0,.18.49,1,1,0,0,0,.34.31,4.52,4.52,0,0,0,.75.27v.57h-3.21Zm-.2-3.66a8.14,8.14,0,0,0-3.57.63,2,2,0,0,0-1.18,1.84,1.79,1.79,0,0,0,.27,1.05,1.42,1.42,0,0,0,.68.54,3.1,3.1,0,0,0,1,.14,2.85,2.85,0,0,0,1.45-.38,2.9,2.9,0,0,0,1-1,2.29,2.29,0,0,0,.37-1.18Z" transform="translate(-16.48 -301.3)"/><path class="cls-1" d="M221.79,346.87v-.75l6.13-15.43h1.74l4.94,15.43v.75Zm2.08-1.88H232l-3.69-11.71Z" transform="translate(-16.48 -301.3)"/><path class="cls-1" d="M248.13,346.81l-.92.25-.85-.92a5.5,5.5,0,0,1-1.6.69,7.3,7.3,0,0,1-1.91.23,5.19,5.19,0,0,1-4.46-2c-1-1.35-1.5-3.37-1.5-6a10.87,10.87,0,0,1,.82-4.38,6.16,6.16,0,0,1,6-3.91,17.71,17.71,0,0,1,2.1.12,17.41,17.41,0,0,1,2.24.43v3.22h-1.16a5.54,5.54,0,0,0-.75-1.65,2.52,2.52,0,0,0-1-.84,4,4,0,0,0-1.53-.25,3.33,3.33,0,0,0-2.24.82A5.2,5.2,0,0,0,239.8,335a12.12,12.12,0,0,0-.53,3.86,14.83,14.83,0,0,0,.45,3.92,5.07,5.07,0,0,0,1.34,2.46,3.09,3.09,0,0,0,2.19.83,3,3,0,0,0,2.05-.61,2.36,2.36,0,0,0,.67-1.86v-.7a7.64,7.64,0,0,0-.11-1.52,1.44,1.44,0,0,0-.4-.73,2.13,2.13,0,0,0-.92-.42v-.57h4.73v.57a1.84,1.84,0,0,0-.63.32,1.12,1.12,0,0,0-.32.45,2,2,0,0,0-.15.67,10.62,10.62,0,0,0,0,1.11Z" transform="translate(-16.48 -301.3)"/><path class="cls-1" d="M256.89,345.3v-1.76l8.65-3.53-8.65-3.52v-1.76l10.38,4.46v1.64Z" transform="translate(-16.48 -301.3)"/><path class="cls-1" d="M280.53,347.06a4.13,4.13,0,0,1-3.77-2,11.69,11.69,0,0,1-1.24-6,16.23,16.23,0,0,1,.38-3.73A8,8,0,0,1,277,332.7a4.4,4.4,0,0,1,1.65-1.52,4.5,4.5,0,0,1,2.09-.49,4.22,4.22,0,0,1,3.83,2,11.41,11.41,0,0,1,1.25,6,11.94,11.94,0,0,1-1.34,6.28A4.35,4.35,0,0,1,280.53,347.06Zm-2.72-8.39a16.1,16.1,0,0,0,.71,5.6,2.34,2.34,0,0,0,2.19,1.79,2.26,2.26,0,0,0,2.11-1.68,14.67,14.67,0,0,0,.68-5.21,21.43,21.43,0,0,0-.35-4.36,5.32,5.32,0,0,0-1-2.4,1.9,1.9,0,0,0-1.51-.73,2,2,0,0,0-1.36.48,3.43,3.43,0,0,0-.88,1.39,9.19,9.19,0,0,0-.47,2.19A28.5,28.5,0,0,0,277.81,338.67Z" transform="translate(-16.48 -301.3)"/><path class="cls-1" d="M331.39,330.87v3.54h-1.15c-.12-.38-.24-.72-.36-1a5.19,5.19,0,0,0-.39-.72,1.82,1.82,0,0,0-.44-.47,1.33,1.33,0,0,0-.57-.24,4.34,4.34,0,0,0-.78-.07H324v6.15h2.51a1.83,1.83,0,0,0,.81-.15,1.11,1.11,0,0,0,.48-.5,4.18,4.18,0,0,0,.37-1.1h1.11v4.5h-1.11a4.42,4.42,0,0,0-.36-1.06,1.24,1.24,0,0,0-.47-.51,1.81,1.81,0,0,0-.83-.15H324v6.76h3.65a3.43,3.43,0,0,0,.93-.1,1.46,1.46,0,0,0,.61-.34,2.06,2.06,0,0,0,.46-.63,5.6,5.6,0,0,0,.33-.8c.09-.28.22-.68.37-1.21h1.16l-.22,4.11H320.43v-.57a2.48,2.48,0,0,0,1-.42,1.09,1.09,0,0,0,.32-.65,6.9,6.9,0,0,0,.08-1.29V333.8a8,8,0,0,0-.06-1.17,1.52,1.52,0,0,0-.19-.58,1,1,0,0,0-.36-.33,4.07,4.07,0,0,0-.76-.27v-.58Z" transform="translate(-16.48 -301.3)"/><path class="cls-1" d="M342.79,343.47v3.4h-9v-.57l6.42-9.68H337a1.72,1.72,0,0,0-.92.21,2,2,0,0,0-.65.7,6.44,6.44,0,0,0-.58,1.32h-1v-3.18h8.88v.58l-6.41,9.67h3.08a3.39,3.39,0,0,0,.91-.09,1.53,1.53,0,0,0,.53-.3,2.21,2.21,0,0,0,.44-.65,12.7,12.7,0,0,0,.5-1.41Z" transform="translate(-16.48 -301.3)"/><path class="cls-1" d="M358.06,334.13c0-.75,0-1.27,0-1.57a3.66,3.66,0,0,0-.09-.75,1.31,1.31,0,0,0-.21-.49.89.89,0,0,0-.37-.28,3.69,3.69,0,0,0-.82-.21v-.61l2.83-.12h.69v13.57c0,.61,0,1.05,0,1.31a1.61,1.61,0,0,0,.15.62.85.85,0,0,0,.37.38,3.2,3.2,0,0,0,.89.28v.61l-2.77.12h-.7l.14-1.93-.18,0a10.44,10.44,0,0,1-1.28,1.18,4.8,4.8,0,0,1-1.16.62,3.6,3.6,0,0,1-1.32.24,3.42,3.42,0,0,1-3-1.46,8.62,8.62,0,0,1-.37-7.48,4.72,4.72,0,0,1,1.84-2,5.21,5.21,0,0,1,2.59-.65,7.57,7.57,0,0,1,1.41.12,7.12,7.12,0,0,1,1.3.4Zm0,5.79a11,11,0,0,0-.08-1.46,3.1,3.1,0,0,0-.28-.93,1.87,1.87,0,0,0-.52-.63,2.27,2.27,0,0,0-.72-.38,3.25,3.25,0,0,0-.94-.12,2.57,2.57,0,0,0-2.29,1.21,6.34,6.34,0,0,0-.78,3.45,7.24,7.24,0,0,0,.64,3.42,2.1,2.1,0,0,0,2,1.17,3.35,3.35,0,0,0,.85-.09,2.58,2.58,0,0,0,.67-.28,3.37,3.37,0,0,0,.67-.53,3.87,3.87,0,0,0,.5-.62,2.75,2.75,0,0,0,.24-.65,4.65,4.65,0,0,0,.08-.93Z" transform="translate(-16.48 -301.3)"/><path class="cls-1" d="M370.23,345.19l-.17,0a7.23,7.23,0,0,1-1.92,1.47,4.31,4.31,0,0,1-1.9.44,3.4,3.4,0,0,1-1.57-.35,2.39,2.39,0,0,1-1-1,2.77,2.77,0,0,1-.37-1.45,2.9,2.9,0,0,1,1.7-2.64,12.08,12.08,0,0,1,5.08-1.09v-.76a6.16,6.16,0,0,0-.24-1.92,1.88,1.88,0,0,0-.74-1,2.41,2.41,0,0,0-1.35-.33,2.2,2.2,0,0,0-1.47.48,2.88,2.88,0,0,0-.83,1.44h-1.54v-1.52a16.18,16.18,0,0,1,1.88-.86,10.57,10.57,0,0,1,1.5-.43,7,7,0,0,1,1.52-.16,4,4,0,0,1,1.86.37,2.34,2.34,0,0,1,1.06,1.13,5.8,5.8,0,0,1,.35,2.29v4.08c0,.58,0,1,0,1.23a4.31,4.31,0,0,0,.07.66,1.48,1.48,0,0,0,.18.49,1,1,0,0,0,.34.31,4.19,4.19,0,0,0,.75.27v.57h-3.21Zm-.19-3.66a8.14,8.14,0,0,0-3.57.63,2,2,0,0,0-1.18,1.84,1.79,1.79,0,0,0,.27,1.05,1.38,1.38,0,0,0,.68.54,3.1,3.1,0,0,0,1,.14,2.84,2.84,0,0,0,2.46-1.37,2.29,2.29,0,0,0,.37-1.18Z" transform="translate(-16.48 -301.3)"/><path class="cls-1" d="M383.42,337.51h0a10.18,10.18,0,0,1,1.37-1.24,4.57,4.57,0,0,1,1.13-.6,3.93,3.93,0,0,1,1.27-.2,3.6,3.6,0,0,1,2.15.64,4,4,0,0,1,1.38,1.91,9,9,0,0,1,.49,3.13,8.11,8.11,0,0,1-.58,3.23,4.25,4.25,0,0,1-1.71,2,5.16,5.16,0,0,1-2.68.68,8.53,8.53,0,0,1-1.64-.16,7.2,7.2,0,0,1-1.61-.56l-.82.72-.81-.19V334.13c0-.75,0-1.27,0-1.57a3.66,3.66,0,0,0-.09-.75,1.31,1.31,0,0,0-.21-.49.92.92,0,0,0-.36-.28,4,4,0,0,0-.83-.21v-.61l2.84-.12h.69Zm0,5.14a10.81,10.81,0,0,0,.08,1.44,2.53,2.53,0,0,0,.28.88,2,2,0,0,0,.56.65,2.09,2.09,0,0,0,.82.4,4.62,4.62,0,0,0,1,.11,2.37,2.37,0,0,0,2.14-1.15,6.55,6.55,0,0,0,.72-3.44,7.27,7.27,0,0,0-.66-3.49,2.15,2.15,0,0,0-2-1.16,2.75,2.75,0,0,0-1.13.2,3.34,3.34,0,0,0-.94.64,3.57,3.57,0,0,0-.68.85,2.19,2.19,0,0,0-.21,1Z" transform="translate(-16.48 -301.3)"/><path class="cls-1" d="M403,344.88a10.2,10.2,0,0,1-1.37,1.23,5.6,5.6,0,0,1-1.38.7,5.39,5.39,0,0,1-1.65.25,4.54,4.54,0,0,1-3.65-1.45,6.44,6.44,0,0,1-1.23-4.27,7.12,7.12,0,0,1,.63-3.08,4.77,4.77,0,0,1,1.79-2.07,5.47,5.47,0,0,1,4.69-.35,3.43,3.43,0,0,1,1.33,1,4.71,4.71,0,0,1,.77,1.64,10.81,10.81,0,0,1,.31,2.58h-7.38v.21a7.43,7.43,0,0,0,.31,2.33,2.88,2.88,0,0,0,1,1.48,3,3,0,0,0,1.84.53,4,4,0,0,0,1.73-.36,5.34,5.34,0,0,0,1.53-1.16Zm-2-4.76a9.4,9.4,0,0,0-.32-2.07,2.59,2.59,0,0,0-.74-1.23,1.93,1.93,0,0,0-1.29-.43,2.32,2.32,0,0,0-1.93,1,5.13,5.13,0,0,0-.84,2.76Z" transform="translate(-16.48 -301.3)"/><path class="cls-1" d="M408.47,337.61l.17,0a8.44,8.44,0,0,1,1.19-1.24,4.65,4.65,0,0,1,1.19-.7,4.12,4.12,0,0,1,1.45-.24,9.28,9.28,0,0,1,1.23.07v2.69h-1.32a2.81,2.81,0,0,0-.6-.92,1.25,1.25,0,0,0-.87-.28,1.68,1.68,0,0,0-.84.24,3.1,3.1,0,0,0-.8.72,2.71,2.71,0,0,0-.53.88,2.78,2.78,0,0,0-.15,1v4.1a5.41,5.41,0,0,0,.13,1.47,1,1,0,0,0,.43.59,2.41,2.41,0,0,0,.89.3v.57h-4.72v-.57a4.49,4.49,0,0,0,.64-.25,1,1,0,0,0,.33-.29,1.26,1.26,0,0,0,.21-.58,7.07,7.07,0,0,0,.07-1.2v-5.11c0-.5,0-.91,0-1.21a1.76,1.76,0,0,0-.16-.73.9.9,0,0,0-.43-.41,3.19,3.19,0,0,0-.82-.23v-.61l2.75-.12h.71Z" transform="translate(-16.48 -301.3)"/><path class="cls-1" d="M424.25,344.88a10.21,10.21,0,0,1-1.38,1.23,5.6,5.6,0,0,1-1.38.7,5.39,5.39,0,0,1-1.65.25,4.52,4.52,0,0,1-3.64-1.45,6.44,6.44,0,0,1-1.24-4.27,7.12,7.12,0,0,1,.63-3.08,4.84,4.84,0,0,1,1.79-2.07,5.47,5.47,0,0,1,4.69-.35,3.43,3.43,0,0,1,1.33,1,4.71,4.71,0,0,1,.77,1.64,10.81,10.81,0,0,1,.31,2.58H417.1v.21a7.43,7.43,0,0,0,.31,2.33,2.76,2.76,0,0,0,2.86,2,4,4,0,0,0,1.73-.36,5.34,5.34,0,0,0,1.53-1.16Zm-2-4.76a8.84,8.84,0,0,0-.32-2.07,2.59,2.59,0,0,0-.74-1.23,1.93,1.93,0,0,0-1.29-.43,2.29,2.29,0,0,0-1.92,1,5.13,5.13,0,0,0-.85,2.76Z" transform="translate(-16.48 -301.3)"/><path class="cls-1" d="M433.36,345.19l-.17,0a7.23,7.23,0,0,1-1.92,1.47,4.31,4.31,0,0,1-1.9.44,3.4,3.4,0,0,1-1.57-.35,2.47,2.47,0,0,1-1.05-1,2.86,2.86,0,0,1-.36-1.45,2.9,2.9,0,0,1,1.69-2.64,12.16,12.16,0,0,1,5.08-1.09v-.76a6.2,6.2,0,0,0-.23-1.92,1.88,1.88,0,0,0-.74-1,2.41,2.41,0,0,0-1.35-.33,2.17,2.17,0,0,0-1.47.48,2.88,2.88,0,0,0-.83,1.44H427v-1.52a16.18,16.18,0,0,1,1.88-.86,10.57,10.57,0,0,1,1.5-.43,7,7,0,0,1,1.52-.16,4,4,0,0,1,1.86.37,2.34,2.34,0,0,1,1.06,1.13,5.8,5.8,0,0,1,.35,2.29v4.08c0,.58,0,1,0,1.23a4.31,4.31,0,0,0,.07.66,1.48,1.48,0,0,0,.18.49.94.94,0,0,0,.34.31,4.19,4.19,0,0,0,.75.27v.57H433.3Zm-.2-3.66a8.12,8.12,0,0,0-3.56.63,2,2,0,0,0-1.18,1.84,1.79,1.79,0,0,0,.27,1.05,1.38,1.38,0,0,0,.68.54,3.06,3.06,0,0,0,1,.14,2.84,2.84,0,0,0,2.46-1.37,2.28,2.28,0,0,0,.36-1.18Z" transform="translate(-16.48 -301.3)"/><path class="cls-1" d="M447.14,343.47v3.4h-9v-.57l6.42-9.68h-3.17a1.78,1.78,0,0,0-.93.21,2,2,0,0,0-.64.7,6.41,6.41,0,0,0-.59,1.32h-1v-3.18h8.88v.58l-6.41,9.67h3.09a3.44,3.44,0,0,0,.91-.09,1.62,1.62,0,0,0,.53-.3,2.21,2.21,0,0,0,.43-.65,12.3,12.3,0,0,0,.51-1.41Z" transform="translate(-16.48 -301.3)"/><path class="cls-1" d="M452.35,340.34h.37a2.27,2.27,0,0,0,.64-.08,2.65,2.65,0,0,0,.64-.36,12.2,12.2,0,0,0,1-.85,7.39,7.39,0,0,0,.81-.85,2.52,2.52,0,0,0,.38-.65,1.38,1.38,0,0,0,.1-.49.73.73,0,0,0-.22-.55,1.39,1.39,0,0,0-.71-.27v-.57h5.05v.57a3.54,3.54,0,0,0-1.15.48,7.93,7.93,0,0,0-1.25,1l-2.7,2.55,3.38,4.41a6.36,6.36,0,0,0,1.06,1.14,2.43,2.43,0,0,0,1,.49v.57h-4.5v-.57a1.08,1.08,0,0,0,.45-.14.39.39,0,0,0,.14-.33,1,1,0,0,0-.06-.35,2,2,0,0,0-.27-.46q-.19-.3-.72-1l-1.4-1.88a7.15,7.15,0,0,0-.56-.69,1,1,0,0,0-.36-.23,1.46,1.46,0,0,0-.51-.07h-.65v2.81a7.27,7.27,0,0,0,.09,1.4,1,1,0,0,0,.36.6,2.65,2.65,0,0,0,.86.36v.57H449v-.57a2.78,2.78,0,0,0,.81-.32,1,1,0,0,0,.33-.39,2.19,2.19,0,0,0,.14-.62,9.78,9.78,0,0,0,0-1v-9.81c0-.75,0-1.27,0-1.57a3.66,3.66,0,0,0-.09-.75,1.31,1.31,0,0,0-.21-.49.92.92,0,0,0-.36-.28,4,4,0,0,0-.83-.21v-.61l2.82-.12h.71Z" transform="translate(-16.48 -301.3)"/><path class="cls-1" d="M466.49,347.06a4.74,4.74,0,0,1-3.72-1.44,6.22,6.22,0,0,1-1.28-4.25,7.19,7.19,0,0,1,.67-3.27,4.51,4.51,0,0,1,1.85-2,5.33,5.33,0,0,1,2.67-.65,4.79,4.79,0,0,1,3.8,1.46,6.13,6.13,0,0,1,1.29,4.19,7.52,7.52,0,0,1-.65,3.28,4.46,4.46,0,0,1-1.83,2A5.66,5.66,0,0,1,466.49,347.06Zm-2.79-5.93a7.38,7.38,0,0,0,.77,3.71,2.42,2.42,0,0,0,2.2,1.29,2.29,2.29,0,0,0,1.33-.38,2.88,2.88,0,0,0,.9-1,5,5,0,0,0,.5-1.5,10.23,10.23,0,0,0,.15-1.77,9.21,9.21,0,0,0-.38-2.86,3.45,3.45,0,0,0-1-1.67,2.27,2.27,0,0,0-1.5-.54,2.4,2.4,0,0,0-2.17,1.23A6.78,6.78,0,0,0,463.7,341.13Z" transform="translate(-16.48 -301.3)"/><path class="cls-1" d="M480.91,345.19l-.18,0a7.23,7.23,0,0,1-1.92,1.47,4.27,4.27,0,0,1-1.9.44,3.43,3.43,0,0,1-1.57-.35,2.44,2.44,0,0,1-1-1,2.77,2.77,0,0,1-.37-1.45,2.9,2.9,0,0,1,1.7-2.64,12.12,12.12,0,0,1,5.08-1.09v-.76a6.16,6.16,0,0,0-.24-1.92,1.84,1.84,0,0,0-.74-1,2.39,2.39,0,0,0-1.34-.33,2.17,2.17,0,0,0-1.47.48,2.89,2.89,0,0,0-.84,1.44h-1.54v-1.52a16.18,16.18,0,0,1,1.88-.86,10.57,10.57,0,0,1,1.5-.43,7.07,7.07,0,0,1,1.52-.16,3.94,3.94,0,0,1,1.86.37,2.29,2.29,0,0,1,1.06,1.13,5.8,5.8,0,0,1,.35,2.29v4.08c0,.58,0,1,0,1.23a4.31,4.31,0,0,0,.07.66,1.48,1.48,0,0,0,.18.49,1,1,0,0,0,.34.31,4.52,4.52,0,0,0,.75.27v.57h-3.21Zm-.2-3.66a8.14,8.14,0,0,0-3.57.63A2,2,0,0,0,476,344a1.79,1.79,0,0,0,.27,1.05,1.42,1.42,0,0,0,.68.54,3.1,3.1,0,0,0,1,.14,2.85,2.85,0,0,0,1.45-.38,2.9,2.9,0,0,0,1-1,2.2,2.2,0,0,0,.37-1.18Z" transform="translate(-16.48 -301.3)"/><path class="cls-1" d="M221.79,375.67v-.75l6.13-15.43h1.74l4.94,15.43v.75Zm2.08-1.88H232l-3.69-11.71Z" transform="translate(-16.48 -301.3)"/><path class="cls-1" d="M248.13,375.61l-.92.25-.85-.92a5.5,5.5,0,0,1-1.6.69,7.3,7.3,0,0,1-1.91.23,5.19,5.19,0,0,1-4.46-2q-1.5-2-1.5-6a10.87,10.87,0,0,1,.82-4.38,6.16,6.16,0,0,1,6-3.91,17.71,17.71,0,0,1,2.1.12A17.41,17.41,0,0,1,248,360v3.22h-1.16a5.54,5.54,0,0,0-.75-1.65,2.52,2.52,0,0,0-1-.84,4,4,0,0,0-1.53-.25,3.33,3.33,0,0,0-2.24.82,5.2,5.2,0,0,0-1.49,2.42,12.12,12.12,0,0,0-.53,3.86,14.83,14.83,0,0,0,.45,3.92,5.07,5.07,0,0,0,1.34,2.46,3.09,3.09,0,0,0,2.19.83,2.94,2.94,0,0,0,2.05-.61,2.35,2.35,0,0,0,.67-1.85v-.71a7.64,7.64,0,0,0-.11-1.52,1.44,1.44,0,0,0-.4-.73,2.13,2.13,0,0,0-.92-.42v-.57h4.73V369a1.84,1.84,0,0,0-.63.32,1.12,1.12,0,0,0-.32.45,2,2,0,0,0-.15.67,10.62,10.62,0,0,0,0,1.11Z" transform="translate(-16.48 -301.3)"/><path class="cls-1" d="M256.89,367.2v-1.63h10.38v1.63Zm0,4.86v-1.63h10.38v1.63Z" transform="translate(-16.48 -301.3)"/><path class="cls-1" d="M280.53,375.86a4.14,4.14,0,0,1-3.77-2,11.76,11.76,0,0,1-1.24-6.05,16.23,16.23,0,0,1,.38-3.73A8,8,0,0,1,277,361.5a4.4,4.4,0,0,1,1.65-1.52,4.5,4.5,0,0,1,2.09-.49,4.22,4.22,0,0,1,3.83,2,11.43,11.43,0,0,1,1.25,6,11.93,11.93,0,0,1-1.34,6.27A4.35,4.35,0,0,1,280.53,375.86Zm-2.72-8.39a16.1,16.1,0,0,0,.71,5.6,2.34,2.34,0,0,0,2.19,1.79,2.26,2.26,0,0,0,2.11-1.68,14.67,14.67,0,0,0,.68-5.21,21.43,21.43,0,0,0-.35-4.36,5.32,5.32,0,0,0-1-2.4,1.9,1.9,0,0,0-1.51-.73,2,2,0,0,0-1.36.48,3.43,3.43,0,0,0-.88,1.39,9.19,9.19,0,0,0-.47,2.19A28.5,28.5,0,0,0,277.81,367.47Z" transform="translate(-16.48 -301.3)"/><path class="cls-1" d="M326.68,375.86a6.75,6.75,0,0,1-2.56-.47,4.93,4.93,0,0,1-2-1.44,6.76,6.76,0,0,1-1.27-2.5,12.92,12.92,0,0,1-.45-3.64,11.45,11.45,0,0,1,.79-4.49,6.26,6.26,0,0,1,2.28-2.86,6.13,6.13,0,0,1,3.44-1,6.29,6.29,0,0,1,3.51.92,5.58,5.58,0,0,1,2.15,2.7,13.52,13.52,0,0,1-.1,9,6.13,6.13,0,0,1-2.32,2.82A6.45,6.45,0,0,1,326.68,375.86Zm-3.86-8.38a11.41,11.41,0,0,0,1.05,5.47,3.33,3.33,0,0,0,3.06,1.88,3.1,3.1,0,0,0,2.17-.82,5,5,0,0,0,1.34-2.38,13.82,13.82,0,0,0,.44-3.67,14.5,14.5,0,0,0-.52-4.24,5.12,5.12,0,0,0-1.42-2.44,3.14,3.14,0,0,0-2.1-.76A3.22,3.22,0,0,0,325,361a3.8,3.8,0,0,0-1.25,1.4,6.94,6.94,0,0,0-.73,2.2A16.69,16.69,0,0,0,322.82,367.48Z" transform="translate(-16.48 -301.3)"/><path class="cls-1" d="M339,366.41l.17,0a8.44,8.44,0,0,1,1.19-1.24,4.65,4.65,0,0,1,1.19-.7,4.12,4.12,0,0,1,1.45-.24,9.28,9.28,0,0,1,1.23.07V367h-1.33a2.65,2.65,0,0,0-.59-.92,1.25,1.25,0,0,0-.87-.28,1.68,1.68,0,0,0-.84.24,3.1,3.1,0,0,0-.8.72,2.71,2.71,0,0,0-.53.88,2.78,2.78,0,0,0-.15,1v4.1a5.41,5.41,0,0,0,.13,1.47,1,1,0,0,0,.43.59,2.41,2.41,0,0,0,.89.3v.57h-4.72v-.57a4.49,4.49,0,0,0,.64-.25,1,1,0,0,0,.33-.29A1.26,1.26,0,0,0,337,374a7.07,7.07,0,0,0,.07-1.2v-5.11c0-.5,0-.91,0-1.21a1.93,1.93,0,0,0-.16-.73.9.9,0,0,0-.43-.41,3.19,3.19,0,0,0-.82-.23v-.61l2.75-.12h.71Z" transform="translate(-16.48 -301.3)"/><path class="cls-1" d="M354.77,373.68a10.21,10.21,0,0,1-1.38,1.23,5.27,5.27,0,0,1-1.38.7,5.39,5.39,0,0,1-1.65.25,4.53,4.53,0,0,1-3.65-1.45,6.44,6.44,0,0,1-1.23-4.27,7.12,7.12,0,0,1,.63-3.08A4.84,4.84,0,0,1,347.9,365a5.47,5.47,0,0,1,4.69-.35,3.43,3.43,0,0,1,1.33,1,4.71,4.71,0,0,1,.77,1.64,10.81,10.81,0,0,1,.31,2.58h-7.38v.21a7.43,7.43,0,0,0,.31,2.33,2.88,2.88,0,0,0,1,1.48,3,3,0,0,0,1.84.53,4,4,0,0,0,1.73-.36,5.16,5.16,0,0,0,1.53-1.16Zm-2-4.76a9.4,9.4,0,0,0-.32-2.07,2.59,2.59,0,0,0-.74-1.23,1.93,1.93,0,0,0-1.29-.43,2.29,2.29,0,0,0-1.92,1,5,5,0,0,0-.85,2.76Z" transform="translate(-16.48 -301.3)"/><path class="cls-1" d="M360.24,369.14h.37a2,2,0,0,0,.64-.08,2.65,2.65,0,0,0,.64-.36,9.33,9.33,0,0,0,1-.85,7.39,7.39,0,0,0,.81-.85,2.52,2.52,0,0,0,.38-.65,1.38,1.38,0,0,0,.1-.49.73.73,0,0,0-.22-.55,1.39,1.39,0,0,0-.71-.27v-.57h5.05V365a3.54,3.54,0,0,0-1.15.48,7.93,7.93,0,0,0-1.25,1l-2.7,2.55,3.38,4.41a6.36,6.36,0,0,0,1.06,1.14,2.49,2.49,0,0,0,1,.49v.57h-4.5v-.57a1.08,1.08,0,0,0,.45-.14.39.39,0,0,0,.14-.33,1,1,0,0,0-.06-.35,2.33,2.33,0,0,0-.26-.46l-.73-1-1.4-1.88a7.15,7.15,0,0,0-.56-.69,1,1,0,0,0-.36-.23,1.42,1.42,0,0,0-.51-.07h-.65v2.81a7.27,7.27,0,0,0,.09,1.4,1,1,0,0,0,.36.6,2.53,2.53,0,0,0,.86.36v.57H356.9v-.57a2.78,2.78,0,0,0,.81-.32.94.94,0,0,0,.33-.39,2.19,2.19,0,0,0,.14-.62,9.78,9.78,0,0,0,0-1v-9.81c0-.75,0-1.27,0-1.57a4.41,4.41,0,0,0-.1-.75,1.31,1.31,0,0,0-.21-.49.92.92,0,0,0-.36-.28,4,4,0,0,0-.83-.21V359l2.83-.12h.7Z" transform="translate(-16.48 -301.3)"/><path class="cls-1" d="M376.29,374l-.17,0a7.23,7.23,0,0,1-1.92,1.47,4.31,4.31,0,0,1-1.9.44,3.4,3.4,0,0,1-1.57-.35,2.47,2.47,0,0,1-1.05-1,3,3,0,0,1,1.33-4.09,12,12,0,0,1,5.08-1.08v-.77a6.2,6.2,0,0,0-.23-1.92,1.88,1.88,0,0,0-.74-1,2.41,2.41,0,0,0-1.35-.33,2.17,2.17,0,0,0-1.47.48,3,3,0,0,0-.84,1.44h-1.53v-1.52a16.16,16.16,0,0,1,1.87-.86,10.57,10.57,0,0,1,1.5-.43,7.1,7.1,0,0,1,1.53-.16,4,4,0,0,1,1.86.37,2.34,2.34,0,0,1,1.06,1.13,5.8,5.8,0,0,1,.35,2.29v4.08c0,.58,0,1,0,1.23a4.31,4.31,0,0,0,.07.66,1.48,1.48,0,0,0,.18.49.94.94,0,0,0,.34.31,4.19,4.19,0,0,0,.75.27v.57h-3.22Zm-.2-3.66a8.12,8.12,0,0,0-3.56.63,2,2,0,0,0-1.18,1.84,1.79,1.79,0,0,0,.27,1.05,1.38,1.38,0,0,0,.68.54,3.06,3.06,0,0,0,1,.14,2.84,2.84,0,0,0,2.46-1.37,2.28,2.28,0,0,0,.36-1.18Z" transform="translate(-16.48 -301.3)"/><path class="cls-1" d="M392.65,375.67H388v-.57a4.74,4.74,0,0,0,.65-.25,1.05,1.05,0,0,0,.34-.29,1.54,1.54,0,0,0,.21-.58,7.09,7.09,0,0,0,.07-1.19v-3.07c0-.55,0-1.05,0-1.49a7.74,7.74,0,0,0-.16-1.1,2.9,2.9,0,0,0-.27-.67,1.85,1.85,0,0,0-.38-.41,1.58,1.58,0,0,0-.5-.26,2.4,2.4,0,0,0-1.6.08,3.74,3.74,0,0,0-.9.62,3.24,3.24,0,0,0-.72.88,2.14,2.14,0,0,0-.22,1v4.37a7.27,7.27,0,0,0,.09,1.4,1.07,1.07,0,0,0,.36.6,2.53,2.53,0,0,0,.86.36v.57h-4.59v-.57a4.74,4.74,0,0,0,.65-.25,1,1,0,0,0,.33-.29,1.54,1.54,0,0,0,.21-.58,7.07,7.07,0,0,0,.07-1.2v-5.11c0-.5,0-.91,0-1.21a1.93,1.93,0,0,0-.16-.73.9.9,0,0,0-.43-.41,3.19,3.19,0,0,0-.82-.23v-.62l2.75-.11h.71l-.13,1.91.17.05a10.31,10.31,0,0,1,1.4-1.26,4.88,4.88,0,0,1,1.07-.58,3.45,3.45,0,0,1,1.16-.2,3.91,3.91,0,0,1,1.13.15,2.3,2.3,0,0,1,.88.45,2.57,2.57,0,0,1,.63.75,4.09,4.09,0,0,1,.37,1.09,8.77,8.77,0,0,1,.12,1.6v4.42a8.36,8.36,0,0,0,.05,1.17,1.44,1.44,0,0,0,.16.56.92.92,0,0,0,.34.34,4,4,0,0,0,.77.29Z" transform="translate(-16.48 -301.3)"/><line class="cls-2" x1="151.12" y1="36.96" x2="185.5" y2="11.08"/><line class="cls-2" x1="150.07" y1="38.18" x2="186.55" y2="36.8"/><line class="cls-2" x1="149.8" y1="38.79" x2="187.74" y2="60.69"/><line class="cls-2" x1="188.77" y1="60.84" x2="178.6" y2="62.23"/><line class="cls-2" x1="187.94" y1="61.16" x2="183.74" y2="51.79"/><line class="cls-2" x1="185.61" y1="11.26" x2="175.65" y2="8.76"/><line class="cls-2" x1="186.39" y1="10.78" x2="182.7" y2="20.36"/><line class="cls-2" x1="188.17" y1="37.51" x2="180.91" y2="30.25"/><line class="cls-2" x1="187.79" y1="36.51" x2="179.59" y2="42.69"/></svg>