<svg id="Capa_1" data-name="Capa 1" xmlns="http://www.w3.org/2000/svg" viewBox="0 0 596.3 228.64"><defs><style>.cls-1{fill:#ef7d53;}.cls-2,.cls-3{fill:none;stroke:#ef7d53;stroke-miterlimit:10;}.cls-2{stroke-width:3px;}.cls-3{stroke-width:6px;}</style></defs><title>entalpia aldaketa</title><path class="cls-1" d="M123.72,363.09V362l9.2-23.15h2.6L142.93,362v1.13Zm3.11-2.81h12.24l-5.54-17.58Z" transform="translate(-20.94 -278.74)"/><path class="cls-1" d="M154.75,336.72c.56,0,.84.58.84,1.76a14.07,14.07,0,0,1,1.2,5.13q.21,2.08.42,5.7s.07.05.07.14l-.21,1.33c.19.93.37,2.53.56,4.78v.07a5.17,5.17,0,0,1-.07.78,9.33,9.33,0,0,1,.49,2.67,1.55,1.55,0,0,1-.28.84,20.56,20.56,0,0,0,.42,2.11c-.3,1.18-.68,1.76-1.19,1.76,0,.19-.42.34-1.27.42-1.55-.26-2.32-.61-2.32-1q-.32,0-.84-5.84h-.49c-.55,0-.83.09-.85.21a9.21,9.21,0,0,1,.14,1.06,3.2,3.2,0,0,0-.07.42,1.18,1.18,0,0,1,.21.56v.28l-.35,1.34c0,.74-.19,1.21-.56,1.41a4.12,4.12,0,0,1-2.11.49h-.07c-1.27,0-1.9-.2-1.9-.56-.26,0-.63-1.13-1.12-3.38-.29-.61-.58-3.22-.92-7.8l.14-5.56a7.68,7.68,0,0,1-.07-.91c0-.9.07-1.5.07-1.76-.05-.86-.07-1.41-.07-1.62.09-1,.14-1.56.14-1.69a4.87,4.87,0,0,1-.21-1.19c0-.39.62-.74,1.83-1.06a8.28,8.28,0,0,0,2.11.29c.79,0,1.32,1.53,1.55,4.57q.28,1.71.63,6.39c.05,0,.09.16.14.5a2.81,2.81,0,0,0-.14,1,5.24,5.24,0,0,1,.21,1.34c0,.4,0,1.28-.07,2.67,0,.51.16.77.28.77a1.78,1.78,0,0,0,1.27-.63h.07V354a30.51,30.51,0,0,0-.5-4.43c.09-.93.14-1.5.14-1.69a17.25,17.25,0,0,1-.28-2.88v-1.34c0-1.25,0-2.65.07-4.22a10.52,10.52,0,0,1-.07-1.47,2,2,0,0,1,1.83-1.2Z" transform="translate(-20.94 -278.74)"/><path class="cls-1" d="M72.05,381.91a9,9,0,0,1,.14,1.33v.92c1.18-1.92,2.27-2.89,3.31-2.89.65.15,1,.43,1,.85a3.62,3.62,0,0,1-1.12,2,2.07,2.07,0,0,0-.71,1.4A16,16,0,0,0,73.6,388c1.88,2.36,2.81,3.75,2.81,4.15A5.79,5.79,0,0,1,76.9,394c0,.05,0,.07-.07.07a12.3,12.3,0,0,0,.78,2.67,15.62,15.62,0,0,0,.7,4,27.16,27.16,0,0,1,1,4.57,3.62,3.62,0,0,1-.7,1.69,4.58,4.58,0,0,1-1.55.42c-1.54-.16-2.32-.61-2.32-1.41a53.86,53.86,0,0,1-2.32-7.87h-.14a6.74,6.74,0,0,0-.14.91c.14.92.23,1.71.28,2.39-.09,1.57-.3,2.43-.63,2.61a3.47,3.47,0,0,0-1.55.56.53.53,0,0,1-.28.07h-.35c-1.41-.32-2.11-.58-2.11-.77a4.21,4.21,0,0,1-.91-3c-.06,0-.07,0-.07-.14s0-.07.07-.07c-.06-1-.13-1.77-.21-2.39l.07-.42a.46.46,0,0,0-.07-.21l.07-.35c-.06-.72-.07-1.38-.07-2,0-.06,0-.07-.07-.07l.07-.14v-2.53l.07-.43a14.74,14.74,0,0,1-.14-1.9q.21-2.07.56-8.29c.1-.85.53-1.27,1.26-1.27a7.35,7.35,0,0,0,1.69-.21A2.4,2.4,0,0,1,72.05,381.91Z" transform="translate(-20.94 -278.74)"/><path class="cls-1" d="M86.2,380.47c.79,0,1.69,1,2.67,3a3.3,3.3,0,0,0,.71,1.76,17.1,17.1,0,0,0,.49,2,5.65,5.65,0,0,1,.35,1.54.84.84,0,0,1-.14.42c.19,0,.35.73.49,2.18a10.46,10.46,0,0,1,.56,3.31,6.43,6.43,0,0,1,.29,1.48l-.22,1.26a3.69,3.69,0,0,1,.29,1,5.65,5.65,0,0,1-.15.7,2.2,2.2,0,0,1,.22.91,7.69,7.69,0,0,0-.07.85q.21,0,.42,1.26l-.07.14v.07c.14,1.92.21,2.94.21,3.1v.35c0,.7-.2,1-.56,1a3.41,3.41,0,0,1-1.62.35c-1.11,0-1.78-.22-2-.7A16.91,16.91,0,0,1,86.34,400c0-.14-.56-.23-1.55-.28h-.42c-.05,0-.12.09-.21.28l.07.14v.43A4.76,4.76,0,0,1,84,401.7a4.94,4.94,0,0,0,.21,1.05,6.28,6.28,0,0,1-.63,1.55c0,.88-.16,1.39-.49,1.55a1.66,1.66,0,0,1-.85.42,2.16,2.16,0,0,1-2.39-1.62v-.84a29.73,29.73,0,0,1,.5-4.85c0-.27,0-.86-.08-1.76.37-2,.92-5.4,1.62-10.05a31.5,31.5,0,0,0,.92-4.72,2.25,2.25,0,0,1,1.33-1.12c.16-.56.83-.84,2-.84Zm-.77,8q-.34,3.12-.85,5.63v.14a11.13,11.13,0,0,0,.07,1.26,9.67,9.67,0,0,0-.21,1.83c.48.05.83.07,1.06.07h.63v-.07c0-.23,0-.76-.14-1.55A10.13,10.13,0,0,0,86.2,394v-.36a21.89,21.89,0,0,0-.7-5.13Z" transform="translate(-20.94 -278.74)"/><path class="cls-1" d="M95.8,380.08l.14.07s.07,0,.07-.07l.35.07c.09,0,.14,0,.14-.07,1.71.16,2.59.61,2.67,1.34L99.6,386v1.12a26.24,26.24,0,0,1-.29,3.52,13.92,13.92,0,0,1,.15,1.54v2.6a10,10,0,0,1-.08,1.34,4.87,4.87,0,0,1,.08,1.13,20.47,20.47,0,0,1-.29,2l.29,2.82a5.8,5.8,0,0,0-.15,1.05v.07a8.35,8.35,0,0,0,2.75.85,2.06,2.06,0,0,1,.56,1.26c0,.42-.33.7-1,.85a3,3,0,0,1-1.68.49h-.28l-.43-.07a2,2,0,0,1-.7.14q-3.63,0-4.71-1.48a7.23,7.23,0,0,1-.35-1.83c0-.72,0-1.88.07-3.44,0-.07,0-.41-.07-1a12.23,12.23,0,0,0,.07-1.61h.07a5.14,5.14,0,0,1-.14-1.48v-1a3.94,3.94,0,0,1,.14-1.27.46.46,0,0,1-.07-.21c0-.19,0-.67.14-1.41a9.1,9.1,0,0,1-.14-1.61v-.36a26.47,26.47,0,0,1,.49-5.13,14,14,0,0,1,.35-3.09,4.53,4.53,0,0,1-.14-.64c0-.44.48-.8,1.41-1.12Z" transform="translate(-20.94 -278.74)"/><path class="cls-1" d="M113.43,380.55c1,0,1.48.34,1.48,1a16.37,16.37,0,0,1-1.41,3.87,1.58,1.58,0,0,1-.35.77,9.33,9.33,0,0,1-1.13,2.67,2.54,2.54,0,0,0-.28,1.06,5.83,5.83,0,0,0,1.69,2.46,3.78,3.78,0,0,1,.77,2.32q.64.42,1,3.09a5.67,5.67,0,0,1,.07.91v.36a4.72,4.72,0,0,1,.56,2.53,3.59,3.59,0,0,1,.35,1.4v.28l-.07.43a5.52,5.52,0,0,1,.28,1.68c0,.85-.75,1.27-2.25,1.27-1.07-.05-1.61-.28-1.61-.7a17.09,17.09,0,0,1-1.2-3.87,22.41,22.41,0,0,1-1.12-3.45h-.07a11.88,11.88,0,0,0-.22,1.83l.29,4.57v.07c0,.6-1,1.08-3.1,1.41-1.14,0-1.88-.84-2.18-2.53q-1-6.78-1-8.23l.07-.42a10.6,10.6,0,0,1-.21-2.74c0-.09,0-.62.07-1.55h.07a1.6,1.6,0,0,1-.21-.77c0-.85.12-1.27.21-1.27s0-.23-.07-.56c0-.72.12-2.44.35-5.2v-1.55c0-.41.47-.72,1.4-.92h1.27a.45.45,0,0,0,.28-.07c1.27.18,1.9.74,1.9,1.69,0,.34.14,1.58.42,3.73v.35a11.62,11.62,0,0,0,.78-2.39,7.63,7.63,0,0,1,1.75-3,2.17,2.17,0,0,1,.92-.5Z" transform="translate(-20.94 -278.74)"/><path class="cls-1" d="M127.88,380.24a1.61,1.61,0,0,1,1.76,1.12,29.27,29.27,0,0,1,1.54,5.42l.43,2.6-.07,1c.05,1.23.07,2.08.07,2.53a15.86,15.86,0,0,1-.71,4.15c-.16,3.1-.35,4.64-.56,4.64a7.61,7.61,0,0,1-3.66,4.08,9.94,9.94,0,0,1-3.79,1h-.07l-.14.07v-.07l-.14.07a3.55,3.55,0,0,1-2.33-1.41,17.78,17.78,0,0,1-2.1-3.87,21.15,21.15,0,0,1-.92-6.61c0-.74.16-4.39.49-11v-1.12c0-.84.34-1.27,1-1.27a4,4,0,0,1,1.62-.35h.42l.14-.07v.07c.05,0,.07,0,.07-.07a2.46,2.46,0,0,1,2.18,1.34,6.07,6.07,0,0,1,.28,1.54c-.09,1.09-.14,1.8-.14,2.11a25.85,25.85,0,0,0,.42,2.68c0,1.12-.12,2-.21,2.67l.14,1.76-.07.14a.55.55,0,0,0,.07.28c0,.61-.07,1.1-.07,1.47v1.06a22.14,22.14,0,0,0,.28,3h-.07a12.68,12.68,0,0,0,.35,1.55c.27-.25.63-1.64,1.13-4.15,0-.3.21-1.53.63-3.66a44.37,44.37,0,0,0,.35-6.18s.09-.28.14-.85a4.77,4.77,0,0,0-.14-1h.07a5.91,5.91,0,0,1-.14-1.62v-1.76c0-.65.49-1.09,1.48-1.33Z" transform="translate(-20.94 -278.74)"/><path class="cls-1" d="M135.24,380.08l.14.07c.06,0,.08,0,.08-.07l.35.07c.08,0,.14,0,.14-.07,1.7.16,2.58.61,2.67,1.34L139,386v1.12a27.72,27.72,0,0,1-.28,3.52,13.36,13.36,0,0,1,.14,1.54v2.6a12,12,0,0,1-.07,1.34,5.74,5.74,0,0,1,.07,1.13c0,.19-.09.86-.28,2l.28,2.82a5.63,5.63,0,0,0-.14,1.05v.07a8.29,8.29,0,0,0,2.74.85,2.06,2.06,0,0,1,.56,1.26c0,.42-.33.7-1,.85a3,3,0,0,1-1.69.49h-.28l-.42-.07a2,2,0,0,1-.7.14c-2.43,0-4-.49-4.71-1.48a7.35,7.35,0,0,1-.36-1.83c0-.72,0-1.88.07-3.44,0-.07,0-.41-.07-1a10.67,10.67,0,0,0,.07-1.61h.07a5.54,5.54,0,0,1-.14-1.48v-1a4.26,4.26,0,0,1,.14-1.27.46.46,0,0,1-.07-.21c0-.19.06-.67.14-1.41a10.16,10.16,0,0,1-.14-1.61v-.36a25.72,25.72,0,0,1,.5-5.13,13.31,13.31,0,0,1,.35-3.09,4.53,4.53,0,0,1-.14-.64c0-.44.47-.8,1.4-1.12Z" transform="translate(-20.94 -278.74)"/><path class="cls-1" d="M149.32,380.47c.8,0,1.69,1,2.68,3a3.28,3.28,0,0,0,.7,1.76,17.1,17.1,0,0,0,.49,2,5.65,5.65,0,0,1,.35,1.54.84.84,0,0,1-.14.42c.2,0,.35.73.49,2.18a10.47,10.47,0,0,1,.57,3.31,6.5,6.5,0,0,1,.28,1.48l-.21,1.26a3.93,3.93,0,0,1,.28,1,4.88,4.88,0,0,1-.14.7,2.34,2.34,0,0,1,.21.91c0,.48-.07.76-.07.85s.28.42.42,1.26l-.07.14v.07c.14,1.92.21,2.94.21,3.1v.35c0,.7-.19,1-.56,1a3.38,3.38,0,0,1-1.62.35c-1.11,0-1.77-.22-2-.7a16.91,16.91,0,0,1-1.76-6.54c-.05-.14-.56-.23-1.54-.28h-.42c-.06,0-.13.09-.21.28l.07.14v.43a4.41,4.41,0,0,1-.22,1.12,3.91,3.91,0,0,0,.22,1.05,6,6,0,0,1-.64,1.55c0,.88-.16,1.39-.49,1.55a1.67,1.67,0,0,1-.84.42,2.15,2.15,0,0,1-2.39-1.62v-.84a29.54,29.54,0,0,1,.49-4.85c0-.27,0-.86-.07-1.76.37-2,.91-5.4,1.62-10.05a32.29,32.29,0,0,0,.91-4.72,2.24,2.24,0,0,1,1.34-1.12c.15-.56.82-.84,2-.84Zm-.77,8q-.35,3.12-.84,5.63v.14a9.21,9.21,0,0,0,.07,1.26,9.67,9.67,0,0,0-.21,1.83c.47.05.82.07,1.05.07h.63v-.07c0-.23-.05-.76-.14-1.55a10.13,10.13,0,0,0,.21-1.82v-.36a21.38,21.38,0,0,0-.7-5.13Z" transform="translate(-20.94 -278.74)"/><path class="cls-1" d="M163.6,379.29c1.51.23,2.72.4,3.65.49A2.36,2.36,0,0,1,168,381a2,2,0,0,1-1.62,2,5.68,5.68,0,0,1-1.76.29h-2a3.18,3.18,0,0,0-.07.56,17.93,17.93,0,0,1,.5,2.53,3.31,3.31,0,0,1-.22.84,3.87,3.87,0,0,1,.43,1.06l-.14,1,.28,3.17a6.74,6.74,0,0,0-.14.91,12.15,12.15,0,0,1,.21,1.48,13.36,13.36,0,0,0-.14,1.54v.29c.08,1.84.14,2.83.14,2.95l-.07.63a7,7,0,0,1,.35,2v.14c-.14,1-.21,1.67-.21,1.9a16,16,0,0,1,.42,2.25c0,.61-1.11,1-3.31,1.26-.86,0-1.38-.19-1.61-.56-.62-.93-.92-3.35-.92-7.24-.05,0-.07-.19-.07-.56,0-.56.09-.85.14-.85l-.07-.7v-1.34a11.27,11.27,0,0,0-.21-2.32l.14-1.19c-.23-1.71-.42-5.08-.56-10.13-.42-.08-1.39-.22-2.88-.42a.88.88,0,0,1-.42-.7c.08-1.14.65-1.74,1.68-1.78a40.66,40.66,0,0,1,5.14-.61c0-.05.07-.07.21-.07a.55.55,0,0,1,.28.07,8,8,0,0,1,1-.07h.71Z" transform="translate(-20.94 -278.74)"/><path class="cls-1" d="M176,381.06c.14,0,.29.37.45,1.09l-.38,1.69c.05.39.07.6.07.65a20,20,0,0,0-.39,3.06,12.48,12.48,0,0,0-1.11,3.11c-.16,0-.35.55-.58,1.62a6.75,6.75,0,0,1-.44,1.62,30,30,0,0,1-.58,3,4.08,4.08,0,0,1-.53,2.27.66.66,0,0,0-.07.34v.19a4.61,4.61,0,0,0,.14,1.35,13.31,13.31,0,0,0-.38,1.88v.53h.24a14.59,14.59,0,0,1,2.15-.33,9.94,9.94,0,0,1,2.9.52,1.34,1.34,0,0,1,.32.65c0,.87-.69,1.55-2.06,2.08a5.44,5.44,0,0,1-3,.77c-1.32-.12-2.59-.21-3.82-.26-1.07-.55-1.63-1.06-1.67-1.5v-.19a5,5,0,0,1,.27-1.74l-.07-.33v-.39a7.38,7.38,0,0,0,.38-2.39c.13-1.25.43-3,.9-5.33a15,15,0,0,0,.58-3.25,88.65,88.65,0,0,1,2-8.68,20.92,20.92,0,0,1-3.28-.62c-.6-.23-.67-.54-.23-1-.44-.3,0-.64,1.51-1,.91-.09,1.76-.13,2.51-.13H172a8.6,8.6,0,0,1,1.17.11A4.63,4.63,0,0,1,176,381.06Z" transform="translate(-20.94 -278.74)"/><path class="cls-1" d="M183.37,381.1a2.24,2.24,0,0,1,.88-.14c1.21.12,2.34.21,3.41.26a1.59,1.59,0,0,1,1,1.39c-.61,1.25-1.84,1.86-3.67,1.86h-.83l-.33.07v-.07l-.14.07a.54.54,0,0,0-.27-.07,2.75,2.75,0,0,0-.21,1v.14c0,.35,0,.81.07,1.39l-.33.93c.07.65.16,1,.26,1s.44,0,1-.07c1.78.41,2.66.71,2.66.86a1.07,1.07,0,0,1,.42.81,1.68,1.68,0,0,1-1.71,1.06,16.26,16.26,0,0,0-2.05.67h-.27l.07.12c0,.12,0,.19-.07.19a9.93,9.93,0,0,1,.07,1.13v1c0,.3-.05,1-.14,2.06a3.17,3.17,0,0,0,.28.93l-.07.79v.65a14.75,14.75,0,0,0,.27,3.44,8.07,8.07,0,0,0-.07,1.08v.12c0,.26.15.4.47.4a24.28,24.28,0,0,0,2.53-.14c1.09,0,1.64.27,1.64.79-.48,1.32-2,1.94-4.64,1.88-2.08.16-3.54,0-4.4-.59a32.37,32.37,0,0,1-.77-6.91c0-.7.05-1.57.14-2.59a13.85,13.85,0,0,1-.28-2.17l.14-1.53a17.68,17.68,0,0,1-.14-2.25l.33-4.31a2.11,2.11,0,0,1-.12-.6v-.26a3,3,0,0,1,.07-.65,2.5,2.5,0,0,0-.14-.6,7.15,7.15,0,0,0,.07-.93v-1.39c0-.37.49-.76,1.49-1.13.51,0,.76,0,.76-.07A13.16,13.16,0,0,1,183.37,381.1Z" transform="translate(-20.94 -278.74)"/><path class="cls-1" d="M199.37,380.55c1,0,1.48.34,1.48,1a16.37,16.37,0,0,1-1.41,3.87,1.58,1.58,0,0,1-.35.77,9.33,9.33,0,0,1-1.13,2.67,2.54,2.54,0,0,0-.28,1.06,5.83,5.83,0,0,0,1.69,2.46,3.78,3.78,0,0,1,.77,2.32c.42.28.76,1.31,1,3.09a5.67,5.67,0,0,1,.07.91v.36a4.72,4.72,0,0,1,.56,2.53,3.59,3.59,0,0,1,.35,1.4v.28l-.07.43a5.52,5.52,0,0,1,.28,1.68c0,.85-.75,1.27-2.25,1.27-1.07-.05-1.61-.28-1.61-.7a17.09,17.09,0,0,1-1.2-3.87,23.18,23.18,0,0,1-1.13-3.45h-.07a12.88,12.88,0,0,0-.21,1.83l.28,4.57v.07c0,.6-1,1.08-3.09,1.41-1.14,0-1.88-.84-2.18-2.53q-1.05-6.78-1.05-8.23l.07-.42a10.6,10.6,0,0,1-.21-2.74c0-.09,0-.62.07-1.55h.07a1.6,1.6,0,0,1-.21-.77c.05-.85.12-1.27.21-1.27s0-.23-.07-.56c0-.72.12-2.44.35-5.2v-1.55c0-.41.47-.72,1.4-.92h1.27a.45.45,0,0,0,.28-.07c1.27.18,1.9.74,1.9,1.69,0,.34.14,1.58.42,3.73v.35a11.27,11.27,0,0,0,.77-2.39,7.75,7.75,0,0,1,1.76-3,2.17,2.17,0,0,1,.92-.5Z" transform="translate(-20.94 -278.74)"/><path class="cls-1" d="M213.68,384.91a13.23,13.23,0,0,1,1,5.07c.05,0,.07.12.07.35s-.09.58-.28,1.47a20.17,20.17,0,0,1,.35,3.94v.14a24.5,24.5,0,0,1-.42,3.94,6.31,6.31,0,0,1-1.19,3.3c-.22,1-.58,1.55-1.13,1.55a1.4,1.4,0,0,1-1.48.91,9.38,9.38,0,0,1-1.75-.28,9.33,9.33,0,0,1-1.76.28h-.28c-1.22,0-2.08-.84-2.6-2.53a16.14,16.14,0,0,1-1.34-4.29c0-.33,0-.51-.07-.56l.14-1.33c0-.76-.07-1.45-.07-2v-.28c0-2.13.12-3.24.35-3.31a.46.46,0,0,1-.07-.21,17,17,0,0,1,.63-3,24,24,0,0,1,1.41-4.93,2.47,2.47,0,0,1,1.27-.91,9.58,9.58,0,0,1,3.44-.63C211.78,381.54,213,382.66,213.68,384.91Zm-4.57.21a29,29,0,0,0-.64,3.87v1.2a.82.82,0,0,1-.21.49V391a11.42,11.42,0,0,1-.14,2.32,4.09,4.09,0,0,1,.07.77v.71a37,37,0,0,0,.78,6.54H209a9.73,9.73,0,0,0,1.05-3.52,29.52,29.52,0,0,0,.28-4.22,32.94,32.94,0,0,0-.28-3.58v-.36a5.16,5.16,0,0,1,.07-.77c-.37-1.51-.7-2.76-1-3.73Z" transform="translate(-20.94 -278.74)"/><path class="cls-1" d="M334.75,317.88c.56,0,.85.58.85,1.75a14.08,14.08,0,0,1,1.19,5.14q.21,2.07.42,5.69c.06,0,.07.05.07.14l-.21,1.34a45.28,45.28,0,0,1,.56,4.78v.07a4,4,0,0,1-.07.77,9.05,9.05,0,0,1,.5,2.67,1.58,1.58,0,0,1-.28.85,21.14,21.14,0,0,0,.42,2.11c-.3,1.18-.69,1.76-1.2,1.76q0,.29-1.26.42c-1.55-.27-2.32-.62-2.32-1.06-.21,0-.5-1.95-.85-5.83h-.49c-.54,0-.83.08-.84.21.08.54.14.89.14,1.05a2.21,2.21,0,0,0-.07.42,1.21,1.21,0,0,1,.21.57V341l-.35,1.33c0,.74-.2,1.22-.57,1.41a4.09,4.09,0,0,1-2.11.49h-.07c-1.26,0-1.89-.19-1.89-.56-.27,0-.64-1.13-1.13-3.38q-.42-.92-.91-7.8l.14-5.55a6.19,6.19,0,0,1-.07-.92c.05-.9.07-1.49.07-1.76-.06-.86-.07-1.4-.07-1.61.08-1,.14-1.57.14-1.69a4.93,4.93,0,0,1-.21-1.2c0-.38.61-.73,1.82-1a8.4,8.4,0,0,0,2.11.28c.79,0,1.32,1.53,1.55,4.57.19,1.14.41,3.27.63,6.4.06,0,.09.16.14.49a3.22,3.22,0,0,0-.14,1,5.17,5.17,0,0,1,.21,1.33c0,.41,0,1.28-.07,2.67.06.51.16.78.29.78a1.74,1.74,0,0,0,1.26-.64h.07v-.49a31.9,31.9,0,0,0-.49-4.43c.09-.93.14-1.49.14-1.69a17.06,17.06,0,0,1-.28-2.88v-1.33c0-1.25,0-2.66.07-4.22a10.68,10.68,0,0,1-.07-1.48,1.93,1.93,0,0,1,1.83-1.19Z" transform="translate(-20.94 -278.74)"/><path class="cls-1" d="M343.93,319.05a2.17,2.17,0,0,1,.88-.14c1.21.13,2.33.21,3.41.27a1.59,1.59,0,0,1,1,1.38c-.62,1.25-1.85,1.87-3.68,1.87h-.82l-.34.07v-.07l-.14.07a.51.51,0,0,0-.26-.07,2.66,2.66,0,0,0-.21,1v.14a13.15,13.15,0,0,0,.07,1.39l-.34.93c.07.65.16,1,.27,1s.44,0,1-.07c1.77.4,2.65.7,2.65.86a1.05,1.05,0,0,1,.42.81,1.68,1.68,0,0,1-1.7,1.05,16.09,16.09,0,0,0-2.06.67h-.26l.07.12c0,.13,0,.2-.07.2.05.52.07.89.07,1.12v1c0,.3-.05,1-.14,2.06a2.82,2.82,0,0,0,.28.93l-.07.79v.65a15.55,15.55,0,0,0,.26,3.45,10.2,10.2,0,0,0-.07,1.07v.12c0,.27.16.41.48.41.82,0,1.67-.06,2.53-.14,1.09,0,1.63.26,1.63.79-.47,1.32-2,1.93-4.64,1.88-2.07.16-3.53,0-4.39-.6a32.39,32.39,0,0,1-.78-6.91c0-.7.06-1.56.14-2.58a15.74,15.74,0,0,1-.28-2.18l.14-1.53a20,20,0,0,1-.14-2.25l.34-4.31a2.18,2.18,0,0,1-.13-.59v-.27a3,3,0,0,1,.07-.65,2.08,2.08,0,0,0-.14-.6,5.66,5.66,0,0,0,.07-.93v-1.39c0-.37.5-.75,1.5-1.12.51,0,.75,0,.75-.07A12.93,12.93,0,0,1,343.93,319.05Z" transform="translate(-20.94 -278.74)"/><path class="cls-1" d="M360.5,321.78a14.76,14.76,0,0,1,.43,3.37c0,.51-.71.78-2.11.78a3.11,3.11,0,0,1-1.83-.85,9.1,9.1,0,0,1-.7-2.11c-.9-1.18-1.57-1.76-2-1.76v.5a10.21,10.21,0,0,0,.77,3.09,43.69,43.69,0,0,1,3.23,6.61,26,26,0,0,0,.85,3.16c.23,1.25.35,1.92.35,2v.5c0,.61.05,1.4.14,2.39a9.71,9.71,0,0,0-.28,2.18,10.06,10.06,0,0,1-2,3.16c-.3.56-1,.84-2,.84a1,1,0,0,0-.49.07,3.32,3.32,0,0,1-3.45-2,5.31,5.31,0,0,1-1.12-2.39,2.59,2.59,0,0,1-.49-1.54v-.5c0-.89.47-1.33,1.4-1.33,0-.09.16-.12.5-.14,1,0,1.88.89,2.46,2.67a4.48,4.48,0,0,0,.91,2.11h.07c.14-.81.23-1.51.28-2.11a15.46,15.46,0,0,0-.7-4v-.84c-.27-.16-.53-.85-.77-2a8.91,8.91,0,0,1-1.13-2.6,14.4,14.4,0,0,1-2.25-5.21c-.28-1.37-.42-2.14-.42-2.32v-.77a.55.55,0,0,1,.07-.28,5.52,5.52,0,0,1-.14-1,3.72,3.72,0,0,1,1.54-2.33,5.94,5.94,0,0,1,3.73-1.33C357.46,317.63,359.15,319,360.5,321.78Z" transform="translate(-20.94 -278.74)"/><path class="cls-1" d="M372.33,321.78a14.76,14.76,0,0,1,.43,3.37c0,.51-.71.78-2.11.78a3.11,3.11,0,0,1-1.83-.85,9.63,9.63,0,0,1-.7-2.11c-.9-1.18-1.57-1.76-2-1.76v.5a10.21,10.21,0,0,0,.77,3.09,43.69,43.69,0,0,1,3.23,6.61,26,26,0,0,0,.85,3.16c.23,1.25.35,1.92.35,2v.5c0,.61,0,1.4.14,2.39a9.71,9.71,0,0,0-.28,2.18,10.06,10.06,0,0,1-2,3.16c-.3.56-.95.84-2,.84a1,1,0,0,0-.49.07,3.32,3.32,0,0,1-3.45-2,5.31,5.31,0,0,1-1.12-2.39,2.66,2.66,0,0,1-.49-1.54v-.5c0-.89.47-1.33,1.4-1.33,0-.09.16-.12.5-.14,1.05,0,1.88.89,2.46,2.67a4.48,4.48,0,0,0,.91,2.11h.07c.14-.81.23-1.51.28-2.11a15.46,15.46,0,0,0-.7-4v-.84c-.26-.16-.53-.85-.77-2a8.91,8.91,0,0,1-1.13-2.6,14.4,14.4,0,0,1-2.25-5.21c-.28-1.37-.42-2.14-.42-2.32v-.77a.55.55,0,0,1,.07-.28,5.52,5.52,0,0,1-.14-1,3.72,3.72,0,0,1,1.54-2.33,5.94,5.94,0,0,1,3.73-1.33C369.29,317.63,371,319,372.33,321.78Z" transform="translate(-20.94 -278.74)"/><path class="cls-1" d="M383.34,336.35h-8.16v-2.72h8.16Z" transform="translate(-20.94 -278.74)"/><path class="cls-1" d="M391,319.05a2.24,2.24,0,0,1,.88-.14c1.22.13,2.34.21,3.41.27a1.57,1.57,0,0,1,1,1.38c-.61,1.25-1.84,1.87-3.67,1.87h-.83l-.33.07v-.07l-.14.07a.54.54,0,0,0-.27-.07,2.66,2.66,0,0,0-.21,1v.14c0,.35,0,.81.07,1.39l-.33.93c.07.65.16,1,.26,1s.44,0,1-.07c1.78.4,2.66.7,2.66.86a1.05,1.05,0,0,1,.42.81,1.68,1.68,0,0,1-1.71,1.05,16.26,16.26,0,0,0-2.05.67h-.27l.07.12c0,.13,0,.2-.07.2a9.67,9.67,0,0,1,.07,1.12v1c0,.3-.05,1-.14,2.06a2.82,2.82,0,0,0,.29.93l-.08.79v.65a14.79,14.79,0,0,0,.27,3.45,10.2,10.2,0,0,0-.07,1.07v.12c0,.27.16.41.47.41.83,0,1.67-.06,2.53-.14,1.09,0,1.64.26,1.64.79-.48,1.32-2,1.93-4.64,1.88-2.08.16-3.54,0-4.4-.6a32.37,32.37,0,0,1-.77-6.91c0-.7.05-1.56.14-2.58a14.25,14.25,0,0,1-.28-2.18l.14-1.53a17.48,17.48,0,0,1-.14-2.25l.33-4.31a2.49,2.49,0,0,1-.12-.59v-.27a3,3,0,0,1,.07-.65,2.5,2.5,0,0,0-.14-.6,7,7,0,0,0,.07-.93v-1.39c0-.37.49-.75,1.49-1.12.51,0,.76,0,.76-.07A12.65,12.65,0,0,1,391,319.05Z" transform="translate(-20.94 -278.74)"/><path class="cls-1" d="M408.91,317.45c.76,0,1.13.27,1.13.78a4.43,4.43,0,0,1,.21,1.54,9.18,9.18,0,0,1,.56,1.48l-.14,3.3a12.77,12.77,0,0,1,.21,2.54v.07a3.75,3.75,0,0,1-.21,1.4,10.31,10.31,0,0,1,.14,1.9v.07a5.88,5.88,0,0,1-.21,1.83c0,.4.07.67.07.77a18.84,18.84,0,0,1-.28,4.08c.05.93.07,1.53.07,1.83a14.79,14.79,0,0,1-.21,1.48l.07,1c0,1.3-1.28,2.21-3.87,2.74-.74,0-1.39-.49-2-1.47-.19-.76-.65-2.27-1.4-4.5L402,334.54H402c-.05.47-.07.83-.07,1v.29c.09,2.46.14,3.81.14,4.07a14.16,14.16,0,0,1-.35,3.24,3.21,3.21,0,0,1-1.76.63c-1.63,0-2.46-.9-2.46-2.67.14-2,.21-3.18.21-3.45a25.08,25.08,0,0,1-.28-2.81c0-.16.06-.47.14-1l-.07-.43a8.8,8.8,0,0,0,.07-1.12,17.45,17.45,0,0,0-.14-1.83q.35-3.87.57-7.87c-.06-1-.07-1.6-.07-2,0-1.18.22-1.76.7-1.76a2.34,2.34,0,0,1,1.05-.21q2.82,0,2.82.63a3.65,3.65,0,0,0,.91,1.34,9,9,0,0,1,.63,1.61,3.25,3.25,0,0,1,.71,2.25,3.41,3.41,0,0,1,.84,2.54,9.05,9.05,0,0,1,.91,3.58q.21.06.21.78h.07c0-.34.13-1.67.36-4a13.71,13.71,0,0,1,.07-2.11,4,4,0,0,1-.07-.92V324a2,2,0,0,1,.07-.63,2.92,2.92,0,0,1-.07-.7v-.92a19.61,19.61,0,0,0,.21-2v-1.47q0-.62,1.26-.78Zm-2.32,14.28v.21h.07v-.21Z" transform="translate(-20.94 -278.74)"/><path class="cls-1" d="M423.57,318l.14.07c.06,0,.08,0,.08-.07l.35.07c.08,0,.14,0,.14-.07,1.7.16,2.58.62,2.67,1.34l.42,4.57v1.12a27.45,27.45,0,0,1-.28,3.52,13.49,13.49,0,0,1,.14,1.55v2.6a11.73,11.73,0,0,1-.07,1.33,5.81,5.81,0,0,1,.07,1.13c0,.19-.09.86-.28,2l.28,2.81a5.61,5.61,0,0,0-.14,1.06v.07a8.08,8.08,0,0,0,2.74.84,2.1,2.1,0,0,1,.56,1.27c0,.42-.33.7-1,.84a3,3,0,0,1-1.69.49h-.28l-.42-.07a1.81,1.81,0,0,1-.7.14c-2.43,0-4-.49-4.71-1.47a7.43,7.43,0,0,1-.36-1.83c0-.72,0-1.88.07-3.45,0-.07,0-.4-.07-1a10.82,10.82,0,0,0,.07-1.62h.07a5.54,5.54,0,0,1-.14-1.48v-1a4.26,4.26,0,0,1,.14-1.27.4.4,0,0,1-.07-.21c0-.19.06-.67.14-1.4a10.29,10.29,0,0,1-.14-1.62V328a25.82,25.82,0,0,1,.5-5.14,13.41,13.41,0,0,1,.35-3.09,4.53,4.53,0,0,1-.14-.63c0-.44.47-.81,1.4-1.13Z" transform="translate(-20.94 -278.74)"/><path class="cls-1" d="M436.65,319.05a2.2,2.2,0,0,1,.88-.14c1.21.13,2.34.21,3.41.27a1.57,1.57,0,0,1,1,1.38c-.61,1.25-1.84,1.87-3.67,1.87h-.83l-.33.07v-.07l-.14.07a.54.54,0,0,0-.27-.07,2.66,2.66,0,0,0-.21,1v.14c0,.35,0,.81.07,1.39l-.33.93c.07.65.16,1,.26,1s.44,0,1-.07c1.78.4,2.66.7,2.66.86a1.05,1.05,0,0,1,.42.81,1.68,1.68,0,0,1-1.71,1.05,16.26,16.26,0,0,0-2,.67h-.27l.07.12c0,.13,0,.2-.07.2.05.52.07.89.07,1.12v1c0,.3,0,1-.14,2.06a2.82,2.82,0,0,0,.28.93l-.07.79v.65a14.79,14.79,0,0,0,.27,3.45,8,8,0,0,0-.07,1.07v.12c0,.27.15.41.47.41.83,0,1.67-.06,2.53-.14,1.09,0,1.64.26,1.64.79-.48,1.32-2,1.93-4.64,1.88-2.08.16-3.54,0-4.4-.6a32.37,32.37,0,0,1-.77-6.91c0-.7.05-1.56.14-2.58a14.25,14.25,0,0,1-.28-2.18l.14-1.53a17.48,17.48,0,0,1-.14-2.25l.33-4.31a2.06,2.06,0,0,1-.12-.59v-.27a3,3,0,0,1,.07-.65,2.5,2.5,0,0,0-.14-.6,7,7,0,0,0,.07-.93v-1.39c0-.37.49-.75,1.49-1.12.51,0,.76,0,.76-.07A12.79,12.79,0,0,1,436.65,319.05Z" transform="translate(-20.94 -278.74)"/><path class="cls-1" d="M450,317.17A4.19,4.19,0,0,1,454.2,320a3.6,3.6,0,0,1,.07.64,2,2,0,0,1-.14.77,13.46,13.46,0,0,1,.14,1.34,5.63,5.63,0,0,0-.14,1l.07.85a1.68,1.68,0,0,0-.15.56c.09.42.16.63.22.63l-.22,1a4.25,4.25,0,0,1,.22,1.13c0,.76-.65,1.12-2,1.12s-2.06-.43-2.39-1.33a2.57,2.57,0,0,1-.36-1.27v-.77c0-.05,0-.07.08-.07l-.08-.14c0-.46-.08-1.79-.28-4a5,5,0,0,0,.07-1v-.35h-.07c-.42.15-.63.59-.63,1.33l-1.12,3.66.07.35v.42l-.29,2.25L447,329.2a5.31,5.31,0,0,1,.21.91,4,4,0,0,0-.21,1.48,9.07,9.07,0,0,1,4.93-1.34H452l.35.07v-.07l.14.07h.07c1.33,0,2.05.26,2.18.77a3.84,3.84,0,0,0,.56,2,16.93,16.93,0,0,0,.49,3.52,32.51,32.51,0,0,1,.49,3.44.8.8,0,0,1-.28.5v.63a2,2,0,0,1-.21.77c.14,1.46.21,2.45.21,3,0,.29-.37.52-1.12.7v-.07l-.14.07A2.5,2.5,0,0,1,453,345a3.32,3.32,0,0,1-.35-1.06,6,6,0,0,1-3.66,1.48h-.07a2.54,2.54,0,0,1-.77-.21,1,1,0,0,1-.42.14h-.43a.55.55,0,0,1-.28-.07,7.13,7.13,0,0,1-1.19.21c-.37,0-1-.93-1.76-2.81a7.77,7.77,0,0,1-1-3.8c0-.05,0-.07.07-.07-.14-1.69-.21-2.83-.21-3.45V335a3.42,3.42,0,0,0-.07-.63.81.81,0,0,0,.07-.42c0-.06,0-.07-.07-.07l.07-.36a85.41,85.41,0,0,1,1.19-10.54,8.18,8.18,0,0,1,1.69-3.87,4.67,4.67,0,0,1,3.72-1.9Zm-3,16.31-.07.43a.44.44,0,0,1,.07.28l-.07.35a1.56,1.56,0,0,1,.07.49.36.36,0,0,1-.07.21c0,.05,0,.07.07.07,0,.41-.07.67-.07.78a13.93,13.93,0,0,0,.14,1.4,4,4,0,0,0-.14.85,15.29,15.29,0,0,0,.85,3.3c0,.09.05.14.14.14a3.2,3.2,0,0,0,.77-1.9,6.17,6.17,0,0,0,.63-2.18v-1.61c0-.39.09-1.32.29-2.82v-.07h-.22a6.55,6.55,0,0,1-2.39-.35Z" transform="translate(-20.94 -278.74)"/><path class="cls-1" d="M462.37,319.05a2.17,2.17,0,0,1,.88-.14c1.21.13,2.34.21,3.41.27a1.59,1.59,0,0,1,1,1.38c-.62,1.25-1.85,1.87-3.68,1.87h-.82l-.34.07v-.07l-.14.07a.48.48,0,0,0-.26-.07,2.66,2.66,0,0,0-.21,1v.14c0,.35,0,.81.07,1.39l-.34.93c.08.65.16,1,.27,1s.44,0,1-.07c1.77.4,2.65.7,2.65.86a1.05,1.05,0,0,1,.42.81,1.67,1.67,0,0,1-1.7,1.05,16.09,16.09,0,0,0-2.06.67h-.26l.07.12c0,.13,0,.2-.07.2.05.52.07.89.07,1.12v1c0,.3-.05,1-.14,2.06a2.82,2.82,0,0,0,.28.93l-.07.79v.65a15.55,15.55,0,0,0,.26,3.45,10.2,10.2,0,0,0-.07,1.07v.12c0,.27.16.41.48.41.82,0,1.67-.06,2.53-.14,1.09,0,1.63.26,1.63.79-.47,1.32-2,1.93-4.64,1.88-2.07.16-3.53,0-4.39-.6a32.39,32.39,0,0,1-.78-6.91c0-.7.06-1.56.15-2.58a13.79,13.79,0,0,1-.29-2.18l.14-1.53a20,20,0,0,1-.14-2.25l.34-4.31a2.06,2.06,0,0,1-.12-.59v-.27a2.49,2.49,0,0,1,.07-.65,2.36,2.36,0,0,0-.15-.6,5.82,5.82,0,0,0,.08-.93v-1.39c0-.37.49-.75,1.49-1.12.51,0,.76,0,.76-.07A12.93,12.93,0,0,1,462.37,319.05Z" transform="translate(-20.94 -278.74)"/><path class="cls-1" d="M474.81,318.42c.8,0,1.69,1,2.68,3a3.22,3.22,0,0,0,.7,1.76,16.6,16.6,0,0,0,.49,2,5.62,5.62,0,0,1,.35,1.55.9.9,0,0,1-.14.42c.2,0,.35.72.49,2.18a10.41,10.41,0,0,1,.57,3.3,6.5,6.5,0,0,1,.28,1.48l-.21,1.27a3.91,3.91,0,0,1,.28,1,4.62,4.62,0,0,1-.14.7,2.42,2.42,0,0,1,.21.92c-.05.47-.07.75-.07.84s.28.42.42,1.27l-.07.14v.07c.14,1.91.21,2.93.21,3.09v.35c0,.71-.19,1.06-.56,1.06a3.38,3.38,0,0,1-1.62.35c-1.11,0-1.77-.23-2-.7A16.81,16.81,0,0,1,475,338c-.06-.14-.57-.23-1.55-.28H473c-.06,0-.13.08-.21.28l.07.14v.42a4.34,4.34,0,0,1-.22,1.12,3.94,3.94,0,0,0,.22,1.06,6.29,6.29,0,0,1-.64,1.55c0,.87-.16,1.38-.49,1.54a1.67,1.67,0,0,1-.84.42,2.15,2.15,0,0,1-2.39-1.61v-.85a29.75,29.75,0,0,1,.49-4.85c0-.26,0-.86-.07-1.76.37-2,.91-5.39,1.62-10a32.27,32.27,0,0,0,.91-4.71,2.22,2.22,0,0,1,1.34-1.13c.15-.56.82-.84,2-.84Zm-.77,8c-.23,2.07-.51,3.95-.84,5.62v.14a9.26,9.26,0,0,0,.07,1.27,9.58,9.58,0,0,0-.21,1.82,8.63,8.63,0,0,0,1.05.08h.63v-.08c0-.22-.05-.75-.14-1.54a10.32,10.32,0,0,0,.21-1.83v-.35a21.25,21.25,0,0,0-.7-5.13Z" transform="translate(-20.94 -278.74)"/><path class="cls-1" d="M332,377.38l.5-.07c1.4,0,2.11.21,2.11.64,0,.79-.3,1.24-.92,1.4a12.47,12.47,0,0,1-2.25.7l-.14-.07s-.07,0-.07.07l-.49-.07h-1.27v.07c.2.62.55,1.55,1.06,2.82l-.07.49v.21c.05.42.17.63.35.63.46,0,1.3,0,2.53-.07.56,0,.84.21.84.64V385c0,.82-1,1.42-3.09,1.82H331V387a21,21,0,0,1,.35,3.09v1.62a6.82,6.82,0,0,1-.14,1.26c.05.63.07,1.11.07,1.41,0,.1,0,.37-.07.77a5.76,5.76,0,0,1,.42,1.41c-.19,2-.28,3.3-.28,3.79.2,1.82.44,2.85.7,3.1v.21c0,1.27-.22,1.9-.7,1.9q0,.15-.63.21h-.21a7.76,7.76,0,0,1-4.36-1.41,4.48,4.48,0,0,1-.42-2.39,24,24,0,0,1-.35-4.15c-.09,0-.15-.19-.15-.56s0-.83.07-1.33c-.08-.94-.15-2.55-.21-4.86a5.54,5.54,0,0,0,.07-1,14.83,14.83,0,0,1-.28-2.11c.06-1.88.07-3.16.07-3.87a4,4,0,0,0-.21-1.54,9,9,0,0,0,.07-1.13V381c0-.05,0-.07.07-.07a7.88,7.88,0,0,1-.49-2c0-.28.48-.55,1.41-.77l4.92-.57c0-.08.23-.12.7-.14h.49c.06,0,.07,0,.07-.07S332,377.33,332,377.38Z" transform="translate(-20.94 -278.74)"/><path class="cls-1" d="M345.42,382.87a13.19,13.19,0,0,1,1,5.06s.07.12.07.35-.09.58-.28,1.48a20.9,20.9,0,0,1,.35,3.94v.14a24.28,24.28,0,0,1-.42,3.93,6.37,6.37,0,0,1-1.2,3.31c-.21,1-.58,1.55-1.13,1.55a1.4,1.4,0,0,1-1.47.91,10.28,10.28,0,0,1-1.76-.28,10.28,10.28,0,0,1-1.76.28h-.28c-1.21,0-2.07-.84-2.6-2.53a16.26,16.26,0,0,1-1.34-4.29c0-.34,0-.51-.07-.56l.14-1.34c-.05-.76-.07-1.44-.07-2v-.28c0-2.13.13-3.23.36-3.3a.37.37,0,0,1-.07-.22,17,17,0,0,1,.63-3,23.62,23.62,0,0,1,1.4-4.92,2.39,2.39,0,0,1,1.27-.91,9.43,9.43,0,0,1,3.45-.64C343.52,379.49,344.79,380.62,345.42,382.87Zm-4.57.21a31,31,0,0,0-.63,3.87v1.19a.78.78,0,0,1-.21.49v.28a11.35,11.35,0,0,1-.14,2.32,5.17,5.17,0,0,1,.07.78v.7a36.85,36.85,0,0,0,.77,6.54h.07a9.42,9.42,0,0,0,1.06-3.52,30.9,30.9,0,0,0,.28-4.21,35.72,35.72,0,0,0-.28-3.59v-.35a4.12,4.12,0,0,1,.07-.78c-.37-1.51-.71-2.76-1-3.72Z" transform="translate(-20.94 -278.74)"/><path class="cls-1" d="M356.18,377.58c.83.8,1.42,2.49,1.83,5.06.05.82.07,1.32.07,1.48q-.56,5.47-1,5.48a6,6,0,0,1-1,1.69,13.63,13.63,0,0,0-1.55,1.4l-.07.14a9.83,9.83,0,0,1,2.25,3.73,8.07,8.07,0,0,0,1.06,2.39c0,.18.44,1.57,1.33,4.15a5,5,0,0,1,.14,1.19v.22c0,.65-.23,1-.7,1.19a10.44,10.44,0,0,1-1.55.35c-1,0-1.75-.63-2.18-1.9a18.81,18.81,0,0,0-1.4-2.88,9.8,9.8,0,0,0-.92-2.6,2.14,2.14,0,0,1-.21-.7h-.07c0,.19-.05.68-.14,1.47,0,.57.07.85.14.85a3.07,3.07,0,0,0-.14,1.12v1.34a3.42,3.42,0,0,1-.07.63,4,4,0,0,1,.28,1.41c0,.52-.58.86-1.76,1s-1.67-.21-1.82-.63a32.86,32.86,0,0,1-1-9l-.35-4.08.14-1.27a12.61,12.61,0,0,1-.14-1.82v-.64c0-.59,0-1.24.07-2a2.22,2.22,0,0,1-.07-.57l.14-.84a16.31,16.31,0,0,1-.14-2.18,12.16,12.16,0,0,1,1-4.08q.22,0,.57-1.05a4.7,4.7,0,0,1,3.16-1.41l.92-.07C354.58,376.17,355.67,376.64,356.18,377.58Zm-4.78,3.93a26.93,26.93,0,0,0,.35,3.73v.35a3.42,3.42,0,0,1-.07.63,9,9,0,0,1,.28,2.54l.07.28c1.07-.93,1.62-2.82,1.62-5.63,0-2.41-.49-4-1.48-4.92h-.07c-.4,0-.63.9-.7,2.67Zm.7,16.25v.14h.07v-.14Z" transform="translate(-20.94 -278.74)"/><path class="cls-1" d="M366.94,381.69a27.12,27.12,0,0,1,1.54,4.15h.07c1.53-3.64,2.48-5.64,2.89-6a4.47,4.47,0,0,1,2.88-.77h.28c.37,0,.56.3.56.91,0,.14.07.76.22,1.83a12.11,12.11,0,0,1-.15,1.41l.57,6.89v1.05a5.17,5.17,0,0,1-.07.78,3.41,3.41,0,0,1,.28.91,4.82,4.82,0,0,0-.28,1.41v.28a30,30,0,0,1,.42,4.29c0,3.46-.12,5.2-.35,5.2a2,2,0,0,1-1.27.7,3.34,3.34,0,0,1-2.74-1.69v-2.53a5.58,5.58,0,0,1,.07-.91l-.14-2a8.32,8.32,0,0,0,.07-1.12l-.28-3.59.14-1.41v-.07h-.07a10,10,0,0,1-1.06,3.52,3.9,3.9,0,0,1-1.12.56c-1.55,0-2.32-.19-2.32-.56a12.25,12.25,0,0,1-.63-2.81h-.07v.14c.05.81.07,1.28.07,1.4,0,1.27-.13,3-.36,5.35a5.78,5.78,0,0,1,.21,1.19c0,.18-.07.74-.21,1.69l.07.14c0,.76-.93,1.21-2.81,1.34H361.8c-.89,0-1.33-1.46-1.33-4.36-.05,0-.07-.16-.07-.5.05-2.26.12-3.95.21-5.06,0-1.91-.05-3.78-.14-5.62,0-.27.09-1.29.28-3.1v-.91a.68.68,0,0,1,.07-.35l-.07-.35c0-3,.23-4.5.7-4.5a7.74,7.74,0,0,1,1.48-.21C364.21,378.46,365.55,379.53,366.94,381.69Zm-.64,10.19v.22h.08v-.22Z" transform="translate(-20.94 -278.74)"/><path class="cls-1" d="M383.53,378.42c.79,0,1.69,1,2.67,3a3.25,3.25,0,0,0,.71,1.76,16.6,16.6,0,0,0,.49,2,5.62,5.62,0,0,1,.35,1.55.9.9,0,0,1-.14.42c.19,0,.35.72.49,2.18a10.4,10.4,0,0,1,.56,3.3,6.43,6.43,0,0,1,.29,1.48l-.22,1.27a3.67,3.67,0,0,1,.29,1,6.55,6.55,0,0,1-.14.7,2.42,2.42,0,0,1,.21.92,7.42,7.42,0,0,0-.07.84c.14,0,.28.42.42,1.27l-.07.14v.07c.14,1.91.21,2.93.21,3.09v.35c0,.71-.2,1.06-.56,1.06a3.41,3.41,0,0,1-1.62.35c-1.11,0-1.78-.23-2-.7a17,17,0,0,1-1.76-6.54c-.05-.14-.56-.23-1.54-.28h-.43c-.05,0-.12.08-.21.28l.07.14v.42a4.68,4.68,0,0,1-.21,1.12,5,5,0,0,0,.21,1.06,6.6,6.6,0,0,1-.63,1.55c0,.87-.16,1.38-.49,1.54a1.66,1.66,0,0,1-.85.42,2.16,2.16,0,0,1-2.39-1.61v-.85a29.94,29.94,0,0,1,.5-4.85c0-.26,0-.86-.07-1.76.36-2,.91-5.39,1.61-10a31.48,31.48,0,0,0,.92-4.71,2.23,2.23,0,0,1,1.33-1.13c.16-.56.83-.84,2-.84Zm-.77,8c-.23,2.07-.51,3.95-.85,5.62v.14a11.18,11.18,0,0,0,.07,1.27,9.58,9.58,0,0,0-.21,1.82,8.9,8.9,0,0,0,1.06.08h.63v-.08c0-.22,0-.75-.14-1.54a10.32,10.32,0,0,0,.21-1.83v-.35a21.76,21.76,0,0,0-.7-5.13Z" transform="translate(-20.94 -278.74)"/><path class="cls-1" d="M398.88,379c.14,0,.3.37.45,1.09l-.38,1.68c.05.39.07.6.07.66a21,21,0,0,0-.39,3.05,13,13,0,0,0-1.11,3.12c-.15,0-.35.54-.58,1.61a6.63,6.63,0,0,1-.44,1.62,29.84,29.84,0,0,1-.58,3,4.22,4.22,0,0,1-.52,2.27.54.54,0,0,0-.07.33v.19a4.31,4.31,0,0,0,.14,1.36,12.28,12.28,0,0,0-.39,1.88v.52h.25a15.93,15.93,0,0,1,2.14-.33,9.31,9.31,0,0,1,2.9.53,1.26,1.26,0,0,1,.32.65c0,.86-.69,1.55-2.06,2.07a5.45,5.45,0,0,1-3,.78c-1.32-.13-2.58-.21-3.81-.27-1.08-.54-1.64-1.05-1.67-1.49v-.2a5.14,5.14,0,0,1,.26-1.74l-.07-.33v-.39a7.39,7.39,0,0,0,.39-2.39c.12-1.24.42-3,.89-5.32a15,15,0,0,0,.58-3.25,85.9,85.9,0,0,1,2-8.69,21.71,21.71,0,0,1-3.29-.61c-.6-.23-.67-.55-.23-1-.44-.3,0-.63,1.51-1,.92-.09,1.76-.12,2.52-.12h.14a8.22,8.22,0,0,1,1.16.1A4.66,4.66,0,0,1,398.88,379Z" transform="translate(-20.94 -278.74)"/><path class="cls-1" d="M408,378.53a3.6,3.6,0,0,1-1.47,2.46,8.94,8.94,0,0,1-2.34.33c-1.58,0-2.46-.51-2.66-1.44l-.19-1.21a3.76,3.76,0,0,1,.69-1.41,10.53,10.53,0,0,1,3.23-.49C407.07,376.77,408,377.35,408,378.53Zm-3.44,5.34c1.46,0,2.3.61,2.53,1.83a10.51,10.51,0,0,1,.35,2.25,3.18,3.18,0,0,1-.21.77,1.73,1.73,0,0,1,.21.91V390a4,4,0,0,1-.28,1.47l.07.35v.43c0,.33-.07,1.14-.21,2.46a13.44,13.44,0,0,0,.21,1.9,10.61,10.61,0,0,1-.35,2l.56,5.63v.35c0,.44-.47.72-1.41.85a4.69,4.69,0,0,1-2,.35h-.35c-.79,0-1.24-.27-1.4-.78-.34-.23-.5-.86-.5-1.9l-.42-5.55c0-.32.06-1.09.14-2.32l-.14-2.67c.09-1.29.27-2.9.5-4.85.05-.65.07-1.36.07-2.11V385c0-.36.42-.72,1.26-1.05a4.32,4.32,0,0,1,.84-.07Z" transform="translate(-20.94 -278.74)"/><path class="cls-1" d="M419.29,382.87a13.18,13.18,0,0,1,1,5.06c.05,0,.07.12.07.35s-.09.58-.28,1.48a20.1,20.1,0,0,1,.35,3.94v.14a24.28,24.28,0,0,1-.42,3.93,6.37,6.37,0,0,1-1.2,3.31c-.21,1-.58,1.55-1.12,1.55a1.41,1.41,0,0,1-1.48.91,10.28,10.28,0,0,1-1.76-.28,10.37,10.37,0,0,1-1.75.28h-.29c-1.21,0-2.07-.84-2.6-2.53a15.94,15.94,0,0,1-1.33-4.29c0-.34,0-.51-.07-.56l.14-1.34c-.06-.76-.07-1.44-.07-2v-.28c0-2.13.12-3.23.35-3.3a.46.46,0,0,1-.07-.22,17,17,0,0,1,.63-3,24,24,0,0,1,1.41-4.92,2.38,2.38,0,0,1,1.26-.91,9.43,9.43,0,0,1,3.45-.64C417.39,379.49,418.65,380.62,419.29,382.87Zm-4.58.21a31,31,0,0,0-.63,3.87v1.19a.78.78,0,0,1-.21.49v.28a11.35,11.35,0,0,1-.14,2.32,5.17,5.17,0,0,1,.07.78v.7a36.85,36.85,0,0,0,.77,6.54h.07a9.42,9.42,0,0,0,1.06-3.52,30.9,30.9,0,0,0,.28-4.21,35.72,35.72,0,0,0-.28-3.59v-.35a5.17,5.17,0,0,1,.07-.78c-.37-1.51-.7-2.76-1-3.72Z" transform="translate(-20.94 -278.74)"/><path class="cls-1" d="M435.44,379.05a2.17,2.17,0,0,1,.88-.14c1.21.13,2.34.21,3.41.27a1.59,1.59,0,0,1,1,1.38c-.62,1.25-1.85,1.87-3.68,1.87h-.82l-.34.07v-.07l-.14.07a.48.48,0,0,0-.26-.07,2.66,2.66,0,0,0-.21,1v.14c0,.35,0,.81.07,1.39l-.33.93c.07.65.15,1,.26,1s.44,0,1-.07c1.77.4,2.65.7,2.65.86a1.05,1.05,0,0,1,.42.81,1.67,1.67,0,0,1-1.7,1.05,16.09,16.09,0,0,0-2.06.67h-.26l.07.12c0,.13,0,.2-.07.2.05.52.07.89.07,1.12v1c0,.3-.05,1-.14,2.06a2.82,2.82,0,0,0,.28.93l-.07.79v.65a15.55,15.55,0,0,0,.26,3.45,10.2,10.2,0,0,0-.07,1.07v.12c0,.27.16.41.48.41.82,0,1.67-.06,2.53-.14,1.09,0,1.63.26,1.63.79-.47,1.32-2,1.93-4.64,1.88-2.07.16-3.53,0-4.39-.6a32.37,32.37,0,0,1-.77-6.91c0-.7,0-1.56.14-2.58a13.79,13.79,0,0,1-.29-2.18l.15-1.53a16.34,16.34,0,0,1-.15-2.25l.34-4.31a2.06,2.06,0,0,1-.12-.59v-.27a2.49,2.49,0,0,1,.07-.65,3.13,3.13,0,0,0-.14-.6,7,7,0,0,0,.07-.93v-1.39c0-.37.49-.75,1.49-1.12.51,0,.76,0,.76-.07A12.93,12.93,0,0,1,435.44,379.05Z" transform="translate(-20.94 -278.74)"/><path class="cls-1" d="M453.37,377.45c.76,0,1.12.27,1.12.78a4.54,4.54,0,0,1,.22,1.54,9.18,9.18,0,0,1,.56,1.48l-.14,3.3a12.77,12.77,0,0,1,.21,2.54v.07a3.75,3.75,0,0,1-.21,1.4,11.28,11.28,0,0,1,.14,1.9v.07a5.88,5.88,0,0,1-.21,1.83c.05.4.07.67.07.77a18.84,18.84,0,0,1-.28,4.08c0,.93.07,1.53.07,1.83a14.79,14.79,0,0,1-.21,1.48l.07,1q0,2-3.87,2.74c-.74,0-1.39-.49-2-1.47-.19-.76-.65-2.27-1.41-4.5l-1-3.73h-.07c-.05.47-.07.83-.07,1v.29c.09,2.46.14,3.81.14,4.07a14.85,14.85,0,0,1-.35,3.24,3.26,3.26,0,0,1-1.76.63c-1.64,0-2.46-.9-2.46-2.67.14-2,.21-3.18.21-3.45a25.08,25.08,0,0,1-.28-2.81,7.65,7.65,0,0,1,.14-1l-.07-.43a11.18,11.18,0,0,0,.07-1.12,17.45,17.45,0,0,0-.14-1.83q.35-3.87.56-7.87c0-1-.07-1.6-.07-2,0-1.18.23-1.76.7-1.76a2.38,2.38,0,0,1,1.06-.21c1.88,0,2.81.21,2.81.63a3.79,3.79,0,0,0,.91,1.34,8.24,8.24,0,0,1,.64,1.61,3.3,3.3,0,0,1,.7,2.25,3.41,3.41,0,0,1,.84,2.54,9,9,0,0,1,.92,3.58q.21.06.21.78h.07c0-.34.12-1.67.35-4a15.33,15.33,0,0,1,.07-2.11,4.65,4.65,0,0,1-.07-.92V384a2.38,2.38,0,0,1,.07-.63,3.53,3.53,0,0,1-.07-.7v-.92a19.61,19.61,0,0,0,.21-2v-1.47c0-.41.42-.67,1.27-.78Zm-2.32,14.28v.21h.07v-.21Z" transform="translate(-20.94 -278.74)"/><path class="cls-1" d="M464.65,377.24c1.52.23,2.73.41,3.66.49a2.32,2.32,0,0,1,.7,1.2,2.05,2.05,0,0,1-1.61,2,6,6,0,0,1-1.76.28h-2a3.18,3.18,0,0,0-.07.56,19.12,19.12,0,0,1,.49,2.53,3.17,3.17,0,0,1-.21.85,4,4,0,0,1,.42,1.05l-.14,1.06.28,3.16c-.08.48-.14.77-.14.91a12.71,12.71,0,0,1,.21,1.48c-.08.69-.14,1.21-.14,1.55v.28c.09,1.85.14,2.83.14,2.95l-.07.64a6.87,6.87,0,0,1,.35,2v.15q-.21,1.55-.21,1.89a15.19,15.19,0,0,1,.43,2.25c0,.62-1.11,1-3.31,1.27-.86,0-1.39-.19-1.62-.56q-.91-1.41-.91-7.25c-.05,0-.07-.19-.07-.56,0-.56.09-.84.14-.84l-.07-.7v-1.34a11.13,11.13,0,0,0-.21-2.32l.14-1.2c-.23-1.7-.42-5.08-.56-10.12-.42-.09-1.39-.23-2.89-.42a.88.88,0,0,1-.42-.71c.09-1.14.65-1.74,1.69-1.77a39.09,39.09,0,0,1,5.13-.62c0-.05.07-.07.21-.07a.51.51,0,0,1,.28.07,8.25,8.25,0,0,1,1-.07h.7Z" transform="translate(-20.94 -278.74)"/><path class="cls-1" d="M474.92,378.42c.79,0,1.69,1,2.67,3a3.3,3.3,0,0,0,.7,1.76,16.06,16.06,0,0,0,.5,2,5.62,5.62,0,0,1,.35,1.55.9.9,0,0,1-.14.42c.19,0,.35.72.49,2.18a10.4,10.4,0,0,1,.56,3.3,6,6,0,0,1,.28,1.48l-.21,1.27a3.49,3.49,0,0,1,.28,1,4.62,4.62,0,0,1-.14.7,2.42,2.42,0,0,1,.21.92c-.05.47-.07.75-.07.84s.29.42.43,1.27l-.07.14v.07c.14,1.91.21,2.93.21,3.09v.35c0,.71-.2,1.06-.57,1.06a3.34,3.34,0,0,1-1.61.35c-1.11,0-1.78-.23-2-.7a17,17,0,0,1-1.76-6.54c-.05-.14-.56-.23-1.55-.28h-.42s-.12.08-.21.28l.07.14v.42a4.68,4.68,0,0,1-.21,1.12,5,5,0,0,0,.21,1.06,6.6,6.6,0,0,1-.63,1.55c0,.87-.16,1.38-.49,1.54a1.66,1.66,0,0,1-.85.42,2.15,2.15,0,0,1-2.39-1.61v-.85a30.91,30.91,0,0,1,.49-4.85c0-.26,0-.86-.07-1.76.37-2,.92-5.39,1.62-10a30.84,30.84,0,0,0,.91-4.71,2.28,2.28,0,0,1,1.34-1.13c.16-.56.83-.84,2-.84Zm-.77,8c-.23,2.07-.51,3.95-.85,5.62v.14a11.18,11.18,0,0,0,.07,1.27,9.58,9.58,0,0,0-.21,1.82,8.9,8.9,0,0,0,1.06.08h.63v-.08c0-.22-.05-.75-.14-1.54a10.32,10.32,0,0,0,.21-1.83v-.35a21.76,21.76,0,0,0-.7-5.13Z" transform="translate(-20.94 -278.74)"/><path class="cls-1" d="M484.52,378l.14.07s.07,0,.07-.07l.35.07c.09,0,.14,0,.14-.07,1.71.16,2.58.62,2.67,1.34l.42,4.57v1.12a25.74,25.74,0,0,1-.28,3.52,13.49,13.49,0,0,1,.14,1.55v2.6a9.79,9.79,0,0,1-.07,1.33,5.09,5.09,0,0,1,.07,1.13,19.27,19.27,0,0,1-.28,2l.28,2.81a6.59,6.59,0,0,0-.14,1.06v.07a8.14,8.14,0,0,0,2.75.84,2.16,2.16,0,0,1,.56,1.27c0,.42-.34.7-1,.84a3,3,0,0,1-1.68.49h-.29l-.42-.07a1.81,1.81,0,0,1-.7.14c-2.43,0-4-.49-4.71-1.47a7.31,7.31,0,0,1-.35-1.83c0-.72,0-1.88.07-3.45,0-.07,0-.4-.07-1a12.41,12.41,0,0,0,.07-1.62h.07a5.14,5.14,0,0,1-.14-1.48v-1a3.94,3.94,0,0,1,.14-1.27.4.4,0,0,1-.07-.21c0-.19.05-.67.14-1.4a9.22,9.22,0,0,1-.14-1.62V388a26.58,26.58,0,0,1,.49-5.14,14.1,14.1,0,0,1,.35-3.09,4.53,4.53,0,0,1-.14-.63c0-.44.48-.81,1.41-1.13Z" transform="translate(-20.94 -278.74)"/><path class="cls-1" d="M501.55,381a12.29,12.29,0,0,0,1.34,1.62c.14.63.49,1.82,1.05,3.58a2.83,2.83,0,0,1-.28.85,22.07,22.07,0,0,1,.35,2.25V390c0,.3,0,.77-.07,1.41H504a11.71,11.71,0,0,1-1.55,5.06,4.58,4.58,0,0,1-1.54,1.9c-.2.7-.9,1.05-2.11,1.05-.12.67-.3,2.09-.49,4.29-.06,0-.11.14-.14.42l.07.49c0,.53-1,1-3,1.27h-.42c-1,0-1.48-.21-1.48-.63a10.46,10.46,0,0,1-.63-3.38c0-.16.14-1,.42-2.46a10.68,10.68,0,0,0-.07-1.19c.06-.9.07-1.64.07-2.25a26.76,26.76,0,0,1-.28-4,.51.51,0,0,1,.07-.28,3.6,3.6,0,0,1-.07-.64v-1c0-.19,0-.28.07-.28l-.07-.49v-2.39c0-.62.06-2.47.14-5.56.06,0,.07,0,.07-.07H493l.07-.14v-.77c0-.51.85-1,2.53-1.41l1.55-.07A6.68,6.68,0,0,1,501.55,381Zm-3.23,1.48v.07c.22.82.37,1.42.42,1.75l-.07.64c.05.56.07,1,.07,1.26l-.07.28c.09.44.26,1.5.49,3.17l-.42,1.83a29.58,29.58,0,0,0,.35,3v.07a14.32,14.32,0,0,1-.21,2c.23,0,.72-1.36,1.48-4.08.12,0,.19-.55.21-1.62a16.68,16.68,0,0,0-.71-4.85,33.53,33.53,0,0,0-1.47-3.44Z" transform="translate(-20.94 -278.74)"/><path class="cls-1" d="M512.12,378.53a3.62,3.62,0,0,1-1.48,2.46,8.83,8.83,0,0,1-2.34.33c-1.58,0-2.46-.51-2.65-1.44l-.2-1.21a3.92,3.92,0,0,1,.69-1.41,10.58,10.58,0,0,1,3.23-.49C511.2,376.77,512.12,377.35,512.12,378.53Zm-3.45,5.34c1.46,0,2.3.61,2.53,1.83a10.51,10.51,0,0,1,.35,2.25,3.18,3.18,0,0,1-.21.77,1.73,1.73,0,0,1,.21.91V390a4,4,0,0,1-.28,1.47l.07.35v.43c0,.33-.07,1.14-.21,2.46a13.44,13.44,0,0,0,.21,1.9,9.68,9.68,0,0,1-.35,2l.56,5.63v.35c0,.44-.47.72-1.4.85a4.76,4.76,0,0,1-2,.35h-.35c-.79,0-1.25-.27-1.41-.78-.33-.23-.49-.86-.49-1.9l-.42-5.55c0-.32.05-1.09.14-2.32l-.14-2.67c.08-1.29.26-2.9.49-4.85.05-.65.07-1.36.07-2.11V385c0-.36.42-.72,1.26-1.05a4.36,4.36,0,0,1,.85-.07Z" transform="translate(-20.94 -278.74)"/><path class="cls-1" d="M522.64,378.51c1,0,1.48.33,1.48,1a15.91,15.91,0,0,1-1.41,3.87,1.54,1.54,0,0,1-.35.77,9.36,9.36,0,0,1-1.12,2.67,2.43,2.43,0,0,0-.28,1.06,5.74,5.74,0,0,0,1.68,2.46,3.82,3.82,0,0,1,.78,2.32c.42.28.75,1.32,1,3.09a4.75,4.75,0,0,1,.07.92V397a4.71,4.71,0,0,1,.57,2.53,3.82,3.82,0,0,1,.35,1.41v.28l-.07.42a5.58,5.58,0,0,1,.28,1.69c0,.84-.76,1.26-2.25,1.26-1.07,0-1.62-.28-1.62-.7a17.3,17.3,0,0,1-1.19-3.87,23.28,23.28,0,0,1-1.13-3.44h-.07a12.73,12.73,0,0,0-.21,1.83l.28,4.57v.07c0,.59-1,1.07-3.09,1.4-1.15,0-1.88-.84-2.18-2.53a82.18,82.18,0,0,1-1.06-8.22l.07-.43a10.6,10.6,0,0,1-.21-2.74c0-.09,0-.61.07-1.55h.07a1.6,1.6,0,0,1-.21-.77q.07-1.26.21-1.26c0-.06,0-.23-.07-.57,0-.72.12-2.44.35-5.2v-1.55c0-.4.48-.72,1.41-.91H516a.55.55,0,0,0,.28-.07c1.26.17,1.89.74,1.89,1.69,0,.33.15,1.58.43,3.72v.35a12,12,0,0,0,.77-2.39,7.83,7.83,0,0,1,1.76-3,2.21,2.21,0,0,1,.91-.49Z" transform="translate(-20.94 -278.74)"/><path class="cls-1" d="M537,382.87a13.19,13.19,0,0,1,1,5.06s.07.12.07.35-.09.58-.28,1.48a20.1,20.1,0,0,1,.35,3.94v.14a24.28,24.28,0,0,1-.42,3.93,6.37,6.37,0,0,1-1.2,3.31c-.21,1-.58,1.55-1.12,1.55a1.41,1.41,0,0,1-1.48.91,5.67,5.67,0,0,0-3.52,0h-.28c-1.21,0-2.07-.84-2.6-2.53a15.94,15.94,0,0,1-1.33-4.29c0-.34,0-.51-.08-.56l.15-1.34c-.06-.76-.07-1.44-.07-2v-.28c0-2.13.12-3.23.35-3.3a.37.37,0,0,1-.07-.22,17,17,0,0,1,.63-3,23.26,23.26,0,0,1,1.41-4.92,2.34,2.34,0,0,1,1.26-.91,9.43,9.43,0,0,1,3.45-.64C535.05,379.49,536.32,380.62,537,382.87Zm-4.57.21a31,31,0,0,0-.63,3.87v1.19a.78.78,0,0,1-.21.49v.28a11.35,11.35,0,0,1-.14,2.32,5.17,5.17,0,0,1,.07.78v.7a36.85,36.85,0,0,0,.77,6.54h.07a9.42,9.42,0,0,0,1.06-3.52,30.9,30.9,0,0,0,.28-4.21,35.72,35.72,0,0,0-.28-3.59v-.35a4.12,4.12,0,0,1,.07-.78c-.37-1.51-.71-2.76-1-3.72Z" transform="translate(-20.94 -278.74)"/><path class="cls-1" d="M545.18,378.42c.79,0,1.69,1,2.67,3a3.3,3.3,0,0,0,.7,1.76,16.06,16.06,0,0,0,.5,2,5.62,5.62,0,0,1,.35,1.55.9.9,0,0,1-.14.42c.19,0,.35.72.49,2.18a10.4,10.4,0,0,1,.56,3.3,6,6,0,0,1,.28,1.48l-.21,1.27a3.49,3.49,0,0,1,.28,1,4.62,4.62,0,0,1-.14.7,2.42,2.42,0,0,1,.21.92c-.05.47-.07.75-.07.84s.29.42.43,1.27l-.07.14v.07c.14,1.91.21,2.93.21,3.09v.35c0,.71-.2,1.06-.57,1.06a3.34,3.34,0,0,1-1.61.35c-1.11,0-1.78-.23-2-.7a17,17,0,0,1-1.76-6.54c-.05-.14-.56-.23-1.55-.28h-.42c-.05,0-.12.08-.21.28l.07.14v.42a4.68,4.68,0,0,1-.21,1.12,5,5,0,0,0,.21,1.06,6.6,6.6,0,0,1-.63,1.55c0,.87-.16,1.38-.49,1.54a1.66,1.66,0,0,1-.85.42,2.15,2.15,0,0,1-2.39-1.61v-.85a30.91,30.91,0,0,1,.49-4.85c0-.26,0-.86-.07-1.76.37-2,.92-5.39,1.62-10a30.84,30.84,0,0,0,.91-4.71,2.28,2.28,0,0,1,1.34-1.13c.16-.56.83-.84,2-.84Zm-.77,8c-.23,2.07-.51,3.95-.85,5.62v.14a11.18,11.18,0,0,0,.07,1.27,9.58,9.58,0,0,0-.21,1.82,8.9,8.9,0,0,0,1.06.08h.63v-.08c0-.22-.05-.75-.14-1.54a10.32,10.32,0,0,0,.21-1.83v-.35a21.76,21.76,0,0,0-.7-5.13Z" transform="translate(-20.94 -278.74)"/><path class="cls-1" d="M329.81,439c.51.33.78,1.16.78,2.46a53.83,53.83,0,0,1,1.19,6.33c0,.07,0,.44-.14,1.12v.49l.56,2.89c-.08.59-.14,1-.14,1.12a2.55,2.55,0,0,1,.42,1.13v.14a2.54,2.54,0,0,1-.21.77c.06,1.14.07,1.78.07,1.9a6.17,6.17,0,0,0-.14.91v.07c0,.13.06.86.14,2.25v1.2c0,.47.64.7,1.9.7s1.83.16,1.83.49q.21,0,.21.57,0,1.15-2.25,1.89a9.2,9.2,0,0,1-2.25.29H329c-.74,0-1.64-.57-2.67-1.69a10.34,10.34,0,0,1-1-5.13,6.51,6.51,0,0,1-.28-1.55c.09-.81.14-1.39.14-1.76a19.54,19.54,0,0,1-.49-2.67l.21-2.32a28.49,28.49,0,0,1-.42-4.57c0-1,0-3.22.07-6.68.19-.79,1.05-1.2,2.6-1.2C329,438.28,329.81,438.56,329.81,439Z" transform="translate(-20.94 -278.74)"/><path class="cls-1" d="M347.53,442.87a13.19,13.19,0,0,1,1,5.06c.05,0,.07.12.07.35s-.09.58-.29,1.48a20,20,0,0,1,.36,3.94v.14a23.38,23.38,0,0,1-.43,3.93,6.34,6.34,0,0,1-1.19,3.31c-.21,1-.58,1.55-1.13,1.55a1.4,1.4,0,0,1-1.47.91,10.28,10.28,0,0,1-1.76-.28,10.28,10.28,0,0,1-1.76.28h-.28c-1.21,0-2.07-.84-2.6-2.53a16.26,16.26,0,0,1-1.34-4.29c0-.34,0-.51-.07-.56l.14-1.34c0-.76-.07-1.44-.07-2v-.28c0-2.13.13-3.23.35-3.3A.46.46,0,0,1,337,449a17.41,17.41,0,0,1,.64-3A23.62,23.62,0,0,1,339,441a2.36,2.36,0,0,1,1.27-.91,9.41,9.41,0,0,1,3.44-.64Q346.58,439.49,347.53,442.87Zm-4.57.21a31,31,0,0,0-.63,3.87v1.19a.78.78,0,0,1-.21.49v.28a12.19,12.19,0,0,1-.14,2.32,5.17,5.17,0,0,1,.07.78v.7a36.85,36.85,0,0,0,.77,6.54h.07a9.62,9.62,0,0,0,1.06-3.52,30.9,30.9,0,0,0,.28-4.21,35.72,35.72,0,0,0-.28-3.59v-.35a4.12,4.12,0,0,1,.07-.78c-.37-1.51-.71-2.76-1-3.72Z" transform="translate(-20.94 -278.74)"/><path class="cls-1" d="M357.66,437.24c1.51.23,2.72.41,3.65.49a2.36,2.36,0,0,1,.71,1.2,2.06,2.06,0,0,1-1.62,2,6,6,0,0,1-1.76.28h-2a3.18,3.18,0,0,0-.07.56,17.43,17.43,0,0,1,.49,2.53,3.17,3.17,0,0,1-.21.85,3.4,3.4,0,0,1,.42,1.05l-.14,1.06.29,3.16a7.78,7.78,0,0,0-.15.91,11.48,11.48,0,0,1,.22,1.48,13.49,13.49,0,0,0-.14,1.55v.28c.08,1.85.14,2.83.14,2.95l-.07.64a7.22,7.22,0,0,1,.35,2v.15q-.21,1.55-.21,1.89a16,16,0,0,1,.42,2.25c0,.62-1.11,1-3.31,1.27-.86,0-1.39-.19-1.61-.56-.62-.94-.92-3.36-.92-7.25-.05,0-.07-.19-.07-.56,0-.56.09-.84.14-.84l-.07-.7v-1.34a11.13,11.13,0,0,0-.21-2.32l.14-1.2c-.23-1.7-.42-5.08-.56-10.12-.42-.09-1.39-.23-2.88-.42a.89.89,0,0,1-.43-.71c.09-1.14.65-1.74,1.69-1.77a39.09,39.09,0,0,1,5.13-.62c0-.05.08-.07.22-.07a.55.55,0,0,1,.28.07,8,8,0,0,1,1-.07h.7Z" transform="translate(-20.94 -278.74)"/><path class="cls-1" d="M372.39,438.19a1.59,1.59,0,0,1,1.75,1.13,29.21,29.21,0,0,1,1.55,5.41l.42,2.6-.07,1c.06,1.23.07,2.07.07,2.53a16.34,16.34,0,0,1-.7,4.15c-.16,3.09-.35,4.64-.56,4.64a7.63,7.63,0,0,1-3.66,4.07,9.76,9.76,0,0,1-3.8,1h-.07l-.14.07v-.07l-.14.07a3.53,3.53,0,0,1-2.32-1.41,17.44,17.44,0,0,1-2.11-3.86,21.46,21.46,0,0,1-.91-6.61q0-1.11.49-11v-1.13c0-.84.34-1.26,1-1.26a4,4,0,0,1,1.61-.35h.42l.15-.07v.07c.05,0,.07,0,.07-.07a2.45,2.45,0,0,1,2.18,1.33,6.06,6.06,0,0,1,.28,1.55c-.09,1.09-.14,1.79-.14,2.11a25.87,25.87,0,0,0,.42,2.67c-.05,1.12-.13,2-.21,2.67l.14,1.76-.07.14a.45.45,0,0,0,.07.28c-.06.62-.07,1.11-.07,1.48v1a22.26,22.26,0,0,0,.28,3h-.07a12.1,12.1,0,0,0,.35,1.54c.26-.24.63-1.63,1.12-4.15,0-.29.22-1.53.64-3.65a44.56,44.56,0,0,0,.35-6.19c.05,0,.09-.28.14-.84a5.92,5.92,0,0,0-.14-1h.07a5.82,5.82,0,0,1-.14-1.61v-1.76c0-.65.49-1.09,1.48-1.34Z" transform="translate(-20.94 -278.74)"/><path class="cls-1" d="M385.94,437.58c.83.8,1.42,2.49,1.83,5.06.05.82.07,1.32.07,1.48-.37,3.65-.71,5.48-1,5.48a6,6,0,0,1-1.05,1.69,13.63,13.63,0,0,0-1.55,1.4l-.07.14a9.83,9.83,0,0,1,2.25,3.73,8.07,8.07,0,0,0,1.06,2.39c0,.18.44,1.57,1.33,4.15a5,5,0,0,1,.14,1.19v.22c0,.65-.23,1-.7,1.19a10.44,10.44,0,0,1-1.55.35c-1,0-1.75-.63-2.18-1.9a18.81,18.81,0,0,0-1.4-2.88,9.8,9.8,0,0,0-.92-2.6,2.14,2.14,0,0,1-.21-.7h-.07c0,.19-.05.68-.14,1.47,0,.57.07.85.14.85a3.07,3.07,0,0,0-.14,1.12v1.34a3.42,3.42,0,0,1-.07.63,4,4,0,0,1,.28,1.41c0,.52-.58.86-1.76,1s-1.67-.21-1.82-.63a32.86,32.86,0,0,1-1-9l-.35-4.08.14-1.27a12.61,12.61,0,0,1-.14-1.82v-.64c0-.59,0-1.24.07-2a2.22,2.22,0,0,1-.07-.57l.14-.84a16.31,16.31,0,0,1-.14-2.18,12.16,12.16,0,0,1,1-4.08q.22,0,.57-1.05a4.7,4.7,0,0,1,3.16-1.41l.92-.07C384.34,436.17,385.43,436.64,385.94,437.58Zm-4.78,3.93a26.93,26.93,0,0,0,.35,3.73v.35a3.42,3.42,0,0,1-.07.63,9,9,0,0,1,.28,2.54l.07.28c1.07-.93,1.62-2.82,1.62-5.63,0-2.41-.49-4-1.48-4.92h-.07c-.4,0-.63.9-.7,2.67Zm.7,16.25v.14h.07v-.14Z" transform="translate(-20.94 -278.74)"/><path class="cls-1" d="M396,438.42c.79,0,1.69,1,2.67,3a3.25,3.25,0,0,0,.71,1.76,16.6,16.6,0,0,0,.49,2,5.62,5.62,0,0,1,.35,1.55.9.9,0,0,1-.14.42c.19,0,.35.72.49,2.18a10.4,10.4,0,0,1,.56,3.3,6.43,6.43,0,0,1,.29,1.48l-.22,1.27a3.67,3.67,0,0,1,.29,1,6.55,6.55,0,0,1-.14.7,2.42,2.42,0,0,1,.21.92,7.42,7.42,0,0,0-.07.84c.14,0,.28.42.42,1.27l-.07.14v.07c.14,1.91.21,2.93.21,3.09v.35c0,.71-.19,1.06-.56,1.06a3.41,3.41,0,0,1-1.62.35c-1.11,0-1.78-.23-2-.7a17,17,0,0,1-1.76-6.54c0-.14-.56-.23-1.54-.28h-.43c-.05,0-.12.08-.21.28l.07.14v.42a4.68,4.68,0,0,1-.21,1.12,5,5,0,0,0,.21,1.06,6.19,6.19,0,0,1-.63,1.55c0,.87-.16,1.38-.49,1.54a1.66,1.66,0,0,1-.85.42,2.16,2.16,0,0,1-2.39-1.61v-.85a29.94,29.94,0,0,1,.5-4.85c0-.26,0-.86-.07-1.76.36-2,.91-5.39,1.61-10a31.48,31.48,0,0,0,.92-4.71,2.23,2.23,0,0,1,1.33-1.13c.16-.56.83-.84,2-.84Zm-.77,8c-.23,2.07-.51,3.95-.85,5.62v.14a11.18,11.18,0,0,0,.07,1.27,9.58,9.58,0,0,0-.21,1.82,8.9,8.9,0,0,0,1.06.08h.63v-.08c0-.22-.05-.75-.14-1.54a10.32,10.32,0,0,0,.21-1.83v-.35a21.76,21.76,0,0,0-.7-5.13Z" transform="translate(-20.94 -278.74)"/><path class="cls-1" d="M417.19,439.05a2.24,2.24,0,0,1,.88-.14c1.22.13,2.34.21,3.41.27a1.57,1.57,0,0,1,1,1.38c-.61,1.25-1.84,1.87-3.67,1.87H418l-.33.07v-.07l-.14.07a.54.54,0,0,0-.27-.07,2.66,2.66,0,0,0-.21,1v.14c0,.35,0,.81.07,1.39l-.33.93c.07.65.16,1,.26,1s.44,0,1-.07c1.78.4,2.66.7,2.66.86a1.05,1.05,0,0,1,.42.81,1.68,1.68,0,0,1-1.71,1.05,16.26,16.26,0,0,0-2.05.67h-.27l.07.12c0,.13,0,.2-.07.2a9.67,9.67,0,0,1,.07,1.12v1c0,.3-.05,1-.14,2.06a3.08,3.08,0,0,0,.28.93l-.07.79v.65a14.79,14.79,0,0,0,.27,3.45,8,8,0,0,0-.07,1.07v.12c0,.27.16.41.47.41.83,0,1.67-.06,2.53-.14,1.09,0,1.64.26,1.64.79-.48,1.32-2,1.93-4.64,1.88-2.08.16-3.54,0-4.4-.6a32.37,32.37,0,0,1-.77-6.91c0-.7,0-1.56.14-2.58a14.25,14.25,0,0,1-.28-2.18l.14-1.53a17.48,17.48,0,0,1-.14-2.25l.33-4.31a2.06,2.06,0,0,1-.12-.59v-.27a3,3,0,0,1,.07-.65,2.5,2.5,0,0,0-.14-.6,7,7,0,0,0,.07-.93v-1.39c0-.37.49-.75,1.49-1.12.51,0,.76,0,.76-.07A12.65,12.65,0,0,1,417.19,439.05Z" transform="translate(-20.94 -278.74)"/><path class="cls-1" d="M435.12,437.45c.76,0,1.13.27,1.13.78a4.43,4.43,0,0,1,.21,1.54,9.18,9.18,0,0,1,.56,1.48l-.14,3.3a12.77,12.77,0,0,1,.21,2.54v.07a3.75,3.75,0,0,1-.21,1.4,10.31,10.31,0,0,1,.14,1.9v.07a5.88,5.88,0,0,1-.21,1.83c.05.4.07.67.07.77a18.84,18.84,0,0,1-.28,4.08c0,.93.07,1.53.07,1.83a14.79,14.79,0,0,1-.21,1.48l.07,1c0,1.3-1.28,2.21-3.87,2.74-.74,0-1.39-.49-2-1.47-.19-.76-.65-2.27-1.4-4.5l-1.06-3.73h-.07c-.05.47-.07.83-.07,1v.29c.09,2.46.14,3.81.14,4.07a14.16,14.16,0,0,1-.35,3.24,3.21,3.21,0,0,1-1.76.63c-1.63,0-2.46-.9-2.46-2.67.14-2,.21-3.18.21-3.45a25.08,25.08,0,0,1-.28-2.81,7.65,7.65,0,0,1,.14-1l-.07-.43a11.18,11.18,0,0,0,.07-1.12,17.45,17.45,0,0,0-.14-1.83q.35-3.87.56-7.87c0-1-.07-1.6-.07-2,0-1.18.23-1.76.71-1.76a2.34,2.34,0,0,1,1-.21c1.88,0,2.81.21,2.81.63a3.72,3.72,0,0,0,.92,1.34,9,9,0,0,1,.63,1.61,3.25,3.25,0,0,1,.7,2.25,3.37,3.37,0,0,1,.85,2.54,9.05,9.05,0,0,1,.91,3.58q.21.06.21.78h.07c0-.34.13-1.67.35-4a13,13,0,0,1,.08-2.11,3.92,3.92,0,0,1-.08-.92V444a2,2,0,0,1,.08-.63,3,3,0,0,1-.08-.7v-.92a17.9,17.9,0,0,0,.22-2v-1.47q0-.62,1.26-.78Zm-2.32,14.28v.21h.07v-.21Z" transform="translate(-20.94 -278.74)"/><path class="cls-1" d="M443.51,439.05a2.17,2.17,0,0,1,.88-.14c1.21.13,2.33.21,3.41.27a1.59,1.59,0,0,1,1,1.38c-.62,1.25-1.85,1.87-3.68,1.87h-.82l-.34.07v-.07l-.14.07a.51.51,0,0,0-.26-.07,2.66,2.66,0,0,0-.21,1v.14a13.15,13.15,0,0,0,.07,1.39l-.34.93c.07.65.16,1,.27,1s.44,0,1-.07c1.77.4,2.65.7,2.65.86a1.05,1.05,0,0,1,.42.81,1.68,1.68,0,0,1-1.7,1.05,16.09,16.09,0,0,0-2.06.67h-.26l.07.12c0,.13,0,.2-.07.2.05.52.07.89.07,1.12v1c0,.3-.05,1-.14,2.06a2.82,2.82,0,0,0,.28.93l-.07.79v.65a15.55,15.55,0,0,0,.26,3.45,10.2,10.2,0,0,0-.07,1.07v.12c0,.27.16.41.48.41.82,0,1.67-.06,2.53-.14,1.09,0,1.63.26,1.63.79-.47,1.32-2,1.93-4.64,1.88-2.07.16-3.53,0-4.39-.6a32.39,32.39,0,0,1-.78-6.91c0-.7.06-1.56.14-2.58a15.74,15.74,0,0,1-.28-2.18l.14-1.53a20,20,0,0,1-.14-2.25l.34-4.31a2.18,2.18,0,0,1-.13-.59v-.27a3,3,0,0,1,.07-.65,2.08,2.08,0,0,0-.14-.6,5.66,5.66,0,0,0,.07-.93v-1.39c0-.37.5-.75,1.5-1.12.51,0,.75,0,.75-.07A12.93,12.93,0,0,1,443.51,439.05Z" transform="translate(-20.94 -278.74)"/><path class="cls-1" d="M458.48,437.58c.83.8,1.43,2.49,1.83,5.06.06.82.07,1.32.07,1.48q-.56,5.47-1,5.48a5.91,5.91,0,0,1-1.06,1.69,13.25,13.25,0,0,0-1.54,1.4l-.07.14a9.83,9.83,0,0,1,2.25,3.73,8.21,8.21,0,0,0,1,2.39,43,43,0,0,0,1.34,4.15,5,5,0,0,1,.14,1.19v.22c0,.65-.23,1-.71,1.19a10.65,10.65,0,0,1-1.54.35c-1,0-1.76-.63-2.18-1.9a19,19,0,0,0-1.41-2.88,9.49,9.49,0,0,0-.91-2.6,2.14,2.14,0,0,1-.21-.7h-.07c0,.19-.06.68-.14,1.47,0,.57.07.85.14.85a3.07,3.07,0,0,0-.14,1.12v1.34a3.42,3.42,0,0,1-.07.63,4,4,0,0,1,.28,1.41c0,.52-.58.86-1.76,1s-1.67-.21-1.83-.63a32.92,32.92,0,0,1-1-9l-.35-4.08.14-1.27a12.61,12.61,0,0,1-.14-1.82v-.64c0-.59,0-1.24.07-2a1.86,1.86,0,0,1-.07-.57l.14-.84a16.31,16.31,0,0,1-.14-2.18,11.91,11.91,0,0,1,1-4.08c.14,0,.33-.35.56-1.05a4.73,4.73,0,0,1,3.17-1.41l.91-.07C456.88,436.17,458,436.64,458.48,437.58Zm-4.78,3.93a28.6,28.6,0,0,0,.35,3.73v.35a2.72,2.72,0,0,1-.07.63,8.59,8.59,0,0,1,.29,2.54l.07.28c1.07-.93,1.61-2.82,1.61-5.63,0-2.41-.49-4-1.47-4.92h-.07c-.41,0-.64.9-.71,2.67Zm.71,16.25v.14h.07v-.14Z" transform="translate(-20.94 -278.74)"/><path class="cls-1" d="M469.44,437.17a4.17,4.17,0,0,1,4.21,2.81,2.85,2.85,0,0,1,.07.64,1.79,1.79,0,0,1-.14.77,11,11,0,0,1,.14,1.34,6.63,6.63,0,0,0-.14,1l.07.85a1.89,1.89,0,0,0-.14.56q.14.63.21.63l-.21,1a4.58,4.58,0,0,1,.21,1.13c0,.76-.65,1.12-2,1.12s-2.06-.43-2.39-1.33a2.57,2.57,0,0,1-.36-1.27v-.77c0-.05,0-.07.07-.07l-.07-.14c0-.46-.08-1.79-.28-4a5,5,0,0,0,.07-1v-.35h-.07c-.42.15-.63.59-.63,1.33L467,445.12l.07.35v.42l-.28,2.25-.35,1.06a5.31,5.31,0,0,1,.21.91,4,4,0,0,0-.21,1.48,9.06,9.06,0,0,1,4.92-1.34h.07l.36.07v-.07l.14.07H472c1.33,0,2,.26,2.18.77a3.84,3.84,0,0,0,.56,2,16.93,16.93,0,0,0,.49,3.52,32.51,32.51,0,0,1,.49,3.44.8.8,0,0,1-.28.5v.63a2,2,0,0,1-.21.77c.14,1.46.21,2.45.21,3,0,.29-.37.52-1.12.7v-.07l-.14.07a2.5,2.5,0,0,1-1.69-.7,3.32,3.32,0,0,1-.35-1.06,6,6,0,0,1-3.66,1.48h-.07a2.54,2.54,0,0,1-.77-.21,1,1,0,0,1-.42.14h-.43a.55.55,0,0,1-.28-.07,7.33,7.33,0,0,1-1.19.21c-.37,0-1-.93-1.76-2.81a7.78,7.78,0,0,1-1-3.8c0-.05,0-.07.08-.07-.15-1.69-.22-2.83-.22-3.45V455a2.72,2.72,0,0,0-.07-.63.71.71,0,0,0,.07-.42c0-.06,0-.07-.07-.07l.07-.36a88.18,88.18,0,0,1,1.2-10.54,8.18,8.18,0,0,1,1.69-3.87,4.66,4.66,0,0,1,3.72-1.9Zm-3,16.31-.07.43a.51.51,0,0,1,.07.28l-.07.35a1.92,1.92,0,0,1,.07.49.46.46,0,0,1-.07.21c0,.05,0,.07.07.07-.05.41-.07.67-.07.78a11.45,11.45,0,0,0,.14,1.4,3.46,3.46,0,0,0-.14.85,14.73,14.73,0,0,0,.85,3.3c0,.09.05.14.14.14a3.2,3.2,0,0,0,.77-1.9,6.17,6.17,0,0,0,.63-2.18v-1.61c0-.39.09-1.32.28-2.82v-.07h-.21a6.52,6.52,0,0,1-2.39-.35Z" transform="translate(-20.94 -278.74)"/><path class="cls-1" d="M483.52,438.53A3.62,3.62,0,0,1,482,441a8.83,8.83,0,0,1-2.34.33c-1.58,0-2.46-.51-2.65-1.44l-.2-1.21a3.92,3.92,0,0,1,.69-1.41,10.58,10.58,0,0,1,3.23-.49C482.6,436.77,483.52,437.35,483.52,438.53Zm-3.45,5.34c1.46,0,2.3.61,2.53,1.83A10.51,10.51,0,0,1,483,448a3.18,3.18,0,0,1-.21.77,1.73,1.73,0,0,1,.21.91V450a3.83,3.83,0,0,1-.28,1.47l.07.35v.43c0,.33-.07,1.14-.21,2.46a13.44,13.44,0,0,0,.21,1.9,9.68,9.68,0,0,1-.35,2l.56,5.63v.35c0,.44-.47.72-1.4.85a4.76,4.76,0,0,1-2,.35h-.35c-.79,0-1.25-.27-1.41-.78-.33-.23-.49-.86-.49-1.9l-.42-5.55c0-.32,0-1.09.14-2.32l-.14-2.67c.08-1.29.26-2.9.49-4.85.05-.65.07-1.36.07-2.11V445c0-.36.42-.72,1.26-1.05a4.36,4.36,0,0,1,.85-.07Z" transform="translate(-20.94 -278.74)"/><path class="cls-1" d="M490.49,438.42c.8,0,1.69,1,2.68,3a3.22,3.22,0,0,0,.7,1.76,16.6,16.6,0,0,0,.49,2,5.62,5.62,0,0,1,.35,1.55.9.9,0,0,1-.14.42c.2,0,.35.72.49,2.18a10.41,10.41,0,0,1,.57,3.3,6.5,6.5,0,0,1,.28,1.48l-.21,1.27a3.91,3.91,0,0,1,.28,1,4.62,4.62,0,0,1-.14.7,2.42,2.42,0,0,1,.21.92c-.05.47-.07.75-.07.84s.28.42.42,1.27l-.07.14v.07c.14,1.91.21,2.93.21,3.09v.35c0,.71-.19,1.06-.56,1.06a3.38,3.38,0,0,1-1.62.35c-1.11,0-1.77-.23-2-.7a17,17,0,0,1-1.76-6.54c-.05-.14-.56-.23-1.54-.28h-.42c-.06,0-.13.08-.21.28l.07.14v.42a4.34,4.34,0,0,1-.22,1.12,3.94,3.94,0,0,0,.22,1.06,6.29,6.29,0,0,1-.64,1.55c0,.87-.16,1.38-.49,1.54a1.67,1.67,0,0,1-.84.42,2.15,2.15,0,0,1-2.39-1.61v-.85a29.75,29.75,0,0,1,.49-4.85c0-.26,0-.86-.07-1.76.37-2,.91-5.39,1.62-10a32.27,32.27,0,0,0,.91-4.71,2.22,2.22,0,0,1,1.34-1.13c.15-.56.82-.84,2-.84Zm-.77,8c-.23,2.07-.51,3.95-.84,5.62v.14a9.26,9.26,0,0,0,.07,1.27,9.58,9.58,0,0,0-.21,1.82,8.63,8.63,0,0,0,1.05.08h.63v-.08c0-.22-.05-.75-.14-1.54a10.32,10.32,0,0,0,.21-1.83v-.35a21.25,21.25,0,0,0-.7-5.13Z" transform="translate(-20.94 -278.74)"/><path class="cls-1" d="M507.3,438.51c1,0,1.48.33,1.48,1a16.37,16.37,0,0,1-1.41,3.87,1.54,1.54,0,0,1-.35.77,9.21,9.21,0,0,1-1.13,2.67,2.58,2.58,0,0,0-.28,1.06,5.77,5.77,0,0,0,1.69,2.46,3.81,3.81,0,0,1,.77,2.32c.42.28.76,1.32,1,3.09a5.7,5.7,0,0,1,.07.92V457a4.72,4.72,0,0,1,.56,2.53,3.63,3.63,0,0,1,.35,1.41v.28l-.07.42a5.58,5.58,0,0,1,.28,1.69q0,1.26-2.25,1.26c-1.07,0-1.62-.28-1.62-.7a17.88,17.88,0,0,1-1.19-3.87,23.28,23.28,0,0,1-1.13-3.44H504a12.73,12.73,0,0,0-.21,1.83l.28,4.57v.07c0,.59-1,1.07-3.09,1.4-1.14,0-1.88-.84-2.18-2.53q-1.05-6.78-1.05-8.22l.07-.43a10.6,10.6,0,0,1-.21-2.74c0-.09,0-.61.07-1.55h.07a1.6,1.6,0,0,1-.21-.77q.08-1.26.21-1.26c0-.06,0-.23-.07-.57,0-.72.12-2.44.35-5.2v-1.55c0-.4.47-.72,1.4-.91h1.27a.55.55,0,0,0,.28-.07c1.27.17,1.9.74,1.9,1.69,0,.33.14,1.58.42,3.72v.35a11.27,11.27,0,0,0,.77-2.39,7.83,7.83,0,0,1,1.76-3,2.22,2.22,0,0,1,.92-.49Z" transform="translate(-20.94 -278.74)"/><line class="cls-2" x1="206.06" y1="113.26" x2="252.06" y2="57.26"/><line class="cls-2" x1="206.06" y1="113.76" x2="252.06" y2="169.76"/><line class="cls-2" x1="205.01" y1="113.76" x2="257.64" y2="113.76"/><line class="cls-2" x1="252.3" y1="56.14" x2="252.3" y2="69.59"/><line class="cls-2" x1="239.85" y1="60.07" x2="252.91" y2="56.86"/><line class="cls-2" x1="252.3" y1="157.92" x2="252.3" y2="171.37"/><line class="cls-2" x1="239.76" y1="168.49" x2="253.01" y2="170.81"/><line class="cls-2" x1="258.25" y1="115.19" x2="249.71" y2="104.8"/><line class="cls-2" x1="258.26" y1="113.79" x2="248.35" y2="122.88"/><rect class="cls-3" x="3" y="3" width="590.3" height="222.64"/></svg>