<svg id="Capa_1" data-name="Capa 1" xmlns="http://www.w3.org/2000/svg" viewBox="0 0 637.41 141.19"><defs><style>.cls-1{fill:#fff;}.cls-2{fill:#36a9e1;}.cls-3{fill:#e6332a;}.cls-4{fill:#3aaa35;}.cls-5{fill:#ca9e67;}</style></defs><title>erredox1</title><path class="cls-1" d="M-97.11,373.08c0,.68,0,1.19,0,1.53a3.28,3.28,0,0,0,.18.81,1.56,1.56,0,0,0,.3.51,1.74,1.74,0,0,0,.5.35,6.24,6.24,0,0,0,1,.33v.86h-7.37v-.86a3.85,3.85,0,0,0,1.36-.54,1.64,1.64,0,0,0,.53-.92,9.86,9.86,0,0,0,.15-2.07v-7.37h-9.77v7.37a12,12,0,0,0,.08,1.72,2.43,2.43,0,0,0,.26.86,1.48,1.48,0,0,0,.55.53,5,5,0,0,0,1.16.42v.86h-7.4v-.86a3.56,3.56,0,0,0,1.46-.62,1.73,1.73,0,0,0,.49-1,12.67,12.67,0,0,0,.11-1.93V357.87a12.15,12.15,0,0,0-.09-1.76,2.11,2.11,0,0,0-.29-.86,1.5,1.5,0,0,0-.53-.5,6.34,6.34,0,0,0-1.15-.41v-.86h7.4v.86a4.85,4.85,0,0,0-1.11.39,1.72,1.72,0,0,0-.55.48,2.29,2.29,0,0,0-.3.87,12.83,12.83,0,0,0-.09,1.79v6.23h9.77v-6.23a9.57,9.57,0,0,0-.15-2.09,1.63,1.63,0,0,0-.5-.86,3.92,3.92,0,0,0-1.39-.58v-.86h7.37v.86a3.73,3.73,0,0,0-1.37.55,1.59,1.59,0,0,0-.53.93,10.65,10.65,0,0,0-.14,2.05Z" transform="translate(140.8 -326.68)"/><path class="cls-1" d="M-84,380.69a5.57,5.57,0,0,0,.94-.06,1.38,1.38,0,0,0,.52-.19,1.18,1.18,0,0,0,.32-.31,5.45,5.45,0,0,0,.4-.85h1.21l-.25,3.4h-10.3V382a12,12,0,0,1,1.62-2.53,29.06,29.06,0,0,1,2.39-2.57c1.09-1,1.86-1.83,2.32-2.36a6.73,6.73,0,0,0,1-1.52,3.35,3.35,0,0,0,.33-1.43,2.56,2.56,0,0,0-.67-1.88,2.6,2.6,0,0,0-1.95-.68,3,3,0,0,0-1.85.58,3.55,3.55,0,0,0-1.17,1.7h-1.67V369a17.09,17.09,0,0,1,2.88-.91,11.84,11.84,0,0,1,2.34-.27,7.46,7.46,0,0,1,2.3.3,4.23,4.23,0,0,1,1.45.78,2.67,2.67,0,0,1,.76,1.13,4.09,4.09,0,0,1,.22,1.34,3.82,3.82,0,0,1-.35,1.61,6.9,6.9,0,0,1-1.15,1.62c-.54.58-1.48,1.48-2.84,2.71a21.79,21.79,0,0,0-3.17,3.43Z" transform="translate(140.8 -326.68)"/><path class="cls-1" d="M-74.54,372a7.26,7.26,0,0,0,1,2.44A3.62,3.62,0,0,0-72,375.78a6,6,0,0,0,2.44.43,4.3,4.3,0,0,0,3.15-1.08,4.12,4.12,0,0,0,1.1-3.12,4.93,4.93,0,0,0-.45-2.22,5.19,5.19,0,0,0-1.5-1.69,20.63,20.63,0,0,0-3.16-1.84,17.31,17.31,0,0,1-3.25-2,6.63,6.63,0,0,1-1.79-2.12,5.38,5.38,0,0,1-.59-2.49,6.29,6.29,0,0,1,.92-3.42A6,6,0,0,1-72.46,354a10,10,0,0,1,4.09-.79,22.34,22.34,0,0,1,2.61.14,22.92,22.92,0,0,1,3.19.63v4.75h-1.74a7.38,7.38,0,0,0-1-2.41,3.35,3.35,0,0,0-1.44-1.21,5.87,5.87,0,0,0-2.15-.34,4.77,4.77,0,0,0-2,.42,3.3,3.3,0,0,0-1.44,1.28,3.79,3.79,0,0,0-.52,2,4.67,4.67,0,0,0,.44,2.11,5,5,0,0,0,1.4,1.6,17,17,0,0,0,2.81,1.65,21.38,21.38,0,0,1,3.49,2.09,7.47,7.47,0,0,1,1.94,2.21,5.83,5.83,0,0,1,.69,2.89,7.46,7.46,0,0,1-.58,3.12,5.37,5.37,0,0,1-1.61,2.07,6.38,6.38,0,0,1-2.46,1.16,12.83,12.83,0,0,1-3.14.36,25.82,25.82,0,0,1-6.36-.93V372Z" transform="translate(140.8 -326.68)"/><path class="cls-1" d="M-17.45,368.4v6.66H-20V368.4h-6.49V366H-20v-6.65h2.58V366h6.51v2.44Z" transform="translate(140.8 -326.68)"/><path class="cls-1" d="M35.55,373.08c0,.68,0,1.19.05,1.53a3.28,3.28,0,0,0,.18.81,1.56,1.56,0,0,0,.3.51,1.89,1.89,0,0,0,.5.35,6.6,6.6,0,0,0,1,.33v.86H30.22v-.86a3.85,3.85,0,0,0,1.36-.54,1.58,1.58,0,0,0,.53-.92,9.86,9.86,0,0,0,.15-2.07v-7.37H22.49v7.37a13.77,13.77,0,0,0,.08,1.72,2.43,2.43,0,0,0,.26.86,1.56,1.56,0,0,0,.55.53,5,5,0,0,0,1.17.42v.86h-7.4v-.86a3.7,3.7,0,0,0,1.46-.62,1.78,1.78,0,0,0,.48-1,11.48,11.48,0,0,0,.11-1.93V357.87a14.3,14.3,0,0,0-.08-1.76,2.27,2.27,0,0,0-.29-.86,1.62,1.62,0,0,0-.54-.5,5.9,5.9,0,0,0-1.14-.41v-.86h7.4v.86a4.79,4.79,0,0,0-1.12.39,1.58,1.58,0,0,0-.54.48,2,2,0,0,0-.3.87,11.15,11.15,0,0,0-.1,1.79v6.23h9.77v-6.23a9.57,9.57,0,0,0-.15-2.09,1.63,1.63,0,0,0-.5-.86,3.83,3.83,0,0,0-1.39-.58v-.86h7.37v.86a3.81,3.81,0,0,0-1.37.55,1.64,1.64,0,0,0-.53.93,10.65,10.65,0,0,0-.14,2.05Z" transform="translate(140.8 -326.68)"/><path class="cls-1" d="M56,368c.42.71.77,1.32,1.06,1.85s.58,1.12.89,1.77h.23c-.06-.71-.12-2.13-.16-4.26s-.07-4-.07-5.76v-3.69a17.62,17.62,0,0,0-.07-1.77,2.08,2.08,0,0,0-.26-.86,1.41,1.41,0,0,0-.51-.49,5.5,5.5,0,0,0-1.13-.41v-.86h6.33v.86a5.46,5.46,0,0,0-1.12.39,1.55,1.55,0,0,0-.53.45,2.24,2.24,0,0,0-.3.85,11.09,11.09,0,0,0-.11,1.84v19.71H58l-9.79-16.42c-.61-1-1-1.76-1.3-2.23s-.5-.93-.72-1.39h-.3q.12,1.35.18,4.89t0,7.06v3.59a13.77,13.77,0,0,0,.08,1.72,2.43,2.43,0,0,0,.26.86,1.56,1.56,0,0,0,.55.53,5,5,0,0,0,1.17.42v.86H41.79v-.86a3.63,3.63,0,0,0,1.46-.62,1.66,1.66,0,0,0,.48-1,11.24,11.24,0,0,0,.12-1.93V357.87a12.15,12.15,0,0,0-.09-1.76,2.27,2.27,0,0,0-.29-.86,1.53,1.53,0,0,0-.54-.5,5.9,5.9,0,0,0-1.14-.41v-.86h5.5Z" transform="translate(140.8 -326.68)"/><path class="cls-1" d="M75.73,377.75a10.33,10.33,0,0,1-3.84-.69,7.5,7.5,0,0,1-3-2.16A10.32,10.32,0,0,1,67,371.14a19.37,19.37,0,0,1-.68-5.46,17,17,0,0,1,1.2-6.73,8.87,8.87,0,0,1,8.57-5.75,9.53,9.53,0,0,1,5.27,1.38,8.4,8.4,0,0,1,3.21,4.06,20.15,20.15,0,0,1-.14,13.47A9.09,9.09,0,0,1,81,376.35,9.58,9.58,0,0,1,75.73,377.75ZM70,365.19c0,3.59.53,6.33,1.57,8.2a5,5,0,0,0,4.6,2.82A4.65,4.65,0,0,0,79.37,375a7.58,7.58,0,0,0,2-3.58,20.52,20.52,0,0,0,.66-5.5,21.88,21.88,0,0,0-.78-6.36,7.62,7.62,0,0,0-2.13-3.66A4.76,4.76,0,0,0,76,354.74a4.92,4.92,0,0,0-2.72.74,5.76,5.76,0,0,0-1.88,2.1,11,11,0,0,0-1.09,3.3A25.63,25.63,0,0,0,70,365.19Z" transform="translate(140.8 -326.68)"/><path class="cls-1" d="M90,371.36v-2.43a13.75,13.75,0,0,1,5.15-1.16,7.5,7.5,0,0,1,2.27.33,3.71,3.71,0,0,1,1.68,1.06,2.64,2.64,0,0,1,.63,1.81,3,3,0,0,1-.43,1.64,3.88,3.88,0,0,1-1.18,1.21,10.54,10.54,0,0,1-1.92,1V375a5.3,5.3,0,0,1,2.8,1.26,3.11,3.11,0,0,1,1.05,2.37,3.83,3.83,0,0,1-.64,2.19,4.24,4.24,0,0,1-2,1.53,8,8,0,0,1-3.19.56,12.89,12.89,0,0,1-2.34-.21,11.59,11.59,0,0,1-2.11-.58v-2.56h1.6a3.21,3.21,0,0,0,1.06,1.63,3.08,3.08,0,0,0,1.86.51,3.34,3.34,0,0,0,2.31-.7,2.68,2.68,0,0,0,.78-2.09,2.63,2.63,0,0,0-1-2.25,5.1,5.1,0,0,0-3.09-.78H92.21v-1.24a8.07,8.07,0,0,0,2.75-.51A3.38,3.38,0,0,0,96.57,373a2.68,2.68,0,0,0,.5-1.62,2.19,2.19,0,0,0-.65-1.69,2.63,2.63,0,0,0-1.88-.61,2.92,2.92,0,0,0-1.83.58,3.62,3.62,0,0,0-1.16,1.72Z" transform="translate(140.8 -326.68)"/><path class="cls-1" d="M128.22,366h22.2l-4-5.11,1-1,6.9,6.7v1.12l-6.9,6.7-1-1,4-5.13h-22.2Z" transform="translate(140.8 -326.68)"/><path class="cls-1" d="M191.8,372a7.48,7.48,0,0,0,.95,2.44,3.68,3.68,0,0,0,1.55,1.33,6.06,6.06,0,0,0,2.44.43,4.32,4.32,0,0,0,3.16-1.08A4.16,4.16,0,0,0,201,372a4.93,4.93,0,0,0-.46-2.22,5.07,5.07,0,0,0-1.5-1.69,20.63,20.63,0,0,0-3.16-1.84,17.65,17.65,0,0,1-3.25-2,6.76,6.76,0,0,1-1.79-2.12,5.37,5.37,0,0,1-.58-2.49,6.21,6.21,0,0,1,.92-3.42,5.94,5.94,0,0,1,2.71-2.24,9.93,9.93,0,0,1,4.08-.79,22.34,22.34,0,0,1,2.61.14,22.65,22.65,0,0,1,3.19.63v4.75H202a7.38,7.38,0,0,0-1-2.41,3.35,3.35,0,0,0-1.44-1.21,5.81,5.81,0,0,0-2.14-.34,4.81,4.81,0,0,0-2.05.42,3.28,3.28,0,0,0-1.43,1.28,3.79,3.79,0,0,0-.53,2,4.54,4.54,0,0,0,.45,2.11,4.92,4.92,0,0,0,1.4,1.6,17,17,0,0,0,2.81,1.65,21.83,21.83,0,0,1,3.49,2.09,7.43,7.43,0,0,1,1.93,2.21,5.83,5.83,0,0,1,.7,2.89,7.62,7.62,0,0,1-.58,3.12,5.47,5.47,0,0,1-1.61,2.07,6.52,6.52,0,0,1-2.46,1.16,13,13,0,0,1-3.14.36,26,26,0,0,1-6.37-.93V372Z" transform="translate(140.8 -326.68)"/><path class="cls-1" d="M241,368.4v6.66h-2.59V368.4H231.9V366h6.48v-6.65H241V366h6.5v2.44Z" transform="translate(140.8 -326.68)"/><path class="cls-1" d="M289.68,368c.42.71.77,1.32,1.06,1.85s.58,1.12.89,1.77h.23c-.06-.71-.11-2.13-.16-4.26s-.07-4-.07-5.76v-3.69a15,15,0,0,0-.07-1.77,2.08,2.08,0,0,0-.26-.86,1.41,1.41,0,0,0-.51-.49,5.5,5.5,0,0,0-1.13-.41v-.86H296v.86a5.46,5.46,0,0,0-1.12.39,1.65,1.65,0,0,0-.53.45,2.24,2.24,0,0,0-.3.85,11.09,11.09,0,0,0-.11,1.84v19.71h-2.2l-9.79-16.42c-.61-1-1-1.76-1.3-2.23s-.5-.93-.72-1.39h-.3c.09.9.14,2.53.18,4.89s.05,4.72.05,7.06v3.59a13.77,13.77,0,0,0,.08,1.72,2.43,2.43,0,0,0,.26.86,1.56,1.56,0,0,0,.55.53,5,5,0,0,0,1.17.42v.86h-6.42v-.86A3.56,3.56,0,0,0,277,376a1.66,1.66,0,0,0,.48-1,11.24,11.24,0,0,0,.12-1.93V357.87a12.15,12.15,0,0,0-.09-1.76,2.11,2.11,0,0,0-.29-.86,1.45,1.45,0,0,0-.54-.5,5.9,5.9,0,0,0-1.14-.41v-.86H281Z" transform="translate(140.8 -326.68)"/><path class="cls-1" d="M309.44,377.75a10.35,10.35,0,0,1-3.85-.69,7.5,7.5,0,0,1-3-2.16,10.32,10.32,0,0,1-1.91-3.76,19.37,19.37,0,0,1-.68-5.46,17,17,0,0,1,1.2-6.73,8.9,8.9,0,0,1,8.57-5.75,9.5,9.5,0,0,1,5.27,1.38,8.41,8.41,0,0,1,3.22,4.06,20.24,20.24,0,0,1-.15,13.47,9.13,9.13,0,0,1-3.47,4.24A9.63,9.63,0,0,1,309.44,377.75Zm-5.79-12.56c0,3.59.53,6.33,1.58,8.2a5,5,0,0,0,4.59,2.82,4.65,4.65,0,0,0,3.25-1.22,7.58,7.58,0,0,0,2-3.58,20.49,20.49,0,0,0,.67-5.5,21.51,21.51,0,0,0-.79-6.36,7.62,7.62,0,0,0-2.13-3.66,4.74,4.74,0,0,0-3.15-1.15,4.86,4.86,0,0,0-2.71.74,5.69,5.69,0,0,0-1.89,2.1,10.75,10.75,0,0,0-1.08,3.3A24.57,24.57,0,0,0,303.65,365.19Z" transform="translate(140.8 -326.68)"/><path class="cls-1" d="M364.42,368.4v6.66h-2.58V368.4h-6.49V366h6.49v-6.65h2.58V366h6.5v2.44Z" transform="translate(140.8 -326.68)"/><path class="cls-1" d="M425.35,373.08a14.88,14.88,0,0,0,0,1.53,2.92,2.92,0,0,0,.17.81,2,2,0,0,0,.3.51,2.07,2.07,0,0,0,.5.35,7,7,0,0,0,1,.33v.86H420v-.86a3.78,3.78,0,0,0,1.35-.54,1.59,1.59,0,0,0,.54-.92,9.86,9.86,0,0,0,.15-2.07v-7.37h-9.77v7.37a14.26,14.26,0,0,0,.07,1.72,2.42,2.42,0,0,0,.27.86,1.45,1.45,0,0,0,.54.53,5,5,0,0,0,1.17.42v.86h-7.4v-.86a3.63,3.63,0,0,0,1.46-.62,1.66,1.66,0,0,0,.48-1,11.24,11.24,0,0,0,.12-1.93V357.87a12.15,12.15,0,0,0-.09-1.76,2.27,2.27,0,0,0-.29-.86,1.45,1.45,0,0,0-.54-.5,5.9,5.9,0,0,0-1.14-.41v-.86h7.4v.86a4.67,4.67,0,0,0-1.11.39,1.72,1.72,0,0,0-.55.48,2.29,2.29,0,0,0-.3.87,12.83,12.83,0,0,0-.09,1.79v6.23h9.77v-6.23a9.57,9.57,0,0,0-.15-2.09,1.7,1.7,0,0,0-.5-.86,4,4,0,0,0-1.39-.58v-.86h7.36v.86a3.9,3.9,0,0,0-1.37.55,1.63,1.63,0,0,0-.52.93,9.88,9.88,0,0,0-.14,2.05Z" transform="translate(140.8 -326.68)"/><path class="cls-1" d="M438.42,380.69a5.49,5.49,0,0,0,.94-.06,1.32,1.32,0,0,0,.52-.19,1.08,1.08,0,0,0,.33-.31,4.84,4.84,0,0,0,.39-.85h1.22l-.25,3.4h-10.3V382a12,12,0,0,1,1.62-2.53,27.63,27.63,0,0,1,2.39-2.57c1.09-1,1.86-1.83,2.32-2.36a7.47,7.47,0,0,0,1-1.52,3.35,3.35,0,0,0,.33-1.43,2.52,2.52,0,0,0-.68-1.88,2.58,2.58,0,0,0-1.94-.68,3,3,0,0,0-1.85.58,3.55,3.55,0,0,0-1.17,1.7h-1.67V369a16.82,16.82,0,0,1,2.88-.91,11.84,11.84,0,0,1,2.34-.27,7.35,7.35,0,0,1,2.29.3,4.05,4.05,0,0,1,1.45.78,2.6,2.6,0,0,1,.77,1.13,4.37,4.37,0,0,1,.22,1.34,3.82,3.82,0,0,1-.35,1.61,6.69,6.69,0,0,1-1.16,1.62c-.53.58-1.47,1.48-2.83,2.71a21.31,21.31,0,0,0-3.17,3.43Z" transform="translate(140.8 -326.68)"/><path class="cls-1" d="M455.69,377.75a10.35,10.35,0,0,1-3.85-.69,7.5,7.5,0,0,1-3-2.16,10.32,10.32,0,0,1-1.91-3.76,19.37,19.37,0,0,1-.68-5.46,17,17,0,0,1,1.2-6.73,8.9,8.9,0,0,1,8.57-5.75,9.5,9.5,0,0,1,5.27,1.38,8.41,8.41,0,0,1,3.22,4.06,20.24,20.24,0,0,1-.15,13.47,9.13,9.13,0,0,1-3.47,4.24A9.63,9.63,0,0,1,455.69,377.75Zm-5.79-12.56c0,3.59.53,6.33,1.58,8.2a5,5,0,0,0,4.59,2.82,4.65,4.65,0,0,0,3.25-1.22,7.58,7.58,0,0,0,2-3.58,20.49,20.49,0,0,0,.67-5.5,21.51,21.51,0,0,0-.79-6.36,7.62,7.62,0,0,0-2.13-3.66,4.74,4.74,0,0,0-3.15-1.15,4.86,4.86,0,0,0-2.71.74,5.69,5.69,0,0,0-1.89,2.1,10.75,10.75,0,0,0-1.08,3.3A24.57,24.57,0,0,0,449.9,365.19Z" transform="translate(140.8 -326.68)"/><path class="cls-2" d="M-110.14,337.4v4.44h-1.72V337.4h-4.33v-1.63h4.33v-4.43h1.72v4.43h4.33v1.63Z" transform="translate(140.8 -326.68)"/><path class="cls-2" d="M-96.21,340.39a5.2,5.2,0,0,0,.08,1,1.22,1.22,0,0,0,.27.56,1.29,1.29,0,0,0,.55.34,5.45,5.45,0,0,0,.92.19c.37,0,.85.07,1.45.08v.86h-8.66v-.86a15.92,15.92,0,0,0,1.86-.15,2.38,2.38,0,0,0,.85-.3,1.19,1.19,0,0,0,.43-.57,3.7,3.7,0,0,0,.13-1.18v-9.5a1.15,1.15,0,0,0-.16-.69A.58.58,0,0,0-99,330a2.45,2.45,0,0,0-1.07.39c-.46.26-1,.61-1.71,1.07l-.52-.9,5.49-3.27h.64c0,.75-.07,1.79-.07,3.11Z" transform="translate(140.8 -326.68)"/><path class="cls-3" d="M-73.79,338.19h-5.44v-1.82h5.44Z" transform="translate(140.8 -326.68)"/><path class="cls-3" d="M-64.3,341.57a4.76,4.76,0,0,0,.93-.07,1.25,1.25,0,0,0,.56-.23,1.1,1.1,0,0,0,.33-.43,5.61,5.61,0,0,0,.31-.81h1l-.2,3.42H-71v-.56a14.24,14.24,0,0,1,1.36-2.52,28.54,28.54,0,0,1,2.42-3c.91-1,1.56-1.76,2-2.27a10.31,10.31,0,0,0,1-1.46,5.58,5.58,0,0,0,.46-1.16,4.54,4.54,0,0,0,.14-1.1,4,4,0,0,0-.28-1.55,2.31,2.31,0,0,0-.86-1.06,2.56,2.56,0,0,0-1.46-.39,3,3,0,0,0-2.95,2.44h-1.42v-2.25a14.41,14.41,0,0,1,2.65-1,10.11,10.11,0,0,1,2.22-.29,4.94,4.94,0,0,1,3.3,1A3.46,3.46,0,0,1-61.38,331a5.14,5.14,0,0,1-.12,1.15,4.82,4.82,0,0,1-.39,1,7.68,7.68,0,0,1-.71,1.09c-.3.39-.62.79-1,1.19s-1,1.07-1.87,2a25.19,25.19,0,0,0-3.27,4.11Z" transform="translate(140.8 -326.68)"/><path class="cls-2" d="M17,337.4v4.44H15.25V337.4H10.92v-1.63h4.33v-4.43H17v4.43h4.34v1.63Z" transform="translate(140.8 -326.68)"/><path class="cls-2" d="M30.9,340.39a5.2,5.2,0,0,0,.08,1,1.22,1.22,0,0,0,.27.56,1.27,1.27,0,0,0,.56.34,5.11,5.11,0,0,0,.91.19c.37,0,.85.07,1.45.08v.86H25.51v-.86a15.92,15.92,0,0,0,1.86-.15,2.31,2.31,0,0,0,.85-.3,1.13,1.13,0,0,0,.43-.57,3.7,3.7,0,0,0,.13-1.18v-9.5a1.15,1.15,0,0,0-.16-.69.58.58,0,0,0-.48-.22,2.45,2.45,0,0,0-1.07.39c-.46.26-1,.61-1.71,1.07l-.51-.9,5.48-3.27H31c-.05.75-.08,1.79-.08,3.11Z" transform="translate(140.8 -326.68)"/><path class="cls-2" d="M48.83,337.4v4.44H47.11V337.4H42.79v-1.63h4.32v-4.43h1.72v4.43h4.34v1.63Z" transform="translate(140.8 -326.68)"/><path class="cls-2" d="M56.38,342.81v-2.49H57.8a3.39,3.39,0,0,0,1.06,1.76,2.87,2.87,0,0,0,1.83.56,2.91,2.91,0,0,0,2.36-.94,4.21,4.21,0,0,0,.8-2.8,4.3,4.3,0,0,0-.43-2,2.59,2.59,0,0,0-1.13-1.18,3.67,3.67,0,0,0-1.67-.36,9.06,9.06,0,0,0-1.37.09,8.63,8.63,0,0,0-1.23.32l-.94-.56v-7.71h6.46a2,2,0,0,0,.58-.06.63.63,0,0,0,.28-.2,2,2,0,0,0,.24-.51h.92l-.18,2.72H58.64v5.14a6,6,0,0,1,1.33-.38A7.61,7.61,0,0,1,61.4,334a5.2,5.2,0,0,1,2.47.57,4,4,0,0,1,1.66,1.61,4.92,4.92,0,0,1,.59,2.44,5.23,5.23,0,0,1-.66,2.69,4.17,4.17,0,0,1-1.9,1.71,6.79,6.79,0,0,1-2.94.59A12.16,12.16,0,0,1,56.38,342.81Z" transform="translate(140.8 -326.68)"/><path class="cls-3" d="M85.19,338.19H79.75v-1.82h5.44Z" transform="translate(140.8 -326.68)"/><path class="cls-3" d="M94.68,341.57a4.58,4.58,0,0,0,.92-.07,1.24,1.24,0,0,0,.57-.23,1.1,1.1,0,0,0,.33-.43,7.13,7.13,0,0,0,.31-.81h1l-.2,3.42H88v-.56a14.92,14.92,0,0,1,1.36-2.52,27.57,27.57,0,0,1,2.43-3c.9-1,1.56-1.76,2-2.27a10.12,10.12,0,0,0,1-1.46,5.65,5.65,0,0,0,.47-1.16,4.54,4.54,0,0,0,.14-1.1,4.16,4.16,0,0,0-.28-1.55,2.37,2.37,0,0,0-.86-1.06,2.58,2.58,0,0,0-1.46-.39,3,3,0,0,0-3,2.44H88.31v-2.25a14.76,14.76,0,0,1,2.66-1,10,10,0,0,1,2.22-.29,4.91,4.91,0,0,1,3.29,1A3.43,3.43,0,0,1,97.6,331a4.6,4.6,0,0,1-.13,1.15,4.77,4.77,0,0,1-.38,1,8.68,8.68,0,0,1-.71,1.09c-.3.39-.63.79-1,1.19s-1,1.07-1.86,2a25.19,25.19,0,0,0-3.27,4.11Z" transform="translate(140.8 -326.68)"/><path class="cls-4" d="M196.1,343.64a4.14,4.14,0,0,1-3.76-2,11.66,11.66,0,0,1-1.24-6,16.23,16.23,0,0,1,.38-3.73,7.83,7.83,0,0,1,1.07-2.59,4.31,4.31,0,0,1,1.64-1.52,4.51,4.51,0,0,1,2.1-.49,4.21,4.21,0,0,1,3.82,2,11.3,11.3,0,0,1,1.26,6,11.84,11.84,0,0,1-1.35,6.28A4.34,4.34,0,0,1,196.1,343.64Zm-2.71-8.39a16.39,16.39,0,0,0,.7,5.6,2.36,2.36,0,0,0,2.2,1.79A2.26,2.26,0,0,0,198.4,341a14.9,14.9,0,0,0,.68-5.21,22.18,22.18,0,0,0-.35-4.36,5.44,5.44,0,0,0-1-2.4,1.92,1.92,0,0,0-1.52-.73,2,2,0,0,0-1.35.48,3.33,3.33,0,0,0-.88,1.39,9.19,9.19,0,0,0-.47,2.19A25.93,25.93,0,0,0,193.39,335.25Z" transform="translate(140.8 -326.68)"/><path class="cls-2" d="M279.08,337.4v4.44h-1.72V337.4H273v-1.63h4.32v-4.43h1.72v4.43h4.34v1.63Z" transform="translate(140.8 -326.68)"/><path class="cls-2" d="M293.1,341.57a4.76,4.76,0,0,0,.93-.07,1.25,1.25,0,0,0,.56-.23,1.1,1.1,0,0,0,.33-.43,7.13,7.13,0,0,0,.31-.81h1l-.2,3.42h-9.64v-.56a14.15,14.15,0,0,1,1.35-2.52,27.57,27.57,0,0,1,2.43-3c.91-1,1.56-1.76,2-2.27a11.25,11.25,0,0,0,1-1.46,5.58,5.58,0,0,0,.46-1.16,4.54,4.54,0,0,0,.14-1.1,4,4,0,0,0-.28-1.55,2.37,2.37,0,0,0-.86-1.06,2.58,2.58,0,0,0-1.46-.39,3,3,0,0,0-3,2.44h-1.41v-2.25a14.41,14.41,0,0,1,2.65-1,10.11,10.11,0,0,1,2.22-.29,4.91,4.91,0,0,1,3.29,1A3.43,3.43,0,0,1,296,331a5.14,5.14,0,0,1-.12,1.15,5.42,5.42,0,0,1-.39,1,7.68,7.68,0,0,1-.71,1.09c-.3.39-.63.79-1,1.19s-1,1.07-1.86,2a25.19,25.19,0,0,0-3.27,4.11Z" transform="translate(140.8 -326.68)"/><path class="cls-3" d="M310.15,338.19h-5.44v-1.82h5.44Z" transform="translate(140.8 -326.68)"/><path class="cls-3" d="M319.64,341.57a4.69,4.69,0,0,0,.93-.07,1.25,1.25,0,0,0,.56-.23,1.23,1.23,0,0,0,.34-.43c.08-.17.18-.44.31-.81h1l-.2,3.42h-9.64v-.56a14.24,14.24,0,0,1,1.36-2.52,28.54,28.54,0,0,1,2.42-3c.91-1,1.56-1.76,2-2.27a10.31,10.31,0,0,0,1-1.46,5.58,5.58,0,0,0,.46-1.16,4.1,4.1,0,0,0,.14-1.1,4,4,0,0,0-.28-1.55,2.31,2.31,0,0,0-.86-1.06,2.56,2.56,0,0,0-1.46-.39,3,3,0,0,0-2.95,2.44h-1.42v-2.25a14.68,14.68,0,0,1,2.65-1,10.11,10.11,0,0,1,2.23-.29,4.91,4.91,0,0,1,3.29,1,3.46,3.46,0,0,1,1.11,2.77,5.14,5.14,0,0,1-.12,1.15,4.34,4.34,0,0,1-.39,1,6.9,6.9,0,0,1-.71,1.09c-.29.39-.62.79-1,1.19s-1,1.07-1.86,2a24.14,24.14,0,0,0-3.27,4.11Z" transform="translate(140.8 -326.68)"/><path class="cls-2" d="M411.48,337.4v4.44h-1.72V337.4h-4.32v-1.63h4.32v-4.43h1.72v4.43h4.34v1.63Z" transform="translate(140.8 -326.68)"/><path class="cls-2" d="M425.42,340.39a5.36,5.36,0,0,0,.07,1,1.22,1.22,0,0,0,.27.56,1.33,1.33,0,0,0,.56.34,5.31,5.31,0,0,0,.91.19c.37,0,.85.07,1.46.08v.86H420v-.86a15.9,15.9,0,0,0,1.85-.15,2.31,2.31,0,0,0,.85-.3,1.13,1.13,0,0,0,.43-.57,3.63,3.63,0,0,0,.14-1.18v-9.5a1.15,1.15,0,0,0-.17-.69.58.58,0,0,0-.48-.22,2.5,2.5,0,0,0-1.07.39c-.46.26-1,.61-1.71,1.07l-.51-.9,5.48-3.27h.65c-.05.75-.07,1.79-.07,3.11Z" transform="translate(140.8 -326.68)"/><path class="cls-3" d="M453.12,338.19h-5.44v-1.82h5.44Z" transform="translate(140.8 -326.68)"/><path class="cls-3" d="M462.61,341.57a4.69,4.69,0,0,0,.93-.07,1.25,1.25,0,0,0,.56-.23,1.1,1.1,0,0,0,.33-.43,6.77,6.77,0,0,0,.32-.81h1l-.2,3.42H455.9v-.56a14.24,14.24,0,0,1,1.36-2.52,28.54,28.54,0,0,1,2.42-3c.91-1,1.56-1.76,2-2.27a10.31,10.31,0,0,0,1-1.46,5.58,5.58,0,0,0,.46-1.16,4.54,4.54,0,0,0,.14-1.1,4,4,0,0,0-.28-1.55,2.31,2.31,0,0,0-.86-1.06,2.56,2.56,0,0,0-1.46-.39,3,3,0,0,0-2.95,2.44h-1.42v-2.25a14.41,14.41,0,0,1,2.65-1,10.11,10.11,0,0,1,2.22-.29,4.94,4.94,0,0,1,3.3,1,3.46,3.46,0,0,1,1.11,2.77,5.14,5.14,0,0,1-.12,1.15,4.34,4.34,0,0,1-.39,1,7.68,7.68,0,0,1-.71,1.09c-.3.39-.62.79-1,1.19s-1,1.07-1.87,2a25.19,25.19,0,0,0-3.27,4.11Z" transform="translate(140.8 -326.68)"/><path class="cls-5" d="M-132.92,414.62a5.29,5.29,0,0,0,.07,1,1.18,1.18,0,0,0,.27.56,1.24,1.24,0,0,0,.56.34,4.5,4.5,0,0,0,.91.19c.37,0,.86.07,1.46.09v.85h-8.66v-.85a17.79,17.79,0,0,0,1.85-.16,2.24,2.24,0,0,0,.85-.3,1.11,1.11,0,0,0,.43-.56,3.75,3.75,0,0,0,.14-1.19v-9.5a1.17,1.17,0,0,0-.17-.69.57.57,0,0,0-.48-.21,2.51,2.51,0,0,0-1.06.38c-.47.26-1,.62-1.72,1.07l-.51-.9,5.48-3.27h.65c-.05.75-.07,1.79-.07,3.12Z" transform="translate(140.8 -326.68)"/><path class="cls-5" d="M-119.11,409.14a1.56,1.56,0,0,1,.83.22,1.38,1.38,0,0,1,.57.6,1.92,1.92,0,0,1,.2.87,1.84,1.84,0,0,1-.21.88,1.47,1.47,0,0,1-.57.59,1.64,1.64,0,0,1-.82.21,1.63,1.63,0,0,1-.81-.21,1.41,1.41,0,0,1-.57-.59,1.84,1.84,0,0,1-.21-.88,1.92,1.92,0,0,1,.2-.87,1.38,1.38,0,0,1,.57-.6A1.53,1.53,0,0,1-119.11,409.14Z" transform="translate(140.8 -326.68)"/><path class="cls-5" d="M-102.21,415.81a5.6,5.6,0,0,0,.93-.07,1.38,1.38,0,0,0,.56-.24,1.1,1.1,0,0,0,.33-.43,6.77,6.77,0,0,0,.32-.81h1l-.2,3.42h-9.64v-.56a14.24,14.24,0,0,1,1.36-2.52,28.54,28.54,0,0,1,2.42-3c.91-1,1.56-1.75,2-2.27a10.31,10.31,0,0,0,1-1.46,5.37,5.37,0,0,0,.46-1.16,4.53,4.53,0,0,0,.14-1.09,4,4,0,0,0-.28-1.56,2.31,2.31,0,0,0-.86-1.06,2.64,2.64,0,0,0-1.46-.38,3,3,0,0,0-3,2.43h-1.42v-2.25a14.33,14.33,0,0,1,2.65-1,9.6,9.6,0,0,1,2.22-.3,5,5,0,0,1,3.3.95,3.47,3.47,0,0,1,1.11,2.78,5.11,5.11,0,0,1-.12,1.14,4.18,4.18,0,0,1-.39,1,7.68,7.68,0,0,1-.71,1.09c-.3.4-.62.79-1,1.19s-1,1.08-1.87,2a25.2,25.2,0,0,0-3.27,4.12Z" transform="translate(140.8 -326.68)"/><path class="cls-5" d="M-90.41,409.21v-1.63H-80v1.63Zm0,4.86v-1.63H-80v1.63Z" transform="translate(140.8 -326.68)"/><path class="cls-2" d="M-65.79,411.64v4.44h-1.72v-4.44h-4.32V410h4.32v-4.43h1.72V410h4.34v1.63Z" transform="translate(140.8 -326.68)"/><path class="cls-2" d="M-51.77,415.81a5.69,5.69,0,0,0,.93-.07,1.38,1.38,0,0,0,.56-.24,1.1,1.1,0,0,0,.33-.43,7.13,7.13,0,0,0,.31-.81h1l-.2,3.42h-9.64v-.56a14.15,14.15,0,0,1,1.35-2.52,27.57,27.57,0,0,1,2.43-3c.91-1,1.56-1.75,2-2.27a11.25,11.25,0,0,0,1-1.46,5.94,5.94,0,0,0,.46-1.16,4.53,4.53,0,0,0,.14-1.09,4,4,0,0,0-.28-1.56A2.37,2.37,0,0,0-52.3,403a2.66,2.66,0,0,0-1.46-.38,3,3,0,0,0-3,2.43h-1.41v-2.25a14.33,14.33,0,0,1,2.65-1,9.6,9.6,0,0,1,2.22-.3,5,5,0,0,1,3.29.95,3.44,3.44,0,0,1,1.12,2.78,4.57,4.57,0,0,1-.13,1.14,4.59,4.59,0,0,1-.38,1,7.68,7.68,0,0,1-.71,1.09c-.3.4-.63.79-1,1.19s-1,1.08-1.86,2a25.2,25.2,0,0,0-3.27,4.12Z" transform="translate(140.8 -326.68)"/><path class="cls-5" d="M18.13,412.42H12.69V410.6h5.44Z" transform="translate(140.8 -326.68)"/><path class="cls-5" d="M27.62,415.81a5.51,5.51,0,0,0,.93-.07,1.38,1.38,0,0,0,.56-.24,1.23,1.23,0,0,0,.34-.43c.08-.17.18-.44.31-.81h1l-.2,3.42H20.91v-.56a14.92,14.92,0,0,1,1.36-2.52,28.54,28.54,0,0,1,2.42-3c.91-1,1.56-1.75,2-2.27a9.51,9.51,0,0,0,1-1.46,4.9,4.9,0,0,0,.46-1.16,4.08,4.08,0,0,0,.14-1.09A4,4,0,0,0,28,404a2.25,2.25,0,0,0-.86-1.06,2.64,2.64,0,0,0-1.46-.38A3,3,0,0,0,22.68,405H21.26v-2.25a14.41,14.41,0,0,1,2.66-1,9.46,9.46,0,0,1,2.22-.3,5,5,0,0,1,3.29.95,3.47,3.47,0,0,1,1.11,2.78,5.11,5.11,0,0,1-.12,1.14,4.18,4.18,0,0,1-.39,1,6.9,6.9,0,0,1-.71,1.09,14.66,14.66,0,0,1-1,1.19q-.54.61-1.86,2a24.15,24.15,0,0,0-3.27,4.12Z" transform="translate(140.8 -326.68)"/><path class="cls-5" d="M41.36,409.14a1.59,1.59,0,0,1,.83.22,1.41,1.41,0,0,1,.56.6,1.8,1.8,0,0,1,.2.87,2,2,0,0,1-.2.88,1.5,1.5,0,0,1-.58.59,1.58,1.58,0,0,1-.81.21,1.64,1.64,0,0,1-.82-.21,1.54,1.54,0,0,1-.57-.59,1.84,1.84,0,0,1-.2-.88A1.92,1.92,0,0,1,40,410a1.5,1.5,0,0,1,.57-.6A1.56,1.56,0,0,1,41.36,409.14Z" transform="translate(140.8 -326.68)"/><path class="cls-5" d="M51.89,405v-2.22a16.14,16.14,0,0,1,2.55-1,8.85,8.85,0,0,1,2.28-.31,6.12,6.12,0,0,1,2.32.41,3.28,3.28,0,0,1,1.53,1.18,3.15,3.15,0,0,1,.52,1.83,3.64,3.64,0,0,1-.4,1.75A3.88,3.88,0,0,1,59.58,408a9.82,9.82,0,0,1-1.87,1.1v.11a5.22,5.22,0,0,1,1.37.44,4.17,4.17,0,0,1,1.18.8,3.67,3.67,0,0,1,1.14,2.74,4.93,4.93,0,0,1-.59,2.42A4.18,4.18,0,0,1,59,417.26a6.58,6.58,0,0,1-3,.61,11.46,11.46,0,0,1-2.17-.23,12.54,12.54,0,0,1-2.14-.6v-2.49h1.4a3.76,3.76,0,0,0,1.09,1.77,2.79,2.79,0,0,0,1.83.55,3,3,0,0,0,2.31-.83,3.5,3.5,0,0,0,.77-2.46,3.27,3.27,0,0,0-1-2.61,4.45,4.45,0,0,0-3-.91H54v-1a7,7,0,0,0,2.66-.61,3.77,3.77,0,0,0,1.61-1.32,3.26,3.26,0,0,0,.53-1.82,2.75,2.75,0,0,0-.69-2,3.14,3.14,0,0,0-3.81-.11,3.58,3.58,0,0,0-1,1.83Z" transform="translate(140.8 -326.68)"/><path class="cls-5" d="M70.06,409.21v-1.63H80.44v1.63Zm0,4.86v-1.63H80.44v1.63Z" transform="translate(140.8 -326.68)"/><path class="cls-3" d="M93.88,412.42H88.44V410.6h5.44Z" transform="translate(140.8 -326.68)"/><path class="cls-3" d="M105.82,402.14v.58a6.56,6.56,0,0,0-3.2.77,6.27,6.27,0,0,0-2.31,2.27A10.34,10.34,0,0,0,99,409.33l.11,0a7.8,7.8,0,0,1,1.94-1,6.33,6.33,0,0,1,2.07-.33,4.29,4.29,0,0,1,2.26.58,3.66,3.66,0,0,1,1.4,1.63,6,6,0,0,1,.47,2.46,6,6,0,0,1-.59,2.69,4.15,4.15,0,0,1-1.81,1.83,6.19,6.19,0,0,1-3,.67A4.72,4.72,0,0,1,98,416.28a7.29,7.29,0,0,1-1.31-4.7,11.42,11.42,0,0,1,.66-3.91,9.82,9.82,0,0,1,1.86-3.17,9.18,9.18,0,0,1,2.8-2.13,8.53,8.53,0,0,1,3.35-.87Zm-3.49,7.1a5.11,5.11,0,0,0-1.11.13,4.3,4.3,0,0,0-1,.38,4.73,4.73,0,0,0-.91.62.83.83,0,0,0-.21.27,1.62,1.62,0,0,0-.16.55c0,.22,0,.59,0,1.1a6.36,6.36,0,0,0,.75,3.41,2.52,2.52,0,0,0,2.27,1.17,3.28,3.28,0,0,0,1.48-.3,2.55,2.55,0,0,0,1-.84,3.44,3.44,0,0,0,.52-1.25,7,7,0,0,0,.16-1.57,4.53,4.53,0,0,0-.71-2.7A2.38,2.38,0,0,0,102.33,409.24Z" transform="translate(140.8 -326.68)"/><path class="cls-5" d="M252.37,417.87a4.12,4.12,0,0,1-3.77-2,11.66,11.66,0,0,1-1.24-6.05,16.23,16.23,0,0,1,.38-3.73,8.14,8.14,0,0,1,1.07-2.59,4.4,4.4,0,0,1,1.65-1.52,4.5,4.5,0,0,1,2.09-.49,4.2,4.2,0,0,1,3.82,2,11.34,11.34,0,0,1,1.26,6,11.93,11.93,0,0,1-1.34,6.27A4.35,4.35,0,0,1,252.37,417.87Zm-2.72-8.39a16.12,16.12,0,0,0,.71,5.61,2.34,2.34,0,0,0,2.19,1.78,2.26,2.26,0,0,0,2.11-1.68,14.9,14.9,0,0,0,.68-5.21,21.5,21.5,0,0,0-.35-4.36,5.37,5.37,0,0,0-1-2.4,1.93,1.93,0,0,0-1.51-.73,2,2,0,0,0-1.36.49,3.46,3.46,0,0,0-.88,1.38,9.17,9.17,0,0,0-.47,2.2A25.62,25.62,0,0,0,249.65,409.48Z" transform="translate(140.8 -326.68)"/><path class="cls-5" d="M265.88,409.21v-1.63h10.38v1.63Zm0,4.86v-1.63h10.38v1.63Z" transform="translate(140.8 -326.68)"/><path class="cls-3" d="M289.7,412.42h-5.43V410.6h5.43Z" transform="translate(140.8 -326.68)"/><path class="cls-3" d="M299.19,415.81a5.51,5.51,0,0,0,.93-.07,1.38,1.38,0,0,0,.56-.24,1.23,1.23,0,0,0,.34-.43c.08-.17.18-.44.31-.81h1l-.2,3.42h-9.64v-.56a14.92,14.92,0,0,1,1.36-2.52,27.57,27.57,0,0,1,2.43-3c.9-1,1.55-1.75,2-2.27a9.51,9.51,0,0,0,1-1.46,4.9,4.9,0,0,0,.46-1.16,4.08,4.08,0,0,0,.14-1.09,4,4,0,0,0-.28-1.56,2.31,2.31,0,0,0-.86-1.06,2.64,2.64,0,0,0-1.46-.38,3,3,0,0,0-2.95,2.43h-1.42v-2.25a14.41,14.41,0,0,1,2.66-1,9.46,9.46,0,0,1,2.22-.3,5,5,0,0,1,3.29.95,3.47,3.47,0,0,1,1.11,2.78,5.11,5.11,0,0,1-.12,1.14,4.18,4.18,0,0,1-.39,1,6.9,6.9,0,0,1-.71,1.09,14.66,14.66,0,0,1-1,1.19q-.54.61-1.86,2a24.15,24.15,0,0,0-3.27,4.12Z" transform="translate(140.8 -326.68)"/><path class="cls-5" d="M317,411.64v4.44h-1.72v-4.44H311V410h4.32v-4.43H317V410h4.34v1.63Z" transform="translate(140.8 -326.68)"/><path class="cls-5" d="M334.21,410.92l1.52-1.93a3.4,3.4,0,0,0,.4-.62,1.34,1.34,0,0,0,.15-.61.56.56,0,0,0-.2-.45,1.28,1.28,0,0,0-.62-.26v-.57h3.84v.57a2.71,2.71,0,0,0-.91.51,8,8,0,0,0-1.13,1.2l-2.43,3,2.67,3.6a9,9,0,0,0,1,1.18,3,3,0,0,0,.92.59v.57h-4.71v-.57c.65-.08,1-.32,1-.73a1.5,1.5,0,0,0-.08-.47,2.1,2.1,0,0,0-.31-.51l-1.7-2.37-1.8,2.34a3.18,3.18,0,0,0-.31.48,1,1,0,0,0-.11.48.71.71,0,0,0,.21.53,1.22,1.22,0,0,0,.69.25v.57h-3.91v-.57a3.43,3.43,0,0,0,.69-.35,4.38,4.38,0,0,0,.64-.55c.21-.22.49-.55.85-1l2.43-3-2.49-3.42a12.06,12.06,0,0,0-.82-1,3.22,3.22,0,0,0-.57-.48,2,2,0,0,0-.51-.24v-.57h4.59v.57c-.62.1-.92.34-.92.73a1.32,1.32,0,0,0,.12.54,3.06,3.06,0,0,0,.38.6Z" transform="translate(140.8 -326.68)"/><path class="cls-5" d="M343.91,415a8.26,8.26,0,0,1,.17,1.62,4,4,0,0,1-.28,1.5,4.81,4.81,0,0,1-.9,1.35,12.84,12.84,0,0,1-1.69,1.49l-.64-.72a4.86,4.86,0,0,0,.87-1,3.24,3.24,0,0,0,.39-1,7.26,7.26,0,0,0,.11-1.44,17.14,17.14,0,0,0-.08-1.76Zm.14-7.86v2.74h-2.34V407.1Z" transform="translate(140.8 -326.68)"/><path class="cls-5" d="M412.33,414.62a5.29,5.29,0,0,0,.07,1,1.18,1.18,0,0,0,.27.56,1.24,1.24,0,0,0,.56.34,4.5,4.5,0,0,0,.91.19c.37,0,.86.07,1.46.09v.85h-8.66v-.85a17.79,17.79,0,0,0,1.85-.16,2.24,2.24,0,0,0,.85-.3,1.11,1.11,0,0,0,.43-.56,3.75,3.75,0,0,0,.14-1.19v-9.5a1.17,1.17,0,0,0-.17-.69.57.57,0,0,0-.48-.21,2.51,2.51,0,0,0-1.06.38c-.47.26-1,.62-1.72,1.07l-.51-.9,5.48-3.27h.65c0,.75-.07,1.79-.07,3.12Z" transform="translate(140.8 -326.68)"/><path class="cls-5" d="M426.14,409.14a1.56,1.56,0,0,1,.83.22,1.38,1.38,0,0,1,.57.6,1.92,1.92,0,0,1,.2.87,1.84,1.84,0,0,1-.21.88,1.47,1.47,0,0,1-.57.59,1.69,1.69,0,0,1-1.63,0,1.5,1.5,0,0,1-.58-.59,2,2,0,0,1-.2-.88,1.92,1.92,0,0,1,.2-.87,1.38,1.38,0,0,1,.57-.6A1.53,1.53,0,0,1,426.14,409.14Z" transform="translate(140.8 -326.68)"/><path class="cls-5" d="M443,415.81a5.69,5.69,0,0,0,.93-.07,1.38,1.38,0,0,0,.56-.24,1.1,1.1,0,0,0,.33-.43,5.61,5.61,0,0,0,.31-.81h1l-.2,3.42h-9.64v-.56a14.24,14.24,0,0,1,1.36-2.52,28.54,28.54,0,0,1,2.42-3c.91-1,1.56-1.75,2-2.27a10.31,10.31,0,0,0,1-1.46,5.37,5.37,0,0,0,.46-1.16,4.53,4.53,0,0,0,.14-1.09,4,4,0,0,0-.28-1.56,2.31,2.31,0,0,0-.86-1.06,2.64,2.64,0,0,0-1.46-.38A3,3,0,0,0,438.1,405h-1.42v-2.25a14.33,14.33,0,0,1,2.65-1,9.6,9.6,0,0,1,2.22-.3,5,5,0,0,1,3.3.95,3.47,3.47,0,0,1,1.11,2.78,5.11,5.11,0,0,1-.12,1.14,4.63,4.63,0,0,1-.39,1,7.68,7.68,0,0,1-.71,1.09c-.3.4-.62.79-1,1.19s-1,1.08-1.87,2a25.2,25.2,0,0,0-3.27,4.12Z" transform="translate(140.8 -326.68)"/><path class="cls-5" d="M454.84,409.21v-1.63h10.39v1.63Zm0,4.86v-1.63h10.39v1.63Z" transform="translate(140.8 -326.68)"/><path class="cls-2" d="M479.46,411.64v4.44h-1.72v-4.44h-4.32V410h4.32v-4.43h1.72V410h4.34v1.63Z" transform="translate(140.8 -326.68)"/><path class="cls-2" d="M493.48,415.81a5.69,5.69,0,0,0,.93-.07,1.38,1.38,0,0,0,.56-.24,1.1,1.1,0,0,0,.33-.43,7.13,7.13,0,0,0,.31-.81h1l-.2,3.42h-9.65v-.56a14.92,14.92,0,0,1,1.36-2.52,27.57,27.57,0,0,1,2.43-3c.91-1,1.56-1.75,2-2.27a11.25,11.25,0,0,0,1-1.46,5.94,5.94,0,0,0,.46-1.16,4.53,4.53,0,0,0,.14-1.09,4,4,0,0,0-.28-1.56A2.37,2.37,0,0,0,493,403a2.66,2.66,0,0,0-1.46-.38,3,3,0,0,0-3,2.43h-1.41v-2.25a14.33,14.33,0,0,1,2.65-1,9.46,9.46,0,0,1,2.22-.3,5,5,0,0,1,3.29.95,3.44,3.44,0,0,1,1.12,2.78,4.69,4.69,0,0,1-.51,2.17,7.68,7.68,0,0,1-.71,1.09c-.3.4-.63.79-1,1.19s-1,1.08-1.86,2a25.2,25.2,0,0,0-3.27,4.12Z" transform="translate(140.8 -326.68)"/><path class="cls-5" d="M-134.55,442.87a4.13,4.13,0,0,1-3.77-2,11.76,11.76,0,0,1-1.24-6.05,15.65,15.65,0,0,1,.39-3.73,8.14,8.14,0,0,1,1.06-2.59,4.4,4.4,0,0,1,1.65-1.52,4.51,4.51,0,0,1,2.1-.49,4.22,4.22,0,0,1,3.82,2,11.43,11.43,0,0,1,1.25,6,11.93,11.93,0,0,1-1.34,6.27A4.35,4.35,0,0,1-134.55,442.87Zm-2.72-8.39a16.41,16.41,0,0,0,.71,5.61,2.34,2.34,0,0,0,2.2,1.78,2.26,2.26,0,0,0,2.1-1.68,14.62,14.62,0,0,0,.69-5.21,21.4,21.4,0,0,0-.36-4.36,5.5,5.5,0,0,0-1-2.4,2,2,0,0,0-1.52-.73,2,2,0,0,0-1.36.48,3.39,3.39,0,0,0-.87,1.39,8.7,8.7,0,0,0-.48,2.19A28.5,28.5,0,0,0-137.27,434.48Z" transform="translate(140.8 -326.68)"/><path class="cls-5" d="M-121,434.21v-1.63h10.38v1.63Zm0,4.86v-1.63h10.38v1.63Z" transform="translate(140.8 -326.68)"/><path class="cls-2" d="M-95.69,440.81a5.47,5.47,0,0,0,.92-.07,1.36,1.36,0,0,0,.57-.24,1.1,1.1,0,0,0,.33-.43,7.13,7.13,0,0,0,.31-.81h1l-.2,3.42h-9.65v-.56A14.92,14.92,0,0,1-101,439.6a27.57,27.57,0,0,1,2.43-3c.9-1,1.56-1.75,2-2.27a10.12,10.12,0,0,0,1-1.46,5.43,5.43,0,0,0,.47-1.16,4.53,4.53,0,0,0,.14-1.09,4.17,4.17,0,0,0-.28-1.56,2.33,2.33,0,0,0-.87-1.06,2.6,2.6,0,0,0-1.45-.38,3,3,0,0,0-3,2.43h-1.42v-2.25a14.41,14.41,0,0,1,2.66-1,9.46,9.46,0,0,1,2.22-.3,5,5,0,0,1,3.29.95,3.46,3.46,0,0,1,1.12,2.77,4.6,4.6,0,0,1-.13,1.15,4.77,4.77,0,0,1-.38,1,8.68,8.68,0,0,1-.71,1.09c-.3.39-.63.79-1,1.19s-1,1.08-1.86,2a24.78,24.78,0,0,0-3.27,4.12Z" transform="translate(140.8 -326.68)"/><path class="cls-5" d="M-77.84,436.63v4.45h-1.73v-4.45h-4.32V435h4.32v-4.43h1.73V435h4.33v1.62Z" transform="translate(140.8 -326.68)"/><path class="cls-5" d="M-60.68,435.92l1.53-1.93a5,5,0,0,0,.4-.62,1.34,1.34,0,0,0,.15-.61.59.59,0,0,0-.2-.45,1.33,1.33,0,0,0-.62-.26v-.57h3.83v.57a2.71,2.71,0,0,0-.91.51,8.57,8.57,0,0,0-1.13,1.2l-2.43,3,2.68,3.6a7.71,7.71,0,0,0,1,1.18,3.13,3.13,0,0,0,.91.59v.57h-4.71v-.57c.65-.08,1-.32,1-.73a1.26,1.26,0,0,0-.08-.47,1.76,1.76,0,0,0-.3-.51l-1.7-2.37-1.81,2.34a3.49,3.49,0,0,0-.31.48,1.06,1.06,0,0,0-.11.48.69.69,0,0,0,.22.53,1.16,1.16,0,0,0,.68.25v.57H-66.5v-.57a3.52,3.52,0,0,0,.7-.35,4.94,4.94,0,0,0,.63-.55c.21-.22.5-.55.85-1l2.44-3-2.5-3.42a10.33,10.33,0,0,0-.82-1,3.2,3.2,0,0,0-.56-.48,2,2,0,0,0-.52-.24v-.57h4.6v.57c-.62.1-.93.34-.93.73a1.32,1.32,0,0,0,.12.54,3.63,3.63,0,0,0,.38.6Z" transform="translate(140.8 -326.68)"/><path class="cls-5" d="M-51,440a8.24,8.24,0,0,1,.16,1.62,3.82,3.82,0,0,1-.28,1.5,4.81,4.81,0,0,1-.9,1.35,12.22,12.22,0,0,1-1.69,1.49l-.63-.72a4.77,4.77,0,0,0,.86-1,3.34,3.34,0,0,0,.39-1,7.17,7.17,0,0,0,.12-1.44c0-.59,0-1.18-.08-1.76Zm.14-7.86v2.74h-2.35V432.1Z" transform="translate(140.8 -326.68)"/><path class="cls-5" d="M21.1,442.87a4.12,4.12,0,0,1-3.77-2,11.76,11.76,0,0,1-1.24-6.05,16.23,16.23,0,0,1,.38-3.73,8.14,8.14,0,0,1,1.07-2.59A4.4,4.4,0,0,1,19.19,427a4.5,4.5,0,0,1,2.09-.49,4.2,4.2,0,0,1,3.82,2,11.32,11.32,0,0,1,1.26,6A11.93,11.93,0,0,1,25,440.74,4.35,4.35,0,0,1,21.1,442.87Zm-2.72-8.39a16.16,16.16,0,0,0,.71,5.61,2.34,2.34,0,0,0,2.19,1.78,2.26,2.26,0,0,0,2.11-1.68,14.67,14.67,0,0,0,.68-5.21,21.5,21.5,0,0,0-.35-4.36,5.37,5.37,0,0,0-1-2.4,1.93,1.93,0,0,0-1.51-.73,2,2,0,0,0-1.36.48,3.5,3.5,0,0,0-.88,1.39,9.19,9.19,0,0,0-.47,2.19A28.5,28.5,0,0,0,18.38,434.48Z" transform="translate(140.8 -326.68)"/><path class="cls-5" d="M34.61,434.21v-1.63H45v1.63Zm0,4.86v-1.63H45v1.63Z" transform="translate(140.8 -326.68)"/><path class="cls-3" d="M58.43,437.42H53V435.6h5.43Z" transform="translate(140.8 -326.68)"/><path class="cls-3" d="M70.37,427.14v.58a6.38,6.38,0,0,0-3.19.77,6.3,6.3,0,0,0-2.32,2.27,10.34,10.34,0,0,0-1.29,3.57l.11,0a7.8,7.8,0,0,1,1.94-1,6.33,6.33,0,0,1,2.07-.33,4.26,4.26,0,0,1,2.26.58,3.66,3.66,0,0,1,1.4,1.63,6,6,0,0,1,.47,2.46,6,6,0,0,1-.59,2.69,4.21,4.21,0,0,1-1.81,1.83,6.19,6.19,0,0,1-3,.67,4.72,4.72,0,0,1-3.87-1.59,7.29,7.29,0,0,1-1.31-4.7,11.38,11.38,0,0,1,.66-3.91,9.82,9.82,0,0,1,1.86-3.17,9.18,9.18,0,0,1,2.8-2.13,8.53,8.53,0,0,1,3.35-.87Zm-3.49,7.1a5.11,5.11,0,0,0-1.11.13,4.48,4.48,0,0,0-1,.38,5.06,5.06,0,0,0-.91.62.86.86,0,0,0-.21.27,1.43,1.43,0,0,0-.15.55,9.59,9.59,0,0,0,0,1.1,6.36,6.36,0,0,0,.75,3.41,2.52,2.52,0,0,0,2.27,1.17,3.28,3.28,0,0,0,1.48-.3,2.55,2.55,0,0,0,1-.84,3.44,3.44,0,0,0,.52-1.25,7.08,7.08,0,0,0,.16-1.57,4.53,4.53,0,0,0-.71-2.7A2.38,2.38,0,0,0,66.88,434.24Z" transform="translate(140.8 -326.68)"/><path class="cls-5" d="M85.77,436.63v4.45H84.05v-4.45H79.73V435h4.32v-4.43h1.72V435h4.34v1.62Z" transform="translate(140.8 -326.68)"/><path class="cls-2" d="M99.71,439.62a5.29,5.29,0,0,0,.07,1,1.18,1.18,0,0,0,.27.56,1.24,1.24,0,0,0,.56.34,4.5,4.5,0,0,0,.91.19c.37,0,.85.07,1.46.09v.85H94.32v-.85a17.79,17.79,0,0,0,1.85-.16,2.31,2.31,0,0,0,.85-.3,1.11,1.11,0,0,0,.43-.56,3.75,3.75,0,0,0,.14-1.19v-9.5a1.17,1.17,0,0,0-.17-.69.57.57,0,0,0-.48-.21,2.59,2.59,0,0,0-1.07.38c-.46.26-1,.62-1.71,1.07l-.51-.9,5.48-3.27h.65c0,.75-.07,1.79-.07,3.12Z" transform="translate(140.8 -326.68)"/><path class="cls-5" d="M117.64,436.63v4.45h-1.73v-4.45h-4.32V435h4.32v-4.43h1.73V435H122v1.62Z" transform="translate(140.8 -326.68)"/><path class="cls-5" d="M127.62,440a8.24,8.24,0,0,1,.16,1.62,3.82,3.82,0,0,1-.28,1.5,4.56,4.56,0,0,1-.89,1.35,12.37,12.37,0,0,1-1.7,1.49l-.63-.72a4.86,4.86,0,0,0,.87-1,3.09,3.09,0,0,0,.38-1,7.17,7.17,0,0,0,.12-1.44c0-.59,0-1.18-.08-1.76Zm.14-7.86v2.74h-2.34V432.1Z" transform="translate(140.8 -326.68)"/><path class="cls-5" d="M252.12,435.92l1.52-1.93a3.4,3.4,0,0,0,.4-.62,1.34,1.34,0,0,0,.15-.61.58.58,0,0,0-.19-.45,1.37,1.37,0,0,0-.63-.26v-.57h3.84v.57a2.71,2.71,0,0,0-.91.51,8,8,0,0,0-1.13,1.2l-2.43,3,2.67,3.6a9,9,0,0,0,1,1.18,3.17,3.17,0,0,0,.92.59v.57h-4.71v-.57c.65-.08,1-.32,1-.73a1.5,1.5,0,0,0-.08-.47,2.1,2.1,0,0,0-.31-.51l-1.7-2.37-1.8,2.34a2.75,2.75,0,0,0-.31.48,1.06,1.06,0,0,0-.11.48.72.72,0,0,0,.21.53,1.22,1.22,0,0,0,.69.25v.57H246.3v-.57a3.43,3.43,0,0,0,.69-.35,4.38,4.38,0,0,0,.64-.55c.21-.22.49-.55.85-1l2.43-3-2.49-3.42a12.06,12.06,0,0,0-.82-1,3.22,3.22,0,0,0-.57-.48,2,2,0,0,0-.51-.24v-.57h4.59v.57c-.61.1-.92.34-.92.73a1.32,1.32,0,0,0,.12.54,3.06,3.06,0,0,0,.38.6Z" transform="translate(140.8 -326.68)"/><path class="cls-5" d="M264.37,434.21v-1.63h10.38v1.63Zm0,4.86v-1.63h10.38v1.63Z" transform="translate(140.8 -326.68)"/><path class="cls-2" d="M289,436.63v4.45h-1.72v-4.45h-4.33V435h4.33v-4.43H289V435h4.33v1.62Z" transform="translate(140.8 -326.68)"/><path class="cls-2" d="M303,440.81a5.6,5.6,0,0,0,.93-.07,1.38,1.38,0,0,0,.56-.24,1.23,1.23,0,0,0,.34-.43c.08-.17.18-.44.31-.81h1l-.2,3.42h-9.64v-.56a14.24,14.24,0,0,1,1.36-2.52,28.54,28.54,0,0,1,2.42-3c.91-1,1.56-1.75,2-2.27a10.31,10.31,0,0,0,1-1.46,5.37,5.37,0,0,0,.46-1.16,4.08,4.08,0,0,0,.14-1.09,4,4,0,0,0-.28-1.56,2.31,2.31,0,0,0-.86-1.06,2.64,2.64,0,0,0-1.46-.38,3,3,0,0,0-2.95,2.43h-1.42v-2.25a14.59,14.59,0,0,1,2.65-1,9.6,9.6,0,0,1,2.22-.3,5,5,0,0,1,3.3.95,3.46,3.46,0,0,1,1.11,2.77,5.14,5.14,0,0,1-.12,1.15,4.34,4.34,0,0,1-.39,1,6.9,6.9,0,0,1-.71,1.09c-.29.39-.62.79-1,1.19s-1,1.08-1.87,2a24.13,24.13,0,0,0-3.26,4.12Z" transform="translate(140.8 -326.68)"/><path class="cls-5" d="M-135,460.92l1.52-1.93a4,4,0,0,0,.4-.62,1.34,1.34,0,0,0,.15-.61.59.59,0,0,0-.2-.45,1.33,1.33,0,0,0-.62-.26v-.57h3.83v.57a2.81,2.81,0,0,0-.91.51,9.21,9.21,0,0,0-1.13,1.2l-2.42,3,2.67,3.6a8.3,8.3,0,0,0,1,1.18,3.17,3.17,0,0,0,.92.59v.57h-4.72v-.57c.65-.08,1-.32,1-.73a1.27,1.27,0,0,0-.09-.47,1.76,1.76,0,0,0-.3-.51l-1.7-2.37-1.8,2.34a2.27,2.27,0,0,0-.31.48,1,1,0,0,0-.12.48.73.73,0,0,0,.22.53,1.19,1.19,0,0,0,.69.25v.57h-3.92v-.57a3.52,3.52,0,0,0,.7-.35,3.87,3.87,0,0,0,.63-.55c.22-.22.5-.55.85-1l2.44-3-2.5-3.42a9,9,0,0,0-.82-1,3.2,3.2,0,0,0-.56-.48,2,2,0,0,0-.51-.24v-.57H-136v.57c-.62.1-.93.34-.93.73a1.19,1.19,0,0,0,.13.54,3.06,3.06,0,0,0,.38.6Z" transform="translate(140.8 -326.68)"/><path class="cls-5" d="M-122.73,459.21v-1.63h10.39v1.63Zm0,4.86v-1.63h10.39v1.63Z" transform="translate(140.8 -326.68)"/><path class="cls-3" d="M-98.9,462.42h-5.44V460.6h5.44Z" transform="translate(140.8 -326.68)"/><path class="cls-3" d="M-89.41,465.81a5.69,5.69,0,0,0,.93-.07,1.38,1.38,0,0,0,.56-.24,1.1,1.1,0,0,0,.33-.43,7.13,7.13,0,0,0,.31-.81h1l-.2,3.42h-9.65v-.56a14.92,14.92,0,0,1,1.36-2.52,27.57,27.57,0,0,1,2.43-3c.91-1,1.56-1.75,2-2.27a11.25,11.25,0,0,0,1-1.46,5.94,5.94,0,0,0,.46-1.16,4.53,4.53,0,0,0,.14-1.09,4.17,4.17,0,0,0-.28-1.56,2.37,2.37,0,0,0-.86-1.06,2.66,2.66,0,0,0-1.46-.38,3,3,0,0,0-3,2.43h-1.41v-2.25a14.33,14.33,0,0,1,2.65-1,9.46,9.46,0,0,1,2.22-.3,5,5,0,0,1,3.29.95,3.43,3.43,0,0,1,1.12,2.77,4.6,4.6,0,0,1-.13,1.15,4.77,4.77,0,0,1-.38,1,7.68,7.68,0,0,1-.71,1.09c-.3.39-.63.79-1,1.19s-1,1.08-1.86,2a24.78,24.78,0,0,0-3.27,4.12Z" transform="translate(140.8 -326.68)"/><path class="cls-5" d="M22.16,460.92,23.69,459a5,5,0,0,0,.4-.62,1.34,1.34,0,0,0,.15-.61.59.59,0,0,0-.2-.45,1.33,1.33,0,0,0-.62-.26v-.57h3.83v.57a2.71,2.71,0,0,0-.91.51,8.57,8.57,0,0,0-1.13,1.2l-2.43,3,2.68,3.6a7.71,7.71,0,0,0,1,1.18,3.13,3.13,0,0,0,.91.59v.57H22.69v-.57c.65-.08,1-.32,1-.73a1.26,1.26,0,0,0-.08-.47,1.76,1.76,0,0,0-.3-.51L21.58,463l-1.81,2.34a3.49,3.49,0,0,0-.31.48,1.06,1.06,0,0,0-.11.48.69.69,0,0,0,.22.53,1.16,1.16,0,0,0,.68.25v.57H16.34v-.57a3.52,3.52,0,0,0,.7-.35,4.94,4.94,0,0,0,.63-.55c.21-.22.5-.55.85-1l2.44-3-2.5-3.42a10.33,10.33,0,0,0-.82-1,3.2,3.2,0,0,0-.56-.48,2,2,0,0,0-.52-.24v-.57h4.6v.57c-.62.1-.93.34-.93.73a1.32,1.32,0,0,0,.12.54,3.63,3.63,0,0,0,.38.6Z" transform="translate(140.8 -326.68)"/><path class="cls-5" d="M34.41,459.21v-1.63H44.79v1.63Zm0,4.86v-1.63H44.79v1.63Z" transform="translate(140.8 -326.68)"/><path class="cls-2" d="M59,461.63v4.45H57.31v-4.45H53V460h4.33v-4.43H59V460h4.34v1.62Z" transform="translate(140.8 -326.68)"/><path class="cls-2" d="M66.58,467v-2.49H68a3.29,3.29,0,0,0,1.06,1.76,2.82,2.82,0,0,0,1.83.56,3,3,0,0,0,2.36-.93,4.26,4.26,0,0,0,.79-2.81,4.45,4.45,0,0,0-.42-2.05,2.61,2.61,0,0,0-1.14-1.18,3.63,3.63,0,0,0-1.66-.36,7.76,7.76,0,0,0-1.37.1,8.52,8.52,0,0,0-1.23.31l-.94-.55v-7.71h6.46a1.89,1.89,0,0,0,.57-.07.58.58,0,0,0,.28-.2,2,2,0,0,0,.25-.51h.91l-.17,2.72H68.84v5.15a5.61,5.61,0,0,1,1.32-.39,7.76,7.76,0,0,1,1.43-.13,5.24,5.24,0,0,1,2.48.57,4,4,0,0,1,1.66,1.62,4.88,4.88,0,0,1,.59,2.43,5.23,5.23,0,0,1-.66,2.69,4.22,4.22,0,0,1-1.9,1.71,6.85,6.85,0,0,1-2.94.59A12.12,12.12,0,0,1,66.58,467Z" transform="translate(140.8 -326.68)"/></svg>