<svg id="Capa_1" data-name="Capa 1" xmlns="http://www.w3.org/2000/svg" viewBox="0 0 330.49 69.04"><defs><style>.cls-1{fill:#fff;}</style></defs><title>erredox2</title><path class="cls-1" d="M-87.53,292.18c0,8.35-5.08,12.78-11.27,12.78-6.4,0-10.9-5-10.9-12.31,0-7.71,4.78-12.75,11.26-12.75S-87.53,285-87.53,292.18Zm-18.83.39c0,5.19,2.81,9.83,7.74,9.83s7.78-4.57,7.78-10.08c0-4.82-2.52-9.86-7.74-9.86S-106.36,287.25-106.36,292.57Z" transform="translate(109.7 -279)"/><path class="cls-1" d="M-82.27,287.14l2.48,3.74c.65,1,1.19,1.87,1.77,2.85h.1c.58-1.05,1.15-2,1.73-2.88l2.45-3.71h3.42l-5.94,8.42,6.12,9h-3.6l-2.56-3.92c-.68-1-1.26-2-1.87-3h-.07c-.58,1.05-1.19,2-1.84,3l-2.52,3.92h-3.49l6.19-8.89-5.9-8.53Z" transform="translate(109.7 -279)"/><path class="cls-1" d="M-63.55,282.24a1.88,1.88,0,0,1-2,1.95,1.89,1.89,0,0,1-1.91-1.95,1.94,1.94,0,0,1,2-2A1.89,1.89,0,0,1-63.55,282.24Zm-3.53,22.32V287.14h3.17v17.42Z" transform="translate(109.7 -279)"/><path class="cls-1" d="M-43.61,279v21.06c0,1.55,0,3.31.14,4.5h-2.84l-.14-3h-.08A6.44,6.44,0,0,1-52.47,305c-4.21,0-7.45-3.57-7.45-8.86,0-5.79,3.57-9.36,7.81-9.36a5.81,5.81,0,0,1,5.26,2.67h.07V279Zm-3.17,15.23a5.42,5.42,0,0,0-.14-1.33,4.66,4.66,0,0,0-4.57-3.67c-3.28,0-5.22,2.87-5.22,6.73,0,3.52,1.73,6.44,5.14,6.44a4.76,4.76,0,0,0,4.65-3.78,5.39,5.39,0,0,0,.14-1.37Z" transform="translate(109.7 -279)"/><path class="cls-1" d="M-28.71,304.56l-.25-2.2h-.11a6.48,6.48,0,0,1-5.32,2.6,5,5,0,0,1-5.33-5c0-4.21,3.74-6.51,10.47-6.48v-.36c0-1.44-.39-4-4-4a8.67,8.67,0,0,0-4.53,1.3l-.72-2.09a10.78,10.78,0,0,1,5.72-1.55c5.33,0,6.63,3.64,6.63,7.13v6.51a25.22,25.22,0,0,0,.28,4.18Zm-.46-8.89c-3.46-.07-7.38.54-7.38,3.92a2.8,2.8,0,0,0,3,3,4.35,4.35,0,0,0,4.22-2.92,3.52,3.52,0,0,0,.18-1Z" transform="translate(109.7 -279)"/><path class="cls-1" d="M-23,302.72l7.88-10.26c.76-.93,1.48-1.76,2.27-2.69v-.08h-9.43v-2.55H-9l0,2-7.78,10.11c-.72,1-1.44,1.84-2.23,2.74V302H-8.83v2.52H-23Z" transform="translate(109.7 -279)"/><path class="cls-1" d="M-2.07,282.24a1.87,1.87,0,0,1-2,1.95A1.89,1.89,0,0,1-6,282.24a1.94,1.94,0,0,1,2-2A1.88,1.88,0,0,1-2.07,282.24Zm-3.52,22.32V287.14h3.16v17.42Z" transform="translate(109.7 -279)"/><path class="cls-1" d="M18.6,295.7c0,6.45-4.47,9.26-8.68,9.26-4.71,0-8.35-3.46-8.35-9,0-5.83,3.82-9.25,8.64-9.25C15.21,286.74,18.6,290.38,18.6,295.7Zm-13.83.18c0,3.82,2.2,6.7,5.3,6.7s5.29-2.84,5.29-6.77c0-2.95-1.48-6.69-5.22-6.69S4.77,292.57,4.77,295.88Z" transform="translate(109.7 -279)"/><path class="cls-1" d="M32.24,304.56l-.25-2.2h-.11a6.48,6.48,0,0,1-5.33,2.6,5,5,0,0,1-5.32-5c0-4.21,3.74-6.51,10.47-6.48v-.36c0-1.44-.4-4-4-4a8.67,8.67,0,0,0-4.53,1.3l-.72-2.09a10.75,10.75,0,0,1,5.72-1.55c5.33,0,6.62,3.64,6.62,7.13v6.51a24.12,24.12,0,0,0,.29,4.18Zm-.47-8.89c-3.45-.07-7.38.54-7.38,3.92a2.81,2.81,0,0,0,3,3,4.32,4.32,0,0,0,4.21-2.92,3.21,3.21,0,0,0,.18-1Z" transform="translate(109.7 -279)"/><path class="cls-1" d="M39.19,290a2.14,2.14,0,1,1,4.28,0,2.14,2.14,0,1,1-4.28,0Zm0,12.7a2.14,2.14,0,1,1,4.28,0,2.14,2.14,0,1,1-4.28,0Z" transform="translate(109.7 -279)"/><path class="cls-1" d="M62.77,304.56V280.3h3.42L74,292.57a68.5,68.5,0,0,1,4.36,7.89l.07,0c-.29-3.24-.36-6.19-.36-10V280.3h3v24.26H77.82l-7.71-12.31a76.38,76.38,0,0,1-4.53-8.1l-.11,0c.18,3.06.25,6,.25,10v10.37Z" transform="translate(109.7 -279)"/><path class="cls-1" d="M108.63,282.93h-5.58l-.47,3.06a7.87,7.87,0,0,1,1.12-.08,6.3,6.3,0,0,1,3.31.8,4,4,0,0,1,2,3.63c0,2.77-2.27,4.82-5.62,4.82a8.07,8.07,0,0,1-3.74-.86l.5-1.8a6.81,6.81,0,0,0,3.21.79,2.92,2.92,0,0,0,3.16-2.73c0-1.69-1.15-2.88-4.06-2.88-.83,0-1.52.11-2.06.14l.94-6.87h7.27Z" transform="translate(109.7 -279)"/><path class="cls-1" d="M119.73,293.1h22.2l-4-5.12,1-1,6.91,6.69v1.13l-6.91,6.7-1-1,4-5.13h-22.2Z" transform="translate(109.7 -279)"/><path class="cls-1" d="M172,295.05c.42.7.77,1.32,1.06,1.85s.59,1.11.89,1.77h.23c-.06-.71-.11-2.13-.16-4.26s-.07-4.05-.07-5.76V285a15.32,15.32,0,0,0-.07-1.78,2.13,2.13,0,0,0-.26-.86,1.31,1.31,0,0,0-.51-.48,5.5,5.5,0,0,0-1.13-.41v-.86h6.33v.86a6.32,6.32,0,0,0-1.12.38,1.54,1.54,0,0,0-.52.46,2.08,2.08,0,0,0-.31.84,11.23,11.23,0,0,0-.11,1.85v19.71H174.1l-9.8-16.42c-.61-1-1-1.77-1.3-2.24s-.49-.93-.72-1.38H162c.09.9.14,2.53.18,4.89s.05,4.72.05,7.06v3.59a13.89,13.89,0,0,0,.08,1.72,2.23,2.23,0,0,0,.27.86,1.45,1.45,0,0,0,.54.53,5,5,0,0,0,1.17.42v.86h-6.42v-.86a3.54,3.54,0,0,0,1.46-.63,1.67,1.67,0,0,0,.49-1,12.77,12.77,0,0,0,.11-1.93V285a12.31,12.31,0,0,0-.09-1.77,2.16,2.16,0,0,0-.29-.86,1.47,1.47,0,0,0-.53-.49,6.34,6.34,0,0,0-1.15-.41v-.86h5.5Z" transform="translate(109.7 -279)"/><path class="cls-1" d="M205.05,293.2a5.57,5.57,0,0,0,.94-.06,1.5,1.5,0,0,0,.52-.18,1,1,0,0,0,.32-.32,5.68,5.68,0,0,0,.4-.84h1.21l-.24,3.39H197.9v-.67a11.77,11.77,0,0,1,1.61-2.53,30.53,30.53,0,0,1,2.39-2.57c1.09-1,1.87-1.83,2.32-2.36a6.69,6.69,0,0,0,1-1.51,3.26,3.26,0,0,0,.34-1.43,2.55,2.55,0,0,0-.68-1.88,2.6,2.6,0,0,0-1.94-.69,3,3,0,0,0-1.86.58,3.51,3.51,0,0,0-1.16,1.7h-1.67v-2.37a16.72,16.72,0,0,1,2.88-.9,11.92,11.92,0,0,1,2.34-.28,7.39,7.39,0,0,1,2.29.3,4,4,0,0,1,1.45.79,2.58,2.58,0,0,1,.76,1.13,4,4,0,0,1,.22,1.33,3.61,3.61,0,0,1-.35,1.61,6.62,6.62,0,0,1-1.15,1.62c-.53.58-1.48,1.49-2.84,2.72a20.76,20.76,0,0,0-3.16,3.42Z" transform="translate(109.7 -279)"/><path class="cls-1" d="M-92.44,323.77v5.3h-1.72a15.94,15.94,0,0,0-.55-1.51,6.44,6.44,0,0,0-.58-1.09,2.75,2.75,0,0,0-.65-.7,2,2,0,0,0-.86-.36,5.73,5.73,0,0,0-1.17-.1h-5.56v9.21h3.76a2.74,2.74,0,0,0,1.22-.22,1.66,1.66,0,0,0,.72-.74,6.82,6.82,0,0,0,.56-1.66h1.65v6.75h-1.65a6.66,6.66,0,0,0-.55-1.59,1.88,1.88,0,0,0-.71-.76,2.65,2.65,0,0,0-1.24-.23h-3.76v10.14h5.47a5.25,5.25,0,0,0,1.39-.15,2.23,2.23,0,0,0,.93-.51,3.3,3.3,0,0,0,.68-.94,7.06,7.06,0,0,0,.5-1.2c.14-.42.32-1,.56-1.82h1.74l-.34,6.17h-16.27v-.86a3.68,3.68,0,0,0,1.46-.63,1.72,1.72,0,0,0,.48-1,11.56,11.56,0,0,0,.11-1.93V328.16a14.49,14.49,0,0,0-.08-1.77,2.33,2.33,0,0,0-.29-.86,1.59,1.59,0,0,0-.54-.49,5.9,5.9,0,0,0-1.14-.41v-.86Z" transform="translate(109.7 -279)"/><path class="cls-1" d="M-83.84,333.87l.24.06a13.49,13.49,0,0,1,1.8-1.86A6.29,6.29,0,0,1-80,331a5.91,5.91,0,0,1,2.17-.37,14.85,14.85,0,0,1,1.85.1v4h-2a4.27,4.27,0,0,0-.89-1.38,1.91,1.91,0,0,0-1.31-.43,2.47,2.47,0,0,0-1.25.37,4.78,4.78,0,0,0-1.21,1.08,4.62,4.62,0,0,0-.8,1.31,4.53,4.53,0,0,0-.22,1.46v6.16a8.22,8.22,0,0,0,.2,2.2,1.55,1.55,0,0,0,.64.89,3.94,3.94,0,0,0,1.34.44v.86h-7.08v-.86a7,7,0,0,0,1-.37,1.61,1.61,0,0,0,.5-.44,2.21,2.21,0,0,0,.32-.86,11.36,11.36,0,0,0,.1-1.81v-7.67c0-.75,0-1.35,0-1.81a2.93,2.93,0,0,0-.25-1.1,1.35,1.35,0,0,0-.64-.61,4.81,4.81,0,0,0-1.22-.34V331l4.11-.17h1.07Z" transform="translate(109.7 -279)"/><path class="cls-1" d="M-68.95,333.87l.24.06a13.49,13.49,0,0,1,1.8-1.86,6.29,6.29,0,0,1,1.78-1,5.91,5.91,0,0,1,2.17-.37,14.85,14.85,0,0,1,1.85.1v4h-2a4.11,4.11,0,0,0-.9-1.38,1.89,1.89,0,0,0-1.3-.43,2.47,2.47,0,0,0-1.25.37,4.78,4.78,0,0,0-1.21,1.08,4.62,4.62,0,0,0-.8,1.31,4.53,4.53,0,0,0-.22,1.46v6.16a8.22,8.22,0,0,0,.2,2.2,1.51,1.51,0,0,0,.64.89,3.87,3.87,0,0,0,1.34.44v.86h-7.08v-.86a7,7,0,0,0,1-.37,1.61,1.61,0,0,0,.5-.44,2.07,2.07,0,0,0,.31-.86,11.09,11.09,0,0,0,.11-1.81v-7.67c0-.75,0-1.35,0-1.81a2.76,2.76,0,0,0-.24-1.1,1.35,1.35,0,0,0-.64-.61,4.78,4.78,0,0,0-1.23-.34V331l4.12-.17h1.07Z" transform="translate(109.7 -279)"/><path class="cls-1" d="M-45.29,344.77a14.73,14.73,0,0,1-2.07,1.85,8,8,0,0,1-2.06,1,7.55,7.55,0,0,1-2.48.38,6.77,6.77,0,0,1-5.47-2.17c-1.23-1.45-1.84-3.58-1.84-6.41a10.74,10.74,0,0,1,.94-4.62,7,7,0,0,1,2.68-3.09,7.34,7.34,0,0,1,4-1.09,7.26,7.26,0,0,1,3,.56,5.06,5.06,0,0,1,2,1.54,7,7,0,0,1,1.16,2.46,16.18,16.18,0,0,1,.47,3.87H-56v.32a11.29,11.29,0,0,0,.47,3.49A4.38,4.38,0,0,0-54,345.11a4.44,4.44,0,0,0,2.77.8,6,6,0,0,0,2.59-.53,7.65,7.65,0,0,0,2.29-1.75Zm-3-7.14a13.18,13.18,0,0,0-.47-3.1,3.89,3.89,0,0,0-1.11-1.84,2.82,2.82,0,0,0-1.93-.65,3.42,3.42,0,0,0-2.89,1.46,7.77,7.77,0,0,0-1.28,4.13Z" transform="translate(109.7 -279)"/><path class="cls-1" d="M-29.91,328.65c0-1.12,0-1.91,0-2.35a5.71,5.71,0,0,0-.14-1.14,2,2,0,0,0-.32-.73,1.45,1.45,0,0,0-.54-.42,5.82,5.82,0,0,0-1.24-.31v-.92l4.25-.17h1V343c0,.92,0,1.57.05,2a2.93,2.93,0,0,0,.23.94,1.28,1.28,0,0,0,.56.57,4.61,4.61,0,0,0,1.32.42v.91l-4.15.18h-1.05l.21-2.89L-30,345a13.58,13.58,0,0,1-1.93,1.77,7.33,7.33,0,0,1-1.74.94,5.57,5.57,0,0,1-2,.35,5.13,5.13,0,0,1-4.44-2.19,10.72,10.72,0,0,1-1.57-6.32,10.71,10.71,0,0,1,1-4.89,7,7,0,0,1,2.75-3,7.74,7.74,0,0,1,3.9-1,11.45,11.45,0,0,1,2.11.18,9.9,9.9,0,0,1,1.95.61Zm0,8.69a14.3,14.3,0,0,0-.13-2.2,4.3,4.3,0,0,0-.41-1.39,2.86,2.86,0,0,0-.78-.95,3.28,3.28,0,0,0-1.08-.56,4.91,4.91,0,0,0-1.42-.18,3.82,3.82,0,0,0-3.42,1.8A9.46,9.46,0,0,0-38.33,339a10.93,10.93,0,0,0,1,5.13,3.15,3.15,0,0,0,2.94,1.76,5.09,5.09,0,0,0,1.28-.13,4.16,4.16,0,0,0,1-.42,5.64,5.64,0,0,0,1-.8,4.2,4.2,0,0,0,.74-.93,3.49,3.49,0,0,0,.36-1,6,6,0,0,0,.13-1.41Z" transform="translate(109.7 -279)"/><path class="cls-1" d="M-22.23,331h5v8.94a22.28,22.28,0,0,0,.16,3.13,4.55,4.55,0,0,0,.47,1.62,2.61,2.61,0,0,0,.9.91,2.94,2.94,0,0,0,1.6.37,3.33,3.33,0,0,0,1.28-.26,5.74,5.74,0,0,0,1.37-.92,4.28,4.28,0,0,0,1.08-1.31,3.34,3.34,0,0,0,.33-1.52v-6.59c0-.67,0-1.17-.05-1.51a3.48,3.48,0,0,0-.18-.82,1.83,1.83,0,0,0-.29-.5,1.64,1.64,0,0,0-.47-.35,4.6,4.6,0,0,0-1-.33V331h5v12c0,.9,0,1.55,0,2a2.93,2.93,0,0,0,.23.95,1.31,1.31,0,0,0,.55.57,4.4,4.4,0,0,0,1.32.42v.91l-4,.18H-10l.1-2.89-.26-.07a11.32,11.32,0,0,1-2.79,2.32,5.44,5.44,0,0,1-2.66.74,5.06,5.06,0,0,1-2.64-.63,3.79,3.79,0,0,1-1.54-1.89,9.75,9.75,0,0,1-.51-3.54v-6.65a11.33,11.33,0,0,0-.12-2,1.64,1.64,0,0,0-.44-.88,3.26,3.26,0,0,0-1.41-.6Z" transform="translate(109.7 -279)"/><path class="cls-1" d="M2.77,338h.56a3.19,3.19,0,0,0,1-.12,4.35,4.35,0,0,0,1-.54A17.37,17.37,0,0,0,6.74,336,13.12,13.12,0,0,0,8,334.75a3.34,3.34,0,0,0,.57-1,2,2,0,0,0,.14-.74,1.1,1.1,0,0,0-.32-.83,2,2,0,0,0-1.07-.4V331h7.58v.86a5,5,0,0,0-1.72.72A11.13,11.13,0,0,0,11.26,334l-4,3.84,5.07,6.61a9,9,0,0,0,1.59,1.71,3.75,3.75,0,0,0,1.55.73v.86H8.67v-.86a1.62,1.62,0,0,0,.68-.2.56.56,0,0,0,.22-.5,1.34,1.34,0,0,0-.1-.52,3.53,3.53,0,0,0-.39-.7L8,343.45l-2.1-2.81a9.91,9.91,0,0,0-.85-1,1.68,1.68,0,0,0-.53-.35,2.25,2.25,0,0,0-.76-.1h-1v4.22a10.13,10.13,0,0,0,.14,2.1,1.51,1.51,0,0,0,.53.89,3.6,3.6,0,0,0,1.29.54v.86h-7v-.86A3.8,3.8,0,0,0-1,346.42a1.38,1.38,0,0,0,.49-.59,3.06,3.06,0,0,0,.21-.93q.06-.58.06-1.53V328.65c0-1.12,0-1.91,0-2.35a6.56,6.56,0,0,0-.14-1.14,2.16,2.16,0,0,0-.32-.73,1.58,1.58,0,0,0-.55-.42,5.65,5.65,0,0,0-1.24-.31v-.92l4.24-.17H2.77Z" transform="translate(109.7 -279)"/><path class="cls-1" d="M30.21,342.66v5.1H16.67v-.86l9.63-14.52H21.54a2.53,2.53,0,0,0-1.39.32,3.22,3.22,0,0,0-1,1.05,10.38,10.38,0,0,0-.88,2H16.78V331H30.1v.87l-9.62,14.51h4.63a5.16,5.16,0,0,0,1.37-.14,2.2,2.2,0,0,0,.79-.45,3.25,3.25,0,0,0,.65-1,17.78,17.78,0,0,0,.76-2.11Z" transform="translate(109.7 -279)"/><path class="cls-1" d="M33.32,346.9a6.28,6.28,0,0,0,1-.37,1.38,1.38,0,0,0,.49-.44,2.21,2.21,0,0,0,.32-.86,10,10,0,0,0,.11-1.81v-7.67c0-.75,0-1.35,0-1.81a2.75,2.75,0,0,0-.25-1.1,1.31,1.31,0,0,0-.64-.61,4.69,4.69,0,0,0-1.22-.34V331l4.1-.16h1.07v12.57a10.9,10.9,0,0,0,.14,2.1,1.47,1.47,0,0,0,.54.89,3.44,3.44,0,0,0,1.29.54v.86H33.32Zm5-22.84v3.41H35.11v-3.41Z" transform="translate(109.7 -279)"/><path class="cls-1" d="M51,348a7.13,7.13,0,0,1-5.58-2.15q-1.92-2.16-1.92-6.37a10.88,10.88,0,0,1,1-4.91,6.8,6.8,0,0,1,2.77-3,8.12,8.12,0,0,1,4-1,7.23,7.23,0,0,1,5.69,2.18,9.21,9.21,0,0,1,1.94,6.29,11.35,11.35,0,0,1-1,4.92,6.63,6.63,0,0,1-2.74,3A8.54,8.54,0,0,1,51,348Zm-4.18-8.89a11.08,11.08,0,0,0,1.15,5.56,3.65,3.65,0,0,0,3.3,1.94,3.44,3.44,0,0,0,2-.57,4.32,4.32,0,0,0,1.35-1.54,7.56,7.56,0,0,0,.74-2.24,14.39,14.39,0,0,0,.23-2.66,13.75,13.75,0,0,0-.57-4.29,5.38,5.38,0,0,0-1.55-2.51,3.5,3.5,0,0,0-2.25-.8,3.61,3.61,0,0,0-3.26,1.85A10,10,0,0,0,46.78,339.15Z" transform="translate(109.7 -279)"/><path class="cls-1" d="M72.59,345.25l-.27-.07a10.8,10.8,0,0,1-2.87,2.21,6.55,6.55,0,0,1-2.86.65,5.05,5.05,0,0,1-2.35-.52,3.7,3.7,0,0,1-1.57-1.46,4.26,4.26,0,0,1-.54-2.17,4.32,4.32,0,0,1,2.54-4q2.53-1.4,7.62-1.63v-1.14a9.54,9.54,0,0,0-.35-2.88,2.87,2.87,0,0,0-1.11-1.55,3.66,3.66,0,0,0-2-.49,3.27,3.27,0,0,0-2.21.72,4.45,4.45,0,0,0-1.26,2.16H63v-2.28a25.91,25.91,0,0,1,2.81-1.3,17.32,17.32,0,0,1,2.25-.65,11.7,11.7,0,0,1,2.29-.23,6,6,0,0,1,2.79.55,3.51,3.51,0,0,1,1.59,1.7,8.64,8.64,0,0,1,.52,3.44v6.12c0,.87,0,1.48,0,1.84a6.12,6.12,0,0,0,.11,1,1.89,1.89,0,0,0,.26.73,1.38,1.38,0,0,0,.52.46,5.19,5.19,0,0,0,1.11.41v.86H72.5Zm-.3-5.51a12.51,12.51,0,0,0-5.35.95,3,3,0,0,0-1.77,2.76,2.75,2.75,0,0,0,.4,1.59,2.06,2.06,0,0,0,1,.79,4.27,4.27,0,0,0,1.46.22,4.12,4.12,0,0,0,2.17-.58A4.21,4.21,0,0,0,71.74,344a3.36,3.36,0,0,0,.55-1.78Z" transform="translate(109.7 -279)"/><path class="cls-1" d="M84.8,331.89V336H81.29v-4.11Zm0,11.79v4.08H81.29v-4.08Z" transform="translate(109.7 -279)"/><path class="cls-1" d="M99.45,342.29a7.55,7.55,0,0,0,.94,2.45,3.66,3.66,0,0,0,1.55,1.32,5.89,5.89,0,0,0,2.44.43,4.3,4.3,0,0,0,3.16-1.07,4.19,4.19,0,0,0,1.1-3.13,4.76,4.76,0,0,0-.46-2.21,5,5,0,0,0-1.49-1.69,20.72,20.72,0,0,0-3.17-1.85,17.14,17.14,0,0,1-3.25-2,6.7,6.7,0,0,1-1.78-2.12,5.26,5.26,0,0,1-.59-2.49,6.24,6.24,0,0,1,.92-3.42,5.93,5.93,0,0,1,2.71-2.24,10,10,0,0,1,4.09-.8,22.32,22.32,0,0,1,2.61.15,22.92,22.92,0,0,1,3.19.63V329h-1.74a7.32,7.32,0,0,0-1-2.4,3.32,3.32,0,0,0-1.45-1.21,5.61,5.61,0,0,0-2.14-.34,4.85,4.85,0,0,0-2,.42,3.28,3.28,0,0,0-1.43,1.28,3.76,3.76,0,0,0-.53,2,4.47,4.47,0,0,0,.45,2.1,4.94,4.94,0,0,0,1.4,1.6,16.22,16.22,0,0,0,2.81,1.66,21.11,21.11,0,0,1,3.49,2.09,7.26,7.26,0,0,1,1.93,2.2,5.77,5.77,0,0,1,.7,2.9,7.62,7.62,0,0,1-.58,3.12,5.47,5.47,0,0,1-1.61,2.07,6.67,6.67,0,0,1-2.46,1.16,12.89,12.89,0,0,1-3.14.36,25.82,25.82,0,0,1-6.36-.93v-4.82Z" transform="translate(109.7 -279)"/><path class="cls-1" d="M138.33,336.4a5.57,5.57,0,0,0,.94-.06,1.5,1.5,0,0,0,.52-.18,1.08,1.08,0,0,0,.32-.32,5.68,5.68,0,0,0,.4-.84h1.21l-.25,3.39h-10.3v-.67a12.23,12.23,0,0,1,1.62-2.53,29,29,0,0,1,2.39-2.56c1.09-1.05,1.86-1.84,2.32-2.37a6.69,6.69,0,0,0,1-1.51,3.4,3.4,0,0,0,.34-1.43,2.55,2.55,0,0,0-.68-1.88,2.6,2.6,0,0,0-1.94-.69,3,3,0,0,0-1.86.58,3.63,3.63,0,0,0-1.17,1.71h-1.67v-2.38a17.08,17.08,0,0,1,2.89-.9,11.74,11.74,0,0,1,2.33-.28,7.46,7.46,0,0,1,2.3.3,4.08,4.08,0,0,1,1.45.79,2.58,2.58,0,0,1,.76,1.13,4,4,0,0,1,.22,1.34,3.6,3.6,0,0,1-.35,1.6,6.62,6.62,0,0,1-1.15,1.62c-.53.58-1.48,1.49-2.84,2.72A20.76,20.76,0,0,0,134,336.4Z" transform="translate(109.7 -279)"/><path class="cls-1" d="M154,336.3h22.2l-4-5.12,1-1,6.9,6.69V338l-6.9,6.7-1-1,4-5.13H154Z" transform="translate(109.7 -279)"/><path class="cls-1" d="M193.84,342.29a7.32,7.32,0,0,0,.95,2.45,3.6,3.6,0,0,0,1.55,1.32,5.86,5.86,0,0,0,2.44.43,4.3,4.3,0,0,0,3.15-1.07,4.15,4.15,0,0,0,1.1-3.13,4.89,4.89,0,0,0-.45-2.21,5.19,5.19,0,0,0-1.5-1.69,20.52,20.52,0,0,0-3.16-1.85,16.82,16.82,0,0,1-3.25-2,6.74,6.74,0,0,1-1.79-2.12,5.38,5.38,0,0,1-.59-2.49,6.17,6.17,0,0,1,.93-3.42,5.85,5.85,0,0,1,2.7-2.24,10,10,0,0,1,4.09-.8,22.32,22.32,0,0,1,2.61.15,22.92,22.92,0,0,1,3.19.63V329h-1.74a7.32,7.32,0,0,0-1-2.4,3.35,3.35,0,0,0-1.44-1.21,5.66,5.66,0,0,0-2.15-.34,4.77,4.77,0,0,0-2,.42,3.3,3.3,0,0,0-1.44,1.28,3.76,3.76,0,0,0-.52,2,4.47,4.47,0,0,0,.45,2.1,4.79,4.79,0,0,0,1.39,1.6,16.37,16.37,0,0,0,2.82,1.66,20.54,20.54,0,0,1,3.48,2.09,7.3,7.3,0,0,1,1.94,2.2,5.87,5.87,0,0,1,.69,2.9,7.46,7.46,0,0,1-.58,3.12,5.28,5.28,0,0,1-1.61,2.07,6.52,6.52,0,0,1-2.46,1.16,12.81,12.81,0,0,1-3.13.36,25.89,25.89,0,0,1-6.37-.93v-4.82Z" transform="translate(109.7 -279)"/><path class="cls-1" d="M215.16,338.67a4.59,4.59,0,0,1-4-1.86,9.64,9.64,0,0,1-1.33-5.61,11.53,11.53,0,0,1,.71-4.33,5.43,5.43,0,0,1,1.95-2.56,5.1,5.1,0,0,1,2.88-.83,5.48,5.48,0,0,1,2.56.55,4.47,4.47,0,0,1,1.68,1.52,6.47,6.47,0,0,1,.91,2.34,14.61,14.61,0,0,1,.28,3,9.79,9.79,0,0,1-1.45,5.82A4.86,4.86,0,0,1,215.16,338.67Zm-2.74-7.77a12.79,12.79,0,0,0,.7,5,2.35,2.35,0,0,0,2.24,1.55,2.24,2.24,0,0,0,2.13-1.45,11.28,11.28,0,0,0,.7-4.6,13.45,13.45,0,0,0-.7-5,2.28,2.28,0,0,0-2.15-1.62,2.21,2.21,0,0,0-1.75.74,4.41,4.41,0,0,0-.91,2.08A18.28,18.28,0,0,0,212.42,330.9Z" transform="translate(109.7 -279)"/><path class="cls-1" d="M91.43,282.74v4.93h4.74v1.26H91.43v5H90.08v-5H85.34v-1.26h4.74v-4.93Z" transform="translate(109.7 -279)"/><path class="cls-1" d="M188.53,282.74v4.93h4.74v1.26h-4.74v5h-1.35v-5h-4.74v-1.26h4.74v-4.93Z" transform="translate(109.7 -279)"/><path class="cls-1" d="M125.93,329.55v1.36h-5.19v-1.36Z" transform="translate(109.7 -279)"/></svg>