<svg id="Capa_1" data-name="Capa 1" xmlns="http://www.w3.org/2000/svg" viewBox="0 0 284.97 76.07"><defs><style>.cls-1{fill:#fff;}</style></defs><title>erredox3</title><path class="cls-1" d="M-108.62,300.92a10.51,10.51,0,0,0,5.18,1.48c4.07,0,5.33-2.59,5.29-4.54,0-3.27-3-4.67-6-4.67H-106v-2.38h1.76c2.31,0,5.22-1.19,5.22-4,0-1.87-1.19-3.53-4.1-3.53a8.61,8.61,0,0,0-4.68,1.55l-.83-2.3a11.14,11.14,0,0,1,6.12-1.8c4.61,0,6.7,2.73,6.7,5.58,0,2.41-1.44,4.46-4.32,5.5v.08a6.09,6.09,0,0,1,5.22,6c0,3.74-2.92,7-8.53,7a11.86,11.86,0,0,1-6.09-1.59Z" transform="translate(109.49 -279.33)"/><path class="cls-1" d="M-75.4,279.58a23.73,23.73,0,0,0-4.53,14.72,24.31,24.31,0,0,0,4.53,14.62h-2.48A23.27,23.27,0,0,1-82.6,294.3a23.76,23.76,0,0,1,4.72-14.72Z" transform="translate(109.49 -279.33)"/><path class="cls-1" d="M-64.31,304.56V280.3h3.42l7.78,12.27a68.32,68.32,0,0,1,4.35,7.89l.07,0c-.29-3.24-.36-6.19-.36-10V280.3h2.95v24.26h-3.16L-57,292.25a76.38,76.38,0,0,1-4.53-8.1l-.11,0c.18,3.06.25,6,.25,10v10.37Z" transform="translate(109.49 -279.33)"/><path class="cls-1" d="M-18.45,282.93H-24l-.46,3.06a7.6,7.6,0,0,1,1.11-.08,6.3,6.3,0,0,1,3.31.8,4,4,0,0,1,2,3.63c0,2.77-2.27,4.82-5.62,4.82a8.11,8.11,0,0,1-3.74-.86l.5-1.8a6.85,6.85,0,0,0,3.21.79,2.93,2.93,0,0,0,3.17-2.73c0-1.69-1.16-2.88-4.07-2.88-.83,0-1.51.11-2,.14l.93-6.87h7.27Z" transform="translate(109.49 -279.33)"/><path class="cls-1" d="M-7.35,293.1h22.2l-4-5.12,1-1,6.91,6.69v1.13l-6.91,6.7-1-1,4-5.13H-7.35Z" transform="translate(109.49 -279.33)"/><path class="cls-1" d="M45,295.05c.42.7.78,1.32,1.06,1.85s.59,1.11.89,1.77h.23c-.06-.71-.11-2.13-.16-4.26s-.07-4.05-.07-5.76V285a15.32,15.32,0,0,0-.07-1.78,2.32,2.32,0,0,0-.25-.86,1.47,1.47,0,0,0-.51-.48,5.9,5.9,0,0,0-1.14-.41v-.86h6.33v.86a6.32,6.32,0,0,0-1.12.38,1.54,1.54,0,0,0-.52.46,2.08,2.08,0,0,0-.31.84,11.23,11.23,0,0,0-.11,1.85v19.71H47l-9.79-16.42c-.61-1-1-1.77-1.31-2.24s-.49-.93-.72-1.38h-.29c.08.9.14,2.53.17,4.89s.05,4.72.05,7.06v3.59a13.89,13.89,0,0,0,.08,1.72,2.42,2.42,0,0,0,.27.86,1.45,1.45,0,0,0,.54.53,5,5,0,0,0,1.17.42v.86H30.77v-.86a3.54,3.54,0,0,0,1.46-.63,1.67,1.67,0,0,0,.49-1,12.77,12.77,0,0,0,.11-1.93V285a12.31,12.31,0,0,0-.09-1.77,2.16,2.16,0,0,0-.29-.86,1.47,1.47,0,0,0-.53-.49,6.34,6.34,0,0,0-1.15-.41v-.86h5.51Z" transform="translate(109.49 -279.33)"/><path class="cls-1" d="M78,293.2a5.49,5.49,0,0,0,.94-.06,1.5,1.5,0,0,0,.52-.18,1.12,1.12,0,0,0,.33-.32,6,6,0,0,0,.39-.84h1.21l-.24,3.39H70.82v-.67A12.17,12.17,0,0,1,72.43,292a29.15,29.15,0,0,1,2.4-2.57c1.09-1,1.86-1.83,2.32-2.36a7.43,7.43,0,0,0,1-1.51,3.39,3.39,0,0,0,.33-1.43,2.55,2.55,0,0,0-.68-1.88,2.6,2.6,0,0,0-1.94-.69,2.94,2.94,0,0,0-1.85.58,3.6,3.6,0,0,0-1.17,1.7H71.19v-2.37a16.72,16.72,0,0,1,2.88-.9,11.92,11.92,0,0,1,2.34-.28,7.39,7.39,0,0,1,2.29.3,4,4,0,0,1,1.45.79,2.69,2.69,0,0,1,.77,1.13,4.31,4.31,0,0,1,.22,1.33,3.62,3.62,0,0,1-.36,1.61,6.36,6.36,0,0,1-1.15,1.62c-.53.58-1.48,1.49-2.84,2.72a21.22,21.22,0,0,0-3.16,3.42Z" transform="translate(109.49 -279.33)"/><path class="cls-1" d="M101.72,296.67H93.56v-2.73h8.16Z" transform="translate(109.49 -279.33)"/><path class="cls-1" d="M123.89,301.75a7.24,7.24,0,0,0,1.38-.11,2,2,0,0,0,.85-.35,1.68,1.68,0,0,0,.5-.64,12.94,12.94,0,0,0,.46-1.22h1.5l-.3,5.13H113.81v-.84a22.74,22.74,0,0,1,2-3.78,42,42,0,0,1,3.64-4.56c1.36-1.5,2.34-2.63,2.94-3.41a15.54,15.54,0,0,0,1.46-2.18,7.88,7.88,0,0,0,.7-1.75,6.53,6.53,0,0,0,.21-1.64,6.05,6.05,0,0,0-.42-2.33,3.49,3.49,0,0,0-1.29-1.59,3.84,3.84,0,0,0-2.19-.58q-3.29,0-4.43,3.66h-2.13v-3.38a21.15,21.15,0,0,1,4-1.45,14.33,14.33,0,0,1,3.33-.45,7.37,7.37,0,0,1,4.94,1.44,5.14,5.14,0,0,1,1.67,4.15,7.63,7.63,0,0,1-.18,1.72,6.56,6.56,0,0,1-.58,1.54,12,12,0,0,1-1.07,1.65c-.44.58-.93,1.18-1.47,1.78s-1.47,1.61-2.8,3a36.77,36.77,0,0,0-4.9,6.17Z" transform="translate(109.49 -279.33)"/><path class="cls-1" d="M147.23,301.57a14.73,14.73,0,0,1-2.07,1.85,7.67,7.67,0,0,1-4.54,1.42,6.78,6.78,0,0,1-5.47-2.17c-1.23-1.45-1.84-3.58-1.84-6.41a10.74,10.74,0,0,1,.94-4.62,7.06,7.06,0,0,1,2.68-3.09,7.35,7.35,0,0,1,4-1.09,7.24,7.24,0,0,1,3,.56,5.09,5.09,0,0,1,2,1.54,7.4,7.4,0,0,1,1.16,2.46,16.24,16.24,0,0,1,.46,3.87H136.51v.32a11.31,11.31,0,0,0,.46,3.49,4.38,4.38,0,0,0,1.53,2.21,4.44,4.44,0,0,0,2.77.8,6,6,0,0,0,2.59-.53,7.68,7.68,0,0,0,2.3-1.75Zm-2.95-7.14a13.12,13.12,0,0,0-.48-3.1,3.74,3.74,0,0,0-1.11-1.84,2.82,2.82,0,0,0-1.93-.65,3.44,3.44,0,0,0-2.89,1.45,7.84,7.84,0,0,0-1.28,4.14Z" transform="translate(109.49 -279.33)"/><path class="cls-1" d="M165.65,279.33a11.4,11.4,0,0,1,4.88.9,6.58,6.58,0,0,1,2.94,2.73,13.93,13.93,0,0,1,1.53,4.78,51.71,51.71,0,0,1,.48,8,53.46,53.46,0,0,1-.47,7.95,14.39,14.39,0,0,1-1.52,4.83,6.74,6.74,0,0,1-3,2.79,11,11,0,0,1-4.89.94v-1.45a10.14,10.14,0,0,0,2.18-.21,3.83,3.83,0,0,0,1.83-.95,5.47,5.47,0,0,0,1.37-2.16,17.64,17.64,0,0,0,.91-4.29,65.71,65.71,0,0,0,.32-7.31q0-4-.26-6.72a19.83,19.83,0,0,0-.88-4.53,6.61,6.61,0,0,0-1.23-2.3,4.2,4.2,0,0,0-1.55-1.09,7.26,7.26,0,0,0-2.69-.42Z" transform="translate(109.49 -279.33)"/><path class="cls-1" d="M-98.66,345a7.36,7.36,0,0,0,1.39-.11,2,2,0,0,0,.84-.35,1.68,1.68,0,0,0,.5-.64,12.43,12.43,0,0,0,.47-1.22H-94l-.3,5.13h-14.46v-.84a21.35,21.35,0,0,1,2-3.78,39.64,39.64,0,0,1,3.64-4.56c1.35-1.5,2.33-2.63,2.93-3.41A14.88,14.88,0,0,0-98.65,333a8.47,8.47,0,0,0,.69-1.74,6.67,6.67,0,0,0,.21-1.65,6.05,6.05,0,0,0-.42-2.33,3.49,3.49,0,0,0-1.29-1.59,3.84,3.84,0,0,0-2.19-.58q-3.28,0-4.43,3.66h-2.13v-3.38a21,21,0,0,1,4-1.45,14.19,14.19,0,0,1,3.33-.45,7.39,7.39,0,0,1,4.94,1.44,5.17,5.17,0,0,1,1.67,4.15,7.08,7.08,0,0,1-.19,1.72,6.15,6.15,0,0,1-.58,1.54A11.82,11.82,0,0,1-96.11,334c-.45.58-.94,1.18-1.48,1.78s-1.47,1.61-2.79,3a36.9,36.9,0,0,0-4.91,6.17Z" transform="translate(109.49 -279.33)"/><path class="cls-1" d="M-70.15,355.41a11.4,11.4,0,0,1-4.88-.9A6.58,6.58,0,0,1-78,351.78,14.37,14.37,0,0,1-79.5,347a51.92,51.92,0,0,1-.47-8,53.68,53.68,0,0,1,.46-8A14.39,14.39,0,0,1-78,326.26,6.74,6.74,0,0,1-75,323.47a11.16,11.16,0,0,1,4.89-.93V324a10.14,10.14,0,0,0-2.18.21,3.93,3.93,0,0,0-1.83.95,5.47,5.47,0,0,0-1.37,2.16,18.13,18.13,0,0,0-.91,4.29,68.25,68.25,0,0,0-.32,7.31q0,4,.27,6.72a19.36,19.36,0,0,0,.87,4.53,6.45,6.45,0,0,0,1.24,2.3,4.09,4.09,0,0,0,1.54,1.09,7.26,7.26,0,0,0,2.69.42Z" transform="translate(109.49 -279.33)"/><path class="cls-1" d="M-57.74,342.29a7.54,7.54,0,0,0,1,2.45,3.6,3.6,0,0,0,1.55,1.32,5.89,5.89,0,0,0,2.44.43,4.34,4.34,0,0,0,3.16-1.07,4.19,4.19,0,0,0,1.1-3.13,4.88,4.88,0,0,0-.46-2.21,5.07,5.07,0,0,0-1.5-1.69,20.52,20.52,0,0,0-3.16-1.85,16.82,16.82,0,0,1-3.25-2,6.87,6.87,0,0,1-1.79-2.12,5.38,5.38,0,0,1-.59-2.49,6.17,6.17,0,0,1,.93-3.42,5.9,5.9,0,0,1,2.7-2.24,10,10,0,0,1,4.09-.8,22.32,22.32,0,0,1,2.61.15,22.65,22.65,0,0,1,3.19.63V329h-1.74a7.32,7.32,0,0,0-1-2.4A3.35,3.35,0,0,0-50,325.39a5.61,5.61,0,0,0-2.14-.34,4.78,4.78,0,0,0-2,.42,3.28,3.28,0,0,0-1.43,1.28,3.68,3.68,0,0,0-.53,2,4.47,4.47,0,0,0,.45,2.1,4.9,4.9,0,0,0,1.39,1.6,16.37,16.37,0,0,0,2.82,1.66A21.11,21.11,0,0,1-48,336.23a7.4,7.4,0,0,1,1.93,2.2,5.87,5.87,0,0,1,.69,2.9,7.46,7.46,0,0,1-.58,3.12,5.35,5.35,0,0,1-1.6,2.07A6.64,6.64,0,0,1-50,347.68a12.81,12.81,0,0,1-3.13.36,26,26,0,0,1-6.37-.93v-4.82Z" transform="translate(109.49 -279.33)"/><path class="cls-1" d="M-18.86,336.4a5.49,5.49,0,0,0,.94-.06,1.5,1.5,0,0,0,.52-.18,1.12,1.12,0,0,0,.33-.32,5,5,0,0,0,.39-.84h1.22l-.25,3.39H-26v-.67a12.23,12.23,0,0,1,1.62-2.53A27.58,27.58,0,0,1-22,332.63c1.09-1.05,1.86-1.84,2.32-2.37a6.69,6.69,0,0,0,1-1.51,3.39,3.39,0,0,0,.33-1.43,2.54,2.54,0,0,0-.67-1.88,2.62,2.62,0,0,0-1.95-.69,3,3,0,0,0-1.85.58A3.63,3.63,0,0,0-24,327h-1.67v-2.38a16.72,16.72,0,0,1,2.88-.9,11.92,11.92,0,0,1,2.34-.28,7.35,7.35,0,0,1,2.29.3,3.91,3.91,0,0,1,1.45.79,2.6,2.6,0,0,1,.77,1.13,4,4,0,0,1,.22,1.34,3.74,3.74,0,0,1-.35,1.6,6.9,6.9,0,0,1-1.15,1.62c-.54.58-1.48,1.49-2.84,2.72a20.9,20.9,0,0,0-3.17,3.42Z" transform="translate(109.49 -279.33)"/><path class="cls-1" d="M-3.14,336.3h22.2l-4-5.12,1-1L23,336.91V338l-6.91,6.7-1-1,4-5.13H-3.14Z" transform="translate(109.49 -279.33)"/><path class="cls-1" d="M36.66,342.29a7.32,7.32,0,0,0,1,2.45,3.58,3.58,0,0,0,1.54,1.32,6,6,0,0,0,2.45.43,4.3,4.3,0,0,0,3.15-1.07,4.19,4.19,0,0,0,1.1-3.13,4.76,4.76,0,0,0-.46-2.21,5,5,0,0,0-1.49-1.69,20.72,20.72,0,0,0-3.17-1.85,17.14,17.14,0,0,1-3.25-2,6.83,6.83,0,0,1-1.78-2.12,5.38,5.38,0,0,1-.59-2.49,6.24,6.24,0,0,1,.92-3.42,5.93,5.93,0,0,1,2.71-2.24,10,10,0,0,1,4.09-.8,22.32,22.32,0,0,1,2.61.15,22.92,22.92,0,0,1,3.19.63V329H46.89a7.32,7.32,0,0,0-1-2.4,3.35,3.35,0,0,0-1.44-1.21,5.66,5.66,0,0,0-2.15-.34,4.85,4.85,0,0,0-2.05.42,3.28,3.28,0,0,0-1.43,1.28,3.76,3.76,0,0,0-.53,2,4.47,4.47,0,0,0,.45,2.1,4.94,4.94,0,0,0,1.4,1.6,16.22,16.22,0,0,0,2.81,1.66,21.11,21.11,0,0,1,3.49,2.09,7.26,7.26,0,0,1,1.93,2.2,5.77,5.77,0,0,1,.7,2.9,7.46,7.46,0,0,1-.58,3.12,5.37,5.37,0,0,1-1.61,2.07,6.67,6.67,0,0,1-2.46,1.16,12.89,12.89,0,0,1-3.14.36,25.82,25.82,0,0,1-6.36-.93v-4.82Z" transform="translate(109.49 -279.33)"/><path class="cls-1" d="M58,338.67a4.62,4.62,0,0,1-4-1.86,9.71,9.71,0,0,1-1.33-5.61,11.32,11.32,0,0,1,.72-4.33,5.37,5.37,0,0,1,1.95-2.56,5,5,0,0,1,2.87-.83,5.52,5.52,0,0,1,2.57.55,4.47,4.47,0,0,1,1.68,1.52,6.66,6.66,0,0,1,.91,2.34,15.38,15.38,0,0,1,.27,3,9.72,9.72,0,0,1-1.45,5.82A4.84,4.84,0,0,1,58,338.67Zm-2.74-7.77a12.79,12.79,0,0,0,.7,5,2.33,2.33,0,0,0,2.23,1.55A2.27,2.27,0,0,0,60.31,336a11.31,11.31,0,0,0,.69-4.6,13.49,13.49,0,0,0-.69-5,2.29,2.29,0,0,0-2.16-1.62,2.19,2.19,0,0,0-1.74.74,4.41,4.41,0,0,0-.91,2.08A17.43,17.43,0,0,0,55.24,330.9Z" transform="translate(109.49 -279.33)"/><path class="cls-1" d="M84.63,338.69v6.66H82v-6.66H75.56v-2.44H82V329.6h2.59v6.65h6.5v2.44Z" transform="translate(109.49 -279.33)"/><path class="cls-1" d="M113.58,345a7.36,7.36,0,0,0,1.39-.11,2,2,0,0,0,.84-.35,1.68,1.68,0,0,0,.5-.64c.12-.27.28-.67.47-1.22h1.49l-.3,5.13H103.51v-.84a21.94,21.94,0,0,1,2-3.78,42,42,0,0,1,3.64-4.56c1.36-1.5,2.34-2.63,2.94-3.41a15.74,15.74,0,0,0,1.47-2.18,8.47,8.47,0,0,0,.69-1.74,6.67,6.67,0,0,0,.21-1.65,6.05,6.05,0,0,0-.42-2.33,3.49,3.49,0,0,0-1.29-1.59,3.84,3.84,0,0,0-2.19-.58q-3.28,0-4.43,3.66H104v-3.38a21.15,21.15,0,0,1,4-1.45,14.34,14.34,0,0,1,3.34-.45,7.39,7.39,0,0,1,4.94,1.44,5.17,5.17,0,0,1,1.67,4.15,7.61,7.61,0,0,1-.19,1.72,6.56,6.56,0,0,1-.58,1.54,11.82,11.82,0,0,1-1.06,1.65c-.45.58-.94,1.18-1.48,1.78s-1.47,1.61-2.79,3A36.39,36.39,0,0,0,107,345Z" transform="translate(109.49 -279.33)"/><path class="cls-1" d="M136.92,344.77a15.3,15.3,0,0,1-2.06,1.85,8,8,0,0,1-2.07,1,7.55,7.55,0,0,1-2.48.38,6.76,6.76,0,0,1-5.46-2.17c-1.23-1.45-1.85-3.58-1.85-6.41a10.74,10.74,0,0,1,.94-4.62,7.06,7.06,0,0,1,2.68-3.09,7.37,7.37,0,0,1,4-1.09,7.24,7.24,0,0,1,3,.56,5.09,5.09,0,0,1,2,1.54,7.21,7.21,0,0,1,1.16,2.46,16.24,16.24,0,0,1,.46,3.87H126.2v.32a11,11,0,0,0,.47,3.49,4.13,4.13,0,0,0,4.29,3,6.07,6.07,0,0,0,2.6-.53,7.77,7.77,0,0,0,2.29-1.75ZM134,337.63a13.12,13.12,0,0,0-.48-3.1,3.8,3.8,0,0,0-1.1-1.84,2.86,2.86,0,0,0-1.94-.65,3.43,3.43,0,0,0-2.89,1.46,7.77,7.77,0,0,0-1.27,4.13Z" transform="translate(109.49 -279.33)"/><path class="cls-1" d="M155.34,322.54a11.38,11.38,0,0,1,4.88.89,6.62,6.62,0,0,1,2.95,2.74,14.23,14.23,0,0,1,1.53,4.77,67.56,67.56,0,0,1,0,15.91,14.17,14.17,0,0,1-1.52,4.83,6.68,6.68,0,0,1-3,2.79,11,11,0,0,1-4.89.94V354a10.14,10.14,0,0,0,2.18-.21,3.83,3.83,0,0,0,1.83-.95,5.47,5.47,0,0,0,1.37-2.16,18.07,18.07,0,0,0,.92-4.29A68.64,68.64,0,0,0,162,339c0-2.64-.08-4.88-.26-6.72a19.83,19.83,0,0,0-.88-4.53,6.61,6.61,0,0,0-1.23-2.3A4.12,4.12,0,0,0,158,324.4a7.23,7.23,0,0,0-2.69-.42Z" transform="translate(109.49 -279.33)"/><path class="cls-1" d="M-34.57,282.74v4.93h4.74v1.26h-4.74v5h-1.35v-5h-4.74v-1.26h4.74v-4.93Z" transform="translate(109.49 -279.33)"/><path class="cls-1" d="M62.53,282.74v4.93h4.74v1.26H62.53v5H61.18v-5H56.44v-1.26h4.74v-4.93Z" transform="translate(109.49 -279.33)"/><path class="cls-1" d="M158.51,287.55v1.36h-5.19v-1.36Z" transform="translate(109.49 -279.33)"/><path class="cls-1" d="M-31.23,329.55v1.36h-5.19v-1.36Z" transform="translate(109.49 -279.33)"/><path class="cls-1" d="M148.83,329.55v1.36h-5.19v-1.36Z" transform="translate(109.49 -279.33)"/></svg>