<svg id="Capa_1" data-name="Capa 1" xmlns="http://www.w3.org/2000/svg" viewBox="0 0 619.36 111.19"><defs><style>.cls-1{fill:#fff;}.cls-2{fill:none;stroke:#7abb58;stroke-miterlimit:10;stroke-width:4px;}.cls-3{fill:#e54692;}</style></defs><title>faktoreak</title><path class="cls-1" d="M-24.48,298.46l.49-.07c1.41,0,2.11.21,2.11.63,0,.79-.3,1.25-.91,1.4a12.44,12.44,0,0,1-2.25.71l-.14-.07c-.05,0-.07,0-.07.07l-.49-.07H-27v.07c.19.61.54,1.54,1.05,2.81l-.07.49v.21c.06.43.18.64.36.64.45,0,1.3,0,2.53-.07q.84,0,.84.63v.21c0,.83-1,1.42-3.09,1.83h-.14V308a22.71,22.71,0,0,1,.35,3.09v1.62a7,7,0,0,1-.14,1.27c.05.63.07,1.1.07,1.4,0,.11,0,.37-.07.77a5.89,5.89,0,0,1,.42,1.41c-.19,2-.28,3.31-.28,3.8.07,1.18.33,1.76.77,1.76,2.34.19,3.52.36,3.52.56a1.44,1.44,0,0,1,.21.63c0,.76-1.27,1.5-3.8,2.25a6,6,0,0,1-1.69.21,7.71,7.71,0,0,1-4.22-1.4,4.48,4.48,0,0,1-.42-2.39,24,24,0,0,1-.35-4.15c-.09,0-.14-.2-.14-.57s0-.82.07-1.33c-.09-.93-.16-2.55-.21-4.85a6.56,6.56,0,0,0,.07-1.06,13.35,13.35,0,0,1-.28-2.11c0-1.88.07-3.16.07-3.86a4.66,4.66,0,0,0-.21-1.55c.05-.48.07-.86.07-1.13V302c0-.05,0-.07.07-.07a7.79,7.79,0,0,1-.49-2c0-.28.47-.54,1.4-.77l4.93-.56c0-.09.22-.13.7-.14h.49c.05,0,.07,0,.07-.07S-24.48,298.4-24.48,298.46Z" transform="translate(50.46 -277.08)"/><path class="cls-1" d="M-11.21,298.61c.83.81,1.43,2.5,1.83,5.07.05.82.07,1.32.07,1.47q-.55,5.49-1,5.49a6.35,6.35,0,0,1-1.06,1.69,13.63,13.63,0,0,0-1.55,1.4l-.07.14a9.7,9.7,0,0,1,2.25,3.73A8.38,8.38,0,0,0-9.66,320c0,.18.44,1.56,1.34,4.15a5.62,5.62,0,0,1,.14,1.19v.21c0,.65-.23,1-.71,1.2a10.65,10.65,0,0,1-1.54.35c-1,0-1.76-.63-2.18-1.9A20,20,0,0,0-14,322.31a9.49,9.49,0,0,0-.91-2.6,2.27,2.27,0,0,1-.22-.71h-.07c0,.2,0,.69-.14,1.48,0,.56.07.85.14.85a3.31,3.31,0,0,0-.14,1.12v1.34a2.78,2.78,0,0,1-.07.63,3.8,3.8,0,0,1,.28,1.41c0,.52-.58.86-1.75,1s-1.67-.21-1.83-.63a32.86,32.86,0,0,1-1-9l-.35-4.08.14-1.27a14.23,14.23,0,0,1-.14-1.83v-.63c0-.6,0-1.25.07-2a2.15,2.15,0,0,1-.07-.56l.14-.84a18.16,18.16,0,0,1-.14-2.18,11.79,11.79,0,0,1,1-4.08c.14,0,.33-.35.56-1.06a4.75,4.75,0,0,1,3.16-1.4l.92-.07C-12.81,297.21-11.72,297.68-11.21,298.61ZM-16,302.55a27.2,27.2,0,0,0,.35,3.73v.35a2.72,2.72,0,0,1-.07.63,8.61,8.61,0,0,1,.28,2.53l.07.29q1.62-1.41,1.62-5.63c0-2.41-.49-4-1.48-4.92h-.07c-.4,0-.63.89-.7,2.67Zm.7,16.24v.14h.07v-.14Z" transform="translate(50.46 -277.08)"/><path class="cls-1" d="M1.4,298.61c.82.81,1.42,2.5,1.82,5.07.06.82.07,1.32.07,1.47-.36,3.66-.7,5.49-1,5.49a6.17,6.17,0,0,1-1,1.69,12.77,12.77,0,0,0-1.55,1.4l-.07.14a9.83,9.83,0,0,1,2.25,3.73A8.21,8.21,0,0,0,2.94,320c0,.18.44,1.56,1.34,4.15a5,5,0,0,1,.14,1.19v.21c0,.65-.23,1-.7,1.2a10.44,10.44,0,0,1-1.55.35c-1,0-1.76-.63-2.18-1.9a19,19,0,0,0-1.41-2.88,9.49,9.49,0,0,0-.91-2.6,2.18,2.18,0,0,1-.21-.71h-.07c0,.2-.05.69-.14,1.48,0,.56.07.85.14.85a3.07,3.07,0,0,0-.14,1.12v1.34a3.51,3.51,0,0,1-.07.63,4,4,0,0,1,.28,1.41c0,.52-.58.86-1.76,1s-1.67-.21-1.83-.63a32.92,32.92,0,0,1-1-9l-.35-4.08.14-1.27A12.64,12.64,0,0,1-7.46,310v-.63c0-.6,0-1.25.07-2a1.79,1.79,0,0,1-.07-.56l.14-.84a16.31,16.31,0,0,1-.14-2.18,11.85,11.85,0,0,1,1-4.08c.14,0,.33-.35.56-1.06a4.78,4.78,0,0,1,3.17-1.4l.91-.07C-.2,297.21.89,297.68,1.4,298.61Zm-4.79,3.94A27.5,27.5,0,0,0-3,306.28v.35a3.42,3.42,0,0,1-.07.63,9,9,0,0,1,.28,2.53l.07.29q1.61-1.41,1.61-5.63c0-2.41-.49-4-1.47-4.92h-.07c-.41,0-.63.89-.71,2.67Zm.71,16.24v.14h.07v-.14Z" transform="translate(50.46 -277.08)"/><path class="cls-1" d="M10.47,300.09a2.17,2.17,0,0,1,.88-.14c1.21.12,2.33.21,3.41.26a1.6,1.6,0,0,1,1,1.39c-.61,1.25-1.84,1.87-3.67,1.87h-.83l-.33.07v-.07l-.14.07a.45.45,0,0,0-.26-.07,2.66,2.66,0,0,0-.21,1v.14A13.15,13.15,0,0,0,10.4,306l-.34.93c.07.65.16,1,.27,1s.44,0,1-.07c1.77.4,2.65.7,2.65.86a1.05,1.05,0,0,1,.42.81,1.68,1.68,0,0,1-1.7,1.05,16.09,16.09,0,0,0-2.06.67H10.4l.07.12c0,.12,0,.19-.07.19,0,.53.07.9.07,1.13v1c0,.3-.06,1-.14,2.06a2.82,2.82,0,0,0,.28.93l-.07.79v.65a15,15,0,0,0,.26,3.45,9.89,9.89,0,0,0-.07,1.07v.12c0,.27.16.41.47.41.83,0,1.67-.06,2.54-.14,1.09,0,1.63.26,1.63.79-.47,1.31-2,1.93-4.64,1.88-2.07.16-3.53,0-4.39-.6a32.39,32.39,0,0,1-.78-6.91c0-.7.05-1.56.14-2.58a14.25,14.25,0,0,1-.28-2.18l.14-1.53a17.48,17.48,0,0,1-.14-2.25l.34-4.31a2.16,2.16,0,0,1-.13-.6v-.26a3,3,0,0,1,.07-.65,2.5,2.5,0,0,0-.14-.6,7,7,0,0,0,.07-.93v-1.39c0-.37.49-.75,1.5-1.12.51,0,.75,0,.75-.07A12.93,12.93,0,0,1,10.47,300.09Z" transform="translate(50.46 -277.08)"/><path class="cls-1" d="M22.91,299.46c.79,0,1.69,1,2.67,3a3.28,3.28,0,0,0,.71,1.76,16.6,16.6,0,0,0,.49,2,5.62,5.62,0,0,1,.35,1.55.9.9,0,0,1-.14.42c.19,0,.35.72.49,2.18a10.35,10.35,0,0,1,.56,3.3,6.43,6.43,0,0,1,.29,1.48l-.22,1.26a3.69,3.69,0,0,1,.29,1,6.55,6.55,0,0,1-.14.7,2.38,2.38,0,0,1,.21.92,7.42,7.42,0,0,0-.07.84q.21,0,.42,1.26l-.07.15v.07c.14,1.91.21,2.93.21,3.09v.35c0,.7-.19,1.06-.56,1.06a3.53,3.53,0,0,1-1.62.35c-1.11,0-1.78-.23-2-.71A16.91,16.91,0,0,1,23.05,319c-.05-.14-.56-.22-1.54-.28h-.43s-.12.09-.21.28l.07.15v.42a4.76,4.76,0,0,1-.21,1.12,5,5,0,0,0,.21,1.06,6.39,6.39,0,0,1-.63,1.54c0,.88-.16,1.39-.49,1.55a1.66,1.66,0,0,1-.85.42,2.16,2.16,0,0,1-2.39-1.61v-.85a29.83,29.83,0,0,1,.5-4.85c0-.26,0-.86-.07-1.76.36-2,.91-5.39,1.61-10.05a31.72,31.72,0,0,0,.92-4.71,2.23,2.23,0,0,1,1.33-1.13c.16-.56.83-.84,2-.84Zm-.77,8q-.34,3.12-.85,5.63v.14a11,11,0,0,0,.07,1.26,9.67,9.67,0,0,0-.21,1.83,8.4,8.4,0,0,0,1.06.07h.63v-.07c0-.23-.05-.75-.14-1.54a10.32,10.32,0,0,0,.21-1.83v-.35a21.9,21.9,0,0,0-.7-5.14Z" transform="translate(50.46 -277.08)"/><path class="cls-1" d="M39.72,299.55c1,0,1.47.33,1.47,1a16,16,0,0,1-1.4,3.87,1.64,1.64,0,0,1-.35.77,9.33,9.33,0,0,1-1.13,2.67A2.58,2.58,0,0,0,38,308.9a5.74,5.74,0,0,0,1.69,2.46,3.78,3.78,0,0,1,.77,2.32c.42.28.76,1.32,1,3.09a4.75,4.75,0,0,1,.07.92V318a4.71,4.71,0,0,1,.57,2.53,3.63,3.63,0,0,1,.35,1.41v.28l-.07.42a5.58,5.58,0,0,1,.28,1.69c0,.84-.76,1.26-2.25,1.26-1.07-.05-1.62-.28-1.62-.7a17.88,17.88,0,0,1-1.19-3.87,23.7,23.7,0,0,1-1.13-3.44h-.07a12.79,12.79,0,0,0-.21,1.82l.28,4.57v.07c0,.6-1,1.08-3.09,1.41-1.14,0-1.88-.84-2.18-2.53-.7-4.52-1.06-7.26-1.06-8.23l.07-.42a11.9,11.9,0,0,1-.21-2.74c0-.09,0-.62.07-1.55h.07a1.6,1.6,0,0,1-.21-.77c.06-.84.13-1.27.21-1.27a3.67,3.67,0,0,0-.07-.56c0-.72.13-2.44.36-5.2v-1.55c0-.4.47-.72,1.4-.91h1.27a.55.55,0,0,0,.28-.07c1.26.17,1.9.73,1.9,1.68,0,.34.14,1.59.42,3.73v.35a11.27,11.27,0,0,0,.77-2.39,7.83,7.83,0,0,1,1.76-3,2.14,2.14,0,0,1,.91-.49Z" transform="translate(50.46 -277.08)"/><path class="cls-1" d="M51.79,300.06c.14,0,.3.36.46,1.09l-.39,1.68a5.18,5.18,0,0,1,.07.65,19.82,19.82,0,0,0-.38,3.06,12.23,12.23,0,0,0-1.11,3.11c-.16,0-.35.55-.58,1.62a6.75,6.75,0,0,1-.44,1.62,29.84,29.84,0,0,1-.58,3,4.15,4.15,0,0,1-.53,2.26.69.69,0,0,0-.07.34v.19a4.19,4.19,0,0,0,.14,1.35,13.31,13.31,0,0,0-.38,1.89v.52h.24a14.4,14.4,0,0,1,2.15-.33,9.39,9.39,0,0,1,2.9.53,1.23,1.23,0,0,1,.31.65c0,.86-.68,1.54-2.05,2.07a5.47,5.47,0,0,1-3,.77c-1.32-.12-2.59-.21-3.82-.26-1.07-.54-1.63-1.05-1.67-1.49v-.2a5.31,5.31,0,0,1,.26-1.74l-.07-.33v-.39a7.13,7.13,0,0,0,.39-2.39,52.75,52.75,0,0,1,.9-5.32,15.81,15.81,0,0,0,.58-3.26,88.65,88.65,0,0,1,2-8.68,19.94,19.94,0,0,1-3.29-.62c-.59-.22-.66-.54-.22-1-.44-.3,0-.64,1.51-1,.91-.09,1.76-.13,2.51-.13h.14a8.34,8.34,0,0,1,1.16.11A4.57,4.57,0,0,1,51.79,300.06Z" transform="translate(50.46 -277.08)"/><path class="cls-1" d="M60.9,299.56A3.54,3.54,0,0,1,59.42,302a8,8,0,0,1-2.34.34c-1.58,0-2.46-.51-2.65-1.44l-.19-1.22a3.76,3.76,0,0,1,.68-1.4,10.3,10.3,0,0,1,3.24-.49C60,297.81,60.9,298.39,60.9,299.56Zm-3.45,5.35c1.46,0,2.31.61,2.53,1.83a10.65,10.65,0,0,1,.36,2.25,3,3,0,0,1-.22.77,1.64,1.64,0,0,1,.22.91V311a3.86,3.86,0,0,1-.29,1.48l.07.35v.42c0,.34-.07,1.15-.21,2.47a13.19,13.19,0,0,0,.21,1.89,8.94,8.94,0,0,1-.35,2l.57,5.63v.35c0,.44-.48.72-1.41.84a4.6,4.6,0,0,1-2,.35h-.35c-.79,0-1.25-.26-1.41-.77-.33-.23-.49-.86-.49-1.9l-.42-5.55c0-.32.05-1.09.14-2.32l-.14-2.67c.09-1.29.26-2.9.49-4.86,0-.65.07-1.35.07-2.1V306c0-.37.42-.72,1.27-1a3.56,3.56,0,0,1,.84-.07Z" transform="translate(50.46 -277.08)"/><path class="cls-1" d="M72.2,303.91a13.15,13.15,0,0,1,1,5.06s.07.12.07.35-.09.58-.29,1.48a20,20,0,0,1,.36,3.93v.14a23.38,23.38,0,0,1-.43,3.94,6.34,6.34,0,0,1-1.19,3.31c-.21,1-.58,1.54-1.13,1.54a1.4,1.4,0,0,1-1.47.92,10.28,10.28,0,0,1-1.76-.28,10.28,10.28,0,0,1-1.76.28h-.28c-1.21,0-2.07-.85-2.6-2.53a16.39,16.39,0,0,1-1.34-4.29,1.17,1.17,0,0,0-.07-.57l.14-1.33c0-.76-.07-1.44-.07-2v-.28c0-2.13.13-3.24.35-3.31a.4.4,0,0,1-.07-.21,16.44,16.44,0,0,1,.64-3,23.45,23.45,0,0,1,1.4-4.92,2.44,2.44,0,0,1,1.27-.92,9.62,9.62,0,0,1,3.44-.63Q71.25,300.53,72.2,303.91Zm-4.57.21A30.75,30.75,0,0,0,67,308v1.2a.78.78,0,0,1-.21.49V310a12.19,12.19,0,0,1-.14,2.32,5.17,5.17,0,0,1,.07.78v.7a36.85,36.85,0,0,0,.77,6.54h.07a9.46,9.46,0,0,0,1-3.52,29.52,29.52,0,0,0,.29-4.22,33.67,33.67,0,0,0-.29-3.58v-.35a4.27,4.27,0,0,1,.08-.78c-.37-1.51-.71-2.76-1-3.72Z" transform="translate(50.46 -277.08)"/><path class="cls-1" d="M79.43,300.09a2.15,2.15,0,0,1,.87-.14c1.22.12,2.34.21,3.41.26a1.59,1.59,0,0,1,1,1.39c-.61,1.25-1.84,1.87-3.67,1.87h-.83l-.33.07v-.07l-.14.07a.45.45,0,0,0-.26-.07,2.5,2.5,0,0,0-.22,1v.14c0,.35,0,.81.07,1.39l-.33.93c.07.65.16,1,.26,1s.44,0,1-.07c1.78.4,2.66.7,2.66.86a1.05,1.05,0,0,1,.42.81,1.68,1.68,0,0,1-1.7,1.05,15.55,15.55,0,0,0-2.06.67h-.27l.08.12c0,.12,0,.19-.08.19a10.62,10.62,0,0,1,.08,1.13v1c0,.3-.06,1-.15,2.06a3.08,3.08,0,0,0,.29.93l-.07.79v.65a15,15,0,0,0,.26,3.45,9.89,9.89,0,0,0-.07,1.07v.12c0,.27.16.41.47.41.83,0,1.67-.06,2.53-.14,1.09,0,1.64.26,1.64.79-.48,1.31-2,1.93-4.64,1.88-2.08.16-3.53,0-4.4-.6a32.37,32.37,0,0,1-.77-6.91c0-.7,0-1.56.14-2.58a14.25,14.25,0,0,1-.28-2.18l.14-1.53a17.48,17.48,0,0,1-.14-2.25l.33-4.31a2.45,2.45,0,0,1-.12-.6v-.26a3,3,0,0,1,.07-.65,2.5,2.5,0,0,0-.14-.6,7,7,0,0,0,.07-.93v-1.39c0-.37.49-.75,1.5-1.12.51,0,.75,0,.75-.07A12.93,12.93,0,0,1,79.43,300.09Z" transform="translate(50.46 -277.08)"/><path class="cls-1" d="M97.35,298.49c.76,0,1.13.26,1.13.77a4.46,4.46,0,0,1,.21,1.55,8.31,8.31,0,0,1,.56,1.48l-.14,3.3a12.66,12.66,0,0,1,.21,2.53v.07a3.77,3.77,0,0,1-.21,1.41,10.31,10.31,0,0,1,.14,1.9v.07A5.92,5.92,0,0,1,99,313.4a5.59,5.59,0,0,1,.07.77,18.84,18.84,0,0,1-.28,4.08c0,.93.07,1.53.07,1.83a14.37,14.37,0,0,1-.21,1.47l.07,1c0,1.3-1.28,2.21-3.87,2.74-.73,0-1.38-.49-2-1.48-.2-.75-.66-2.26-1.41-4.5l-1.06-3.72h-.07c0,.47-.07.82-.07,1.05v.28c.09,2.46.14,3.82.14,4.08a13.52,13.52,0,0,1-.35,3.24,3.21,3.21,0,0,1-1.76.63c-1.63,0-2.46-.9-2.46-2.67.14-2,.21-3.19.21-3.45a25.08,25.08,0,0,1-.28-2.81c0-.16.06-.48.14-1l-.07-.42A8.8,8.8,0,0,0,86,313.4a17.45,17.45,0,0,0-.14-1.83c.23-2.58.43-5.2.57-7.88-.06-.94-.07-1.6-.07-2,0-1.18.22-1.76.7-1.76a2.34,2.34,0,0,1,1-.21q2.82,0,2.82.63a3.79,3.79,0,0,0,.91,1.34,9,9,0,0,1,.63,1.61,3.25,3.25,0,0,1,.71,2.25,3.4,3.4,0,0,1,.84,2.53,8.94,8.94,0,0,1,.91,3.59c.14,0,.21.3.21.77h.08c0-.33.12-1.67.35-4a13.71,13.71,0,0,1,.07-2.11,4,4,0,0,1-.07-.92V305a2,2,0,0,1,.07-.63,3,3,0,0,1-.07-.71v-.91a19.88,19.88,0,0,0,.21-2v-1.48c0-.4.42-.66,1.26-.77ZM95,312.76V313h.07v-.22Z" transform="translate(50.46 -277.08)"/><path class="cls-1" d="M112.38,296.87a10.73,10.73,0,0,1,5.91,2.25,7.57,7.57,0,0,1,1.2,3.17,23.57,23.57,0,0,1,.28,2.53,4,4,0,0,1-.57,1.76c-.07,1.32-.29,2-.7,2a11,11,0,0,1-1.9,3.37,1.67,1.67,0,0,0-.42.84,4.37,4.37,0,0,1,2.32,1.34,7,7,0,0,1,1.41,4,12.64,12.64,0,0,1,.14,1.83,4.3,4.3,0,0,1-.63,2.53c0,1-.87,2.09-2.61,3.3a2.22,2.22,0,0,1-2.11,1h-.35c-.23,0-.51-.21-.84-.64h-.77c-1,0-1.48-.21-1.48-.63-.26-.17-.48-.79-.63-1.83a4.62,4.62,0,0,1-.14-.7v-.84a60.31,60.31,0,0,1-.78-7.32l-.28-5.34a3,3,0,0,1,.21-.7l-.07-.64c0-.08.05-.79.14-2.11a15.82,15.82,0,0,0-.21-1.89,3.43,3.43,0,0,1,.14-.92l-.07-.28a20.87,20.87,0,0,1,.42-4.15v-.21a1.09,1.09,0,0,1-.28-.63v-.21c.27-.56,1.06-.85,2.39-.85Zm1.62,3.31v2l.56,4.29c0,.84-.07,1.4-.07,1.68l.07.64h.07a10.27,10.27,0,0,0,1.13-4.29v-.71a4,4,0,0,0-1.83-3.72Zm.92,14.62c.28,1.88.42,2.9.42,3.1.17,0,.31.91.42,2.74a2.94,2.94,0,0,0,.35,1c.21-1,.37-1.47.49-1.47l-.07-.71v-1.19a7.45,7.45,0,0,0-1.12-3.17,2.27,2.27,0,0,0-.49-.35Z" transform="translate(50.46 -277.08)"/><path class="cls-1" d="M126.18,300.09a2.24,2.24,0,0,1,.88-.14c1.21.12,2.34.21,3.41.26a1.59,1.59,0,0,1,1,1.39c-.61,1.25-1.84,1.87-3.67,1.87H127l-.33.07v-.07l-.14.07a.46.46,0,0,0-.27-.07,2.66,2.66,0,0,0-.21,1v.14c0,.35,0,.81.07,1.39l-.33.93c.07.65.16,1,.26,1s.44,0,1-.07c1.78.4,2.66.7,2.66.86a1.05,1.05,0,0,1,.42.81,1.68,1.68,0,0,1-1.71,1.05,16.26,16.26,0,0,0-2.05.67h-.27l.07.12c0,.12,0,.19-.07.19a9.93,9.93,0,0,1,.07,1.13v1c0,.3-.05,1-.14,2.06a3.08,3.08,0,0,0,.28.93l-.07.79v.65a14.85,14.85,0,0,0,.27,3.45,7.84,7.84,0,0,0-.07,1.07v.12c0,.27.15.41.47.41.83,0,1.67-.06,2.53-.14,1.09,0,1.64.26,1.64.79-.48,1.31-2,1.93-4.64,1.88-2.08.16-3.54,0-4.4-.6a32.37,32.37,0,0,1-.77-6.91c0-.7,0-1.56.14-2.58a14.25,14.25,0,0,1-.28-2.18l.14-1.53a17.48,17.48,0,0,1-.14-2.25l.33-4.31a2,2,0,0,1-.12-.6v-.26a3,3,0,0,1,.07-.65,2.5,2.5,0,0,0-.14-.6,7,7,0,0,0,.07-.93v-1.39c0-.37.49-.75,1.49-1.12.51,0,.76,0,.76-.07A12.65,12.65,0,0,1,126.18,300.09Z" transform="translate(50.46 -277.08)"/><path class="cls-1" d="M141.16,298.61c.83.81,1.42,2.5,1.83,5.07,0,.82.07,1.32.07,1.47-.37,3.66-.71,5.49-1,5.49a6.17,6.17,0,0,1-1,1.69,13.63,13.63,0,0,0-1.55,1.4l-.07.14a9.83,9.83,0,0,1,2.25,3.73,8.07,8.07,0,0,0,1.06,2.39c0,.18.44,1.56,1.33,4.15a5,5,0,0,1,.14,1.19v.21c0,.65-.23,1-.7,1.2a10.44,10.44,0,0,1-1.55.35c-1,0-1.75-.63-2.18-1.9a18.81,18.81,0,0,0-1.4-2.88,9.8,9.8,0,0,0-.92-2.6,2.18,2.18,0,0,1-.21-.71h-.07c0,.2-.05.69-.14,1.48,0,.56.07.85.14.85a3.07,3.07,0,0,0-.14,1.12v1.34a3.51,3.51,0,0,1-.07.63,4,4,0,0,1,.28,1.41c0,.52-.58.86-1.76,1s-1.67-.21-1.82-.63a32.86,32.86,0,0,1-1-9l-.35-4.08.14-1.27a12.64,12.64,0,0,1-.14-1.83v-.63c0-.6,0-1.25.07-2a2.15,2.15,0,0,1-.07-.56l.14-.84a16.31,16.31,0,0,1-.14-2.18,12.09,12.09,0,0,1,1-4.08c.15,0,.34-.35.57-1.06a4.73,4.73,0,0,1,3.16-1.4l.92-.07C139.56,297.21,140.65,297.68,141.16,298.61Zm-4.78,3.94a27.2,27.2,0,0,0,.35,3.73v.35a3.42,3.42,0,0,1-.07.63,9,9,0,0,1,.28,2.53l.07.29c1.07-.94,1.62-2.82,1.62-5.63,0-2.41-.49-4-1.48-4.92h-.07c-.4,0-.63.89-.7,2.67Zm.7,16.24v.14h.07v-.14Z" transform="translate(50.46 -277.08)"/><path class="cls-1" d="M150.23,300.09a2.17,2.17,0,0,1,.88-.14c1.21.12,2.34.21,3.41.26a1.61,1.61,0,0,1,1,1.39c-.62,1.25-1.85,1.87-3.68,1.87H151l-.34.07v-.07l-.14.07a.41.41,0,0,0-.26-.07,2.66,2.66,0,0,0-.21,1v.14c0,.35,0,.81.07,1.39l-.33.93c.07.65.15,1,.26,1s.44,0,1-.07c1.77.4,2.65.7,2.65.86a1.07,1.07,0,0,1,.43.81,1.69,1.69,0,0,1-1.71,1.05,16.09,16.09,0,0,0-2.06.67h-.26l.07.12c0,.12,0,.19-.07.19.05.53.07.9.07,1.13v1c0,.3,0,1-.14,2.06a2.82,2.82,0,0,0,.28.93l-.07.79v.65a15.62,15.62,0,0,0,.26,3.45,9.89,9.89,0,0,0-.07,1.07v.12c0,.27.16.41.48.41.82,0,1.67-.06,2.53-.14,1.09,0,1.63.26,1.63.79-.47,1.31-2,1.93-4.64,1.88-2.07.16-3.53,0-4.39-.6a32.37,32.37,0,0,1-.77-6.91c0-.7,0-1.56.14-2.58a13,13,0,0,1-.28-2.18l.14-1.53a15.54,15.54,0,0,1-.14-2.25l.33-4.31a2,2,0,0,1-.12-.6v-.26a2.49,2.49,0,0,1,.07-.65,3.13,3.13,0,0,0-.14-.6,7,7,0,0,0,.07-.93v-1.39c0-.37.49-.75,1.49-1.12.51,0,.76,0,.76-.07A12.93,12.93,0,0,1,150.23,300.09Z" transform="translate(50.46 -277.08)"/><path class="cls-1" d="M164.77,300.06c.14,0,.3.36.45,1.09l-.38,1.68c0,.39.07.6.07.65a21.31,21.31,0,0,0-.39,3.06,13.05,13.05,0,0,0-1.11,3.11c-.15,0-.35.55-.58,1.62a6.75,6.75,0,0,1-.44,1.62,29.84,29.84,0,0,1-.58,3,4.15,4.15,0,0,1-.52,2.26.59.59,0,0,0-.07.34v.19a4.19,4.19,0,0,0,.14,1.35,12.54,12.54,0,0,0-.39,1.89v.52h.25a14.35,14.35,0,0,1,2.14-.33,9.31,9.31,0,0,1,2.9.53,1.26,1.26,0,0,1,.32.65c0,.86-.69,1.54-2.06,2.07a5.44,5.44,0,0,1-3,.77c-1.32-.12-2.58-.21-3.81-.26-1.08-.54-1.64-1.05-1.67-1.49v-.2a5.06,5.06,0,0,1,.26-1.74l-.07-.33v-.39a7.39,7.39,0,0,0,.39-2.39q.18-1.87.89-5.32a15.14,15.14,0,0,0,.58-3.26,84.79,84.79,0,0,1,2-8.68,19.94,19.94,0,0,1-3.29-.62c-.6-.22-.67-.54-.23-1-.44-.3,0-.64,1.51-1,.92-.09,1.76-.13,2.52-.13h.14a8.48,8.48,0,0,1,1.16.11A4.58,4.58,0,0,1,164.77,300.06Z" transform="translate(50.46 -277.08)"/><path class="cls-1" d="M176.74,299.55c1,0,1.47.33,1.47,1a16,16,0,0,1-1.4,3.87,1.54,1.54,0,0,1-.35.77,9.33,9.33,0,0,1-1.13,2.67,2.58,2.58,0,0,0-.28,1.06,5.83,5.83,0,0,0,1.69,2.46,3.78,3.78,0,0,1,.77,2.32c.42.28.76,1.32,1,3.09a5.7,5.7,0,0,1,.07.92V318a4.72,4.72,0,0,1,.56,2.53,3.63,3.63,0,0,1,.35,1.41v.28l-.07.42a5.58,5.58,0,0,1,.28,1.69q0,1.26-2.25,1.26c-1.07-.05-1.62-.28-1.62-.7a17.88,17.88,0,0,1-1.19-3.87,23.7,23.7,0,0,1-1.13-3.44h-.07a12.79,12.79,0,0,0-.21,1.82l.28,4.57v.07c0,.6-1,1.08-3.09,1.41-1.14,0-1.88-.84-2.18-2.53q-1-6.78-1-8.23l.07-.42a10.81,10.81,0,0,1-.22-2.74c0-.09,0-.62.07-1.55h.08a1.51,1.51,0,0,1-.22-.77c.06-.84.13-1.27.22-1.27a4.62,4.62,0,0,0-.08-.56c0-.72.13-2.44.36-5.2v-1.55c0-.4.47-.72,1.4-.91h1.27a.55.55,0,0,0,.28-.07c1.27.17,1.9.73,1.9,1.68,0,.34.14,1.59.42,3.73v.35a11.27,11.27,0,0,0,.77-2.39,7.83,7.83,0,0,1,1.76-3,2.1,2.1,0,0,1,.92-.49Z" transform="translate(50.46 -277.08)"/><path class="cls-1" d="M188.62,298.28c1.51.23,2.73.4,3.66.49a2.4,2.4,0,0,1,.7,1.2,2.05,2.05,0,0,1-1.62,2,5.87,5.87,0,0,1-1.76.28h-2a2.43,2.43,0,0,0-.07.56,18.81,18.81,0,0,1,.49,2.53,3.17,3.17,0,0,1-.21.85,4,4,0,0,1,.42,1l-.14,1.05.28,3.17a6.74,6.74,0,0,0-.14.91,12.42,12.42,0,0,1,.21,1.48,13.3,13.3,0,0,0-.14,1.55v.28c.09,1.84.14,2.83.14,3l-.07.63a7,7,0,0,1,.35,2v.14c-.14,1-.21,1.67-.21,1.9a16,16,0,0,1,.42,2.25c0,.62-1.11,1-3.3,1.27-.86,0-1.39-.2-1.62-.57-.61-.93-.91-3.35-.91-7.24-.06,0-.07-.19-.07-.56,0-.56.08-.84.14-.84l-.07-.71v-1.33a11.13,11.13,0,0,0-.21-2.32l.14-1.2c-.23-1.7-.43-5.08-.57-10.12-.42-.09-1.39-.23-2.88-.43a.87.87,0,0,1-.42-.7c.09-1.14.65-1.74,1.69-1.77a38.9,38.9,0,0,1,5.13-.62c0-.05.07-.07.21-.07a.53.53,0,0,1,.28.07,8.12,8.12,0,0,1,1-.07h.7Z" transform="translate(50.46 -277.08)"/><path class="cls-1" d="M203.21,303.91a13.15,13.15,0,0,1,1,5.06c.06,0,.08.12.08.35s-.09.58-.29,1.48a20,20,0,0,1,.36,3.93v.14a24.48,24.48,0,0,1-.43,3.94,6.34,6.34,0,0,1-1.19,3.31c-.21,1-.58,1.54-1.13,1.54a1.4,1.4,0,0,1-1.47.92,10.28,10.28,0,0,1-1.76-.28,10.28,10.28,0,0,1-1.76.28h-.28c-1.21,0-2.07-.85-2.6-2.53a16.39,16.39,0,0,1-1.34-4.29,1.17,1.17,0,0,0-.07-.57l.14-1.33c0-.76-.07-1.44-.07-2v-.28c0-2.13.13-3.24.35-3.31a.4.4,0,0,1-.07-.21,16.44,16.44,0,0,1,.64-3,23.45,23.45,0,0,1,1.4-4.92,2.44,2.44,0,0,1,1.27-.92,9.62,9.62,0,0,1,3.44-.63Q202.26,300.53,203.21,303.91Zm-4.57.21A30.75,30.75,0,0,0,198,308v1.2a.78.78,0,0,1-.21.49V310a12.19,12.19,0,0,1-.14,2.32,5.17,5.17,0,0,1,.07.78v.7a36.85,36.85,0,0,0,.77,6.54h.07a9.46,9.46,0,0,0,1.05-3.52,29.52,29.52,0,0,0,.29-4.22,33.67,33.67,0,0,0-.29-3.58v-.35a5.17,5.17,0,0,1,.07-.78c-.36-1.51-.7-2.76-1-3.72Z" transform="translate(50.46 -277.08)"/><path class="cls-1" d="M215.57,302.82a15.56,15.56,0,0,1,.42,3.37c0,.51-.7.77-2.11.77a3.08,3.08,0,0,1-1.83-.84,9.84,9.84,0,0,1-.7-2.11c-.9-1.18-1.57-1.76-2-1.76v.5a10.28,10.28,0,0,0,.77,3.09,42.94,42.94,0,0,1,3.24,6.61,26.06,26.06,0,0,0,.84,3.16c.23,1.25.35,1.92.35,2v.49c0,.62.06,1.41.14,2.39a10.55,10.55,0,0,0-.28,2.18,10,10,0,0,1-2,3.17c-.29.56-.95.84-2,.84a1,1,0,0,0-.5.07,3.31,3.31,0,0,1-3.44-2,5.38,5.38,0,0,1-1.13-2.39,2.66,2.66,0,0,1-.49-1.54v-.5c0-.89.48-1.33,1.41-1.33,0-.09.16-.13.49-.14,1.05,0,1.88.89,2.46,2.67a4.7,4.7,0,0,0,.91,2.11h.07c.15-.81.23-1.51.29-2.11a15.3,15.3,0,0,0-.71-4v-.84c-.26-.16-.52-.85-.77-2A8.91,8.91,0,0,1,208,312a14.72,14.72,0,0,1-2.25-5.21c-.28-1.37-.42-2.14-.42-2.32v-.77a.53.53,0,0,1,.07-.28,6.65,6.65,0,0,1-.14-1.06,3.73,3.73,0,0,1,1.55-2.32,5.9,5.9,0,0,1,3.73-1.33C212.53,298.67,214.21,300.06,215.57,302.82Z" transform="translate(50.46 -277.08)"/><path class="cls-1" d="M227.73,299.23a1.61,1.61,0,0,1,1.76,1.12,29.36,29.36,0,0,1,1.55,5.42l.42,2.6-.07,1c.05,1.23.07,2.08.07,2.54a16.21,16.21,0,0,1-.7,4.14c-.16,3.1-.36,4.64-.57,4.64a7.55,7.55,0,0,1-3.65,4.08,10,10,0,0,1-3.8,1h-.07l-.14.07v-.07l-.14.07a3.51,3.51,0,0,1-2.32-1.41,17.77,17.77,0,0,1-2.11-3.87,21.1,21.1,0,0,1-.92-6.61c0-.73.16-4.39.5-11v-1.13c0-.84.33-1.26,1-1.26a4.05,4.05,0,0,1,1.62-.36h.42l.14-.07v.07c.05,0,.07,0,.07-.07a2.44,2.44,0,0,1,2.18,1.34,6.06,6.06,0,0,1,.28,1.55c-.09,1.09-.14,1.79-.14,2.11a25.87,25.87,0,0,0,.42,2.67c0,1.12-.12,2-.21,2.67l.14,1.76-.07.14a.55.55,0,0,0,.07.28c-.05.61-.07,1.11-.07,1.48v1.05a22.14,22.14,0,0,0,.28,3h-.07a10.41,10.41,0,0,0,.36,1.55c.26-.25.63-1.63,1.12-4.15,0-.3.21-1.53.63-3.65a43.08,43.08,0,0,0,.35-6.19c.06,0,.09-.28.15-.85a5.22,5.22,0,0,0-.15-1h.07a6.35,6.35,0,0,1-.14-1.62v-1.75c0-.65.5-1.09,1.48-1.34Z" transform="translate(50.46 -277.08)"/><path class="cls-1" d="M244.24,298.49c.75,0,1.12.26,1.12.77a4.46,4.46,0,0,1,.21,1.55,9.41,9.41,0,0,1,.57,1.48l-.14,3.3a12.66,12.66,0,0,1,.21,2.53v.07a3.77,3.77,0,0,1-.21,1.41,11.28,11.28,0,0,1,.14,1.9v.07a5.92,5.92,0,0,1-.21,1.83c0,.4.07.67.07.77a18,18,0,0,1-.29,4.08c.06.93.07,1.53.07,1.83a14.37,14.37,0,0,1-.21,1.47l.07,1c0,1.3-1.28,2.21-3.86,2.74-.74,0-1.39-.49-2-1.48-.2-.75-.65-2.26-1.41-4.5l-1.05-3.72h-.07a8.16,8.16,0,0,0-.07,1.05v.28c.08,2.46.14,3.82.14,4.08a14.85,14.85,0,0,1-.35,3.24,3.26,3.26,0,0,1-1.76.63c-1.64,0-2.46-.9-2.46-2.67.14-2,.21-3.19.21-3.45a22.81,22.81,0,0,1-.28-2.81,7.71,7.71,0,0,1,.14-1l-.07-.42a11.18,11.18,0,0,0,.07-1.12c0-.44-.06-1-.14-1.83.23-2.58.42-5.2.56-7.88-.05-.94-.07-1.6-.07-2,0-1.18.23-1.76.7-1.76a2.35,2.35,0,0,1,1.06-.21c1.88,0,2.81.21,2.81.63a3.79,3.79,0,0,0,.91,1.34,9.73,9.73,0,0,1,.64,1.61,3.3,3.3,0,0,1,.7,2.25,3.4,3.4,0,0,1,.84,2.53,9.07,9.07,0,0,1,.92,3.59c.14,0,.21.3.21.77h.07c0-.33.12-1.67.35-4a15.33,15.33,0,0,1,.07-2.11,4.65,4.65,0,0,1-.07-.92V305a2.28,2.28,0,0,1,.07-.63,3.56,3.56,0,0,1-.07-.71v-.91a19.88,19.88,0,0,0,.21-2v-1.48c0-.4.42-.66,1.27-.77Zm-2.32,14.27V313H242v-.22Z" transform="translate(50.46 -277.08)"/><path class="cls-1" d="M252.62,300.09a2.2,2.2,0,0,1,.88-.14c1.21.12,2.34.21,3.41.26a1.59,1.59,0,0,1,1,1.39c-.61,1.25-1.84,1.87-3.67,1.87h-.83l-.33.07v-.07l-.14.07a.46.46,0,0,0-.27-.07,2.66,2.66,0,0,0-.21,1v.14c0,.35,0,.81.07,1.39l-.33.93c.07.65.16,1,.26,1s.44,0,1-.07c1.78.4,2.66.7,2.66.86a1.05,1.05,0,0,1,.42.81,1.68,1.68,0,0,1-1.71,1.05,16.26,16.26,0,0,0-2.05.67h-.27l.07.12c0,.12,0,.19-.07.19,0,.53.07.9.07,1.13v1c0,.3-.05,1-.14,2.06a2.82,2.82,0,0,0,.28.93l-.07.79v.65a14.85,14.85,0,0,0,.27,3.45,7.84,7.84,0,0,0-.07,1.07v.12c0,.27.15.41.47.41.83,0,1.67-.06,2.53-.14,1.09,0,1.64.26,1.64.79-.48,1.31-2,1.93-4.64,1.88-2.08.16-3.54,0-4.4-.6a32.37,32.37,0,0,1-.77-6.91c0-.7.05-1.56.14-2.58a14.25,14.25,0,0,1-.28-2.18l.14-1.53a17.48,17.48,0,0,1-.14-2.25l.33-4.31a2,2,0,0,1-.12-.6v-.26a3,3,0,0,1,.07-.65,2.5,2.5,0,0,0-.14-.6,7,7,0,0,0,.07-.93v-1.39c0-.37.49-.75,1.49-1.12.51,0,.76,0,.76-.07A12.79,12.79,0,0,1,252.62,300.09Z" transform="translate(50.46 -277.08)"/><path class="cls-1" d="M265.07,299.46c.79,0,1.69,1,2.67,3a3.33,3.33,0,0,0,.7,1.76,16.06,16.06,0,0,0,.5,2,6,6,0,0,1,.35,1.55,1,1,0,0,1-.14.42c.19,0,.35.72.49,2.18a10.35,10.35,0,0,1,.56,3.3,6.5,6.5,0,0,1,.28,1.48l-.21,1.26a3.93,3.93,0,0,1,.28,1,4.62,4.62,0,0,1-.14.7,2.38,2.38,0,0,1,.21.92c-.05.47-.07.75-.07.84s.28.42.42,1.26l-.07.15v.07c.14,1.91.21,2.93.21,3.09v.35c0,.7-.19,1.06-.56,1.06a3.46,3.46,0,0,1-1.61.35c-1.11,0-1.78-.23-2-.71a16.91,16.91,0,0,1-1.76-6.54c0-.14-.56-.22-1.55-.28h-.42c-.05,0-.12.09-.21.28l.07.15v.42a4.76,4.76,0,0,1-.21,1.12,3.76,3.76,0,0,0,.21,1.06,6.39,6.39,0,0,1-.63,1.54c0,.88-.16,1.39-.5,1.55a1.67,1.67,0,0,1-.84.42,2.15,2.15,0,0,1-2.39-1.61v-.85a30.8,30.8,0,0,1,.49-4.85c0-.26,0-.86-.07-1.76.37-2,.92-5.39,1.62-10.05a32.52,32.52,0,0,0,.91-4.71A2.25,2.25,0,0,1,263,300.3c.16-.56.82-.84,2-.84Zm-.78,8c-.22,2.08-.51,4-.84,5.63v.14a11,11,0,0,0,.07,1.26,9.67,9.67,0,0,0-.21,1.83,8.27,8.27,0,0,0,1.05.07H265v-.07c0-.23-.06-.75-.14-1.54a10.32,10.32,0,0,0,.21-1.83v-.35a21.44,21.44,0,0,0-.71-5.14Z" transform="translate(50.46 -277.08)"/><path class="cls-1" d="M283.81,298.49c.75,0,1.12.26,1.12.77a4.46,4.46,0,0,1,.21,1.55,8.31,8.31,0,0,1,.56,1.48l-.14,3.3a12.66,12.66,0,0,1,.21,2.53v.07a3.77,3.77,0,0,1-.21,1.41,10.31,10.31,0,0,1,.14,1.9v.07a5.92,5.92,0,0,1-.21,1.83,5.59,5.59,0,0,1,.07.77,18.19,18.19,0,0,1-.28,4.08c.06.93.07,1.53.07,1.83a14.37,14.37,0,0,1-.21,1.47l.07,1c0,1.3-1.28,2.21-3.86,2.74-.74,0-1.39-.49-2-1.48-.2-.75-.65-2.26-1.41-4.5l-1.05-3.72h-.07a8.63,8.63,0,0,0-.08,1.05v.28c.09,2.46.15,3.82.15,4.08a13.82,13.82,0,0,1-.36,3.24,3.21,3.21,0,0,1-1.75.63c-1.64,0-2.46-.9-2.46-2.67.14-2,.21-3.19.21-3.45a23.51,23.51,0,0,1-.29-2.81,8.49,8.49,0,0,1,.15-1l-.07-.42a11.18,11.18,0,0,0,.07-1.12,18,18,0,0,0-.15-1.83c.23-2.58.43-5.2.57-7.88-.06-.94-.07-1.6-.07-2,0-1.18.23-1.76.7-1.76a2.34,2.34,0,0,1,1-.21c1.89,0,2.82.21,2.82.63a3.79,3.79,0,0,0,.91,1.34,9,9,0,0,1,.63,1.61,3.25,3.25,0,0,1,.71,2.25,3.4,3.4,0,0,1,.84,2.53,9.07,9.07,0,0,1,.92,3.59c.14,0,.21.3.21.77h.07c0-.33.12-1.67.35-4a15.33,15.33,0,0,1,.07-2.11,4.65,4.65,0,0,1-.07-.92V305a2.28,2.28,0,0,1,.07-.63,3.56,3.56,0,0,1-.07-.71v-.91a19.88,19.88,0,0,0,.21-2v-1.48c0-.4.42-.66,1.26-.77Zm-2.32,14.27V313h.07v-.22Z" transform="translate(50.46 -277.08)"/><path class="cls-1" d="M305.08,302.08a12.22,12.22,0,0,0,1.33,1.61c.14.64.49,1.83,1.06,3.59a3,3,0,0,1-.28.84c.22,1.27.35,2,.35,2.25V311c0,.3,0,.77-.07,1.4h.07a12,12,0,0,1-1.55,5.07,4.47,4.47,0,0,1-1.55,1.89c-.19.71-.89,1.06-2.11,1.06-.12.67-.29,2.09-.49,4.29,0,0-.1.14-.14.42l.07.49c0,.53-1,.95-2.95,1.27h-.42c-1,0-1.48-.21-1.48-.64a10.32,10.32,0,0,1-.63-3.37c0-.16.14-1,.42-2.46,0-.25,0-.65-.07-1.2.05-.89.07-1.63.07-2.25a26.53,26.53,0,0,1-.28-4,.48.48,0,0,1,.07-.29,2.72,2.72,0,0,1-.07-.63v-1c0-.2,0-.28.07-.28l-.07-.5v-2.39c0-.61.05-2.46.14-5.55.05,0,.07,0,.07-.07h-.07l.07-.14v-.78c0-.51.84-1,2.53-1.4l1.55-.07A6.72,6.72,0,0,1,305.08,302.08Zm-3.24,1.47v.07a17.62,17.62,0,0,1,.42,1.76l-.07.63a11.91,11.91,0,0,1,.07,1.27l-.07.28c.09.44.27,1.5.5,3.17l-.43,1.82c0,.41.13,1.39.36,3v.07a14.74,14.74,0,0,1-.22,2c.23,0,.73-1.36,1.48-4.08.12,0,.19-.55.21-1.62a16.79,16.79,0,0,0-.7-4.85,36.07,36.07,0,0,0-1.48-3.45Z" transform="translate(50.46 -277.08)"/><path class="cls-1" d="M315,299.46c.79,0,1.68,1,2.67,3a3.33,3.33,0,0,0,.7,1.76,16.6,16.6,0,0,0,.49,2,5.62,5.62,0,0,1,.35,1.55.9.9,0,0,1-.14.42c.2,0,.35.72.5,2.18a10.64,10.64,0,0,1,.56,3.3,6.5,6.5,0,0,1,.28,1.48l-.21,1.26a3.93,3.93,0,0,1,.28,1,4.62,4.62,0,0,1-.14.7,2.38,2.38,0,0,1,.21.92c-.05.47-.07.75-.07.84s.28.42.42,1.26l-.07.15v.07c.14,1.91.21,2.93.21,3.09v.35c0,.7-.19,1.06-.56,1.06a3.5,3.5,0,0,1-1.62.35c-1.11,0-1.77-.23-2-.71A16.72,16.72,0,0,1,315.1,319c-.06-.14-.57-.22-1.55-.28h-.42c-.06,0-.13.09-.21.28l.07.15v.42a4.76,4.76,0,0,1-.21,1.12,3.76,3.76,0,0,0,.21,1.06,6.09,6.09,0,0,1-.64,1.54c0,.88-.15,1.39-.49,1.55a1.67,1.67,0,0,1-.84.42,2.15,2.15,0,0,1-2.39-1.61v-.85a30.8,30.8,0,0,1,.49-4.85c0-.26,0-.86-.07-1.76q.56-3.06,1.62-10.05a32.52,32.52,0,0,0,.91-4.71,2.22,2.22,0,0,1,1.34-1.13c.15-.56.82-.84,2-.84Zm-.78,8q-.35,3.12-.84,5.63v.14a11,11,0,0,0,.07,1.26,9.67,9.67,0,0,0-.21,1.83,8.16,8.16,0,0,0,1.05.07h.63v-.07c0-.23-.05-.75-.14-1.54A10.48,10.48,0,0,0,315,313v-.35a21.44,21.44,0,0,0-.71-5.14Z" transform="translate(50.46 -277.08)"/><path class="cls-1" d="M330.74,298.61c.83.81,1.42,2.5,1.83,5.07.05.82.07,1.32.07,1.47q-.56,5.49-1,5.49a6.17,6.17,0,0,1-1,1.69,13.63,13.63,0,0,0-1.55,1.4l-.07.14a9.7,9.7,0,0,1,2.25,3.73,8.07,8.07,0,0,0,1.06,2.39c0,.18.44,1.56,1.33,4.15a5,5,0,0,1,.14,1.19v.21c0,.65-.22,1-.7,1.2a10.44,10.44,0,0,1-1.55.35c-1,0-1.75-.63-2.18-1.9a18.81,18.81,0,0,0-1.4-2.88,9.46,9.46,0,0,0-.92-2.6,2.18,2.18,0,0,1-.21-.71h-.07c0,.2-.05.69-.14,1.48,0,.56.07.85.14.85a3.07,3.07,0,0,0-.14,1.12v1.34a3.51,3.51,0,0,1-.07.63,4,4,0,0,1,.28,1.41c0,.52-.58.86-1.76,1s-1.66-.21-1.82-.63a32.86,32.86,0,0,1-1-9l-.35-4.08.14-1.27a12.64,12.64,0,0,1-.14-1.83v-.63c0-.6,0-1.25.07-2a2.15,2.15,0,0,1-.07-.56L322,306a16.31,16.31,0,0,1-.14-2.18,11.79,11.79,0,0,1,1-4.08c.14,0,.33-.35.56-1.06a4.73,4.73,0,0,1,3.16-1.4l.92-.07C329.14,297.21,330.23,297.68,330.74,298.61ZM326,302.55a27.2,27.2,0,0,0,.35,3.73v.35a3.42,3.42,0,0,1-.07.63,9,9,0,0,1,.28,2.53l.07.29c1.07-.94,1.62-2.82,1.62-5.63,0-2.41-.49-4-1.48-4.92h-.07c-.4,0-.63.89-.7,2.67Zm.7,16.24v.14h.07v-.14Z" transform="translate(50.46 -277.08)"/><path class="cls-1" d="M342.71,298.28c1.51.23,2.73.4,3.66.49a2.4,2.4,0,0,1,.7,1.2,2.05,2.05,0,0,1-1.62,2,5.85,5.85,0,0,1-1.75.28h-2a2.43,2.43,0,0,0-.07.56,18.81,18.81,0,0,1,.49,2.53,3.17,3.17,0,0,1-.21.85,4,4,0,0,1,.42,1l-.14,1.05.28,3.17a6.74,6.74,0,0,0-.14.91,12.42,12.42,0,0,1,.21,1.48,13.3,13.3,0,0,0-.14,1.55v.28c.09,1.84.14,2.83.14,3l-.07.63a7,7,0,0,1,.35,2v.14c-.14,1-.21,1.67-.21,1.9a16,16,0,0,1,.42,2.25c0,.62-1.1,1-3.3,1.27-.86,0-1.39-.2-1.62-.57-.61-.93-.91-3.35-.91-7.24-.06,0-.07-.19-.07-.56,0-.56.08-.84.14-.84l-.07-.71v-1.33a11.13,11.13,0,0,0-.21-2.32l.14-1.2c-.23-1.7-.43-5.08-.57-10.12-.42-.09-1.38-.23-2.88-.43a.87.87,0,0,1-.42-.7c.09-1.14.65-1.74,1.69-1.77a38.9,38.9,0,0,1,5.13-.62c0-.05.07-.07.21-.07a.53.53,0,0,1,.28.07,8.12,8.12,0,0,1,1-.07h.7Z" transform="translate(50.46 -277.08)"/><path class="cls-1" d="M352,300.09a2.24,2.24,0,0,1,.88-.14c1.22.12,2.34.21,3.41.26a1.59,1.59,0,0,1,1,1.39c-.61,1.25-1.84,1.87-3.67,1.87h-.83l-.33.07v-.07l-.14.07a.46.46,0,0,0-.27-.07,2.66,2.66,0,0,0-.21,1v.14c0,.35,0,.81.07,1.39l-.33.93c.07.65.16,1,.26,1s.44,0,1-.07c1.78.4,2.66.7,2.66.86a1.05,1.05,0,0,1,.42.81,1.68,1.68,0,0,1-1.71,1.05,16.26,16.26,0,0,0-2.05.67h-.27l.07.12c0,.12,0,.19-.07.19a9.93,9.93,0,0,1,.07,1.13v1c0,.3-.05,1-.14,2.06a2.82,2.82,0,0,0,.29.93l-.08.79v.65a14.85,14.85,0,0,0,.27,3.45,9.89,9.89,0,0,0-.07,1.07v.12c0,.27.16.41.47.41.83,0,1.67-.06,2.53-.14,1.09,0,1.64.26,1.64.79-.48,1.31-2,1.93-4.64,1.88-2.08.16-3.53,0-4.4-.6a32.37,32.37,0,0,1-.77-6.91c0-.7.05-1.56.14-2.58a14.25,14.25,0,0,1-.28-2.18l.14-1.53a17.48,17.48,0,0,1-.14-2.25l.33-4.31a2.45,2.45,0,0,1-.12-.6v-.26a3,3,0,0,1,.07-.65,2.5,2.5,0,0,0-.14-.6,7,7,0,0,0,.07-.93v-1.39c0-.37.49-.75,1.49-1.12.51,0,.76,0,.76-.07A12.65,12.65,0,0,1,352,300.09Z" transform="translate(50.46 -277.08)"/><path class="cls-1" d="M-21.6,341c1.08,0,1.71.23,1.9.7.34.3.49,1.27.49,2.88a10.8,10.8,0,0,1,.5,2.82c0,.19-.06.65-.14,1.4.08.9.19,2.32.28,4.29.05,0,.07.05.07.14-.28,1.57-.42,2.36-.42,2.39a2.14,2.14,0,0,0,.07.43c0,.29,0,.7-.07,1.19s.07,1.14.07,1.69l-.29,1.33a8.73,8.73,0,0,1,.22,1.76v1a3.62,3.62,0,0,1-.22,1.54,2.67,2.67,0,0,1,.08.57,14.43,14.43,0,0,1-.15,2.25,3.11,3.11,0,0,1,.22,1.19v.14c0,.41-.5.67-1.48.77a8.9,8.9,0,0,0-1.06.08,1.54,1.54,0,0,1-1.68-1,9.45,9.45,0,0,1-.71-3.44V365a.13.13,0,0,0-.14-.14c-.93,0-1.4.09-1.4.29v.07a20,20,0,0,0,.28,2.25c-.07,1.26-.34,1.89-.78,1.89a1.08,1.08,0,0,1-.77.43h-.35a.53.53,0,0,1-.28-.07,3.06,3.06,0,0,0-.78.56,3.42,3.42,0,0,1-.63.07h-.56c-1.21,0-1.83-.79-1.83-2.39a40.82,40.82,0,0,1-.49-6.61,51.5,51.5,0,0,0,.21-6.75v-.49a39.19,39.19,0,0,1,.35-4c.14-2.37.21-3.75.21-4.15l-.28-2.46c0-.46.56-.76,1.69-.91a1.56,1.56,0,0,1,.49.07,1.79,1.79,0,0,1,.56-.07c.79,0,1.2.36,1.2,1.12.21,0,.37.56.49,1.69,0,0,0,.33-.07.91a20.27,20.27,0,0,1,.35,3.38v.07a3.91,3.91,0,0,1-.14,1.26,21,21,0,0,1,.14,2.11c-.05.93-.07,1.46-.07,1.55a41.15,41.15,0,0,0,.49,4.22,26.21,26.21,0,0,0,.36,3.86h.07a7,7,0,0,1,1.19-.21h.21l.07-.35c0-1.09,0-2.28-.07-3.58.2-1.32.3-2.41.35-3.24s-.14-1.39-.14-1.83q.21-3.48.21-11.81c0-.33.57-.58,1.69-.7Z" transform="translate(50.46 -277.08)"/><path class="cls-1" d="M-11.07,342.66c.79,0,1.69,1,2.67,3a3.28,3.28,0,0,0,.71,1.76,16.6,16.6,0,0,0,.49,2A5.62,5.62,0,0,1-6.85,351a.9.9,0,0,1-.14.42c.19,0,.35.72.49,2.18a10.37,10.37,0,0,1,.57,3.3,7.1,7.1,0,0,1,.28,1.48l-.21,1.26a3.93,3.93,0,0,1,.28,1,6.55,6.55,0,0,1-.14.7,2.38,2.38,0,0,1,.21.92c0,.47-.07.75-.07.84s.28.42.42,1.26l-.07.15v.07c.14,1.91.21,2.93.21,3.09V368c0,.7-.19,1.06-.56,1.06a3.5,3.5,0,0,1-1.62.35c-1.11,0-1.78-.23-2-.71a16.9,16.9,0,0,1-1.76-6.53c-.05-.15-.56-.23-1.54-.29h-.43s-.12.09-.21.29l.07.14v.42a4.76,4.76,0,0,1-.21,1.12A5,5,0,0,0-13,365a5.66,5.66,0,0,1-.63,1.54c0,.88-.16,1.39-.49,1.55a1.67,1.67,0,0,1-.84.42,2.17,2.17,0,0,1-2.4-1.61V366a29.83,29.83,0,0,1,.5-4.85c0-.26,0-.86-.07-1.76q.55-3.06,1.61-10.05a31.72,31.72,0,0,0,.92-4.71,2.23,2.23,0,0,1,1.33-1.13c.16-.56.83-.84,2-.84Zm-.77,8q-.35,3.12-.84,5.63v.14a9.35,9.35,0,0,0,.07,1.27,9.49,9.49,0,0,0-.21,1.82,8.16,8.16,0,0,0,1.05.07h.63v-.07c0-.23,0-.75-.14-1.54a10.32,10.32,0,0,0,.21-1.83v-.35a21.9,21.9,0,0,0-.7-5.14Z" transform="translate(50.46 -277.08)"/><path class="cls-1" d="M4.72,341.81c.82.81,1.42,2.5,1.83,5.07,0,.82.07,1.32.07,1.47-.37,3.66-.71,5.49-1,5.49a6.17,6.17,0,0,1-1,1.69A13.63,13.63,0,0,0,3,356.93l-.07.14a9.83,9.83,0,0,1,2.25,3.73,8.07,8.07,0,0,0,1.06,2.39,41.93,41.93,0,0,0,1.33,4.15,5,5,0,0,1,.14,1.19v.21c0,.65-.23,1-.7,1.2a10.44,10.44,0,0,1-1.55.35c-1,0-1.76-.63-2.18-1.9a18.81,18.81,0,0,0-1.4-2.88,9.8,9.8,0,0,0-.92-2.6,2.21,2.21,0,0,1-.21-.7H.71c0,.19,0,.68-.14,1.47,0,.56.07.85.14.85a3.07,3.07,0,0,0-.14,1.12V367a3.51,3.51,0,0,1-.07.63A4,4,0,0,1,.78,369c0,.52-.58.86-1.76,1s-1.67-.21-1.83-.63a32.92,32.92,0,0,1-1-9l-.35-4.08L-4,355a12.61,12.61,0,0,1-.14-1.82v-.64c0-.6,0-1.25.07-2a2.15,2.15,0,0,1-.07-.56l.14-.84A16.31,16.31,0,0,1-4.14,347a11.91,11.91,0,0,1,1-4.08c.14,0,.34-.35.57-1.06a4.73,4.73,0,0,1,3.16-1.4l.91-.07C3.12,340.41,4.21,340.88,4.72,341.81Zm-4.78,3.94a27.2,27.2,0,0,0,.35,3.73v.35a3.42,3.42,0,0,1-.07.63A9,9,0,0,1,.5,353l.07.29c1.07-.94,1.62-2.82,1.62-5.63,0-2.41-.5-4-1.48-4.92H.64c-.4,0-.63.9-.7,2.67ZM.64,362v.14H.71V362Z" transform="translate(50.46 -277.08)"/><path class="cls-1" d="M16.69,341.48c1.51.23,2.72.4,3.66.49a2.4,2.4,0,0,1,.7,1.2,2.06,2.06,0,0,1-1.62,2,5.87,5.87,0,0,1-1.76.28h-2a3.18,3.18,0,0,0-.07.56,17.93,17.93,0,0,1,.5,2.53,4.18,4.18,0,0,1-.21.85,4,4,0,0,1,.42,1.05l-.14,1,.28,3.17a6.74,6.74,0,0,0-.14.91,12.42,12.42,0,0,1,.21,1.48,13.49,13.49,0,0,0-.14,1.55v.28c.09,1.84.14,2.83.14,2.95l-.07.63a7,7,0,0,1,.35,2v.14c-.14,1-.21,1.67-.21,1.9a16,16,0,0,1,.42,2.25c0,.62-1.11,1-3.3,1.27-.87,0-1.39-.2-1.62-.57-.62-.93-.92-3.35-.92-7.24,0,0-.07-.19-.07-.56,0-.56.09-.84.14-.84l-.07-.71v-1.33a11.13,11.13,0,0,0-.21-2.32l.14-1.2c-.22-1.7-.42-5.08-.56-10.12-.42-.09-1.39-.23-2.88-.43a.87.87,0,0,1-.42-.7c.08-1.14.65-1.74,1.68-1.77a39.23,39.23,0,0,1,5.14-.62c0-.05.07-.07.21-.07a.55.55,0,0,1,.28.07,8,8,0,0,1,1-.07h.71Z" transform="translate(50.46 -277.08)"/><path class="cls-1" d="M29.05,343.26c.14,0,.3.37.45,1.09L29.12,346c.05.39.07.6.07.65a21.31,21.31,0,0,0-.39,3.06,13.05,13.05,0,0,0-1.11,3.11c-.16,0-.35.55-.58,1.62a6.75,6.75,0,0,1-.44,1.62,29.84,29.84,0,0,1-.58,3,4.15,4.15,0,0,1-.52,2.26.59.59,0,0,0-.07.34v.19a4.19,4.19,0,0,0,.14,1.35,12.54,12.54,0,0,0-.39,1.89v.52h.25a14.35,14.35,0,0,1,2.14-.33,9.31,9.31,0,0,1,2.9.53,1.26,1.26,0,0,1,.32.65c0,.86-.69,1.54-2.06,2.07a5.44,5.44,0,0,1-3,.77c-1.32-.12-2.58-.21-3.81-.26-1.08-.54-1.64-1.05-1.67-1.49v-.2a5.14,5.14,0,0,1,.26-1.74l-.07-.33v-.39a7.39,7.39,0,0,0,.39-2.39q.18-1.87.89-5.32a15.14,15.14,0,0,0,.58-3.26,84.79,84.79,0,0,1,2-8.68,19.94,19.94,0,0,1-3.29-.62c-.6-.22-.67-.54-.23-1-.44-.3.05-.64,1.51-1,.92-.09,1.76-.12,2.52-.12h.14a8.33,8.33,0,0,1,1.16.1A4.58,4.58,0,0,1,29.05,343.26Z" transform="translate(50.46 -277.08)"/><path class="cls-1" d="M36.46,343.29a2.24,2.24,0,0,1,.88-.14c1.22.12,2.34.21,3.41.26a1.59,1.59,0,0,1,1,1.39c-.61,1.25-1.84,1.87-3.67,1.87h-.83l-.33.07v-.07l-.14.07a.46.46,0,0,0-.27-.07,2.66,2.66,0,0,0-.21,1v.14c0,.35,0,.81.07,1.39l-.33.93c.07.65.16,1,.26,1s.44,0,1-.07c1.78.4,2.66.7,2.66.86a1.05,1.05,0,0,1,.42.81,1.68,1.68,0,0,1-1.71,1.05,16.26,16.26,0,0,0-2.05.67h-.27l.07.12c0,.12,0,.19-.07.19a9.93,9.93,0,0,1,.07,1.13v1c0,.3-.05,1-.14,2.06a3.08,3.08,0,0,0,.28.93l-.07.79v.65a14.85,14.85,0,0,0,.27,3.45,9.89,9.89,0,0,0-.07,1.07v.12c0,.27.16.41.47.41.83,0,1.67-.06,2.53-.14,1.09,0,1.64.26,1.64.79-.48,1.31-2,1.93-4.64,1.88-2.08.16-3.54,0-4.4-.6a32.37,32.37,0,0,1-.77-6.91c0-.7.05-1.56.14-2.58a14.25,14.25,0,0,1-.28-2.18l.14-1.53a17.48,17.48,0,0,1-.14-2.25l.33-4.31a2.45,2.45,0,0,1-.12-.6v-.26a3,3,0,0,1,.07-.65,2.5,2.5,0,0,0-.14-.6,7,7,0,0,0,.07-.93v-1.39c0-.37.49-.75,1.49-1.12.51,0,.76,0,.76-.07A12.65,12.65,0,0,1,36.46,343.29Z" transform="translate(50.46 -277.08)"/><path class="cls-1" d="M54.39,341.69c.76,0,1.13.27,1.13.77a4.46,4.46,0,0,1,.21,1.55,9.18,9.18,0,0,1,.56,1.48l-.14,3.3a12.66,12.66,0,0,1,.21,2.53v.07a3.77,3.77,0,0,1-.21,1.41,10.31,10.31,0,0,1,.14,1.9v.07a5.92,5.92,0,0,1-.21,1.83c.05.4.07.67.07.77a18.84,18.84,0,0,1-.28,4.08c.05.93.07,1.53.07,1.83a14.37,14.37,0,0,1-.21,1.47l.07,1c0,1.3-1.28,2.21-3.87,2.74-.74,0-1.39-.49-2-1.48-.19-.75-.65-2.26-1.4-4.5l-1.06-3.72h-.07c0,.47-.07.82-.07,1.05v.28c.09,2.46.14,3.82.14,4.08a14.16,14.16,0,0,1-.35,3.24,3.21,3.21,0,0,1-1.76.63c-1.63,0-2.46-.9-2.46-2.67.14-2,.21-3.18.21-3.45a25.08,25.08,0,0,1-.28-2.81c0-.16.06-.48.14-1l-.07-.42A8.8,8.8,0,0,0,43,356.6a17.45,17.45,0,0,0-.14-1.83c.23-2.58.42-5.2.57-7.88-.06-.94-.08-1.6-.08-2,0-1.18.23-1.76.71-1.76a2.34,2.34,0,0,1,1-.21q2.82,0,2.82.63a3.65,3.65,0,0,0,.91,1.34,9,9,0,0,1,.63,1.61,3.25,3.25,0,0,1,.71,2.25,3.4,3.4,0,0,1,.84,2.53,9.12,9.12,0,0,1,.91,3.59c.14,0,.21.3.21.77h.07c0-.33.13-1.67.36-4a13.71,13.71,0,0,1,.07-2.11,4,4,0,0,1-.07-.92v-.42a2,2,0,0,1,.07-.63,3,3,0,0,1-.07-.71V346a19.88,19.88,0,0,0,.21-2v-1.48c0-.4.42-.66,1.26-.77ZM52.07,356v.22h.07V356Z" transform="translate(50.46 -277.08)"/><path class="cls-1" d="M70.39,341.39c2.25,0,3.85.79,4.78,2.39a20,20,0,0,1,2.74,5.14,13.88,13.88,0,0,1,.78,3.44,8.12,8.12,0,0,1-.07,1,15.59,15.59,0,0,1,.21,1.89,17.65,17.65,0,0,1-.21,2.25,8,8,0,0,1,.07.92,15.45,15.45,0,0,0-.57,2.88,21.75,21.75,0,0,0-1.12,3A3.45,3.45,0,0,0,75.8,366l-1,.63c-1.32,2.31-2.58,3.45-3.8,3.45a1.46,1.46,0,0,1-1.33-.77,2,2,0,0,1-1.9-.85,17,17,0,0,1-.7-4.57,16.15,16.15,0,0,1-.15-2.6v-.84c-.14-1.39-.21-2.55-.21-3.45,0,0,.06-.19.14-.49a19.27,19.27,0,0,1-.21-2.18,19.48,19.48,0,0,1,.14-2l-.14-.91L66.8,349c0-1.57-.07-3-.07-4.43v-.92a5.36,5.36,0,0,1-.28-1.05c0-.71,1.27-1.11,3.8-1.2ZM71,344l1.13,4.79v1.4a2.49,2.49,0,0,1,.7,2.11,3.17,3.17,0,0,1-.14.56c.14,0,.23.34.28,1V354a4.25,4.25,0,0,1-.07.84l.07.49c0,.58-.07.9-.07.92a9.94,9.94,0,0,1,.14,1.48v4.42a1.26,1.26,0,0,1-.14.57v.07H73a7.89,7.89,0,0,0,1.2-3.59,14.66,14.66,0,0,0,.42-3.87v-.49q0-6.09-2.32-9.77Zm1.62,19.48v.14h.07v-.14Zm.21-.63V363h.07v-.14Z" transform="translate(50.46 -277.08)"/><path class="cls-1" d="M90.36,342.43a1.61,1.61,0,0,1,1.76,1.12A29.51,29.51,0,0,1,93.66,349l.43,2.6-.07,1c0,1.24.07,2.08.07,2.54a15.86,15.86,0,0,1-.71,4.14c-.16,3.1-.35,4.65-.56,4.65A7.63,7.63,0,0,1,89.16,368a9.94,9.94,0,0,1-3.79,1H85.3l-.14.07v-.07L85,369a3.55,3.55,0,0,1-2.33-1.41,17.78,17.78,0,0,1-2.1-3.87,21.08,21.08,0,0,1-.92-6.6q0-1.11.49-11V345c0-.84.34-1.26,1-1.26a4.05,4.05,0,0,1,1.62-.36h.42l.14-.07v.07s.07,0,.07-.07a2.46,2.46,0,0,1,2.18,1.34,6.06,6.06,0,0,1,.28,1.55c-.09,1.09-.14,1.79-.14,2.11a25.87,25.87,0,0,0,.42,2.67c0,1.12-.12,2-.21,2.67l.14,1.76-.07.14a.55.55,0,0,0,.07.28c0,.61-.07,1.11-.07,1.48v1.05a22.14,22.14,0,0,0,.28,3h-.07a11.88,11.88,0,0,0,.35,1.55c.27-.25.63-1.63,1.13-4.15,0-.3.21-1.53.63-3.65a44.69,44.69,0,0,0,.35-6.19s.09-.28.14-.84a4.79,4.79,0,0,0-.14-1h.07a5.91,5.91,0,0,1-.14-1.62v-1.75c0-.65.49-1.09,1.48-1.34Z" transform="translate(50.46 -277.08)"/><path class="cls-1" d="M103.28,341.48c1.51.23,2.72.4,3.66.49a2.4,2.4,0,0,1,.7,1.2,2.06,2.06,0,0,1-1.62,2,5.87,5.87,0,0,1-1.76.28h-2a3.18,3.18,0,0,0-.07.56,17.93,17.93,0,0,1,.5,2.53,4.18,4.18,0,0,1-.21.85,4,4,0,0,1,.42,1.05l-.14,1,.28,3.17a6.74,6.74,0,0,0-.14.91,12.42,12.42,0,0,1,.21,1.48,13.49,13.49,0,0,0-.14,1.55v.28c.09,1.84.14,2.83.14,2.95l-.07.63a7,7,0,0,1,.35,2v.14c-.14,1-.21,1.67-.21,1.9a16,16,0,0,1,.42,2.25c0,.62-1.11,1-3.3,1.27-.87,0-1.39-.2-1.62-.57-.62-.93-.92-3.35-.92-7.24-.05,0-.07-.19-.07-.56,0-.56.09-.84.14-.84l-.07-.71v-1.33a11.13,11.13,0,0,0-.21-2.32l.14-1.2c-.22-1.7-.42-5.08-.56-10.12-.42-.09-1.39-.23-2.88-.43a.87.87,0,0,1-.42-.7c.08-1.14.65-1.74,1.68-1.77a39.23,39.23,0,0,1,5.14-.62c0-.05.07-.07.21-.07a.55.55,0,0,1,.28.07,8,8,0,0,1,1-.07h.71Z" transform="translate(50.46 -277.08)"/><path class="cls-1" d="M112.54,343.29a2.2,2.2,0,0,1,.88-.14c1.21.12,2.34.21,3.41.26a1.59,1.59,0,0,1,1,1.39c-.61,1.25-1.84,1.87-3.67,1.87h-.83l-.33.07v-.07l-.14.07a.46.46,0,0,0-.27-.07,2.66,2.66,0,0,0-.21,1v.14c0,.35,0,.81.07,1.39l-.33.93c.07.65.16,1,.26,1s.44,0,1-.07c1.78.4,2.66.7,2.66.86a1.05,1.05,0,0,1,.42.81,1.68,1.68,0,0,1-1.71,1.05,16.26,16.26,0,0,0-2.05.67h-.27l.07.12c0,.12,0,.19-.07.19,0,.53.07.9.07,1.13v1c0,.3-.05,1-.14,2.06a2.82,2.82,0,0,0,.28.93l-.07.79v.65a14.85,14.85,0,0,0,.27,3.45,7.84,7.84,0,0,0-.07,1.07v.12c0,.27.15.41.47.41.83,0,1.67-.06,2.53-.14,1.09,0,1.64.26,1.64.79-.48,1.31-2,1.93-4.64,1.88-2.08.16-3.54,0-4.4-.6a32.37,32.37,0,0,1-.77-6.91c0-.7,0-1.56.14-2.58a14.25,14.25,0,0,1-.28-2.18l.14-1.53a17.48,17.48,0,0,1-.14-2.25l.33-4.31a2,2,0,0,1-.12-.6v-.26a3,3,0,0,1,.07-.65,2.5,2.5,0,0,0-.14-.6,7,7,0,0,0,.07-.93v-1.39c0-.37.49-.75,1.49-1.12.51,0,.76,0,.76-.07A12.79,12.79,0,0,1,112.54,343.29Z" transform="translate(50.46 -277.08)"/><path class="cls-1" d="M130.47,341.69c.76,0,1.13.27,1.13.77a4.46,4.46,0,0,1,.21,1.55,9.18,9.18,0,0,1,.56,1.48l-.14,3.3a12.66,12.66,0,0,1,.21,2.53v.07a3.77,3.77,0,0,1-.21,1.41,10.31,10.31,0,0,1,.14,1.9v.07a5.92,5.92,0,0,1-.21,1.83c.05.4.07.67.07.77a18.84,18.84,0,0,1-.28,4.08c.05.93.07,1.53.07,1.83a14.37,14.37,0,0,1-.21,1.47l.07,1c0,1.3-1.28,2.21-3.87,2.74-.74,0-1.39-.49-2-1.48-.19-.75-.65-2.26-1.4-4.5l-1.06-3.72h-.07c-.05.47-.07.82-.07,1.05v.28c.09,2.46.14,3.82.14,4.08a14.16,14.16,0,0,1-.35,3.24,3.21,3.21,0,0,1-1.76.63c-1.63,0-2.46-.9-2.46-2.67.14-2,.21-3.18.21-3.45a25.08,25.08,0,0,1-.28-2.81,7.71,7.71,0,0,1,.14-1l-.07-.42a11.18,11.18,0,0,0,.07-1.12,17.45,17.45,0,0,0-.14-1.83c.23-2.58.42-5.2.56-7.88,0-.94-.07-1.6-.07-2,0-1.18.23-1.76.71-1.76a2.34,2.34,0,0,1,1-.21c1.88,0,2.81.21,2.81.63a3.72,3.72,0,0,0,.92,1.34,9,9,0,0,1,.63,1.61,3.3,3.3,0,0,1,.7,2.25,3.36,3.36,0,0,1,.85,2.53,9.12,9.12,0,0,1,.91,3.59c.14,0,.21.3.21.77h.07c0-.33.13-1.67.35-4a15.33,15.33,0,0,1,.07-2.11,4.65,4.65,0,0,1-.07-.92v-.42a2.28,2.28,0,0,1,.07-.63,3.56,3.56,0,0,1-.07-.71V346a19.88,19.88,0,0,0,.21-2v-1.48c0-.4.43-.66,1.27-.77ZM128.15,356v.22h.07V356Z" transform="translate(50.46 -277.08)"/><path class="cls-1" d="M147.7,341.9a1.86,1.86,0,0,1,.56-.14c2.53,0,3.8.28,3.8.85a3.07,3.07,0,0,1,.07.56c0,.51-.72.93-2.18,1.26a6.65,6.65,0,0,0-1.13-.21l-1.12.42a3,3,0,0,0-.63-.14v.29c.05,1.95.14,2.93.28,2.95.93,0,1.4.05,1.4.14l.14-.07h1.41c.9,0,1.34.33,1.34,1,0,.85-.21,1.27-.64,1.27-.07.16-.4.33-1,.56l-1-.07a12,12,0,0,0-1.54.14,8.44,8.44,0,0,1,.21,1.13c0,.45,0,1.3-.07,2.53a14.36,14.36,0,0,1,.35,2.18l-.07.28a1.22,1.22,0,0,1,.14.56v.49a11.18,11.18,0,0,1-.07,1.27c0,.09.12.86.35,2.32-.05.51-.07,1-.07,1.41a9.61,9.61,0,0,1,.49,3.23,5.11,5.11,0,0,1,.43,1.9v.21c0,.65-1.22,1.11-3.66,1.34h-.07c-.69,0-1.11-.16-1.27-.5a9.71,9.71,0,0,1-.77-3.86s-.14-1-.35-3a6.36,6.36,0,0,1-.21-2.11c0-.23.05-.79.14-1.68a3.29,3.29,0,0,1-.28-1.27v-.84a5.7,5.7,0,0,1,.14-1.62c-.14-1.55-.21-3.15-.21-4.78.08-.83.14-1.36.14-1.55l-.21-1.41c0-.43,0-1,.07-1.82-.06-.62-.07-1.15-.07-1.55,0-1,.82-1.55,2.46-1.55a4.94,4.94,0,0,1,1.05-.21Z" transform="translate(50.46 -277.08)"/><path class="cls-1" d="M159,342.66c.79,0,1.69,1,2.67,3a3.33,3.33,0,0,0,.7,1.76,16.06,16.06,0,0,0,.5,2,6,6,0,0,1,.35,1.55.9.9,0,0,1-.14.42c.19,0,.35.72.49,2.18a10.35,10.35,0,0,1,.56,3.3,6.5,6.5,0,0,1,.28,1.48l-.21,1.26a3.52,3.52,0,0,1,.28,1,4.62,4.62,0,0,1-.14.7,2.38,2.38,0,0,1,.21.92c0,.47-.07.75-.07.84s.28.42.43,1.26l-.08.15v.07c.15,1.91.22,2.93.22,3.09V368c0,.7-.2,1.06-.57,1.06a3.46,3.46,0,0,1-1.61.35c-1.11,0-1.78-.23-2-.71a16.9,16.9,0,0,1-1.76-6.53c0-.15-.56-.23-1.55-.29h-.42c-.05,0-.12.09-.21.29l.07.14v.42a4.76,4.76,0,0,1-.21,1.12,4.27,4.27,0,0,0,.21,1.06,6.39,6.39,0,0,1-.63,1.54c0,.88-.16,1.39-.49,1.55a1.7,1.7,0,0,1-.85.42,2.15,2.15,0,0,1-2.39-1.61V366a30.8,30.8,0,0,1,.49-4.85c0-.26,0-.86-.07-1.76.37-2,.92-5.39,1.62-10.05a31.07,31.07,0,0,0,.91-4.71A2.25,2.25,0,0,1,157,343.5c.16-.56.83-.84,2-.84Zm-.77,8q-.34,3.12-.85,5.63v.14a11.3,11.3,0,0,0,.07,1.27,9.49,9.49,0,0,0-.21,1.82,8.4,8.4,0,0,0,1.06.07H159v-.07c0-.23,0-.75-.14-1.54a10.32,10.32,0,0,0,.21-1.83v-.35a21.9,21.9,0,0,0-.7-5.14Z" transform="translate(50.46 -277.08)"/><path class="cls-1" d="M175.82,342.75c1,0,1.48.33,1.48,1a15.91,15.91,0,0,1-1.41,3.87,1.54,1.54,0,0,1-.35.77,9.36,9.36,0,0,1-1.12,2.67,2.43,2.43,0,0,0-.28,1.06,5.71,5.71,0,0,0,1.68,2.46,3.79,3.79,0,0,1,.78,2.32c.42.28.75,1.32,1,3.09a5.7,5.7,0,0,1,.07.92v.35a4.72,4.72,0,0,1,.56,2.53,3.66,3.66,0,0,1,.36,1.41v.28l-.07.42a5.58,5.58,0,0,1,.28,1.69c0,.84-.76,1.26-2.25,1.26-1.08-.05-1.62-.28-1.62-.7a17.66,17.66,0,0,1-1.2-3.87,23.91,23.91,0,0,1-1.12-3.44h-.07a12.79,12.79,0,0,0-.21,1.82l.28,4.57v.08c0,.59-1,1.07-3.09,1.4-1.15,0-1.89-.84-2.18-2.53a81.86,81.86,0,0,1-1.06-8.23l.07-.42a10.6,10.6,0,0,1-.21-2.74c0-.09,0-.62.07-1.55h.07a1.6,1.6,0,0,1-.21-.77c0-.84.12-1.27.21-1.27s0-.22-.07-.56c0-.72.12-2.44.35-5.2v-1.55c0-.4.48-.72,1.41-.91h1.26a.57.57,0,0,0,.29-.07c1.26.17,1.89.74,1.89,1.68,0,.34.14,1.59.43,3.73v.35a12,12,0,0,0,.77-2.39,7.83,7.83,0,0,1,1.76-3,2,2,0,0,1,.91-.49Z" transform="translate(50.46 -277.08)"/><path class="cls-1" d="M187.71,341.48c1.51.23,2.72.4,3.65.49a2.36,2.36,0,0,1,.71,1.2,2.06,2.06,0,0,1-1.62,2,6,6,0,0,1-1.76.28h-2a3.18,3.18,0,0,0-.07.56,17.18,17.18,0,0,1,.49,2.53,3.17,3.17,0,0,1-.21.85,3.4,3.4,0,0,1,.42,1.05l-.14,1,.29,3.17a7.46,7.46,0,0,0-.15.91,11.24,11.24,0,0,1,.22,1.48,13.49,13.49,0,0,0-.14,1.55v.28c.08,1.84.14,2.83.14,2.95l-.07.63a7.34,7.34,0,0,1,.35,2v.14c-.14,1-.21,1.67-.21,1.9a16,16,0,0,1,.42,2.25c0,.62-1.11,1-3.31,1.27-.86,0-1.39-.2-1.61-.57-.62-.93-.92-3.35-.92-7.24-.05,0-.07-.19-.07-.56,0-.56.09-.84.14-.84l-.07-.71v-1.33a11.13,11.13,0,0,0-.21-2.32l.14-1.2c-.23-1.7-.42-5.08-.56-10.12-.42-.09-1.39-.23-2.88-.43a.88.88,0,0,1-.43-.7c.09-1.14.66-1.74,1.69-1.77a39.09,39.09,0,0,1,5.13-.62c0-.05.08-.07.22-.07a.55.55,0,0,1,.28.07,8,8,0,0,1,1-.07h.7Z" transform="translate(50.46 -277.08)"/><path class="cls-1" d="M202.3,347.11a13.18,13.18,0,0,1,1,5.06c.05,0,.07.12.07.35s-.09.58-.28,1.48a20.06,20.06,0,0,1,.35,3.93v.14A24.28,24.28,0,0,1,203,362a6.28,6.28,0,0,1-1.2,3.31c-.21,1-.58,1.54-1.12,1.54a1.4,1.4,0,0,1-1.48.92,10.28,10.28,0,0,1-1.76-.28,10.08,10.08,0,0,1-1.75.28h-.28c-1.22,0-2.08-.85-2.61-2.53a16.07,16.07,0,0,1-1.33-4.29,1.17,1.17,0,0,0-.07-.57l.14-1.33c0-.76-.07-1.44-.07-2v-.28c0-2.13.12-3.24.35-3.31a.4.4,0,0,1-.07-.21,17,17,0,0,1,.63-3,23.77,23.77,0,0,1,1.41-4.92,2.46,2.46,0,0,1,1.26-.92,9.63,9.63,0,0,1,3.45-.63C200.4,343.73,201.66,344.86,202.3,347.11Zm-4.57.21a28.75,28.75,0,0,0-.64,3.86v1.2a.78.78,0,0,1-.21.49v.28a11.35,11.35,0,0,1-.14,2.32,5.17,5.17,0,0,1,.07.78v.7a37,37,0,0,0,.78,6.54h.07a9.66,9.66,0,0,0,1.05-3.52,31.05,31.05,0,0,0,.28-4.22,35.78,35.78,0,0,0-.28-3.58v-.35a5.17,5.17,0,0,1,.07-.78c-.37-1.51-.7-2.76-1-3.72Z" transform="translate(50.46 -277.08)"/><path class="cls-1" d="M213.05,341.81c.83.81,1.43,2.5,1.83,5.07.06.82.07,1.32.07,1.47q-.55,5.49-1,5.49a6.06,6.06,0,0,1-1.06,1.69,13.25,13.25,0,0,0-1.54,1.4l-.07.14a9.83,9.83,0,0,1,2.25,3.73,8.21,8.21,0,0,0,1,2.39c0,.18.44,1.56,1.34,4.15a5.62,5.62,0,0,1,.14,1.19v.21c0,.65-.23,1-.71,1.2a10.65,10.65,0,0,1-1.54.35c-1,0-1.76-.63-2.18-1.9a19,19,0,0,0-1.41-2.88,9.49,9.49,0,0,0-.91-2.6,2.21,2.21,0,0,1-.21-.7h-.07c0,.19-.06.68-.14,1.47,0,.56.07.85.14.85a3.07,3.07,0,0,0-.14,1.12V367a3.51,3.51,0,0,1-.07.63,4,4,0,0,1,.28,1.41c0,.52-.58.86-1.76,1s-1.67-.21-1.83-.63a32.92,32.92,0,0,1-1-9l-.36-4.08.15-1.27a12.64,12.64,0,0,1-.15-1.82v-.64c0-.6,0-1.25.08-2a1.81,1.81,0,0,1-.08-.56l.15-.84a16.23,16.23,0,0,1-.15-2.18,11.86,11.86,0,0,1,1-4.08c.14,0,.33-.35.56-1.06a4.76,4.76,0,0,1,3.17-1.4l.91-.07C211.45,340.41,212.54,340.88,213.05,341.81Zm-4.78,3.94a28.9,28.9,0,0,0,.35,3.73v.35a2.72,2.72,0,0,1-.07.63,8.56,8.56,0,0,1,.29,2.53l.07.29q1.6-1.41,1.61-5.63c0-2.41-.49-4-1.47-4.92H209c-.41,0-.64.9-.71,2.67ZM209,362v.14h.07V362Z" transform="translate(50.46 -277.08)"/><path class="cls-1" d="M222.12,343.29a2.24,2.24,0,0,1,.88-.14c1.22.12,2.34.21,3.41.26a1.59,1.59,0,0,1,1,1.39c-.61,1.25-1.84,1.87-3.67,1.87h-.83l-.33.07v-.07l-.14.07a.46.46,0,0,0-.27-.07,2.66,2.66,0,0,0-.21,1v.14c0,.35,0,.81.07,1.39l-.33.93c.07.65.16,1,.26,1s.44,0,1-.07c1.78.4,2.66.7,2.66.86a1.05,1.05,0,0,1,.42.81,1.68,1.68,0,0,1-1.71,1.05,16.26,16.26,0,0,0-2.05.67h-.27l.07.12c0,.12,0,.19-.07.19a9.93,9.93,0,0,1,.07,1.13v1c0,.3-.05,1-.14,2.06a2.82,2.82,0,0,0,.29.93l-.08.79v.65a14.85,14.85,0,0,0,.27,3.45,9.89,9.89,0,0,0-.07,1.07v.12c0,.27.16.41.47.41.83,0,1.67-.06,2.53-.14,1.09,0,1.64.26,1.64.79-.48,1.31-2,1.93-4.64,1.88-2.08.16-3.54,0-4.4-.6a32.37,32.37,0,0,1-.77-6.91c0-.7.05-1.56.14-2.58a14.25,14.25,0,0,1-.28-2.18l.14-1.53a17.48,17.48,0,0,1-.14-2.25l.33-4.31a2.45,2.45,0,0,1-.12-.6v-.26a3,3,0,0,1,.07-.65,2.5,2.5,0,0,0-.14-.6,7,7,0,0,0,.07-.93v-1.39c0-.37.49-.75,1.49-1.12.51,0,.76,0,.76-.07A12.65,12.65,0,0,1,222.12,343.29Z" transform="translate(50.46 -277.08)"/><path class="cls-1" d="M234.57,342.66c.79,0,1.69,1,2.67,3a3.33,3.33,0,0,0,.7,1.76,16.06,16.06,0,0,0,.5,2,5.62,5.62,0,0,1,.35,1.55.9.9,0,0,1-.14.42c.19,0,.35.72.49,2.18a10.35,10.35,0,0,1,.56,3.3,6,6,0,0,1,.28,1.48l-.21,1.26a3.52,3.52,0,0,1,.28,1,4.62,4.62,0,0,1-.14.7,2.38,2.38,0,0,1,.21.92c-.05.47-.07.75-.07.84s.29.42.43,1.26l-.07.15v.07c.14,1.91.21,2.93.21,3.09V368c0,.7-.2,1.06-.57,1.06a3.46,3.46,0,0,1-1.61.35c-1.11,0-1.78-.23-2-.71a16.9,16.9,0,0,1-1.76-6.53c-.05-.15-.56-.23-1.55-.29h-.42c-.05,0-.12.09-.21.29l.07.14v.42a4.76,4.76,0,0,1-.21,1.12,5,5,0,0,0,.21,1.06,6.39,6.39,0,0,1-.63,1.54c0,.88-.16,1.39-.49,1.55a1.66,1.66,0,0,1-.85.42,2.15,2.15,0,0,1-2.39-1.61V366a30.8,30.8,0,0,1,.49-4.85c0-.26,0-.86-.07-1.76.37-2,.92-5.39,1.62-10.05a31.07,31.07,0,0,0,.91-4.71,2.28,2.28,0,0,1,1.34-1.13c.16-.56.83-.84,2-.84Zm-.77,8q-.35,3.12-.85,5.63v.14a11.3,11.3,0,0,0,.07,1.27,9.49,9.49,0,0,0-.21,1.82,8.4,8.4,0,0,0,1.06.07h.63v-.07c0-.23-.05-.75-.14-1.54a10.32,10.32,0,0,0,.21-1.83v-.35a21.9,21.9,0,0,0-.7-5.14Z" transform="translate(50.46 -277.08)"/><path class="cls-1" d="M251.37,342.75c1,0,1.48.33,1.48,1a15.91,15.91,0,0,1-1.41,3.87,1.54,1.54,0,0,1-.35.77A9.36,9.36,0,0,1,250,351a2.43,2.43,0,0,0-.28,1.06,5.8,5.8,0,0,0,1.68,2.46,3.79,3.79,0,0,1,.78,2.32c.42.28.75,1.32,1,3.09a4.75,4.75,0,0,1,.07.92v.35a4.71,4.71,0,0,1,.57,2.53,3.82,3.82,0,0,1,.35,1.41v.28l-.07.42a5.58,5.58,0,0,1,.28,1.69c0,.84-.76,1.26-2.25,1.26-1.07-.05-1.62-.28-1.62-.7a17.3,17.3,0,0,1-1.19-3.87,23.28,23.28,0,0,1-1.13-3.44h-.07a12.79,12.79,0,0,0-.21,1.82l.28,4.57v.08c0,.59-1,1.07-3.09,1.4-1.15,0-1.88-.84-2.18-2.53a81.86,81.86,0,0,1-1.06-8.23l.07-.42a10.6,10.6,0,0,1-.21-2.74c0-.09,0-.62.07-1.55h.07a1.6,1.6,0,0,1-.21-.77c.05-.84.12-1.27.21-1.27s0-.22-.07-.56c0-.72.12-2.44.35-5.2v-1.55c0-.4.48-.72,1.41-.91h1.27a.55.55,0,0,0,.28-.07c1.26.17,1.89.74,1.89,1.68,0,.34.15,1.59.43,3.73v.35a12,12,0,0,0,.77-2.39,7.83,7.83,0,0,1,1.76-3,2,2,0,0,1,.91-.49Z" transform="translate(50.46 -277.08)"/><rect class="cls-2" x="2" y="4.26" width="416.66" height="104.93"/><path class="cls-3" d="M428.61,277.65c-5.67-.71-11.65-1.19-17,1.34-4.72,2.25-7.66,6.88-8.83,11.85-1.29,5.5-.68,11,.05,16.52.76,5.74,1.74,12.22-.93,17.63a17.19,17.19,0,0,1-12.54,9.33l1.33,4.83c1.71-.62,3.71-1.33,5.54-1.07,2,.29,2.27,2.46,2.69,4.19a132.82,132.82,0,0,1,2.86,16.45c.29,2.72.51,5.45.64,8.18s0,5.66.35,8.42c.78,5.45,6,7.49,10.67,8.94a41.77,41.77,0,0,0,18.09,1.33c1.34-.18,2.07-1.89,1.75-3.07a2.57,2.57,0,0,0-3.08-1.75A36,36,0,0,1,415,379.5c-2-.61-4.49-1.31-6.15-2.71s-1.24-4.07-1.28-6a140.49,140.49,0,0,0-1.4-17c-.37-2.71-.84-5.41-1.38-8.09a42.37,42.37,0,0,0-2-8c-2.34-5.63-8.61-5.1-13.41-3.38a2.51,2.51,0,0,0,1.33,4.83,21.67,21.67,0,0,0,13-7.76c3.86-4.82,5.16-10.71,4.88-16.8-.27-5.88-1.75-11.66-1.56-17.56.14-4.41,1.19-9.15,4.65-12.17,4.48-3.92,11.51-2.89,16.91-2.21a2.52,2.52,0,0,0,2.5-2.5,2.56,2.56,0,0,0-2.5-2.5Z" transform="translate(50.46 -277.08)"/><path class="cls-1" d="M438.06,308.32a.57.57,0,0,1-.17.48.55.55,0,0,1-.38.15H426.78a.55.55,0,0,1-.38-.15.6.6,0,0,1-.16-.48v-.15a2.1,2.1,0,0,1,0-.27c0-.08,0-.16.05-.25s.06-.19.1-.31l.17-.48L431.24,294a.56.56,0,0,1,.1-.15.37.37,0,0,1,.17-.1,1.49,1.49,0,0,1,.28-.06h.75a1.26,1.26,0,0,1,.26.06.32.32,0,0,1,.17.1.31.31,0,0,1,.1.15l4.67,12.8c.07.2.14.37.18.5l.1.32a1.87,1.87,0,0,1,0,.25v.41Zm-6-13h0l-4.27,12.32h8.67Z" transform="translate(50.46 -277.08)"/><path class="cls-1" d="M445.82,291.37c.38,0,.56.39.56,1.17a9.37,9.37,0,0,1,.8,3.43c.1.92.19,2.19.28,3.79,0,0,.05,0,.05.1l-.14.89a29.62,29.62,0,0,1,.37,3.19v0a3.76,3.76,0,0,1,0,.52,6.22,6.22,0,0,1,.33,1.78,1,1,0,0,1-.19.56,12.7,12.7,0,0,0,.28,1.41c-.2.78-.46,1.17-.8,1.17,0,.13-.28.22-.84.28-1-.18-1.55-.41-1.55-.7-.14,0-.33-1.3-.56-3.89H444c-.36,0-.55.06-.56.14a5.8,5.8,0,0,1,.09.7,2.31,2.31,0,0,0,0,.28.81.81,0,0,1,.14.38v.18l-.24.9c0,.49-.13.8-.37.93a2.68,2.68,0,0,1-1.41.33h0c-.84,0-1.26-.13-1.26-.37-.18,0-.42-.75-.75-2.25a28.34,28.34,0,0,1-.61-5.21l.09-3.7a5.67,5.67,0,0,1,0-.61c0-.6,0-1,0-1.17,0-.58,0-.94,0-1.08.05-.67.09-1,.09-1.12a3.43,3.43,0,0,1-.14-.8c0-.26.41-.49,1.22-.7a5.62,5.62,0,0,0,1.4.18c.53,0,.88,1,1,3.05.13.76.27,2.18.43,4.27,0,0,.06.1.09.32a2.14,2.14,0,0,0-.09.66,3.6,3.6,0,0,1,.14.89c0,.27,0,.86-.05,1.78,0,.34.11.52.19.52a1.17,1.17,0,0,0,.84-.42h.05v-.33a21.33,21.33,0,0,0-.33-3c.06-.62.09-1,.09-1.12a12.13,12.13,0,0,1-.18-1.92V296c0-.84,0-1.77,0-2.82a7.91,7.91,0,0,1,0-1,1.27,1.27,0,0,1,1.22-.8Z" transform="translate(50.46 -277.08)"/><path class="cls-1" d="M455.41,301.31h14.8l-2.68-3.41.69-.64,4.6,4.46v.75l-4.6,4.47-.69-.65,2.68-3.42h-14.8Z" transform="translate(50.46 -277.08)"/><path class="cls-1" d="M484,292.16a1.37,1.37,0,0,1,.58-.1c.81.09,1.56.14,2.27.18a1.06,1.06,0,0,1,.68.93,2.46,2.46,0,0,1-2.45,1.24h-.55l-.22,0v0l-.09,0a.39.39,0,0,0-.18,0,1.81,1.81,0,0,0-.14.65v.1a8.77,8.77,0,0,0,.05.92l-.22.62c0,.44.1.66.17.66s.29,0,.68-.05c1.18.27,1.77.47,1.77.58a.69.69,0,0,1,.28.54,1.11,1.11,0,0,1-1.13.7,9.51,9.51,0,0,0-1.38.45h-.17l0,.08c0,.08,0,.13,0,.13,0,.35,0,.59,0,.75v.66c0,.2,0,.66-.1,1.38a2.25,2.25,0,0,0,.19.62l-.05.52v.44a9.78,9.78,0,0,0,.18,2.29,5.52,5.52,0,0,0-.05.72v.08c0,.18.11.27.32.27a16,16,0,0,0,1.68-.09c.73,0,1.09.17,1.09.52-.31.88-1.34,1.29-3.09,1.26a4.94,4.94,0,0,1-2.93-.4,21.56,21.56,0,0,1-.51-4.61c0-.46,0-1,.09-1.72a9.21,9.21,0,0,1-.19-1.45l.1-1a10.77,10.77,0,0,1-.1-1.5l.22-2.87a1.93,1.93,0,0,1-.08-.4v-.18a1.63,1.63,0,0,1,0-.43,2.5,2.5,0,0,0-.09-.4,5.15,5.15,0,0,0,0-.62v-.92c0-.25.33-.51,1-.75.34,0,.5,0,.5-.05A8.15,8.15,0,0,1,484,292.16Z" transform="translate(50.46 -277.08)"/><path class="cls-1" d="M495.91,291.09c.5,0,.75.18.75.52,0,0,.09.34.14,1a5.06,5.06,0,0,1,.37,1l-.09,2.21a8.57,8.57,0,0,1,.14,1.68v.05a2.62,2.62,0,0,1-.14.94,6.79,6.79,0,0,1,.09,1.26v.05A3.75,3.75,0,0,1,497,301a3.94,3.94,0,0,1,.05.51,12.27,12.27,0,0,1-.19,2.72c0,.62.05,1,.05,1.22s-.05.44-.14,1l.05.65q0,1.31-2.58,1.83c-.49,0-.93-.33-1.31-1-.13-.51-.44-1.52-.94-3l-.71-2.49h0a5.72,5.72,0,0,0,0,.71v.18c.06,1.64.09,2.55.09,2.72a9.79,9.79,0,0,1-.23,2.16,2.15,2.15,0,0,1-1.17.42c-1.09,0-1.64-.6-1.64-1.78.09-1.35.14-2.12.14-2.3a16.14,16.14,0,0,1-.19-1.87c0-.11,0-.32.09-.66l0-.28c0-.32,0-.58,0-.75a11.57,11.57,0,0,0-.09-1.22c.15-1.72.28-3.47.38-5.25,0-.63-.05-1.07-.05-1.31,0-.79.15-1.17.47-1.17a1.48,1.48,0,0,1,.7-.14c1.25,0,1.88.14,1.88.42a2.33,2.33,0,0,0,.61.89,6.1,6.1,0,0,1,.42,1.08,2.19,2.19,0,0,1,.47,1.5,2.25,2.25,0,0,1,.56,1.68,6.12,6.12,0,0,1,.61,2.39c.09,0,.14.2.14.52h0c0-.22.08-1.11.23-2.67a9,9,0,0,1,.05-1.41,2.57,2.57,0,0,1-.05-.61v-.28a1.34,1.34,0,0,1,.05-.42,2,2,0,0,1-.05-.47V294c.09-.69.14-1.15.14-1.36v-1c0-.27.28-.45.84-.52Zm-1.55,9.52v.14h.05v-.14Z" transform="translate(50.46 -277.08)"/><path class="cls-1" d="M503.43,291c1,.15,1.82.27,2.44.33a1.52,1.52,0,0,1,.47.8,1.38,1.38,0,0,1-1.08,1.31,3.86,3.86,0,0,1-1.17.19h-1.31a1.63,1.63,0,0,0,0,.37,12.73,12.73,0,0,1,.33,1.69,1.08,1.08,0,0,0,.14,1.26l-.1.71.19,2.11a4.11,4.11,0,0,0-.09.61,8.75,8.75,0,0,1,.14,1,9.47,9.47,0,0,0-.1,1v.19c.06,1.23.1,1.89.1,2l0,.42a4.76,4.76,0,0,1,.24,1.36v.09c-.1.69-.15,1.12-.15,1.27a10.7,10.7,0,0,1,.29,1.5c0,.41-.74.69-2.21.84-.57,0-.92-.13-1.08-.37-.41-.62-.6-2.24-.6-4.83,0,0,0-.13,0-.38s.06-.56.09-.56l0-.47v-.89a6.86,6.86,0,0,0-.15-1.54l.1-.8q-.23-1.71-.38-6.75c-.28-.06-.92-.15-1.92-.28a.59.59,0,0,1-.28-.47c.06-.76.43-1.16,1.13-1.19a27.68,27.68,0,0,1,3.42-.41s0,0,.14,0a.41.41,0,0,1,.19,0,5.73,5.73,0,0,1,.65,0h.47Z" transform="translate(50.46 -277.08)"/><path class="cls-1" d="M510.28,291.74c.52,0,1.12.66,1.78,2a2.14,2.14,0,0,0,.47,1.17,10,10,0,0,0,.32,1.36,3.63,3.63,0,0,1,.24,1,.63.63,0,0,1-.1.29c.13,0,.24.48.33,1.45a6.83,6.83,0,0,1,.38,2.2,4.3,4.3,0,0,1,.18,1l-.14.84a2.47,2.47,0,0,1,.19.66,3,3,0,0,1-.09.46,1.71,1.71,0,0,1,.14.61,5.62,5.62,0,0,0-.05.57c.1,0,.19.28.28.84l0,.09v.05c.09,1.28.14,2,.14,2.06v.24c0,.47-.13.7-.38.7a2.27,2.27,0,0,1-1.08.24c-.73,0-1.18-.16-1.31-.47a11.17,11.17,0,0,1-1.17-4.36c0-.1-.38-.16-1-.19h-.28s-.09.06-.14.19l0,.09v.28a2.81,2.81,0,0,1-.14.75,3.19,3.19,0,0,0,.14.71,4.44,4.44,0,0,1-.42,1c0,.58-.1.92-.33,1a1.05,1.05,0,0,1-.56.28,1.43,1.43,0,0,1-1.59-1.08v-.56a20.54,20.54,0,0,1,.32-3.24c0-.17,0-.57,0-1.17.24-1.36.61-3.6,1.08-6.7a21.25,21.25,0,0,0,.61-3.14,1.46,1.46,0,0,1,.89-.75c.1-.38.55-.56,1.31-.56Zm-.52,5.34c-.15,1.38-.34,2.64-.56,3.75v.09a8.45,8.45,0,0,0,0,.85,6.7,6.7,0,0,0-.14,1.22c.32,0,.55,0,.71,0h.42v0c0-.16,0-.51-.1-1a6.35,6.35,0,0,0,.15-1.21v-.24a14.82,14.82,0,0,0-.47-3.42Z" transform="translate(50.46 -277.08)"/><path class="cls-1" d="M516.67,291.48l.1,0s0,0,0,0l.24,0c.06,0,.09,0,.09,0,1.14.1,1.73.41,1.78.89l.29,3.05v.75a17.93,17.93,0,0,1-.19,2.34,8.88,8.88,0,0,1,.09,1v1.73a6.79,6.79,0,0,1-.05.9,3.25,3.25,0,0,1,.05.75c0,.12-.06.57-.19,1.35l.19,1.88a3.7,3.7,0,0,0-.09.7v0a5.36,5.36,0,0,0,1.83.56,1.45,1.45,0,0,1,.37.85c0,.28-.22.46-.66.56a2,2,0,0,1-1.12.33h-.19l-.28-.05a1.13,1.13,0,0,1-.47.09c-1.62,0-2.66-.32-3.14-1a5,5,0,0,1-.23-1.22c0-.48,0-1.25,0-2.3,0,0,0-.27,0-.65a9.41,9.41,0,0,0,0-1.08h.05a3.43,3.43,0,0,1-.09-1v-.65a2.72,2.72,0,0,1,.09-.85.3.3,0,0,1-.05-.14c0-.12,0-.44.1-.93a6.1,6.1,0,0,1-.1-1.08v-.24a17.7,17.7,0,0,1,.33-3.42,8.55,8.55,0,0,1,.24-2.06,3.81,3.81,0,0,1-.1-.42c0-.29.32-.54.94-.75Z" transform="translate(50.46 -277.08)"/><path class="cls-1" d="M528,293.48a7.5,7.5,0,0,0,.89,1.08c.09.42.33,1.22.7,2.39a1.75,1.75,0,0,1-.18.56c.15.85.23,1.35.23,1.5v.43c0,.19,0,.51,0,.93h0a7.86,7.86,0,0,1-1,3.38,3,3,0,0,1-1,1.26c-.13.47-.6.71-1.41.71-.08.44-.2,1.39-.33,2.86,0,0-.07.09-.09.28l.05.33c0,.35-.66.63-2,.84h-.28q-1,0-1-.42a6.73,6.73,0,0,1-.42-2.25c0-.11.09-.65.28-1.64a7.39,7.39,0,0,0-.05-.8c0-.6.05-1.09.05-1.5a17.29,17.29,0,0,1-.19-2.67.41.41,0,0,1,0-.19,2.87,2.87,0,0,1,0-.42v-.66c0-.13,0-.19,0-.19l0-.32v-1.6c0-.41,0-1.64.1-3.7,0,0,0,0,0-.05h0l0-.09V293c0-.34.57-.65,1.69-.93l1-.05A4.48,4.48,0,0,1,528,293.48Zm-2.16,1v0a8.91,8.91,0,0,1,.28,1.18l0,.42c0,.37,0,.65,0,.84l0,.19c.06.29.17,1,.33,2.11l-.29,1.22c0,.27.09.92.24,2v0a9.91,9.91,0,0,1-.14,1.31c.15,0,.48-.9,1-2.71.08,0,.13-.37.14-1.08a10.9,10.9,0,0,0-.47-3.24,21.87,21.87,0,0,0-1-2.29Z" transform="translate(50.46 -277.08)"/><path class="cls-1" d="M535.07,291.81a2.42,2.42,0,0,1-1,1.64,5.46,5.46,0,0,1-1.56.22c-1.06,0-1.64-.34-1.77-1l-.13-.81a2.55,2.55,0,0,1,.46-.94,7,7,0,0,1,2.15-.33C534.46,290.63,535.07,291,535.07,291.81Zm-2.29,3.56a1.47,1.47,0,0,1,1.68,1.22,6.72,6.72,0,0,1,.24,1.5,2.34,2.34,0,0,1-.14.51,1.2,1.2,0,0,1,.14.61v.24a2.66,2.66,0,0,1-.19,1l0,.24V301c0,.22,0,.76-.14,1.64a7.83,7.83,0,0,0,.14,1.26,6.08,6.08,0,0,1-.24,1.36l.38,3.75v.24c0,.29-.32.48-.94.56a3.11,3.11,0,0,1-1.31.23h-.24q-.78,0-.93-.51c-.23-.15-.33-.58-.33-1.27l-.28-3.7c0-.21,0-.73.09-1.55l-.09-1.78c.05-.85.17-1.93.32-3.23,0-.44,0-.91,0-1.41v-.42c0-.25.28-.48.84-.7a2.52,2.52,0,0,1,.57-.05Z" transform="translate(50.46 -277.08)"/><path class="cls-1" d="M542.61,294.7a8.88,8.88,0,0,1,.65,3.38s0,.08,0,.23-.06.39-.19,1a13,13,0,0,1,.24,2.63V302a17.09,17.09,0,0,1-.28,2.63,4.22,4.22,0,0,1-.8,2.2c-.14.69-.39,1-.75,1a.94.94,0,0,1-1,.61,6.8,6.8,0,0,1-1.17-.19,6.53,6.53,0,0,1-1.17.19H538c-.8,0-1.38-.56-1.73-1.69a10.81,10.81,0,0,1-.89-2.85c0-.23,0-.34,0-.38l.1-.89c0-.5-.05-1-.05-1.36v-.19c0-1.42.08-2.15.23-2.2a.33.33,0,0,1,0-.14,11.41,11.41,0,0,1,.42-2,15.23,15.23,0,0,1,.94-3.28,1.63,1.63,0,0,1,.84-.61,6.42,6.42,0,0,1,2.3-.42C541.34,292.45,542.19,293.2,542.61,294.7Zm-3.05.14a19.56,19.56,0,0,0-.42,2.58v.8a.53.53,0,0,1-.14.32v.19a7.44,7.44,0,0,1-.1,1.55,2.77,2.77,0,0,1,.05.51v.47a24.57,24.57,0,0,0,.52,4.36h0a6.31,6.31,0,0,0,.71-2.34,20.2,20.2,0,0,0,.18-2.81,22.35,22.35,0,0,0-.18-2.39v-.24a3.64,3.64,0,0,1,0-.51c-.24-1-.47-1.84-.65-2.49Z" transform="translate(50.46 -277.08)"/><path class="cls-1" d="M548.09,291.74c.53,0,1.13.66,1.78,2a2.22,2.22,0,0,0,.47,1.17,11.19,11.19,0,0,0,.33,1.36,3.9,3.9,0,0,1,.23,1,.6.6,0,0,1-.09.29c.13,0,.23.48.33,1.45a7.1,7.1,0,0,1,.37,2.2,3.77,3.77,0,0,1,.19,1l-.14.84a2.47,2.47,0,0,1,.19.66,3.64,3.64,0,0,1-.1.46,1.52,1.52,0,0,1,.14.61c0,.32,0,.51,0,.57s.19.28.28.84l0,.09v.05c.1,1.28.14,2,.14,2.06v.24c0,.47-.13.7-.37.7a2.3,2.3,0,0,1-1.08.24c-.74,0-1.18-.16-1.31-.47a11.17,11.17,0,0,1-1.17-4.36c0-.1-.38-.16-1-.19h-.28s-.08.06-.14.19l0,.09v.28a3.29,3.29,0,0,1-.14.75,3.19,3.19,0,0,0,.14.71,4.44,4.44,0,0,1-.42,1c0,.58-.11.92-.33,1a1.09,1.09,0,0,1-.56.28,1.44,1.44,0,0,1-1.6-1.08v-.56a20.75,20.75,0,0,1,.33-3.24c0-.17,0-.57-.05-1.17.25-1.36.61-3.6,1.08-6.7a21.25,21.25,0,0,0,.61-3.14,1.52,1.52,0,0,1,.89-.75c.11-.38.55-.56,1.31-.56Zm-.51,5.34c-.16,1.38-.34,2.64-.57,3.75v.09c0,.27,0,.55,0,.85a6.7,6.7,0,0,0-.14,1.22c.32,0,.55,0,.7,0H548v0c0-.16,0-.51-.09-1a7.11,7.11,0,0,0,.14-1.21v-.24a14.29,14.29,0,0,0-.47-3.42Z" transform="translate(50.46 -277.08)"/><path class="cls-1" d="M438.06,337.12a.57.57,0,0,1-.17.48.55.55,0,0,1-.38.15H426.78a.55.55,0,0,1-.38-.15.6.6,0,0,1-.16-.48V337a2.1,2.1,0,0,1,0-.27c0-.08,0-.16.05-.25s.06-.19.1-.31l.17-.48,4.67-12.82a.56.56,0,0,1,.1-.15.37.37,0,0,1,.17-.1,1.49,1.49,0,0,1,.28-.06h.75a1.26,1.26,0,0,1,.26.06.32.32,0,0,1,.17.1.31.31,0,0,1,.1.15l4.67,12.8c.07.2.14.37.18.5l.1.32a1.87,1.87,0,0,1,0,.25v.41Zm-6-13h0l-4.27,12.32h8.67Z" transform="translate(50.46 -277.08)"/><path class="cls-1" d="M445.14,320.91V321c0,.23-.18.45-.56.66a3.24,3.24,0,0,0-1.22,2.63c0,.77.72,2,2.16,3.61a8.9,8.9,0,0,1,1.17,3.56l.14.94v.09l-.23,1.22a2.36,2.36,0,0,1-.24,1.08,2,2,0,0,1-.51,1.5,2.78,2.78,0,0,0-.52.93,2.1,2.1,0,0,0-.89.52.72.72,0,0,1-.42.19h-.33a1.89,1.89,0,0,1-1.5.61H442a3,3,0,0,1-1.88-1,4.53,4.53,0,0,1-1.12-2.9v-.19a1.31,1.31,0,0,1,1.26-1h.33c.42,0,.69.42.8,1.27.28,1,.52,1.5.75,1.5a3.44,3.44,0,0,0,.75-1.46v-1.83a8.06,8.06,0,0,0-.47-2.71,3,3,0,0,1-.33-1.08,9.31,9.31,0,0,1-1.45-2.63,9.19,9.19,0,0,1-.47-2.72,2.84,2.84,0,0,1,.93-2.11,7.81,7.81,0,0,1,.47-.75,4.32,4.32,0,0,1,1.93-.56C444.58,320.3,445.14,320.5,445.14,320.91Z" transform="translate(50.46 -277.08)"/><path class="cls-1" d="M454.26,330.11h14.8l-2.68-3.41.69-.64,4.6,4.46v.75l-4.6,4.46-.69-.64,2.68-3.42h-14.8Z" transform="translate(50.46 -277.08)"/><path class="cls-1" d="M482.81,321a1.41,1.41,0,0,1,.58-.1c.81.09,1.56.14,2.28.18a1.08,1.08,0,0,1,.68.93,2.46,2.46,0,0,1-2.45,1.24h-.55l-.23,0v0l-.09,0a.39.39,0,0,0-.18,0,1.81,1.81,0,0,0-.14.65v.1a8.77,8.77,0,0,0,.05.92l-.22.62c0,.44.1.66.17.66s.3,0,.68-.05c1.19.27,1.77.47,1.77.58a.69.69,0,0,1,.28.54,1.11,1.11,0,0,1-1.13.7,9.62,9.62,0,0,0-1.37.45h-.18l.05.08c0,.08,0,.13-.05.13,0,.35.05.59.05.75V330c0,.2,0,.66-.1,1.38a2.25,2.25,0,0,0,.19.62l0,.52V333a9.78,9.78,0,0,0,.18,2.29,5.52,5.52,0,0,0,0,.72v.08c0,.18.11.27.32.27a16.38,16.38,0,0,0,1.69-.09c.72,0,1.09.17,1.09.52-.32.88-1.35,1.29-3.1,1.26a5,5,0,0,1-2.93-.4,21.56,21.56,0,0,1-.51-4.61c0-.46,0-1,.09-1.72a9.21,9.21,0,0,1-.19-1.45l.1-1a11,11,0,0,1-.1-1.5l.23-2.87a1.56,1.56,0,0,1-.09-.4v-.18a2.18,2.18,0,0,1,.05-.43,1.72,1.72,0,0,0-.09-.4,5.15,5.15,0,0,0,0-.62v-.93c0-.24.33-.5,1-.75.34,0,.5,0,.5,0A8.15,8.15,0,0,1,482.81,321Z" transform="translate(50.46 -277.08)"/><path class="cls-1" d="M494.76,319.89c.5,0,.75.18.75.52.05,0,.09.34.14,1a6,6,0,0,1,.38,1l-.1,2.21a7.86,7.86,0,0,1,.14,1.68v.05a2.42,2.42,0,0,1-.14.94,6.64,6.64,0,0,1,.1,1.26v.05a3.7,3.7,0,0,1-.15,1.22,3.94,3.94,0,0,1,.05.51,12.27,12.27,0,0,1-.19,2.72c0,.62.05,1,.05,1.22s-.05.44-.14,1l.05.65q0,1.31-2.58,1.83c-.49,0-.93-.33-1.31-1-.13-.51-.44-1.52-.94-3l-.7-2.49h-.05a5.71,5.71,0,0,0-.05.7v.19c.06,1.64.1,2.55.1,2.72a9.43,9.43,0,0,1-.24,2.16,2.15,2.15,0,0,1-1.17.42c-1.09,0-1.64-.6-1.64-1.78.09-1.35.14-2.12.14-2.3a16.14,16.14,0,0,1-.19-1.87,5.56,5.56,0,0,1,.1-.66l-.05-.28c0-.32.05-.58.05-.75a12.16,12.16,0,0,0-.1-1.22c.15-1.72.28-3.47.38-5.25,0-.63-.05-1.07-.05-1.31,0-.79.15-1.17.47-1.17a1.48,1.48,0,0,1,.7-.15c1.26,0,1.88.15,1.88.43a2.33,2.33,0,0,0,.61.89,6.1,6.1,0,0,1,.42,1.08,2.19,2.19,0,0,1,.47,1.5,2.25,2.25,0,0,1,.56,1.68,5.94,5.94,0,0,1,.61,2.39c.09,0,.14.2.14.52h.05c0-.22.08-1.11.23-2.67a9,9,0,0,1,0-1.41,2.57,2.57,0,0,1,0-.61v-.28a1.34,1.34,0,0,1,0-.42,2,2,0,0,1,0-.47v-.61c.09-.69.14-1.15.14-1.36v-1c0-.27.28-.45.85-.52Zm-1.55,9.52v.14h.05v-.14Z" transform="translate(50.46 -277.08)"/><path class="cls-1" d="M502.28,319.75c1,.15,1.82.27,2.44.33a1.52,1.52,0,0,1,.47.8,1.37,1.37,0,0,1-1.08,1.31,3.86,3.86,0,0,1-1.17.19h-1.31a1.63,1.63,0,0,0-.05.37,12.73,12.73,0,0,1,.33,1.69,2.38,2.38,0,0,1-.14.56,2.63,2.63,0,0,1,.28.7l-.09.71.18,2.11a4.11,4.11,0,0,0-.09.61,8.75,8.75,0,0,1,.14,1,8.88,8.88,0,0,0-.09,1v.19c0,1.23.09,1.89.09,2l-.05.42a4.76,4.76,0,0,1,.24,1.36v.09a12.14,12.14,0,0,0-.14,1.27,11.68,11.68,0,0,1,.28,1.5c0,.41-.74.69-2.21.84-.57,0-.92-.13-1.07-.37-.41-.62-.61-2.24-.61-4.83,0,0-.05-.13-.05-.38s.06-.56.09-.56l0-.47v-.89a7.74,7.74,0,0,0-.14-1.55l.09-.79c-.15-1.14-.28-3.39-.37-6.75-.29-.06-.93-.15-1.93-.28a.61.61,0,0,1-.28-.47,1.11,1.11,0,0,1,1.13-1.19,27.68,27.68,0,0,1,3.42-.41s.05,0,.14,0a.41.41,0,0,1,.19,0,5.86,5.86,0,0,1,.65,0H502Z" transform="translate(50.46 -277.08)"/><path class="cls-1" d="M510.81,320a6.28,6.28,0,0,1,1.22,3.38c0,.55.05.88.05,1q-.38,3.66-.66,3.66a3.89,3.89,0,0,1-.7,1.12,8.55,8.55,0,0,0-1,.94l-.05.1a6.34,6.34,0,0,1,1.5,2.48,5.49,5.49,0,0,0,.71,1.59,27.84,27.84,0,0,0,.89,2.77,3.91,3.91,0,0,1,.09.8v.14c0,.43-.15.69-.47.79a7.47,7.47,0,0,1-1,.24c-.69,0-1.17-.42-1.45-1.27a13.18,13.18,0,0,0-.94-1.92,6.5,6.5,0,0,0-.61-1.73,1.64,1.64,0,0,1-.14-.47h-.05c0,.13,0,.45-.09,1,0,.38.05.56.09.56a2.1,2.1,0,0,0-.09.75v.89a2,2,0,0,1-.05.43,2.57,2.57,0,0,1,.19.93q0,.54-1.17.66c-.71,0-1.12-.14-1.22-.42a22.06,22.06,0,0,1-.66-6l-.23-2.72.09-.84a8.45,8.45,0,0,1-.09-1.22v-.42c0-.4,0-.84,0-1.32a1.18,1.18,0,0,1,0-.37l.09-.56a11,11,0,0,1-.09-1.46,7.88,7.88,0,0,1,.65-2.72c.1,0,.23-.23.38-.7a3.17,3.17,0,0,1,2.11-.94l.61,0A2.24,2.24,0,0,1,510.81,320Zm-3.18,2.63a18.41,18.41,0,0,0,.23,2.48v.24a1.93,1.93,0,0,1-.05.42,5.82,5.82,0,0,1,.19,1.69l.05.18c.71-.62,1.08-1.87,1.08-3.75,0-1.6-.33-2.69-1-3.28h0c-.27,0-.43.6-.47,1.78Zm.47,10.83v.09h0v-.09Z" transform="translate(50.46 -277.08)"/><path class="cls-1" d="M520.41,323.5a8.7,8.7,0,0,1,.66,3.38s0,.08,0,.23-.06.39-.19,1a13.76,13.76,0,0,1,.23,2.63v.09a15.92,15.92,0,0,1-.28,2.63,4.22,4.22,0,0,1-.8,2.2c-.14.69-.38,1-.75,1a.93.93,0,0,1-1,.61,6.53,6.53,0,0,1-1.17-.19,6.66,6.66,0,0,1-1.17.19h-.19c-.81,0-1.38-.56-1.74-1.69a10.78,10.78,0,0,1-.89-2.86.83.83,0,0,0,0-.37l.09-.89c0-.5,0-1,0-1.36v-.19c0-1.42.09-2.15.24-2.2a.26.26,0,0,1,0-.14,11.41,11.41,0,0,1,.42-2,15.91,15.91,0,0,1,.94-3.28,1.63,1.63,0,0,1,.84-.61,6.42,6.42,0,0,1,2.3-.42C519.15,321.25,520,322,520.41,323.5Zm-3,.14a20.87,20.87,0,0,0-.43,2.58v.8a.48.48,0,0,1-.14.32v.19a7.73,7.73,0,0,1-.09,1.55,4.08,4.08,0,0,1,0,.51v.47a24.41,24.41,0,0,0,.51,4.36h.05a6.35,6.35,0,0,0,.7-2.34,20.2,20.2,0,0,0,.19-2.81,23.11,23.11,0,0,0-.19-2.39v-.24a2.7,2.7,0,0,1,.05-.51q-.37-1.51-.66-2.49Z" transform="translate(50.46 -277.08)"/><path class="cls-1" d="M527.87,322.28a7.5,7.5,0,0,0,.89,1.08c.09.42.32,1.22.7,2.39a1.77,1.77,0,0,1-.19.56c.15.85.24,1.35.24,1.5v.42c0,.2,0,.52,0,.94h0a8,8,0,0,1-1,3.38,2.94,2.94,0,0,1-1,1.26c-.13.47-.59.71-1.4.71-.08.44-.2,1.39-.33,2.86,0,0-.07.09-.09.28l0,.32c0,.36-.65.64-2,.85h-.28c-.65,0-1-.14-1-.42a6.73,6.73,0,0,1-.42-2.25c0-.11.09-.65.28-1.64a7.39,7.39,0,0,0,0-.8c0-.6,0-1.09,0-1.5a17.29,17.29,0,0,1-.19-2.67.32.32,0,0,1,0-.19,1.93,1.93,0,0,1,0-.42v-.66c0-.13,0-.19,0-.19l0-.32v-1.6c0-.41,0-1.64.09-3.7,0,0,0,0,0-.05h0l0-.09v-.52c0-.34.56-.65,1.69-.93l1-.05A4.5,4.5,0,0,1,527.87,322.28Zm-2.16,1v0a11.53,11.53,0,0,1,.28,1.17l0,.43a7.87,7.87,0,0,1,0,.84l0,.19c.06.29.18,1,.33,2.11l-.28,1.22c0,.27.08.92.23,2v0a8.43,8.43,0,0,1-.14,1.31c.16,0,.48-.9,1-2.71.08,0,.13-.37.14-1.08a11.26,11.26,0,0,0-.47-3.24,24.22,24.22,0,0,0-1-2.29Z" transform="translate(50.46 -277.08)"/><path class="cls-1" d="M534.91,320.61a2.4,2.4,0,0,1-1,1.64,5.33,5.33,0,0,1-1.55.22q-1.59,0-1.77-1l-.13-.81a2.68,2.68,0,0,1,.45-.94,7.11,7.11,0,0,1,2.16-.33C534.3,319.43,534.91,319.82,534.91,320.61Zm-2.3,3.56c1,0,1.54.41,1.69,1.22a7.21,7.21,0,0,1,.23,1.5,1.85,1.85,0,0,1-.14.51,1.1,1.1,0,0,1,.14.61v.24a2.87,2.87,0,0,1-.18,1l0,.24v.28c0,.22,0,.76-.14,1.64a9.21,9.21,0,0,0,.14,1.26,6.59,6.59,0,0,1-.23,1.36l.37,3.75V338c0,.29-.31.48-.93.56a3.13,3.13,0,0,1-1.32.23h-.23c-.53,0-.83-.17-.94-.51-.22-.15-.33-.58-.33-1.27l-.28-3.7c0-.21,0-.73.1-1.55l-.1-1.78c.06-.85.18-1.93.33-3.23,0-.44,0-.91,0-1.41v-.42c0-.25.28-.48.84-.7a2.38,2.38,0,0,1,.56-.05Z" transform="translate(50.46 -277.08)"/><path class="cls-1" d="M542.44,323.5a8.7,8.7,0,0,1,.66,3.38s0,.08,0,.23-.06.39-.19,1a13.76,13.76,0,0,1,.23,2.63v.09a15.92,15.92,0,0,1-.28,2.63,4.28,4.28,0,0,1-.79,2.2c-.15.69-.39,1-.75,1a1,1,0,0,1-1,.61,6.53,6.53,0,0,1-1.17-.19,6.66,6.66,0,0,1-1.17.19h-.19c-.81,0-1.38-.56-1.73-1.69a10.72,10.72,0,0,1-.9-2.86.83.83,0,0,0,0-.37l.09-.89c0-.5,0-1,0-1.36v-.19c0-1.42.09-2.15.24-2.2a.26.26,0,0,1-.05-.14,11.41,11.41,0,0,1,.42-2,15.91,15.91,0,0,1,.94-3.28,1.64,1.64,0,0,1,.85-.61,6.37,6.37,0,0,1,2.29-.42C541.18,321.25,542,322,542.44,323.5Zm-3,.14a20.87,20.87,0,0,0-.43,2.58v.8a.48.48,0,0,1-.14.32v.19a7.73,7.73,0,0,1-.09,1.55,2.77,2.77,0,0,1,0,.51v.47a24.41,24.41,0,0,0,.51,4.36h.05a6.35,6.35,0,0,0,.7-2.34,20.2,20.2,0,0,0,.19-2.81,23.11,23.11,0,0,0-.19-2.39v-.24a2.7,2.7,0,0,1,.05-.51q-.37-1.51-.66-2.49Z" transform="translate(50.46 -277.08)"/><path class="cls-1" d="M547.93,320.54c.53,0,1.12.66,1.78,2a2.14,2.14,0,0,0,.47,1.17,9.52,9.52,0,0,0,.33,1.36,3.9,3.9,0,0,1,.23,1,.6.6,0,0,1-.09.29c.13,0,.23.48.32,1.45a6.83,6.83,0,0,1,.38,2.2,4.83,4.83,0,0,1,.19,1l-.14.84a2.31,2.31,0,0,1,.18.66,3,3,0,0,1-.09.46,1.71,1.71,0,0,1,.14.61c0,.32,0,.51,0,.57s.19.28.29.84l0,.09v.05c.09,1.28.14,2,.14,2.06v.24c0,.47-.13.7-.38.7a2.26,2.26,0,0,1-1.07.24c-.74,0-1.19-.16-1.32-.47a11.34,11.34,0,0,1-1.17-4.36c0-.1-.37-.16-1-.19h-.28s-.08.06-.14.19l0,.09v.28a2.93,2.93,0,0,1-.15.75,2.33,2.33,0,0,0,.15.71,4.13,4.13,0,0,1-.43,1c0,.58-.1.92-.32,1a1.11,1.11,0,0,1-.57.28,1.43,1.43,0,0,1-1.59-1.08v-.56a19.59,19.59,0,0,1,.33-3.24c0-.17,0-.57,0-1.17.25-1.36.61-3.6,1.08-6.7a21.25,21.25,0,0,0,.61-3.14,1.49,1.49,0,0,1,.89-.75c.1-.38.55-.56,1.31-.56Zm-.52,5.34c-.15,1.38-.34,2.64-.56,3.75v.09a6.33,6.33,0,0,0,0,.85,5.92,5.92,0,0,0-.14,1.22c.31,0,.55,0,.7,0h.42v0c0-.16,0-.51-.09-1a7.11,7.11,0,0,0,.14-1.21v-.24a14.29,14.29,0,0,0-.47-3.42Z" transform="translate(50.46 -277.08)"/><path class="cls-1" d="M431.33,348.71l.51,0c1.54.22,2.3.53,2.3.89q.09,0,.09.42c0,.34-.76.67-2.29,1h-.66l-.24,0a3.22,3.22,0,0,1-.09.56.32.32,0,0,1,.05.19.26.26,0,0,1-.05.14,35.24,35.24,0,0,1,.19,3.89,4.69,4.69,0,0,0-.14,1.5,3,3,0,0,0-.33.94v.23s0,.05.05.05,0,0-.05,0l.05.33a1.73,1.73,0,0,1-.38.89l-.23,2.25c0,.21,0,.7,0,1.46,0,.31-.12,1.05-.18,2.2a5.11,5.11,0,0,1,.09.75c0,.81-.22,1.22-.66,1.22a.44.44,0,0,1-.23.05h-.38c-1-.07-1.5-.22-1.5-.43a3.11,3.11,0,0,1-.14-.61l.05-.65c-.13-1.36-.19-2.11-.19-2.25.1-1.38.18-2.37.24-3,0-.33-.06-.51-.1-.51s0-.05.05-.05l-.05-.33v-.61s0,0,0,0,0-.05,0-.05l-.09-1.64c0-1.16.08-2.17.14-3l-.05-.42.29-3.61c-1.28-.18-1.93-.5-1.93-1v-.09c0-.29.58-.53,1.74-.7a20.37,20.37,0,0,1,2.44-.14C430.66,348.66,431.2,348.71,431.33,348.71Z" transform="translate(50.46 -277.08)"/><path class="cls-1" d="M438.54,360.49a3.06,3.06,0,0,1-2.67-1.24,6.45,6.45,0,0,1-.89-3.74,7.59,7.59,0,0,1,.48-2.89,3.59,3.59,0,0,1,1.3-1.7,3.34,3.34,0,0,1,1.91-.55,3.67,3.67,0,0,1,1.71.36,2.88,2.88,0,0,1,1.12,1,4.35,4.35,0,0,1,.61,1.56,10.33,10.33,0,0,1,.18,2,6.55,6.55,0,0,1-1,3.88A3.26,3.26,0,0,1,438.54,360.49Zm-1.82-5.18a8.42,8.42,0,0,0,.47,3.31,1.55,1.55,0,0,0,1.48,1,1.52,1.52,0,0,0,1.43-1,7.52,7.52,0,0,0,.46-3.07,8.94,8.94,0,0,0-.46-3.33,1.53,1.53,0,0,0-1.44-1.08,1.47,1.47,0,0,0-1.16.49,2.94,2.94,0,0,0-.61,1.39A12.53,12.53,0,0,0,436.72,355.31Z" transform="translate(50.46 -277.08)"/><path class="cls-1" d="M450.16,358.91H465l-2.68-3.41.69-.64,4.6,4.46v.75l-4.6,4.47-.69-.65,2.68-3.42h-14.8Z" transform="translate(50.46 -277.08)"/><path class="cls-1" d="M480.73,348.71l.52,0c1.53.22,2.29.53,2.29.89.06,0,.1.14.1.42s-.76.67-2.3,1h-.65l-.24,0a3.22,3.22,0,0,1-.09.56.41.41,0,0,1,0,.19.33.33,0,0,1,0,.14,33.79,33.79,0,0,1,.18,3.89,5.58,5.58,0,0,0-.14,1.5,2.9,2.9,0,0,0-.32.94v.23s0,.05,0,.05,0,0,0,0l0,.33a1.79,1.79,0,0,1-.37.89l-.24,2.25c0,.21,0,.7.05,1.46a20.69,20.69,0,0,0-.19,2.2,5.54,5.54,0,0,1,.1.75c0,.81-.23,1.22-.66,1.22a.49.49,0,0,1-.23.05h-.38c-1-.07-1.5-.22-1.5-.43a2.52,2.52,0,0,1-.14-.61l.05-.65c-.13-1.36-.19-2.11-.19-2.25.09-1.38.18-2.37.23-3,0-.33,0-.51-.09-.51s0-.05.05-.05l-.05-.33v-.61s0,0-.05,0,0-.05.05-.05l-.09-1.64c0-1.16.08-2.17.14-3l-.05-.42.28-3.61c-1.28-.18-1.92-.5-1.92-1v-.09c0-.29.57-.53,1.73-.7a20.37,20.37,0,0,1,2.44-.14C480.06,348.66,480.6,348.71,480.73,348.71Z" transform="translate(50.46 -277.08)"/><path class="cls-1" d="M487,349.76a1.46,1.46,0,0,1,.59-.1c.8.09,1.55.14,2.27.18a1.06,1.06,0,0,1,.68.93,2.46,2.46,0,0,1-2.45,1.24h-.55l-.22,0v0l-.1,0a.35.35,0,0,0-.17,0,1.62,1.62,0,0,0-.14.65v.1c0,.23,0,.54,0,.92l-.22.62q.07.66.18.66c.07,0,.29,0,.68,0,1.18.27,1.77.47,1.77.58a.72.72,0,0,1,.28.54,1.12,1.12,0,0,1-1.14.7,10.1,10.1,0,0,0-1.37.45h-.18l.05.08c0,.08,0,.13-.05.13a6.66,6.66,0,0,1,.05.75v.66q0,.3-.09,1.38a2,2,0,0,0,.18.62l0,.52v.44a10.55,10.55,0,0,0,.17,2.29c0,.31,0,.54,0,.72v.08c0,.18.1.27.31.27a16.23,16.23,0,0,0,1.69-.09c.73,0,1.09.17,1.09.52-.32.88-1.35,1.29-3.09,1.26a4.91,4.91,0,0,1-2.93-.4,21.58,21.58,0,0,1-.52-4.61c0-.46,0-1,.09-1.72a11.35,11.35,0,0,1-.18-1.45l.09-1a11.94,11.94,0,0,1-.09-1.5l.22-2.87a1.42,1.42,0,0,1-.08-.4v-.18a2.15,2.15,0,0,1,0-.43,1.31,1.31,0,0,0-.09-.4,3.74,3.74,0,0,0,0-.62v-.92c0-.25.33-.51,1-.75.34,0,.51,0,.51-.05A8,8,0,0,1,487,349.76Z" transform="translate(50.46 -277.08)"/><path class="cls-1" d="M498.94,348.69c.51,0,.75.18.75.52.05,0,.1.34.14,1a6,6,0,0,1,.38,1l-.09,2.21a8.57,8.57,0,0,1,.14,1.68v.05a2.58,2.58,0,0,1-.14.94,7.8,7.8,0,0,1,.09,1.26v.05a4.06,4.06,0,0,1-.14,1.22c0,.27.05.44.05.51a12.27,12.27,0,0,1-.19,2.72c0,.62,0,1,0,1.22a7.9,7.9,0,0,1-.14,1l.05.65c0,.87-.85,1.48-2.58,1.83-.49,0-.92-.33-1.31-1-.13-.51-.43-1.52-.94-3l-.7-2.49h-.05c0,.32,0,.55,0,.71V361c.05,1.64.09,2.55.09,2.72a9.79,9.79,0,0,1-.23,2.16,2.18,2.18,0,0,1-1.18.42c-1.09,0-1.64-.6-1.64-1.78.1-1.35.14-2.12.14-2.3a15.4,15.4,0,0,1-.18-1.87,4.85,4.85,0,0,1,.09-.66l-.05-.28a6.15,6.15,0,0,0,.05-.75c0-.29,0-.69-.09-1.22.15-1.72.28-3.47.37-5.25,0-.63-.05-1.07-.05-1.31,0-.79.16-1.17.47-1.17a1.5,1.5,0,0,1,.71-.14c1.25,0,1.87.14,1.87.42a2.6,2.6,0,0,0,.61.89,6.1,6.1,0,0,1,.42,1.08,2.14,2.14,0,0,1,.47,1.5,2.21,2.21,0,0,1,.56,1.68,5.94,5.94,0,0,1,.61,2.39c.1,0,.14.2.14.52h.05c0-.22.08-1.11.23-2.67a10.69,10.69,0,0,1,0-1.41,3.24,3.24,0,0,1,0-.61v-.28a1.73,1.73,0,0,1,0-.42,2.69,2.69,0,0,1,0-.47v-.61a12.4,12.4,0,0,0,.15-1.36v-1c0-.27.28-.45.84-.52Zm-1.54,9.52v.14h0v-.14Z" transform="translate(50.46 -277.08)"/><path class="cls-1" d="M507.17,351.08a7.5,7.5,0,0,0,.89,1.08c.09.42.33,1.22.7,2.39a1.75,1.75,0,0,1-.18.56c.15.85.23,1.35.23,1.5V357c0,.19,0,.51-.05.93h.05a7.86,7.86,0,0,1-1,3.38,2.94,2.94,0,0,1-1,1.26c-.13.47-.6.71-1.41.71-.08.44-.2,1.39-.33,2.86,0,0-.07.09-.09.28l.05.33c0,.35-.66.63-2,.84h-.28q-1,0-1-.42a6.73,6.73,0,0,1-.42-2.25c0-.11.09-.65.28-1.64a7.39,7.39,0,0,0,0-.8c0-.6,0-1.09,0-1.5a17.29,17.29,0,0,1-.19-2.67.41.41,0,0,1,.05-.19,2.87,2.87,0,0,1-.05-.42v-.66c0-.13,0-.19.05-.19l-.05-.32V355c0-.41,0-1.64.1-3.7,0,0,0,0,0,0h0l0-.09v-.52c0-.34.57-.65,1.69-.93l1-.05A4.48,4.48,0,0,1,507.17,351.08Zm-2.16,1v0a8.91,8.91,0,0,1,.28,1.18l0,.42c0,.37,0,.65,0,.84l0,.19c.06.29.17,1,.33,2.11l-.29,1.22c0,.27.09.92.24,2v0a9.91,9.91,0,0,1-.14,1.31c.15,0,.48-.9,1-2.71.09,0,.13-.37.14-1.08a10.9,10.9,0,0,0-.47-3.24,21.87,21.87,0,0,0-1-2.29Z" transform="translate(50.46 -277.08)"/><path class="cls-1" d="M513.09,349.76a1.44,1.44,0,0,1,.58-.1c.81.09,1.56.14,2.28.18a1.08,1.08,0,0,1,.68.93,2.46,2.46,0,0,1-2.45,1.24h-.55l-.23,0v0l-.09,0a.39.39,0,0,0-.18,0,1.81,1.81,0,0,0-.14.65v.1c0,.23,0,.54,0,.92l-.22.62c0,.44.1.66.17.66s.3,0,.68,0c1.19.27,1.77.47,1.77.58a.69.69,0,0,1,.28.54,1.1,1.1,0,0,1-1.13.7,9.62,9.62,0,0,0-1.37.45H513l.05.08c0,.08,0,.13-.05.13a6.66,6.66,0,0,1,.05.75v.66c0,.2,0,.66-.1,1.38a2.25,2.25,0,0,0,.19.62l0,.52v.44a9.78,9.78,0,0,0,.18,2.29c0,.31,0,.54,0,.72v.08c0,.18.11.27.32.27a16.38,16.38,0,0,0,1.69-.09c.72,0,1.09.17,1.09.52-.32.88-1.35,1.29-3.1,1.26a4.94,4.94,0,0,1-2.93-.4,21.56,21.56,0,0,1-.51-4.61c0-.46,0-1,.09-1.72a9.21,9.21,0,0,1-.19-1.45l.1-1a10.77,10.77,0,0,1-.1-1.5l.23-2.87a1.42,1.42,0,0,1-.08-.4v-.18a2.15,2.15,0,0,1,0-.43,1.72,1.72,0,0,0-.09-.4,5.28,5.28,0,0,0,.05-.62v-.92c0-.25.32-.51,1-.75.34,0,.51,0,.51-.05A8,8,0,0,1,513.09,349.76Z" transform="translate(50.46 -277.08)"/><path class="cls-1" d="M523.07,348.77a6.36,6.36,0,0,1,1.22,3.38c0,.55.05.88.05,1q-.37,3.66-.66,3.66a3.89,3.89,0,0,1-.7,1.12,8.55,8.55,0,0,0-1,.94l-.05.1a6.46,6.46,0,0,1,1.5,2.48,5.33,5.33,0,0,0,.7,1.59c0,.12.3,1.05.89,2.77a3.37,3.37,0,0,1,.1.8v.14c0,.43-.15.69-.47.79a7.47,7.47,0,0,1-1,.24c-.69,0-1.17-.42-1.46-1.27a12,12,0,0,0-.93-1.92,6.5,6.5,0,0,0-.61-1.73,1.36,1.36,0,0,1-.14-.47h-.05c0,.13,0,.45-.09,1,0,.38,0,.56.09.56a2.1,2.1,0,0,0-.09.75v.89a2.83,2.83,0,0,1,0,.43,2.57,2.57,0,0,1,.19.93q0,.54-1.17.66c-.71,0-1.12-.14-1.22-.42a21.67,21.67,0,0,1-.66-6l-.23-2.72.09-.84a8.45,8.45,0,0,1-.09-1.22V356c0-.4,0-.84,0-1.32a1.55,1.55,0,0,1,0-.37l.09-.56a11,11,0,0,1-.09-1.46,7.88,7.88,0,0,1,.65-2.72c.1,0,.22-.23.38-.7a3.17,3.17,0,0,1,2.11-.94l.61,0A2.24,2.24,0,0,1,523.07,348.77Zm-3.19,2.63a18.71,18.71,0,0,0,.24,2.48v.24a1.93,1.93,0,0,1,0,.42,5.82,5.82,0,0,1,.19,1.69l0,.18c.71-.62,1.07-1.87,1.07-3.75,0-1.6-.32-2.69-1-3.28h0c-.27,0-.42.6-.47,1.78Zm.47,10.83v.09h0v-.09Z" transform="translate(50.46 -277.08)"/><path class="cls-1" d="M529.79,349.34c.52,0,1.12.66,1.78,2a2.14,2.14,0,0,0,.47,1.17,9.52,9.52,0,0,0,.33,1.36,3.9,3.9,0,0,1,.23,1,.74.74,0,0,1-.09.29c.12,0,.23.48.32,1.45a6.88,6.88,0,0,1,.38,2.2,4.83,4.83,0,0,1,.19,1l-.14.84a2.73,2.73,0,0,1,.18.66,3,3,0,0,1-.09.46,1.71,1.71,0,0,1,.14.61c0,.32,0,.51,0,.57s.19.28.28.84l0,.09v0c.09,1.28.14,2,.14,2.06v.24c0,.47-.13.7-.38.7a2.26,2.26,0,0,1-1.07.24c-.74,0-1.19-.16-1.32-.47a11.34,11.34,0,0,1-1.17-4.36c0-.1-.37-.16-1-.19h-.28s-.08.06-.14.19l0,.09v.28a2.81,2.81,0,0,1-.14.75,3.19,3.19,0,0,0,.14.71,3.7,3.7,0,0,1-.42,1c0,.58-.1.92-.33,1a1.05,1.05,0,0,1-.56.28,1.43,1.43,0,0,1-1.59-1.08v-.56a19.59,19.59,0,0,1,.33-3.24c0-.17,0-.57,0-1.17.25-1.36.61-3.6,1.08-6.7a21.25,21.25,0,0,0,.61-3.14,1.49,1.49,0,0,1,.89-.75c.1-.38.55-.56,1.31-.56Zm-.52,5.34c-.15,1.38-.34,2.64-.56,3.75v.09a6.33,6.33,0,0,0,0,.85,5.92,5.92,0,0,0-.14,1.22c.31,0,.55,0,.7,0h.42v0c0-.16,0-.51-.09-1a7.11,7.11,0,0,0,.14-1.21v-.24a14.82,14.82,0,0,0-.47-3.42Z" transform="translate(50.46 -277.08)"/><path class="cls-1" d="M539.3,348.55c1,.15,1.82.27,2.44.33a1.52,1.52,0,0,1,.47.8,1.37,1.37,0,0,1-1.08,1.31,3.86,3.86,0,0,1-1.17.19h-1.31a1.63,1.63,0,0,0,0,.37,12.73,12.73,0,0,1,.33,1.69,2.38,2.38,0,0,1-.14.56,2.63,2.63,0,0,1,.28.7l-.1.71.19,2.11a4.11,4.11,0,0,0-.09.61,8.75,8.75,0,0,1,.14,1,8.88,8.88,0,0,0-.09,1v.19c0,1.23.09,1.89.09,2l-.05.42a4.76,4.76,0,0,1,.24,1.36V364a12.14,12.14,0,0,0-.14,1.27,11.68,11.68,0,0,1,.28,1.5c0,.41-.74.69-2.21.84-.57,0-.92-.13-1.07-.37-.41-.62-.61-2.24-.61-4.83,0,0,0-.13,0-.38s.06-.56.09-.56l0-.47v-.89a7.56,7.56,0,0,0-.14-1.54l.09-.8q-.23-1.71-.38-6.75c-.28-.06-.92-.15-1.92-.28a.61.61,0,0,1-.28-.47,1.11,1.11,0,0,1,1.13-1.19,27.68,27.68,0,0,1,3.42-.41s0,0,.14,0a.41.41,0,0,1,.19,0,5.86,5.86,0,0,1,.65,0H539Z" transform="translate(50.46 -277.08)"/><path class="cls-1" d="M549.12,349.18a1.06,1.06,0,0,1,1.17.75,19.51,19.51,0,0,1,1,3.61l.28,1.74-.05.65c0,.82.05,1.39.05,1.69a10.61,10.61,0,0,1-.47,2.77c-.11,2.06-.24,3.09-.38,3.09a5.08,5.08,0,0,1-2.43,2.72,6.72,6.72,0,0,1-2.54.66h0l-.1,0v0l-.09,0A2.32,2.32,0,0,1,544,366a11.62,11.62,0,0,1-1.4-2.57A14.24,14.24,0,0,1,542,359c0-.49.1-2.93.33-7.31v-.75c0-.56.22-.85.65-.85a2.76,2.76,0,0,1,1.08-.23h.28l.1,0v0s0,0,0,0a1.67,1.67,0,0,1,1.46.89,4.34,4.34,0,0,1,.18,1q-.09,1.1-.09,1.41a16.14,16.14,0,0,0,.28,1.78c0,.75-.08,1.35-.14,1.78l.09,1.18,0,.09a.41.41,0,0,0,0,.19c0,.41,0,.74,0,1v.7a15.81,15.81,0,0,0,.18,2h0a9.24,9.24,0,0,0,.23,1,9.25,9.25,0,0,0,.75-2.76c0-.2.14-1,.42-2.44a29.93,29.93,0,0,0,.24-4.13s.06-.18.09-.56a3.69,3.69,0,0,0-.09-.66h0a4.34,4.34,0,0,1-.09-1.07v-1.18c0-.43.33-.72,1-.89Z" transform="translate(50.46 -277.08)"/><path class="cls-1" d="M558.16,348.77a6.36,6.36,0,0,1,1.22,3.38c0,.55,0,.88,0,1-.24,2.44-.46,3.66-.65,3.66a4.06,4.06,0,0,1-.71,1.12,10.57,10.57,0,0,0-1,.94l0,.1a6.59,6.59,0,0,1,1.5,2.48,5.33,5.33,0,0,0,.7,1.59,27.84,27.84,0,0,0,.89,2.77,3.38,3.38,0,0,1,.09.8v.14c0,.43-.15.69-.46.79a7.9,7.9,0,0,1-1,.24c-.69,0-1.17-.42-1.45-1.27a12.22,12.22,0,0,0-.94-1.92,5.86,5.86,0,0,0-.61-1.73,1.64,1.64,0,0,1-.14-.47h0c0,.13,0,.45-.1,1,0,.38.05.56.1.56a2,2,0,0,0-.1.75v.89a2.62,2.62,0,0,1,0,.43,2.77,2.77,0,0,1,.18.93c0,.36-.38.58-1.17.66s-1.11-.14-1.22-.42a22.12,22.12,0,0,1-.65-6l-.24-2.72.1-.84a8.48,8.48,0,0,1-.1-1.22V356c0-.4,0-.84,0-1.32a1.18,1.18,0,0,1,0-.37l.1-.56a10.92,10.92,0,0,1-.1-1.46,8.07,8.07,0,0,1,.66-2.72c.09,0,.22-.23.37-.7a3.19,3.19,0,0,1,2.11-.94l.61,0A2.25,2.25,0,0,1,558.16,348.77ZM555,351.4a17.15,17.15,0,0,0,.24,2.48v.24a2.87,2.87,0,0,1-.05.42,5.82,5.82,0,0,1,.19,1.69l0,.18q1.08-.93,1.08-3.75a4.34,4.34,0,0,0-1-3.28h0c-.27,0-.42.6-.47,1.78Zm.47,10.83v.09h0v-.09Z" transform="translate(50.46 -277.08)"/><path class="cls-1" d="M564.87,349.34c.53,0,1.13.66,1.78,2a2.22,2.22,0,0,0,.47,1.17,11.19,11.19,0,0,0,.33,1.36,4,4,0,0,1,.24,1,.63.63,0,0,1-.1.29c.13,0,.24.48.33,1.45a6.86,6.86,0,0,1,.37,2.2,3.77,3.77,0,0,1,.19,1l-.14.84a2.47,2.47,0,0,1,.19.66c0,.05,0,.22-.09.46a1.71,1.71,0,0,1,.14.61,5.62,5.62,0,0,0-.05.57c.09,0,.19.28.28.84l0,.09v0c.1,1.28.14,2,.14,2.06v.24c0,.47-.12.7-.37.7a2.3,2.3,0,0,1-1.08.24c-.74,0-1.18-.16-1.31-.47a11.17,11.17,0,0,1-1.17-4.36c0-.1-.38-.16-1-.19h-.29s-.08.06-.14.19l0,.09v.28a3.29,3.29,0,0,1-.14.75,3.19,3.19,0,0,0,.14.71,4.44,4.44,0,0,1-.42,1c0,.58-.11.92-.33,1a1.09,1.09,0,0,1-.56.28,1.44,1.44,0,0,1-1.6-1.08v-.56a20.75,20.75,0,0,1,.33-3.24c0-.17,0-.57,0-1.17.24-1.36.6-3.6,1.07-6.7a21.25,21.25,0,0,0,.61-3.14,1.52,1.52,0,0,1,.89-.75c.11-.38.55-.56,1.32-.56Zm-.51,5.34c-.15,1.38-.34,2.64-.57,3.75v.09c0,.27,0,.55.05.85a6.7,6.7,0,0,0-.14,1.22c.32,0,.55,0,.7,0h.43v0c0-.16,0-.51-.1-1a6.22,6.22,0,0,0,.14-1.21v-.24a14.29,14.29,0,0,0-.47-3.42Z" transform="translate(50.46 -277.08)"/></svg>