<svg id="Capa_1" data-name="Capa 1" xmlns="http://www.w3.org/2000/svg" viewBox="0 0 579.78 371.22"><defs><style>.cls-1,.cls-2{fill:none;stroke:#fff;stroke-miterlimit:10;}.cls-1{stroke-width:2px;}.cls-3{fill:#fff;}.cls-4{fill:#c6c6c6;}.cls-5{fill:#9d9d9c;}.cls-6{fill:#e30613;}.cls-7{fill:#ffed00;}.cls-8{fill:#f39200;}.cls-9{fill:#e6007e;}</style></defs><title>grafikillua</title><line class="cls-1" x1="10.83" y1="1.2" x2="11.83" y2="362.51"/><line class="cls-1" x1="10.83" y1="362.07" x2="428.83" y2="361.07"/><line class="cls-1" x1="12.11" y1="0.78" x2="0.63" y2="10.06"/><line class="cls-1" x1="10.49" y1="0.78" x2="21.97" y2="10.06"/><line class="cls-1" x1="429.53" y1="361.07" x2="419.09" y2="350.63"/><line class="cls-1" x1="419.09" y1="370.51" x2="429.53" y2="360.07"/><path class="cls-2" d="M220.49,388h11.79" transform="translate(-59.17 -158.15)"/><path class="cls-2" d="M198.29,388H208" transform="translate(-59.17 -158.15)"/><path class="cls-2" d="M181,388h4.86" transform="translate(-59.17 -158.15)"/><path class="cls-2" d="M160.14,388h8.33" transform="translate(-59.17 -158.15)"/><path class="cls-2" d="M141.16,388h7.43" transform="translate(-59.17 -158.15)"/><path class="cls-2" d="M121.67,388h7" transform="translate(-59.17 -158.15)"/><path class="cls-2" d="M99,388h10.27" transform="translate(-59.17 -158.15)"/><path class="cls-2" d="M80.11,388h7.54" transform="translate(-59.17 -158.15)"/><path class="cls-2" d="M478.78,447.2l11.88.1" transform="translate(-59.17 -158.15)"/><path class="cls-2" d="M455.72,447.08l11.18,0" transform="translate(-59.17 -158.15)"/><path class="cls-2" d="M435.45,447h8.39" transform="translate(-59.17 -158.15)"/><path class="cls-2" d="M415.88,447.06h7.69" transform="translate(-59.17 -158.15)"/><path class="cls-2" d="M396.82,447.11l7.47,0" transform="translate(-59.17 -158.15)"/><path class="cls-2" d="M376.62,447.19l8.36,0" transform="translate(-59.17 -158.15)"/><path class="cls-2" d="M358.15,447.3l6.14,0" transform="translate(-59.17 -158.15)"/><path class="cls-2" d="M338.49,447.3h8.21" transform="translate(-59.17 -158.15)"/><path class="cls-3" d="M118.91,409.09c0-.1.09-.14.17-.13s.12.06.12.16v2.39c0,.11-.06.17-.19.17h-9.56a.17.17,0,0,1-.13,0,.14.14,0,0,1,0-.09.16.16,0,0,1,0-.09.23.23,0,0,1,.13-.07l.34-.07a1.52,1.52,0,0,0,.47-.22,1.49,1.49,0,0,0,.42-.41,1.16,1.16,0,0,0,.18-.68V401.2a1.15,1.15,0,0,0-.18-.67,1.4,1.4,0,0,0-.42-.42,1.75,1.75,0,0,0-.47-.21l-.34-.08a.23.23,0,0,1-.13-.06.19.19,0,0,1,0-.1.14.14,0,0,1,0-.09.17.17,0,0,1,.13,0h8.78c.12,0,.19.06.19.17v1.87c0,.09,0,.14-.11.15a.18.18,0,0,1-.18-.11,4.19,4.19,0,0,0-.22-.37,2.35,2.35,0,0,0-.45-.53,2.79,2.79,0,0,0-.72-.46,2.31,2.31,0,0,0-1-.21,3.81,3.81,0,0,0-.78.08,1.49,1.49,0,0,0-.59.23,1.07,1.07,0,0,0-.39.4,1.24,1.24,0,0,0-.14.6V405a.13.13,0,0,0,0,.1.18.18,0,0,0,.09,0h1.16a1.2,1.2,0,0,0,.66-.17,1.3,1.3,0,0,0,.4-.37,1.55,1.55,0,0,0,.21-.43c0-.14.07-.25.09-.32a.11.11,0,0,1,.05-.1l.1,0a.13.13,0,0,1,.09,0,.16.16,0,0,1,0,.12V407a.15.15,0,0,1,0,.11.1.1,0,0,1-.09,0,.12.12,0,0,1-.15-.13c0-.07,0-.17-.09-.32a1.38,1.38,0,0,0-.21-.42,1.33,1.33,0,0,0-.4-.38,1.2,1.2,0,0,0-.66-.16h-1.16a.12.12,0,0,0-.09,0,.11.11,0,0,0,0,.09v4a1.07,1.07,0,0,0,.56,1,3.12,3.12,0,0,0,1.58.33,2.82,2.82,0,0,0,.89-.13,4,4,0,0,0,.72-.33,3.11,3.11,0,0,0,.56-.44c.15-.17.29-.33.4-.48a2.49,2.49,0,0,0,.26-.41Z" transform="translate(-59.17 -158.15)"/><path class="cls-3" d="M125.18,403.36a1.91,1.91,0,0,1,.63.09,1.19,1.19,0,0,1,.43.25,1,1,0,0,1,.23.37,1.33,1.33,0,0,1,.07.45.86.86,0,0,1-.27.67,1.07,1.07,0,0,1-.73.24,1,1,0,0,1-.55-.12,1.64,1.64,0,0,1-.34-.28l-.26-.27a.39.39,0,0,0-.29-.13.62.62,0,0,0-.32.11.94.94,0,0,0-.33.39,3.07,3.07,0,0,0-.25.79,7.73,7.73,0,0,0-.09,1.31v3.11a1.15,1.15,0,0,0,.12.57.94.94,0,0,0,.28.31,1,1,0,0,0,.31.15l.22.05a.2.2,0,0,1,.11.06.12.12,0,0,1,0,.08.14.14,0,0,1,0,.08.15.15,0,0,1-.11,0h-4.23a.16.16,0,0,1-.12,0,.22.22,0,0,1,0-.08.13.13,0,0,1,0-.08.14.14,0,0,1,.1-.06l.22-.05a1.15,1.15,0,0,0,.32-.15,1,1,0,0,0,.4-.88v-5.08a.14.14,0,0,0-.11-.14l-.13,0-.26-.06-.26-.06-.15,0q-.12,0-.12-.12c0-.06,0-.11.13-.13l.76-.22c.27-.09.54-.2.82-.32s.54-.24.8-.37.49-.28.69-.41a.23.23,0,0,1,.17-.05c.06,0,.09.05.09.14v1.28a2.31,2.31,0,0,1,.85-1A2.22,2.22,0,0,1,125.18,403.36Z" transform="translate(-59.17 -158.15)"/><path class="cls-3" d="M132.18,403.36a2,2,0,0,1,.64.09,1.23,1.23,0,0,1,.42.25.85.85,0,0,1,.23.37,1.33,1.33,0,0,1,.08.45.87.87,0,0,1-.28.67,1.07,1.07,0,0,1-.73.24,1,1,0,0,1-.55-.12,2,2,0,0,1-.34-.28l-.25-.27a.41.41,0,0,0-.29-.13.65.65,0,0,0-.33.11.94.94,0,0,0-.33.39,3.11,3.11,0,0,0-.24.79,6.7,6.7,0,0,0-.1,1.31v3.11a1.15,1.15,0,0,0,.12.57.94.94,0,0,0,.28.31,1.1,1.1,0,0,0,.31.15l.22.05a.17.17,0,0,1,.11.06.08.08,0,0,1,0,.08.16.16,0,0,1-.16.12h-4.23a.12.12,0,0,1-.11,0,.1.1,0,0,1,0-.08.08.08,0,0,1,0-.08.14.14,0,0,1,.1-.06l.23-.05a1.25,1.25,0,0,0,.31-.15,1.06,1.06,0,0,0,.28-.31,1.15,1.15,0,0,0,.12-.57v-5.08a.14.14,0,0,0-.11-.14l-.13,0-.26-.06-.26-.06-.15,0q-.12,0-.12-.12c0-.06,0-.11.13-.13s.49-.13.76-.22.55-.2.82-.32.54-.24.8-.37.49-.28.7-.41a.2.2,0,0,1,.16-.05c.06,0,.09.05.09.14v1.28a2.31,2.31,0,0,1,.85-1A2.22,2.22,0,0,1,132.18,403.36Z" transform="translate(-59.17 -158.15)"/><path class="cls-3" d="M136.27,406.91c-.09,0-.14,0-.14.15a6.57,6.57,0,0,0,.16,1.58,3,3,0,0,0,.47,1.07,1.88,1.88,0,0,0,.78.62,2.72,2.72,0,0,0,1.07.2,3.12,3.12,0,0,0,.84-.1,3.8,3.8,0,0,0,.63-.23,3.27,3.27,0,0,0,.44-.25,2.27,2.27,0,0,1,.25-.15.16.16,0,0,1,.2,0c.05.05.05.13,0,.23l-.12.21a2.4,2.4,0,0,1-.28.37,3.77,3.77,0,0,1-.45.43,3.06,3.06,0,0,1-.64.41,3.85,3.85,0,0,1-.85.31,4,4,0,0,1-1.08.13,4.46,4.46,0,0,1-1.63-.29,3.4,3.4,0,0,1-1.24-.82,3.67,3.67,0,0,1-.81-1.32,5.2,5.2,0,0,1-.28-1.74,4.78,4.78,0,0,1,.35-1.88,4.12,4.12,0,0,1,.92-1.37,4.08,4.08,0,0,1,1.29-.85,3.94,3.94,0,0,1,1.46-.28,3.63,3.63,0,0,1,1.24.19,3.42,3.42,0,0,1,.93.5,3.06,3.06,0,0,1,.65.7,3.76,3.76,0,0,1,.41.76,3.41,3.41,0,0,1,.28,1.24.14.14,0,0,1-.05.12.27.27,0,0,1-.16,0Zm-.1-.59c0,.07,0,.11.11.11h.56l.47,0,.48,0h.4l.21,0a.61.61,0,0,0,.3-.12.5.5,0,0,0,.16-.41,2.92,2.92,0,0,0-.08-.6,2.1,2.1,0,0,0-.23-.65,1.58,1.58,0,0,0-.4-.52.87.87,0,0,0-.59-.21.81.81,0,0,0-.49.15,1.48,1.48,0,0,0-.35.39,2.78,2.78,0,0,0-.25.52,4.47,4.47,0,0,0-.16.57c0,.18-.07.35-.1.5S136.18,406.24,136.17,406.32Z" transform="translate(-59.17 -158.15)"/><path class="cls-3" d="M149.71,410.85a.2.2,0,0,1,.2,0,.16.16,0,0,1,0,.2,1.49,1.49,0,0,1-.18.24,1.42,1.42,0,0,1-.32.25,2.36,2.36,0,0,1-.5.2,2.73,2.73,0,0,1-.69.08,1.77,1.77,0,0,1-.92-.22,1.34,1.34,0,0,1-.52-.51.08.08,0,0,0-.1-.06.16.16,0,0,0-.11.05l-.17.15a2,2,0,0,1-.39.26,3.63,3.63,0,0,1-.62.25,2.64,2.64,0,0,1-.83.12,3.5,3.5,0,0,1-1.34-.23,2.5,2.5,0,0,1-.89-.58,2.19,2.19,0,0,1-.48-.8,2.77,2.77,0,0,1-.15-.89,2,2,0,0,1,.4-1.24,2.41,2.41,0,0,1,1-.79,3,3,0,0,1,.71-.19l.75-.13.72-.15a2.4,2.4,0,0,0,.67-.31,1.26,1.26,0,0,0,.47-.58,2.27,2.27,0,0,0,.13-.75,2,2,0,0,0-.08-.55,1.31,1.31,0,0,0-.22-.46,1.08,1.08,0,0,0-.32-.32.72.72,0,0,0-.4-.12.74.74,0,0,0-.57.2,1.41,1.41,0,0,0-.28.48c-.07.18-.14.38-.2.58a1.38,1.38,0,0,1-.28.52,1,1,0,0,1-.42.25,1.5,1.5,0,0,1-.49.09,1.14,1.14,0,0,1-.43-.08,1.12,1.12,0,0,1-.33-.22.86.86,0,0,1-.2-.33,1,1,0,0,1-.07-.39,1.24,1.24,0,0,1,.62-1.06,2.91,2.91,0,0,1,.93-.36,7.63,7.63,0,0,1,3.19.06,2.84,2.84,0,0,1,1.15.59,2.19,2.19,0,0,1,.65,1,3.74,3.74,0,0,1,.2,1.3c0,.58,0,1.12-.05,1.63s-.06,1-.08,1.36a7.24,7.24,0,0,0,0,1c0,.26.12.41.26.47a.38.38,0,0,0,.22,0Zm-3.12-4a.07.07,0,0,0-.05-.07.06.06,0,0,0-.08,0l-.13.16-.16.17c-.11.12-.23.23-.35.34l-.36.32-.35.28a2.5,2.5,0,0,0-.33.32,1.88,1.88,0,0,0-.35.59,2.15,2.15,0,0,0-.11.68,1.71,1.71,0,0,0,.07.49,1.4,1.4,0,0,0,.22.44,1.15,1.15,0,0,0,.38.31,1.07,1.07,0,0,0,.55.13,1,1,0,0,0,.53-.14,1,1,0,0,0,.31-.32,1.29,1.29,0,0,0,.16-.39,1.42,1.42,0,0,0,.05-.3Z" transform="translate(-59.17 -158.15)"/><path class="cls-3" d="M161,411.41c.09,0,.13.1.12.17s0,.1-.15.1h-4.9c-.1,0-.16,0-.16-.11s0-.12.12-.15a1.57,1.57,0,0,0,.28-.1,1.21,1.21,0,0,0,.25-.17.57.57,0,0,0,.12-.26.71.71,0,0,0-.09-.37,2.18,2.18,0,0,0-.15-.22l-.32-.4-.4-.49c-.14-.17-.27-.34-.41-.49s-.24-.3-.35-.42l-.21-.24a3.05,3.05,0,0,0-.28-.27.38.38,0,0,0-.23-.08.22.22,0,0,0-.21.09.55.55,0,0,0-.06.28v1.94a1.07,1.07,0,0,0,.16.6,1.32,1.32,0,0,0,.36.35,1.6,1.6,0,0,0,.4.19l.26.06a.2.2,0,0,1,.11.06.12.12,0,0,1,0,.08.14.14,0,0,1-.05.08.15.15,0,0,1-.11,0h-4.72a.12.12,0,0,1-.11,0,.1.1,0,0,1-.05-.08.08.08,0,0,1,0-.08.17.17,0,0,1,.1-.06l.27-.06a1.6,1.6,0,0,0,.4-.19,1.32,1.32,0,0,0,.36-.35,1.07,1.07,0,0,0,.15-.6V400.13a.13.13,0,0,0-.1-.14l-.13,0-.26-.06-.27-.06-.15,0a.15.15,0,0,1-.12-.12c0-.06,0-.11.13-.13.24-.06.49-.13.76-.22s.55-.2.83-.32.54-.24.8-.37.49-.28.69-.41a.23.23,0,0,1,.17-.05c.05,0,.08.05.08.14V407a.67.67,0,0,0,.08.35.26.26,0,0,0,.25.12.46.46,0,0,0,.37-.16l.45-.56.52-.72c.17-.24.34-.49.49-.73l.37-.58a.83.83,0,0,0,.16-.46.36.36,0,0,0-.12-.26.58.58,0,0,0-.25-.12l-.21-.05a.11.11,0,0,1-.1-.05.16.16,0,0,1,0-.09.22.22,0,0,1,.05-.08.16.16,0,0,1,.12,0h2.58a.14.14,0,0,1,.11,0,.09.09,0,0,1,0,.08.14.14,0,0,1-.13.14l-.24.07a2,2,0,0,0-.38.17,4.44,4.44,0,0,0-.46.3,3.43,3.43,0,0,0-.51.45,2.48,2.48,0,0,0-.22.28l-.32.43-.29.41-.13.22a.18.18,0,0,0,0,.2c0,.07.14.2.29.4l.55.7c.22.27.45.56.71.86l.73.87c.24.28.45.53.65.75a5.78,5.78,0,0,0,.44.47c.15.14.31.27.46.39l.44.3a2.93,2.93,0,0,0,.35.21Z" transform="translate(-59.17 -158.15)"/><path class="cls-3" d="M166.12,410.38c.1-.06.18-.05.23,0a.18.18,0,0,1,0,.21,2.6,2.6,0,0,1-.41.53,2.88,2.88,0,0,1-.56.41,2.61,2.61,0,0,1-.69.27,3.27,3.27,0,0,1-1.68,0,2,2,0,0,1-1.36-1.24,3.3,3.3,0,0,1-.22-1.32v-5.06a.07.07,0,0,0-.08-.07h-.23a1.31,1.31,0,0,1-.27,0s0-.06,0-.12a.4.4,0,0,1,.1-.25.3.3,0,0,1,.26-.13h.19s.07,0,.07-.07v-2.15c0-.13.05-.21.16-.23l.48-.12.52-.18.52-.22a5.42,5.42,0,0,0,.48-.26.19.19,0,0,1,.18,0,.18.18,0,0,1,.09.18v3s0,.06.07.06h1.69a.75.75,0,0,1,.27,0,.12.12,0,0,1,0,.11.38.38,0,0,1-.13.25.37.37,0,0,1-.28.13h-1.61s-.06,0-.06.07v5.53a1.14,1.14,0,0,0,.08.43.9.9,0,0,0,.23.31,1,1,0,0,0,.32.2,1.19,1.19,0,0,0,.37.06,2.36,2.36,0,0,0,.72-.11C165.82,410.51,166,410.44,166.12,410.38Z" transform="translate(-59.17 -158.15)"/><path class="cls-3" d="M170.24,410.27a1.11,1.11,0,0,0,.14.58,1.19,1.19,0,0,0,.33.34,1.18,1.18,0,0,0,.36.17l.25.06a.14.14,0,0,1,.1.06.08.08,0,0,1,0,.08.1.1,0,0,1-.05.08.12.12,0,0,1-.11,0h-4.52a.15.15,0,0,1-.11,0,.14.14,0,0,1-.05-.08.12.12,0,0,1,0-.08.2.2,0,0,1,.11-.06l.25-.06a1.44,1.44,0,0,0,.36-.17,1.05,1.05,0,0,0,.32-.34,1,1,0,0,0,.15-.58v-5a.14.14,0,0,0-.11-.14l-.13,0-.26-.06-.26-.06-.15,0q-.12,0-.12-.12c0-.06,0-.11.13-.13s.49-.13.76-.22.55-.2.82-.32a8.43,8.43,0,0,0,.8-.37c.26-.14.49-.28.7-.41a.2.2,0,0,1,.16-.05c.06,0,.09.05.09.14Zm.07-10.14a1.37,1.37,0,0,0-.3-.45,1.49,1.49,0,0,0-.46-.31,1.59,1.59,0,0,0-.59-.11,1.45,1.45,0,0,0-.59.12,1.64,1.64,0,0,0-.49.31,1.38,1.38,0,0,0-.31.47,1.31,1.31,0,0,0-.12.56,1.33,1.33,0,0,0,.11.56,1.37,1.37,0,0,0,.3.45,1.66,1.66,0,0,0,.46.3,1.58,1.58,0,0,0,1.66-.32,1.36,1.36,0,0,0,.32-.46,1.31,1.31,0,0,0,.12-.56A1.51,1.51,0,0,0,170.31,400.13Z" transform="translate(-59.17 -158.15)"/><path class="cls-3" d="M178,403.36a4,4,0,0,1,1.26.18,3,3,0,0,1,.93.52,2.86,2.86,0,0,1,.65.74,3.82,3.82,0,0,1,.4.87,4.9,4.9,0,0,1,.21.92,6.66,6.66,0,0,1-.19,2.7,3.85,3.85,0,0,1-.75,1.4,3.27,3.27,0,0,1-1.25.9,4.62,4.62,0,0,1-1.77.32,5.87,5.87,0,0,1-1-.08,3.56,3.56,0,0,1-.78-.2,3.42,3.42,0,0,1-.66-.34c-.2-.14-.4-.29-.61-.47l-.07,0s0,0-.07,0l-.28.24-.37.34-.39.38-.31.32a.12.12,0,0,1-.15,0,.14.14,0,0,1-.09-.15v-8.74c0-.44,0-.85,0-1.22v-1.85a.13.13,0,0,0-.11-.15l-.13,0-.25-.06-.27-.06-.15,0a.14.14,0,0,1-.12-.12c0-.07,0-.11.13-.13a5.26,5.26,0,0,0,.76-.22c.28-.09.55-.2.83-.31l.8-.38a7,7,0,0,0,.69-.41.26.26,0,0,1,.17,0c.05,0,.08.06.08.14v6.24a.07.07,0,0,0,.06,0s0,0,.06,0a3.78,3.78,0,0,1,.27-.31,2.33,2.33,0,0,1,.52-.43,3.44,3.44,0,0,1,1.94-.52Zm.9,4.51c0-.13,0-.31,0-.54a6.39,6.39,0,0,0,0-.72,5.69,5.69,0,0,0-.16-.78,2.68,2.68,0,0,0-.31-.71,1.87,1.87,0,0,0-.53-.52,1.57,1.57,0,0,0-.81-.2,1.9,1.9,0,0,0-1,.22,1.73,1.73,0,0,0-.56.55,2,2,0,0,0-.27.69,4,4,0,0,0-.06.65v2.43a4.47,4.47,0,0,0,.08.76,2.8,2.8,0,0,0,.27.8,1.85,1.85,0,0,0,.54.64,1.43,1.43,0,0,0,.88.25,1.5,1.5,0,0,0,.9-.27,2,2,0,0,0,.61-.74,3.88,3.88,0,0,0,.35-1.12A8.52,8.52,0,0,0,178.89,407.87Z" transform="translate(-59.17 -158.15)"/><path class="cls-3" d="M186.81,403.36a4.51,4.51,0,0,1,1.7.32,4.05,4.05,0,0,1,1.34.9,4.23,4.23,0,0,1,.87,1.35,4.38,4.38,0,0,1,.32,1.66,4.1,4.1,0,0,1-.35,1.67,4.32,4.32,0,0,1-.93,1.37,4.18,4.18,0,0,1-1.4.93,4.52,4.52,0,0,1-3.44,0,4,4,0,0,1-2.21-2.24,4.38,4.38,0,0,1-.31-1.66,4.09,4.09,0,0,1,.34-1.67,4.42,4.42,0,0,1,.93-1.38,4.63,4.63,0,0,1,1.4-.93A4.39,4.39,0,0,1,186.81,403.36Zm-.09,8.07a1.07,1.07,0,0,0,.75-.3,2.33,2.33,0,0,0,.53-.81,5.45,5.45,0,0,0,.32-1.21,10,10,0,0,0,0-3,5.45,5.45,0,0,0-.32-1.21,2.33,2.33,0,0,0-.53-.81,1.07,1.07,0,0,0-.75-.3,1.05,1.05,0,0,0-.75.3,2.21,2.21,0,0,0-.54.81,5.45,5.45,0,0,0-.32,1.21,11,11,0,0,0,0,3,5.45,5.45,0,0,0,.32,1.21,2.21,2.21,0,0,0,.54.81A1.05,1.05,0,0,0,186.72,411.43Z" transform="translate(-59.17 -158.15)"/><path class="cls-3" d="M199.52,410.85a.2.2,0,0,1,.2,0,.16.16,0,0,1,0,.2,1.36,1.36,0,0,1-.17.24,1.5,1.5,0,0,1-.33.25,2.26,2.26,0,0,1-.49.2,2.84,2.84,0,0,1-.69.08,1.72,1.72,0,0,1-.92-.22,1.27,1.27,0,0,1-.52-.51c0-.05-.06-.07-.11-.06a.16.16,0,0,0-.11.05l-.16.15a2.53,2.53,0,0,1-.4.26,3.33,3.33,0,0,1-.62.25,2.59,2.59,0,0,1-.83.12,3.5,3.5,0,0,1-1.34-.23,2.46,2.46,0,0,1-.88-.58,2.09,2.09,0,0,1-.49-.8,2.77,2.77,0,0,1-.15-.89,2,2,0,0,1,.4-1.24,2.47,2.47,0,0,1,1-.79,2.94,2.94,0,0,1,.72-.19l.74-.13c.25,0,.49-.09.73-.15a2.54,2.54,0,0,0,.67-.31,1.23,1.23,0,0,0,.46-.58,2.09,2.09,0,0,0,.05-1.3,1.5,1.5,0,0,0-.21-.46,1.11,1.11,0,0,0-.33-.32.7.7,0,0,0-.4-.12.72.72,0,0,0-.56.2,1.43,1.43,0,0,0-.29.48c-.07.18-.13.38-.19.58a1.4,1.4,0,0,1-.29.52,1,1,0,0,1-.42.25,1.46,1.46,0,0,1-.49.09,1.18,1.18,0,0,1-.43-.08,1.07,1.07,0,0,1-.32-.22,1,1,0,0,1-.21-.33,1.23,1.23,0,0,1-.06-.39,1.3,1.3,0,0,1,.13-.56,1.33,1.33,0,0,1,.48-.5,2.91,2.91,0,0,1,.93-.36,6.22,6.22,0,0,1,1.49-.14,6.05,6.05,0,0,1,1.7.2,2.89,2.89,0,0,1,1.16.59,2.26,2.26,0,0,1,.64,1,3.73,3.73,0,0,1,.21,1.3c0,.58,0,1.12-.06,1.63s-.06,1-.07,1.36a5.88,5.88,0,0,0,0,1c0,.26.11.41.25.47a.41.41,0,0,0,.23,0Zm-3.12-4s0-.06,0-.07a.08.08,0,0,0-.09,0c0,.06-.09.11-.13.16l-.15.17-.35.34-.36.32-.36.28a2.5,2.5,0,0,0-.33.32,1.85,1.85,0,0,0-.34.59,1.91,1.91,0,0,0-.12.68,2.14,2.14,0,0,0,.07.49,1.42,1.42,0,0,0,.23.44,1,1,0,0,0,.37.31,1.1,1.1,0,0,0,.56.13.91.91,0,0,0,.52-.14,1.08,1.08,0,0,0,.32-.32,1.61,1.61,0,0,0,.16-.39,1.3,1.3,0,0,0,0-.3Z" transform="translate(-59.17 -158.15)"/><path class="cls-3" d="M210.84,411.41a.19.19,0,0,1,.12.17c0,.07-.06.1-.16.1h-4.9c-.1,0-.15,0-.16-.11s0-.12.13-.15a1.9,1.9,0,0,0,.28-.1,1.46,1.46,0,0,0,.24-.17.42.42,0,0,0,.12-.26.61.61,0,0,0-.08-.37,1.48,1.48,0,0,0-.16-.22l-.32-.4-.39-.49-.41-.49-.35-.42c-.1-.12-.18-.2-.22-.24a2.14,2.14,0,0,0-.28-.27.35.35,0,0,0-.22-.08.24.24,0,0,0-.22.09.7.7,0,0,0-.05.28v1.94a1,1,0,0,0,.16.6,1.09,1.09,0,0,0,.36.35,1.4,1.4,0,0,0,.39.19l.27.06a.14.14,0,0,1,.1.06.08.08,0,0,1,0,.08.1.1,0,0,1-.05.08.12.12,0,0,1-.11,0h-4.72a.15.15,0,0,1-.11,0,.22.22,0,0,1-.05-.08.09.09,0,0,1,0-.08.14.14,0,0,1,.1-.06l.26-.06a1.45,1.45,0,0,0,.4-.19,1.09,1.09,0,0,0,.36-.35,1,1,0,0,0,.16-.6V400.13a.14.14,0,0,0-.11-.14l-.13,0-.26-.06-.26-.06-.15,0q-.12,0-.12-.12c0-.06,0-.11.13-.13s.49-.13.76-.22.55-.2.82-.32.54-.24.8-.37.49-.28.7-.41a.2.2,0,0,1,.16-.05c.06,0,.09.05.09.14V407a.68.68,0,0,0,.07.35.27.27,0,0,0,.25.12.44.44,0,0,0,.37-.16c.13-.15.28-.33.45-.56s.35-.47.52-.72.34-.49.49-.73.28-.43.38-.58a.89.89,0,0,0,.15-.46.32.32,0,0,0-.12-.26.55.55,0,0,0-.24-.12l-.22-.05a.12.12,0,0,1-.1-.05.12.12,0,0,1,0-.17.12.12,0,0,1,.11,0h2.58a.16.16,0,0,1,.12,0,.12.12,0,0,1,0,.08.1.1,0,0,1,0,.09.11.11,0,0,1-.1.05l-.23.07a1.72,1.72,0,0,0-.38.17,4.51,4.51,0,0,0-.47.3,3,3,0,0,0-.5.45,2.27,2.27,0,0,0-.23.28c-.1.14-.2.29-.31.43l-.29.41a2.28,2.28,0,0,0-.14.22.2.2,0,0,0,0,.2,4.31,4.31,0,0,0,.3.4c.15.2.33.43.55.7l.7.86.73.87.65.75c.2.22.35.38.45.47a5.58,5.58,0,0,0,.46.39l.43.3.35.21Z" transform="translate(-59.17 -158.15)"/><path class="cls-3" d="M379.86,462.64a3.54,3.54,0,0,1,.28.87,5,5,0,0,1,.08.94,4.17,4.17,0,0,1-.13.93,3.63,3.63,0,0,1-.32.85,2.49,2.49,0,0,1-.62.75,3.75,3.75,0,0,1-.86.53,4.83,4.83,0,0,1-1.93.41h-.49a4.91,4.91,0,0,1-.53,0,5.54,5.54,0,0,1-.56-.11,2.76,2.76,0,0,1-.55-.19c-.06,0-.09,0-.11,0a.14.14,0,0,0,0,.06v3.75a1.16,1.16,0,0,0,.18.68,1.49,1.49,0,0,0,.42.41,1.52,1.52,0,0,0,.47.22l.34.07a.18.18,0,0,1,.12.07.12.12,0,0,1,0,.09.14.14,0,0,1-.05.09.17.17,0,0,1-.13,0h-5.75a.17.17,0,0,1-.13,0,.14.14,0,0,1-.05-.09.12.12,0,0,1,0-.09.18.18,0,0,1,.12-.07l.34-.07a1.52,1.52,0,0,0,.47-.22,1.49,1.49,0,0,0,.42-.41,1.16,1.16,0,0,0,.18-.68v-8.81a1.15,1.15,0,0,0-.18-.67,1.4,1.4,0,0,0-.42-.42,1.75,1.75,0,0,0-.47-.21l-.34-.08a.17.17,0,0,1-.12-.06.14.14,0,0,1,0-.1.14.14,0,0,1,.05-.09.17.17,0,0,1,.13,0h6.87a6.25,6.25,0,0,1,1,.1,4,4,0,0,1,.92.3,3.23,3.23,0,0,1,.86.59,2.53,2.53,0,0,1,.28.35A2.24,2.24,0,0,1,379.86,462.64Zm-4.69,4.58a1.8,1.8,0,0,0,.87-.2,1.62,1.62,0,0,0,.57-.59,2.78,2.78,0,0,0,.33-.91,7.33,7.33,0,0,0,.09-1.2c0-.38,0-.74,0-1.09a3.12,3.12,0,0,0-.19-.92,1.52,1.52,0,0,0-.48-.63,1.37,1.37,0,0,0-.86-.24,1.49,1.49,0,0,0-.68.14,1.13,1.13,0,0,0-.41.37,1.6,1.6,0,0,0-.21.54,3.18,3.18,0,0,0-.06.62v3a1.15,1.15,0,0,0,.29.87A1.12,1.12,0,0,0,375.17,467.22Z" transform="translate(-59.17 -158.15)"/><path class="cls-3" d="M385.75,464.72a1.93,1.93,0,0,1,.64.09,1.19,1.19,0,0,1,.43.25,1.1,1.1,0,0,1,.23.37,1.33,1.33,0,0,1,.07.45.85.85,0,0,1-.27.67,1.07,1.07,0,0,1-.73.24,1,1,0,0,1-.55-.12,1.64,1.64,0,0,1-.34-.28l-.26-.27a.39.39,0,0,0-.29-.13.62.62,0,0,0-.32.11.94.94,0,0,0-.33.39,3.07,3.07,0,0,0-.25.79,7.73,7.73,0,0,0-.09,1.31v3.11a1.15,1.15,0,0,0,.12.57.85.85,0,0,0,.28.31,1,1,0,0,0,.31.15l.22,0a.14.14,0,0,1,.1.06.09.09,0,0,1,0,.08.22.22,0,0,1-.05.08.16.16,0,0,1-.12,0h-4.22a.16.16,0,0,1-.12,0,.22.22,0,0,1-.05-.08.09.09,0,0,1,0-.08.14.14,0,0,1,.1-.06l.22,0a1,1,0,0,0,.31-.15.85.85,0,0,0,.28-.31,1.15,1.15,0,0,0,.12-.57v-5.08a.13.13,0,0,0-.1-.14l-.13,0-.26-.06-.26-.06-.15,0c-.08,0-.12-.06-.13-.12s0-.11.14-.13l.76-.22c.27-.09.54-.2.82-.32s.54-.24.8-.37.49-.28.69-.41a.28.28,0,0,1,.17-.05c.06,0,.09.05.09.14v1.28a2.31,2.31,0,0,1,.85-1A2.19,2.19,0,0,1,385.75,464.72Z" transform="translate(-59.17 -158.15)"/><path class="cls-3" d="M391.53,464.72a4.53,4.53,0,0,1,1.71.32,4.16,4.16,0,0,1,1.34.9,4.23,4.23,0,0,1,.87,1.35,4.38,4.38,0,0,1,.31,1.66,4.09,4.09,0,0,1-.34,1.67,4.49,4.49,0,0,1-.93,1.37,4.29,4.29,0,0,1-1.4.93,4.4,4.4,0,0,1-1.74.35,4.33,4.33,0,0,1-1.7-.33,4.05,4.05,0,0,1-1.34-.9,4.19,4.19,0,0,1-.87-1.34,4.38,4.38,0,0,1-.32-1.66A4.28,4.28,0,0,1,388.4,466a4.51,4.51,0,0,1,1.4-.93A4.38,4.38,0,0,1,391.53,464.72Zm-.09,8.07a1.05,1.05,0,0,0,.75-.3,2.34,2.34,0,0,0,.54-.81,5.47,5.47,0,0,0,.31-1.21,10,10,0,0,0,0-3,5.47,5.47,0,0,0-.31-1.21,2.34,2.34,0,0,0-.54-.81,1.05,1.05,0,0,0-.75-.3,1.07,1.07,0,0,0-.75.3,2.33,2.33,0,0,0-.53.81,5,5,0,0,0-.32,1.21,10,10,0,0,0,0,3,5,5,0,0,0,.32,1.21,2.33,2.33,0,0,0,.53.81A1.07,1.07,0,0,0,391.44,472.79Z" transform="translate(-59.17 -158.15)"/><path class="cls-3" d="M406.54,472.78a.17.17,0,0,1,.11.06.08.08,0,0,1,0,.08.1.1,0,0,1-.05.08.14.14,0,0,1-.11,0h-3.26a.25.25,0,0,1-.16,0,.17.17,0,0,1,0-.15v-.79A.08.08,0,0,0,403,472a.07.07,0,0,0-.08,0l-.27.31a2.63,2.63,0,0,1-.52.42,3.54,3.54,0,0,1-1.94.53,4,4,0,0,1-1.26-.19,3.08,3.08,0,0,1-1.58-1.25,4.1,4.1,0,0,1-.4-.88,5,5,0,0,1-.21-.91,6.82,6.82,0,0,1-.06-.87,6.18,6.18,0,0,1,.25-1.83,3.67,3.67,0,0,1,.75-1.41,3.27,3.27,0,0,1,1.25-.9,4.55,4.55,0,0,1,1.77-.31,7.05,7.05,0,0,1,1,.06,5.32,5.32,0,0,1,.68.16,1.94,1.94,0,0,1,.41.16l.15.08a.07.07,0,0,0,.08,0,.06.06,0,0,0,.05-.06v-3.65a.14.14,0,0,0-.11-.14l-.13,0-.26-.06-.27-.06-.14,0c-.08,0-.12-.06-.13-.12s0-.11.13-.13l.77-.22c.27-.09.54-.2.82-.32s.54-.24.8-.37.49-.28.69-.41a.28.28,0,0,1,.17,0c.06,0,.08,0,.08.14v11.95a1,1,0,0,0,.15.58,1.08,1.08,0,0,0,.33.34,1.18,1.18,0,0,0,.36.17ZM403,467.69a3,3,0,0,0,0-.5,3.41,3.41,0,0,0-.1-.54,2.44,2.44,0,0,0-.21-.53,1.87,1.87,0,0,0-.33-.45,1.56,1.56,0,0,0-.47-.32,1.49,1.49,0,0,0-.62-.12,1.55,1.55,0,0,0-.91.27,2,2,0,0,0-.61.74,3.88,3.88,0,0,0-.34,1.12,8.61,8.61,0,0,0-.11,1.39c0,.13,0,.31,0,.53a6.4,6.4,0,0,0,.05.73,4.32,4.32,0,0,0,.16.78,2.39,2.39,0,0,0,.31.71,1.87,1.87,0,0,0,.53.52,1.56,1.56,0,0,0,.8.2,1.85,1.85,0,0,0,1-.22,1.67,1.67,0,0,0,.57-.55,2,2,0,0,0,.26-.69,4.14,4.14,0,0,0,.07-.64Z" transform="translate(-59.17 -158.15)"/><path class="cls-3" d="M416.72,472.78a.17.17,0,0,1,.11.06.08.08,0,0,1,0,.08.16.16,0,0,1-.16.12h-3.26a.25.25,0,0,1-.16,0,.18.18,0,0,1-.06-.15v-.53a3.39,3.39,0,0,1-2.47.95,4,4,0,0,1-1.24-.17,2.41,2.41,0,0,1-.83-.43,1.85,1.85,0,0,1-.5-.62,2.74,2.74,0,0,1-.25-.73,4.8,4.8,0,0,1-.09-.75c0-.25,0-.48,0-.7v-3.52a1,1,0,0,0-.14-.58,1.34,1.34,0,0,0-.33-.34,1.18,1.18,0,0,0-.36-.17l-.25-.06a.12.12,0,0,1-.1-.05.12.12,0,0,1,0-.17.12.12,0,0,1,.11,0H410c.14,0,.21.08.21.23v5.27a5.85,5.85,0,0,0,.07.72,1.92,1.92,0,0,0,.22.65,1.2,1.2,0,0,0,.44.48,1.4,1.4,0,0,0,.76.17,1.38,1.38,0,0,0,.8-.21,1.41,1.41,0,0,0,.44-.53,2.4,2.4,0,0,0,.2-.72,6.51,6.51,0,0,0,0-.75v-3.9a1,1,0,0,0-.14-.58,1.34,1.34,0,0,0-.33-.34,1.18,1.18,0,0,0-.36-.17l-.25-.06a.12.12,0,0,1-.1-.05.12.12,0,0,1,0-.17.12.12,0,0,1,.11,0h3.26c.14,0,.21.08.21.23v6.46a1,1,0,0,0,.15.58,1,1,0,0,0,.33.34,1.18,1.18,0,0,0,.36.17Z" transform="translate(-59.17 -158.15)"/><path class="cls-3" d="M427.89,472.77c.09,0,.13.1.12.17s-.05.1-.15.1H423c-.1,0-.16,0-.16-.11s0-.12.12-.15a1.57,1.57,0,0,0,.28-.1.94.94,0,0,0,.25-.18.49.49,0,0,0,.12-.25.71.71,0,0,0-.09-.37,2.18,2.18,0,0,0-.15-.22l-.32-.4-.4-.49c-.14-.17-.27-.34-.41-.49s-.24-.3-.35-.42l-.21-.24-.28-.27a.38.38,0,0,0-.23-.08.22.22,0,0,0-.21.09.55.55,0,0,0-.06.28v1.94a1.07,1.07,0,0,0,.16.6,1.32,1.32,0,0,0,.36.35,1.6,1.6,0,0,0,.4.19l.26.06a.17.17,0,0,1,.11.06.12.12,0,0,1,0,.08.14.14,0,0,1-.05.08.15.15,0,0,1-.11,0h-4.72a.14.14,0,0,1-.11,0,.1.1,0,0,1-.05-.08.08.08,0,0,1,0-.08.17.17,0,0,1,.1-.06l.27-.06a1.6,1.6,0,0,0,.4-.19,1.32,1.32,0,0,0,.36-.35,1.07,1.07,0,0,0,.15-.6V461.49a.13.13,0,0,0-.1-.14l-.13,0-.26-.06-.27-.06-.15,0a.15.15,0,0,1-.12-.12c0-.06,0-.11.13-.13.24-.06.49-.13.76-.22s.55-.2.83-.32.54-.24.8-.37.49-.28.69-.41a.28.28,0,0,1,.17,0c.05,0,.08,0,.08.14v8.67a.67.67,0,0,0,.08.35.26.26,0,0,0,.25.12.46.46,0,0,0,.37-.16l.45-.56.52-.72.49-.72.37-.59a.83.83,0,0,0,.16-.46.36.36,0,0,0-.12-.26.58.58,0,0,0-.25-.12l-.21-.05a.14.14,0,0,1-.13-.14.22.22,0,0,1,.05-.08.16.16,0,0,1,.12,0h2.58a.14.14,0,0,1,.11,0,.09.09,0,0,1,0,.08.14.14,0,0,1-.13.14l-.24.07a2,2,0,0,0-.38.17,4.44,4.44,0,0,0-.46.3,3.43,3.43,0,0,0-.51.45,2.48,2.48,0,0,0-.22.28l-.32.43-.29.41-.13.22a.18.18,0,0,0,0,.2c0,.07.14.2.29.4l.55.7c.22.27.45.56.71.86l.73.87c.24.28.45.53.65.75a5.78,5.78,0,0,0,.44.47c.15.14.31.27.46.39l.44.3a2.93,2.93,0,0,0,.35.21Z" transform="translate(-59.17 -158.15)"/><path class="cls-3" d="M433,471.74c.1-.06.18-.05.23,0a.18.18,0,0,1,0,.21,2.6,2.6,0,0,1-.41.53,2.88,2.88,0,0,1-.56.41,2.61,2.61,0,0,1-.69.27,3.27,3.27,0,0,1-1.68,0,2,2,0,0,1-1.36-1.24,3.3,3.3,0,0,1-.22-1.32v-5a.07.07,0,0,0-.08-.08H428a1.31,1.31,0,0,1-.27,0s0-.06,0-.12a.4.4,0,0,1,.1-.25.3.3,0,0,1,.25-.13h.2c.05,0,.07,0,.07-.07v-2.15c0-.13.05-.21.16-.23l.48-.12.52-.18L430,462a4.3,4.3,0,0,0,.48-.26.19.19,0,0,1,.18,0,.18.18,0,0,1,.09.18v3s0,.06.07.06h1.69a.75.75,0,0,1,.27,0,.12.12,0,0,1,.05.11.38.38,0,0,1-.13.25.37.37,0,0,1-.28.13H430.8s-.06,0-.06.07v5.53a1,1,0,0,0,.08.43.9.9,0,0,0,.23.31.83.83,0,0,0,.32.2,1.19,1.19,0,0,0,.37.06,2.36,2.36,0,0,0,.72-.11C432.69,471.87,432.86,471.8,433,471.74Z" transform="translate(-59.17 -158.15)"/><path class="cls-3" d="M443.23,472.78a.14.14,0,0,1,.1.06.08.08,0,0,1,0,.08.1.1,0,0,1-.05.08.12.12,0,0,1-.11,0h-3.26a.24.24,0,0,1-.15,0,.18.18,0,0,1-.06-.15v-.53a3.4,3.4,0,0,1-2.48.95,3.92,3.92,0,0,1-1.23-.17,2.32,2.32,0,0,1-.83-.43,1.88,1.88,0,0,1-.51-.62,3.15,3.15,0,0,1-.25-.73,4.8,4.8,0,0,1-.09-.75c0-.25,0-.48,0-.7v-3.52a1,1,0,0,0-.15-.58,1.16,1.16,0,0,0-.32-.34,1.44,1.44,0,0,0-.36-.17l-.25-.06a.14.14,0,0,1-.11-.05.15.15,0,0,1,0-.09.14.14,0,0,1,.05-.08.15.15,0,0,1,.11,0h3.26c.15,0,.22.08.22.23v5.27a4.39,4.39,0,0,0,.07.72,1.91,1.91,0,0,0,.21.65,1.27,1.27,0,0,0,.44.48,1.43,1.43,0,0,0,.76.17,1.36,1.36,0,0,0,.8-.21,1.54,1.54,0,0,0,.45-.53,2.39,2.39,0,0,0,.19-.72,6.59,6.59,0,0,0,.05-.75v-3.9a1,1,0,0,0-.15-.58,1.16,1.16,0,0,0-.32-.34,1.44,1.44,0,0,0-.36-.17l-.25-.06a.14.14,0,0,1-.11-.05.15.15,0,0,1,0-.09.14.14,0,0,1,.05-.08.15.15,0,0,1,.11,0h3.26c.15,0,.22.08.22.23v6.46a1.11,1.11,0,0,0,.14.58,1.19,1.19,0,0,0,.33.34,1.18,1.18,0,0,0,.36.17Z" transform="translate(-59.17 -158.15)"/><path class="cls-3" d="M451.8,472.21a.19.19,0,0,1,.2.05.16.16,0,0,1,0,.2,1,1,0,0,1-.17.24,1.5,1.5,0,0,1-.33.25,2.26,2.26,0,0,1-.49.2,2.84,2.84,0,0,1-.69.08,1.74,1.74,0,0,1-.92-.22,1.27,1.27,0,0,1-.52-.51c0-.05-.06-.07-.1-.06a.17.17,0,0,0-.12.05,1.3,1.3,0,0,1-.16.15,2.53,2.53,0,0,1-.4.26,3.33,3.33,0,0,1-.62.25,2.57,2.57,0,0,1-.82.12,3.52,3.52,0,0,1-1.35-.23,2.46,2.46,0,0,1-.88-.58,2.09,2.09,0,0,1-.49-.8,2.77,2.77,0,0,1-.15-.89,2,2,0,0,1,.4-1.24,2.47,2.47,0,0,1,1-.79,3.49,3.49,0,0,1,.72-.2c.25,0,.5-.07.74-.12s.49-.09.73-.15a2.54,2.54,0,0,0,.67-.31,1.23,1.23,0,0,0,.46-.58,2,2,0,0,0,.13-.75,1.7,1.7,0,0,0-.08-.55,1.5,1.5,0,0,0-.21-.46,1,1,0,0,0-.33-.32.7.7,0,0,0-.4-.12.73.73,0,0,0-.56.2,1.43,1.43,0,0,0-.29.48c-.07.18-.13.38-.19.58a1.4,1.4,0,0,1-.29.52,1,1,0,0,1-.42.25,1.46,1.46,0,0,1-.49.09,1.18,1.18,0,0,1-.43-.08,1.21,1.21,0,0,1-.32-.22,1,1,0,0,1-.21-.33,1.23,1.23,0,0,1-.06-.39,1.3,1.3,0,0,1,.13-.56,1.33,1.33,0,0,1,.48-.5,2.88,2.88,0,0,1,.94-.36,7.63,7.63,0,0,1,3.19.06,2.91,2.91,0,0,1,1.15.59,2.31,2.31,0,0,1,.65,1,4,4,0,0,1,.2,1.3c0,.58,0,1.12-.06,1.63s-.06,1-.07,1.36a5.88,5.88,0,0,0,0,1c0,.26.11.41.25.47a.41.41,0,0,0,.23,0Zm-3.12-4s0-.06,0-.07a.08.08,0,0,0-.08,0l-.14.16a1.83,1.83,0,0,1-.15.17l-.35.34-.36.32-.36.28a3.34,3.34,0,0,0-.33.32,1.85,1.85,0,0,0-.34.59,1.91,1.91,0,0,0-.12.68,1.73,1.73,0,0,0,.08.49,1.22,1.22,0,0,0,.22.44,1.12,1.12,0,0,0,.37.31,1.1,1.1,0,0,0,.56.13.91.91,0,0,0,.52-.14,1.08,1.08,0,0,0,.32-.32,1.61,1.61,0,0,0,.16-.39,1.3,1.3,0,0,0,0-.3Z" transform="translate(-59.17 -158.15)"/><path class="cls-3" d="M463.12,472.77a.19.19,0,0,1,.12.17c0,.07-.06.1-.16.1h-4.89c-.11,0-.16,0-.17-.11s0-.12.13-.15a1.9,1.9,0,0,0,.28-.1.89.89,0,0,0,.24-.18.37.37,0,0,0,.12-.25.61.61,0,0,0-.08-.37,1.48,1.48,0,0,0-.16-.22l-.31-.4-.4-.49-.41-.49-.35-.42c-.1-.12-.18-.2-.22-.24a3.13,3.13,0,0,0-.28-.27.35.35,0,0,0-.22-.08.24.24,0,0,0-.22.09.7.7,0,0,0-.05.28v1.94a1,1,0,0,0,.16.6,1.09,1.09,0,0,0,.36.35,1.4,1.4,0,0,0,.39.19l.27.06a.14.14,0,0,1,.1.06.08.08,0,0,1,0,.08.1.1,0,0,1-.05.08.12.12,0,0,1-.11,0h-4.71a.16.16,0,0,1-.12,0,.22.22,0,0,1,0-.08.09.09,0,0,1,0-.08.14.14,0,0,1,.1-.06l.27-.06a1.55,1.55,0,0,0,.39-.19,1.09,1.09,0,0,0,.36-.35,1,1,0,0,0,.16-.6V461.49a.14.14,0,0,0-.11-.14l-.13,0-.26-.06-.26-.06-.15,0q-.12,0-.12-.12c0-.06,0-.11.13-.13s.49-.13.76-.22.55-.2.82-.32a8.43,8.43,0,0,0,.8-.37c.26-.14.49-.28.7-.41a.25.25,0,0,1,.16,0c.06,0,.09,0,.09.14v8.67a.68.68,0,0,0,.07.35.27.27,0,0,0,.25.12.44.44,0,0,0,.37-.16c.13-.15.28-.33.45-.56s.35-.47.52-.72.34-.49.49-.72l.38-.59a1,1,0,0,0,.16-.46.33.33,0,0,0-.13-.26.55.55,0,0,0-.24-.12l-.22-.05a.12.12,0,0,1-.1-.05.12.12,0,0,1,0-.17.12.12,0,0,1,.11,0h2.58a.16.16,0,0,1,.12,0,.12.12,0,0,1,0,.08.1.1,0,0,1,0,.09.11.11,0,0,1-.1.05l-.23.07a1.72,1.72,0,0,0-.38.17c-.14.08-.3.18-.47.3a3.38,3.38,0,0,0-.5.45,2.27,2.27,0,0,0-.23.28c-.1.14-.2.29-.31.43l-.29.41a2.28,2.28,0,0,0-.14.22.2.2,0,0,0,0,.2,4.31,4.31,0,0,0,.3.4l.55.7.7.86.74.87c.23.28.45.53.64.75s.35.38.45.47a5.58,5.58,0,0,0,.46.39l.43.3.36.21A1.52,1.52,0,0,0,463.12,472.77Z" transform="translate(-59.17 -158.15)"/><path class="cls-4" d="M222.75,384.37a71.77,71.77,0,0,0,38.81-20.9c5.55-5.83,10.52-12.32,18.26-15.36,7.43-2.91,15.71-2.81,23.52-1.84a53.07,53.07,0,0,1,12,2.54,21.93,21.93,0,0,1,9.3,6.87,72.09,72.09,0,0,1,6.35,9.93l7,12.14q6.88,12,13.79,24.05c4.16,7.24,8.48,14.45,13.9,20.84a54.14,54.14,0,0,0,17.71,14.17c7.36,3.5,15.45,4.28,23.49,4.33,2.15,0,4.31,0,6.46-.05.43,0,1.57-.66.61-.64-8.69.13-17.64.24-25.92-2.78-7.33-2.68-13.68-7.57-19-13.25-5.79-6.24-10.32-13.51-14.59-20.84-4.65-8-9.2-16-13.8-24.05l-7-12.14c-2-3.46-3.88-7-6.2-10.26a24.67,24.67,0,0,0-7.73-7.42,33.29,33.29,0,0,0-11-3.42c-7.47-1.26-15.23-1.88-22.72-.48a35.14,35.14,0,0,0-10,3.4,36.61,36.61,0,0,0-8.76,6.75c-2.82,2.85-5.38,5.94-8.2,8.78a68.65,68.65,0,0,1-30.26,17.7c-1.92.53-3.85,1-5.81,1.33-.6.11-1.26.79-.25.6Z" transform="translate(-59.17 -158.15)"/><path class="cls-5" d="M205.45,383.14c5.56-1.51,11.34-3.13,16-6.61,5.12-3.79,7.47-9.48,9.54-15.3,4.75-13.32,7.5-27.23,10-41.12,1.25-7.06,2.43-14.12,3.77-21.16,1.24-6.52,2.34-13.25,4.75-19.46A25.52,25.52,0,0,1,262,265.2a57.55,57.55,0,0,1,8.8-3.8,92.2,92.2,0,0,1,10.16-3.09,34.47,34.47,0,0,1,19.28.82,43.86,43.86,0,0,1,15.42,9.61c9.61,9,15.05,21.36,19.14,33.68,4.62,13.89,8.47,28.06,12.62,42.1s8,28.26,12.82,42.08c4.3,12.21,9.88,24.15,18.39,34a61.51,61.51,0,0,0,13.25,11.69,59.29,59.29,0,0,0,17.81,7.41c3.36.85,6.76,1.5,10.17,2.11.51.09,1.71-.7.87-.85-7.12-1.28-14.29-2.76-20.93-5.73A54.77,54.77,0,0,1,384.68,425C375.21,416,368.77,404.5,364,392.48c-5.36-13.53-9.05-27.72-13.18-41.66-4.25-14.36-8.39-28.77-12.78-43.1-3.84-12.47-8.44-25.26-17-35.32-7.45-8.74-18.06-15.54-29.79-16-6.91-.29-13.64,1.75-20.09,4-5.62,2-11.29,4.31-15.8,8.31s-7.19,9.81-8.83,15.69c-1.85,6.63-3,13.48-4.23,20.25-2.53,14.07-4.69,28.24-8.26,42.09A129.72,129.72,0,0,1,227.38,367a22.6,22.6,0,0,1-5.47,7.93,26.5,26.5,0,0,1-7.92,4.63,81.5,81.5,0,0,1-8.75,2.77c-.88.23-.67,1.05.21.81Z" transform="translate(-59.17 -158.15)"/><path class="cls-6" d="M197.6,381.91c16.34-9.76,17.73-30.57,19.72-47.48,2.4-20.35,6.9-40.37,11.12-60.4,2.11-10,4.16-20,5.85-30,.84-5,1.59-10.07,2.23-15.12.62-4.82,1.19-9.64,2.22-14.39,1.75-8.05,5-15.46,10.65-21.54a46,46,0,0,1,18.23-12,42.75,42.75,0,0,1,22.1-1.93c8.51,1.59,16.18,6,22.92,11.33A170.34,170.34,0,0,1,332.27,209c6.12,6.65,11.75,13.93,15.33,22.29,3.85,9,4.79,18.72,5.7,28.33l3,31.83c1.95,20.74,3.7,41.5,5.92,62.21,2,18.59,5,37.72,13.94,54.39,7.33,13.68,18.79,25.85,33.44,31.6a49.5,49.5,0,0,0,10.71,2.85c.34.05,1.67-.52.93-.63-16.27-2.47-29.9-13.37-39-26.64-10.54-15.32-14.9-33.84-17.36-52-1.33-9.84-2.17-19.74-3.1-29.62l-3-32.1-3-32.09c-.95-10-1.4-20.3-3.85-30.1-4.46-17.8-18-31.6-31.1-43.67-6.56-6-13.76-11.61-22.11-14.93a42.92,42.92,0,0,0-21.37-2.61c-13.88,1.78-27.19,9.79-34.45,21.87-4.73,7.88-6.19,17.08-7.35,26-1.32,10.19-2.89,20.31-4.83,30.4-3.91,20.28-8.78,40.37-12.22,60.74-1.71,10.13-2.64,20.33-4.07,30.5-1.28,9.07-3.51,18.29-9,25.84a30.09,30.09,0,0,1-8.92,8.31c-.63.38.82.27,1.12.09Z" transform="translate(-59.17 -158.15)"/><path class="cls-7" d="M343.42,386.44a408.32,408.32,0,0,0,74,8.41q10.53.22,21.07-.09c1.52-.05,2.33-1.87.34-1.81a405.33,405.33,0,0,1-73.17-4.53q-10.31-1.57-20.52-3.71a2.27,2.27,0,0,0-2,.55c-.41.44-.34,1,.31,1.18Z" transform="translate(-59.17 -158.15)"/><path class="cls-7" d="M427,385.09a56.84,56.84,0,0,1,14.93,8.7,1.9,1.9,0,0,0,1.94.08c.31-.14,1.28-.82.74-1.25a58.54,58.54,0,0,0-15.33-9,2.29,2.29,0,0,0-2.06.24c-.36.24-.9,1-.22,1.24Z" transform="translate(-59.17 -158.15)"/><path class="cls-7" d="M441.35,392.34a46.38,46.38,0,0,0-10.85,9.29c-.46.53.38.81.77.82a2.5,2.5,0,0,0,1.92-.78,42.91,42.91,0,0,1,9.95-8.51c.38-.23.87-.8.26-1.1a2.41,2.41,0,0,0-2,.28Z" transform="translate(-59.17 -158.15)"/><path class="cls-7" d="M474.85,396.37a.28.28,0,0,1,.2,0c.06,0,.08.11.05.22a.9.9,0,0,1-.23.41,2.08,2.08,0,0,1-.44.38,2.7,2.7,0,0,1-.62.27,2.43,2.43,0,0,1-.73.11,3.71,3.71,0,0,1-.67-.07,2.34,2.34,0,0,1-.63-.21,2.14,2.14,0,0,1-.54-.41,1.86,1.86,0,0,1-.41-.63,3.43,3.43,0,0,1-.21-.74q-.08-.42-.12-1c0-.46-.09-.86-.15-1.18a6,6,0,0,0-.2-.81,1.87,1.87,0,0,0-.24-.51,1,1,0,0,0-.26-.27.62.62,0,0,0-.27-.11l-.26,0a.5.5,0,0,0-.26.06.46.46,0,0,0-.17.14.82.82,0,0,0-.09.19,1.5,1.5,0,0,0,0,.2v3.41a1.16,1.16,0,0,0,.18.68,1.5,1.5,0,0,0,.41.42,1.67,1.67,0,0,0,.48.21l.34.08a.23.23,0,0,1,.12.06.12.12,0,0,1,0,.09.13.13,0,0,1,0,.09.2.2,0,0,1-.14,0h-5.74a.17.17,0,0,1-.13,0,.11.11,0,0,1,0-.09.09.09,0,0,1,0-.09.23.23,0,0,1,.12-.06l.35-.08a1.75,1.75,0,0,0,.47-.21,1.4,1.4,0,0,0,.42-.42,1.16,1.16,0,0,0,.18-.68V387a1.16,1.16,0,0,0-.18-.68,1.4,1.4,0,0,0-.42-.42,1.75,1.75,0,0,0-.47-.21l-.35-.08a.14.14,0,0,1-.12-.06.1.1,0,0,1,0-.1.14.14,0,0,1,0-.09.22.22,0,0,1,.13,0H470a.26.26,0,0,1,.14,0,.2.2,0,0,1,0,.09.13.13,0,0,1,0,.1.14.14,0,0,1-.12.06l-.34.08a1.67,1.67,0,0,0-.48.21,1.5,1.5,0,0,0-.41.42,1.16,1.16,0,0,0-.18.68v3.68a1,1,0,0,0,.07.42.29.29,0,0,0,.3.16.51.51,0,0,0,.25-.06.54.54,0,0,0,.21-.16,1.82,1.82,0,0,0,.2-.25l.2-.32c.05-.08.13-.21.24-.41s.25-.42.39-.67.31-.53.47-.82l.46-.84c.14-.27.27-.52.38-.75s.2-.4.26-.52a.61.61,0,0,0,0-.45.47.47,0,0,0-.21-.25.91.91,0,0,0-.33-.1l-.28-.05a.14.14,0,0,1-.12-.06.13.13,0,0,1,0-.1.2.2,0,0,1,.05-.09.26.26,0,0,1,.14,0h3.41a.22.22,0,0,1,.13,0,.14.14,0,0,1,.05.1.13.13,0,0,1,0,.1.17.17,0,0,1-.12,0l-.35.05a1.84,1.84,0,0,0-.44.14,2.19,2.19,0,0,0-.48.3,2,2,0,0,0-.47.54l-.41.62c-.16.27-.35.56-.54.87l-.61.95-.56.88-.41.66-.18.28c0,.05,0,.07,0,.09a.11.11,0,0,0,.08,0h.37a4.63,4.63,0,0,1,.74.07,2.9,2.9,0,0,1,.7.24,2.55,2.55,0,0,1,.61.42,2.65,2.65,0,0,1,.49.64,2.94,2.94,0,0,1,.26.85c.05.33.08.69.1,1.07s0,.76.07,1a2.15,2.15,0,0,0,.15.64.74.74,0,0,0,.22.29.84.84,0,0,0,.27.13,1,1,0,0,0,.29,0A.92.92,0,0,0,474.85,396.37Z" transform="translate(-59.17 -158.15)"/><path class="cls-7" d="M483.16,396.69a.18.18,0,0,1,.19,0,.16.16,0,0,1,0,.21,1.2,1.2,0,0,1-.17.23,1.1,1.1,0,0,1-.33.25,1.85,1.85,0,0,1-.49.2,2.42,2.42,0,0,1-.69.08,1.74,1.74,0,0,1-.92-.22,1.28,1.28,0,0,1-.52-.51.1.1,0,0,0-.1-.06.22.22,0,0,0-.12,0,1.3,1.3,0,0,1-.16.15,2.53,2.53,0,0,1-.4.26,3.31,3.31,0,0,1-.62.26,2.86,2.86,0,0,1-.82.11,3.52,3.52,0,0,1-1.35-.23,2.46,2.46,0,0,1-.88-.58,2,2,0,0,1-.49-.8,3,3,0,0,1-.14-.88,2,2,0,0,1,.4-1.25,2.46,2.46,0,0,1,1-.79,3.47,3.47,0,0,1,.72-.19l.74-.12.73-.16a2.26,2.26,0,0,0,.67-.31,1.19,1.19,0,0,0,.46-.58,2.21,2.21,0,0,0,.06-1.3,1.63,1.63,0,0,0-.22-.46,1.22,1.22,0,0,0-.32-.32.83.83,0,0,0-.4-.11.74.74,0,0,0-.57.19,1.66,1.66,0,0,0-.29.48c-.06.19-.13.38-.19.58a1.21,1.21,0,0,1-.29.52,1,1,0,0,1-.42.26,1.73,1.73,0,0,1-.49.08,1.18,1.18,0,0,1-.43-.08,1,1,0,0,1-.32-.22.83.83,0,0,1-.2-.32,1.09,1.09,0,0,1-.07-.4,1.23,1.23,0,0,1,.13-.55,1.25,1.25,0,0,1,.49-.51,2.91,2.91,0,0,1,.93-.36,6.13,6.13,0,0,1,1.48-.14,6.47,6.47,0,0,1,1.71.2,3,3,0,0,1,1.15.59,2.28,2.28,0,0,1,.65,1,4,4,0,0,1,.2,1.3c0,.58,0,1.13-.05,1.64s-.07,1-.08,1.35a5.88,5.88,0,0,0,0,1c0,.26.11.42.25.48a.53.53,0,0,0,.23,0Zm-3.13-4a.06.06,0,0,0-.12,0l-.13.15a1.2,1.2,0,0,1-.16.17l-.35.34-.36.32-.36.29c-.11.09-.22.2-.33.31a1.85,1.85,0,0,0-.34.59,1.91,1.91,0,0,0-.12.68,1.67,1.67,0,0,0,.08.49,1.14,1.14,0,0,0,.22.44,1.08,1.08,0,0,0,.38.32,1.15,1.15,0,0,0,.55.12.93.93,0,0,0,.84-.46A1.24,1.24,0,0,0,480,396a1.37,1.37,0,0,0,0-.3Z" transform="translate(-59.17 -158.15)"/><path class="cls-7" d="M489.2,396.21c.11-.06.19,0,.24,0a.16.16,0,0,1,0,.2,2.35,2.35,0,0,1-.41.53,2.58,2.58,0,0,1-.57.41,2.54,2.54,0,0,1-.68.27,3,3,0,0,1-.79.1,3.35,3.35,0,0,1-.89-.12,2,2,0,0,1-.79-.42,2.12,2.12,0,0,1-.58-.82,3.49,3.49,0,0,1-.22-1.32V390c0-.05,0-.07-.07-.07h-.23a.71.71,0,0,1-.27,0,.14.14,0,0,1-.05-.12.42.42,0,0,1,.11-.25.33.33,0,0,1,.25-.13h.2s.06,0,.06-.07v-2.15c0-.13.06-.21.17-.22s.31-.08.48-.13l.52-.18.52-.22a4.13,4.13,0,0,0,.47-.26.26.26,0,0,1,.19,0c.06,0,.08.09.08.18v3s0,.06.08.06h1.69a.64.64,0,0,1,.26,0s0,.06,0,.12a.35.35,0,0,1-.12.24.4.4,0,0,1-.28.14H487s-.07,0-.07.06v5.53a.94.94,0,0,0,.09.43,1.21,1.21,0,0,0,.22.32,1,1,0,0,0,.33.19,1.19,1.19,0,0,0,.37.06,2.36,2.36,0,0,0,.72-.11A5.45,5.45,0,0,0,489.2,396.21Z" transform="translate(-59.17 -158.15)"/><path class="cls-7" d="M497.72,396.69a.2.2,0,0,1,.2,0,.18.18,0,0,1,0,.21,1.2,1.2,0,0,1-.17.23,1.1,1.1,0,0,1-.33.25,1.72,1.72,0,0,1-.49.2,2.34,2.34,0,0,1-.69.08,1.77,1.77,0,0,1-.92-.22,1.28,1.28,0,0,1-.52-.51.1.1,0,0,0-.1-.06.19.19,0,0,0-.11,0l-.17.15a2.13,2.13,0,0,1-.4.26,3.19,3.19,0,0,1-.61.26,3,3,0,0,1-.83.11,3.56,3.56,0,0,1-1.35-.23,2.55,2.55,0,0,1-.88-.58,2,2,0,0,1-.48-.8,2.76,2.76,0,0,1-.15-.88,2,2,0,0,1,.4-1.25,2.43,2.43,0,0,1,1-.79,3.22,3.22,0,0,1,.71-.19l.74-.12.73-.16a2.15,2.15,0,0,0,.67-.31,1.13,1.13,0,0,0,.46-.58,2.21,2.21,0,0,0,.06-1.3,1.63,1.63,0,0,0-.22-.46,1.22,1.22,0,0,0-.32-.32.83.83,0,0,0-.4-.11.74.74,0,0,0-.57.19,1.44,1.44,0,0,0-.28.48c-.07.19-.14.38-.2.58a1.21,1.21,0,0,1-.29.52,1,1,0,0,1-.41.26,1.79,1.79,0,0,1-.49.08,1.19,1.19,0,0,1-.44-.08,1,1,0,0,1-.32-.22.83.83,0,0,1-.2-.32,1.09,1.09,0,0,1-.07-.4,1.12,1.12,0,0,1,.14-.55,1.22,1.22,0,0,1,.48-.51,2.91,2.91,0,0,1,.93-.36,6.13,6.13,0,0,1,1.48-.14,6.47,6.47,0,0,1,1.71.2,3,3,0,0,1,1.15.59,2.28,2.28,0,0,1,.65,1,4,4,0,0,1,.2,1.3c0,.58,0,1.13-.05,1.64s-.06,1-.08,1.35a7.24,7.24,0,0,0,0,1c0,.26.12.42.26.48a.46.46,0,0,0,.22,0Zm-3.13-4a.06.06,0,0,0-.12,0l-.13.15a1.2,1.2,0,0,1-.16.17c-.11.12-.23.23-.35.34l-.36.32-.36.29a3.11,3.11,0,0,0-.32.31,1.71,1.71,0,0,0-.35.59,1.9,1.9,0,0,0-.11.68,1.66,1.66,0,0,0,.07.49,1.3,1.3,0,0,0,.22.44,1.08,1.08,0,0,0,.38.32,1.15,1.15,0,0,0,.55.12.93.93,0,0,0,.84-.46,1.24,1.24,0,0,0,.16-.38,1.37,1.37,0,0,0,0-.3Z" transform="translate(-59.17 -158.15)"/><path class="cls-7" d="M502,396.06a1,1,0,0,0,.16.59,1.09,1.09,0,0,0,.36.35,1.4,1.4,0,0,0,.39.19,1.11,1.11,0,0,0,.27.06.14.14,0,0,1,.1.06.16.16,0,0,1,0,.09.35.35,0,0,1-.05.08.21.21,0,0,1-.12,0h-4.71a.16.16,0,0,1-.11,0s-.05-.05-.05-.08a.1.1,0,0,1,0-.09.14.14,0,0,1,.1-.06,1.11,1.11,0,0,0,.27-.06,1.4,1.4,0,0,0,.39-.19,1.09,1.09,0,0,0,.36-.35,1,1,0,0,0,.16-.59V386a.14.14,0,0,0-.11-.15l-.13,0-.26-.07-.26-.06-.15,0a.12.12,0,0,1-.12-.12c0-.06,0-.1.13-.13a7.63,7.63,0,0,0,.76-.22c.27-.09.55-.2.82-.31s.55-.25.81-.38.48-.27.69-.41a.25.25,0,0,1,.16-.05c.06,0,.09.05.09.14Z" transform="translate(-59.17 -158.15)"/><path class="cls-7" d="M507.25,396.1a1.11,1.11,0,0,0,.14.58,1.19,1.19,0,0,0,.33.34,1.18,1.18,0,0,0,.36.17.93.93,0,0,0,.25.06.14.14,0,0,1,.1.06.1.1,0,0,1,0,.09s0,.05,0,.08a.21.21,0,0,1-.12,0h-4.52a.2.2,0,0,1-.11,0,.18.18,0,0,1-.05-.08.15.15,0,0,1,0-.09.2.2,0,0,1,.11-.06.93.93,0,0,0,.25-.06,1.44,1.44,0,0,0,.36-.17,1.05,1.05,0,0,0,.32-.34,1,1,0,0,0,.15-.58v-5a.14.14,0,0,0-.11-.15l-.13,0-.26-.07-.26-.06-.15,0a.12.12,0,0,1-.12-.12c0-.06,0-.1.13-.13a7.63,7.63,0,0,0,.76-.22c.27-.09.55-.2.82-.31s.55-.25.8-.38.49-.27.7-.41a.25.25,0,0,1,.16-.05c.06,0,.09.05.09.14Zm.07-10.13a1.33,1.33,0,0,0-.76-.76,1.41,1.41,0,0,0-.59-.12,1.45,1.45,0,0,0-.59.12,1.49,1.49,0,0,0-.49.32,1.49,1.49,0,0,0-.43,1,1.3,1.3,0,0,0,.11.56,1.37,1.37,0,0,0,.3.45,1.31,1.31,0,0,0,.46.3,1.36,1.36,0,0,0,.58.11,1.73,1.73,0,0,0,.6-.11,2,2,0,0,0,.48-.31,1.47,1.47,0,0,0,.32-.46,1.39,1.39,0,0,0,.12-.57A1.46,1.46,0,0,0,507.32,386Z" transform="translate(-59.17 -158.15)"/><path class="cls-7" d="M515.88,395.43a.17.17,0,0,1,.18-.11c.07,0,.11.06.11.15v1.87c0,.12-.07.17-.19.17h-6.9c-.12,0-.19,0-.21-.1a.3.3,0,0,1,0-.24,3.07,3.07,0,0,0,.19-.31l.44-.73.62-1,.72-1.2c.24-.41.49-.82.74-1.23l.69-1.14.55-.92.34-.57a.06.06,0,0,0,0-.08.11.11,0,0,0-.08,0h-1a2.46,2.46,0,0,0-1,.19,2.51,2.51,0,0,0-.72.44,1.87,1.87,0,0,0-.45.5,3.18,3.18,0,0,0-.22.36q-.07.13-.18.12c-.07,0-.11-.07-.11-.16v-1.8c0-.11.06-.17.19-.17h6.34c.13,0,.21,0,.23.12a.34.34,0,0,1,0,.22,2.36,2.36,0,0,0-.19.3l-.44.73c-.18.29-.38.63-.61,1l-.71,1.19-.75,1.23-.68,1.14-.55.92-.35.58c-.05.08,0,.12.07.12h1.57a2.31,2.31,0,0,0,1-.2,2.77,2.77,0,0,0,.72-.45,2.28,2.28,0,0,0,.45-.52A4,4,0,0,0,515.88,395.43Z" transform="translate(-59.17 -158.15)"/><path class="cls-7" d="M524.67,396.69a.19.19,0,0,1,.2,0,.18.18,0,0,1,0,.21,1.34,1.34,0,0,1-.18.23,1,1,0,0,1-.32.25,1.8,1.8,0,0,1-.5.2,2.31,2.31,0,0,1-.68.08,1.78,1.78,0,0,1-.93-.22,1.25,1.25,0,0,1-.51-.51s-.06-.07-.11-.06a.22.22,0,0,0-.11,0l-.17.15a2,2,0,0,1-.39.26,3.31,3.31,0,0,1-.62.26,2.93,2.93,0,0,1-.83.11,3.5,3.5,0,0,1-1.34-.23,2.46,2.46,0,0,1-.88-.58,2,2,0,0,1-.49-.8,2.76,2.76,0,0,1-.15-.88,2,2,0,0,1,.4-1.25,2.56,2.56,0,0,1,1-.79,3.47,3.47,0,0,1,.72-.19l.74-.12.72-.16a2.15,2.15,0,0,0,.67-.31,1.15,1.15,0,0,0,.47-.58,2.27,2.27,0,0,0,.13-.75,2,2,0,0,0-.08-.55,1.62,1.62,0,0,0-.21-.46,1.25,1.25,0,0,0-.33-.32.77.77,0,0,0-.4-.11.74.74,0,0,0-.57.19,1.64,1.64,0,0,0-.28.48c-.07.19-.13.38-.19.58a1.32,1.32,0,0,1-.29.52,1.11,1.11,0,0,1-.42.26,1.73,1.73,0,0,1-.49.08,1.18,1.18,0,0,1-.43-.08,1,1,0,0,1-.33-.22,1.16,1.16,0,0,1-.2-.32,1.34,1.34,0,0,1-.07-.4,1.25,1.25,0,0,1,.14-.55,1.28,1.28,0,0,1,.48-.51,2.91,2.91,0,0,1,.93-.36,6.22,6.22,0,0,1,1.49-.14,6.45,6.45,0,0,1,1.7.2,3.09,3.09,0,0,1,1.16.59,2.26,2.26,0,0,1,.64,1,3.73,3.73,0,0,1,.21,1.3c0,.58,0,1.13-.06,1.64s-.06,1-.08,1.35a7,7,0,0,0,0,1c0,.26.11.42.25.48a.48.48,0,0,0,.22,0Zm-3.12-4a.08.08,0,0,0,0-.07s0,0-.08,0l-.13.15-.15.17-.35.34-.37.32-.35.29a2.42,2.42,0,0,0-.33.31,1.88,1.88,0,0,0-.35.59,2.15,2.15,0,0,0-.11.68,2.07,2.07,0,0,0,.07.49,1.51,1.51,0,0,0,.22.44,1.18,1.18,0,0,0,.38.32,1.22,1.22,0,0,0,.56.12.91.91,0,0,0,.52-.14,1,1,0,0,0,.32-.32,1.5,1.5,0,0,0,.15-.38,1.53,1.53,0,0,0,0-.3Z" transform="translate(-59.17 -158.15)"/><path class="cls-7" d="M530.72,396.21c.11-.06.19,0,.23,0a.16.16,0,0,1,0,.2,1.89,1.89,0,0,1-.41.53,2.31,2.31,0,0,1-.56.41,2.61,2.61,0,0,1-.69.27,2.88,2.88,0,0,1-.78.1,3.48,3.48,0,0,1-.9-.12,2.09,2.09,0,0,1-.79-.42,2.22,2.22,0,0,1-.57-.82,3.3,3.3,0,0,1-.22-1.32V390c0-.05,0-.07-.07-.07h-.24a.64.64,0,0,1-.26,0,.14.14,0,0,1-.05-.12.4.4,0,0,1,.1-.25.35.35,0,0,1,.26-.13h.2s.06,0,.06-.07v-2.15c0-.13.05-.21.16-.22s.31-.08.48-.13l.53-.18.52-.22a4.13,4.13,0,0,0,.47-.26.24.24,0,0,1,.18,0,.18.18,0,0,1,.09.18v3s0,.06.07.06h1.69a.67.67,0,0,1,.27,0,.14.14,0,0,1,0,.12.32.32,0,0,1-.13.24.37.37,0,0,1-.28.14h-1.61a.05.05,0,0,0-.06.06v5.53a.94.94,0,0,0,.09.43,1,1,0,0,0,.22.32.94.94,0,0,0,.32.19,1.26,1.26,0,0,0,.38.06,2.36,2.36,0,0,0,.72-.11Z" transform="translate(-59.17 -158.15)"/><path class="cls-7" d="M538.32,395.43a.17.17,0,0,1,.17-.11c.08,0,.11.06.11.15v1.87c0,.12-.06.17-.18.17h-6.9c-.12,0-.19,0-.21-.1a.26.26,0,0,1,0-.24s.08-.12.19-.31.25-.43.44-.73l.62-1,.71-1.2.75-1.23.68-1.14.55-.92c.16-.26.27-.45.35-.57a.06.06,0,0,0,0-.08l-.09,0h-1a2.54,2.54,0,0,0-1,.19,2.51,2.51,0,0,0-.72.44,2.29,2.29,0,0,0-.45.5,1.94,1.94,0,0,0-.21.36q-.08.13-.18.12c-.08,0-.11-.07-.11-.16v-1.8c0-.11.06-.17.19-.17h6.33c.14,0,.22,0,.23.12a.29.29,0,0,1,0,.22l-.18.3-.44.73c-.18.29-.38.63-.61,1l-.72,1.19-.74,1.23-.68,1.14-.56.92c-.16.26-.27.46-.34.58s0,.12.07.12h1.57a2.34,2.34,0,0,0,1-.2,2.77,2.77,0,0,0,.72-.45,2.92,2.92,0,0,0,.45-.52A4,4,0,0,0,538.32,395.43Z" transform="translate(-59.17 -158.15)"/><path class="cls-7" d="M547.11,396.69a.2.2,0,0,1,.2,0,.18.18,0,0,1,0,.21,2.15,2.15,0,0,1-.18.23,1.19,1.19,0,0,1-.32.25,1.93,1.93,0,0,1-.5.2,2.34,2.34,0,0,1-.69.08,1.77,1.77,0,0,1-.92-.22,1.28,1.28,0,0,1-.52-.51.1.1,0,0,0-.1-.06.19.19,0,0,0-.11,0l-.17.15a2,2,0,0,1-.39.26,3.62,3.62,0,0,1-.62.26,3,3,0,0,1-.83.11,3.5,3.5,0,0,1-1.34-.23,2.5,2.5,0,0,1-.89-.58,2.11,2.11,0,0,1-.48-.8,2.76,2.76,0,0,1-.15-.88,2,2,0,0,1,.4-1.25,2.49,2.49,0,0,1,1-.79,3.38,3.38,0,0,1,.71-.19l.75-.12.72-.16a2.15,2.15,0,0,0,.67-.31,1.13,1.13,0,0,0,.46-.58,2,2,0,0,0,.06-1.3,1.4,1.4,0,0,0-.22-.46,1.22,1.22,0,0,0-.32-.32.8.8,0,0,0-.4-.11.74.74,0,0,0-.57.19,1.64,1.64,0,0,0-.28.48c-.07.19-.14.38-.2.58a1.31,1.31,0,0,1-.28.52,1.11,1.11,0,0,1-.42.26,1.79,1.79,0,0,1-.49.08,1.14,1.14,0,0,1-.43-.08,1,1,0,0,1-.33-.22.83.83,0,0,1-.2-.32,1.09,1.09,0,0,1-.07-.4,1.25,1.25,0,0,1,.14-.55,1.28,1.28,0,0,1,.48-.51,2.91,2.91,0,0,1,.93-.36,6.13,6.13,0,0,1,1.48-.14,6.47,6.47,0,0,1,1.71.2,3,3,0,0,1,1.15.59,2.28,2.28,0,0,1,.65,1,4,4,0,0,1,.2,1.3c0,.58,0,1.13-.05,1.64s-.06,1-.08,1.35a7.24,7.24,0,0,0,0,1c0,.26.12.42.26.48a.48.48,0,0,0,.22,0Zm-3.12-4a.08.08,0,0,0,0-.07.07.07,0,0,0-.08,0l-.13.15a1.2,1.2,0,0,1-.16.17c-.11.12-.23.23-.35.34l-.36.32-.35.29a2.42,2.42,0,0,0-.33.31,1.88,1.88,0,0,0-.35.59,2.15,2.15,0,0,0-.11.68,1.66,1.66,0,0,0,.07.49,1.3,1.3,0,0,0,.22.44,1.1,1.1,0,0,0,.93.44.93.93,0,0,0,.84-.46,1.24,1.24,0,0,0,.16-.38,1.53,1.53,0,0,0,0-.3Z" transform="translate(-59.17 -158.15)"/><path class="cls-7" d="M551.44,396.1a1.11,1.11,0,0,0,.14.58,1.19,1.19,0,0,0,.33.34,1.18,1.18,0,0,0,.36.17.93.93,0,0,0,.25.06.14.14,0,0,1,.1.06.1.1,0,0,1,0,.09s0,.05,0,.08a.16.16,0,0,1-.11,0H548a.2.2,0,0,1-.11,0,.18.18,0,0,1-.05-.08.15.15,0,0,1,0-.09.2.2,0,0,1,.11-.06.93.93,0,0,0,.25-.06,1.44,1.44,0,0,0,.36-.17,1.05,1.05,0,0,0,.32-.34,1,1,0,0,0,.15-.58v-5a.14.14,0,0,0-.11-.15l-.13,0-.26-.07-.26-.06-.15,0a.12.12,0,0,1-.12-.12c0-.06,0-.1.13-.13a7.63,7.63,0,0,0,.76-.22c.27-.09.55-.2.82-.31s.55-.25.8-.38.49-.27.7-.41a.24.24,0,0,1,.16-.05c.06,0,.09.05.09.14Zm.07-10.13a1.33,1.33,0,0,0-.76-.76,1.41,1.41,0,0,0-.59-.12,1.45,1.45,0,0,0-.59.12,1.49,1.49,0,0,0-.49.32,1.38,1.38,0,0,0-.43,1,1.3,1.3,0,0,0,.11.56,1.37,1.37,0,0,0,.3.45,1.31,1.31,0,0,0,.46.3,1.36,1.36,0,0,0,.58.11,1.73,1.73,0,0,0,.6-.11,2,2,0,0,0,.48-.31,1.65,1.65,0,0,0,.32-.46,1.39,1.39,0,0,0,.12-.57A1.46,1.46,0,0,0,551.51,386Z" transform="translate(-59.17 -158.15)"/><path class="cls-7" d="M556.56,396.06a1,1,0,0,0,.16.59,1.09,1.09,0,0,0,.36.35,1.4,1.4,0,0,0,.39.19,1.11,1.11,0,0,0,.27.06.14.14,0,0,1,.1.06.1.1,0,0,1,0,.09s0,.05-.05.08a.16.16,0,0,1-.11,0H553a.21.21,0,0,1-.12,0,.35.35,0,0,1,0-.08.16.16,0,0,1,0-.09.14.14,0,0,1,.1-.06,1.11,1.11,0,0,0,.27-.06,1.55,1.55,0,0,0,.39-.19,1.09,1.09,0,0,0,.36-.35,1,1,0,0,0,.16-.59V386a.14.14,0,0,0-.11-.15l-.13,0-.26-.07-.26-.06-.15,0a.12.12,0,0,1-.12-.12c0-.06,0-.1.13-.13a7.63,7.63,0,0,0,.76-.22c.27-.09.55-.2.82-.31s.55-.25.8-.38.49-.27.7-.41a.25.25,0,0,1,.16-.05c.06,0,.09.05.09.14Z" transform="translate(-59.17 -158.15)"/><path class="cls-7" d="M560.92,392.74c-.1,0-.15.05-.15.16a7.09,7.09,0,0,0,.16,1.57,3,3,0,0,0,.48,1.08,1.77,1.77,0,0,0,.77.61,2.59,2.59,0,0,0,1.07.2,3.28,3.28,0,0,0,1.47-.33,3.36,3.36,0,0,0,.44-.24l.26-.16c.08,0,.15,0,.19,0s0,.13,0,.23a1.89,1.89,0,0,1-.12.22,2.78,2.78,0,0,1-.27.36,3.77,3.77,0,0,1-.45.43,3.65,3.65,0,0,1-.65.42,4.2,4.2,0,0,1-.85.31,4.8,4.8,0,0,1-2.71-.17,3.28,3.28,0,0,1-1.24-.82,3.7,3.7,0,0,1-.8-1.31,5.06,5.06,0,0,1-.29-1.75,4.81,4.81,0,0,1,.35-1.88,4.23,4.23,0,0,1,.92-1.37,3.88,3.88,0,0,1,1.29-.84,3.78,3.78,0,0,1,1.47-.29,3.57,3.57,0,0,1,1.23.19,3.19,3.19,0,0,1,.93.51,2.83,2.83,0,0,1,.65.69,4,4,0,0,1,.41.76,3.18,3.18,0,0,1,.22.71,2.48,2.48,0,0,1,.07.53.15.15,0,0,1-.06.13.35.35,0,0,1-.16,0Zm-.1-.59c0,.08,0,.12.1.12h.56l.47,0,.48,0H563a.6.6,0,0,0,.3-.13.46.46,0,0,0,.16-.41,3.69,3.69,0,0,0-.07-.6,3,3,0,0,0-.23-.65,1.85,1.85,0,0,0-.4-.51.86.86,0,0,0-.6-.22.78.78,0,0,0-.48.15,1.35,1.35,0,0,0-.36.39,2.6,2.6,0,0,0-.25.53c-.06.19-.12.38-.16.56s-.07.35-.09.5S560.82,392.07,560.82,392.15Z" transform="translate(-59.17 -158.15)"/><path class="cls-7" d="M574.35,396.69a.19.19,0,0,1,.2,0,.18.18,0,0,1,0,.21,2.15,2.15,0,0,1-.18.23,1,1,0,0,1-.32.25,1.93,1.93,0,0,1-.5.2,2.31,2.31,0,0,1-.68.08,1.78,1.78,0,0,1-.93-.22,1.25,1.25,0,0,1-.51-.51s-.06-.07-.11-.06a.22.22,0,0,0-.11,0l-.17.15a2,2,0,0,1-.39.26,3.31,3.31,0,0,1-.62.26,2.93,2.93,0,0,1-.83.11,3.5,3.5,0,0,1-1.34-.23,2.37,2.37,0,0,1-.88-.58,2,2,0,0,1-.49-.8,2.76,2.76,0,0,1-.15-.88,2,2,0,0,1,.4-1.25,2.56,2.56,0,0,1,1-.79,3.47,3.47,0,0,1,.72-.19l.74-.12.72-.16a2.15,2.15,0,0,0,.67-.31,1.15,1.15,0,0,0,.47-.58,2.27,2.27,0,0,0,.13-.75,2,2,0,0,0-.08-.55,1.62,1.62,0,0,0-.21-.46,1.25,1.25,0,0,0-.33-.32.77.77,0,0,0-.4-.11.74.74,0,0,0-.57.19,1.64,1.64,0,0,0-.28.48c-.07.19-.13.38-.19.58a1.32,1.32,0,0,1-.29.52,1.11,1.11,0,0,1-.42.26,1.73,1.73,0,0,1-.49.08,1.14,1.14,0,0,1-.43-.08.92.92,0,0,1-.53-.54,1.34,1.34,0,0,1-.07-.4,1.25,1.25,0,0,1,.14-.55,1.28,1.28,0,0,1,.48-.51,2.91,2.91,0,0,1,.93-.36,6.22,6.22,0,0,1,1.49-.14,6.45,6.45,0,0,1,1.7.2,3,3,0,0,1,1.15.59,2.19,2.19,0,0,1,.65,1,3.73,3.73,0,0,1,.21,1.3c0,.58,0,1.13-.06,1.64s-.06,1-.08,1.35a7,7,0,0,0,0,1c0,.26.11.42.25.48a.48.48,0,0,0,.22,0Zm-3.12-4a.08.08,0,0,0-.05-.07s0,0-.08,0l-.13.15-.15.17-.36.34-.36.32-.35.29a2.42,2.42,0,0,0-.33.31,1.88,1.88,0,0,0-.35.59,2.15,2.15,0,0,0-.11.68,2.07,2.07,0,0,0,.07.49,1.51,1.51,0,0,0,.22.44,1.18,1.18,0,0,0,.38.32,1.22,1.22,0,0,0,.56.12.91.91,0,0,0,.52-.14,1,1,0,0,0,.32-.32,1.5,1.5,0,0,0,.15-.38,1.53,1.53,0,0,0,.05-.3Z" transform="translate(-59.17 -158.15)"/><path class="cls-7" d="M580.71,389.19a1.91,1.91,0,0,1,.63.09,1.35,1.35,0,0,1,.43.25,1,1,0,0,1,.23.37,1.33,1.33,0,0,1,.07.45.85.85,0,0,1-.27.67,1,1,0,0,1-.73.25,1,1,0,0,1-.55-.13,1.35,1.35,0,0,1-.34-.27l-.26-.28a.38.38,0,0,0-.29-.12.6.6,0,0,0-.32.1.94.94,0,0,0-.33.39,2.86,2.86,0,0,0-.24.79,6.7,6.7,0,0,0-.1,1.31v3.11a1.15,1.15,0,0,0,.12.57.85.85,0,0,0,.28.31.74.74,0,0,0,.31.15.91.91,0,0,0,.22.05.2.2,0,0,1,.11.06.15.15,0,0,1,0,.09.18.18,0,0,1-.05.08.2.2,0,0,1-.11,0h-4.23a.21.21,0,0,1-.12,0,.35.35,0,0,1-.05-.08.16.16,0,0,1,0-.09.14.14,0,0,1,.1-.06,1.07,1.07,0,0,0,.23-.05.8.8,0,0,0,.31-.15.93.93,0,0,0,.27-.31,1,1,0,0,0,.13-.57V391.1a.14.14,0,0,0-.11-.15l-.13,0-.26-.07-.26-.06-.15,0a.12.12,0,0,1-.12-.12c0-.06,0-.1.13-.13s.48-.13.76-.22.54-.2.82-.31.54-.25.8-.38a7,7,0,0,0,.69-.41.28.28,0,0,1,.17-.05c.06,0,.09.05.09.14v1.28a2.31,2.31,0,0,1,.85-1A2.22,2.22,0,0,1,580.71,389.19Z" transform="translate(-59.17 -158.15)"/><path class="cls-7" d="M584.8,392.74c-.09,0-.14.05-.14.16a6.54,6.54,0,0,0,.16,1.57,3,3,0,0,0,.47,1.08,1.85,1.85,0,0,0,.78.61,2.52,2.52,0,0,0,1.07.2,3.37,3.37,0,0,0,1.47-.33,4.17,4.17,0,0,0,.44-.24l.25-.16a.18.18,0,0,1,.2,0c0,.06,0,.13,0,.23l-.12.22c-.07.1-.16.22-.28.36a3.77,3.77,0,0,1-.45.43,3.55,3.55,0,0,1-.64.42,4.3,4.3,0,0,1-.86.31,4.77,4.77,0,0,1-2.7-.17,3.32,3.32,0,0,1-1.25-.82,3.85,3.85,0,0,1-.8-1.31,5.06,5.06,0,0,1-.28-1.75,4.81,4.81,0,0,1,.35-1.88,4.08,4.08,0,0,1,.92-1.37,4,4,0,0,1,1.28-.84,3.81,3.81,0,0,1,1.47-.29,3.63,3.63,0,0,1,1.24.19,3.19,3.19,0,0,1,.93.51,2.78,2.78,0,0,1,.64.69,4.11,4.11,0,0,1,.42.76,3.8,3.8,0,0,1,.22.71,3.15,3.15,0,0,1,.06.53.15.15,0,0,1-.06.13.33.33,0,0,1-.15,0Zm-.1-.59c0,.08,0,.12.11.12h.55l.48,0,.48,0h.6a.63.63,0,0,0,.31-.13.49.49,0,0,0,.15-.41,2.84,2.84,0,0,0-.07-.6,2.52,2.52,0,0,0-.23-.65,1.68,1.68,0,0,0-.4-.51.83.83,0,0,0-.59-.22.81.81,0,0,0-.49.15,1.32,1.32,0,0,0-.35.39,2.6,2.6,0,0,0-.25.53,4.33,4.33,0,0,0-.16.56,3.68,3.68,0,0,0-.1.5C584.72,392,584.71,392.07,584.7,392.15Z" transform="translate(-59.17 -158.15)"/><path class="cls-7" d="M600.83,397.24c.08.05.13.1.12.17s-.05.1-.16.1H595.9c-.1,0-.16,0-.16-.1s0-.13.12-.16a1.9,1.9,0,0,0,.28-.1.74.74,0,0,0,.24-.17.5.5,0,0,0,.13-.26.73.73,0,0,0-.09-.37,2.36,2.36,0,0,0-.16-.22l-.31-.39-.4-.49-.41-.5-.35-.41-.21-.25-.28-.27a.38.38,0,0,0-.23-.08c-.11,0-.18,0-.21.1a.49.49,0,0,0-.06.27v1.95a1,1,0,0,0,.16.59,1.09,1.09,0,0,0,.36.35,1.55,1.55,0,0,0,.39.19,1.11,1.11,0,0,0,.27.06.14.14,0,0,1,.1.06.16.16,0,0,1,0,.09.35.35,0,0,1-.05.08.21.21,0,0,1-.12,0h-4.71a.16.16,0,0,1-.11,0s0-.05,0-.08a.1.1,0,0,1,0-.09.14.14,0,0,1,.1-.06,1.11,1.11,0,0,0,.27-.06,1.4,1.4,0,0,0,.39-.19,1.09,1.09,0,0,0,.36-.35,1,1,0,0,0,.16-.59V386a.14.14,0,0,0-.11-.15l-.13,0-.25-.07-.27-.06-.15,0a.12.12,0,0,1-.12-.12c0-.06,0-.1.13-.13a6.93,6.93,0,0,0,.76-.22c.27-.09.55-.2.82-.31s.55-.25.81-.38.48-.27.69-.41a.26.26,0,0,1,.17-.05s.08.05.08.14v8.67a.8.8,0,0,0,.07.35.28.28,0,0,0,.26.12.44.44,0,0,0,.36-.16,6.77,6.77,0,0,0,.45-.56c.18-.23.35-.46.53-.71l.49-.73.37-.59a.9.9,0,0,0,.16-.46.38.38,0,0,0-.12-.26.64.64,0,0,0-.25-.12l-.21,0a.17.17,0,0,1-.11-.06.15.15,0,0,1,0-.09.18.18,0,0,1,.05-.08.2.2,0,0,1,.11,0h2.59a.2.2,0,0,1,.11,0,.11.11,0,0,1,0,.09.16.16,0,0,1,0,.09.23.23,0,0,1-.11.05.85.85,0,0,0-.23.06,2.84,2.84,0,0,0-.38.17c-.14.08-.3.18-.47.3a4.11,4.11,0,0,0-.5.46,1.79,1.79,0,0,0-.22.28c-.11.13-.21.28-.32.43l-.29.41a1.13,1.13,0,0,0-.13.21.18.18,0,0,0,0,.21l.29.39.55.7.7.86.74.88.65.74c.19.22.34.38.44.48s.3.26.46.38.3.22.44.3l.35.22A1.76,1.76,0,0,0,600.83,397.24Z" transform="translate(-59.17 -158.15)"/><path class="cls-7" d="M604,396.1a1,1,0,0,0,.15.58,1.05,1.05,0,0,0,.32.34,1.34,1.34,0,0,0,.37.17.81.81,0,0,0,.24.06.17.17,0,0,1,.11.06.15.15,0,0,1,0,.09.18.18,0,0,1,0,.08.2.2,0,0,1-.11,0h-4.52a.16.16,0,0,1-.11,0s0-.05,0-.08a.1.1,0,0,1,0-.09.14.14,0,0,1,.1-.06.93.93,0,0,0,.25-.06,1.18,1.18,0,0,0,.36-.17,1.19,1.19,0,0,0,.33-.34,1.11,1.11,0,0,0,.14-.58v-5a.14.14,0,0,0-.1-.15l-.14,0-.25-.07-.27-.06-.15,0a.14.14,0,0,1-.12-.12c0-.06,0-.1.13-.13a6.93,6.93,0,0,0,.76-.22c.28-.09.55-.2.83-.31l.8-.38a7,7,0,0,0,.69-.41.26.26,0,0,1,.17-.05s.08.05.08.14ZM604,386a1.33,1.33,0,0,0-.76-.76,1.38,1.38,0,0,0-.59-.12,1.48,1.48,0,0,0-.59.12,1.47,1.47,0,0,0-.92,1.34,1.47,1.47,0,0,0,.11.56,1.37,1.37,0,0,0,.3.45,1.31,1.31,0,0,0,.46.3,1.4,1.4,0,0,0,.58.11,1.64,1.64,0,0,0,.6-.11,2,2,0,0,0,.48-.31,1.5,1.5,0,0,0,.33-.46,1.56,1.56,0,0,0,.11-.57A1.29,1.29,0,0,0,604,386Z" transform="translate(-59.17 -158.15)"/><path class="cls-7" d="M615.52,397.25a.14.14,0,0,1,.1.06.1.1,0,0,1,0,.09s0,.05,0,.08a.16.16,0,0,1-.11,0H611a.2.2,0,0,1-.11,0,.18.18,0,0,1-.05-.08.15.15,0,0,1,0-.09.2.2,0,0,1,.11-.06.93.93,0,0,0,.25-.06,1.44,1.44,0,0,0,.36-.17,1.05,1.05,0,0,0,.32-.34,1,1,0,0,0,.15-.58v-3.88q0-.37-.06-.78a2.2,2.2,0,0,0-.21-.73,1.33,1.33,0,0,0-.46-.54,1.38,1.38,0,0,0-.8-.21,1.35,1.35,0,0,0-.81.21,1.31,1.31,0,0,0-.43.51,2.08,2.08,0,0,0-.17.65c0,.24,0,.44,0,.62v4.15a1.11,1.11,0,0,0,.14.58,1.19,1.19,0,0,0,.33.34,1.18,1.18,0,0,0,.36.17.93.93,0,0,0,.25.06.14.14,0,0,1,.1.06.1.1,0,0,1,0,.09s0,.05,0,.08a.16.16,0,0,1-.11,0h-4.52a.2.2,0,0,1-.11,0,.18.18,0,0,1-.05-.08.15.15,0,0,1,0-.09.2.2,0,0,1,.11-.06.93.93,0,0,0,.25-.06,1.44,1.44,0,0,0,.36-.17,1.05,1.05,0,0,0,.32-.34,1,1,0,0,0,.15-.58v-5a.14.14,0,0,0-.11-.15l-.13,0-.26-.07-.26-.06-.15,0a.12.12,0,0,1-.12-.12c0-.06,0-.1.13-.13a7.63,7.63,0,0,0,.76-.22c.27-.09.55-.2.82-.31s.54-.25.8-.38.49-.27.7-.41a.25.25,0,0,1,.16-.05c.06,0,.09.05.09.14v.77a4,4,0,0,1,.43-.33,3.4,3.4,0,0,1,.54-.27,3.92,3.92,0,0,1,.68-.19,4.18,4.18,0,0,1,.82-.07,4,4,0,0,1,1.24.16,2.6,2.6,0,0,1,.83.43,2,2,0,0,1,.5.62,2.87,2.87,0,0,1,.25.73,3.84,3.84,0,0,1,.09.75c0,.25,0,.49,0,.7v3.52a1.11,1.11,0,0,0,.14.58,1.19,1.19,0,0,0,.33.34,1.18,1.18,0,0,0,.36.17A.93.93,0,0,0,615.52,397.25Z" transform="translate(-59.17 -158.15)"/><path class="cls-8" d="M333.82,303.2l51.58,3.61c17.29,1.21,34.58,2.56,51.88,3.57a284.27,284.27,0,0,0,29.19.46c.56,0,1.62-.18,1.92-.76s-.24-.77-.76-.75c-17.26.75-34.52-.78-51.73-2l-52-3.63-29-2c-1-.07-3.1,1.38-1.16,1.51Z" transform="translate(-59.17 -158.15)"/><path class="cls-8" d="M460.32,303.13a17.49,17.49,0,0,0,5.28,7.12,1.31,1.31,0,0,0,.75.13,3.63,3.63,0,0,0,1.13-.25c.21-.08,1.28-.55.84-.91a16.7,16.7,0,0,1-5.1-6.87c-.19-.48-1.24-.23-1.59-.13a3.18,3.18,0,0,0-1,.43c-.13.09-.41.29-.33.48Z" transform="translate(-59.17 -158.15)"/><path class="cls-8" d="M466.48,310.32c-.08.16-.17.32-.26.47l-.13.21c-.17.29.15-.21,0,.07s-.39.57-.6.84a10.13,10.13,0,0,1-.67.8c-.12.13-.24.27-.37.4l-.17.17c-.24.24.21-.19,0,0a14.23,14.23,0,0,1-1.62,1.28l-.25.17s-.29.17-.09.06l-.09.05-.26.15c-.32.17-.64.34-1,.49-.52.23-1.13,1-.68,1.53a1.68,1.68,0,0,0,2,.23,15.12,15.12,0,0,0,7-6.6c.34-.63-.3-1.2-.89-1.26a1.91,1.91,0,0,0-1.89.9Z" transform="translate(-59.17 -158.15)"/><path class="cls-8" d="M498.61,314.81a.21.21,0,0,1,.19,0c.07,0,.09.1.06.22a1.06,1.06,0,0,1-.23.41,2.12,2.12,0,0,1-.45.37,2.26,2.26,0,0,1-.61.27,2.5,2.5,0,0,1-.74.11,3.68,3.68,0,0,1-.66-.06,2.77,2.77,0,0,1-.63-.22,2.13,2.13,0,0,1-.55-.41,2,2,0,0,1-.41-.63,3,3,0,0,1-.2-.74q-.08-.42-.12-1c0-.46-.09-.85-.15-1.18a6,6,0,0,0-.2-.81,1.79,1.79,0,0,0-.24-.5,1,1,0,0,0-.27-.28.62.62,0,0,0-.27-.11,1.14,1.14,0,0,0-.26,0,.49.49,0,0,0-.25,0,.47.47,0,0,0-.17.14.72.72,0,0,0-.09.2.68.68,0,0,0,0,.19v3.41a1.22,1.22,0,0,0,.18.69,1.49,1.49,0,0,0,.42.41,1.75,1.75,0,0,0,.47.21l.35.08a.23.23,0,0,1,.12.06.12.12,0,0,1,0,.1.14.14,0,0,1,0,.09.22.22,0,0,1-.13,0H488a.26.26,0,0,1-.14,0,.2.2,0,0,1,0-.09.13.13,0,0,1,0-.1.23.23,0,0,1,.12-.06l.34-.08a1.51,1.51,0,0,0,.47-.21,1.49,1.49,0,0,0,.42-.41,1.22,1.22,0,0,0,.18-.69v-8.8a1.19,1.19,0,0,0-.18-.68,1.36,1.36,0,0,0-.42-.41,1.51,1.51,0,0,0-.47-.21c-.15-.05-.27-.07-.34-.09a.17.17,0,0,1-.12,0,.16.16,0,0,1,0-.1.13.13,0,0,1,0-.09.2.2,0,0,1,.14,0h5.74a.17.17,0,0,1,.13,0,.11.11,0,0,1,0,.09s0,.06,0,.1a.17.17,0,0,1-.12,0l-.35.09a1.75,1.75,0,0,0-.47.21,1.36,1.36,0,0,0-.42.41,1.19,1.19,0,0,0-.18.68v3.68a1,1,0,0,0,.08.42.29.29,0,0,0,.29.17.55.55,0,0,0,.26-.06,1.46,1.46,0,0,0,.21-.16,1.64,1.64,0,0,0,.19-.25c.07-.1.13-.21.21-.33s.13-.21.24-.41l.39-.67.46-.81c.17-.29.32-.57.46-.85s.28-.52.39-.74.2-.4.25-.53a.58.58,0,0,0,.05-.45.42.42,0,0,0-.21-.24.92.92,0,0,0-.33-.11l-.28-.05a.14.14,0,0,1-.12,0,.16.16,0,0,1,0-.1.11.11,0,0,1,.05-.09.2.2,0,0,1,.14,0h3.41a.17.17,0,0,1,.13,0,.12.12,0,0,1,.05.09.17.17,0,0,1,0,.1.17.17,0,0,1-.13,0l-.34.05a1.71,1.71,0,0,0-.44.14,2.4,2.4,0,0,0-.49.3,2.1,2.1,0,0,0-.46.54c-.11.15-.24.36-.41.63l-.55.86-.6.95-.56.88-.42.66a1.65,1.65,0,0,0-.17.29s0,.07,0,.08.05,0,.09,0h.37a3.78,3.78,0,0,1,.74.07,2.87,2.87,0,0,1,.7.23,2.51,2.51,0,0,1,.61.43,2.41,2.41,0,0,1,.49.63,2.67,2.67,0,0,1,.25.85c.05.34.09.69.11,1.07s0,.76.07,1a2.31,2.31,0,0,0,.15.65.69.69,0,0,0,.21.28.79.79,0,0,0,.28.13.88.88,0,0,0,.28,0A1,1,0,0,0,498.61,314.81Z" transform="translate(-59.17 -158.15)"/><path class="cls-8" d="M506.91,315.13a.2.2,0,0,1,.2.05.16.16,0,0,1,0,.2,1,1,0,0,1-.18.23,1.24,1.24,0,0,1-.32.26,2.28,2.28,0,0,1-.49.19,2.4,2.4,0,0,1-.69.09,1.78,1.78,0,0,1-.93-.23,1.23,1.23,0,0,1-.51-.5.12.12,0,0,0-.11-.07.24.24,0,0,0-.11.06l-.17.15a2.61,2.61,0,0,1-.39.26,4.19,4.19,0,0,1-.62.25,2.93,2.93,0,0,1-.83.11,3.51,3.51,0,0,1-1.34-.22,2.59,2.59,0,0,1-.88-.58,2.13,2.13,0,0,1-.49-.81,2.71,2.71,0,0,1-.15-.88,2,2,0,0,1,.4-1.24,2.49,2.49,0,0,1,1-.8,3.47,3.47,0,0,1,.72-.19l.74-.12c.25,0,.49-.1.72-.16a2,2,0,0,0,.68-.31,1.19,1.19,0,0,0,.46-.58,2.26,2.26,0,0,0,.13-.74,2.1,2.1,0,0,0-.08-.56,1.62,1.62,0,0,0-.21-.46,1.07,1.07,0,0,0-.33-.31.7.7,0,0,0-.4-.12.74.74,0,0,0-.57.2,1.47,1.47,0,0,0-.28.47c-.07.19-.13.38-.19.58a1.26,1.26,0,0,1-.29.52,1,1,0,0,1-.42.26,1.44,1.44,0,0,1-.49.08,1,1,0,0,1-.43-.08.8.8,0,0,1-.32-.22,1,1,0,0,1-.21-.32,1.16,1.16,0,0,1,.07-.95,1.26,1.26,0,0,1,.48-.5,2.9,2.9,0,0,1,.93-.37,6.79,6.79,0,0,1,1.49-.14,6.45,6.45,0,0,1,1.7.2,3.25,3.25,0,0,1,1.16.59,2.26,2.26,0,0,1,.64,1,3.77,3.77,0,0,1,.21,1.3c0,.58,0,1.13-.06,1.64s-.06,1-.07,1.35a6,6,0,0,0,0,1c0,.25.11.41.25.47a.53.53,0,0,0,.23,0Zm-3.12-4a.08.08,0,0,0,0-.07.08.08,0,0,0-.09,0l-.13.15-.15.17-.35.34-.36.32-.36.29a3.26,3.26,0,0,0-.33.31,2.09,2.09,0,0,0-.35.59,2.2,2.2,0,0,0-.11.68,2,2,0,0,0,.07.49,1.4,1.4,0,0,0,.22.44,1.18,1.18,0,0,0,.38.32,1.22,1.22,0,0,0,.56.12.91.91,0,0,0,.52-.13,1,1,0,0,0,.32-.33,1.8,1.8,0,0,0,.16-.38,2.51,2.51,0,0,0,0-.3Z" transform="translate(-59.17 -158.15)"/><path class="cls-8" d="M513,314.65c.11,0,.19,0,.23,0a.17.17,0,0,1,0,.21,2,2,0,0,1-.41.52,2.65,2.65,0,0,1-.56.42,3.54,3.54,0,0,1-.69.27,3.33,3.33,0,0,1-.78.09,3.48,3.48,0,0,1-.9-.12,1.93,1.93,0,0,1-.79-.41,2.4,2.4,0,0,1-.57-.82,3.37,3.37,0,0,1-.22-1.32v-5.06c0-.05,0-.07-.07-.07H508a.64.64,0,0,1-.26,0,.14.14,0,0,1,0-.12.38.38,0,0,1,.1-.24.32.32,0,0,1,.26-.13h.2s.06,0,.06-.08v-2.15c0-.13.05-.2.16-.22l.48-.12.53-.18.52-.23c.17-.08.33-.17.47-.25a.19.19,0,0,1,.19,0c.05,0,.08.08.08.18v3a.06.06,0,0,0,.07.07h1.69a1.16,1.16,0,0,1,.27,0,.14.14,0,0,1,0,.12.36.36,0,0,1-.13.25.39.39,0,0,1-.28.13h-1.61a.05.05,0,0,0-.06.06V314a.93.93,0,0,0,.09.42.91.91,0,0,0,.22.32.8.8,0,0,0,.32.19,1.27,1.27,0,0,0,.38.07,2.09,2.09,0,0,0,.72-.12A3.08,3.08,0,0,0,513,314.65Z" transform="translate(-59.17 -158.15)"/><path class="cls-8" d="M521.47,315.13a.2.2,0,0,1,.2.05.16.16,0,0,1,0,.2,1,1,0,0,1-.17.23,1.52,1.52,0,0,1-.33.26,2.28,2.28,0,0,1-.49.19,2.4,2.4,0,0,1-.69.09,1.74,1.74,0,0,1-.92-.23,1.2,1.2,0,0,1-.52-.5c0-.05-.06-.07-.1-.07a.23.23,0,0,0-.12.06l-.16.15a3.51,3.51,0,0,1-.4.26,4.19,4.19,0,0,1-.62.25,2.91,2.91,0,0,1-.82.11A3.53,3.53,0,0,1,515,316a2.59,2.59,0,0,1-.88-.58,2.13,2.13,0,0,1-.49-.81,2.71,2.71,0,0,1-.15-.88,2,2,0,0,1,.4-1.24,2.49,2.49,0,0,1,1-.8,3.47,3.47,0,0,1,.72-.19l.74-.12c.25,0,.49-.1.73-.16a2,2,0,0,0,.67-.31,1.19,1.19,0,0,0,.46-.58,2,2,0,0,0,.13-.74,2.1,2.1,0,0,0-.08-.56,1.62,1.62,0,0,0-.21-.46,1.07,1.07,0,0,0-.33-.31.7.7,0,0,0-.4-.12.72.72,0,0,0-.56.2,1.49,1.49,0,0,0-.29.47c-.07.19-.13.38-.19.58a1.26,1.26,0,0,1-.29.52,1,1,0,0,1-.42.26,1.44,1.44,0,0,1-.49.08,1,1,0,0,1-.43-.08.8.8,0,0,1-.32-.22,1,1,0,0,1-.21-.32,1.22,1.22,0,0,1,.55-1.45,2.9,2.9,0,0,1,.93-.37,6.79,6.79,0,0,1,1.49-.14,6.53,6.53,0,0,1,1.71.2,3.2,3.2,0,0,1,1.15.59,2.38,2.38,0,0,1,.65,1,4,4,0,0,1,.2,1.3c0,.58,0,1.13-.06,1.64s-.06,1-.07,1.35a6,6,0,0,0,0,1c0,.25.11.41.25.47a.53.53,0,0,0,.23,0Zm-3.12-4a.06.06,0,0,0-.12,0l-.14.15a1.07,1.07,0,0,1-.15.17c-.12.12-.23.24-.35.34l-.36.32-.36.29a3.26,3.26,0,0,0-.33.31,1.85,1.85,0,0,0-.34.59,2,2,0,0,0-.12.68,1.62,1.62,0,0,0,.08.49,1.07,1.07,0,0,0,.22.44,1,1,0,0,0,.37.32,1.22,1.22,0,0,0,.56.12.91.91,0,0,0,.52-.13,1,1,0,0,0,.32-.33,1.4,1.4,0,0,0,.16-.38,1.37,1.37,0,0,0,0-.3Z" transform="translate(-59.17 -158.15)"/><path class="cls-8" d="M525.77,314.5a1.05,1.05,0,0,0,.15.59,1.4,1.4,0,0,0,.37.36,1.36,1.36,0,0,0,.39.18,1.11,1.11,0,0,0,.27.06l.1.06a.12.12,0,0,1,0,.17.16.16,0,0,1-.11,0h-4.72a.21.21,0,0,1-.11,0,.14.14,0,0,1-.05-.08.15.15,0,0,1,0-.09l.11-.06a1.07,1.07,0,0,0,.26-.06,1.55,1.55,0,0,0,.4-.18,1.37,1.37,0,0,0,.36-.36,1.05,1.05,0,0,0,.16-.59V304.41a.13.13,0,0,0-.11-.14l-.13,0-.26-.06-.26-.07-.15,0c-.08,0-.12-.06-.12-.13s0-.1.13-.13a6.1,6.1,0,0,0,.76-.22c.27-.09.55-.19.82-.31s.54-.24.8-.38a6.47,6.47,0,0,0,.7-.41.2.2,0,0,1,.16,0c.06,0,.09.05.09.13Z" transform="translate(-59.17 -158.15)"/><path class="cls-8" d="M531,314.54a1,1,0,0,0,.15.58,1.23,1.23,0,0,0,.33.35,1.47,1.47,0,0,0,.36.17l.24.05.11.06a.12.12,0,0,1,0,.17.18.18,0,0,1-.11,0h-4.52a.18.18,0,0,1-.11,0,.14.14,0,0,1,0-.08.1.1,0,0,1,0-.09l.11-.06.24-.05a1.47,1.47,0,0,0,.36-.17,1.23,1.23,0,0,0,.33-.35,1,1,0,0,0,.15-.58v-5a.13.13,0,0,0-.11-.14l-.13,0-.26-.06-.27-.07-.14,0a.15.15,0,0,1-.13-.13c0-.06,0-.1.14-.13a6.1,6.1,0,0,0,.76-.22c.27-.09.54-.19.82-.31s.54-.24.8-.38a5.47,5.47,0,0,0,.69-.41.27.27,0,0,1,.17,0c.06,0,.08.05.08.13Zm.08-10.13a1.66,1.66,0,0,0-.3-.46,1.59,1.59,0,0,0-.46-.3,1.44,1.44,0,0,0-.59-.11,1.73,1.73,0,0,0-.6.11,1.75,1.75,0,0,0-.48.32,1.52,1.52,0,0,0-.32.46,1.38,1.38,0,0,0-.12.56,1.47,1.47,0,0,0,.11.56,1.34,1.34,0,0,0,.31.45,1.27,1.27,0,0,0,.45.3,1.4,1.4,0,0,0,.58.12,1.58,1.58,0,0,0,1.08-.43,1.39,1.39,0,0,0,.33-.46,1.34,1.34,0,0,0,.12-.56A1.47,1.47,0,0,0,531.08,304.41Z" transform="translate(-59.17 -158.15)"/><path class="cls-8" d="M539.64,313.88a.17.17,0,0,1,.17-.12c.08,0,.11.06.11.15v1.88c0,.11-.06.17-.18.17h-6.9c-.12,0-.19,0-.21-.11a.27.27,0,0,1,0-.24s.08-.12.19-.31.25-.43.44-.73l.62-1,.71-1.2.75-1.23.68-1.14c.21-.35.4-.65.55-.92s.27-.45.35-.56,0-.07,0-.09l-.09,0h-1a2.54,2.54,0,0,0-1,.19,2.63,2.63,0,0,0-1.17.94,2.33,2.33,0,0,0-.21.36q-.07.13-.18.12c-.08,0-.11-.06-.11-.15V308c0-.12.06-.17.19-.17h6.33c.14,0,.22,0,.23.11a.29.29,0,0,1,0,.22l-.18.31-.44.72-.61,1-.72,1.19c-.24.41-.49.82-.74,1.23l-.68,1.14-.56.92-.34.58c-.05.08,0,.13.07.13h1.57a2.49,2.49,0,0,0,1-.2,2.79,2.79,0,0,0,.72-.46,2.92,2.92,0,0,0,.45-.52A4.19,4.19,0,0,0,539.64,313.88Z" transform="translate(-59.17 -158.15)"/><path class="cls-8" d="M548.43,315.13a.2.2,0,0,1,.2.05.16.16,0,0,1,0,.2,1.47,1.47,0,0,1-.18.23,1.44,1.44,0,0,1-.32.26,2.38,2.38,0,0,1-.5.19,2.31,2.31,0,0,1-.69.09,1.77,1.77,0,0,1-.92-.23,1.26,1.26,0,0,1-.52-.5.1.1,0,0,0-.1-.07.24.24,0,0,0-.11.06s-.08.06-.17.15a2.61,2.61,0,0,1-.39.26,4.69,4.69,0,0,1-.62.25,3,3,0,0,1-.83.11A3.51,3.51,0,0,1,542,316a2.64,2.64,0,0,1-.89-.58,2.23,2.23,0,0,1-.48-.81,2.71,2.71,0,0,1-.15-.88,2,2,0,0,1,.4-1.24,2.43,2.43,0,0,1,1-.8,3.38,3.38,0,0,1,.71-.19l.75-.12c.24,0,.48-.1.72-.16a1.94,1.94,0,0,0,.67-.31,1.13,1.13,0,0,0,.46-.58,2,2,0,0,0,.14-.74,2.1,2.1,0,0,0-.08-.56,1.4,1.4,0,0,0-.22-.46,1,1,0,0,0-.32-.31.72.72,0,0,0-.4-.12.74.74,0,0,0-.57.2,1.47,1.47,0,0,0-.28.47c-.07.19-.14.38-.2.58a1.24,1.24,0,0,1-.28.52,1,1,0,0,1-.42.26,1.48,1.48,0,0,1-.49.08,1,1,0,0,1-.43-.08.83.83,0,0,1-.33-.22.83.83,0,0,1-.2-.32,1,1,0,0,1-.07-.39,1.29,1.29,0,0,1,.14-.56,1.26,1.26,0,0,1,.48-.5,2.9,2.9,0,0,1,.93-.37,6.69,6.69,0,0,1,1.48-.14,6.47,6.47,0,0,1,1.71.2,3.11,3.11,0,0,1,1.15.59,2.28,2.28,0,0,1,.65,1,3.78,3.78,0,0,1,.2,1.3c0,.58,0,1.13,0,1.64s-.06,1-.08,1.35a7.4,7.4,0,0,0,0,1,.54.54,0,0,0,.26.47.48.48,0,0,0,.22,0Zm-3.12-4a.08.08,0,0,0,0-.07.07.07,0,0,0-.08,0l-.13.15a1.2,1.2,0,0,1-.16.17,3.73,3.73,0,0,1-.35.34l-.36.32-.35.29a3.26,3.26,0,0,0-.33.31,1.88,1.88,0,0,0-.35.59,2.2,2.2,0,0,0-.11.68,1.61,1.61,0,0,0,.07.49,1.21,1.21,0,0,0,.22.44,1.1,1.1,0,0,0,.93.44,1,1,0,0,0,.53-.13,1,1,0,0,0,.31-.33,1.14,1.14,0,0,0,.16-.38,1.53,1.53,0,0,0,0-.3Z" transform="translate(-59.17 -158.15)"/><path class="cls-8" d="M554.48,314.65c.1,0,.18,0,.23,0a.18.18,0,0,1,0,.21,2.24,2.24,0,0,1-.41.52,2.65,2.65,0,0,1-.56.42,3.54,3.54,0,0,1-.69.27,3.43,3.43,0,0,1-1.68,0,1.87,1.87,0,0,1-.79-.41,2.4,2.4,0,0,1-.57-.82,3.37,3.37,0,0,1-.22-1.32v-5.06a.06.06,0,0,0-.07-.07h-.24a.64.64,0,0,1-.26,0s-.05-.06-.05-.12a.38.38,0,0,1,.1-.24.3.3,0,0,1,.26-.13h.19s.07,0,.07-.08v-2.15c0-.13.05-.2.16-.22l.48-.12a5.34,5.34,0,0,0,.52-.18l.52-.23c.18-.08.33-.17.48-.25a.17.17,0,0,1,.18,0q.09,0,.09.18v3a.06.06,0,0,0,.07.07H554a1.23,1.23,0,0,1,.27,0,.14.14,0,0,1,0,.12.46.46,0,0,1-.41.38h-1.61a.05.05,0,0,0-.06.06V314a1.08,1.08,0,0,0,.08.42.94.94,0,0,0,.23.32.8.8,0,0,0,.32.19,1.22,1.22,0,0,0,.38.07,2.18,2.18,0,0,0,.72-.12A3.08,3.08,0,0,0,554.48,314.65Z" transform="translate(-59.17 -158.15)"/><path class="cls-8" d="M562.07,313.88a.19.19,0,0,1,.18-.12c.07,0,.11.06.11.15v1.88c0,.11-.06.17-.19.17h-6.89c-.12,0-.19,0-.22-.11a.31.31,0,0,1,0-.24l.18-.31.44-.73c.19-.3.39-.64.62-1s.47-.79.72-1.2l.74-1.23.69-1.14.55-.92.34-.56s0-.07,0-.09a.11.11,0,0,0-.08,0h-1a2.6,2.6,0,0,0-1.75.63,2.54,2.54,0,0,0-.45.5c-.11.16-.18.29-.22.36a.17.17,0,0,1-.18.12c-.07,0-.1-.06-.1-.15V308c0-.12.06-.17.18-.17h6.34c.14,0,.21,0,.23.11a.34.34,0,0,1,0,.22l-.19.31-.43.72c-.18.3-.39.64-.61,1l-.72,1.19c-.25.41-.5.82-.74,1.23l-.69,1.14-.55.92c-.16.27-.27.46-.35.58s0,.13.08.13h1.56a2.54,2.54,0,0,0,1-.2,3.18,3.18,0,0,0,.72-.46,2.92,2.92,0,0,0,.45-.52A3.53,3.53,0,0,0,562.07,313.88Z" transform="translate(-59.17 -158.15)"/><path class="cls-8" d="M570.87,315.13a.18.18,0,0,1,.19.05.15.15,0,0,1,0,.2,1,1,0,0,1-.17.23,1.31,1.31,0,0,1-.33.26,2.28,2.28,0,0,1-.49.19,2.4,2.4,0,0,1-.69.09,1.74,1.74,0,0,1-.92-.23,1.26,1.26,0,0,1-.52-.5.1.1,0,0,0-.1-.07.23.23,0,0,0-.12.06s-.07.06-.16.15a3.51,3.51,0,0,1-.4.26,4.19,4.19,0,0,1-.62.25,2.86,2.86,0,0,1-.82.11,3.53,3.53,0,0,1-1.35-.22,2.59,2.59,0,0,1-.88-.58,2.13,2.13,0,0,1-.49-.81,3,3,0,0,1-.14-.88,2,2,0,0,1,.4-1.24,2.4,2.4,0,0,1,1-.8,3.47,3.47,0,0,1,.72-.19l.74-.12c.25,0,.49-.1.73-.16a2,2,0,0,0,.67-.31,1.19,1.19,0,0,0,.46-.58,2,2,0,0,0,.13-.74,2.1,2.1,0,0,0-.07-.56,1.63,1.63,0,0,0-.22-.46,1,1,0,0,0-.32-.31.83.83,0,0,0-1,.08,1.49,1.49,0,0,0-.29.47c-.06.19-.13.38-.19.58a1.16,1.16,0,0,1-.29.52.94.94,0,0,1-.42.26,1.44,1.44,0,0,1-.49.08,1,1,0,0,1-.43-.08.87.87,0,0,1-.32-.22.83.83,0,0,1-.2-.32,1,1,0,0,1-.07-.39,1.2,1.2,0,0,1,.61-1.06,3.07,3.07,0,0,1,.94-.37,6.69,6.69,0,0,1,1.48-.14,6.47,6.47,0,0,1,1.71.2,3.2,3.2,0,0,1,1.15.59,2.28,2.28,0,0,1,.65,1,4,4,0,0,1,.2,1.3c0,.58,0,1.13-.05,1.64s-.07,1-.08,1.35a6,6,0,0,0,0,1c0,.25.11.41.25.47a.53.53,0,0,0,.23,0Zm-3.13-4a.06.06,0,0,0-.12,0l-.13.15a1.2,1.2,0,0,1-.16.17c-.12.12-.23.24-.35.34l-.36.32-.36.29-.33.31a1.85,1.85,0,0,0-.34.59,2,2,0,0,0-.12.68,1.62,1.62,0,0,0,.08.49,1.22,1.22,0,0,0,.6.76,1.15,1.15,0,0,0,.55.12,1,1,0,0,0,.53-.13,1,1,0,0,0,.31-.33,1.14,1.14,0,0,0,.16-.38,1.37,1.37,0,0,0,0-.3Z" transform="translate(-59.17 -158.15)"/><path class="cls-8" d="M575.19,314.54a1,1,0,0,0,.15.58,1.11,1.11,0,0,0,.33.35,1.47,1.47,0,0,0,.36.17l.24.05.11.06a.1.1,0,0,1,0,.09.14.14,0,0,1,0,.08.18.18,0,0,1-.11,0h-4.52a.18.18,0,0,1-.11,0,.12.12,0,0,1,0-.17l.1-.06.25-.05a1.47,1.47,0,0,0,.36-.17,1.23,1.23,0,0,0,.33-.35,1,1,0,0,0,.14-.58v-5c0-.08,0-.13-.1-.14l-.13,0-.26-.06-.27-.07-.14,0a.15.15,0,0,1-.13-.13c0-.06,0-.1.14-.13a6.1,6.1,0,0,0,.76-.22c.27-.09.54-.19.82-.31s.54-.24.8-.38a5.47,5.47,0,0,0,.69-.41.27.27,0,0,1,.17,0c.06,0,.08.05.08.13Zm.08-10.13A1.49,1.49,0,0,0,575,304a1.42,1.42,0,0,0-.45-.3,1.44,1.44,0,0,0-.59-.11,1.73,1.73,0,0,0-.6.11,1.75,1.75,0,0,0-.48.32,1.52,1.52,0,0,0-.32.46,1.38,1.38,0,0,0-.12.56,1.47,1.47,0,0,0,.11.56,1.31,1.31,0,0,0,.3.45,1.54,1.54,0,0,0,1,.42,1.46,1.46,0,0,0,.6-.12,1.59,1.59,0,0,0,.48-.31,1.39,1.39,0,0,0,.33-.46,1.34,1.34,0,0,0,.12-.56A1.47,1.47,0,0,0,575.27,304.41Z" transform="translate(-59.17 -158.15)"/><path class="cls-8" d="M580.32,314.5a1.05,1.05,0,0,0,.15.59,1.31,1.31,0,0,0,.76.54,1.11,1.11,0,0,0,.27.06l.1.06a.12.12,0,0,1,0,.17.18.18,0,0,1-.11,0h-4.72a.21.21,0,0,1-.11,0,.14.14,0,0,1,0-.08.15.15,0,0,1,0-.09l.11-.06a1.18,1.18,0,0,0,.26-.06,1.31,1.31,0,0,0,.76-.54,1.05,1.05,0,0,0,.16-.59V304.41a.13.13,0,0,0-.11-.14l-.13,0-.26-.06-.26-.07-.15,0c-.08,0-.12-.06-.12-.13s0-.1.13-.13a6.1,6.1,0,0,0,.76-.22c.27-.09.54-.19.82-.31s.54-.24.8-.38a5.47,5.47,0,0,0,.69-.41.22.22,0,0,1,.17,0c.06,0,.09.05.09.13Z" transform="translate(-59.17 -158.15)"/><path class="cls-8" d="M584.67,311.19c-.09,0-.14.05-.14.15a6.48,6.48,0,0,0,.16,1.57,3.17,3.17,0,0,0,.47,1.08,2,2,0,0,0,.78.62,2.73,2.73,0,0,0,1.07.19,3.46,3.46,0,0,0,.83-.09,4.64,4.64,0,0,0,.64-.23,3.27,3.27,0,0,0,.44-.25,1.32,1.32,0,0,1,.25-.15.16.16,0,0,1,.2,0s0,.13,0,.23l-.12.21a2.38,2.38,0,0,1-.28.36,3.11,3.11,0,0,1-.45.43,3.55,3.55,0,0,1-.64.42,3.85,3.85,0,0,1-.85.31,4.9,4.9,0,0,1-2.71-.16,3.47,3.47,0,0,1-1.25-.83,3.75,3.75,0,0,1-.8-1.31A5.06,5.06,0,0,1,582,312a4.85,4.85,0,0,1,.35-1.88,4.34,4.34,0,0,1,.92-1.37,4,4,0,0,1,4-.94,3.19,3.19,0,0,1,.93.51,3.51,3.51,0,0,1,.65.69,5.18,5.18,0,0,1,.41.76,3.8,3.8,0,0,1,.22.71,3.26,3.26,0,0,1,.06.53.14.14,0,0,1-.06.13.3.3,0,0,1-.15,0Zm-.1-.6c0,.08,0,.12.11.12h.55l.48,0h.48l.39,0h.22a.64.64,0,0,0,.3-.13.48.48,0,0,0,.15-.4,2.85,2.85,0,0,0-.07-.61,2.45,2.45,0,0,0-.23-.64,1.61,1.61,0,0,0-.4-.52.87.87,0,0,0-.59-.21.81.81,0,0,0-.49.15,1.17,1.17,0,0,0-.35.38,2.87,2.87,0,0,0-.25.53,4.33,4.33,0,0,0-.16.56c0,.18-.08.35-.1.51S584.58,310.51,584.57,310.59Z" transform="translate(-59.17 -158.15)"/><path class="cls-8" d="M603.33,307.63a3.71,3.71,0,0,1,1.26.19,3.19,3.19,0,0,1,.93.51,3,3,0,0,1,.65.74,4.26,4.26,0,0,1,.4.87,5.28,5.28,0,0,1,.21.92,6.82,6.82,0,0,1,.06.87,6.14,6.14,0,0,1-.25,1.83,3.67,3.67,0,0,1-.75,1.41,3.27,3.27,0,0,1-1.25.9,4.57,4.57,0,0,1-1.76.31,5.87,5.87,0,0,1-1-.07,4.33,4.33,0,0,1-.79-.21,2.94,2.94,0,0,1-.66-.34,5.9,5.9,0,0,1-.61-.47l-.06,0s-.05,0-.08,0l-.27.24c-.12.11-.25.22-.38.35l-.39.38a4.36,4.36,0,0,0-.31.32.14.14,0,0,1-.15.05c-.06,0-.08-.07-.08-.15V304.46a.13.13,0,0,0-.1-.14l-.13,0-.26-.07-.27-.06-.14,0A.15.15,0,0,1,597,304c0-.06,0-.1.13-.12l.77-.22c.27-.1.54-.2.82-.32a8.34,8.34,0,0,0,.8-.38,7,7,0,0,0,.69-.4.23.23,0,0,1,.17-.05c.06,0,.08.05.08.14v6.23a.1.1,0,0,0,.06.05.07.07,0,0,0,.06,0l.27-.31a2.63,2.63,0,0,1,.52-.42,3.39,3.39,0,0,1,.81-.37A3.5,3.5,0,0,1,603.33,307.63Zm.9,4.52c0-.14,0-.32,0-.54a6.39,6.39,0,0,0-.05-.72,5.4,5.4,0,0,0-.16-.78,2.19,2.19,0,0,0-.31-.71,1.75,1.75,0,0,0-.53-.52,1.46,1.46,0,0,0-.8-.2,1.91,1.91,0,0,0-1,.22,1.64,1.64,0,0,0-.56.55,1.93,1.93,0,0,0-.26.69,3.19,3.19,0,0,0-.07.64v2.43a4.58,4.58,0,0,0,.08.77,2.91,2.91,0,0,0,.27.8,2.06,2.06,0,0,0,.54.63,1.44,1.44,0,0,0,.88.26,1.5,1.5,0,0,0,.9-.27,2,2,0,0,0,.61-.74,3.88,3.88,0,0,0,.35-1.12A8.61,8.61,0,0,0,604.23,312.15Z" transform="translate(-59.17 -158.15)"/><path class="cls-8" d="M615.36,315.13a.2.2,0,0,1,.2.05.16.16,0,0,1,0,.2,1.47,1.47,0,0,1-.18.23,1.24,1.24,0,0,1-.32.26,2.38,2.38,0,0,1-.5.19,2.29,2.29,0,0,1-.68.09,1.78,1.78,0,0,1-.93-.23,1.17,1.17,0,0,1-.51-.5.12.12,0,0,0-.11-.07.24.24,0,0,0-.11.06l-.17.15a2.61,2.61,0,0,1-.39.26,4.19,4.19,0,0,1-.62.25,2.93,2.93,0,0,1-.83.11,3.51,3.51,0,0,1-1.34-.22,2.5,2.5,0,0,1-.88-.58,2.13,2.13,0,0,1-.49-.81,2.71,2.71,0,0,1-.15-.88,2,2,0,0,1,.4-1.24,2.49,2.49,0,0,1,1-.8,3.47,3.47,0,0,1,.72-.19l.74-.12c.24,0,.49-.1.72-.16a1.94,1.94,0,0,0,.67-.31,1.15,1.15,0,0,0,.47-.58,2.26,2.26,0,0,0,.13-.74,2.1,2.1,0,0,0-.08-.56,1.62,1.62,0,0,0-.21-.46,1.2,1.2,0,0,0-.33-.31.7.7,0,0,0-.4-.12.74.74,0,0,0-.57.2,1.47,1.47,0,0,0-.28.47c-.07.19-.13.38-.19.58a1.26,1.26,0,0,1-.29.52,1,1,0,0,1-.42.26,1.44,1.44,0,0,1-.49.08,1,1,0,0,1-.43-.08.83.83,0,0,1-.33-.22,1,1,0,0,1-.2-.32,1.16,1.16,0,0,1,.07-.95,1.26,1.26,0,0,1,.48-.5,2.9,2.9,0,0,1,.93-.37,6.79,6.79,0,0,1,1.49-.14,6.45,6.45,0,0,1,1.7.2,3.11,3.11,0,0,1,1.15.59,2.19,2.19,0,0,1,.65,1,3.77,3.77,0,0,1,.21,1.3c0,.58,0,1.13-.06,1.64s-.06,1-.08,1.35a7.17,7.17,0,0,0,0,1c0,.25.11.41.25.47a.48.48,0,0,0,.22,0Zm-3.12-4a.08.08,0,0,0,0-.07s-.05,0-.08,0l-.13.15-.15.17c-.12.12-.24.24-.36.34l-.36.32-.35.29a3.26,3.26,0,0,0-.33.31,1.88,1.88,0,0,0-.35.59,2.2,2.2,0,0,0-.11.68,2,2,0,0,0,.07.49,1.4,1.4,0,0,0,.22.44,1.11,1.11,0,0,0,.94.44.91.91,0,0,0,.52-.13,1,1,0,0,0,.32-.33,1.37,1.37,0,0,0,.15-.38,1.53,1.53,0,0,0,0-.3Z" transform="translate(-59.17 -158.15)"/><path class="cls-8" d="M621.72,307.63a1.67,1.67,0,0,1,.63.1,1.06,1.06,0,0,1,.43.25.89.89,0,0,1,.23.37,1.31,1.31,0,0,1,.07.44.87.87,0,0,1-.27.68,1.07,1.07,0,0,1-.73.24,1,1,0,0,1-.55-.13,1.35,1.35,0,0,1-.34-.27l-.26-.27a.36.36,0,0,0-.29-.13.6.6,0,0,0-.32.1.94.94,0,0,0-.33.39,2.94,2.94,0,0,0-.24.8,6.59,6.59,0,0,0-.1,1.3v3.12a1.13,1.13,0,0,0,.12.56.89.89,0,0,0,.28.32,1,1,0,0,0,.31.15l.22,0,.11.06a.15.15,0,0,1,0,.09.14.14,0,0,1-.05.08.21.21,0,0,1-.11,0h-4.23a.21.21,0,0,1-.12,0,.22.22,0,0,1-.05-.08.16.16,0,0,1,0-.09l.1-.06.22,0a1.15,1.15,0,0,0,.32-.15,1,1,0,0,0,.27-.32,1,1,0,0,0,.13-.56v-5.08a.13.13,0,0,0-.11-.14l-.13,0-.26-.06-.26-.07-.15,0c-.08,0-.12-.06-.12-.13s0-.1.13-.13a6.1,6.1,0,0,0,.76-.22c.27-.09.54-.19.82-.31s.54-.24.8-.38a5.47,5.47,0,0,0,.69-.41.27.27,0,0,1,.17,0c.06,0,.09.05.09.13V309a2.34,2.34,0,0,1,.85-1A2.31,2.31,0,0,1,621.72,307.63Z" transform="translate(-59.17 -158.15)"/><path class="cls-8" d="M626.69,314.54a1,1,0,0,0,.15.58,1.11,1.11,0,0,0,.33.35,1.47,1.47,0,0,0,.36.17,1.13,1.13,0,0,0,.24.05l.11.06a.15.15,0,0,1,0,.09.14.14,0,0,1,0,.08.18.18,0,0,1-.11,0h-4.52a.16.16,0,0,1-.11,0,.12.12,0,0,1,0-.17.29.29,0,0,1,.1-.06l.25-.05a1.47,1.47,0,0,0,.36-.17,1.39,1.39,0,0,0,.33-.35,1.08,1.08,0,0,0,.14-.58v-5c0-.08,0-.13-.1-.14l-.14,0-.25-.06-.27-.07-.15,0a.15.15,0,0,1-.12-.13c0-.06,0-.1.13-.13a5.26,5.26,0,0,0,.76-.22c.28-.09.55-.19.83-.31s.54-.24.8-.38a5.47,5.47,0,0,0,.69-.41.27.27,0,0,1,.17,0s.08.05.08.13Zm.07-10.13a1.31,1.31,0,0,0-.3-.46,1.47,1.47,0,0,0-.46-.3,1.36,1.36,0,0,0-.58-.11,1.73,1.73,0,0,0-.6.11,1.49,1.49,0,0,0-.48.32,1.36,1.36,0,0,0-.32.46,1.38,1.38,0,0,0-.12.56,1.47,1.47,0,0,0,.11.56,1.19,1.19,0,0,0,.3.45,1.31,1.31,0,0,0,.46.3,1.4,1.4,0,0,0,.58.12,1.46,1.46,0,0,0,.6-.12,1.72,1.72,0,0,0,.48-.31,1.39,1.39,0,0,0,.33-.46,1.51,1.51,0,0,0,.11-.56A1.3,1.3,0,0,0,626.76,304.41Z" transform="translate(-59.17 -158.15)"/><path class="cls-8" d="M638.83,315.69c.09,0,.13.09.13.16s-.06.11-.16.11h-4.9c-.1,0-.15,0-.16-.11s0-.12.13-.16a1.19,1.19,0,0,0,.28-.1.81.81,0,0,0,.24-.17.52.52,0,0,0,.12-.26.64.64,0,0,0-.09-.37s-.07-.1-.15-.22l-.32-.39-.39-.49-.41-.5-.36-.41-.21-.24a2.14,2.14,0,0,0-.28-.27.32.32,0,0,0-.22-.08.24.24,0,0,0-.22.09.49.49,0,0,0-.06.27v1.95a1.05,1.05,0,0,0,.16.59,1.31,1.31,0,0,0,.76.54,1.18,1.18,0,0,0,.26.06l.11.06a.1.1,0,0,1,0,.09.14.14,0,0,1-.05.08.18.18,0,0,1-.11,0h-4.72a.18.18,0,0,1-.11,0,.14.14,0,0,1,0-.08.1.1,0,0,1,0-.09l.11-.06a1.18,1.18,0,0,0,.26-.06,1.31,1.31,0,0,0,.76-.54,1.05,1.05,0,0,0,.16-.59V304.41a.13.13,0,0,0-.11-.14l-.13,0-.26-.06-.27-.07-.14,0a.15.15,0,0,1-.13-.13c0-.06,0-.1.13-.13a5.76,5.76,0,0,0,.77-.22c.27-.09.54-.19.82-.31s.54-.24.8-.38a5.47,5.47,0,0,0,.69-.41.22.22,0,0,1,.17,0c.06,0,.08.05.08.13v8.68a.63.63,0,0,0,.08.34.26.26,0,0,0,.25.12.44.44,0,0,0,.37-.16L633,311c.17-.23.35-.47.52-.72s.34-.49.49-.73.28-.43.37-.59a.79.79,0,0,0,.16-.46.38.38,0,0,0-.12-.26.53.53,0,0,0-.25-.12l-.21,0s-.08,0-.1-.06a.08.08,0,0,1,0-.08.18.18,0,0,1,0-.09.21.21,0,0,1,.12,0h2.58a.16.16,0,0,1,.11,0,.12.12,0,0,1,0,.09.16.16,0,0,1,0,.09s0,0-.1.05a1.35,1.35,0,0,0-.24.06l-.37.17a4.51,4.51,0,0,0-.47.3,4.24,4.24,0,0,0-.51.46c0,.05-.12.14-.22.28l-.32.43-.28.41a1.64,1.64,0,0,0-.14.21.2.2,0,0,0,0,.21c0,.06.14.2.29.39l.56.71c.21.27.45.55.7.86l.73.87c.24.28.45.53.65.75l.44.47.46.38.44.31.35.21Z" transform="translate(-59.17 -158.15)"/><path class="cls-6" d="M324.47,192.72q40.3-2.16,80.71-1.14,11.52.28,23,.84a1.85,1.85,0,0,0,1.88-.91,1,1,0,0,0-.91-1.31q-40.76-1.95-81.58-.7-11.46.36-22.91,1c-1.68.09-2.19,2.35-.22,2.25Z" transform="translate(-59.17 -158.15)"/><path class="cls-6" d="M416.52,180.82a27.32,27.32,0,0,1,13.1,10.06c.75,1.07,3.51,0,2.65-1.28a29.24,29.24,0,0,0-14.07-10.72,2,2,0,0,0-2.05.55.83.83,0,0,0,.37,1.39Z" transform="translate(-59.17 -158.15)"/><path class="cls-6" d="M428.77,191.13a24.64,24.64,0,0,1-6.56,11.08c-.44.43-.31.94.29,1.08a2.4,2.4,0,0,0,2-.54,26.63,26.63,0,0,0,7.13-12c.18-.65-.88-.72-1.26-.67-.59.06-1.46.36-1.64,1Z" transform="translate(-59.17 -158.15)"/><path class="cls-6" d="M509.59,192.34a.23.23,0,0,1,.13.06.17.17,0,0,1,0,.1.14.14,0,0,1-.05.09.22.22,0,0,1-.13,0h-5.74a.23.23,0,0,1-.14,0,.14.14,0,0,1-.05-.09.13.13,0,0,1,0-.1.17.17,0,0,1,.12-.06l.34-.08a1.62,1.62,0,0,0,.47-.21,1.49,1.49,0,0,0,.42-.41,1.2,1.2,0,0,0,.18-.69v-8.8a1.21,1.21,0,0,0-.18-.68,1.49,1.49,0,0,0-.42-.41,1.62,1.62,0,0,0-.47-.21l-.34-.08a.17.17,0,0,1-.12-.06.16.16,0,0,1,0-.1.14.14,0,0,1,.05-.09.18.18,0,0,1,.14,0h5.74a.17.17,0,0,1,.13,0,.14.14,0,0,1,.05.09.22.22,0,0,1,0,.1.23.23,0,0,1-.13.06l-.34.08a1.75,1.75,0,0,0-.47.21,1.49,1.49,0,0,0-.42.41,1.21,1.21,0,0,0-.18.68V191a1.2,1.2,0,0,0,.18.69,1.49,1.49,0,0,0,.42.41,1.75,1.75,0,0,0,.47.21Z" transform="translate(-59.17 -158.15)"/><path class="cls-6" d="M520.19,192.37a.17.17,0,0,1,.1.06.08.08,0,0,1,0,.08.1.1,0,0,1,0,.08.12.12,0,0,1-.11,0h-4.52a.16.16,0,0,1-.16-.12.08.08,0,0,1,0-.08.17.17,0,0,1,.11-.06l.24-.06a1.18,1.18,0,0,0,.36-.17,1.07,1.07,0,0,0,.33-.34,1,1,0,0,0,.15-.59v-3.87q0-.39-.06-.78a2.39,2.39,0,0,0-.21-.73,1.33,1.33,0,0,0-.46-.54,1.38,1.38,0,0,0-.8-.21,1.42,1.42,0,0,0-.81.2,1.2,1.2,0,0,0-.43.52,2,2,0,0,0-.17.65c0,.23,0,.44,0,.62v4.14a1,1,0,0,0,.14.59,1.34,1.34,0,0,0,.33.34,1.18,1.18,0,0,0,.36.17l.25.06a.17.17,0,0,1,.1.06.08.08,0,0,1,0,.08.1.1,0,0,1,0,.08.12.12,0,0,1-.11,0h-4.52a.16.16,0,0,1-.16-.12.08.08,0,0,1,0-.08.17.17,0,0,1,.11-.06l.24-.06a1.18,1.18,0,0,0,.36-.17,1.07,1.07,0,0,0,.33-.34,1,1,0,0,0,.15-.59v-5a.13.13,0,0,0-.11-.14l-.13,0-.26-.06-.26-.07-.15,0q-.12,0-.12-.12c0-.07,0-.11.13-.13l.76-.22c.27-.1.54-.2.82-.32s.54-.24.8-.38a6.47,6.47,0,0,0,.7-.41.23.23,0,0,1,.16,0c.06,0,.09.05.09.13v.78a2.44,2.44,0,0,1,.43-.33,2.74,2.74,0,0,1,.54-.28,4,4,0,0,1,.68-.18,4.15,4.15,0,0,1,.82-.08,4.34,4.34,0,0,1,1.24.16,2.61,2.61,0,0,1,.83.44,1.85,1.85,0,0,1,.5.62,2.74,2.74,0,0,1,.25.73,4.8,4.8,0,0,1,.09.75c0,.25,0,.48,0,.7v3.51a1,1,0,0,0,.14.59,1.34,1.34,0,0,0,.33.34,1.18,1.18,0,0,0,.36.17Z" transform="translate(-59.17 -158.15)"/><path class="cls-6" d="M530.52,192.37a.14.14,0,0,1,.1.06.08.08,0,0,1,0,.08.1.1,0,0,1,0,.08.12.12,0,0,1-.11,0H526a.15.15,0,0,1-.11,0,.22.22,0,0,1-.05-.08.08.08,0,0,1,0-.08.14.14,0,0,1,.1-.06l.25-.06a1.44,1.44,0,0,0,.36-.17,1.16,1.16,0,0,0,.32-.34,1,1,0,0,0,.15-.59v-3.87q0-.39-.06-.78a2.14,2.14,0,0,0-.21-.73,1.26,1.26,0,0,0-.46-.54,1.38,1.38,0,0,0-.8-.21,1.42,1.42,0,0,0-.81.2,1.27,1.27,0,0,0-.43.52,2,2,0,0,0-.17.65c0,.23,0,.44,0,.62v4.14a1.12,1.12,0,0,0,.14.59,1.34,1.34,0,0,0,.33.34,1.18,1.18,0,0,0,.36.17l.25.06a.14.14,0,0,1,.1.06.08.08,0,0,1,0,.08.12.12,0,0,1,0,.08.16.16,0,0,1-.12,0h-4.52a.15.15,0,0,1-.11,0,.14.14,0,0,1-.05-.08.11.11,0,0,1,0-.08.2.2,0,0,1,.11-.06l.25-.06a1.44,1.44,0,0,0,.36-.17,1.16,1.16,0,0,0,.32-.34,1,1,0,0,0,.15-.59V181.08a.13.13,0,0,0-.11-.14l-.13,0-.26-.06-.26-.07-.15,0q-.12,0-.12-.12c0-.07,0-.11.13-.13s.49-.13.76-.22.55-.2.82-.32.54-.24.8-.38a6.47,6.47,0,0,0,.7-.41.24.24,0,0,1,.16,0c.06,0,.09.05.09.13v5.91a2.44,2.44,0,0,1,.43-.33,2.74,2.74,0,0,1,.54-.28,4.21,4.21,0,0,1,.68-.18,4.15,4.15,0,0,1,.82-.08,4.34,4.34,0,0,1,1.24.16,2.61,2.61,0,0,1,.83.44,1.74,1.74,0,0,1,.5.62,2.74,2.74,0,0,1,.25.73,3.2,3.2,0,0,1,.09.75c0,.25,0,.48,0,.7v3.51a1.12,1.12,0,0,0,.14.59,1.34,1.34,0,0,0,.33.34,1.18,1.18,0,0,0,.36.17Z" transform="translate(-59.17 -158.15)"/><path class="cls-6" d="M534.51,191.21a1,1,0,0,0,.15.59,1.07,1.07,0,0,0,.33.34,1.18,1.18,0,0,0,.36.17l.24.06a.17.17,0,0,1,.11.06.08.08,0,0,1,0,.08.16.16,0,0,1-.16.12H531a.14.14,0,0,1-.11,0,.1.1,0,0,1,0-.08.08.08,0,0,1,0-.08.17.17,0,0,1,.1-.06l.25-.06a1.18,1.18,0,0,0,.36-.17,1.34,1.34,0,0,0,.33-.34,1,1,0,0,0,.14-.59v-5c0-.08,0-.13-.1-.14l-.13,0-.26-.06-.27-.07-.15,0a.15.15,0,0,1-.12-.12c0-.07,0-.11.13-.13.24-.06.49-.13.76-.22s.55-.2.83-.32.54-.24.8-.38a5.47,5.47,0,0,0,.69-.41.27.27,0,0,1,.17,0c.06,0,.08.05.08.13Zm.08-10.13a1.57,1.57,0,0,0-.31-.45,1.44,1.44,0,0,0-.45-.31,1.63,1.63,0,0,0-.59-.11,1.73,1.73,0,0,0-.6.11,1.75,1.75,0,0,0-.48.32,1.65,1.65,0,0,0-.32.46,1.39,1.39,0,0,0-.12.57,1.46,1.46,0,0,0,.11.55,1.19,1.19,0,0,0,.3.45,1.62,1.62,0,0,0,.46.31,1.58,1.58,0,0,0,.58.11,1.46,1.46,0,0,0,.6-.12,1.59,1.59,0,0,0,.48-.31,1.39,1.39,0,0,0,.33-.46,1.33,1.33,0,0,0,.11-.56A1.47,1.47,0,0,0,534.59,181.08Z" transform="translate(-59.17 -158.15)"/><path class="cls-6" d="M542.26,184.3a4,4,0,0,1,1.26.19,3.39,3.39,0,0,1,.94.51,3.18,3.18,0,0,1,.64.74,4.14,4.14,0,0,1,.41.88,4.24,4.24,0,0,1,.2.91,6.82,6.82,0,0,1,.06.87,6.44,6.44,0,0,1-.24,1.83,4,4,0,0,1-.75,1.41,3.23,3.23,0,0,1-1.26.9,4.54,4.54,0,0,1-1.76.31,6,6,0,0,1-1-.07,4.33,4.33,0,0,1-.79-.21,3.61,3.61,0,0,1-.65-.33,5.34,5.34,0,0,1-.61-.48l-.07,0s0,0-.08,0l-.27.24-.37.35-.4.38-.31.32a.13.13,0,0,1-.15,0A.14.14,0,0,1,537,193V183c0-.37,0-.7,0-1v-.89a.14.14,0,0,0-.11-.14l-.13,0-.26-.06-.26-.07-.15,0q-.12,0-.12-.12c0-.07,0-.11.13-.13a7.63,7.63,0,0,0,.76-.22c.27-.09.55-.2.82-.32a8.43,8.43,0,0,0,.8-.37c.26-.14.49-.27.7-.41a.25.25,0,0,1,.16,0c.06,0,.09,0,.09.14v6.23a.08.08,0,0,0,.05,0,.08.08,0,0,0,.07,0l.27-.31a2.28,2.28,0,0,1,.51-.42,3.54,3.54,0,0,1,1.94-.53Zm.9,4.52v-.54a4.76,4.76,0,0,0-.06-.72,5.36,5.36,0,0,0-.15-.78,2.3,2.3,0,0,0-.32-.71,1.65,1.65,0,0,0-.53-.52,1.42,1.42,0,0,0-.8-.2,1.87,1.87,0,0,0-1,.22,1.59,1.59,0,0,0-.57.55,2,2,0,0,0-.26.69,4,4,0,0,0-.06.64v2.43a4.4,4.4,0,0,0,.07.77,3.17,3.17,0,0,0,.28.8,1.82,1.82,0,0,0,.54.63,1.43,1.43,0,0,0,.87.26,1.51,1.51,0,0,0,.91-.27,2,2,0,0,0,.61-.74,4.21,4.21,0,0,0,.35-1.12A8.65,8.65,0,0,0,543.16,188.82Z" transform="translate(-59.17 -158.15)"/><path class="cls-6" d="M549.9,191.21a1,1,0,0,0,.15.59,1.07,1.07,0,0,0,.33.34,1.18,1.18,0,0,0,.36.17l.24.06a.17.17,0,0,1,.11.06.08.08,0,0,1,0,.08.16.16,0,0,1-.16.12h-4.52a.14.14,0,0,1-.11,0,.1.1,0,0,1-.05-.08.08.08,0,0,1,0-.08.17.17,0,0,1,.1-.06l.25-.06a1.18,1.18,0,0,0,.36-.17,1.19,1.19,0,0,0,.33-.34,1,1,0,0,0,.14-.59v-5c0-.08,0-.13-.1-.14l-.13,0L547,186l-.27-.07-.14,0c-.08,0-.12-.06-.13-.12s0-.11.14-.13.48-.13.75-.22.55-.2.83-.32.54-.24.8-.38a5.47,5.47,0,0,0,.69-.41.27.27,0,0,1,.17,0c.06,0,.08.05.08.13Zm.08-10.13a1.57,1.57,0,0,0-.31-.45,1.44,1.44,0,0,0-.45-.31,1.63,1.63,0,0,0-.59-.11,1.73,1.73,0,0,0-.6.11,1.75,1.75,0,0,0-.48.32,1.65,1.65,0,0,0-.32.46,1.39,1.39,0,0,0-.12.57,1.46,1.46,0,0,0,.11.55,1.31,1.31,0,0,0,.3.45,1.62,1.62,0,0,0,.46.31,1.58,1.58,0,0,0,.58.11,1.46,1.46,0,0,0,.6-.12,1.59,1.59,0,0,0,.48-.31,1.39,1.39,0,0,0,.33-.46,1.33,1.33,0,0,0,.11-.56A1.47,1.47,0,0,0,550,181.08Z" transform="translate(-59.17 -158.15)"/><path class="cls-6" d="M557,191.32c.11,0,.19,0,.24,0a.2.2,0,0,1,0,.21,2.29,2.29,0,0,1-.41.52,3,3,0,0,1-.57.42,2.68,2.68,0,0,1-.68.27,3.42,3.42,0,0,1-.79.09,3.8,3.8,0,0,1-.89-.11,2.05,2.05,0,0,1-.8-.42,2.3,2.3,0,0,1-.57-.82,3.57,3.57,0,0,1-.22-1.32v-5.06c0-.05,0-.07-.07-.07h-.23a.67.67,0,0,1-.27,0,.12.12,0,0,1,0-.11.42.42,0,0,1,.11-.25.29.29,0,0,1,.25-.13h.2s.06,0,.06-.07V182.3a.2.2,0,0,1,.16-.22L553,182l.52-.18.52-.23a4.12,4.12,0,0,0,.47-.25.19.19,0,0,1,.19,0s.08.08.08.18v3a.06.06,0,0,0,.07.07h1.7a1.11,1.11,0,0,1,.26,0s.05.06.05.12a.43.43,0,0,1-.4.38h-1.61c-.05,0-.07,0-.07.06v5.54a1,1,0,0,0,.09.43,1.16,1.16,0,0,0,.22.31.84.84,0,0,0,.33.19,1,1,0,0,0,.37.07,2.09,2.09,0,0,0,.72-.12A2.76,2.76,0,0,0,557,191.32Z" transform="translate(-59.17 -158.15)"/><path class="cls-6" d="M564.63,190.55a.15.15,0,0,1,.17-.11.13.13,0,0,1,.12.14v1.88c0,.11-.07.17-.19.17h-6.9c-.12,0-.19,0-.21-.11a.28.28,0,0,1,0-.23s.08-.13.19-.31l.44-.74.62-1,.72-1.2c.24-.41.49-.82.74-1.23l.69-1.14.55-.91c.15-.27.27-.46.34-.57s0-.07,0-.09a.13.13,0,0,0-.08,0h-1a2.54,2.54,0,0,0-1,.19,3.14,3.14,0,0,0-.72.44,2.85,2.85,0,0,0-.45.5l-.21.37a.17.17,0,0,1-.18.11c-.07,0-.11-.06-.11-.15v-1.8c0-.12.06-.17.19-.17h6.34c.13,0,.21,0,.22.12a.23.23,0,0,1,0,.21l-.18.31-.44.72-.61,1-.71,1.2-.75,1.22-.68,1.14-.55.93-.35.57c-.05.09,0,.13.07.13h1.57a2.46,2.46,0,0,0,1-.2,2.79,2.79,0,0,0,.72-.46,2.61,2.61,0,0,0,.45-.52A4.19,4.19,0,0,0,564.63,190.55Z" transform="translate(-59.17 -158.15)"/><path class="cls-6" d="M573.42,191.8a.2.2,0,0,1,.2,0,.16.16,0,0,1,0,.2,1.49,1.49,0,0,1-.18.24,1.42,1.42,0,0,1-.32.25,2.36,2.36,0,0,1-.5.2,2.7,2.7,0,0,1-.68.08,1.88,1.88,0,0,1-.93-.22,1.24,1.24,0,0,1-.51-.51.12.12,0,0,0-.11-.07.24.24,0,0,0-.11.06l-.17.15a2,2,0,0,1-.39.26,3.33,3.33,0,0,1-.62.25,2.65,2.65,0,0,1-.83.11,3.51,3.51,0,0,1-1.34-.22,2.5,2.5,0,0,1-.88-.58,2.17,2.17,0,0,1-.49-.8,2.82,2.82,0,0,1-.15-.89,2,2,0,0,1,.4-1.24,2.34,2.34,0,0,1,1-.79,3.49,3.49,0,0,1,.72-.2l.74-.12a5.77,5.77,0,0,0,.72-.16,1.94,1.94,0,0,0,.67-.31,1.17,1.17,0,0,0,.47-.57,2.36,2.36,0,0,0,.13-.75,2,2,0,0,0-.08-.55,1.56,1.56,0,0,0-.21-.47,1.37,1.37,0,0,0-.33-.31.72.72,0,0,0-.4-.12.74.74,0,0,0-.57.2,1.41,1.41,0,0,0-.28.48c-.07.18-.13.38-.19.58a1.28,1.28,0,0,1-.29.51,1,1,0,0,1-.42.26,1.46,1.46,0,0,1-.49.09,1,1,0,0,1-.43-.09.83.83,0,0,1-.33-.22,1,1,0,0,1-.2-.32,1.23,1.23,0,0,1-.07-.39,1.29,1.29,0,0,1,.14-.56,1.33,1.33,0,0,1,.48-.5,3.15,3.15,0,0,1,.93-.37,6.79,6.79,0,0,1,1.49-.14,6,6,0,0,1,1.7.21,3,3,0,0,1,1.15.58,2.19,2.19,0,0,1,.65,1,3.78,3.78,0,0,1,.2,1.3c0,.59,0,1.13,0,1.64s-.06,1-.08,1.36a7.07,7.07,0,0,0,0,1c0,.25.11.41.25.47a.48.48,0,0,0,.22,0Zm-3.12-4a.07.07,0,0,0,0-.07s0,0-.08,0a1,1,0,0,1-.13.15l-.16.18a3.61,3.61,0,0,1-.35.33l-.36.32-.35.29a2.5,2.5,0,0,0-.33.32,1.77,1.77,0,0,0-.35.59,2.14,2.14,0,0,0-.11.67,1.73,1.73,0,0,0,.07.5,1.4,1.4,0,0,0,.22.44,1.15,1.15,0,0,0,.38.31,1.18,1.18,0,0,0,.55.12.93.93,0,0,0,.53-.13,1,1,0,0,0,.32-.33,1.37,1.37,0,0,0,.15-.38,1.53,1.53,0,0,0,0-.3Z" transform="translate(-59.17 -158.15)"/><path class="cls-6" d="M577.75,191.21a1.12,1.12,0,0,0,.14.59,1.34,1.34,0,0,0,.33.34,1.44,1.44,0,0,0,.36.17l.25.06a.14.14,0,0,1,.1.06.08.08,0,0,1,0,.08.22.22,0,0,1-.05.08.16.16,0,0,1-.12,0h-4.51a.16.16,0,0,1-.12,0,.22.22,0,0,1,0-.08.11.11,0,0,1,0-.08.14.14,0,0,1,.1-.06l.25-.06a1.44,1.44,0,0,0,.36-.17,1.34,1.34,0,0,0,.33-.34,1.12,1.12,0,0,0,.14-.59v-5a.13.13,0,0,0-.11-.14l-.13,0-.25-.06-.27-.07-.15,0q-.12,0-.12-.12c0-.07,0-.11.13-.13s.49-.13.76-.22.55-.2.82-.32.55-.24.81-.38a7.4,7.4,0,0,0,.69-.41.25.25,0,0,1,.17,0c.05,0,.08.05.08.13Zm.07-10.13a1.37,1.37,0,0,0-.3-.45,1.49,1.49,0,0,0-.46-.31,1.59,1.59,0,0,0-.59-.11,1.63,1.63,0,0,0-.59.11,1.49,1.49,0,0,0-.48.32,1.47,1.47,0,0,0-.32.46,1.39,1.39,0,0,0-.12.57,1.46,1.46,0,0,0,.11.55,1.19,1.19,0,0,0,.3.45,1.49,1.49,0,0,0,.46.31,1.58,1.58,0,0,0,.58.11,1.46,1.46,0,0,0,.6-.12,1.72,1.72,0,0,0,.48-.31,1.23,1.23,0,0,0,.32-.46,1.34,1.34,0,0,0,.12-.56A1.47,1.47,0,0,0,577.82,181.08Z" transform="translate(-59.17 -158.15)"/><path class="cls-6" d="M582.87,191.17a1,1,0,0,0,.16.59,1.23,1.23,0,0,0,.36.36,1.18,1.18,0,0,0,.4.18l.26.07a.14.14,0,0,1,.1.06.11.11,0,0,1,0,.08.22.22,0,0,1,0,.08.16.16,0,0,1-.12,0H579.3a.12.12,0,0,1-.11,0,.1.1,0,0,1-.05-.08.08.08,0,0,1,0-.08.14.14,0,0,1,.1-.06l.27-.07a1.14,1.14,0,0,0,.39-.18,1.23,1.23,0,0,0,.36-.36,1,1,0,0,0,.16-.59V181.08a.12.12,0,0,0-.11-.14l-.13,0-.25-.06-.27-.07-.15,0c-.07,0-.12-.06-.12-.12s0-.11.13-.13c.24-.06.49-.13.76-.22s.55-.2.83-.32.54-.24.8-.38a6.29,6.29,0,0,0,.69-.41.25.25,0,0,1,.17,0c.05,0,.08.05.08.13Z" transform="translate(-59.17 -158.15)"/><path class="cls-6" d="M587.23,187.86a.13.13,0,0,0-.15.15,6.59,6.59,0,0,0,.17,1.58,2.85,2.85,0,0,0,.47,1.07,1.85,1.85,0,0,0,.77.62,2.77,2.77,0,0,0,1.08.2,3.43,3.43,0,0,0,.83-.1,5.85,5.85,0,0,0,.64-.23c.17-.09.32-.17.44-.25a1.07,1.07,0,0,1,.25-.15.16.16,0,0,1,.2,0,.23.23,0,0,1,0,.23,1.76,1.76,0,0,1-.13.21,1.87,1.87,0,0,1-.27.36,3.79,3.79,0,0,1-.45.44,3.53,3.53,0,0,1-.64.41,3.94,3.94,0,0,1-.86.31,4.86,4.86,0,0,1-2.7-.16,3.44,3.44,0,0,1-1.25-.82,3.8,3.8,0,0,1-.8-1.32,5,5,0,0,1-.28-1.74,4.69,4.69,0,0,1,.35-1.89,4.32,4.32,0,0,1,.91-1.37,3.88,3.88,0,0,1,1.29-.84,4,4,0,0,1,1.47-.29,3.62,3.62,0,0,1,1.24.2,3.16,3.16,0,0,1,1.57,1.19,4.38,4.38,0,0,1,.41.76,4,4,0,0,1,.23.72,3,3,0,0,1,.06.53.12.12,0,0,1-.06.12.25.25,0,0,1-.16,0Zm-.1-.6c0,.08,0,.12.11.12h.18l.37,0,.47,0h.48l.4,0h.21a.56.56,0,0,0,.3-.13.44.44,0,0,0,.16-.4,2.89,2.89,0,0,0-.3-1.25,1.76,1.76,0,0,0-.4-.52.88.88,0,0,0-.6-.21.81.81,0,0,0-.48.15,1.45,1.45,0,0,0-.36.38,2.32,2.32,0,0,0-.24.53c-.07.19-.12.38-.17.56s-.07.35-.09.51S587.13,187.19,587.13,187.26Z" transform="translate(-59.17 -158.15)"/><path class="cls-6" d="M600.67,191.8a.18.18,0,0,1,.19,0,.16.16,0,0,1,0,.2,1,1,0,0,1-.17.24,1.29,1.29,0,0,1-.33.25,2.26,2.26,0,0,1-.49.2,2.84,2.84,0,0,1-.69.08,1.84,1.84,0,0,1-.92-.22,1.27,1.27,0,0,1-.52-.51c0-.05-.06-.07-.1-.07a.23.23,0,0,0-.12.06l-.16.15a2.53,2.53,0,0,1-.4.26,3.33,3.33,0,0,1-.62.25,2.58,2.58,0,0,1-.82.11,3.53,3.53,0,0,1-1.35-.22,2.59,2.59,0,0,1-.88-.58,2.17,2.17,0,0,1-.49-.8,2.82,2.82,0,0,1-.15-.89,2,2,0,0,1,.4-1.24,2.39,2.39,0,0,1,1-.79,3.49,3.49,0,0,1,.72-.2l.74-.12a5.93,5.93,0,0,0,.73-.16,2,2,0,0,0,.67-.31,1.21,1.21,0,0,0,.46-.57,2.11,2.11,0,0,0,.13-.75,1.67,1.67,0,0,0-.08-.55,1.56,1.56,0,0,0-.21-.47,1.08,1.08,0,0,0-.33-.31.7.7,0,0,0-.4-.12.73.73,0,0,0-.56.2,1.43,1.43,0,0,0-.29.48c-.07.18-.13.38-.19.58a1.28,1.28,0,0,1-.29.51,1,1,0,0,1-.42.26,1.46,1.46,0,0,1-.49.09,1,1,0,0,1-.43-.09.87.87,0,0,1-.32-.22,1,1,0,0,1-.21-.32,1.23,1.23,0,0,1-.06-.39,1.27,1.27,0,0,1,.13-.56,1.33,1.33,0,0,1,.48-.5,3.15,3.15,0,0,1,.93-.37,6.85,6.85,0,0,1,1.49-.14,6.1,6.1,0,0,1,1.71.21,3,3,0,0,1,1.15.58,2.38,2.38,0,0,1,.65,1,4,4,0,0,1,.2,1.3c0,.59,0,1.13-.06,1.64s-.06,1-.07,1.36a5.91,5.91,0,0,0,0,1c0,.25.11.41.25.47a.53.53,0,0,0,.23,0Zm-3.13-4s0-.06,0-.07a.05.05,0,0,0-.08,0l-.13.15-.16.18c-.12.12-.23.23-.35.33l-.36.32-.36.29a2.5,2.5,0,0,0-.33.32,1.75,1.75,0,0,0-.34.59,1.89,1.89,0,0,0-.12.67,1.74,1.74,0,0,0,.08.5,1.22,1.22,0,0,0,.22.44,1.12,1.12,0,0,0,.37.31,1.22,1.22,0,0,0,.56.12.91.91,0,0,0,.52-.13,1,1,0,0,0,.32-.33,1.4,1.4,0,0,0,.16-.38,1.37,1.37,0,0,0,0-.3Z" transform="translate(-59.17 -158.15)"/><path class="cls-9" d="M279.86,387.27c-1.89-.18-3-2.07-3.46-3.73-.68-2.38-.13-4.9-.18-7.33a8.64,8.64,0,0,0-1.9-5.77,5.54,5.54,0,0,0-5.12-2c-.6.1-1.54.4-1.6,1.14s.76.93,1.32.91c4.54-.15,7.31-4.06,8.44-8.08,1.28-4.56.09-10.07,3.32-14,1.16-1.4-1.59-1.78-2.41-.8-2.91,3.51-2.83,8.07-3.34,12.37-.37,3.14-1.85,8.29-5.73,8.43l-.28,2c2-.34,3.51,1.75,4,3.47.72,2.39.15,5,.2,7.44.06,3.54,1.72,7.5,5.69,7.88a1.92,1.92,0,0,0,1.89-.88c.28-.65-.25-1.11-.87-1.17Z" transform="translate(-59.17 -158.15)"/><path class="cls-9" d="M238.18,386.17c-8.06-3.44-8.69-13.87-7.4-21.29,1.55-8.87,5-18.38-.06-26.77a12.32,12.32,0,0,0-10.06-6.33c-.69,0-3.07,1.08-1.47,1.53,5.29,1.48,11.07-1.89,13.52-6.55,3.06-5.84,2.11-13.06,1.67-19.37-.9-12.83-2.2-27,5.9-37.94,3.52-4.76,8.66-8.66,14.77-8.81.57,0,1.63-.19,1.92-.77s-.24-.79-.77-.78c-11,.27-19.57,8.93-23.11,18.87-2.23,6.28-2.47,13.13-2.25,19.73.24,6.89,1.32,13.83,1,20.73-.14,3.44-.77,7.13-2.87,10-1.9,2.56-4.8,4.33-8,3.43l-1.47,1.52c3.81.16,6.87,3,8.66,6.16a20.45,20.45,0,0,1,2.25,12.12c-.85,9-5,17.91-2.1,27a13.88,13.88,0,0,0,7.54,8.94,2.44,2.44,0,0,0,2-.29c.35-.21.91-.78.27-1.05Z" transform="translate(-59.17 -158.15)"/><path class="cls-9" d="M207.54,382.92c-6.81-4.26-9.4-12.5-9.68-20.14a115.35,115.35,0,0,1,.75-14.15q.62-7,1-14.08c.45-9,.69-18.12.34-27.15a69.58,69.58,0,0,0-3.16-19.7c-2.3-6.74-6.38-12.89-12.8-16.29l-1.61,1.94a10.45,10.45,0,0,0,8.89-3.57c2.53-2.76,3.45-6.49,3.55-10.16a112.88,112.88,0,0,0-.84-12.72l-1.17-13.68c-.76-8.77-1.87-17.6-1.89-26.41,0-7.78,1.06-16.07,5.59-22.62,4.19-6.06,11.08-10.86,18.74-9.77,1.46.21,2.93-1.89,1-2.17-6.67-.95-13.22,1.78-18.06,6.31-5.39,5.05-8.36,11.73-9.51,19-1.33,8.28-.45,16.73.27,25l2.34,27.37c.4,4.59,1.2,9.48.11,14-.87,3.61-3.85,7.73-8,7.23a2,2,0,0,0-1.71.63c-.29.37-.4,1.05.1,1.31,12.07,6.38,14.69,21.56,15.23,34,.39,9,.14,18-.28,26.93q-.34,7.17-1,14.33a126.77,126.77,0,0,0-.81,13.91c.19,8.46,2.83,17.64,10.41,22.38,1.12.7,3.64-.83,2.23-1.71Z" transform="translate(-59.17 -158.15)"/><path class="cls-9" d="M103.1,270.91,101.46,282a50.27,50.27,0,0,0-.7,5,3,3,0,0,0,1.29,3c.8.47,3.48-.7,2.31-1.39-1-.59-.71-2.25-.57-3.2.24-1.63.49-3.27.73-4.91l1.48-10c.16-1.11-2.76-.61-2.9.37Z" transform="translate(-59.17 -158.15)"/><path class="cls-9" d="M103.39,279.84h5.36a3.18,3.18,0,0,0,1.14-.23,1.88,1.88,0,0,0,.78-.55c.34-.57-.3-.81-.77-.81h-5.37a3.12,3.12,0,0,0-1.13.23,1.8,1.8,0,0,0-.78.55c-.35.57.29.81.77.81Z" transform="translate(-59.17 -158.15)"/><path class="cls-9" d="M103.83,270.07a30.93,30.93,0,0,1,10,1.72,2,2,0,0,0,2-.55.84.84,0,0,0-.38-1.4A35.1,35.1,0,0,0,104.09,268c-.63,0-1.52.49-1.6,1.17s.78.94,1.34.94Z" transform="translate(-59.17 -158.15)"/><path class="cls-9" d="M100.75,289.23h7.66c.6,0,1.52-.46,1.61-1.12s-.8-.87-1.32-.87H101c-.6,0-1.52.46-1.6,1.12s.79.87,1.31.87Z" transform="translate(-59.17 -158.15)"/><path class="cls-9" d="M125.88,283.89c-2.14-1.27-4.33-2.48-6.87-2.58a7.75,7.75,0,0,0-6.16,2.59,3.57,3.57,0,0,0,.15,4.86,6.23,6.23,0,0,0,5.79,1.33,11.76,11.76,0,0,0,6.38-4.35l-2.79.41a13.67,13.67,0,0,0,1.54,6.33c.45.87,3.25-.1,2.89-.78a13.74,13.74,0,0,1-1.53-6.32c0-.42-1-.34-1.22-.31a2.58,2.58,0,0,0-1.56.72,8.9,8.9,0,0,1-3.45,2.91,1.21,1.21,0,0,1-.32.1s-.32.06-.15,0a3,3,0,0,1-.84,0,4.1,4.1,0,0,1-1.7-.8,2.93,2.93,0,0,1-.92-3.53,3.28,3.28,0,0,1,1.22-1.36l.28-.15s.4-.16.24-.11a.82.82,0,0,1,.26-.06,2.48,2.48,0,0,1,.5,0c2,.06,3.88,1.23,5.55,2.22a2.22,2.22,0,0,0,1.9-.06c.18-.07,1.34-.7.81-1Z" transform="translate(-59.17 -158.15)"/></svg>