<svg id="Capa_1" data-name="Capa 1" xmlns="http://www.w3.org/2000/svg" viewBox="0 0 612.72 220.98"><defs><style>.cls-1,.cls-2,.cls-4{fill:none;stroke-miterlimit:10;}.cls-1{stroke:#e41c19;}.cls-1,.cls-4{stroke-width:3px;}.cls-2{stroke:#6db52d;stroke-width:2px;}.cls-3{fill:#ef7d53;}.cls-4{stroke:#ef7d53;}.cls-5{fill:#e52723;}</style></defs><title>hess</title><rect class="cls-1" x="286.12" y="7.49" width="325.1" height="51.28"/><circle class="cls-2" cx="122.34" cy="32.35" r="24.85"/><circle class="cls-2" cx="198.75" cy="64.78" r="24.85"/><circle class="cls-2" cx="196.33" cy="150.9" r="24.85"/><path class="cls-3" d="M108.54,317.63l9.88-24h1.91l9.92,24Zm2.58-1.69h16.51l-8.25-20.11Z" transform="translate(-108.54 -206.63)"/><path class="cls-3" d="M142.2,305.45a44.26,44.26,0,0,0-7.51,2.28l-.28.58a34.4,34.4,0,0,0-3.27,8.83c-.11.65-.38,1-.79,1a1,1,0,0,1-.81-.45,1.25,1.25,0,0,1-.28-.76,10.13,10.13,0,0,1,.44-2.05,27,27,0,0,1,.92-2.73c.11-.3.48-1.15,1.1-2.57.16-.34.31-.7.46-1.07l-1,.42a1.34,1.34,0,0,1-.51.12c-.36,0-.54-.27-.54-.82a.92.92,0,0,1,.45-.83,6.8,6.8,0,0,1,1.25-.54l1.5-.58c.23-.41.68-1.26,1.33-2.53.12-.24.51-.91,1.18-2a68.24,68.24,0,0,0,3.73-6.85,16.39,16.39,0,0,1,1-2.1,1.06,1.06,0,0,1,.84-.45.72.72,0,0,1,.83.81q0,1.85-5,10a15.49,15.49,0,0,0-1.21,2.32l.88-.24c2.39-.69,4.56-1.3,6.52-1.81q2-3.74,5-8.27c.34-.53.54-.87.6-1,.28-.5.58-.75.89-.75a.83.83,0,0,1,.67.33,1,1,0,0,1,.21.62,4.18,4.18,0,0,1-.68,1.81c-.11.18-.59.93-1.45,2.25q-2.25,3.48-2.83,4.65c.34,0,.6-.05.78-.05.92,0,1.39.23,1.39.69a1.15,1.15,0,0,1-.44.82,1.08,1.08,0,0,1-.74.32H146a7.08,7.08,0,0,0-1.26.16,45,45,0,0,0-4.87,11.65c-.19.75-.48,1.13-.88,1.13a1.11,1.11,0,0,1-.86-.58,1.53,1.53,0,0,1-.27-.86Q137.89,314.58,142.2,305.45Z" transform="translate(-108.54 -206.63)"/><path class="cls-3" d="M150.34,322.92V311.08h-.07l-2.59,1.26-.4-1.87,3.39-1.59h2.19v14Z" transform="translate(-108.54 -206.63)"/><path class="cls-3" d="M169.07,308.86l1.57,0,2.21.06a3.83,3.83,0,0,1,1.55.21.65.65,0,0,1,.31.65.92.92,0,0,1-.31.74.72.72,0,0,1-.44.14,5.22,5.22,0,0,1-.63-.06c-.48,0-1.84-.07-4.06-.07a16.6,16.6,0,0,0-3,.2,3.72,3.72,0,0,1-.72.08.8.8,0,0,1-.72-.38.87.87,0,0,1-.14-.48c0-.52.31-.85.92-1A25.39,25.39,0,0,1,169.07,308.86Zm.71-3.85,1.58,0,2.21.06a3.83,3.83,0,0,1,1.55.21.65.65,0,0,1,.32.65.93.93,0,0,1-.32.74.7.7,0,0,1-.44.14,5.22,5.22,0,0,1-.63-.06c-.48,0-1.84-.07-4.06-.07a16.4,16.4,0,0,0-3,.2,4.06,4.06,0,0,1-.73.09.83.83,0,0,1-.73-.39.86.86,0,0,1-.13-.48c0-.52.31-.85.92-1A25.21,25.21,0,0,1,169.78,305Z" transform="translate(-108.54 -206.63)"/><path class="cls-3" d="M185.17,302.23a17.84,17.84,0,0,1-2.46,1.58,6.47,6.47,0,0,1-2.19.9q-.57,0-.57-.9a1,1,0,0,1,.14-.54,1.45,1.45,0,0,1,.67-.41,35.86,35.86,0,0,0,4.61-2.56,4.55,4.55,0,0,1,1.93-.86.84.84,0,0,1,.67.37.82.82,0,0,1,.19.52,3.57,3.57,0,0,1-.68,1.5,98.86,98.86,0,0,0-7,12.92,8.79,8.79,0,0,1-.69,1.42c-.22.32-.45.48-.67.48a.83.83,0,0,1-.63-.41.78.78,0,0,1-.18-.49c0-.63.91-2.72,2.71-6.26A57.38,57.38,0,0,1,185.17,302.23Z" transform="translate(-108.54 -206.63)"/><path class="cls-3" d="M198.92,300.58a2.69,2.69,0,0,1,1.41,1.19,4,4,0,0,1,.47,2.08,14.81,14.81,0,0,1-3.06,8.33q-3.31,4.8-6.36,4.8a2.43,2.43,0,0,1-2.27-1.56,5.61,5.61,0,0,1-.49-2.47,13.42,13.42,0,0,1,2.55-7.34,23.72,23.72,0,0,1,3.57-4.1c1.57-1.45,2.7-2.18,3.39-2.18C198.66,299.33,198.92,299.75,198.92,300.58Zm-2.29,1.26A17.92,17.92,0,0,0,193,306a12.29,12.29,0,0,0-2.27,6.73,3.63,3.63,0,0,0,.26,1.51,1.36,1.36,0,0,0,1.22.85c.8,0,1.77-.63,2.9-1.87a15.07,15.07,0,0,0,2.95-5.06,11.58,11.58,0,0,0,.82-3.83,2.79,2.79,0,0,0-.66-1.87,1.66,1.66,0,0,0-1.22-.58Z" transform="translate(-108.54 -206.63)"/><path class="cls-3" d="M211.22,300.58a2.67,2.67,0,0,1,1.42,1.19,4.13,4.13,0,0,1,.47,2.08,14.81,14.81,0,0,1-3.06,8.33q-3.33,4.8-6.37,4.8a2.41,2.41,0,0,1-2.26-1.56,5.61,5.61,0,0,1-.5-2.47,13.42,13.42,0,0,1,2.55-7.34,23.72,23.72,0,0,1,3.57-4.1c1.57-1.45,2.7-2.18,3.39-2.18C211,299.33,211.22,299.75,211.22,300.58Zm-2.28,1.26A18.19,18.19,0,0,0,205.3,306a12.37,12.37,0,0,0-2.27,6.73,3.46,3.46,0,0,0,.27,1.51,1.34,1.34,0,0,0,1.21.85c.81,0,1.78-.63,2.9-1.87a14.91,14.91,0,0,0,3-5.06,11.63,11.63,0,0,0,.83-3.83,2.75,2.75,0,0,0-.67-1.87,1.63,1.63,0,0,0-1.21-.58Z" transform="translate(-108.54 -206.63)"/><path class="cls-3" d="M234.77,239.7a51.39,51.39,0,0,0-8.91,2.48q-2.15,3.16-4.73,7.59L219.89,252c-.22.4-.56,1-1,1.69s-1,1.29-1.57,1.29a1.14,1.14,0,0,1-1.06-1,13.44,13.44,0,0,1,1.76-3.73q1-1.66,2.91-4.71c.5-.78.9-1.42,1.19-1.92a21.35,21.35,0,0,0-2.57.91,2.27,2.27,0,0,1-.94.26.81.81,0,0,1-.73-.42,1,1,0,0,1-.19-.61,1.17,1.17,0,0,1,.57-1.12,15.23,15.23,0,0,1,3.28-1.29,28.92,28.92,0,0,0,2.79-1q.48-.62,2.57-3.59.9-1.29,5.07-6.09a84.19,84.19,0,0,1,6.18-6.54c1.24-1.19,2.18-1.78,2.84-1.78a1.38,1.38,0,0,1,1.06.49,1.46,1.46,0,0,1,.37,1,7.46,7.46,0,0,1-.66,2.3c-.75,1.92-1.46,4-2.15,6.16-.6,1.94-1,3.43-1.2,4.46a3.26,3.26,0,0,0,.56,0l1.13,0c.91,0,1.36.34,1.36,1a1.59,1.59,0,0,1-.29.88,1.23,1.23,0,0,1-.67.53,3.92,3.92,0,0,1-.78,0,8.78,8.78,0,0,0-2,.17,82.63,82.63,0,0,0-1.78,8.51,54.82,54.82,0,0,0-.61,5.57c0,1.13-.33,1.69-1,1.69a1.36,1.36,0,0,1-1.24-.82,3,3,0,0,1-.33-1.52,45.53,45.53,0,0,1,1.15-8.72C234.29,242.1,234.58,240.68,234.77,239.7Zm.66-2.53c.14-.46.5-1.67,1.07-3.64.14-.51.5-1.54,1.08-3.07s1-2.84,1.38-3.79a18.12,18.12,0,0,0-3.09,2.67,64.49,64.49,0,0,0-7.8,9.72c.57-.14,1.82-.49,3.72-1.05C232.34,237.85,233.55,237.57,235.43,237.17Z" transform="translate(-108.54 -206.63)"/><path class="cls-3" d="M232.91,399.27a8.34,8.34,0,0,1,3.32,2,6.57,6.57,0,0,1,1.93,4.69,10.68,10.68,0,0,1-1.95,6.09,13.33,13.33,0,0,1-4.66,4.2,12.26,12.26,0,0,1-5.89,1.55,12.6,12.6,0,0,1-5.06-1.2c-.14.42-.22.7-.26.84q-.3,1.11-1,1.11a1.4,1.4,0,0,1-1.17-.78,2,2,0,0,1-.35-1.1,12.59,12.59,0,0,1,1-3.45q2.12-5.38,3.7-8.46c.66-1.26,2-3.67,4.08-7.21.91-1.54,2.21-3.62,3.92-6.26.4-.63.79-1.26,1.17-1.9a24.35,24.35,0,0,0-2.93,1.22,7.94,7.94,0,0,1-1.76.7.76.76,0,0,1-.61-.35,1.38,1.38,0,0,1-.26-.82,1.18,1.18,0,0,1,.5-1.06,17.73,17.73,0,0,1,3.18-1.57,22.16,22.16,0,0,1,7.76-1.94,6.22,6.22,0,0,1,4,1.24,3.85,3.85,0,0,1,1.55,3.12c0,2.58-1.49,4.8-4.48,6.68A25.33,25.33,0,0,1,232.91,399.27ZM221.26,414.6a9.84,9.84,0,0,0,1.17.61,7.51,7.51,0,0,0,2.67.4,9.5,9.5,0,0,0,8-4,10.86,10.86,0,0,0,2.56-6.58,4,4,0,0,0-2-3.49,4.79,4.79,0,0,0-2.69-.75,8.78,8.78,0,0,0-1.74.25,1.51,1.51,0,0,1-.42.05c-.37,0-.69-.27-.94-.82a62.41,62.41,0,0,0-4.21,8A66.56,66.56,0,0,0,221.26,414.6Zm8.13-16.78a22.2,22.2,0,0,0,7.5-2.84q4.08-2.46,4.08-4.9a2,2,0,0,0-1.08-1.76,3.85,3.85,0,0,0-2-.42,9.47,9.47,0,0,0-1.76.18,15.22,15.22,0,0,0-2,.53.9.9,0,0,1,.4.75,3.17,3.17,0,0,1-.77,1.64c-.17.23-.49.69-.94,1.38-.17.3-.7,1.08-1.57,2.37A32.84,32.84,0,0,0,229.39,397.82Z" transform="translate(-108.54 -206.63)"/><path class="cls-3" d="M314.6,254.88A2.83,2.83,0,0,1,317,256a3.46,3.46,0,0,1,.68,2.16,11.51,11.51,0,0,1-1.52,5.18,18.89,18.89,0,0,1-3.33,4.5c-.88.86-1.56,1.29-2.06,1.29a1.22,1.22,0,0,1-.92-.5,1.18,1.18,0,0,1-.3-.79c0-.55.48-1.18,1.43-1.88a13.61,13.61,0,0,0,3.21-3.28,8.3,8.3,0,0,0,1.76-4.36,1.6,1.6,0,0,0-.32-1.08,1.23,1.23,0,0,0-.95-.35c-.86,0-2.08.63-3.65,1.88a37.68,37.68,0,0,0-5.7,5.74,39.9,39.9,0,0,0-5.81,9.09,20.17,20.17,0,0,0-2.06,7.92,4.07,4.07,0,0,0,.91,2.68,3.08,3.08,0,0,0,2.46,1.24q2.54,0,6.37-3.94A32.25,32.25,0,0,0,310,278a17.86,17.86,0,0,0,1.39-2.06c.23-.45.5-.68.82-.68s.51.16.51.49q0,1.05-2.62,4.74a22.39,22.39,0,0,1-4.81,5,9.58,9.58,0,0,1-5.58,2.18,4.72,4.72,0,0,1-4.24-2.46,6.74,6.74,0,0,1-1-3.59q0-5.06,4.78-12.77a47.75,47.75,0,0,1,8.6-10.57C310.5,256,312.74,254.88,314.6,254.88Z" transform="translate(-108.54 -206.63)"/><path class="cls-3" d="M304.78,344.11a9.55,9.55,0,0,0-1.2.79,2.9,2.9,0,0,1-1.5.85.93.93,0,0,1-.68-.31,1,1,0,0,1-.33-.72q0-.87,2.28-2.58a12.52,12.52,0,0,1,7.69-2.63,6.58,6.58,0,0,1,5.17,2.14,6.65,6.65,0,0,1,1.74,4.64q0,4.5-3.33,10.57a36.25,36.25,0,0,1-10.12,11.76c-3.08,2.32-5.82,3.47-8.21,3.47a2.68,2.68,0,0,1-2.13-.84,2.32,2.32,0,0,1-.59-1.5,21.87,21.87,0,0,1,1.55-5.39,125.88,125.88,0,0,1,5.81-13.1Q301.45,350.23,304.78,344.11ZM307,343c.47.23.7.49.7.77a7.12,7.12,0,0,1-.89,1.92,150.54,150.54,0,0,0-7.4,15q-2.75,6.47-2.74,8c0,.62.29.93.89.93a8.38,8.38,0,0,0,4-1.61,30.75,30.75,0,0,0,7-6.68,36.49,36.49,0,0,0,5.43-9,16.83,16.83,0,0,0,1.55-6.49,4.13,4.13,0,0,0-1-3,4,4,0,0,0-3-1A11.56,11.56,0,0,0,307,343Z" transform="translate(-108.54 -206.63)"/><line class="cls-4" x1="121.7" y1="57.75" x2="121.7" y2="162.07"/><line class="cls-4" x1="107.42" y1="145.7" x2="121.7" y2="163.08"/><line class="cls-4" x1="135" y1="146.38" x2="120.72" y2="163.76"/><path class="cls-3" d="M256.28,239.72l10.54,5.1a60.72,60.72,0,0,1,9.15,5,53.79,53.79,0,0,1,7.7,7.39q3.84,4.13,7.47,8.45c.7.82,3.48-.23,2.68-1.18q-3.63-4.31-7.47-8.45a58.45,58.45,0,0,0-7.74-7.43,57.35,57.35,0,0,0-9.28-5.19l-10.77-5.21a2.23,2.23,0,0,0-2.06.25c-.39.26-.87.92-.22,1.23Z" transform="translate(-108.54 -206.63)"/><path class="cls-3" d="M281.54,261.84l8.38,4a2.68,2.68,0,0,0,2-.32c.37-.21.9-.67.31-1l-8.39-4a2.6,2.6,0,0,0-2,.32c-.37.2-.89.66-.3.94Z" transform="translate(-108.54 -206.63)"/><path class="cls-3" d="M294,265.28a63.81,63.81,0,0,1,.4-8.85c.17-1.41-2.78-1-2.93.26a62.15,62.15,0,0,0-.39,8.84c0,.69.7,1,1.32.88s1.62-.43,1.6-1.13Z" transform="translate(-108.54 -206.63)"/><path class="cls-3" d="M315.46,285.21a73.8,73.8,0,0,1,9,23.92,70.39,70.39,0,0,1,1.26,12.71c0,3.94-.4,8-2.85,11.25-.44.58.37,1,.82,1a2.23,2.23,0,0,0,1.9-.83c2.47-3.24,3-7.35,3-11.31a72.62,72.62,0,0,0-1.19-13.16,74.74,74.74,0,0,0-9.3-24.75c-.54-.92-3.35,0-2.67,1.18Z" transform="translate(-108.54 -206.63)"/><path class="cls-3" d="M319.4,327.75l.5,5,.25,2.4a2.09,2.09,0,0,0,.22,1,1.44,1.44,0,0,0,1.16.57,5.44,5.44,0,0,0,2.61-.81l2.19-1,4.54-2.12c.46-.22,1.16-.81.73-1.35s-1.43-.38-2-.14l-3.87,1.81-1.94.91-.93.43a5.16,5.16,0,0,0-1,.47l.16,0c.79.48,1.14.49,1,0a2.38,2.38,0,0,0,0-.46l-.11-1-.22-2.22L322.3,327c0-.26-.39-.45-.6-.51a2,2,0,0,0-1.09,0c-.58.17-1.28.56-1.21,1.26Z" transform="translate(-108.54 -206.63)"/><path class="cls-3" d="M288.11,381.4c-1,3.2-3.7,5.28-6.38,7.1a56.73,56.73,0,0,1-29.12,9.73c-.56,0-1.63.19-1.93.75s.25.74.75.71a63.69,63.69,0,0,0,22.72-5.37,62.45,62.45,0,0,0,10-5.62c2.86-2,5.72-4.3,6.8-7.72.27-.85-2.6-.47-2.88.42Z" transform="translate(-108.54 -206.63)"/><path class="cls-3" d="M249.66,399.43l3.35,4.8c.15.21.57.27.79.29a2.62,2.62,0,0,0,1.14-.23c.44-.2,1.14-.67.76-1.22l-3.36-4.8a1.14,1.14,0,0,0-.79-.28,2.47,2.47,0,0,0-1.14.22c-.44.2-1.14.67-.75,1.22Z" transform="translate(-108.54 -206.63)"/><path class="cls-3" d="M252,399a12.72,12.72,0,0,1,.58-1.17l.34-.57c.08-.14-.14.21,0,.08s.07-.11.1-.16l.19-.27a11.46,11.46,0,0,1,.81-1c.13-.16.28-.31.42-.47l.23-.24c.08-.07.39-.37.07-.07a1.29,1.29,0,0,0,.51-.78.83.83,0,0,0-.36-.75,1.86,1.86,0,0,0-2.08.17,15.34,15.34,0,0,0-3.54,4.9.93.93,0,0,0,.89,1.25A1.88,1.88,0,0,0,252,399Z" transform="translate(-108.54 -206.63)"/><path class="cls-3" d="M284,232l9.88-24h1.92l9.91,24Zm2.59-1.69h16.5l-8.24-20.11Z" transform="translate(-108.54 -206.63)"/><path class="cls-3" d="M317.67,219.77a44,44,0,0,0-7.51,2.28c-.09.19-.19.38-.28.58a33.75,33.75,0,0,0-3.27,8.82c-.12.66-.38,1-.79,1A1,1,0,0,1,305,232a1.15,1.15,0,0,1-.28-.75,10.13,10.13,0,0,1,.44-2,28.33,28.33,0,0,1,.91-2.74c.12-.29.49-1.14,1.11-2.56l.46-1.07q-.37.13-1,.42a1.34,1.34,0,0,1-.51.12c-.37,0-.55-.27-.55-.83a.9.9,0,0,1,.46-.82,6.36,6.36,0,0,1,1.25-.55c.63-.23,1.13-.42,1.49-.58.24-.41.68-1.25,1.34-2.53.11-.23.51-.9,1.18-2a65.38,65.38,0,0,0,3.72-6.86,16.75,16.75,0,0,1,1-2.09,1,1,0,0,1,.84-.46.73.73,0,0,1,.83.81q0,1.84-5,10a14.19,14.19,0,0,0-1.21,2.32l.87-.25c2.4-.69,4.57-1.29,6.53-1.81,1.34-2.48,3-5.23,4.95-8.26.34-.54.54-.87.6-1,.28-.5.58-.76.9-.76a.84.84,0,0,1,.67.34,1,1,0,0,1,.21.61,4.05,4.05,0,0,1-.69,1.81c-.1.19-.59.94-1.44,2.25-1.5,2.32-2.44,3.88-2.83,4.66.34,0,.6,0,.77,0,.93,0,1.39.23,1.39.68a1.15,1.15,0,0,1-.44.83,1.06,1.06,0,0,1-.74.32h-.68a7.17,7.17,0,0,0-1.27.16,45.69,45.69,0,0,0-4.87,11.65c-.18.75-.48,1.12-.88,1.12a1.1,1.1,0,0,1-.86-.58,1.55,1.55,0,0,1-.26-.86Q313.36,228.91,317.67,219.77Z" transform="translate(-108.54 -206.63)"/><path class="cls-3" d="M322.39,235.91l2.26-2.13c3-2.7,4.54-4.39,4.54-6.22a2.44,2.44,0,0,0-2.74-2.52,5.46,5.46,0,0,0-3,1.11l-.76-1.62a7,7,0,0,1,4.4-1.51c3.38,0,4.78,2.12,4.78,4.07,0,2.7-2.05,4.68-4.78,7.09l-1.12,1v.07h6.16v2h-9.72Z" transform="translate(-108.54 -206.63)"/><path class="cls-3" d="M343.92,315.94l9.88-24h1.92l9.91,24Zm2.59-1.68H363l-8.24-20.11Z" transform="translate(-108.54 -206.63)"/><path class="cls-3" d="M377.58,303.76a44.23,44.23,0,0,0-7.5,2.29c-.09.18-.19.38-.28.58a33.49,33.49,0,0,0-3.27,8.82c-.12.66-.38,1-.79,1a1,1,0,0,1-.81-.46,1.19,1.19,0,0,1-.28-.76,9.39,9.39,0,0,1,.44-2,25.83,25.83,0,0,1,.91-2.74c.12-.29.49-1.15,1.11-2.56.15-.34.3-.7.46-1.08l-1,.43a1.34,1.34,0,0,1-.51.12c-.37,0-.55-.28-.55-.83a.89.89,0,0,1,.46-.82,5.81,5.81,0,0,1,1.25-.55c.63-.23,1.13-.43,1.49-.58.23-.41.68-1.25,1.34-2.53.11-.23.51-.9,1.17-2a67.09,67.09,0,0,0,3.73-6.86,16,16,0,0,1,1-2.09,1,1,0,0,1,.84-.46.72.72,0,0,1,.82.81q0,1.85-5,10a15.19,15.19,0,0,0-1.22,2.32l.88-.25q3.58-1,6.53-1.81c1.34-2.48,3-5.24,4.95-8.26.34-.54.54-.87.6-1,.28-.51.58-.76.9-.76a.8.8,0,0,1,.66.33,1,1,0,0,1,.22.62,4.05,4.05,0,0,1-.69,1.81q-.17.29-1.44,2.25c-1.5,2.32-2.45,3.87-2.83,4.66a6.68,6.68,0,0,1,.77-.05c.93,0,1.39.22,1.39.68a1.17,1.17,0,0,1-.44.83,1,1,0,0,1-.74.31h-.68a8.27,8.27,0,0,0-1.27.16,45.38,45.38,0,0,0-4.87,11.66c-.19.75-.48,1.12-.88,1.12a1.1,1.1,0,0,1-.86-.58,1.58,1.58,0,0,1-.26-.86Q373.28,312.91,377.58,303.76Z" transform="translate(-108.54 -206.63)"/><path class="cls-3" d="M382.88,308.13A8,8,0,0,1,387,307c3.1,0,4.39,1.65,4.39,3.38a3.57,3.57,0,0,1-2.77,3.24v.07A3.59,3.59,0,0,1,392,317.2c0,2.24-2,4.22-5.69,4.22a7.93,7.93,0,0,1-4.1-1l.65-1.8a6.8,6.8,0,0,0,3.34.93c2.2,0,3.17-1.29,3.14-2.41,0-1.8-1.91-2.52-3.82-2.52h-1V313h1c1.34,0,3.25-.62,3.28-2.31,0-.86-.65-1.76-2.27-1.76a5.89,5.89,0,0,0-3.06.93Z" transform="translate(-108.54 -206.63)"/><path class="cls-3" d="M278.31,420.39l9.88-24h1.92l9.91,24Zm2.59-1.69h16.5l-8.24-20.11Z" transform="translate(-108.54 -206.63)"/><path class="cls-3" d="M312,408.21a44,44,0,0,0-7.51,2.28l-.28.58a33.67,33.67,0,0,0-3.27,8.83c-.12.65-.38,1-.79,1a1,1,0,0,1-.81-.45,1.19,1.19,0,0,1-.28-.76,9.44,9.44,0,0,1,.44-2.05,27.19,27.19,0,0,1,.91-2.73c.12-.29.49-1.15,1.11-2.57l.46-1.07q-.37.13-1,.42a1.34,1.34,0,0,1-.51.12c-.37,0-.55-.27-.55-.82a.92.92,0,0,1,.46-.83,6.49,6.49,0,0,1,1.25-.54l1.49-.58c.24-.41.68-1.26,1.34-2.53.11-.24.51-.91,1.17-2a66.18,66.18,0,0,0,3.73-6.85,16,16,0,0,1,1-2.09,1,1,0,0,1,.84-.46.73.73,0,0,1,.83.81q0,1.85-5,10a14.6,14.6,0,0,0-1.21,2.32l.87-.24c2.39-.69,4.57-1.3,6.53-1.81,1.34-2.49,3-5.24,4.95-8.26.34-.54.54-.88.6-1q.42-.75.9-.75a.8.8,0,0,1,.66.33,1,1,0,0,1,.22.62,4.09,4.09,0,0,1-.69,1.81l-1.44,2.25q-2.25,3.48-2.83,4.66a7.25,7.25,0,0,1,.77-.06c.93,0,1.39.23,1.39.69a1.13,1.13,0,0,1-.44.82,1,1,0,0,1-.74.32h-.68a7.17,7.17,0,0,0-1.27.16,45.33,45.33,0,0,0-4.87,11.65c-.18.75-.48,1.13-.88,1.13a1.1,1.1,0,0,1-.86-.58,1.6,1.6,0,0,1-.26-.86Q307.67,417.35,312,408.21Z" transform="translate(-108.54 -206.63)"/><path class="cls-3" d="M323.64,425.68V422h-6.8v-1.44l6.37-9h2.85v8.64h2V422h-2v3.71Zm0-9.72c0-.79.08-1.54.11-2.26h-.07a23.49,23.49,0,0,1-1.22,2.12l-3.14,4.32,0,.07h4.28Z" transform="translate(-108.54 -206.63)"/><circle class="cls-2" cx="122.34" cy="195.13" r="24.85"/><path class="cls-3" d="M251.15,399.19A30.64,30.64,0,0,0,262.57,398c3.72-1,7.44-2.06,11.06-3.36,6.47-2.33,12.77-5.73,16.83-11.45,1.08-1.52-1.63-2.12-2.45-1-3.72,5.23-9.46,8.33-15.39,10.42-3.26,1.15-6.6,2.1-9.93,3A27.7,27.7,0,0,1,252.12,397a1.82,1.82,0,0,0-1.88.91,1,1,0,0,0,.91,1.32Z" transform="translate(-108.54 -206.63)"/><path class="cls-3" d="M408.43,250.14l9.88-24h1.91l9.92,24Zm2.58-1.69h16.51l-8.25-20.11Z" transform="translate(-108.54 -206.63)"/><path class="cls-3" d="M442.09,238a44.26,44.26,0,0,0-7.51,2.28c-.09.19-.18.39-.28.58a34.4,34.4,0,0,0-3.27,8.83c-.11.65-.38,1-.79,1a1,1,0,0,1-.81-.45,1.25,1.25,0,0,1-.28-.76,10.13,10.13,0,0,1,.44-2,27,27,0,0,1,.92-2.73c.11-.29.48-1.15,1.1-2.57.16-.34.31-.69.46-1.07l-1,.42a1.34,1.34,0,0,1-.51.12c-.36,0-.54-.27-.54-.82a.93.93,0,0,1,.45-.83,6.8,6.8,0,0,1,1.25-.54l1.5-.58c.23-.41.68-1.26,1.33-2.53.12-.24.51-.91,1.18-2a68.24,68.24,0,0,0,3.73-6.85,15.2,15.2,0,0,1,1-2.09,1,1,0,0,1,.84-.46.72.72,0,0,1,.83.81q0,1.85-5,10a15.49,15.49,0,0,0-1.21,2.32l.88-.24c2.39-.69,4.56-1.3,6.52-1.81q2-3.74,5-8.26c.34-.54.54-.88.6-1,.28-.5.58-.75.89-.75a.83.83,0,0,1,.67.33,1,1,0,0,1,.21.62,4.18,4.18,0,0,1-.68,1.81c-.11.18-.59.93-1.45,2.25q-2.25,3.48-2.83,4.66a7.21,7.21,0,0,1,.78-.06c.92,0,1.39.23,1.39.69a1.13,1.13,0,0,1-.44.82,1,1,0,0,1-.74.32h-.69a7.08,7.08,0,0,0-1.26.16,45,45,0,0,0-4.87,11.65c-.19.75-.48,1.13-.88,1.13a1.09,1.09,0,0,1-.86-.58,1.53,1.53,0,0,1-.27-.86Q437.78,247.1,442.09,238Z" transform="translate(-108.54 -206.63)"/><path class="cls-3" d="M446.81,254.1l2.27-2.12c3-2.7,4.53-4.4,4.53-6.23a2.44,2.44,0,0,0-2.73-2.52,5.46,5.46,0,0,0-3,1.12l-.76-1.62a7,7,0,0,1,4.39-1.52c3.39,0,4.79,2.13,4.79,4.07,0,2.7-2,4.68-4.79,7.09l-1.11,1v.07h6.15v2h-9.72Z" transform="translate(-108.54 -206.63)"/><path class="cls-3" d="M471.85,239.45c.6-1.33,1.13-2.44,1.6-3.32s1-1.3,1.6-1.3c.26,0,.38.14.38.42a7.63,7.63,0,0,1-.79,2.08l-1,2.16,2,0a3.68,3.68,0,0,1,1.54.21.64.64,0,0,1,.32.65c0,.59-.25.88-.75.88-.13,0-.34,0-.64-.05s-1.08,0-2.56,0l-.64,0c-.38.91-.76,1.88-1.12,2.9a9.78,9.78,0,0,1-.81,1.86,1,1,0,0,1-.83.56.67.67,0,0,1-.44-.15.61.61,0,0,1-.22-.48,21.77,21.77,0,0,1,1.61-4.66,19,19,0,0,0-2,.16,4.34,4.34,0,0,1-.76.09.81.81,0,0,1-.7-.39.86.86,0,0,1-.14-.47c0-.53.3-.86.91-1,.32-.05,1.31-.1,3-.14Z" transform="translate(-108.54 -206.63)"/><path class="cls-3" d="M490.46,250.14l9.88-24h1.92l9.91,24Zm2.59-1.69h16.5l-8.24-20.11Z" transform="translate(-108.54 -206.63)"/><path class="cls-3" d="M524.13,238a44,44,0,0,0-7.51,2.28l-.28.58a33.67,33.67,0,0,0-3.27,8.83c-.12.65-.38,1-.79,1a1,1,0,0,1-.81-.45,1.19,1.19,0,0,1-.28-.76,9.44,9.44,0,0,1,.44-2,27.19,27.19,0,0,1,.91-2.73c.12-.29.49-1.15,1.11-2.57l.46-1.07q-.37.13-1,.42a1.34,1.34,0,0,1-.51.12c-.37,0-.55-.27-.55-.82a.92.92,0,0,1,.46-.83,6.49,6.49,0,0,1,1.25-.54l1.49-.58c.24-.41.68-1.26,1.34-2.53.11-.24.51-.91,1.18-2a65.53,65.53,0,0,0,3.72-6.85,16,16,0,0,1,1-2.09,1,1,0,0,1,.84-.46.73.73,0,0,1,.83.81q0,1.85-5,10a14.6,14.6,0,0,0-1.21,2.32l.87-.24c2.4-.69,4.57-1.3,6.53-1.81,1.34-2.49,3-5.24,5-8.26.34-.54.54-.88.6-1q.42-.75.9-.75a.83.83,0,0,1,.67.33,1,1,0,0,1,.21.62,4.09,4.09,0,0,1-.69,1.81c-.1.18-.59.93-1.44,2.25q-2.25,3.48-2.83,4.66a7.25,7.25,0,0,1,.77-.06c.93,0,1.39.23,1.39.69a1.13,1.13,0,0,1-.44.82,1,1,0,0,1-.74.32H528a7.17,7.17,0,0,0-1.27.16,45.33,45.33,0,0,0-4.87,11.65c-.18.75-.48,1.13-.88,1.13a1.1,1.1,0,0,1-.86-.58,1.6,1.6,0,0,1-.26-.86Q519.82,247.1,524.13,238Z" transform="translate(-108.54 -206.63)"/><path class="cls-3" d="M529.42,242.33a8,8,0,0,1,4.14-1.12c3.1,0,4.39,1.66,4.39,3.39a3.57,3.57,0,0,1-2.77,3.24v.07a3.58,3.58,0,0,1,3.35,3.49c0,2.23-2,4.21-5.69,4.21a8,8,0,0,1-4.1-1l.65-1.8a6.68,6.68,0,0,0,3.34.94c2.2,0,3.17-1.3,3.14-2.41,0-1.8-1.91-2.52-3.82-2.52h-1v-1.66h1c1.33,0,3.24-.61,3.27-2.3,0-.86-.65-1.76-2.27-1.76A5.82,5.82,0,0,0,530,244Z" transform="translate(-108.54 -206.63)"/><path class="cls-3" d="M558.91,231v8.46H567v2.16h-8.13v8.53H556.6v-8.53h-8.13v-2.16h8.13V231Z" transform="translate(-108.54 -206.63)"/><path class="cls-3" d="M578.7,250.14l9.88-24h1.91l9.92,24Zm2.58-1.69h16.51l-8.25-20.11Z" transform="translate(-108.54 -206.63)"/><path class="cls-3" d="M612.36,238a44.26,44.26,0,0,0-7.51,2.28c-.09.19-.18.39-.28.58a34.4,34.4,0,0,0-3.27,8.83c-.11.65-.38,1-.79,1a1,1,0,0,1-.81-.45,1.25,1.25,0,0,1-.28-.76,10.13,10.13,0,0,1,.44-2,27,27,0,0,1,.92-2.73c.11-.29.48-1.15,1.1-2.57.16-.34.31-.69.46-1.07q-.37.13-1,.42a1.34,1.34,0,0,1-.51.12c-.36,0-.54-.27-.54-.82a.93.93,0,0,1,.45-.83,6.8,6.8,0,0,1,1.25-.54l1.5-.58c.23-.41.68-1.26,1.33-2.53.12-.24.51-.91,1.18-2a68.24,68.24,0,0,0,3.73-6.85,15.2,15.2,0,0,1,1-2.09,1,1,0,0,1,.84-.46.73.73,0,0,1,.83.81q0,1.85-5,10a15.49,15.49,0,0,0-1.21,2.32l.88-.24c2.39-.69,4.56-1.3,6.52-1.81q2-3.74,5-8.26c.34-.54.54-.88.6-1,.28-.5.58-.75.89-.75a.83.83,0,0,1,.67.33,1,1,0,0,1,.21.62,4.18,4.18,0,0,1-.68,1.81c-.11.18-.59.93-1.45,2.25q-2.25,3.48-2.83,4.66a7.21,7.21,0,0,1,.78-.06c.92,0,1.39.23,1.39.69a1.13,1.13,0,0,1-.44.82,1,1,0,0,1-.74.32h-.69a7.08,7.08,0,0,0-1.26.16,45,45,0,0,0-4.87,11.65c-.19.75-.48,1.13-.88,1.13a1.09,1.09,0,0,1-.86-.58,1.53,1.53,0,0,1-.27-.86Q608.05,247.1,612.36,238Z" transform="translate(-108.54 -206.63)"/><path class="cls-3" d="M624,255.43v-3.71h-6.8v-1.44l6.37-9h2.84V250h2v1.76h-2v3.71Zm0-9.72c0-.79.07-1.54.11-2.26h-.08a23.49,23.49,0,0,1-1.22,2.12l-3.13,4.32,0,.07H624Z" transform="translate(-108.54 -206.63)"/><path class="cls-3" d="M641.57,241.37l1.57,0,2.21.06a3.83,3.83,0,0,1,1.55.21.65.65,0,0,1,.31.65.92.92,0,0,1-.31.74.72.72,0,0,1-.44.14,5.22,5.22,0,0,1-.63-.06c-.48,0-1.84-.07-4.06-.07a16.6,16.6,0,0,0-3,.2,3.87,3.87,0,0,1-.72.09.81.81,0,0,1-.72-.39.87.87,0,0,1-.14-.48c0-.52.31-.85.92-1A25.39,25.39,0,0,1,641.57,241.37Zm.71-3.85,1.58,0,2.21.06a3.83,3.83,0,0,1,1.55.21.65.65,0,0,1,.32.65.92.92,0,0,1-.32.74.7.7,0,0,1-.44.14,5.22,5.22,0,0,1-.63-.06c-.48,0-1.84-.07-4.06-.07a16.4,16.4,0,0,0-3,.2,4.06,4.06,0,0,1-.73.09.83.83,0,0,1-.73-.39.86.86,0,0,1-.13-.48c0-.52.31-.85.92-1A25.21,25.21,0,0,1,642.28,237.52Z" transform="translate(-108.54 -206.63)"/><path class="cls-3" d="M660.66,250.14l9.88-24h1.92l9.91,24Zm2.59-1.69h16.5l-8.24-20.11Z" transform="translate(-108.54 -206.63)"/><path class="cls-3" d="M694.32,238a44.16,44.16,0,0,0-7.5,2.28c-.1.19-.19.39-.28.58a33.67,33.67,0,0,0-3.27,8.83c-.12.65-.38,1-.79,1a1,1,0,0,1-.81-.45,1.19,1.19,0,0,1-.28-.76,9.44,9.44,0,0,1,.44-2,24.87,24.87,0,0,1,.91-2.73c.12-.29.49-1.15,1.11-2.57.15-.34.3-.69.45-1.07-.24.09-.58.23-1,.42a1.34,1.34,0,0,1-.51.12c-.37,0-.55-.27-.55-.82a.92.92,0,0,1,.46-.83,6.49,6.49,0,0,1,1.25-.54l1.49-.58c.23-.41.68-1.26,1.34-2.53.11-.24.51-.91,1.17-2a66.18,66.18,0,0,0,3.73-6.85,18.46,18.46,0,0,1,1-2.09,1,1,0,0,1,.85-.46.72.72,0,0,1,.82.81q0,1.85-5,10a15.67,15.67,0,0,0-1.22,2.32l.88-.24c2.39-.69,4.57-1.3,6.52-1.81q2-3.74,5-8.26c.34-.54.54-.88.6-1q.42-.75.9-.75a.8.8,0,0,1,.66.33,1,1,0,0,1,.21.62,4,4,0,0,1-.68,1.81l-1.44,2.25c-1.5,2.32-2.45,3.87-2.83,4.66a7.25,7.25,0,0,1,.77-.06c.93,0,1.39.23,1.39.69a1.13,1.13,0,0,1-.44.82,1,1,0,0,1-.74.32h-.68a7.17,7.17,0,0,0-1.27.16A45.33,45.33,0,0,0,692,249.1c-.19.75-.48,1.13-.88,1.13a1.1,1.1,0,0,1-.86-.58,1.6,1.6,0,0,1-.26-.86Q690,247.1,694.32,238Z" transform="translate(-108.54 -206.63)"/><path class="cls-3" d="M702.46,255.43V243.59h-.07l-2.59,1.26-.39-1.87,3.38-1.59H705v14Z" transform="translate(-108.54 -206.63)"/><path class="cls-5" d="M488.21,275.17c.56,0,.84.58.84,1.76a14.07,14.07,0,0,1,1.2,5.13q.21,2.08.42,5.7c.05,0,.07.05.07.14l-.21,1.33c.19.93.37,2.53.56,4.78v.07a5.17,5.17,0,0,1-.07.78,9.33,9.33,0,0,1,.49,2.67,1.58,1.58,0,0,1-.28.84,21.14,21.14,0,0,0,.42,2.11c-.3,1.18-.68,1.76-1.19,1.76,0,.19-.42.33-1.27.42-1.55-.26-2.32-.61-2.32-1.05q-.31,0-.84-5.84h-.49c-.55,0-.83.09-.85.21a9.21,9.21,0,0,1,.14,1.06,3.2,3.2,0,0,0-.07.42,1.18,1.18,0,0,1,.21.56v.28l-.35,1.34c0,.74-.19,1.21-.56,1.4a4,4,0,0,1-2.11.5h-.07c-1.27,0-1.9-.2-1.9-.57-.26,0-.63-1.12-1.12-3.37-.29-.62-.58-3.22-.92-7.81l.14-5.55a7.68,7.68,0,0,1-.07-.91c.05-.9.07-1.5.07-1.76-.05-.86-.07-1.41-.07-1.62.09-1,.14-1.56.14-1.69a4.87,4.87,0,0,1-.21-1.19c0-.39.62-.74,1.83-1.06a8.4,8.4,0,0,0,2.11.28c.79,0,1.32,1.53,1.55,4.57.19,1.15.4,3.27.63,6.4.05,0,.09.16.14.5a2.81,2.81,0,0,0-.14,1,5.24,5.24,0,0,1,.21,1.34c0,.4,0,1.28-.07,2.67.05.51.16.77.28.77a1.78,1.78,0,0,0,1.27-.63h.07v-.49a30.51,30.51,0,0,0-.5-4.43c.09-.94.14-1.5.14-1.69a17.25,17.25,0,0,1-.28-2.88v-1.34c0-1.25,0-2.65.07-4.22a10.68,10.68,0,0,1-.07-1.48,1.94,1.94,0,0,1,1.83-1.19Z" transform="translate(-108.54 -206.63)"/><path class="cls-5" d="M499.53,274.71l.49-.07c1.41,0,2.11.21,2.11.63,0,.8-.3,1.25-.92,1.41a12.22,12.22,0,0,1-2.25.7l-.14-.07c-.05,0-.07,0-.07.07l-.49-.07H497v.07c.19.62.54,1.55,1.05,2.82l-.07.49v.21c0,.42.18.63.35.63.46,0,1.3,0,2.53-.07.57,0,.85.21.85.64v.21c0,.82-1,1.42-3.1,1.82h-.14v.14a21.29,21.29,0,0,1,.35,3.1V289a6.91,6.91,0,0,1-.14,1.26c.06.63.07,1.11.07,1.41a5.59,5.59,0,0,1-.07.77,6,6,0,0,1,.43,1.41c-.2,2-.29,3.3-.29,3.79.07,1.18.34,1.76.78,1.76,2.34.2,3.51.37,3.51.56a1.51,1.51,0,0,1,.21.64c0,.75-1.26,1.49-3.79,2.25a6,6,0,0,1-1.69.21,7.7,7.7,0,0,1-4.22-1.41,4.48,4.48,0,0,1-.42-2.39,24,24,0,0,1-.35-4.15c-.09,0-.14-.19-.14-.56a11.34,11.34,0,0,1,.07-1.34c-.09-.93-.16-2.54-.21-4.85a6.51,6.51,0,0,0,.07-1.05,13.51,13.51,0,0,1-.28-2.11c.05-1.88.07-3.17.07-3.87a4.29,4.29,0,0,0-.22-1.55,9.18,9.18,0,0,0,.08-1.12v-.35c0-.05,0-.07.07-.07a7.61,7.61,0,0,1-.5-2c0-.28.48-.55,1.41-.77l4.92-.57c0-.08.23-.12.7-.14h.5c.05,0,.07,0,.07-.07S499.53,274.66,499.53,274.71Z" transform="translate(-108.54 -206.63)"/><path class="cls-5" d="M513,276.28v.14c0,.33-.28.67-.84,1a4.86,4.86,0,0,0-1.83,3.94c0,1.16,1.08,3,3.24,5.41.7.92,1.28,2.69,1.75,5.35l.22,1.4v.14l-.36,1.83a3.44,3.44,0,0,1-.35,1.62,3,3,0,0,1-.77,2.25,4.16,4.16,0,0,0-.77,1.41,3.06,3.06,0,0,0-1.34.77,1.12,1.12,0,0,1-.63.28h-.5a2.8,2.8,0,0,1-2.25.91h-.35a4.52,4.52,0,0,1-2.81-1.54,6.89,6.89,0,0,1-1.69-4.36v-.28a2,2,0,0,1,1.9-1.55h.49c.64,0,1,.63,1.2,1.9.42,1.49.79,2.25,1.12,2.25a5.06,5.06,0,0,0,1.13-2.18v-2.74a12,12,0,0,0-.7-4.08,4.7,4.7,0,0,1-.5-1.62,14.13,14.13,0,0,1-2.18-3.94,14.29,14.29,0,0,1-.7-4.07,4.28,4.28,0,0,1,1.41-3.17,9.94,9.94,0,0,1,.7-1.12c.26-.3,1.21-.58,2.88-.85C512.13,275.36,513,275.66,513,276.28Z" transform="translate(-108.54 -206.63)"/><path class="cls-5" d="M525.16,276.28v.14c0,.33-.28.67-.85,1a4.86,4.86,0,0,0-1.83,3.94c0,1.16,1.08,3,3.24,5.41.7.92,1.28,2.69,1.76,5.35l.21,1.4v.14l-.35,1.83a3.43,3.43,0,0,1-.36,1.62,3,3,0,0,1-.77,2.25,4.16,4.16,0,0,0-.77,1.41,3.06,3.06,0,0,0-1.34.77,1.09,1.09,0,0,1-.63.28H523a2.83,2.83,0,0,1-2.25.91h-.35a4.51,4.51,0,0,1-2.82-1.54,6.88,6.88,0,0,1-1.68-4.36v-.28a2,2,0,0,1,1.89-1.55h.5c.63,0,1,.63,1.19,1.9.42,1.49.79,2.25,1.13,2.25a5.12,5.12,0,0,0,1.12-2.18v-2.74a12,12,0,0,0-.7-4.08,4.5,4.5,0,0,1-.49-1.62,13.87,13.87,0,0,1-2.18-3.94,14.21,14.21,0,0,1-.71-4.07,4.28,4.28,0,0,1,1.41-3.17,9.94,9.94,0,0,1,.7-1.12c.27-.3,1.22-.58,2.89-.85C524.31,275.36,525.16,275.66,525.16,276.28Z" transform="translate(-108.54 -206.63)"/><path class="cls-5" d="M529.38,296.6l12.79-15.3-4.08,0v-1.51l11.85-1,.86.72,1,11.85-1.47.26-.67-4L536.9,302.91l-1.92-1.6,14-16.79-.6-3.06-3.06-.07L531.29,298.2Z" transform="translate(-108.54 -206.63)"/></svg>