<svg id="Capa_1" data-name="Capa 1" xmlns="http://www.w3.org/2000/svg" viewBox="0 0 1103.63 483.58"><defs><style>.cls-1{fill:#f18a4f;}.cls-12,.cls-2,.cls-5,.cls-6{fill:none;stroke-miterlimit:10;}.cls-2{stroke:#fff;}.cls-2,.cls-6{stroke-width:2px;}.cls-3,.cls-4{fill:#fff;}.cls-4{font-size:24px;font-family:Cambria;}.cls-5{stroke:#df0914;stroke-width:4px;}.cls-6{stroke:#f1894e;}.cls-7{fill:#f1894e;}.cls-8{fill:#f1884d;}.cls-9{fill:#e62f32;}.cls-10{fill:#53aae0;}.cls-11{fill:#8e62a6;}.cls-12{stroke:#9fca78;stroke-width:3px;}</style></defs><title>hibridazioa</title><path class="cls-1" d="M82.26,109a20.72,20.72,0,0,1-8.55,1.54c-9.12,0-16-5.76-16-16.37,0-10.13,6.86-17,16.9-17a17.31,17.31,0,0,1,7.68,1.44l-1,3.4a15.36,15.36,0,0,0-6.53-1.34c-7.58,0-12.63,4.85-12.63,13.35,0,7.92,4.57,13,12.44,13a16.63,16.63,0,0,0,6.81-1.35Z" transform="translate(4.57 -60.95)"/><path class="cls-1" d="M84.42,115.36l3-2.83c4-3.6,6-5.86,6-8.31,0-1.82-1.15-3.36-3.65-3.36a7.36,7.36,0,0,0-4,1.49l-1-2.16a9.36,9.36,0,0,1,5.86-2c4.51,0,6.38,2.84,6.38,5.43,0,3.6-2.74,6.24-6.38,9.46l-1.49,1.34v.1h8.21v2.64h-13Z" transform="translate(4.57 -60.95)"/><path class="cls-1" d="M106.59,77.72V91.26h15.65V77.72h4.22v32.36h-4.22V94.91H106.59v15.17h-4.17V77.72Z" transform="translate(4.57 -60.95)"/><path class="cls-1" d="M139.9,117.14v-5h-9.07v-1.92l8.5-12h3.79v11.52h2.69v2.35h-2.69v5Zm0-13c0-1.06.1-2.07.15-3H140a27.64,27.64,0,0,1-1.63,2.83l-4.18,5.76.05.1h5.71Z" transform="translate(4.57 -60.95)"/><path class="cls-1" d="M62.28,166.77a15.67,15.67,0,0,1-6.41,1.15c-6.84,0-12-4.32-12-12.27,0-7.6,5.15-12.75,12.67-12.75A13,13,0,0,1,62.31,144l-.75,2.56a11.36,11.36,0,0,0-4.9-1c-5.69,0-9.47,3.64-9.47,10,0,5.94,3.42,9.75,9.33,9.75a12.39,12.39,0,0,0,5.11-1Z" transform="translate(4.57 -60.95)"/><path class="cls-1" d="M73.12,156.1h4l1.44,2.46,2-6h2.14l2.25,7,2.27-7h2.14l2.23,7,1.94-5.8h1.7l1.48,2.29h3.78l-4-5.13,1-1,6.91,6.7v1.12l-6.91,6.7-1-1,4-5.11H95.94L94.5,156l-2,6H90.38l-2.25-7-2.25,7H83.74l-2.25-7-1.92,5.82H77.74l-1.44-2.28H73.12Z" transform="translate(4.57 -60.95)"/><path class="cls-1" d="M116.73,143.3h3.13V155H120c.65-.94,1.29-1.8,1.91-2.59l7.41-9.11h3.89l-8.78,10.29,9.46,14h-3.71l-8-11.91-2.3,2.66v9.25h-3.13Z" transform="translate(4.57 -60.95)"/><path class="cls-1" d="M136,165.69a2.13,2.13,0,0,1,2.16-2.27,2.27,2.27,0,0,1,0,4.54A2.12,2.12,0,0,1,136,165.69Z" transform="translate(4.57 -60.95)"/><path class="cls-1" d="M146,159.42c.07,4.29,2.81,6.05,6,6.05a11.39,11.39,0,0,0,4.83-.9l.54,2.27a14.23,14.23,0,0,1-5.8,1.08c-5.36,0-8.56-3.53-8.56-8.78s3.09-9.4,8.17-9.4c5.68,0,7.2,5,7.2,8.21a12.92,12.92,0,0,1-.11,1.47Zm9.29-2.26c0-2-.83-5.15-4.4-5.15-3.2,0-4.6,3-4.86,5.15Z" transform="translate(4.57 -60.95)"/><path class="cls-1" d="M161,165.69a2.13,2.13,0,0,1,2.16-2.27,2.27,2.27,0,0,1,0,4.54A2.13,2.13,0,0,1,161,165.69Z" transform="translate(4.57 -60.95)"/><path class="cls-1" d="M176.13,153a2.14,2.14,0,1,1,4.28,0,2.14,2.14,0,1,1-4.28,0Zm0,12.7a2.14,2.14,0,1,1,2.12,2.24A2.12,2.12,0,0,1,176.13,165.72Z" transform="translate(4.57 -60.95)"/><path class="cls-1" d="M197.83,147.11h-.07l-4.07,2.2-.61-2.41,5.11-2.74h2.7v23.4h-3.06Z" transform="translate(4.57 -60.95)"/><path class="cls-1" d="M210,164.32a8.33,8.33,0,0,0,4.18,1.26c2.3,0,3.38-1.15,3.38-2.59s-.9-2.34-3.24-3.21c-3.13-1.11-4.61-2.84-4.61-4.93,0-2.8,2.27-5.11,6-5.11a8.76,8.76,0,0,1,4.29,1.08l-.79,2.31a6.75,6.75,0,0,0-3.57-1c-1.87,0-2.91,1.08-2.91,2.37s1,2.09,3.31,2.95c3,1.16,4.57,2.67,4.57,5.26,0,3.06-2.38,5.22-6.52,5.22a9.92,9.92,0,0,1-4.89-1.19Z" transform="translate(4.57 -60.95)"/><path class="cls-1" d="M222.49,150.28l2.27-2.09c3-2.73,4.54-4.42,4.54-6.26a2.42,2.42,0,0,0-2.74-2.48,5.24,5.24,0,0,0-3,1.11l-.76-1.65a7.21,7.21,0,0,1,4.39-1.51c3.39,0,4.79,2.16,4.79,4.06,0,2.74-2.05,4.72-4.79,7.09l-1.11,1v.07h6.15v2h-9.72Z" transform="translate(4.57 -60.95)"/><path class="cls-1" d="M242.51,167.56v-1.94L245,163.2c6-5.68,8.68-8.71,8.71-12.23,0-2.38-1.15-4.58-4.64-4.58a8,8,0,0,0-5,2l-1-2.23a10.27,10.27,0,0,1,6.63-2.37c5,0,7.16,3.45,7.16,6.8,0,4.32-3.13,7.81-8.06,12.56l-1.87,1.73v.07h10.51v2.63Z" transform="translate(4.57 -60.95)"/><path class="cls-1" d="M261.55,164.32a8.33,8.33,0,0,0,4.18,1.26c2.3,0,3.38-1.15,3.38-2.59s-.9-2.34-3.24-3.21c-3.13-1.11-4.61-2.84-4.61-4.93,0-2.8,2.27-5.11,6-5.11a8.75,8.75,0,0,1,4.28,1.08l-.79,2.31a6.75,6.75,0,0,0-3.57-1c-1.87,0-2.91,1.08-2.91,2.37s1,2.09,3.31,2.95c3,1.16,4.57,2.67,4.57,5.26,0,3.06-2.38,5.22-6.51,5.22a9.94,9.94,0,0,1-4.9-1.19Z" transform="translate(4.57 -60.95)"/><path class="cls-1" d="M274,150.28l2.27-2.09c3-2.73,4.54-4.42,4.54-6.26a2.42,2.42,0,0,0-2.74-2.48,5.24,5.24,0,0,0-3,1.11l-.76-1.65a7.21,7.21,0,0,1,4.39-1.51c3.39,0,4.79,2.16,4.79,4.06,0,2.74-2.05,4.72-4.79,7.09l-1.11,1v.07h6.15v2H274Z" transform="translate(4.57 -60.95)"/><path class="cls-1" d="M294.06,167.56v-1.94l2.48-2.42c6-5.68,8.68-8.71,8.71-12.23,0-2.38-1.15-4.58-4.64-4.58a8,8,0,0,0-5,2l-1-2.23a10.27,10.27,0,0,1,6.63-2.37c5,0,7.16,3.45,7.16,6.8,0,4.32-3.13,7.81-8.06,12.56l-1.87,1.73v.07H309v2.63Z" transform="translate(4.57 -60.95)"/><path class="cls-1" d="M313.54,155.83c0-2.24-.08-4-.15-5.69h2.84l.15,3h.07a6.85,6.85,0,0,1,6.19-3.39c4.21,0,7.38,3.57,7.38,8.86,0,6.26-3.81,9.36-7.92,9.36a6.1,6.1,0,0,1-5.36-2.74h-.07v9.47h-3.13Zm3.13,4.64a7.18,7.18,0,0,0,.14,1.29,4.89,4.89,0,0,0,4.75,3.71c3.35,0,5.29-2.73,5.29-6.73,0-3.49-1.83-6.48-5.18-6.48a5.06,5.06,0,0,0-4.79,3.93,5.44,5.44,0,0,0-.21,1.29Z" transform="translate(4.57 -60.95)"/><path class="cls-1" d="M331.82,150.28l2.27-2.09c3-2.73,4.54-4.42,4.54-6.26a2.42,2.42,0,0,0-2.74-2.48,5.24,5.24,0,0,0-3,1.11l-.76-1.65a7.21,7.21,0,0,1,4.39-1.51c3.38,0,4.79,2.16,4.79,4.06,0,2.74-2.05,4.72-4.79,7.09l-1.12,1v.07h6.16v2h-9.72Z" transform="translate(4.57 -60.95)"/><path class="cls-1" d="M48.45,186.5v10.15H60.19V186.5h3.17v24.26H60.19V199.39H48.45v11.37H45.32V186.5Z" transform="translate(4.57 -60.95)"/><path class="cls-1" d="M75.71,199.3h4l1.44,2.46,2-6h2.14l2.25,7,2.27-7h2.14l2.24,7,1.93-5.8h1.71l1.47,2.29H103l-4-5.13,1-1,6.91,6.7V201l-6.91,6.7-1-1,4-5.11H98.53l-1.44-2.46-2,6H93l-2.25-7.05-2.25,7.05H86.33l-2.25-7.05-1.92,5.82H80.34l-1.45-2.28H75.71Z" transform="translate(4.57 -60.95)"/><path class="cls-1" d="M119.32,186.5h3.13v11.7h.11c.65-.94,1.3-1.8,1.91-2.59l7.41-9.11h3.89L127,196.79l9.46,14h-3.7l-8-11.91-2.31,2.66v9.25h-3.13Z" transform="translate(4.57 -60.95)"/><path class="cls-1" d="M138.58,208.89a2.13,2.13,0,0,1,2.16-2.27,2.27,2.27,0,0,1,0,4.54A2.12,2.12,0,0,1,138.58,208.89Z" transform="translate(4.57 -60.95)"/><path class="cls-1" d="M148.55,202.63c.07,4.28,2.81,6,6,6a11.38,11.38,0,0,0,4.82-.9l.54,2.27a14.19,14.19,0,0,1-5.8,1.08c-5.36,0-8.56-3.53-8.56-8.78s3.09-9.4,8.17-9.4c5.69,0,7.2,5,7.2,8.21a11.26,11.26,0,0,1-.11,1.48Zm9.29-2.27c0-2-.83-5.15-4.39-5.15-3.21,0-4.61,2.95-4.86,5.15Z" transform="translate(4.57 -60.95)"/><path class="cls-1" d="M163.64,208.89a2.13,2.13,0,0,1,2.16-2.27,2.27,2.27,0,0,1,0,4.54A2.12,2.12,0,0,1,163.64,208.89Z" transform="translate(4.57 -60.95)"/><path class="cls-1" d="M178.72,196.22a2.14,2.14,0,1,1,4.28,0,2.14,2.14,0,1,1-4.28,0Zm0,12.7a2.14,2.14,0,1,1,2.12,2.24A2.12,2.12,0,0,1,178.72,208.92Z" transform="translate(4.57 -60.95)"/><path class="cls-1" d="M200.43,190.31h-.08l-4.06,2.2-.62-2.41,5.12-2.74h2.7v23.4h-3.06Z" transform="translate(4.57 -60.95)"/><path class="cls-1" d="M212.59,207.52a8.36,8.36,0,0,0,4.18,1.26c2.3,0,3.38-1.15,3.38-2.59s-.9-2.34-3.24-3.21c-3.13-1.11-4.6-2.84-4.6-4.93,0-2.8,2.26-5.11,6-5.11A8.75,8.75,0,0,1,222.6,194l-.79,2.31a6.74,6.74,0,0,0-3.56-1c-1.88,0-2.92,1.08-2.92,2.37,0,1.44,1,2.09,3.31,3,3,1.15,4.57,2.66,4.57,5.25,0,3.06-2.37,5.22-6.51,5.22a10,10,0,0,1-4.9-1.19Z" transform="translate(4.57 -60.95)"/><path class="cls-1" d="M228.51,201.19V189.34h-.08l-2.59,1.26-.39-1.87,3.38-1.58H231v14Z" transform="translate(4.57 -60.95)"/><rect class="cls-2" x="414.55" y="81.05" width="32.6" height="32.6"/><rect class="cls-2" x="480.47" y="81.05" width="32.6" height="32.6"/><rect class="cls-2" x="513.06" y="81.05" width="32.6" height="32.6"/><rect class="cls-2" x="545.66" y="81.05" width="32.6" height="32.6"/><rect class="cls-2" x="414.55" y="133.05" width="32.6" height="32.6"/><path class="cls-3" d="M419.94,167.84V152.91l-3.67,2.48-.81-.74,5-4.36h.95l5,4.36-.8.74-3.68-2.48v14.93Z" transform="translate(4.57 -60.95)"/><path class="cls-3" d="M435,150.29v14.92l3.69-2.53.8.74-5,4.41h-1l-5-4.36.8-.79,3.68,2.53V150.29Z" transform="translate(4.57 -60.95)"/><path class="cls-3" d="M422.94,220V205.07l-3.67,2.49-.81-.74,5-4.36h.95l5,4.36-.8.74-3.68-2.49V220Z" transform="translate(4.57 -60.95)"/><path class="cls-3" d="M487.42,167.84V152.91l-3.68,2.48-.8-.74,5-4.36h.94l5,4.36-.8.74-3.68-2.48v14.93Z" transform="translate(4.57 -60.95)"/><path class="cls-3" d="M521.12,167.84V152.91l-3.68,2.48-.8-.74,5-4.35h.94l5,4.35-.81.74-3.67-2.48v14.93Z" transform="translate(4.57 -60.95)"/><text class="cls-4" transform="translate(607.93 106.7) scale(1.17 1)">→</text><rect class="cls-2" x="665.13" y="81.05" width="32.6" height="32.6"/><rect class="cls-2" x="731.04" y="81.05" width="32.6" height="32.6"/><rect class="cls-2" x="763.64" y="81.05" width="32.6" height="32.6"/><rect class="cls-2" x="796.23" y="81.05" width="32.6" height="32.6"/><path class="cls-3" d="M672.52,167.84V152.91l-3.68,2.48-.8-.74,5-4.36H674l5,4.36-.81.74-3.67-2.48v14.93Z" transform="translate(4.57 -60.95)"/><path class="cls-3" d="M738,167.84V152.91l-3.67,2.48-.81-.74,5-4.36h.94l5,4.36-.81.74-3.67-2.48v14.93Z" transform="translate(4.57 -60.95)"/><path class="cls-3" d="M771.69,167.84V152.91L768,155.39l-.81-.74,5-4.35h1l5,4.35-.8.74-3.68-2.48v14.93Z" transform="translate(4.57 -60.95)"/><path class="cls-3" d="M803.69,166V151.05L800,153.54l-.81-.74,5-4.36h1l5,4.36-.8.74-3.68-2.49V166Z" transform="translate(4.57 -60.95)"/><path class="cls-3" d="M642.56,144.88a19.23,19.23,0,0,1,8.87-11.82c5.25-3.07,11.43-3.11,17.33-2.68,11.57.85,24,2.26,34.08-4.79a28.38,28.38,0,0,0,10.46-13.7L709,109.67a17.72,17.72,0,0,0,8.1,14.66c5.76,3.74,12.5,3.45,19.08,3.35l21.79-.34c3.57,0,7.13-.12,10.7-.16a38,38,0,0,1,9.58.83,15.15,15.15,0,0,1,11.29,11.65,3.68,3.68,0,0,0,2.49,2.4c.77.24,2.08.14,1.83-1a21.73,21.73,0,0,0-9.5-13.47c-5.55-3.56-12-4.1-18.39-4-7.2.06-14.39.21-21.59.32l-10.89.17a61.19,61.19,0,0,1-9.48-.24,11.92,11.92,0,0,1-7.59-3.66,12.53,12.53,0,0,1-3.08-8.24c0-1.57-3.54-4.42-4.34-2.22a26.37,26.37,0,0,1-9.18,12.21,30,30,0,0,1-15,5.41c-6.38.62-12.74-.26-19.11-.65-5.85-.35-12-.14-17.24,2.76a21,21,0,0,0-10.17,13.27c-.44,1.72,3.83,4.26,4.34,2.21Z" transform="translate(4.57 -60.95)"/><path class="cls-3" d="M635.63,73.15H634a5.24,5.24,0,0,0-.92-1.66,3,3,0,0,0-1.19-.86,4.89,4.89,0,0,0-1.64-.24,3.51,3.51,0,0,0-2.24.66,2.16,2.16,0,0,0-.83,1.8,2.45,2.45,0,0,0,.33,1.33,3.31,3.31,0,0,0,1,1A18,18,0,0,0,631,76.38a17.91,17.91,0,0,1,2.76,1.43,5.13,5.13,0,0,1,1.53,1.51,3.7,3.7,0,0,1,.56,2.05,5.13,5.13,0,0,1-.48,2.34A4.07,4.07,0,0,1,634,85.26a5.84,5.84,0,0,1-2,.86,11.72,11.72,0,0,1-2.59.26,17.94,17.94,0,0,1-2.87-.22,23.66,23.66,0,0,1-2.71-.57V81.92h1.73a4.46,4.46,0,0,0,1.4,2.35,4.11,4.11,0,0,0,2.57.73,5.75,5.75,0,0,0,1.24-.14,3,3,0,0,0,1.08-.44,2.18,2.18,0,0,0,.76-.83,2.87,2.87,0,0,0,.28-1.32,2.68,2.68,0,0,0-.36-1.46,3.36,3.36,0,0,0-1.08-1,20,20,0,0,0-2.61-1.25,16.67,16.67,0,0,1-2.56-1.3,5.06,5.06,0,0,1-1.52-1.5,3.67,3.67,0,0,1-.56-2,4.05,4.05,0,0,1,.79-2.5,4.88,4.88,0,0,1,2.25-1.63,9.86,9.86,0,0,1,3.47-.56c.77,0,1.52,0,2.24.11s1.62.23,2.71.45Z" transform="translate(4.57 -60.95)"/><path class="cls-3" d="M644.09,85.58v3.7a13.93,13.93,0,0,0,.08,1.71,2.22,2.22,0,0,0,.28.89,1.57,1.57,0,0,0,.58.53,4.7,4.7,0,0,0,1.22.39v.86h-7.17V92.8a8,8,0,0,0,1-.36,1.33,1.33,0,0,0,.6-.55,2.53,2.53,0,0,0,.29-1c0-.41.07-1,.07-1.64V74.2c0-.84,0-1.44,0-1.8a4,4,0,0,0-.14-.89,1.47,1.47,0,0,0-.31-.58,1.49,1.49,0,0,0-.54-.38,5,5,0,0,0-1.14-.32V69.3l4.13-.16h1.08L643.88,72l.26.08a20.62,20.62,0,0,1,1.72-1.61,7.24,7.24,0,0,1,1.31-.84,6.06,6.06,0,0,1,1.3-.47A5.71,5.71,0,0,1,649.8,69a5.15,5.15,0,0,1,4.46,2.17q1.54,2.16,1.55,6.35a11.93,11.93,0,0,1-.88,4.88,6.24,6.24,0,0,1-2.55,3,7.76,7.76,0,0,1-4,1,11.41,11.41,0,0,1-2.36-.22A10.4,10.4,0,0,1,644.09,85.58Zm0-5.81a12.38,12.38,0,0,0,.21,2.61,3.11,3.11,0,0,0,.75,1.48,3.27,3.27,0,0,0,1.26.85,5.41,5.41,0,0,0,1.93.29,3.51,3.51,0,0,0,3.2-1.77A10.26,10.26,0,0,0,652.51,78c0-4.6-1.34-6.89-4-6.89a4.33,4.33,0,0,0-1.69.3,4.81,4.81,0,0,0-1.42,1,4.41,4.41,0,0,0-1,1.32,3.38,3.38,0,0,0-.29,1.38Z" transform="translate(4.57 -60.95)"/><path class="cls-3" d="M666.54,74.75a5.57,5.57,0,0,0,.94-.06,1.83,1.83,0,0,0,.52-.19,1.22,1.22,0,0,0,.32-.32,5.19,5.19,0,0,0,.4-.84h1.21l-.25,3.39h-10.3v-.66A12.29,12.29,0,0,1,661,73.53,30.48,30.48,0,0,1,663.39,71c1.09-1,1.86-1.83,2.32-2.37a6.48,6.48,0,0,0,1-1.51,3.35,3.35,0,0,0,.33-1.43,2.56,2.56,0,0,0-.67-1.88,2.61,2.61,0,0,0-1.95-.69,3,3,0,0,0-1.85.58,3.63,3.63,0,0,0-1.17,1.71h-1.67V63a16.72,16.72,0,0,1,2.88-.9,11.84,11.84,0,0,1,2.34-.27,7.46,7.46,0,0,1,2.3.3,4.23,4.23,0,0,1,1.45.78,2.67,2.67,0,0,1,.76,1.13,4.09,4.09,0,0,1,.22,1.34,3.82,3.82,0,0,1-.35,1.61,7.08,7.08,0,0,1-1.15,1.61c-.54.58-1.48,1.49-2.84,2.72a21.36,21.36,0,0,0-3.17,3.43Z" transform="translate(4.57 -60.95)"/><path class="cls-3" d="M686.65,72.06l.07,0a16.33,16.33,0,0,1,2.17-2,6.88,6.88,0,0,1,1.58-.83,4.86,4.86,0,0,1,1.68-.28,5.69,5.69,0,0,1,1.72.23,3.83,3.83,0,0,1,1.33.69,3.7,3.7,0,0,1,.93,1.14,5.7,5.7,0,0,1,.54,1.62,14.12,14.12,0,0,1,.17,2.38v6.63a10.54,10.54,0,0,0,.13,2.08,1.61,1.61,0,0,0,.48.86,3.65,3.65,0,0,0,1.38.59v.86H691.9v-.86a5.74,5.74,0,0,0,1-.37,1.49,1.49,0,0,0,.5-.44,2.16,2.16,0,0,0,.31-.87,9.62,9.62,0,0,0,.12-1.78V77.17a20,20,0,0,0-.24-3.57,3.22,3.22,0,0,0-.93-1.86,2.82,2.82,0,0,0-1.94-.61,3.23,3.23,0,0,0-1.27.24,5.83,5.83,0,0,0-1.3.88,5.26,5.26,0,0,0-1.12,1.3,2.88,2.88,0,0,0-.37,1.43v6.73a16.61,16.61,0,0,0,.06,1.7,2.75,2.75,0,0,0,.23.86,1.52,1.52,0,0,0,.54.56,4.54,4.54,0,0,0,1.12.41v.86h-7v-.86a5,5,0,0,0,1.1-.4,1.39,1.39,0,0,0,.52-.5,2.17,2.17,0,0,0,.27-.86,12.31,12.31,0,0,0,.09-1.77V67c0-1.13,0-1.92,0-2.36a6.43,6.43,0,0,0-.14-1.13,2.07,2.07,0,0,0-.32-.73,1.49,1.49,0,0,0-.55-.43,5.65,5.65,0,0,0-1.24-.31v-.92l4.24-.17h1.06Z" transform="translate(4.57 -60.95)"/><path class="cls-3" d="M701.8,85.24a5.38,5.38,0,0,0,1-.37,1.4,1.4,0,0,0,.5-.44,2.16,2.16,0,0,0,.31-.86,9.84,9.84,0,0,0,.12-1.81V74.1c0-.75,0-1.36,0-1.81a2.68,2.68,0,0,0-.24-1.1,1.4,1.4,0,0,0-.65-.62,5,5,0,0,0-1.22-.34V69.3l4.1-.16h1.07V81.71a10.76,10.76,0,0,0,.14,2.1,1.53,1.53,0,0,0,.54.9,3.64,3.64,0,0,0,1.29.53v.86H701.8Zm5-22.83v3.41h-3.24V62.41Z" transform="translate(4.57 -60.95)"/><path class="cls-3" d="M716.23,72.06l.07,0a15.26,15.26,0,0,1,2.05-1.87,7.22,7.22,0,0,1,1.69-.89,5.78,5.78,0,0,1,1.9-.3,5.48,5.48,0,0,1,3.23,1,6,6,0,0,1,2.07,2.88,13.16,13.16,0,0,1,.73,4.69,12,12,0,0,1-.87,4.84,6.3,6.3,0,0,1-2.56,3,7.67,7.67,0,0,1-4,1,12.66,12.66,0,0,1-2.45-.23,10.75,10.75,0,0,1-2.42-.84l-1.23,1.07-1.21-.28V67c0-1.13,0-1.92,0-2.36a5.6,5.6,0,0,0-.14-1.13,1.91,1.91,0,0,0-.32-.73,1.38,1.38,0,0,0-.54-.43,5.82,5.82,0,0,0-1.24-.31v-.92l4.25-.17h1Zm0,7.71a15.31,15.31,0,0,0,.12,2.16,3.8,3.8,0,0,0,.42,1.32,3,3,0,0,0,.84,1,3.2,3.2,0,0,0,1.24.61,6.57,6.57,0,0,0,1.53.17,3.57,3.57,0,0,0,3.2-1.73,9.87,9.87,0,0,0,1.09-5.17,10.7,10.7,0,0,0-1-5.22,3.22,3.22,0,0,0-3-1.75,4.36,4.36,0,0,0-1.71.3,5.31,5.31,0,0,0-1.4,1,5.1,5.1,0,0,0-1,1.28,3.25,3.25,0,0,0-.32,1.45Z" transform="translate(4.57 -60.95)"/><path class="cls-3" d="M736.25,72.22l.25,0a13.47,13.47,0,0,1,1.79-1.86,6.43,6.43,0,0,1,1.78-1,6,6,0,0,1,2.18-.37,14.79,14.79,0,0,1,1.84.1v4.05h-2a4.05,4.05,0,0,0-.89-1.38,1.86,1.86,0,0,0-1.3-.43,2.44,2.44,0,0,0-1.26.37,5.31,5.31,0,0,0-2,2.39,4.23,4.23,0,0,0-.22,1.46v6.15a8.34,8.34,0,0,0,.19,2.2,1.55,1.55,0,0,0,.64.89,3.73,3.73,0,0,0,1.35.44v.86h-7.09v-.86a5.22,5.22,0,0,0,1-.37,1.49,1.49,0,0,0,.5-.44,2,2,0,0,0,.32-.86,11.36,11.36,0,0,0,.1-1.81V74.1c0-.75,0-1.36,0-1.81a2.84,2.84,0,0,0-.25-1.1,1.33,1.33,0,0,0-.64-.62,5.12,5.12,0,0,0-1.22-.34v-.91l4.11-.18h1.07Z" transform="translate(4.57 -60.95)"/><path class="cls-3" d="M746.39,85.24a5.26,5.26,0,0,0,1-.37,1.37,1.37,0,0,0,.49-.44,2.15,2.15,0,0,0,.32-.86,11.09,11.09,0,0,0,.11-1.81V74.1c0-.75,0-1.36,0-1.81a2.84,2.84,0,0,0-.25-1.1,1.33,1.33,0,0,0-.64-.62,5.27,5.27,0,0,0-1.22-.34V69.3l4.09-.16h1.08V81.71a10,10,0,0,0,.14,2.1,1.57,1.57,0,0,0,.53.9,3.81,3.81,0,0,0,1.29.53v.86h-6.89Zm5-22.83v3.41h-3.23V62.41Z" transform="translate(4.57 -60.95)"/><path class="cls-3" d="M768.26,67c0-1.13,0-1.92,0-2.36a5,5,0,0,0-.14-1.13,1.91,1.91,0,0,0-.31-.73,1.49,1.49,0,0,0-.55-.43A5.82,5.82,0,0,0,766,62v-.92l4.26-.17h1V81.3c0,.92,0,1.57.06,2a2.44,2.44,0,0,0,.23.94,1.33,1.33,0,0,0,.55.58,5,5,0,0,0,1.33.41v.91l-4.15.18h-1.06l.21-2.88-.26-.07a14.66,14.66,0,0,1-1.92,1.76,7.73,7.73,0,0,1-1.74.94,5.43,5.43,0,0,1-2,.35,5.16,5.16,0,0,1-4.45-2.18,10.82,10.82,0,0,1-1.56-6.32,10.73,10.73,0,0,1,1-4.9,6.93,6.93,0,0,1,2.75-3,7.78,7.78,0,0,1,3.89-1,11.37,11.37,0,0,1,2.11.18,10.62,10.62,0,0,1,2,.61Zm0,8.68a16,16,0,0,0-.12-2.2,4.3,4.3,0,0,0-.42-1.39,2.86,2.86,0,0,0-.78-1,3.48,3.48,0,0,0-1.08-.56,4.86,4.86,0,0,0-1.41-.17,3.84,3.84,0,0,0-3.43,1.8,9.4,9.4,0,0,0-1.18,5.17,10.86,10.86,0,0,0,1,5.14,3.13,3.13,0,0,0,2.93,1.75,5.18,5.18,0,0,0,1.29-.13,4.1,4.1,0,0,0,1-.42,4.93,4.93,0,0,0,1-.8,4.62,4.62,0,0,0,.75-.93,3.37,3.37,0,0,0,.36-1,6.68,6.68,0,0,0,.12-1.4Z" transform="translate(4.57 -60.95)"/><path class="cls-3" d="M786.52,83.59l-.26-.07a10.8,10.8,0,0,1-2.87,2.21,6.41,6.41,0,0,1-2.86.65,5.22,5.22,0,0,1-2.36-.51,3.8,3.8,0,0,1-1.56-1.46,4.44,4.44,0,0,1,2-6.14q2.53-1.39,7.62-1.62V75.5a9.19,9.19,0,0,0-.36-2.88,2.85,2.85,0,0,0-1.1-1.55,3.75,3.75,0,0,0-2-.49,3.27,3.27,0,0,0-2.21.72,4.37,4.37,0,0,0-1.26,2.16H777V71.18a23.08,23.08,0,0,1,2.81-1.29,14.66,14.66,0,0,1,2.25-.65,10.92,10.92,0,0,1,2.29-.24,6,6,0,0,1,2.79.55,3.49,3.49,0,0,1,1.58,1.7,8.43,8.43,0,0,1,.53,3.44v6.12c0,.87,0,1.48,0,1.84a7.2,7.2,0,0,0,.1,1,2,2,0,0,0,.27.73,1.49,1.49,0,0,0,.52.47,5.29,5.29,0,0,0,1.11.4v.86h-4.81Zm-.29-5.5a12.36,12.36,0,0,0-5.35,1,3,3,0,0,0-1.77,2.76,2.74,2.74,0,0,0,.4,1.58,2.14,2.14,0,0,0,1,.8,4.53,4.53,0,0,0,1.46.22,4.22,4.22,0,0,0,2.17-.58,4.32,4.32,0,0,0,1.52-1.48,3.44,3.44,0,0,0,.55-1.77Z" transform="translate(4.57 -60.95)"/><path class="cls-3" d="M807.2,81v5.1H793.66v-.86l9.63-14.52h-4.76a2.62,2.62,0,0,0-1.39.32,3.22,3.22,0,0,0-1,1,10.09,10.09,0,0,0-.87,2h-1.53V69.3h13.32v.88l-9.61,14.5h4.62a5.11,5.11,0,0,0,1.37-.14,2.2,2.2,0,0,0,.79-.45,3.25,3.25,0,0,0,.65-1,17.13,17.13,0,0,0,.76-2.11Z" transform="translate(4.57 -60.95)"/><path class="cls-3" d="M810.31,85.24a5.38,5.38,0,0,0,1-.37,1.4,1.4,0,0,0,.5-.44,2.16,2.16,0,0,0,.31-.86,9.84,9.84,0,0,0,.12-1.81V74.1c0-.75,0-1.36,0-1.81a2.52,2.52,0,0,0-.25-1.1,1.33,1.33,0,0,0-.64-.62,5,5,0,0,0-1.22-.34V69.3l4.1-.16h1.07V81.71a10.76,10.76,0,0,0,.14,2.1,1.53,1.53,0,0,0,.54.9,3.64,3.64,0,0,0,1.29.53v.86h-6.89Zm5-22.83v3.41H812.1V62.41Z" transform="translate(4.57 -60.95)"/><path class="cls-3" d="M828,86.38a7.07,7.07,0,0,1-5.58-2.15q-1.93-2.16-1.93-6.37a10.88,10.88,0,0,1,1-4.91,6.86,6.86,0,0,1,2.77-3,8.12,8.12,0,0,1,4-1,7.18,7.18,0,0,1,5.69,2.19,9.18,9.18,0,0,1,1.94,6.28,11.29,11.29,0,0,1-1,4.92,6.63,6.63,0,0,1-2.74,3A8.52,8.52,0,0,1,828,86.38Zm-4.19-8.89a11.08,11.08,0,0,0,1.15,5.56,3.64,3.64,0,0,0,3.3,2,3.44,3.44,0,0,0,2-.58,4.37,4.37,0,0,0,1.35-1.53,8,8,0,0,0,.75-2.25,15.24,15.24,0,0,0,.22-2.66,13.75,13.75,0,0,0-.57-4.29,5.34,5.34,0,0,0-1.55-2.5,3.45,3.45,0,0,0-2.25-.8,3.6,3.6,0,0,0-3.26,1.84A10.07,10.07,0,0,0,823.77,77.49Z" transform="translate(4.57 -60.95)"/><path class="cls-3" d="M849.58,83.59l-.27-.07a10.64,10.64,0,0,1-2.87,2.21,6.41,6.41,0,0,1-2.86.65,5.18,5.18,0,0,1-2.35-.51,3.82,3.82,0,0,1-1.57-1.46,4.44,4.44,0,0,1,2-6.14q2.54-1.39,7.62-1.62V75.5a9.54,9.54,0,0,0-.35-2.88,2.91,2.91,0,0,0-1.11-1.55,3.73,3.73,0,0,0-2-.49,3.27,3.27,0,0,0-2.21.72,4.53,4.53,0,0,0-1.26,2.16H840V71.18a23.79,23.79,0,0,1,2.81-1.29,14.66,14.66,0,0,1,2.25-.65,11,11,0,0,1,2.29-.24,6,6,0,0,1,2.79.55,3.51,3.51,0,0,1,1.59,1.7,8.64,8.64,0,0,1,.52,3.44v6.12c0,.87,0,1.48,0,1.84a5.87,5.87,0,0,0,.11,1,2,2,0,0,0,.26.73,1.49,1.49,0,0,0,.52.47,5.21,5.21,0,0,0,1.12.4v.86h-4.82Zm-.3-5.5a12.36,12.36,0,0,0-5.35,1,3,3,0,0,0-1.77,2.76,2.74,2.74,0,0,0,.4,1.58,2.14,2.14,0,0,0,1,.8,4.53,4.53,0,0,0,1.46.22,4.22,4.22,0,0,0,2.17-.58,4.32,4.32,0,0,0,1.52-1.48,3.35,3.35,0,0,0,.55-1.77Z" transform="translate(4.57 -60.95)"/><path class="cls-1" d="M75.69,327.88A15.5,15.5,0,0,1,69.28,329c-6.84,0-12-4.32-12-12.27C57.3,309.16,62.44,304,70,304a13.06,13.06,0,0,1,5.76,1.08L75,307.65a11.52,11.52,0,0,0-4.9-1c-5.68,0-9.46,3.63-9.46,10,0,5.94,3.42,9.76,9.32,9.76a12.55,12.55,0,0,0,5.11-1Z" transform="translate(4.57 -60.95)"/><path class="cls-1" d="M86,316.54v-2.16h18.57v2.16Zm0,7.06v-2.16h18.57v2.16Z" transform="translate(4.57 -60.95)"/><path class="cls-1" d="M133.29,327.88a15.5,15.5,0,0,1-6.41,1.15c-6.84,0-12-4.32-12-12.27,0-7.6,5.15-12.74,12.67-12.74a13,13,0,0,1,5.76,1.08l-.75,2.55a11.52,11.52,0,0,0-4.9-1c-5.68,0-9.46,3.63-9.46,10,0,5.94,3.42,9.76,9.32,9.76a12.55,12.55,0,0,0,5.11-1Z" transform="translate(4.57 -60.95)"/><path class="cls-1" d="M5.87,340.91v10.15H17.6V340.91h3.17v24.26H17.6V353.8H5.87v11.37H2.74V340.91Z" transform="translate(4.57 -60.95)"/><path class="cls-1" d="M166.71,340.91v10.15h11.74V340.91h3.16v24.26h-3.16V353.8H166.71v11.37h-3.13V340.91Z" transform="translate(4.57 -60.95)"/><path class="cls-1" d="M7.87,259.41v10.15H19.6V259.41h3.17v24.26H19.6V272.3H7.87v11.37H4.74V259.41Z" transform="translate(4.57 -60.95)"/><path class="cls-1" d="M168.71,259.41v10.15h11.74V259.41h3.16v24.26h-3.16V272.3H168.71v11.37h-3.13V259.41Z" transform="translate(4.57 -60.95)"/><circle class="cls-5" cx="816.58" cy="97.6" r="27.95"/><line class="cls-6" x1="141.9" y1="255.68" x2="171.76" y2="276.17"/><line class="cls-6" x1="26.1" y1="227.92" x2="55.97" y2="248.41"/><line class="cls-6" x1="55.97" y1="255.68" x2="26.1" y2="276.17"/><line class="cls-6" x1="171.76" y1="228.54" x2="141.9" y2="249.03"/><path class="cls-7" d="M46.79,416.45H38.63v-2.72h8.16Z" transform="translate(4.57 -60.95)"/><path class="cls-7" d="M70.18,405.24c0-1.13,0-1.91,0-2.36a6.56,6.56,0,0,0-.14-1.13,2,2,0,0,0-.32-.73,1.34,1.34,0,0,0-.54-.42,5.84,5.84,0,0,0-1.24-.32v-.91l4.25-.18h1v20.36c0,.91,0,1.56.05,2a2.75,2.75,0,0,0,.23.94A1.43,1.43,0,0,0,74,423a4.77,4.77,0,0,0,1.33.41v.92l-4.15.17h-1l.21-2.88-.27-.07a14.05,14.05,0,0,1-1.92,1.76,7.77,7.77,0,0,1-1.74.95,5.65,5.65,0,0,1-2,.35A5.16,5.16,0,0,1,60,422.44a13,13,0,0,1-.54-11.22,6.91,6.91,0,0,1,2.75-3,7.68,7.68,0,0,1,3.89-1,10.47,10.47,0,0,1,2.11.19,9.46,9.46,0,0,1,2,.6Zm0,8.68a16.15,16.15,0,0,0-.12-2.2,4.41,4.41,0,0,0-.41-1.38,2.79,2.79,0,0,0-.78-.95,3.3,3.3,0,0,0-1.08-.57,5.36,5.36,0,0,0-1.42-.17,3.85,3.85,0,0,0-3.43,1.8,9.52,9.52,0,0,0-1.18,5.18,10.91,10.91,0,0,0,1,5.13,3.16,3.16,0,0,0,2.94,1.76,5.67,5.67,0,0,0,1.28-.13,3.78,3.78,0,0,0,1-.43,4.93,4.93,0,0,0,1-.8,4.62,4.62,0,0,0,.75-.93,3.42,3.42,0,0,0,.36-1,6.85,6.85,0,0,0,.12-1.41Z" transform="translate(4.57 -60.95)"/><path class="cls-7" d="M88.45,421.83l-.27-.07A10.76,10.76,0,0,1,85.31,424a6.55,6.55,0,0,1-2.86.65,5.18,5.18,0,0,1-2.35-.52,3.76,3.76,0,0,1-1.57-1.46,4.29,4.29,0,0,1-.54-2.17,4.37,4.37,0,0,1,2.54-4q2.53-1.39,7.62-1.62v-1.14a9.66,9.66,0,0,0-.35-2.89,2.84,2.84,0,0,0-1.11-1.54,3.64,3.64,0,0,0-2-.5,3.27,3.27,0,0,0-2.21.72,4.52,4.52,0,0,0-1.25,2.17H78.9v-2.29a27.6,27.6,0,0,1,2.82-1.29,15.88,15.88,0,0,1,2.25-.65,10.9,10.9,0,0,1,2.28-.24,6.06,6.06,0,0,1,2.8.56,3.52,3.52,0,0,1,1.58,1.69,8.63,8.63,0,0,1,.53,3.45v6.11c0,.87,0,1.48,0,1.84a5.87,5.87,0,0,0,.11,1,2,2,0,0,0,.26.73,1.4,1.4,0,0,0,.52.47,5.21,5.21,0,0,0,1.12.4v.87H88.36Zm-.3-5.5a12.28,12.28,0,0,0-5.34.95A2.94,2.94,0,0,0,81,420a2.8,2.8,0,0,0,.4,1.58,2.09,2.09,0,0,0,1,.8,4.27,4.27,0,0,0,1.46.22,4.12,4.12,0,0,0,2.17-.58,4.32,4.32,0,0,0,1.52-1.48,3.33,3.33,0,0,0,.55-1.77Z" transform="translate(4.57 -60.95)"/><path class="cls-7" d="M95.44,407.54h5v8.95a24,24,0,0,0,.16,3.13,4.75,4.75,0,0,0,.48,1.61,2.69,2.69,0,0,0,.89.92,3,3,0,0,0,1.6.37,3.17,3.17,0,0,0,1.29-.27,5.36,5.36,0,0,0,1.37-.92,4.46,4.46,0,0,0,1.08-1.31,3.29,3.29,0,0,0,.32-1.51v-6.59a14.56,14.56,0,0,0,0-1.51,3,3,0,0,0-.17-.82,1.94,1.94,0,0,0-.29-.5,1.53,1.53,0,0,0-.48-.35,5,5,0,0,0-1-.34v-.86h5v12c0,.9,0,1.55,0,1.95a2.54,2.54,0,0,0,.23.95,1.47,1.47,0,0,0,.54.57,4.68,4.68,0,0,0,1.32.41v.92l-4,.17h-1.08l.11-2.88-.26-.07a11.94,11.94,0,0,1-2.79,2.32,5.46,5.46,0,0,1-2.66.74,4.92,4.92,0,0,1-2.64-.64,3.81,3.81,0,0,1-1.55-1.89,9.68,9.68,0,0,1-.51-3.54v-6.64a11.54,11.54,0,0,0-.11-2,1.71,1.71,0,0,0-.44-.88,3.36,3.36,0,0,0-1.42-.61Z" transform="translate(4.57 -60.95)"/><path class="cls-7" d="M127.61,405.24c0-1.13,0-1.91,0-2.36a6.56,6.56,0,0,0-.14-1.13,2.16,2.16,0,0,0-.32-.73,1.37,1.37,0,0,0-.55-.42,5.51,5.51,0,0,0-1.24-.32v-.91l4.26-.18h1v20.36c0,.91,0,1.56.05,2a2.54,2.54,0,0,0,.23.94,1.37,1.37,0,0,0,.55.57,4.77,4.77,0,0,0,1.33.41v.92l-4.15.17h-1.06l.22-2.88-.27-.07a14.66,14.66,0,0,1-1.92,1.76,7.77,7.77,0,0,1-1.74.95,5.65,5.65,0,0,1-2,.35,5.16,5.16,0,0,1-4.45-2.19,13,13,0,0,1-.54-11.22,6.85,6.85,0,0,1,2.75-3,7.68,7.68,0,0,1,3.89-1,10.47,10.47,0,0,1,2.11.19,9.85,9.85,0,0,1,2,.6Zm0,8.68a16.15,16.15,0,0,0-.12-2.2,4.41,4.41,0,0,0-.41-1.38,2.81,2.81,0,0,0-.79-.95,3.11,3.11,0,0,0-1.08-.57,5.23,5.23,0,0,0-1.41-.17,3.85,3.85,0,0,0-3.43,1.8,9.43,9.43,0,0,0-1.18,5.18,10.79,10.79,0,0,0,1,5.13,3.14,3.14,0,0,0,2.93,1.76,5.7,5.7,0,0,0,1.29-.13,3.78,3.78,0,0,0,1-.43,4.93,4.93,0,0,0,1-.8,4.62,4.62,0,0,0,.75-.93,3.42,3.42,0,0,0,.36-1,6.85,6.85,0,0,0,.12-1.41Z" transform="translate(4.57 -60.95)"/><path class="cls-7" d="M149.76,421.36a15.14,15.14,0,0,1-2.06,1.84,7.64,7.64,0,0,1-4.55,1.43,6.82,6.82,0,0,1-5.47-2.17q-1.85-2.18-1.84-6.41a10.68,10.68,0,0,1,.94-4.62,7.14,7.14,0,0,1,2.68-3.1,8.12,8.12,0,0,1,7-.53,5.19,5.19,0,0,1,2,1.54,7.4,7.4,0,0,1,1.16,2.46,16.33,16.33,0,0,1,.46,3.88H139V416a11.35,11.35,0,0,0,.46,3.49A4.38,4.38,0,0,0,141,421.7a4.53,4.53,0,0,0,2.77.8,6,6,0,0,0,2.59-.54,7.52,7.52,0,0,0,2.3-1.75Zm-2.95-7.14a13.12,13.12,0,0,0-.48-3.1,3.88,3.88,0,0,0-1.1-1.85,2.86,2.86,0,0,0-1.94-.64,3.41,3.41,0,0,0-2.89,1.45,7.75,7.75,0,0,0-1.27,4.14Z" transform="translate(4.57 -60.95)"/><path class="cls-7" d="M170.4,424.35h-6.93v-.87a7,7,0,0,0,1-.36,1.62,1.62,0,0,0,.5-.44,2.28,2.28,0,0,0,.31-.87,9.81,9.81,0,0,0,.12-1.79v-4.6c0-.82,0-1.57-.07-2.24a9.8,9.8,0,0,0-.24-1.64,3.57,3.57,0,0,0-.4-1,2.6,2.6,0,0,0-.57-.62,2.5,2.5,0,0,0-.74-.4,3.42,3.42,0,0,0-1.11-.15,3.19,3.19,0,0,0-1.3.27,5.57,5.57,0,0,0-1.36.94,4.89,4.89,0,0,0-1.07,1.32,3.24,3.24,0,0,0-.33,1.49V420a10.76,10.76,0,0,0,.14,2.1,1.53,1.53,0,0,0,.54.9,3.64,3.64,0,0,0,1.29.53v.87h-6.89v-.87a6.51,6.51,0,0,0,1-.36,1.48,1.48,0,0,0,.49-.44,2.27,2.27,0,0,0,.32-.87,10,10,0,0,0,.11-1.81v-7.66c0-.75,0-1.35,0-1.81a2.71,2.71,0,0,0-.25-1.1,1.31,1.31,0,0,0-.64-.61,5.07,5.07,0,0,0-1.22-.35v-.93l4.11-.16h1.08l-.2,2.87.25.07a16.88,16.88,0,0,1,2.1-1.88,6.73,6.73,0,0,1,1.62-.87,4.74,4.74,0,0,1,1.73-.31,5.82,5.82,0,0,1,1.69.22,3.76,3.76,0,0,1,1.32.68,3.58,3.58,0,0,1,.94,1.13,5.66,5.66,0,0,1,.56,1.63,13.19,13.19,0,0,1,.18,2.4V420a14.7,14.7,0,0,0,.07,1.76,2.26,2.26,0,0,0,.25.84,1.29,1.29,0,0,0,.51.5,4.69,4.69,0,0,0,1.16.43Z" transform="translate(4.57 -60.95)"/><path class="cls-7" d="M187.41,421.36a15.14,15.14,0,0,1-2.06,1.84,7.64,7.64,0,0,1-4.55,1.43,6.79,6.79,0,0,1-5.46-2.17q-1.84-2.18-1.85-6.41a10.68,10.68,0,0,1,.94-4.62,7.14,7.14,0,0,1,2.68-3.1,8.12,8.12,0,0,1,7-.53,5.11,5.11,0,0,1,2,1.54,7.21,7.21,0,0,1,1.16,2.46,16.33,16.33,0,0,1,.46,3.88H176.69V416a11.33,11.33,0,0,0,.47,3.49,4.38,4.38,0,0,0,1.53,2.21,4.48,4.48,0,0,0,2.76.8,6,6,0,0,0,2.6-.54,7.6,7.6,0,0,0,2.29-1.75Zm-2.95-7.14a13.72,13.72,0,0,0-.47-3.1,4,4,0,0,0-1.11-1.85,2.84,2.84,0,0,0-1.94-.64,3.42,3.42,0,0,0-2.89,1.45,7.84,7.84,0,0,0-1.27,4.14Z" transform="translate(4.57 -60.95)"/><path class="cls-7" d="M204.18,419.25v5.1H190.65v-.87L200.28,409h-4.76a2.62,2.62,0,0,0-1.39.32,3.17,3.17,0,0,0-1,1.06,9.93,9.93,0,0,0-.88,2h-1.53v-4.78h13.33v.88l-9.62,14.5h4.62a4.85,4.85,0,0,0,1.38-.14,2,2,0,0,0,.79-.45,3.18,3.18,0,0,0,.65-1,17,17,0,0,0,.75-2.11Z" transform="translate(4.57 -60.95)"/><path class="cls-7" d="M219.18,410.18h-.41a3.2,3.2,0,0,0-1.61.38,7.53,7.53,0,0,0-1.71,1.53l-1.74-1.51a18.67,18.67,0,0,1,1.77-2,6.44,6.44,0,0,1,1.39-1,4.85,4.85,0,0,1,1.41-.51,10.25,10.25,0,0,1,2.07-.16h15.9v3.27h-4v9.19a5.39,5.39,0,0,0,.17,1.52,1.42,1.42,0,0,0,.43.73,1.2,1.2,0,0,0,.72.19,1.7,1.7,0,0,0,.74-.16,4.48,4.48,0,0,0,.81-.52l1,1.49a8,8,0,0,1-2.34,1.51,6,6,0,0,1-2.3.5,4,4,0,0,1-3.13-1.08,5.2,5.2,0,0,1-1-3.49v-9.88h-4.18v14.17h-5.34v-1.11a58,58,0,0,0,1-5.84,53.9,53.9,0,0,0,.35-5.8Z" transform="translate(4.57 -60.95)"/><path class="cls-7" d="M.72,463.15a10,10,0,0,0,.14,2.1,1.57,1.57,0,0,0,.53.9,3.79,3.79,0,0,0,1.3.53v.87h-7v-.87a4.1,4.1,0,0,0,1.22-.47,1.38,1.38,0,0,0,.49-.59,3.21,3.21,0,0,0,.21-.93c0-.39.06-.91.06-1.54V448.44c0-1.13,0-1.91,0-2.36A6.56,6.56,0,0,0-2.47,445a2,2,0,0,0-.32-.73,1.34,1.34,0,0,0-.54-.42,5.84,5.84,0,0,0-1.24-.32v-.91l4.23-.18H.72Z" transform="translate(4.57 -60.95)"/><path class="cls-7" d="M13.44,467.83a7.1,7.1,0,0,1-5.58-2.16c-1.28-1.43-1.92-3.56-1.92-6.37a10.83,10.83,0,0,1,1-4.9,6.75,6.75,0,0,1,2.77-3,8.13,8.13,0,0,1,4-1,7.2,7.2,0,0,1,5.69,2.19,9.19,9.19,0,0,1,1.93,6.29,11.36,11.36,0,0,1-1,4.92,6.65,6.65,0,0,1-2.74,3A8.43,8.43,0,0,1,13.44,467.83Zm-4.18-8.9a11,11,0,0,0,1.15,5.57,3.65,3.65,0,0,0,3.3,1.94,3.44,3.44,0,0,0,2-.57,4.4,4.4,0,0,0,1.35-1.54,7.66,7.66,0,0,0,.74-2.24,14.42,14.42,0,0,0,.23-2.67,13.64,13.64,0,0,0-.57-4.28,5.33,5.33,0,0,0-1.55-2.51,3.5,3.5,0,0,0-2.25-.8,3.63,3.63,0,0,0-3.27,1.85A10.14,10.14,0,0,0,9.26,458.93Z" transform="translate(4.57 -60.95)"/><path class="cls-7" d="M23.85,451.62a3.64,3.64,0,0,0,1.42-.49,2.58,2.58,0,0,0,.86-.91,5.23,5.23,0,0,0,.48-1.39c.12-.55.24-1.36.37-2.43h2.5v4.34h5.67v1.78H29.48v7.82a19.48,19.48,0,0,0,.14,2.71,3.81,3.81,0,0,0,.52,1.59,2.31,2.31,0,0,0,.88.81,2.76,2.76,0,0,0,1.27.25,3.1,3.1,0,0,0,1.32-.29,4.94,4.94,0,0,0,1.21-.83l.79.94a9.4,9.4,0,0,1-2.36,1.76,5.17,5.17,0,0,1-2.32.55,4.1,4.1,0,0,1-3.37-1.35,6.54,6.54,0,0,1-1.11-4.21v-9.75h-2.6Z" transform="translate(4.57 -60.95)"/><path class="cls-7" d="M36.67,450.74h5v8.95a24,24,0,0,0,.16,3.13,4.75,4.75,0,0,0,.48,1.61,2.69,2.69,0,0,0,.89.92,3,3,0,0,0,1.6.37,3.17,3.17,0,0,0,1.29-.27,5.36,5.36,0,0,0,1.37-.92,4.46,4.46,0,0,0,1.08-1.31,3.29,3.29,0,0,0,.32-1.51v-6.59a14.56,14.56,0,0,0,0-1.51,3,3,0,0,0-.17-.82,1.94,1.94,0,0,0-.29-.5,1.53,1.53,0,0,0-.48-.35,5,5,0,0,0-1-.34v-.86h5v12c0,.9,0,1.55,0,1.95a2.75,2.75,0,0,0,.23.95,1.47,1.47,0,0,0,.54.57,4.68,4.68,0,0,0,1.32.41v.92l-4,.17H48.93l.11-2.88-.26-.07A11.74,11.74,0,0,1,46,467.09a5.44,5.44,0,0,1-2.66.74,4.92,4.92,0,0,1-2.64-.64,3.81,3.81,0,0,1-1.55-1.89,9.68,9.68,0,0,1-.51-3.54v-6.64a11.54,11.54,0,0,0-.11-2,1.71,1.71,0,0,0-.44-.88,3.36,3.36,0,0,0-1.41-.61Z" transform="translate(4.57 -60.95)"/><path class="cls-7" d="M61.71,453.66l.25,0a13.33,13.33,0,0,1,1.79-1.85,6.62,6.62,0,0,1,1.79-1.05,6.13,6.13,0,0,1,2.17-.37,14.57,14.57,0,0,1,1.84.11v4h-2a4.11,4.11,0,0,0-.9-1.38,1.86,1.86,0,0,0-1.3-.43,2.44,2.44,0,0,0-1.26.37,4.87,4.87,0,0,0-1.2,1.07,4.56,4.56,0,0,0-.8,1.32,4.27,4.27,0,0,0-.22,1.46v6.15a8.43,8.43,0,0,0,.19,2.21,1.63,1.63,0,0,0,.64.89,4,4,0,0,0,1.35.43v.87H57v-.87a6.51,6.51,0,0,0,.95-.36,1.62,1.62,0,0,0,.5-.44,2.11,2.11,0,0,0,.32-.87,11,11,0,0,0,.11-1.81v-7.66c0-.75,0-1.35,0-1.81a2.55,2.55,0,0,0-.25-1.1,1.31,1.31,0,0,0-.64-.61,4.93,4.93,0,0,0-1.22-.35v-.91l4.11-.18h1.08Z" transform="translate(4.57 -60.95)"/><path class="cls-7" d="M81.4,465l-.26-.07a10.94,10.94,0,0,1-2.88,2.22,6.47,6.47,0,0,1-2.85.65,5.22,5.22,0,0,1-2.36-.52,3.68,3.68,0,0,1-1.56-1.46,4.19,4.19,0,0,1-.55-2.17,4.37,4.37,0,0,1,2.54-4,18,18,0,0,1,7.62-1.62V457a9.34,9.34,0,0,0-.35-2.89,2.75,2.75,0,0,0-1.11-1.54,3.61,3.61,0,0,0-2-.5,3.19,3.19,0,0,0-2.2.73,4.37,4.37,0,0,0-1.26,2.16h-2.3v-2.29a26.63,26.63,0,0,1,2.81-1.29,15.88,15.88,0,0,1,2.25-.65,10.9,10.9,0,0,1,2.28-.24A6,6,0,0,1,82,451a3.52,3.52,0,0,1,1.58,1.69,8.63,8.63,0,0,1,.53,3.45v6.11c0,.87,0,1.48,0,1.84a5.92,5.92,0,0,0,.1,1,2,2,0,0,0,.27.73,1.37,1.37,0,0,0,.51.47,5.21,5.21,0,0,0,1.12.4v.87H81.31Zm-.3-5.5a12.28,12.28,0,0,0-5.34,1A3,3,0,0,0,74,463.24a2.72,2.72,0,0,0,.41,1.58,2.09,2.09,0,0,0,1,.8,4.23,4.23,0,0,0,1.46.22,4.15,4.15,0,0,0,2.17-.58,4.4,4.4,0,0,0,1.52-1.48A3.4,3.4,0,0,0,81.1,462Z" transform="translate(4.57 -60.95)"/><path class="cls-7" d="M101.18,453.5l.07,0a15,15,0,0,1,2-1.86,6.71,6.71,0,0,1,1.69-.89,5.59,5.59,0,0,1,1.91-.31,5.43,5.43,0,0,1,3.23,1,6.08,6.08,0,0,1,2.07,2.87,13.18,13.18,0,0,1,.73,4.7,12,12,0,0,1-.87,4.84,6.36,6.36,0,0,1-2.57,3,7.73,7.73,0,0,1-4,1,12.08,12.08,0,0,1-2.46-.24,10.86,10.86,0,0,1-2.41-.84l-1.23,1.08-1.22-.28V448.44c0-1.13,0-1.91,0-2.36A6.56,6.56,0,0,0,98,445a2.16,2.16,0,0,0-.32-.73,1.34,1.34,0,0,0-.54-.42,5.84,5.84,0,0,0-1.24-.32v-.91l4.25-.18h1Zm0,7.72a15.15,15.15,0,0,0,.12,2.15,4.09,4.09,0,0,0,.41,1.33,3.47,3.47,0,0,0,.85,1,3.18,3.18,0,0,0,1.24.6,6.45,6.45,0,0,0,1.53.17,3.55,3.55,0,0,0,3.19-1.72,9.8,9.8,0,0,0,1.09-5.17,10.87,10.87,0,0,0-1-5.23,3.22,3.22,0,0,0-3-1.75,4.16,4.16,0,0,0-1.7.31,4.89,4.89,0,0,0-1.4.95,5.13,5.13,0,0,0-1,1.29,3.18,3.18,0,0,0-.32,1.44Z" transform="translate(4.57 -60.95)"/><path class="cls-7" d="M126.61,465l-.26-.07a10.94,10.94,0,0,1-2.88,2.22,6.47,6.47,0,0,1-2.85.65,5.22,5.22,0,0,1-2.36-.52,3.68,3.68,0,0,1-1.56-1.46,4.19,4.19,0,0,1-.55-2.17,4.37,4.37,0,0,1,2.54-4,18,18,0,0,1,7.62-1.62V457a9.34,9.34,0,0,0-.35-2.89,2.75,2.75,0,0,0-1.11-1.54,3.61,3.61,0,0,0-2-.5,3.19,3.19,0,0,0-2.2.73,4.37,4.37,0,0,0-1.26,2.16h-2.3v-2.29a26.63,26.63,0,0,1,2.81-1.29,15.88,15.88,0,0,1,2.25-.65,10.92,10.92,0,0,1,2.29-.24,6,6,0,0,1,2.79.56,3.52,3.52,0,0,1,1.58,1.69,8.63,8.63,0,0,1,.53,3.45v6.11c0,.87,0,1.48,0,1.84a5.92,5.92,0,0,0,.1,1,2,2,0,0,0,.27.73,1.37,1.37,0,0,0,.51.47,5.42,5.42,0,0,0,1.12.4v.87h-4.82Zm-.3-5.5a12.28,12.28,0,0,0-5.34,1,3,3,0,0,0-1.78,2.76,2.72,2.72,0,0,0,.41,1.58,2.09,2.09,0,0,0,1,.8,4.23,4.23,0,0,0,1.46.22,4.15,4.15,0,0,0,2.17-.58,4.32,4.32,0,0,0,1.52-1.48,3.4,3.4,0,0,0,.54-1.77Z" transform="translate(4.57 -60.95)"/><path class="cls-7" d="M133,451.62a3.7,3.7,0,0,0,1.42-.49,2.55,2.55,0,0,0,.85-.91,4.89,4.89,0,0,0,.49-1.39c.11-.55.24-1.36.36-2.43h2.5v4.34h5.68v1.78H138.6v7.82a21.17,21.17,0,0,0,.14,2.71,3.67,3.67,0,0,0,.53,1.59,2.31,2.31,0,0,0,.88.81,2.75,2.75,0,0,0,1.26.25,3.1,3.1,0,0,0,1.32-.29,4.76,4.76,0,0,0,1.21-.83l.8.94a9.43,9.43,0,0,1-2.37,1.76,5.1,5.1,0,0,1-2.31.55,4.13,4.13,0,0,1-3.38-1.35,6.61,6.61,0,0,1-1.1-4.21v-9.75H133Z" transform="translate(4.57 -60.95)"/><path class="cls-7" d="M168.18,464.56a14.57,14.57,0,0,1-2.06,1.84,7.64,7.64,0,0,1-4.54,1.43,6.8,6.8,0,0,1-5.47-2.17q-1.85-2.18-1.85-6.41a10.83,10.83,0,0,1,.94-4.62,7.14,7.14,0,0,1,2.68-3.1,8.15,8.15,0,0,1,7-.53,5.15,5.15,0,0,1,2,1.54,7.21,7.21,0,0,1,1.16,2.46,16.27,16.27,0,0,1,.47,3.88H157.46v.32a11.33,11.33,0,0,0,.47,3.49,4.38,4.38,0,0,0,1.53,2.21,4.51,4.51,0,0,0,2.77.8,6,6,0,0,0,2.59-.54,7.6,7.6,0,0,0,2.29-1.74Zm-3-7.14a13.72,13.72,0,0,0-.47-3.1,4,4,0,0,0-1.11-1.85,2.83,2.83,0,0,0-1.93-.64,3.43,3.43,0,0,0-2.9,1.45,7.84,7.84,0,0,0-1.27,4.14Z" transform="translate(4.57 -60.95)"/><path class="cls-7" d="M187.47,452.52l-3.25-.13-.16.2a3.78,3.78,0,0,1,.86,1.48,6.4,6.4,0,0,1,.32,2,5.56,5.56,0,0,1-1.77,4.42,7.34,7.34,0,0,1-5,1.56,7.5,7.5,0,0,1-2.51-.37,2.75,2.75,0,0,0-1.34,2,1.6,1.6,0,0,0,.26,1,1.43,1.43,0,0,0,.84.47,7.92,7.92,0,0,0,1.78.14h4.22a7,7,0,0,1,3,.58,3.56,3.56,0,0,1,1.68,1.56,4.85,4.85,0,0,1,.5,2.28,4.79,4.79,0,0,1-.95,2.94,6.09,6.09,0,0,1-2.74,2,11.15,11.15,0,0,1-4.18.72,23.05,23.05,0,0,1-3.25-.21,8.87,8.87,0,0,1-2.51-.71,4,4,0,0,1-1.62-1.32,3.49,3.49,0,0,1-.57-2.05,3.14,3.14,0,0,1,.74-2,6.43,6.43,0,0,1,2.09-1.59,2.94,2.94,0,0,1-1.3-1,2.59,2.59,0,0,1-.47-1.53,3.19,3.19,0,0,1,.56-1.84,8.73,8.73,0,0,1,2-1.91,4.89,4.89,0,0,1-1.93-2,6.14,6.14,0,0,1-.66-2.88,6.43,6.43,0,0,1,.5-2.63,5.08,5.08,0,0,1,1.39-1.85,6,6,0,0,1,2.1-1.09,9.17,9.17,0,0,1,2.62-.36,10.78,10.78,0,0,1,2.52.3h6.22Zm-11.76,15.31a5,5,0,0,0-1.35,1.41,3.24,3.24,0,0,0-.44,1.7,2.52,2.52,0,0,0,1.25,2.33A7.71,7.71,0,0,0,179,474a7.85,7.85,0,0,0,2.72-.42,3.73,3.73,0,0,0,1.73-1.21,3,3,0,0,0,.6-1.85,3.4,3.4,0,0,0-.13-.95,1.94,1.94,0,0,0-.46-.84,2.44,2.44,0,0,0-1-.59,5.31,5.31,0,0,0-1.65-.22h-2.62C177.27,467.93,176.43,467.9,175.71,467.83Zm-.44-11.75a5.57,5.57,0,0,0,.9,3.4,3,3,0,0,0,2.58,1.19,3.15,3.15,0,0,0,1.53-.34,2.9,2.9,0,0,0,1-.94,4.52,4.52,0,0,0,.58-1.38,7.3,7.3,0,0,0,.18-1.64,6.7,6.7,0,0,0-.44-2.59,3,3,0,0,0-2.93-2,3,3,0,0,0-2.55,1.11A5,5,0,0,0,175.27,456.08Z" transform="translate(4.57 -60.95)"/><path class="cls-7" d="M197.14,467.83a7.11,7.11,0,0,1-5.59-2.16c-1.28-1.43-1.92-3.56-1.92-6.37a10.83,10.83,0,0,1,1-4.9,6.75,6.75,0,0,1,2.77-3,8.13,8.13,0,0,1,4-1,7.2,7.2,0,0,1,5.69,2.19,9.2,9.2,0,0,1,1.94,6.29,11.35,11.35,0,0,1-1,4.92,6.65,6.65,0,0,1-2.74,3A8.42,8.42,0,0,1,197.14,467.83Zm-4.19-8.9a11.12,11.12,0,0,0,1.15,5.57,3.65,3.65,0,0,0,3.3,1.94,3.44,3.44,0,0,0,2-.57,4.4,4.4,0,0,0,1.35-1.54,8,8,0,0,0,.75-2.24,15.35,15.35,0,0,0,.22-2.67,13.64,13.64,0,0,0-.57-4.28,5.33,5.33,0,0,0-1.55-2.51,3.5,3.5,0,0,0-2.25-.8,3.61,3.61,0,0,0-3.26,1.85A10,10,0,0,0,193,458.93Z" transform="translate(4.57 -60.95)"/><path class="cls-7" d="M225.72,467.55h-6.93v-.87a7,7,0,0,0,1-.36,1.62,1.62,0,0,0,.5-.44,2.28,2.28,0,0,0,.31-.87,9.81,9.81,0,0,0,.12-1.79v-4.6c0-.82,0-1.57-.07-2.24a9.8,9.8,0,0,0-.24-1.64,3.57,3.57,0,0,0-.4-1,2.6,2.6,0,0,0-.57-.62,2.5,2.5,0,0,0-.74-.4,3.38,3.38,0,0,0-1.11-.15,3.19,3.19,0,0,0-1.3.27,5.57,5.57,0,0,0-1.36.94,5.09,5.09,0,0,0-1.07,1.32,3.24,3.24,0,0,0-.33,1.49v6.56a10.76,10.76,0,0,0,.14,2.1,1.53,1.53,0,0,0,.54.9,3.64,3.64,0,0,0,1.29.53v.87H208.6v-.87a6.51,6.51,0,0,0,1-.36,1.48,1.48,0,0,0,.49-.44,2.27,2.27,0,0,0,.32-.87,9.77,9.77,0,0,0,.12-1.81v-7.66c0-.75,0-1.35,0-1.81a2.71,2.71,0,0,0-.25-1.1,1.31,1.31,0,0,0-.64-.61,4.93,4.93,0,0,0-1.22-.35v-.93l4.11-.16h1.08l-.2,2.87.25.07a16.88,16.88,0,0,1,2.1-1.88,6.73,6.73,0,0,1,1.62-.87,4.74,4.74,0,0,1,1.73-.31,5.82,5.82,0,0,1,1.69.22,3.76,3.76,0,0,1,1.32.68,3.58,3.58,0,0,1,.94,1.13,5.66,5.66,0,0,1,.56,1.63,13.19,13.19,0,0,1,.18,2.4v6.63a14.7,14.7,0,0,0,.07,1.76,2.26,2.26,0,0,0,.25.84,1.36,1.36,0,0,0,.51.5,4.69,4.69,0,0,0,1.16.43Z" transform="translate(4.57 -60.95)"/><path class="cls-7" d="M244.46,452.52l-3.26-.13-.15.2a3.78,3.78,0,0,1,.86,1.48,6.39,6.39,0,0,1,.31,2,5.59,5.59,0,0,1-1.76,4.42,7.34,7.34,0,0,1-5,1.56,7.61,7.61,0,0,1-2.52-.37,2.73,2.73,0,0,0-1.33,2,1.61,1.61,0,0,0,.25,1,1.42,1.42,0,0,0,.85.47,7.86,7.86,0,0,0,1.78.14h4.22a7,7,0,0,1,3,.58,3.56,3.56,0,0,1,1.68,1.56,5,5,0,0,1,.5,2.28,4.85,4.85,0,0,1-.95,2.94,6.09,6.09,0,0,1-2.74,2,11.19,11.19,0,0,1-4.18.72,23.05,23.05,0,0,1-3.25-.21,8.77,8.77,0,0,1-2.51-.71,4,4,0,0,1-1.62-1.32,3.49,3.49,0,0,1-.57-2.05,3.14,3.14,0,0,1,.74-2,6.43,6.43,0,0,1,2.09-1.59,2.94,2.94,0,0,1-1.3-1,2.53,2.53,0,0,1-.47-1.53,3.19,3.19,0,0,1,.56-1.84,8.86,8.86,0,0,1,2-1.91,4.92,4.92,0,0,1-1.92-2,6.14,6.14,0,0,1-.66-2.88,6.43,6.43,0,0,1,.5-2.63,5.08,5.08,0,0,1,1.39-1.85,6,6,0,0,1,2.1-1.09,9.17,9.17,0,0,1,2.62-.36,10.7,10.7,0,0,1,2.51.3h6.23ZM232.7,467.83a5,5,0,0,0-1.35,1.41,3.25,3.25,0,0,0-.45,1.7,2.52,2.52,0,0,0,1.26,2.33A7.71,7.71,0,0,0,236,474a7.85,7.85,0,0,0,2.72-.42,3.73,3.73,0,0,0,1.73-1.21,3,3,0,0,0,.6-1.85,3.82,3.82,0,0,0-.13-.95,1.94,1.94,0,0,0-.46-.84,2.51,2.51,0,0,0-1-.59,5.31,5.31,0,0,0-1.65-.22h-2.62C234.26,467.93,233.42,467.9,232.7,467.83Zm-.44-11.75a5.64,5.64,0,0,0,.89,3.4,3.06,3.06,0,0,0,2.59,1.19,3.2,3.2,0,0,0,1.53-.34,2.79,2.79,0,0,0,1-.94,4.3,4.3,0,0,0,.59-1.38,7.3,7.3,0,0,0,.18-1.64,6.7,6.7,0,0,0-.44-2.59,3,3,0,0,0-2.94-2,3,3,0,0,0-2.54,1.11A5,5,0,0,0,232.26,456.08Z" transform="translate(4.57 -60.95)"/><path class="cls-7" d="M254.12,467.83a7.1,7.1,0,0,1-5.58-2.16c-1.28-1.43-1.92-3.56-1.92-6.37a10.83,10.83,0,0,1,1-4.9,6.75,6.75,0,0,1,2.77-3,8.13,8.13,0,0,1,4-1,7.2,7.2,0,0,1,5.69,2.19,9.19,9.19,0,0,1,1.93,6.29,11.36,11.36,0,0,1-1,4.92,6.65,6.65,0,0,1-2.74,3A8.43,8.43,0,0,1,254.12,467.83Zm-4.18-8.9a11,11,0,0,0,1.15,5.57,3.65,3.65,0,0,0,3.3,1.94,3.44,3.44,0,0,0,2-.57,4.4,4.4,0,0,0,1.35-1.54,7.66,7.66,0,0,0,.74-2.24,14.42,14.42,0,0,0,.23-2.67,13.64,13.64,0,0,0-.57-4.28,5.26,5.26,0,0,0-1.56-2.51,3.46,3.46,0,0,0-2.25-.8,3.63,3.63,0,0,0-3.26,1.85A10.14,10.14,0,0,0,249.94,458.93Z" transform="translate(4.57 -60.95)"/><path class="cls-7" d="M7.89,491.64c0-1.13,0-1.91,0-2.36a5,5,0,0,0-.14-1.13,2,2,0,0,0-.31-.73,1.37,1.37,0,0,0-.55-.42,5.67,5.67,0,0,0-1.24-.32v-.91l4.26-.18h1V506c0,.91,0,1.56.06,2a2.77,2.77,0,0,0,.22.94,1.46,1.46,0,0,0,.56.57,4.66,4.66,0,0,0,1.33.41v.92l-4.15.17H7.87L8.08,508,7.82,508a14.91,14.91,0,0,1-1.93,1.77,7.7,7.7,0,0,1-1.74.94,5.55,5.55,0,0,1-2,.35,5.13,5.13,0,0,1-4.45-2.19,13,13,0,0,1-.55-11.22,6.87,6.87,0,0,1,2.76-3,7.68,7.68,0,0,1,3.89-1,10.54,10.54,0,0,1,2.11.19,9.85,9.85,0,0,1,1.95.6Zm0,8.68a15.88,15.88,0,0,0-.12-2.19,4.39,4.39,0,0,0-.42-1.39,2.68,2.68,0,0,0-.78-.95,3.3,3.3,0,0,0-1.08-.57,5.23,5.23,0,0,0-1.41-.17,3.84,3.84,0,0,0-3.43,1.8A9.43,9.43,0,0,0-.53,502a10.79,10.79,0,0,0,1,5.13,3.14,3.14,0,0,0,2.93,1.76,5.7,5.7,0,0,0,1.29-.13,3.78,3.78,0,0,0,1-.43,4.93,4.93,0,0,0,1-.8,4.62,4.62,0,0,0,.75-.93,4.17,4.17,0,0,0,.36-1,6.85,6.85,0,0,0,.12-1.41Z" transform="translate(4.57 -60.95)"/><path class="cls-7" d="M26.15,508.23l-.26-.07A10.86,10.86,0,0,1,23,510.38a6.55,6.55,0,0,1-2.86.65,5.22,5.22,0,0,1-2.36-.52,3.68,3.68,0,0,1-1.56-1.46,4.29,4.29,0,0,1-.55-2.17,4.34,4.34,0,0,1,2.54-4q2.55-1.41,7.62-1.63v-1.14a9.34,9.34,0,0,0-.35-2.89,2.78,2.78,0,0,0-1.1-1.54,3.67,3.67,0,0,0-2-.5,3.19,3.19,0,0,0-2.2.73,4.37,4.37,0,0,0-1.26,2.16h-2.3v-2.29a26.63,26.63,0,0,1,2.81-1.29,15.88,15.88,0,0,1,2.25-.65,10.92,10.92,0,0,1,2.29-.24,6,6,0,0,1,2.79.56,3.52,3.52,0,0,1,1.58,1.69,8.63,8.63,0,0,1,.53,3.45v6.12c0,.86,0,1.47,0,1.83a6.16,6.16,0,0,0,.1,1,2,2,0,0,0,.27.72,1.33,1.33,0,0,0,.52.47,5.08,5.08,0,0,0,1.11.4v.87H26.07Zm-.3-5.5a12.31,12.31,0,0,0-5.34.95,3,3,0,0,0-1.77,2.76,2.72,2.72,0,0,0,.4,1.58,2.09,2.09,0,0,0,1,.8,4.27,4.27,0,0,0,1.46.22,4.12,4.12,0,0,0,2.17-.58A4.32,4.32,0,0,0,25.31,507a3.4,3.4,0,0,0,.54-1.77Z" transform="translate(4.57 -60.95)"/><path class="cls-7" d="M37.33,506.67v4.08H33.78v-4.08Z" transform="translate(4.57 -60.95)"/><path class="cls-8" d="M-2.13,425.67v-.86a3.56,3.56,0,0,0,1.46-.62,1.78,1.78,0,0,0,.48-1,12.67,12.67,0,0,0,.11-1.93V406.07a12.24,12.24,0,0,0-.09-1.76,2,2,0,0,0-.29-.86A1.5,1.5,0,0,0-1,403a5.9,5.9,0,0,0-1.14-.41v-.86H7.48a13.79,13.79,0,0,1,4.49.6A5.07,5.07,0,0,1,14.5,404a5.13,5.13,0,0,1,.82,3,5.54,5.54,0,0,1-.59,2.65,5.62,5.62,0,0,1-1.54,1.87A10.76,10.76,0,0,1,10.75,413v.16a7.23,7.23,0,0,1,3.62,2.22,5.46,5.46,0,0,1,1.23,3.58,6.63,6.63,0,0,1-1.06,3.9,5.92,5.92,0,0,1-3,2.19,14,14,0,0,1-4.64.67Zm8.42-13.23a5.84,5.84,0,0,0,4.08-1.29,4.83,4.83,0,0,0,1.42-3.76,4.41,4.41,0,0,0-.4-2,3.14,3.14,0,0,0-1.09-1.27,4.41,4.41,0,0,0-1.64-.68,9.54,9.54,0,0,0-2.06-.2l-1.76,0-1.63.07v9.11ZM3.21,424a27.75,27.75,0,0,0,2.87.13,9,9,0,0,0,3.57-.58,3.71,3.71,0,0,0,1.85-1.72,6.27,6.27,0,0,0,.57-2.84,5.76,5.76,0,0,0-.62-2.81,3.8,3.8,0,0,0-1.93-1.65A9.59,9.59,0,0,0,5.93,414H3.21Z" transform="translate(4.57 -60.95)"/><path class="cls-8" d="M19.45,424.81a5.56,5.56,0,0,0,1-.37,1.37,1.37,0,0,0,.49-.44,2.31,2.31,0,0,0,.32-.86,11,11,0,0,0,.11-1.81v-7.66c0-.75,0-1.36,0-1.81a2.84,2.84,0,0,0-.25-1.1,1.37,1.37,0,0,0-.64-.62,5.27,5.27,0,0,0-1.22-.34v-.93l4.09-.16h1.07v12.57a10.76,10.76,0,0,0,.14,2.1,1.64,1.64,0,0,0,.54.9,3.72,3.72,0,0,0,1.29.53v.86H19.45Zm5-22.83v3.41H21.25V402Z" transform="translate(4.57 -60.95)"/><path class="cls-9" d="M864,154.86h-.4a3.15,3.15,0,0,0-1.61.38,7.53,7.53,0,0,0-1.72,1.53l-1.74-1.51a18.4,18.4,0,0,1,1.77-2,6.43,6.43,0,0,1,1.39-1,5,5,0,0,1,1.41-.51,10.36,10.36,0,0,1,2.08-.16h15.89v3.27h-4v9.19a5.4,5.4,0,0,0,.16,1.52,1.43,1.43,0,0,0,.44.73,1.16,1.16,0,0,0,.72.2,1.7,1.7,0,0,0,.73-.17,4.48,4.48,0,0,0,.81-.52l1,1.49a8.28,8.28,0,0,1-2.34,1.52,6.14,6.14,0,0,1-2.3.49,4,4,0,0,1-3.13-1.08,5.2,5.2,0,0,1-1-3.49v-9.88H868V169h-5.34v-1.11a55.29,55.29,0,0,0,1-5.84,53.9,53.9,0,0,0,.35-5.8Z" transform="translate(4.57 -60.95)"/><path class="cls-9" d="M904.18,164.63a10.76,10.76,0,0,0,.14,2.1,1.55,1.55,0,0,0,.54.9,3.81,3.81,0,0,0,1.29.54V169h-7v-.86a4.21,4.21,0,0,0,1.22-.48,1.31,1.31,0,0,0,.49-.59,3.53,3.53,0,0,0,.22-.93c0-.39.06-.9.06-1.54V149.92c0-1.13,0-1.91,0-2.36a5.7,5.7,0,0,0-.14-1.13,2,2,0,0,0-.32-.73,1.27,1.27,0,0,0-.54-.42,5.67,5.67,0,0,0-1.24-.32v-.91l4.24-.18h1Z" transform="translate(4.57 -60.95)"/><path class="cls-9" d="M916.91,169.31a7.07,7.07,0,0,1-5.58-2.16q-1.94-2.15-1.93-6.37a10.83,10.83,0,0,1,1-4.9,6.81,6.81,0,0,1,2.77-3,8.13,8.13,0,0,1,4-1,7.18,7.18,0,0,1,5.69,2.19,9.21,9.21,0,0,1,1.94,6.29,11.21,11.21,0,0,1-1,4.92,6.6,6.6,0,0,1-2.74,3A8.42,8.42,0,0,1,916.91,169.31Zm-4.19-8.9a11,11,0,0,0,1.16,5.57,3.62,3.62,0,0,0,3.29,1.94,3.42,3.42,0,0,0,2-.57,4.31,4.31,0,0,0,1.35-1.54,7.57,7.57,0,0,0,.75-2.24,15.31,15.31,0,0,0,.23-2.66,13.64,13.64,0,0,0-.58-4.29,5.38,5.38,0,0,0-1.55-2.51,3.5,3.5,0,0,0-2.25-.8,3.61,3.61,0,0,0-3.26,1.85A10,10,0,0,0,912.72,160.41Z" transform="translate(4.57 -60.95)"/><path class="cls-9" d="M927.31,153.1a3.75,3.75,0,0,0,1.43-.49,2.64,2.64,0,0,0,.85-.91,4.9,4.9,0,0,0,.48-1.39c.12-.55.24-1.36.37-2.43h2.5v4.34h5.68V154h-5.68v7.82a21.46,21.46,0,0,0,.14,2.72,3.67,3.67,0,0,0,.53,1.58,2.35,2.35,0,0,0,.88.82,2.86,2.86,0,0,0,1.26.24,3.1,3.1,0,0,0,1.32-.29,4.94,4.94,0,0,0,1.21-.83l.79.95a9.58,9.58,0,0,1-2.36,1.75,5.16,5.16,0,0,1-2.31.55A4.13,4.13,0,0,1,931,168a6.55,6.55,0,0,1-1.1-4.21V154h-2.61Z" transform="translate(4.57 -60.95)"/><path class="cls-9" d="M940.13,152.22h5v8.95a22.38,22.38,0,0,0,.16,3.13,4.69,4.69,0,0,0,.47,1.62,2.7,2.7,0,0,0,.9.91,2.92,2.92,0,0,0,1.6.37,3.33,3.33,0,0,0,1.28-.26,5.53,5.53,0,0,0,1.37-.93A4.31,4.31,0,0,0,952,164.7a3.26,3.26,0,0,0,.33-1.51V156.6a14,14,0,0,0-.06-1.51,3.08,3.08,0,0,0-.17-.82,1.69,1.69,0,0,0-.29-.5,1.42,1.42,0,0,0-.48-.35,4.73,4.73,0,0,0-1-.34v-.86h5v12c0,.9,0,1.55,0,2a2.75,2.75,0,0,0,.23.95,1.43,1.43,0,0,0,.55.57,4.46,4.46,0,0,0,1.32.41V169l-4,.17H952.4l.1-2.88-.26-.07a11.55,11.55,0,0,1-2.79,2.32,5.44,5.44,0,0,1-2.66.74,5,5,0,0,1-2.64-.63,3.88,3.88,0,0,1-1.54-1.89,9.77,9.77,0,0,1-.51-3.55V156.6a11.25,11.25,0,0,0-.12-2,1.64,1.64,0,0,0-.44-.88,3.3,3.3,0,0,0-1.41-.61Z" transform="translate(4.57 -60.95)"/><path class="cls-9" d="M965.18,155.14l.24.05a13.93,13.93,0,0,1,1.8-1.85,6.57,6.57,0,0,1,1.78-1.05,6.13,6.13,0,0,1,2.17-.37A14.73,14.73,0,0,1,973,152v4h-2a4.11,4.11,0,0,0-.9-1.38,1.84,1.84,0,0,0-1.3-.43,2.38,2.38,0,0,0-1.25.37,4.73,4.73,0,0,0-1.21,1.07,4.79,4.79,0,0,0-.8,1.32,4.53,4.53,0,0,0-.22,1.46v6.15a8.31,8.31,0,0,0,.2,2.21,1.54,1.54,0,0,0,.64.89,4.09,4.09,0,0,0,1.34.44V169h-7.08v-.86a8.63,8.63,0,0,0,1-.37,1.74,1.74,0,0,0,.5-.44,2.13,2.13,0,0,0,.31-.86,11.09,11.09,0,0,0,.11-1.81V157c0-.75,0-1.35,0-1.81a2.72,2.72,0,0,0-.24-1.1,1.35,1.35,0,0,0-.64-.61,5.17,5.17,0,0,0-1.23-.35v-.91l4.12-.18h1.07Z" transform="translate(4.57 -60.95)"/><path class="cls-9" d="M984.86,166.51l-.26-.07a10.86,10.86,0,0,1-2.87,2.22,6.55,6.55,0,0,1-2.86.65,5.09,5.09,0,0,1-2.36-.52,3.68,3.68,0,0,1-1.56-1.46,4.43,4.43,0,0,1,2-6.13q2.53-1.41,7.62-1.63v-1.14a9.3,9.3,0,0,0-.36-2.89,2.82,2.82,0,0,0-1.1-1.54,3.68,3.68,0,0,0-2-.49,3.26,3.26,0,0,0-2.2.72,4.37,4.37,0,0,0-1.26,2.16h-2.3V154.1a26.63,26.63,0,0,1,2.81-1.29,17.32,17.32,0,0,1,2.25-.65,10.92,10.92,0,0,1,2.29-.24,6,6,0,0,1,2.79.56,3.47,3.47,0,0,1,1.58,1.69,8.49,8.49,0,0,1,.53,3.45v6.12c0,.86,0,1.48,0,1.83a7.52,7.52,0,0,0,.1,1,2.14,2.14,0,0,0,.27.73,1.47,1.47,0,0,0,.52.46,5.81,5.81,0,0,0,1.11.41V169h-4.81Zm-.29-5.5a12.36,12.36,0,0,0-5.35,1,3,3,0,0,0-1.77,2.76,2.7,2.7,0,0,0,.4,1.58,2,2,0,0,0,1,.8,4.27,4.27,0,0,0,1.46.22,4.12,4.12,0,0,0,2.17-.58,4.38,4.38,0,0,0,1.52-1.47,3.45,3.45,0,0,0,.55-1.78Z" transform="translate(4.57 -60.95)"/><path class="cls-9" d="M1009.4,169h-6.92v-.86a8.53,8.53,0,0,0,1-.37,1.52,1.52,0,0,0,.5-.44,2.27,2.27,0,0,0,.32-.87,10,10,0,0,0,.11-1.79v-4.6c0-.82,0-1.57-.07-2.24a9,9,0,0,0-.23-1.64,3.55,3.55,0,0,0-.41-1,2.56,2.56,0,0,0-.56-.62,2.69,2.69,0,0,0-.75-.4,3.38,3.38,0,0,0-1.11-.15,3.22,3.22,0,0,0-1.3.27,5.36,5.36,0,0,0-1.35.94,4.89,4.89,0,0,0-1.07,1.32,3.28,3.28,0,0,0-.34,1.5v6.55a10.76,10.76,0,0,0,.14,2.1,1.6,1.6,0,0,0,.54.9,3.9,3.9,0,0,0,1.29.54V169h-6.89v-.86a7.84,7.84,0,0,0,1-.37,1.59,1.59,0,0,0,.49-.44,2.46,2.46,0,0,0,.32-.86,11.09,11.09,0,0,0,.11-1.81V157c0-.75,0-1.35,0-1.81a2.88,2.88,0,0,0-.25-1.1,1.35,1.35,0,0,0-.64-.61,5.21,5.21,0,0,0-1.22-.35v-.93l4.11-.16h1.07l-.19,2.87.24.07a16.14,16.14,0,0,1,2.11-1.88,6.87,6.87,0,0,1,1.61-.87,4.78,4.78,0,0,1,1.73-.31,5.89,5.89,0,0,1,1.7.22,3.76,3.76,0,0,1,1.32.68,3.71,3.71,0,0,1,.94,1.13,5.67,5.67,0,0,1,.55,1.63,12.29,12.29,0,0,1,.19,2.41v6.62a14.7,14.7,0,0,0,.07,1.76,2.28,2.28,0,0,0,.24.84,1.44,1.44,0,0,0,.51.5,5.25,5.25,0,0,0,1.16.44Z" transform="translate(4.57 -60.95)"/><path class="cls-9" d="M1025.07,168.5v3.71a14.21,14.21,0,0,0,.07,1.7,2.32,2.32,0,0,0,.29.89,1.45,1.45,0,0,0,.58.54,4.4,4.4,0,0,0,1.22.38v.87h-7.17v-.87a5.37,5.37,0,0,0,1-.36,1.29,1.29,0,0,0,.61-.54,2.6,2.6,0,0,0,.28-1,14.21,14.21,0,0,0,.07-1.63V157.13c0-.85,0-1.45,0-1.81a4.51,4.51,0,0,0-.14-.88,1.52,1.52,0,0,0-.31-.58,1.65,1.65,0,0,0-.55-.39,5.26,5.26,0,0,0-1.13-.32v-.93l4.13-.16h1.07l-.23,2.87.27.07a20.76,20.76,0,0,1,1.72-1.61,7.37,7.37,0,0,1,1.31-.83,5.93,5.93,0,0,1,1.3-.48,6.31,6.31,0,0,1,1.33-.14,5.13,5.13,0,0,1,4.45,2.17q1.56,2.17,1.56,6.36a11.88,11.88,0,0,1-.88,4.87,6.25,6.25,0,0,1-2.56,3,7.64,7.64,0,0,1-4,1,12,12,0,0,1-2.35-.22A10.4,10.4,0,0,1,1025.07,168.5Zm0-5.8a12.34,12.34,0,0,0,.21,2.6,3.27,3.27,0,0,0,.74,1.49,3.42,3.42,0,0,0,1.27.85,5.41,5.41,0,0,0,1.92.28,3.5,3.5,0,0,0,3.2-1.77,10.1,10.1,0,0,0,1.08-5.21c0-4.59-1.35-6.89-4-6.89a4.2,4.2,0,0,0-1.7.31,4.67,4.67,0,0,0-1.41,1,4.44,4.44,0,0,0-1,1.33,3.22,3.22,0,0,0-.29,1.38Z" transform="translate(4.57 -60.95)"/><path class="cls-9" d="M1050.48,166.51l-.26-.07a10.86,10.86,0,0,1-2.87,2.22,6.55,6.55,0,0,1-2.86.65,5.09,5.09,0,0,1-2.36-.52,3.68,3.68,0,0,1-1.56-1.46,4.29,4.29,0,0,1-.55-2.17,4.34,4.34,0,0,1,2.54-4q2.55-1.41,7.62-1.63v-1.14a9.34,9.34,0,0,0-.35-2.89,2.82,2.82,0,0,0-1.1-1.54,3.68,3.68,0,0,0-2-.49,3.24,3.24,0,0,0-2.2.72,4.37,4.37,0,0,0-1.26,2.16h-2.3V154.1a26.63,26.63,0,0,1,2.81-1.29,17.32,17.32,0,0,1,2.25-.65,10.92,10.92,0,0,1,2.29-.24,6,6,0,0,1,2.79.56,3.52,3.52,0,0,1,1.58,1.69,8.66,8.66,0,0,1,.53,3.45v6.12c0,.86,0,1.48,0,1.83a6.16,6.16,0,0,0,.1,1,2.14,2.14,0,0,0,.27.73,1.39,1.39,0,0,0,.52.46,5.55,5.55,0,0,0,1.11.41V169h-4.81Zm-.3-5.5a12.31,12.31,0,0,0-5.34,1,3,3,0,0,0-1.77,2.76,2.7,2.7,0,0,0,.4,1.58,2,2,0,0,0,1,.8,4.27,4.27,0,0,0,1.46.22,4.12,4.12,0,0,0,2.17-.58,4.38,4.38,0,0,0,1.52-1.47,3.43,3.43,0,0,0,.54-1.78Z" transform="translate(4.57 -60.95)"/><path class="cls-9" d="M1062.65,155.14l.24.05a13.93,13.93,0,0,1,1.8-1.85,6.57,6.57,0,0,1,1.78-1.05,6.13,6.13,0,0,1,2.17-.37,14.73,14.73,0,0,1,1.85.11v4h-2a4.11,4.11,0,0,0-.9-1.38,1.84,1.84,0,0,0-1.3-.43,2.38,2.38,0,0,0-1.25.37,4.73,4.73,0,0,0-1.21,1.07,4.79,4.79,0,0,0-.8,1.32,4.53,4.53,0,0,0-.22,1.46v6.15a8.31,8.31,0,0,0,.2,2.21,1.58,1.58,0,0,0,.64.89,4.18,4.18,0,0,0,1.34.44V169h-7.08v-.86a8.63,8.63,0,0,0,1-.37,1.74,1.74,0,0,0,.5-.44,2.13,2.13,0,0,0,.31-.86,11.09,11.09,0,0,0,.11-1.81V157c0-.75,0-1.35,0-1.81a2.72,2.72,0,0,0-.24-1.1,1.35,1.35,0,0,0-.64-.61,5.21,5.21,0,0,0-1.22-.35v-.91l4.11-.18h1.07Z" transform="translate(4.57 -60.95)"/><path class="cls-9" d="M1071.74,153.1a3.7,3.7,0,0,0,1.42-.49,2.55,2.55,0,0,0,.85-.91,4.89,4.89,0,0,0,.49-1.39c.11-.55.24-1.36.36-2.43h2.5v4.34H1083V154h-5.68v7.82a21.46,21.46,0,0,0,.14,2.72,3.67,3.67,0,0,0,.53,1.58,2.43,2.43,0,0,0,.88.82,2.89,2.89,0,0,0,1.26.24,3.1,3.1,0,0,0,1.32-.29,4.76,4.76,0,0,0,1.21-.83l.8.95a9.62,9.62,0,0,1-2.37,1.75,5.1,5.1,0,0,1-2.31.55,4.13,4.13,0,0,1-3.38-1.35,6.61,6.61,0,0,1-1.1-4.21V154h-2.6Z" transform="translate(4.57 -60.95)"/><path class="cls-9" d="M1098.7,166a14.59,14.59,0,0,1-2.07,1.84,7.56,7.56,0,0,1-2.06,1.05,7.82,7.82,0,0,1-2.48.38,6.81,6.81,0,0,1-5.47-2.17q-1.84-2.17-1.84-6.41a10.68,10.68,0,0,1,.94-4.62,7.14,7.14,0,0,1,2.68-3.1,7.46,7.46,0,0,1,4-1.09,7.23,7.23,0,0,1,3,.57,5.07,5.07,0,0,1,2,1.53,7.4,7.4,0,0,1,1.16,2.46,16.4,16.4,0,0,1,.46,3.88H1088v.32a11.35,11.35,0,0,0,.46,3.49,4.38,4.38,0,0,0,1.53,2.21,4.51,4.51,0,0,0,2.77.8,6.15,6.15,0,0,0,2.59-.53,7.85,7.85,0,0,0,2.3-1.75Zm-3-7.14a13.12,13.12,0,0,0-.48-3.1,3.88,3.88,0,0,0-1.1-1.85,2.91,2.91,0,0,0-1.94-.64,3.44,3.44,0,0,0-2.89,1.45,7.75,7.75,0,0,0-1.27,4.14Z" transform="translate(4.57 -60.95)"/><path class="cls-9" d="M864.74,198.18l.07,0a16.1,16.1,0,0,1,2.17-1.94,6.94,6.94,0,0,1,1.58-.84,4.86,4.86,0,0,1,1.68-.28,6,6,0,0,1,1.72.23,3.83,3.83,0,0,1,1.33.69,3.74,3.74,0,0,1,.93,1.15,5.44,5.44,0,0,1,.53,1.61,13.08,13.08,0,0,1,.18,2.39v6.62a10.66,10.66,0,0,0,.13,2.09,1.69,1.69,0,0,0,.48.86,3.82,3.82,0,0,0,1.38.59v.86H870v-.86a6.73,6.73,0,0,0,1-.37,1.74,1.74,0,0,0,.5-.44,2.28,2.28,0,0,0,.31-.87,9.81,9.81,0,0,0,.12-1.79v-4.6a20.16,20.16,0,0,0-.24-3.58,3.19,3.19,0,0,0-.93-1.85,2.82,2.82,0,0,0-1.94-.62,3.06,3.06,0,0,0-1.27.25,5.21,5.21,0,0,0-1.3.88,5.08,5.08,0,0,0-1.12,1.3,2.84,2.84,0,0,0-.37,1.42v6.73a16.7,16.7,0,0,0,.06,1.71,2.69,2.69,0,0,0,.23.85,1.38,1.38,0,0,0,.54.56,4.12,4.12,0,0,0,1.12.42v.86h-7v-.86a4.86,4.86,0,0,0,1.1-.41,1.37,1.37,0,0,0,.52-.49,2.29,2.29,0,0,0,.27-.86,12.57,12.57,0,0,0,.09-1.78V193.12c0-1.13,0-1.91,0-2.36a5.63,5.63,0,0,0-.15-1.13,2,2,0,0,0-.31-.73,1.47,1.47,0,0,0-.55-.42,5.51,5.51,0,0,0-1.24-.32v-.91l4.24-.18h1.06Z" transform="translate(4.57 -60.95)"/><path class="cls-9" d="M890.05,209.71l-.27-.07a10.71,10.71,0,0,1-2.87,2.22,6.55,6.55,0,0,1-2.86.65,5.05,5.05,0,0,1-2.35-.52,3.76,3.76,0,0,1-1.57-1.46,4.29,4.29,0,0,1-.54-2.17,4.34,4.34,0,0,1,2.54-4q2.54-1.41,7.62-1.63v-1.14a9.66,9.66,0,0,0-.35-2.89,2.88,2.88,0,0,0-1.11-1.54,3.64,3.64,0,0,0-2-.49,3.27,3.27,0,0,0-2.21.72,4.44,4.44,0,0,0-1.25,2.16H880.5V197.3a27.6,27.6,0,0,1,2.82-1.29,17.32,17.32,0,0,1,2.25-.65,10.9,10.9,0,0,1,2.28-.24,6.06,6.06,0,0,1,2.8.56,3.52,3.52,0,0,1,1.58,1.69,8.69,8.69,0,0,1,.52,3.45v6.12c0,.86,0,1.48,0,1.83a6.12,6.12,0,0,0,.11,1,2.15,2.15,0,0,0,.26.73,1.47,1.47,0,0,0,.52.46,5.11,5.11,0,0,0,1.12.41v.86H890Zm-.3-5.5a12.28,12.28,0,0,0-5.34.95,2.94,2.94,0,0,0-1.78,2.76,2.7,2.7,0,0,0,.4,1.58,2,2,0,0,0,1,.8,4.27,4.27,0,0,0,1.46.22,4.12,4.12,0,0,0,2.17-.58,4.29,4.29,0,0,0,1.52-1.47,3.36,3.36,0,0,0,.55-1.78Z" transform="translate(4.57 -60.95)"/><path class="cls-9" d="M902.21,198.34l.25,0a13.33,13.33,0,0,1,1.79-1.85,6.62,6.62,0,0,1,1.79-1,6.09,6.09,0,0,1,2.17-.37,14.57,14.57,0,0,1,1.84.11v4h-2a4.27,4.27,0,0,0-.9-1.38,1.86,1.86,0,0,0-1.3-.43,2.44,2.44,0,0,0-1.26.37,4.7,4.7,0,0,0-1.2,1.07,4.35,4.35,0,0,0-.8,1.32,4.27,4.27,0,0,0-.22,1.46v6.15a8.43,8.43,0,0,0,.19,2.21,1.58,1.58,0,0,0,.64.89,4.16,4.16,0,0,0,1.35.44v.86h-7.09v-.86a6.07,6.07,0,0,0,1-.37,1.74,1.74,0,0,0,.5-.44,2.12,2.12,0,0,0,.32-.86,11.36,11.36,0,0,0,.1-1.81v-7.67c0-.75,0-1.35,0-1.81a2.71,2.71,0,0,0-.25-1.1,1.31,1.31,0,0,0-.64-.61,5.07,5.07,0,0,0-1.22-.35v-.91l4.11-.18h1.08Z" transform="translate(4.57 -60.95)"/><path class="cls-9" d="M911.3,196.3a3.64,3.64,0,0,0,1.42-.49,2.58,2.58,0,0,0,.86-.91,5.28,5.28,0,0,0,.48-1.38c.12-.56.24-1.37.37-2.44h2.49v4.34h5.68v1.78h-5.68V205a19.48,19.48,0,0,0,.15,2.72,3.67,3.67,0,0,0,.52,1.58,2.43,2.43,0,0,0,.88.82,2.91,2.91,0,0,0,1.27.24,3.1,3.1,0,0,0,1.32-.29,4.94,4.94,0,0,0,1.21-.83l.79,1A9.58,9.58,0,0,1,920.7,212a5.17,5.17,0,0,1-2.32.55,4.1,4.1,0,0,1-3.37-1.35A6.54,6.54,0,0,1,913.9,207V197.2h-2.6Z" transform="translate(4.57 -60.95)"/><path class="cls-9" d="M924.11,195.42h5v9a24,24,0,0,0,.16,3.13,4.9,4.9,0,0,0,.48,1.62,2.76,2.76,0,0,0,.89.91,2.94,2.94,0,0,0,1.6.37,3.34,3.34,0,0,0,1.29-.26,5.72,5.72,0,0,0,1.37-.93A4.46,4.46,0,0,0,936,207.9a3.26,3.26,0,0,0,.32-1.51V199.8a14.56,14.56,0,0,0,0-1.51,2.71,2.71,0,0,0-.18-.82,1.61,1.61,0,0,0-.29-.5,1.37,1.37,0,0,0-.47-.35,5,5,0,0,0-1-.34v-.86h5v12c0,.9,0,1.55,0,1.95a2.54,2.54,0,0,0,.23,1,1.47,1.47,0,0,0,.54.57,4.68,4.68,0,0,0,1.32.41v.92l-4,.17h-1.08l.11-2.88-.26-.07a11.94,11.94,0,0,1-2.79,2.32,5.46,5.46,0,0,1-2.66.74,5,5,0,0,1-2.64-.63,3.89,3.89,0,0,1-1.55-1.89,9.77,9.77,0,0,1-.51-3.55V199.8a12.65,12.65,0,0,0-.11-2,1.71,1.71,0,0,0-.44-.88,3.36,3.36,0,0,0-1.42-.61Z" transform="translate(4.57 -60.95)"/><path class="cls-9" d="M949.11,202.44h.56a2.79,2.79,0,0,0,1-.13,3.78,3.78,0,0,0,1-.53,18.14,18.14,0,0,0,1.49-1.28,11.18,11.18,0,0,0,1.22-1.28,3.54,3.54,0,0,0,.58-1,2.11,2.11,0,0,0,.14-.74,1,1,0,0,0-.33-.82,2,2,0,0,0-1.06-.41v-.86h7.57v.86a5.56,5.56,0,0,0-1.72.72,12.23,12.23,0,0,0-1.88,1.48l-4,3.83,5.06,6.61a9.51,9.51,0,0,0,1.59,1.72,3.79,3.79,0,0,0,1.56.73v.86H955v-.86a1.55,1.55,0,0,0,.67-.21.55.55,0,0,0,.22-.5,1.58,1.58,0,0,0-.09-.52,4,4,0,0,0-.4-.69c-.2-.29-.56-.8-1.09-1.53l-2.09-2.81a10.11,10.11,0,0,0-.85-1,1.61,1.61,0,0,0-.54-.35,2.22,2.22,0,0,0-.76-.11h-1v4.22a10.76,10.76,0,0,0,.14,2.1,1.5,1.5,0,0,0,.54.9,3.81,3.81,0,0,0,1.29.54v.86h-7v-.86a3.94,3.94,0,0,0,1.22-.48,1.38,1.38,0,0,0,.49-.59,3.53,3.53,0,0,0,.22-.93c0-.39.06-.9.06-1.54V193.12c0-1.13,0-1.91,0-2.36a5.7,5.7,0,0,0-.14-1.13,2,2,0,0,0-.32-.73,1.36,1.36,0,0,0-.54-.42,5.67,5.67,0,0,0-1.24-.32v-.91l4.24-.18h1.05Z" transform="translate(4.57 -60.95)"/><path class="cls-9" d="M970.33,212.51a7.07,7.07,0,0,1-5.58-2.16q-1.93-2.15-1.93-6.37a10.83,10.83,0,0,1,1-4.9,6.81,6.81,0,0,1,2.77-3,8.13,8.13,0,0,1,4-1,7.18,7.18,0,0,1,5.69,2.19,9.21,9.21,0,0,1,1.94,6.29,11.21,11.21,0,0,1-1,4.92,6.68,6.68,0,0,1-2.74,3A8.52,8.52,0,0,1,970.33,212.51Zm-4.19-8.9a11.12,11.12,0,0,0,1.15,5.57,3.65,3.65,0,0,0,3.3,1.94,3.42,3.42,0,0,0,2-.57,4.31,4.31,0,0,0,1.35-1.54,7.57,7.57,0,0,0,.75-2.24,15.31,15.31,0,0,0,.23-2.66,13.64,13.64,0,0,0-.58-4.29,5.38,5.38,0,0,0-1.55-2.51,3.5,3.5,0,0,0-2.25-.8,3.61,3.61,0,0,0-3.26,1.85A10,10,0,0,0,966.14,203.61Z" transform="translate(4.57 -60.95)"/><path class="cls-9" d="M1001.58,193.12c0-1.13,0-1.91,0-2.36a5,5,0,0,0-.14-1.13,2,2,0,0,0-.31-.73,1.47,1.47,0,0,0-.55-.42,5.67,5.67,0,0,0-1.24-.32v-.91l4.26-.18h1v20.36c0,.91,0,1.57.06,2a2.54,2.54,0,0,0,.23.94,1.37,1.37,0,0,0,.55.57,4.66,4.66,0,0,0,1.33.41v.92l-4.15.17h-1.06l.21-2.88-.26-.07a15.62,15.62,0,0,1-1.92,1.77,8.15,8.15,0,0,1-1.74.94,5.65,5.65,0,0,1-2,.35,5.14,5.14,0,0,1-4.45-2.19,13,13,0,0,1-.54-11.22,6.85,6.85,0,0,1,2.75-3,7.68,7.68,0,0,1,3.89-1,11.33,11.33,0,0,1,2.11.19,9.85,9.85,0,0,1,2,.6Zm0,8.68a15.88,15.88,0,0,0-.12-2.19,4.22,4.22,0,0,0-.42-1.39,2.77,2.77,0,0,0-.78-.95,3.1,3.1,0,0,0-1.08-.56,4.83,4.83,0,0,0-1.41-.18,3.84,3.84,0,0,0-3.43,1.8,9.43,9.43,0,0,0-1.18,5.18,10.79,10.79,0,0,0,1,5.13,3.14,3.14,0,0,0,2.93,1.76,5.7,5.7,0,0,0,1.29-.13,4.1,4.1,0,0,0,1-.42,5.31,5.31,0,0,0,1-.8,4.38,4.38,0,0,0,.75-.94,3.42,3.42,0,0,0,.36-1,6.85,6.85,0,0,0,.12-1.41Z" transform="translate(4.57 -60.95)"/><path class="cls-9" d="M1009.26,195.42h5v9a24,24,0,0,0,.16,3.13,4.67,4.67,0,0,0,.48,1.62,2.76,2.76,0,0,0,.89.91,2.94,2.94,0,0,0,1.6.37,3.29,3.29,0,0,0,1.28-.26,5.75,5.75,0,0,0,1.38-.93,4.46,4.46,0,0,0,1.08-1.31,3.39,3.39,0,0,0,.32-1.51V199.8c0-.67,0-1.17-.05-1.51a3,3,0,0,0-.18-.82,1.83,1.83,0,0,0-.29-.5,1.48,1.48,0,0,0-.47-.35,5.2,5.2,0,0,0-1-.34v-.86h5v12c0,.9,0,1.55,0,1.95a2.54,2.54,0,0,0,.23,1,1.4,1.4,0,0,0,.54.57,4.68,4.68,0,0,0,1.32.41v.92l-4,.17h-1.07l.11-2.88-.27-.07a11.72,11.72,0,0,1-2.78,2.32,5.47,5.47,0,0,1-2.67.74,5,5,0,0,1-2.63-.63,3.89,3.89,0,0,1-1.55-1.89,9.77,9.77,0,0,1-.51-3.55V199.8a12.65,12.65,0,0,0-.11-2,1.79,1.79,0,0,0-.44-.88,3.36,3.36,0,0,0-1.42-.61Z" transform="translate(4.57 -60.95)"/><path class="cls-9" d="M1033.33,208.15v4.08h-3.55v-4.08Z" transform="translate(4.57 -60.95)"/><path class="cls-10" d="M510.23,400.19a69.24,69.24,0,0,1-34.78-18.86c-4.54-4.56-8.67-10.14-9.59-16.67-.77-5.48,1.49-11.86,6.48-14.72,5.88-3.37,12.26,2.52,15.46,7,3.92,5.47,6.09,12,7.73,18.45,3,12,4.45,25.07,12.12,35.28a29.53,29.53,0,0,0,3.5,3.91,11.41,11.41,0,0,0,4.05,2.84,5.76,5.76,0,0,0,7.11-4c.76-3.52-2.26-6.75-4.54-9a33.93,33.93,0,0,0-9.07-6.35c-.68-.34-3.34.73-2.35,1.21a32.84,32.84,0,0,1,8.55,6c2.16,2.12,5.24,5.24,4.54,8.58a4.29,4.29,0,0,1-.86,1.83c-.15.18-.44.58-.67.62s-1.12-.46-1.3-.56a19.9,19.9,0,0,1-3.82-3.28,34,34,0,0,1-5.36-7.5c-6.13-11.43-6.8-24.66-10.86-36.8-2-6.11-5.07-12.45-10-16.74-4.5-3.9-10.6-5-15.92-2.06a15.85,15.85,0,0,0-7.83,13c-.25,6.35,3.21,12.27,7.19,16.95,9.58,11.26,23.5,19,37.89,22a3.14,3.14,0,0,0,2-.33c.24-.13,1-.74.32-.89Z" transform="translate(4.57 -60.95)"/><path class="cls-10" d="M502.21,397.88a16.88,16.88,0,0,1-7.42-4.37,17.43,17.43,0,0,1-2.48-3.26c-.72-1.22-1.93-3.3-1.26-4.74a2.16,2.16,0,0,1,2.36-1,4.66,4.66,0,0,1,3,2.71c1.43,2.87,1,6.25,1.67,9.31,1.32,6.37,6.31,11.26,10.45,15.95l15,17.06c2.46,2.78,4.9,5.58,7.37,8.36,1.92,2.15,4.05,4.08,7,4.46,5.38.71,10.59-3.07,13.27-7.47,5.15-8.45,3.48-20.15-3-27.42-4.45-5-10.75-7.14-17.23-8.13-8.09-1.25-16.34-1.79-24.49-2.62a1.81,1.81,0,0,0-1.88.91,1,1,0,0,0,.91,1.32c7.37.75,14.76,1.38,22.12,2.29,6,.73,12.12,2.07,16.68,6.26,7.1,6.53,9.52,18.93,4,27.17a13.19,13.19,0,0,1-5.95,5,6.71,6.71,0,0,1-7.3-1.52,108.4,108.4,0,0,1-7.36-8.22l-7.27-8.25c-4.84-5.49-9.93-10.84-14.51-16.56a24.63,24.63,0,0,1-4.53-7.78c-1-3.18-.57-6.63-1.64-9.8-.91-2.69-2.94-5.12-6-5.29-2.76-.15-5.9,1.58-5.85,4.65s2.45,6.2,4.48,8.25a18.71,18.71,0,0,0,8.15,4.84,1.92,1.92,0,0,0,2.05-.55.92.92,0,0,0-.4-1.5Z" transform="translate(4.57 -60.95)"/><path class="cls-10" d="M502.76,396.76c-.63-4.1-1.51-13.08,4.81-13.17A3.43,3.43,0,0,1,511,388c-.76,2.9-3.83,4.55-6.43,5.49-6,2.14-12.52,1.91-18.76,2.31-6,.37-12,1.32-17.27,4.42-9,5.35-14.71,16.13-13.52,26.62a13.65,13.65,0,0,0,3.35,8,17.38,17.38,0,0,0,6.73,4.2c5.12,1.86,11.51,2.28,16.29-.7,3-1.86,4.71-5.13,6.56-8q3.3-5.17,6.54-10.37,6.62-10.62,12.94-21.4c.76-1.3-2.17-1.17-2.73-.21q-5.71,9.73-11.65,19.32-2.85,4.59-5.73,9.14c-1,1.52-1.93,3-2.91,4.55a30.51,30.51,0,0,1-3.05,4.34c-4,4.28-11.2,3.2-16,1a12.63,12.63,0,0,1-6.16-5.6,18.26,18.26,0,0,1-1.4-9c.69-11,8.49-20.81,19.29-23.34,6.34-1.47,12.94-1,19.37-1.74,5.62-.61,12.65-1.93,16.21-6.8,1.57-2.14,2-5.25-.16-7.17-1.85-1.63-4.69-1.64-6.93-.92a8.31,8.31,0,0,0-5.48,5.21c-1.19,3.26-.74,6.84-.23,10.18.18,1.17,3.09.47,2.9-.77Z" transform="translate(4.57 -60.95)"/><path class="cls-11" d="M572.46,454.46c-14-3.89-30.37-8.78-36.93-23.18a22.71,22.71,0,0,1,.91-20.83,11.67,11.67,0,0,1,3.5-4.22c1.57-1,4-.55,5.72-.32a29.54,29.54,0,0,1,9.83,3.27c13.85,7.34,20.72,22.1,27.6,35.37a139.72,139.72,0,0,0,12.82,20.68c1.94,2.56,4.16,6.42,7.68,6.82a8.4,8.4,0,0,0,7.54-3.57,7.15,7.15,0,0,0-.27-8.19,13,13,0,0,0-8.19-5.11c-4-.9-8.16-.59-12.2-.56q-6.74,0-13.45-.1c-2.24,0-4.49-.12-6.73-.2-.54,0-1.64.22-1.92.76s.26.7.75.72c8.77.31,17.52.12,26.29.25,3.81.05,7.8.59,10.8,3.15,2.42,2.07,4.17,5.57,2.63,8.67-.56,1.13-1.7,2.52-3,2.72-1.63.25-3-1.26-4-2.37a108.94,108.94,0,0,1-7.4-9.87c-4.57-6.8-8.19-14.11-12-21.37-6.58-12.64-14.89-26-29-31a28.72,28.72,0,0,0-9.84-1.73,10.87,10.87,0,0,0-5.44,1.32,11.79,11.79,0,0,0-3.53,3.57,23.35,23.35,0,0,0-3.1,20.16c4.55,14.35,19.55,20.94,32.81,24.86,1.92.56,3.84,1.1,5.77,1.64a2.76,2.76,0,0,0,2-.31c.28-.17,1-.81.29-1Z" transform="translate(4.57 -60.95)"/><path class="cls-11" d="M584.84,454.41c-3.22-2.42-7.17-3.58-10.41-6-2.52-1.86-4.5-5.34-3.59-8.55,1.24-4.35,6.27-1.84,8.16.54,2.48,3.13,3.74,7.17,5.77,10.6a74.71,74.71,0,0,0,16,18.4,114.34,114.34,0,0,0,21,14.31c7.67,4,16,6.75,24.76,6.65,8.16-.09,16.41-2.83,22.25-8.69,5.15-5.17,8.55-13.07,6.83-20.41-1-4.14-4.17-5.85-8.08-6.6a105.67,105.67,0,0,0-14.63-1.55c-10-.49-20-.43-29.93-.57l-29.86-.42-7.47-.11a2,2,0,0,0-1.89.87.85.85,0,0,0,.86,1.16c19.89.28,39.78.46,59.66.85,4.9.1,9.81.27,14.69.76,2.4.24,4.8.53,7.17,1,1.88.34,3.93.87,5.21,2.41,2.44,2.93,2,7.94,1.12,11.39a23,23,0,0,1-5.56,9.92c-5.68,6.05-14.14,8.37-22.25,7.94-8.85-.47-17.15-4-24.69-8.46-14-8.31-27.74-19.49-34.89-34.5-1.59-3.35-3.16-7.12-6.65-8.91-3.07-1.57-7.26-1.4-9.48,1.54-1.87,2.46-1.38,5.85,0,8.42,1.76,3.33,5.23,5,8.47,6.61a33.08,33.08,0,0,1,5.19,3c1,.74,3.55-.65,2.25-1.62Z" transform="translate(4.57 -60.95)"/><path class="cls-11" d="M590.44,452.19c-5.72-4.21-5.43-14.52,2.15-16.57,3.32-.9,8.25,1.17,6.63,5.3-.78,2-2.55,3.4-4.13,4.72l-5.74,4.81L567.17,469c-6.56,5.5-13.51,10.79-19.31,17.13-5,5.46-9,12-9.61,19.54-.52,6.39,1.28,13.28,6.43,17.45,6.24,5,15.25,5.07,22.53,2.56a29,29,0,0,0,16.25-14.49c3.37-6.54,4.76-14,5.47-21.22a153.72,153.72,0,0,0,.16-28c-.19-2.35-.45-4.69-.75-7-.11-.83-3-.2-2.9.78a155.43,155.43,0,0,1,1.06,28.77c-.45,7.76-1.33,15.67-4.11,23-2.7,7.13-7.51,13.58-14.73,16.58s-16.77,2.3-22.22-3.93c-4.54-5.2-5.22-12.91-3.56-19.38,2-7.68,7.46-13.93,13.17-19.18,6.72-6.17,13.92-11.85,20.91-17.71,7.44-6.24,15-12.4,22.33-18.72,2.37-2,5.7-5.57,3.39-8.82-2-2.77-6.3-2.83-9.26-2.07a12.21,12.21,0,0,0-7.8,5.78,10.41,10.41,0,0,0,0,9.56,10.52,10.52,0,0,0,3.07,3.62c.76.55,3.38-.59,2.71-1.09Z" transform="translate(4.57 -60.95)"/><path class="cls-3" d="M477.32,364.41a5,5,0,0,0,.06.9,1.18,1.18,0,0,0,.24.49,1.11,1.11,0,0,0,.49.3,4.16,4.16,0,0,0,.8.16c.32,0,.74.06,1.27.08v.75H472.6v-.75a15.14,15.14,0,0,0,1.63-.14,2.1,2.1,0,0,0,.74-.26,1,1,0,0,0,.37-.49,3.26,3.26,0,0,0,.12-1v-8.32a1.06,1.06,0,0,0-.14-.6.52.52,0,0,0-.42-.19,2.29,2.29,0,0,0-.94.34c-.4.23-.9.54-1.49.94l-.45-.79,4.79-2.86h.57c0,.65-.06,1.56-.06,2.72Z" transform="translate(4.57 -60.95)"/><path class="cls-3" d="M475.9,423.24a4.78,4.78,0,0,0,.07.9,1,1,0,0,0,.24.49,1.13,1.13,0,0,0,.48.3,4.5,4.5,0,0,0,.8.16c.32,0,.75.06,1.27.08v.75h-7.57v-.75a14.64,14.64,0,0,0,1.62-.14,2.17,2.17,0,0,0,.75-.26,1,1,0,0,0,.37-.49,3.26,3.26,0,0,0,.12-1v-8.32a1,1,0,0,0-.15-.6.5.5,0,0,0-.42-.19,2.21,2.21,0,0,0-.93.34c-.4.23-.9.54-1.5.94l-.45-.79,4.8-2.86H476c0,.65-.06,1.56-.06,2.72Z" transform="translate(4.57 -60.95)"/><path class="cls-3" d="M541.1,424.29a4.92,4.92,0,0,0,.06.89,1.17,1.17,0,0,0,.24.5,1.12,1.12,0,0,0,.48.29,4.43,4.43,0,0,0,.8.17c.33,0,.75.06,1.28.07V427h-7.58v-.75a15.33,15.33,0,0,0,1.62-.13,1.91,1.91,0,0,0,.75-.27,1,1,0,0,0,.37-.49,3.19,3.19,0,0,0,.12-1V416a1.06,1.06,0,0,0-.14-.6.5.5,0,0,0-.42-.19,2.15,2.15,0,0,0-.94.34c-.4.22-.9.54-1.49.93l-.46-.79,4.8-2.86h.57q-.06,1-.06,2.73Z" transform="translate(4.57 -60.95)"/><path class="cls-3" d="M557.39,513.44a4.74,4.74,0,0,0,.07.89,1,1,0,0,0,.24.5,1.12,1.12,0,0,0,.48.29,4.24,4.24,0,0,0,.8.17c.32,0,.75.06,1.27.07v.75h-7.57v-.75a15.59,15.59,0,0,0,1.62-.13A1.85,1.85,0,0,0,555,515a.94.94,0,0,0,.38-.49,3.15,3.15,0,0,0,.12-1v-8.32a1,1,0,0,0-.15-.6.47.47,0,0,0-.42-.19,2.08,2.08,0,0,0-.93.34c-.4.22-.9.54-1.5.93l-.45-.79,4.8-2.86h.56q-.06,1-.06,2.73Z" transform="translate(4.57 -60.95)"/><path class="cls-3" d="M653.45,473.65a4.92,4.92,0,0,0,.06.89,1.17,1.17,0,0,0,.24.5,1.1,1.1,0,0,0,.49.29,3.46,3.46,0,0,0,.8.17c.32,0,.74.06,1.27.08v.74h-7.58v-.74a15.14,15.14,0,0,0,1.63-.14,1.91,1.91,0,0,0,.74-.27,1,1,0,0,0,.37-.49,3.15,3.15,0,0,0,.12-1v-8.32a1.06,1.06,0,0,0-.14-.6.52.52,0,0,0-.42-.19,2.15,2.15,0,0,0-.94.34c-.4.23-.9.54-1.49.93l-.45-.79,4.79-2.86h.57q-.06,1-.06,2.73Z" transform="translate(4.57 -60.95)"/><circle class="cls-12" cx="470.52" cy="291.49" r="26.82"/><circle class="cls-12" cx="470.52" cy="369.7" r="26.82"/><circle class="cls-12" cx="557.34" cy="455.26" r="26.82"/><circle class="cls-12" cx="665.13" cy="410.4" r="26.82"/><path class="cls-3" d="M327.12,530.71c2.73-15,10.62-28.24,19.16-40.6,4.35-6.29,8.91-12.43,13.25-18.72q6.9-10,12.79-20.63c8.22-14.83,15.12-30.34,22.32-45.69s15-30.62,23.69-45.33A489.87,489.87,0,0,1,446.54,317c1.28-1.74,2.57-3.46,3.87-5.18,1.11-1.46-1.63-1.89-2.42-.84a503.16,503.16,0,0,0-28.88,42.45,513.21,513.21,0,0,0-24.4,45.26c-7.37,15.45-14.22,31.15-22.22,46.28a252.17,252.17,0,0,1-12.82,21.76c-4.28,6.43-8.87,12.64-13.32,18.94-8.64,12.24-17,25.06-20.93,39.69q-.72,2.75-1.23,5.54c-.26,1.43,2.7,1.06,2.93-.23Z" transform="translate(4.57 -60.95)"/><path class="cls-3" d="M450.27,310.12l143,.12,142.31.11,80.27.07c.55,0,1.69-.19,1.92-.8s-.19-.86-.79-.86l-143-.12-142.3-.11-80.28-.06c-.54,0-1.68.19-1.91.79s.19.86.79.86Z" transform="translate(4.57 -60.95)"/><path class="cls-3" d="M321.61,537.84q85.11.45,170.22-.24T662,535.08q47.51-1,95-2.39c1.52-.05,2.33-1.86.34-1.8q-84.89,2.45-169.81,3.77-84.68,1.32-169.35,1.5-47.76.11-95.53-.14c-1.21,0-3,1.81-1.08,1.82Z" transform="translate(4.57 -60.95)"/><path class="cls-3" d="M818.47,309.54,806.89,353.9C803.09,368.44,799,383,796,397.68c-1.51,7.27-2.67,14.59-3.53,22s-1.53,14.92-2.66,22.33a222.92,222.92,0,0,1-10.85,41.5c-5.4,15.08-11.94,29.72-18.66,44.25-.68,1.45,2.24,1.39,2.76.28,11.92-25.79,23.43-52.19,28.66-80.28,2.75-14.75,3.35-29.8,6.08-44.56s6.74-29.23,10.53-43.73L821.4,309.3c.35-1.33-2.61-1-2.93.24Z" transform="translate(4.57 -60.95)"/><path class="cls-9" d="M588.42,452.34q-4.63-18.27-8.1-36.81a170.68,170.68,0,0,1-2.9-18.23c-.43-5.5.19-11.35,3.4-16a14.73,14.73,0,0,1,6.24-5.07c1.17-.53,2.37-1,3.58-1.41,1.59-.56,2.88-1.13,4.35,0a34.51,34.51,0,0,1,5.28,5.84,44.56,44.56,0,0,1,4.57,6.76c2.55,4.78,3.71,10.1,2.4,15.43-1.36,5.51-4.67,10.26-7.43,15.13a138,138,0,0,0-14.2,36.13c-.26,1.1,2.66.67,2.9-.35a136.66,136.66,0,0,1,13.56-34.9c2.85-5.1,6.34-10,7.91-15.74A22,22,0,0,0,607.93,387a44.55,44.55,0,0,0-4.45-6.84,41.74,41.74,0,0,0-5.65-6.37c-2.36-2-4.85-1.45-7.54-.51a32.86,32.86,0,0,0-7.68,3.48c-10.74,7.22-8.38,21.46-6.49,32.31q3.86,22.19,9.4,44c.27,1,3.17.28,2.9-.78Z" transform="translate(4.57 -60.95)"/><path class="cls-9" d="M582.64,460.35a13.35,13.35,0,0,1-1,6.95c-.09.21.12.4.28.48a1.81,1.81,0,0,0,1,.07,2.07,2.07,0,0,0,1.66-.94,14.08,14.08,0,0,0,1-7.34c0-.22-.39-.33-.55-.36a2.64,2.64,0,0,0-1.08.08c-.44.13-1.34.45-1.26,1.06Z" transform="translate(4.57 -60.95)"/><path class="cls-9" d="M578.05,480a48.4,48.4,0,0,0,2.1,13.51c.37,1.23,3.27.44,2.89-.77a47.46,47.46,0,0,1-2.07-13c0-.69-.71-.9-1.31-.85s-1.62.43-1.61,1.12Z" transform="translate(4.57 -60.95)"/><path class="cls-9" d="M583.79,503.48l4.09,4.59a1.7,1.7,0,0,0,2,.18c.44-.23,1.2-.87.71-1.42l-4.09-4.59a1.72,1.72,0,0,0-2-.18c-.43.22-1.19.87-.7,1.42Z" transform="translate(4.57 -60.95)"/><path class="cls-9" d="M594.78,518.46a20.86,20.86,0,0,0,6.86,3.35,1.94,1.94,0,0,0,2-.55.88.88,0,0,0-.38-1.45,19.48,19.48,0,0,1-3.39-1.27l-.36-.18h0l-.21-.11-.79-.46q-.79-.48-1.53-1a1.83,1.83,0,0,0-2.08.16c-.49.41-.75,1.1-.14,1.54Z" transform="translate(4.57 -60.95)"/><path class="cls-9" d="M611.62,518a34.86,34.86,0,0,1,3.92-7.51c.36-.52-.32-.67-.73-.65a2.79,2.79,0,0,0-1.93.74,36,36,0,0,0-4.13,7.86c-.21.56,1,.49,1.2.44.51-.08,1.46-.31,1.67-.88Z" transform="translate(4.57 -60.95)"/><path class="cls-9" d="M616.14,498.65a24.2,24.2,0,0,0-.83-10.53c-.21-.69-1.12-.78-1.72-.62s-1.39.7-1.18,1.4a22.7,22.7,0,0,1,.79,10c-.21,1.48,2.75,1.12,2.94-.21Z" transform="translate(4.57 -60.95)"/><path class="cls-9" d="M612.08,471l-4.79-6.5c-.4-.56-1.42-.45-1.95-.18s-1.14.83-.71,1.42l4.78,6.5c.41.56,1.43.44,2,.17s1.14-.83.71-1.41Z" transform="translate(4.57 -60.95)"/><path class="cls-9" d="M598,456.74l-1.53-.52a1.05,1.05,0,0,0-.43-.11,1.81,1.81,0,0,0-.52,0,2.25,2.25,0,0,0-.58.15,1.87,1.87,0,0,0-.52.23l-.26.19a.82.82,0,0,0-.29.42v.21a.53.53,0,0,0,.3.32l1.53.52a1,1,0,0,0,.43.1,1.51,1.51,0,0,0,.52,0,2.24,2.24,0,0,0,.58-.14,1.87,1.87,0,0,0,.52-.23l.26-.19a.89.89,0,0,0,.29-.43v-.2a.5.5,0,0,0-.3-.32Z" transform="translate(4.57 -60.95)"/><path class="cls-9" d="M499.53,397.73q-3.36-8.25-6.71-16.5a100.18,100.18,0,0,1-5.29-15.6,32.34,32.34,0,0,1-.06-16c1.39-4.92,4.45-9.15,7.91-12.84,1.71-1.83,3.54-3.55,5.4-5.23s3.83-3.46,6.36-3c4.61.9,7.57,6.44,9.13,10.39a30.86,30.86,0,0,1,2,14.1,30,30,0,0,1-1.46,6.95,49.78,49.78,0,0,1-3.36,7,33.66,33.66,0,0,0-3.09,8.31A71.16,71.16,0,0,1,508.1,384a41.06,41.06,0,0,1-9,14.29.74.74,0,0,0,.34,1.28,2.13,2.13,0,0,0,2.05-.55,43.12,43.12,0,0,0,8.71-13.24,47.35,47.35,0,0,0,2.45-8,40.5,40.5,0,0,1,2.51-8.52c1.21-2.57,2.75-5,3.83-7.61a30.72,30.72,0,0,0,2-7.3,32.15,32.15,0,0,0-1.45-15.07c-1.58-4.48-4.28-9.6-8.72-11.8a8.74,8.74,0,0,0-6.87-.44c-2.56.9-4.56,2.8-6.52,4.61a52.37,52.37,0,0,0-10.3,12,28.07,28.07,0,0,0-3.55,15.85c.39,6.6,2.56,13,4.95,19.08,2.6,6.66,5.37,13.25,8.06,19.88.49,1.19,3.36.36,2.9-.78Z" transform="translate(4.57 -60.95)"/><path class="cls-9" d="M492.33,404.55a14.27,14.27,0,0,1-3.5,5.44c-.47.47.42.6.71.58a3.24,3.24,0,0,0,1.94-.72,15.71,15.71,0,0,0,3.72-5.77c.2-.53-.95-.41-1.18-.37a3.82,3.82,0,0,0-1.1.35c-.21.11-.5.26-.59.49Z" transform="translate(4.57 -60.95)"/><path class="cls-9" d="M485.61,421.75v4.6a.89.89,0,0,0,.37.77,1.51,1.51,0,0,0,1,.26,2,2,0,0,0,1.09-.41,1.17,1.17,0,0,0,.5-.81v-4.59a.92.92,0,0,0-.37-.78,1.51,1.51,0,0,0-1-.25,1.94,1.94,0,0,0-1.09.4,1.22,1.22,0,0,0-.5.81Z" transform="translate(4.57 -60.95)"/><path class="cls-9" d="M488.36,448.06a44.1,44.1,0,0,0,3.36,11.29,1.39,1.39,0,0,0,1.71.59c.46-.13,1.48-.72,1.18-1.37a44.52,44.52,0,0,1-3.35-11.28c-.11-.71-1.21-.73-1.71-.59s-1.3.65-1.19,1.36Z" transform="translate(4.57 -60.95)"/><path class="cls-9" d="M500.5,468.65l2,1.53a.6.6,0,0,0,.3.07,1.55,1.55,0,0,0,.43,0,4.32,4.32,0,0,0,1.13-.26c.17-.06,1.26-.49.88-.78l-2-1.53a.59.59,0,0,0-.29-.07,1.62,1.62,0,0,0-.44,0,4.88,4.88,0,0,0-1.13.26c-.17.06-1.26.49-.87.78Z" transform="translate(4.57 -60.95)"/><path class="cls-9" d="M514.55,461.4a14.68,14.68,0,0,0,5-5,.44.44,0,0,0,0-.57,1.17,1.17,0,0,0-.77-.23,2.8,2.8,0,0,0-1.14.23,1.67,1.67,0,0,0-.78.55,14.27,14.27,0,0,1-.88,1.31c-.17.22-.34.44-.52.65l-.26.28s-.19.24,0,0l-.14.14a14.72,14.72,0,0,1-1.17,1.06l-.33.25-.12.09c-.08.06-.28.15,0,0-.24.13-.46.31-.69.45a1.19,1.19,0,0,0-.56.59.43.43,0,0,0,.29.49,2.48,2.48,0,0,0,2-.29Z" transform="translate(4.57 -60.95)"/><path class="cls-9" d="M524.79,436.08v-8.17c0-.6-2.9-.15-2.9.78v8.17c0,.6,2.9.15,2.9-.78Z" transform="translate(4.57 -60.95)"/><path class="cls-9" d="M518.75,413.6A21.24,21.24,0,0,0,516.6,407c-.27-.53-1.14-.42-1.62-.28a2.55,2.55,0,0,0-1,.47c-.13.12-.4.38-.3.59a21.16,21.16,0,0,1,2.15,6.62c0,.22.38.32.55.35a2.33,2.33,0,0,0,1.08-.08c.43-.12,1.36-.45,1.27-1Z" transform="translate(4.57 -60.95)"/><path class="cls-9" d="M510.38,401.67l-1-1a.63.63,0,0,0-.33-.2,1.06,1.06,0,0,0-.46-.1,1.84,1.84,0,0,0-.57,0,2,2,0,0,0-.57.17l-.32.17a1.42,1.42,0,0,0-.45.43l-.09.23a.46.46,0,0,0,.11.42l1,1a.63.63,0,0,0,.33.2,1.07,1.07,0,0,0,.47.1,2.12,2.12,0,0,0,.56-.05,2.21,2.21,0,0,0,.57-.17l.33-.17a1.39,1.39,0,0,0,.44-.43l.1-.23a.46.46,0,0,0-.12-.42Z" transform="translate(4.57 -60.95)"/><path class="cls-9" d="M506.21,323l1.55-2c.12-.16.18-.34,0-.5a.66.66,0,0,0-.31-.13,1.38,1.38,0,0,0-.45,0,3.13,3.13,0,0,0-1.13.24,1.87,1.87,0,0,0-.79.5l-1.56,2c-.12.16-.18.34,0,.5a.71.71,0,0,0,.31.13,1.38,1.38,0,0,0,.45,0,3.09,3.09,0,0,0,1.13-.24,1.91,1.91,0,0,0,.8-.5Z" transform="translate(4.57 -60.95)"/><path class="cls-9" d="M519.1,319,529.82,318c.57-.06,1.51-.4,1.62-1.07s-.82-.8-1.29-.76l-10.72,1.07c-.57.06-1.51.39-1.62,1.06s.82.81,1.29.77Z" transform="translate(4.57 -60.95)"/><path class="cls-9" d="M548.51,318.55l7.71,2.93a2,2,0,0,0,2-.55.83.83,0,0,0-.37-1.39l-7.71-2.93a2,2,0,0,0-2.05.55.83.83,0,0,0,.37,1.39Z" transform="translate(4.57 -60.95)"/><path class="cls-9" d="M567.68,330.79a16.54,16.54,0,0,1,3.29,6.48c0,.16.4.17.5.17a3.77,3.77,0,0,0,1.06-.15,3.88,3.88,0,0,0,1-.4c.12-.07.39-.22.35-.4a16.54,16.54,0,0,0-3.29-6.48c-.31-.38-1.17-.13-1.56,0-.12,0-1.57.53-1.34.8Z" transform="translate(4.57 -60.95)"/><path class="cls-9" d="M580.68,350a32.35,32.35,0,0,1,3,7.19c.11.4,1.31.07,1.55,0a3.85,3.85,0,0,0,1-.39c.12-.07.4-.22.35-.39a31.62,31.62,0,0,0-3-7.18c-.22-.39-1.23-.1-1.55,0-.15,0-1.53.46-1.34.78Z" transform="translate(4.57 -60.95)"/><path class="cls-9" d="M503.48,481.3l5.82,10.61c.43.79,3.19-.23,2.89-.77l-5.82-10.62c-.43-.79-3.19.24-2.89.78Z" transform="translate(4.57 -60.95)"/><path class="cls-9" d="M514.39,503.93l4.63,6.62a1.12,1.12,0,0,0,.8.33,2.37,2.37,0,0,0,1.14-.21c.47-.23,1.13-.75.73-1.32l-4.62-6.62a1.17,1.17,0,0,0-.81-.34,2.37,2.37,0,0,0-1.14.22c-.47.23-1.13.74-.73,1.32Z" transform="translate(4.57 -60.95)"/><path class="cls-9" d="M535.47,529.37A44.55,44.55,0,0,0,546.92,532a3.45,3.45,0,0,0,2.05-.55c.47-.32.38-.63-.18-.69a42.89,42.89,0,0,1-10.95-2.56,3,3,0,0,0-2,.35c-.31.16-.94.58-.34.8Z" transform="translate(4.57 -60.95)"/><path class="cls-9" d="M565.86,538.62a16.81,16.81,0,0,0,8.82,0c.52-.14,1.38-.62,1.2-1.3s-1.18-.66-1.69-.52c-.32.09-.64.17-1,.24l-.16,0-.42.07c-.31,0-.61.07-.92.09l-.5,0c-.05,0-.45,0-.2,0a14.23,14.23,0,0,1-1.84-.13,10.78,10.78,0,0,1-1.62-.32,2.14,2.14,0,0,0-2,.54.75.75,0,0,0,.35,1.29Z" transform="translate(4.57 -60.95)"/><path class="cls-9" d="M601.75,531.48l1.53-.52a1.75,1.75,0,0,0,.54-.24,1.3,1.3,0,0,0,.41-.33.85.85,0,0,0,.21-.41.61.61,0,0,0,0-.42l-.13-.26a1,1,0,0,0-.49-.35,1.8,1.8,0,0,0-1.1,0l-1.53.52a1.54,1.54,0,0,0-.54.24,1.42,1.42,0,0,0-.41.33.81.81,0,0,0-.21.41.67.67,0,0,0,0,.42l.13.26a1.08,1.08,0,0,0,.49.35,1.8,1.8,0,0,0,1.1,0Z" transform="translate(4.57 -60.95)"/></svg>