<svg id="Capa_1" data-name="Capa 1" xmlns="http://www.w3.org/2000/svg" viewBox="0 0 574.67 181.2"><defs><style>.cls-1{fill:#dedc00;}</style></defs><title>hodeia</title><path class="cls-1" d="M19.77,391.34h-.26c-1.39,0-2.29-.44-2.7-1.31s-.82-4.12-1-9.29q-.15-4.51-.24-12c-2.59,0-4.86.06-6.79.17q-.82.09-8.94.59a11.68,11.68,0,0,0-1.17.12s-.06.08-.06.2q0,1.47.44,5.71c.21,1.51.36,2.47.44,2.9.1.86.15,1.43.15,1.7a5,5,0,0,1-1.06,2.32,2.65,2.65,0,0,1-1.9.92c-.78.05-1.27.07-1.47.07a8.66,8.66,0,0,1-5.62-2.05,5,5,0,0,1-1.5-1.68,13.27,13.27,0,0,1-.73-3.15,68,68,0,0,1-.7-9.08l0-3.87q0-5.39.14-8,.86-14.88,2-20.89a6.91,6.91,0,0,1,.67-2.22,2.23,2.23,0,0,1,1.72-.9h1.12a11.46,11.46,0,0,1,3.58.61,9,9,0,0,1,3.34,1.91,2.6,2.6,0,0,1,.8,1,3.69,3.69,0,0,1,.19,1.32c0,.94-.17,2.82-.52,5.66A174.89,174.89,0,0,0-1.5,362v3.46c1.19-.16,3.07-.29,5.63-.38Q7.39,365,10.4,365c2,0,3.4.08,4.16.17s1,.12,1.11.12l.15-7.88q.43-23.58,1.52-26.78a1.31,1.31,0,0,1,.43-.77,1.15,1.15,0,0,1,.66-.17c1.4,0,2.27.52,2.6,1.56a18.28,18.28,0,0,1,.41,4.92q0,4.25-.23,11.95-.3,9.06-.29,20.6c0,4.2,0,7.48.17,9.84s.15,5.24.15,8.32c0,2.38-.16,3.75-.47,4.1A1.25,1.25,0,0,1,19.77,391.34Z" transform="translate(38.3 -264.58)"/><path class="cls-1" d="M34.74,377.66a9.85,9.85,0,0,1-1.58-.14,10.42,10.42,0,0,1-7.67-5.92A16.43,16.43,0,0,1,24,364.71a22,22,0,0,1,1.06-6.53c1.28-3.59,3.12-5.61,5.5-6,.37-.05.59-.21.65-.46.25-.82,1.35-1.23,3.28-1.23a8.28,8.28,0,0,1,5.27,1.69l.47.36q5.63,0,11.25-.12c1,0,1.52.44,1.58,1.32a1.14,1.14,0,0,1-1.17,1.2c-6.4,0-9.61.06-9.61.17a15,15,0,0,1,1.82,7.56,24.06,24.06,0,0,1-.65,5.45q-1.23,5.1-3.8,7.5A6.73,6.73,0,0,1,34.74,377.66Zm.38-4.13c.18,0,.58-.29,1.21-.88a13.4,13.4,0,0,0,3.28-6,20,20,0,0,0,.7-5.39,15.72,15.72,0,0,0-.21-3,10.44,10.44,0,0,0-.79-2.32s-.05,0-.05-.06c-.32-.62-.63-1-.94-1a4.69,4.69,0,0,0-.88-.09c-.47,0-.7,0-.7.06l.14.88a17.46,17.46,0,0,1-.38,2.93,57.44,57.44,0,0,0-1.73,11.69A19.16,19.16,0,0,0,35,373C35,373.34,35.07,373.53,35.12,373.53Z" transform="translate(38.3 -264.58)"/><path class="cls-1" d="M79,376.29a8.72,8.72,0,0,1-4.22-1.06,15,15,0,0,1-6.68-7.15l-.82-1.64a8.61,8.61,0,0,0-1,1.76,23,23,0,0,1-2.7,4.1,5.4,5.4,0,0,1-4.19,1.91,9.79,9.79,0,0,1-3.19-.62q-6.74-2.52-8.38-10.49a19.25,19.25,0,0,1-.26-3.13,18.58,18.58,0,0,1,.91-5.72q2.84-8.83,10.84-8.84a20.13,20.13,0,0,1,5.5,1l1.53.44c.08,0,.21-.37.41-1.11a31.7,31.7,0,0,1,6.74-13.3A9.21,9.21,0,0,1,80.3,329a7.82,7.82,0,0,1,4.78,1.55A5.77,5.77,0,0,1,87,332.69a6.93,6.93,0,0,1,.5,2.81,13.74,13.74,0,0,1-1.7,6.33,19.66,19.66,0,0,1-7,7.85l-1.41,1c-.19,1.48-.37,3.19-.53,5.13q-.16,2.13-.17,6.47a45.28,45.28,0,0,0,.23,6.21,16.21,16.21,0,0,0,1.29,4.87q2.49-.36,5.89-4.75a20.47,20.47,0,0,0,2.9-5.6l.85-2.57a.76.76,0,0,1,.65-.24l.43,0a3.68,3.68,0,0,1,2,.82l0,.09a29.64,29.64,0,0,1-1.56,4.6q-2.62,6.5-6.79,9.34A6.21,6.21,0,0,1,79,376.29ZM58.8,370.13l.82-.61q2.77-2.08,5.45-7.3l.82-1.64c-.12-1.23-.18-2.29-.18-3.19v-6.65a1.62,1.62,0,0,0-.64-.41c-1.61,0-3,1.42-4.34,4.28a27.77,27.77,0,0,0-1.93,15.52Zm19.33-24.08c.2,0,.55-.31,1.06-.94a15.62,15.62,0,0,0,4.45-7.73,12.66,12.66,0,0,0,.18-2.75,3.76,3.76,0,0,0-.18-1.35,8.21,8.21,0,0,0-2.75,3.45,61,61,0,0,0-2.29,7A11.94,11.94,0,0,0,78.13,346.05Z" transform="translate(38.3 -264.58)"/><path class="cls-1" d="M99.52,378.54a11.67,11.67,0,0,1-7-2.55A12.71,12.71,0,0,1,89,371.3a16.29,16.29,0,0,1-1.69-7.5q0-11.19,5-16.64a21,21,0,0,1,3.52-2.81,9.09,9.09,0,0,1,3.92-.94,9.44,9.44,0,0,1,4.81,1.41,8.47,8.47,0,0,1,3.63,4.1,6.08,6.08,0,0,1,.26,1.85,7.28,7.28,0,0,1-.32,2.25q-2.16,5.81-8.73,10.4a2,2,0,0,0-.41.38,13.6,13.6,0,0,0-.12,2.73,18.4,18.4,0,0,0,.44,3.63c.41,2,.76,3.39,1,4.31.08.55.23.82.47.82q3,0,8.93-11.4a25.13,25.13,0,0,1,1.73-3,.77.77,0,0,1,.44-.33c1.19.06,1.79.35,1.79.88,0,.08-.28.75-.82,2-1.06,2.41-1.86,4.16-2.4,5.28-2.39,4.68-4.59,7.63-6.63,8.84A8.91,8.91,0,0,1,99.52,378.54Zm-.15-18.49.79-.64a18.26,18.26,0,0,0,5-7.38,5.64,5.64,0,0,0,.32-1.94,3.57,3.57,0,0,0-.67-2.52.44.44,0,0,0-.29-.14c-.12,0-.29.18-.53.5a5.43,5.43,0,0,0-1,1.46,38.33,38.33,0,0,0-1.73,4.1,45.93,45.93,0,0,0-1.5,4.63,8.13,8.13,0,0,1-.25,1.14,2.2,2.2,0,0,0-.1.47.6.6,0,0,1-.06.27S99.35,360.05,99.37,360.05Z" transform="translate(38.3 -264.58)"/><path class="cls-1" d="M122.31,382.61a12.54,12.54,0,0,1-6.33-1.87,11.55,11.55,0,0,1-3.92-3.81c-1.08-1.84-1.61-4.69-1.61-8.55a49.66,49.66,0,0,1,2-13q.82-3.17,1.74-4a5.21,5.21,0,0,1,3.36-.82,8.22,8.22,0,0,1,2.52.3c2.91.82,4.36,2.16,4.36,4a24.62,24.62,0,0,1-.85,5.1,51,51,0,0,0-1.37,10.72c0,.82.06,2,.2,3.69a19.73,19.73,0,0,0,.53,3.81,8.59,8.59,0,0,0,.94-.59q4.28-3.17,8.4-16.9c.1-.35.28-.53.53-.53a7.62,7.62,0,0,1,1.38.24c.6.15.91.36.91.61a68.29,68.29,0,0,1-4,12.72,29.82,29.82,0,0,1-2.34,4.51Q125.78,382.59,122.31,382.61Zm1.12-34.24a7.18,7.18,0,0,1-4.28-1.34c-1.25-.89-1.88-1.74-1.88-2.56a.78.78,0,0,1,.21-.44,1.85,1.85,0,0,1,.79-.5,4.69,4.69,0,0,1,1.29-.29,5.81,5.81,0,0,1,5.51,3,2.42,2.42,0,0,1,.29,1C125.36,348,124.71,348.37,123.43,348.37Z" transform="translate(38.3 -264.58)"/><path class="cls-1" d="M164.56,378.54a11.65,11.65,0,0,1-7-2.55A12.71,12.71,0,0,1,154,371.3a16.29,16.29,0,0,1-1.69-7.5q0-11.19,5-16.64a21,21,0,0,1,3.52-2.81,9.06,9.06,0,0,1,3.92-.94,9.44,9.44,0,0,1,4.81,1.41,8.47,8.47,0,0,1,3.63,4.1,6.08,6.08,0,0,1,.26,1.85,7.28,7.28,0,0,1-.32,2.25q-2.16,5.81-8.73,10.4a2,2,0,0,0-.41.38,13.6,13.6,0,0,0-.12,2.73,18.4,18.4,0,0,0,.44,3.63c.41,2,.75,3.39,1,4.31.08.55.23.82.47.82q3,0,8.93-11.4a25.13,25.13,0,0,1,1.73-3,.77.77,0,0,1,.44-.33c1.19.06,1.79.35,1.79.88,0,.08-.28.75-.82,2-1.06,2.41-1.86,4.16-2.4,5.28-2.39,4.68-4.59,7.63-6.63,8.84A8.91,8.91,0,0,1,164.56,378.54Zm-.15-18.49.79-.64a18.26,18.26,0,0,0,5-7.38,5.64,5.64,0,0,0,.32-1.94,3.57,3.57,0,0,0-.67-2.52.46.46,0,0,0-.29-.14c-.12,0-.3.18-.53.5a5.43,5.43,0,0,0-1,1.46,38.33,38.33,0,0,0-1.73,4.1,43.5,43.5,0,0,0-1.5,4.63,10,10,0,0,1-.25,1.14,1.7,1.7,0,0,0-.1.47.6.6,0,0,1-.06.27S164.39,360.05,164.41,360.05Z" transform="translate(38.3 -264.58)"/><path class="cls-1" d="M190.05,384.14a14.33,14.33,0,0,1-8.24-2.58,11.25,11.25,0,0,1-4.49-6,33.45,33.45,0,0,1-1.22-10q.56-15.58,5-24.43a10.92,10.92,0,0,1,3.93-5,14.21,14.21,0,0,1,7.67-2.43,9.55,9.55,0,0,1,4.75,1.2q3.57,1.66,3.57,6.47a16.17,16.17,0,0,1-.88,5q-3.57,11.22-8.7,16.35a27.6,27.6,0,0,1-3.81,3.28,54.32,54.32,0,0,0,.82,9.29,24.2,24.2,0,0,0,1.23,3.69c.24.55.38.82.44.82a3.46,3.46,0,0,0,1.44-.85,18.67,18.67,0,0,0,3.69-4.34A46.56,46.56,0,0,0,200,364.6c.82-2.62,1.25-4,1.29-4.25s.13-.12.35-.12a5.45,5.45,0,0,1,1,.12l1.21.26a1.18,1.18,0,0,1,.51.18.34.34,0,0,1,.09.26q-.37,1.76-2.43,7.71a61.85,61.85,0,0,1-2.75,6.18q-1.38,2.64-2.73,4.69C194.55,382.63,192.41,384.14,190.05,384.14Zm-2-23.15a2.12,2.12,0,0,0,.37-.33l.89-.94c.37-.4.72-.81,1-1.22q6.94-11.4,6.94-17.43a14.17,14.17,0,0,0-.09-1.57,7.54,7.54,0,0,0-.23-1.33c-.1-.35-.19-.53-.26-.53s-.52.34-1.15,1a14.53,14.53,0,0,0-1.73,3.07c-.39,1.1-1,2.5-1.75,4.22a60.43,60.43,0,0,0-3.52,11.87A24.82,24.82,0,0,0,188.08,361Z" transform="translate(38.3 -264.58)"/><path class="cls-1" d="M213,378.54a11.7,11.7,0,0,1-7-2.55,12.82,12.82,0,0,1-3.56-4.69,16.42,16.42,0,0,1-1.68-7.5q0-11.19,5-16.64a20.58,20.58,0,0,1,3.52-2.81,9.06,9.06,0,0,1,3.92-.94,9.47,9.47,0,0,1,4.81,1.41,8.47,8.47,0,0,1,3.63,4.1,6.41,6.41,0,0,1,.26,1.85,7.6,7.6,0,0,1-.32,2.25q-2.17,5.81-8.73,10.4a1.72,1.72,0,0,0-.41.38,13.6,13.6,0,0,0-.12,2.73,18.4,18.4,0,0,0,.44,3.63c.41,2,.75,3.39,1,4.31.07.55.23.82.47.82q3,0,8.93-11.4a25.13,25.13,0,0,1,1.73-3,.77.77,0,0,1,.44-.33c1.19.06,1.79.35,1.79.88,0,.08-.28.75-.82,2-1.06,2.41-1.86,4.16-2.41,5.28q-3.57,7-6.62,8.84A8.91,8.91,0,0,1,213,378.54Zm-.15-18.49.79-.64a18.26,18.26,0,0,0,5-7.38,5.89,5.89,0,0,0,.32-1.94,3.57,3.57,0,0,0-.67-2.52.46.46,0,0,0-.29-.14c-.12,0-.3.18-.53.5a5.69,5.69,0,0,0-1.06,1.46,38.7,38.7,0,0,0-1.72,4.1,43.5,43.5,0,0,0-1.5,4.63,10,10,0,0,1-.25,1.14,1.7,1.7,0,0,0-.1.47.6.6,0,0,1-.06.27S212.79,360.05,212.81,360.05Z" transform="translate(38.3 -264.58)"/><path class="cls-1" d="M233.23,383.81a11.56,11.56,0,0,1-4.89-1.58q-2.91-1.69-3.52-6a52.47,52.47,0,0,1-.41-6.92A81.69,81.69,0,0,1,226.32,351q1.91-9,5.3-13.86a9.31,9.31,0,0,1,1.29-1.46,11.28,11.28,0,0,1,8.11-3.16,9.47,9.47,0,0,1,6.16,2.11,5.75,5.75,0,0,1,1.75,2.1,3.82,3.82,0,0,1,.41,1.85,15.41,15.41,0,0,1-.2,2,18.64,18.64,0,0,1-1.94,5,29.1,29.1,0,0,1-5.88,7.8,49.51,49.51,0,0,1-4.16,3.48c-.61,4.42-.93,7.05-1,7.91a18.94,18.94,0,0,0,5.54-4.63,28.77,28.77,0,0,0,3.83-7.88c.3-.95.71-1.43,1.23-1.43a4.09,4.09,0,0,1,2.47,1,3.63,3.63,0,0,1,1.52,3,8.74,8.74,0,0,1-.24,2.52,18.53,18.53,0,0,1-9.4,9.84,9.75,9.75,0,0,1-3,.82q4.51,4,8.76,4,4.58,0,9.38-5.27a.38.38,0,0,1,.26-.15c.31,0,.6.26.85.79a2,2,0,0,1,.23.94,5.7,5.7,0,0,1-1.46,2.28,14.57,14.57,0,0,1-4.54,3.61,9.35,9.35,0,0,1-4.51,1.14,13.8,13.8,0,0,1-8-2.84c-.49-.37-1.5-1.29-3-2.76a51.3,51.3,0,0,0,.91,9.09,5.52,5.52,0,0,1,.09,1,3.34,3.34,0,0,1-.68,2.43,4.83,4.83,0,0,1-2,1.5A6.78,6.78,0,0,1,233.23,383.81ZM238.3,352c.12,0,.55-.38,1.32-1.15q5.15-5.33,6.41-10.4a14,14,0,0,0,.47-2.81c0-1.17-.27-1.76-.82-1.76s-1.28.58-2,1.73a34.2,34.2,0,0,0-2.17,4.92c-1,2.47-1.63,4.12-1.9,5A30.35,30.35,0,0,0,238.3,352Z" transform="translate(38.3 -264.58)"/><path class="cls-1" d="M265.31,385.16a8.74,8.74,0,0,1-1.32-.09,11.78,11.78,0,0,1-7.21-4.74q-2.8-3.66-2.81-15.44c0-4.43.1-7.63.3-9.58q.34-3.75,1-9.32,1-5.82,1.7-8.73l.06-.41c0-.08-.28-.15-.82-.23l-7.3-1q-5.79-.73-7.64-.73c-4.14.27-7,1.36-8.59,3.25a1.91,1.91,0,0,1-1.4.56q-1.47,0-1.47-1.32.21-2.43,3.55-4a20.12,20.12,0,0,1,8.11-1.43A111.7,111.7,0,0,1,252.77,333l5.36.76q1.53-2.83,3.4-3.45a9.1,9.1,0,0,1,1.29-.06c2.81,0,4.71,1.16,5.68,3.49l.18,1.11c1.37.08,2.5.12,3.4.12a57.31,57.31,0,0,0,7.61-.53q9.4-1.41,9.91-4.19a1.67,1.67,0,0,1,1.26-.67q1.14,0,1.14,1.26a4.46,4.46,0,0,1-2.4,3.77,12.88,12.88,0,0,1-3.58,1.64,55.72,55.72,0,0,1-14.82,1.65l-2.23-.06c-.1,1-.58,3.39-1.46,7.23a140,140,0,0,0-1.64,14.83l-.06,3a98.18,98.18,0,0,0,1.2,15.41,11.92,11.92,0,0,0,.32,2.28l.24-.12L268,380a40.24,40.24,0,0,0,5.27-10.55q.47-1.38,2.49-6.59a4.46,4.46,0,0,1,.7-1.26,1.36,1.36,0,0,1,.88-.21,1.83,1.83,0,0,1,1.35.47q.12.12.12.18a52.16,52.16,0,0,1-1.61,5.59q-1.32,4.24-3.52,9.49c-1.58,3.68-2.91,6-4,6.86a5.13,5.13,0,0,1-3.58,1.11Z" transform="translate(38.3 -264.58)"/><path class="cls-1" d="M296.39,386.69a10.4,10.4,0,0,1-4.27-1.12,8.86,8.86,0,0,1-3.75-2.75,13.25,13.25,0,0,1-2.14-5,26.45,26.45,0,0,1-.32-4.66l0-4.19a64.27,64.27,0,0,1,.79-7.29,106,106,0,0,0,1.2-12l-.09-3.58-5-2.05c-.14.9-.39,2.34-.76,4.34q-2.7,12.33-3.39,13.36c-.46.68-.86,1-1.21,1a2.48,2.48,0,0,1-1.1-.29,1.94,1.94,0,0,1-.69-.49.74.74,0,0,1-.12-.42l0-.29q3.72-17,3.72-19.22a.78.78,0,0,0-.23-.59v-.06a3.86,3.86,0,0,1-1-2.57,2.56,2.56,0,0,1,1-2.17,2.19,2.19,0,0,1,1.41-.41,4.77,4.77,0,0,1,4.92,3.4,6.71,6.71,0,0,0,.93,1.64,20.86,20.86,0,0,0,4,1.75,17.19,17.19,0,0,1,6.8,3.93,6.62,6.62,0,0,1,1.78,2.75,13.18,13.18,0,0,1,.5,4.05q0,2.22-1,10.19c-.54,3.93-.86,6.62-.93,8.09,0,.78-.06,1.68-.06,2.69s0,1.85.09,2.84.13,1.87.23,2.61.19,1.12.26,1.12l1-1.35q1.76-2.43,5.54-12.25,1.38-3.84,1.68-4.74t.54-1.5c.16-.39.33-.6.5-.63a2.08,2.08,0,0,1,.65,0,14.21,14.21,0,0,1,1.67.44c.31.09.45.25.41.46q-.21,2.2-3.05,10.35-4.63,13.41-8.26,14.41A16.36,16.36,0,0,1,296.39,386.69Z" transform="translate(38.3 -264.58)"/><path class="cls-1" d="M316.52,377.66a9.75,9.75,0,0,1-1.58-.14,10.42,10.42,0,0,1-7.68-5.92,16.57,16.57,0,0,1-1.46-6.89,22.26,22.26,0,0,1,1.05-6.53c1.29-3.59,3.13-5.61,5.51-6,.37-.05.59-.21.65-.46.25-.82,1.34-1.23,3.28-1.23a8.28,8.28,0,0,1,5.27,1.69l.47.36q5.63,0,11.25-.12c1,0,1.52.44,1.58,1.32s-.47,1.18-1.17,1.2q-9.62,0-9.61.17a15,15,0,0,1,1.82,7.56,24.06,24.06,0,0,1-.65,5.45q-1.23,5.1-3.81,7.5A6.69,6.69,0,0,1,316.52,377.66Zm.38-4.13c.18,0,.58-.29,1.2-.88a13.21,13.21,0,0,0,3.28-6,20,20,0,0,0,.71-5.39,15.72,15.72,0,0,0-.21-3,10.44,10.44,0,0,0-.79-2.32.05.05,0,0,1-.06-.06q-.46-.93-.93-1a4.78,4.78,0,0,0-.88-.09c-.47,0-.71,0-.71.06l.15.88a17.46,17.46,0,0,1-.38,2.93,57.44,57.44,0,0,0-1.73,11.69,19.16,19.16,0,0,0,.21,2.61C316.79,373.34,316.84,373.53,316.9,373.53Z" transform="translate(38.3 -264.58)"/><path class="cls-1" d="M363.16,388.62a6.81,6.81,0,0,1-3.22-.91,8.07,8.07,0,0,1-2.05-1.46,15.34,15.34,0,0,1-5-8.62,16.7,16.7,0,0,1-.53-4.27q0-2.12,1.41-14.48.4-4.5.41-8c0-1.56,0-2.89-.12-4a29,29,0,0,0-5.51,9.84q-1.39,4.23-3.1,11a37.27,37.27,0,0,1-2.11,6.56,2.83,2.83,0,0,1-2.64,1.17,11.15,11.15,0,0,1-7.26-2.81,9.92,9.92,0,0,1-2.93-3.75,22.91,22.91,0,0,1-1.23-7.5c0-2.89,0-4.82.05-5.8a11.06,11.06,0,0,1,.53-2.81,2.2,2.2,0,0,1,1.53-1.41,8.29,8.29,0,0,1,1.75-.12,9,9,0,0,1,2.82.36q4.33,1.43,4.86,3.51.06.3.06,2.52c0,1.92,0,3.4.06,4.45.15,3.13.33,4.79.52,5q.18-.22,2.64-8.61a46.35,46.35,0,0,1,3.57-8.85,33,33,0,0,1,2.91-4.22,8.07,8.07,0,0,1,2.6-2.31,6.13,6.13,0,0,1,2.52-.5,11.36,11.36,0,0,1,6.27,1.94,7.36,7.36,0,0,1,2.76,2.93,8.16,8.16,0,0,1,1.17,4.21,178.13,178.13,0,0,1-1.38,18.87q-.44,4.22-.56,5.54c-.07.88-.17,1.67-.29,2.37-.23,2.7-.35,4.59-.35,5.69,0,.62.13.93.38.93a.91.91,0,0,0,.44-.17q2.37-2.61,4.75-8.91,1.29-3.6,2-6.36c1.81-6.54,2.76-9.87,2.82-10s.22-.17.46-.17a5.85,5.85,0,0,1,2.14.47,1.34,1.34,0,0,1,.26.82,4.55,4.55,0,0,1-.15,1.05q-2.87,14.42-6.35,20.63c-1.8,3.35-3.48,5.33-5,5.91A11.32,11.32,0,0,1,363.16,388.62Z" transform="translate(38.3 -264.58)"/><path class="cls-1" d="M384.37,382.61a12.54,12.54,0,0,1-6.33-1.87,11.64,11.64,0,0,1-3.92-3.81c-1.08-1.84-1.61-4.69-1.61-8.55a49.66,49.66,0,0,1,2-13q.82-3.17,1.74-4a5.21,5.21,0,0,1,3.36-.82,8.22,8.22,0,0,1,2.52.3c2.91.82,4.36,2.16,4.36,4a24.62,24.62,0,0,1-.85,5.1,51.67,51.67,0,0,0-1.37,10.72c0,.82.06,2,.2,3.69a19.73,19.73,0,0,0,.53,3.81,8.59,8.59,0,0,0,.94-.59q4.28-3.17,8.4-16.9c.1-.35.28-.53.53-.53a7.49,7.49,0,0,1,1.38.24c.6.15.91.36.91.61a68.29,68.29,0,0,1-4,12.72,29.82,29.82,0,0,1-2.34,4.51Q387.84,382.59,384.37,382.61Zm1.12-34.24a7.18,7.18,0,0,1-4.28-1.34c-1.25-.89-1.88-1.74-1.88-2.56a.78.78,0,0,1,.21-.44,1.91,1.91,0,0,1,.79-.5,4.69,4.69,0,0,1,1.29-.29,5.81,5.81,0,0,1,5.51,3,2.42,2.42,0,0,1,.29,1C387.42,348,386.78,348.37,385.49,348.37Z" transform="translate(38.3 -264.58)"/><path class="cls-1" d="M402.74,383.81a11.56,11.56,0,0,1-4.89-1.58c-1.93-1.13-3.11-3.14-3.52-6a52.47,52.47,0,0,1-.41-6.92A81.69,81.69,0,0,1,395.83,351q1.91-9,5.3-13.86a9.31,9.31,0,0,1,1.29-1.46,11.3,11.3,0,0,1,8.12-3.16,9.47,9.47,0,0,1,6.15,2.11,5.89,5.89,0,0,1,1.76,2.1,3.94,3.94,0,0,1,.41,1.85,15.18,15.18,0,0,1-.21,2,18.92,18.92,0,0,1-1.93,5,29.34,29.34,0,0,1-5.89,7.8,48,48,0,0,1-4.16,3.48c-.61,4.42-.93,7.05-1,7.91a18.8,18.8,0,0,0,5.54-4.63,29,29,0,0,0,3.84-7.88c.29-.95.7-1.43,1.23-1.43a4.08,4.08,0,0,1,2.46,1,3.63,3.63,0,0,1,1.52,3,9.24,9.24,0,0,1-.23,2.52,16.47,16.47,0,0,1-3.05,5,16.25,16.25,0,0,1-6.36,4.83,9.68,9.68,0,0,1-3,.82q4.51,4,8.76,4,4.57,0,9.38-5.27a.4.4,0,0,1,.26-.15c.31,0,.6.26.85.79a2.05,2.05,0,0,1,.24.94,5.78,5.78,0,0,1-1.47,2.28,14.57,14.57,0,0,1-4.54,3.61,9.35,9.35,0,0,1-4.51,1.14,13.83,13.83,0,0,1-8-2.84c-.49-.37-1.49-1.29-3-2.76a51.3,51.3,0,0,0,.91,9.09,5.52,5.52,0,0,1,.09,1,3.34,3.34,0,0,1-.68,2.43,4.83,4.83,0,0,1-2,1.5A6.78,6.78,0,0,1,402.74,383.81ZM407.81,352c.12,0,.56-.38,1.32-1.15q5.16-5.33,6.41-10.4a13.33,13.33,0,0,0,.47-2.81c0-1.17-.27-1.76-.82-1.76s-1.28.58-2,1.73a34.2,34.2,0,0,0-2.17,4.92c-1,2.47-1.63,4.12-1.9,5A30.35,30.35,0,0,0,407.81,352Z" transform="translate(38.3 -264.58)"/><path class="cls-1" d="M433.36,377.66a9.65,9.65,0,0,1-1.58-.14,10.42,10.42,0,0,1-7.68-5.92,16.43,16.43,0,0,1-1.47-6.89,22.29,22.29,0,0,1,1.06-6.53c1.29-3.59,3.12-5.61,5.51-6,.37-.05.58-.21.64-.46.26-.82,1.35-1.23,3.28-1.23a8.33,8.33,0,0,1,5.28,1.69l.47.36q5.63,0,11.25-.12c1,0,1.52.44,1.58,1.32s-.47,1.18-1.17,1.2q-9.61,0-9.61.17a15,15,0,0,1,1.81,7.56,24,24,0,0,1-.64,5.45q-1.23,5.1-3.81,7.5A6.72,6.72,0,0,1,433.36,377.66Zm.38-4.13c.17,0,.57-.29,1.2-.88a13.31,13.31,0,0,0,3.28-6,20,20,0,0,0,.7-5.39,15.89,15.89,0,0,0-.2-3,11,11,0,0,0-.79-2.32.05.05,0,0,1-.06-.06c-.31-.62-.63-1-.94-1a4.61,4.61,0,0,0-.88-.09c-.47,0-.7,0-.7.06l.15.88a17.46,17.46,0,0,1-.38,2.93,56.73,56.73,0,0,0-1.73,11.69,20.71,20.71,0,0,0,.2,2.61C433.63,373.34,433.68,373.53,433.74,373.53Z" transform="translate(38.3 -264.58)"/><path class="cls-1" d="M474.81,389.53a9.39,9.39,0,0,1-2.93-.53q-7.56-2.34-9.43-14.06a36,36,0,0,1-.29-4.69l-.53.82q-2.28,3.69-4.22,4.34a5.3,5.3,0,0,1-1.61.23,8.79,8.79,0,0,1-3.72-.88q-6-2.89-6-10.52a20.5,20.5,0,0,1,1.56-8.11q2.49-6,6.56-7.27a6.14,6.14,0,0,1,2.08-.35A12.65,12.65,0,0,1,463,350.8a11.85,11.85,0,0,1,1.49,1.14,3.48,3.48,0,0,0,.88.67l.47-1.23a24.67,24.67,0,0,1,.94-2.58q2-5,5.39-5a5.88,5.88,0,0,1,2.05.41q4,1.35,4,5.22a11.78,11.78,0,0,1-.5,3.22,125,125,0,0,0-3.18,13.26,69.8,69.8,0,0,0-.77,10.88c0,2.09,0,3.58,0,4.46a18.26,18.26,0,0,0,.57,3.48c.12.49.22.73.3.73a5.18,5.18,0,0,0,1.46-1q4.8-4.54,9.26-20.68a10.31,10.31,0,0,1,.92-2.85,4.41,4.41,0,0,1,1.07-.08c1.33,0,2,.15,2,.46a48,48,0,0,1-1.67,6.89q-3,11.74-7.41,17.93C478.68,388.39,476.86,389.53,474.81,389.53Zm-18.48-17.64a26.86,26.86,0,0,0,5.33-6.06,4.93,4.93,0,0,0,1-2c.24-1.66.82-4.42,1.76-8.29a10.05,10.05,0,0,0-.82-1.58,7.79,7.79,0,0,0-2.17-1.87,2.2,2.2,0,0,0-1-.41c-.45,0-.91.86-1.38,2.6q-.79,3-1.46,6.24c-.34,1.57-.63,3.44-.9,5.63A49.44,49.44,0,0,0,456.33,371.89Z" transform="translate(38.3 -264.58)"/><path class="cls-1" d="M496.76,358.88a2.45,2.45,0,0,1-.71-.09,4.92,4.92,0,0,1-2-1.49,2,2,0,0,1-.38-1.2,3.13,3.13,0,0,1,2-2.78,1.56,1.56,0,0,1,.71-.18,3.47,3.47,0,0,1,2.34,1.44,2.59,2.59,0,0,1,.85,1.55,2.9,2.9,0,0,1-.26,1.08q-.54,1.38-1.32,1.53A8,8,0,0,1,496.76,358.88Zm.35,13.27a2.48,2.48,0,0,1-.71-.08,4.94,4.94,0,0,1-2-1.5,2,2,0,0,1-.38-1.2,3.15,3.15,0,0,1,2-2.78,1.56,1.56,0,0,1,.71-.18,3.47,3.47,0,0,1,2.34,1.44,2.59,2.59,0,0,1,.85,1.55,2.9,2.9,0,0,1-.26,1.08q-.53,1.38-1.32,1.53A6.85,6.85,0,0,1,497.11,372.15Z" transform="translate(38.3 -264.58)"/><path class="cls-1" d="M150.27,283.49c-11.36-2.38-23.52-4.9-35-1.56-8.9,2.6-16.66,8.49-20,17.32l3.07-1.74c-23.52-8.32-52.43-17.22-74.67-.62a37.83,37.83,0,0,0-6,5.55c-2,2.28-3.46,5.44-6.68,6-3,.48-6.28,0-9.3.05a80.93,80.93,0,0,0-10.77.8c-11.35,1.66-23,7.49-27.56,18.67-5.63,13.84,4,27.19,12.32,37.48l.51-3.93C-35,369.74-37.4,385.23-32.27,397.7c5.81,14.11,20.6,21.46,35.12,23a57,57,0,0,0,11.83,0c4.45-.47,8.86-1.64,13.36-1.62,5,0,9.12,2.43,13.28,5a101.49,101.49,0,0,0,12,6.42,99,99,0,0,0,52.79,7.79c4.63-.6,9.23-1.84,13.91-1.9,5.08-.07,10.13,1.37,15.09,2.3q15.15,2.83,30.5,4.44c20.66,2.19,41.42,2.35,62.18,2.46,18.29.1,36.72.78,55-.82,16-1.41,32.23-4.72,46.23-13a73.66,73.66,0,0,0,9.79-6.93c1.84-1.53,3.39-2.91,5.92-2.77s5.46,1.22,8.07,1.79a156.78,156.78,0,0,0,58,1.6c4.91-.78,9.78-1.81,14.6-3,5.18-1.34,9.55-2.16,14.72-.32,4.14,1.47,8,3.17,12.4,3.64a36.17,36.17,0,0,0,12.39-1c8.51-2.1,16.32-6.42,24.12-10.28,8.36-4.13,17.18-6.74,25.74-10.34,7.61-3.21,14.81-7.91,18.91-15.31,4.3-7.75,2.9-15.26-.69-23a178.72,178.72,0,0,0-10.9-20.5c-7.67-12.11-18.35-23.52-33-26.28-4.53-.85-9.16-.85-13.72-1.56A27.52,27.52,0,0,1,463,312.19c-3.5-2.56-6.76-5.41-10.45-7.71a61.25,61.25,0,0,0-11.2-5.43,62.64,62.64,0,0,0-24.33-3.8,61.35,61.35,0,0,0-12.35,1.8c-4.64,1.17-9.32,3.61-14.2,3.42s-9.39-3.58-13.6-5.78-8.54-4.27-12.93-6.15a192.25,192.25,0,0,0-26.18-9.13c-19.13-5.12-38.79-7.36-58.48-4.81-5,.64-9.59.78-14.43-.66-4.26-1.26-8.42-2.82-12.71-4a151.64,151.64,0,0,0-26.8-4.78,153.29,153.29,0,0,0-54.34,5,150.88,150.88,0,0,0-24.54,9.23c-2.9,1.38-.37,5.69,2.52,4.31a147.83,147.83,0,0,1,103.25-8.54c4.27,1.23,8.42,2.89,12.72,4a35.22,35.22,0,0,0,13.3.56,136.58,136.58,0,0,1,28.44-.87,178.91,178.91,0,0,1,54.08,13.72q6.45,2.73,12.67,5.95c3.78,2,7.43,4.34,11.44,5.81,8.71,3.2,17.06-2,25.57-3.41,16.67-2.82,33.06,2.32,46.18,12.62,3.21,2.53,6.44,5.09,10.22,6.72a39,39,0,0,0,12.21,2.64c7.9.72,15,1.85,21.71,6.31,12.13,8,19.52,21.84,25.72,34.57,1.79,3.68,3.87,7.42,4.73,11.45A16.16,16.16,0,0,1,529,387c-4.49,7.46-12.53,11.3-20.41,14.19a233.14,233.14,0,0,0-24.21,10c-7.6,3.8-15.38,8-23.87,9.33a27.27,27.27,0,0,1-12.72-.91c-3.85-1.25-7.44-3.16-11.5-3.67-4.68-.59-9.21.9-13.7,2-4.65,1.16-9.36,2.1-14.1,2.82a151.37,151.37,0,0,1-56.9-2.35c-4.09-1-8.29-2.34-12.25-.19-3.41,1.85-6.22,5-9.47,7.12a78.18,78.18,0,0,1-21,9.64c-15.44,4.61-31.7,5.48-47.71,5.64-18.94.18-37.92,0-56.85-.35a416.66,416.66,0,0,1-60.06-5.14c-9.07-1.5-18.55-4.66-27.81-3.57-4.56.54-9,1.59-13.61,2a94.24,94.24,0,0,1-38.83-4.41C55.48,426.41,48.2,422,40.49,417.7a25.53,25.53,0,0,0-11.94-3.64c-4.54-.12-9,1.05-13.45,1.56A52.21,52.21,0,0,1-7.18,413.5c-13.8-4.57-23.88-16.57-22.58-31.57.54-6.25,3.37-12.36,8.49-16.14a2.55,2.55,0,0,0,.51-3.92C-27.7,353.29-36.63,341.68-32.1,330c4.29-11.06,16.88-15.42,27.72-16.28,3-.25,6.09-.3,9.14-.27s6.1.4,9-.55c4.64-1.54,7-6.81,10.46-9.94,8-7.23,19.12-10.33,29.7-10.49,14.93-.24,29.32,4.95,43.2,9.86a2.56,2.56,0,0,0,3.08-1.75c2.88-7.67,10.4-12.4,18.09-14.25,10.12-2.44,20.74-.1,30.7,2,3.14.66,4.49-4.16,1.33-4.82Z" transform="translate(38.3 -264.58)"/></svg>