<svg id="Capa_1" data-name="Capa 1" xmlns="http://www.w3.org/2000/svg" viewBox="0 0 1220.76 113.61"><defs><style>.cls-1{fill:#ffed00;}</style></defs><title>isotopoak</title><path class="cls-1" d="M-301.44,363.81c1.15,0,2,.11,2,.79,0,1-1.19,1.12-2.45,1l-2.88-.07c-.39,0-.82-.21-.9-.9s-.07-13.57-.1-19c0-1.88.14-4.76.21-6.55,0-.9,2.27-.44,4.75-.54.29,0,1.33.14,1.37.82s-.5,1.05-1.33,1c-1.58,0-2.77-.22-2.81.43-.32,3.21-.11,11.7-.11,13.5-.18.29,1.48.25,2.05.25a.91.91,0,0,1,1,.87c-.14.57-.86.68-1.33.68-.65,0-1.73-.11-1.65.36-.08,3.06-.18,6.7-.08,7.16C-303.39,363.92-302.49,363.84-301.44,363.81Z" transform="translate(305.76 -338.55)"/><path class="cls-1" d="M-292.74,365.74c-.38.05-.82-.23-.89-.9s0-22.84.06-24.64c.08-1.15.34-1.61,1.12-1.61,1,0,.95,1.63.93,2.28-.08,3.31-.25,22.5-.17,23C-291.51,365.65-292.68,365.73-292.74,365.74Z" transform="translate(305.76 -338.55)"/><path class="cls-1" d="M-281.16,347.59c2,0,3.61,5,2.58,8-.45.67-3.32.33-4.37.36-.76.09-.54,7.46,1.67,7.8,1.8-.25.54-3.85,2.43-3.68,1.48.13,0,5.65-2.43,5.65-3.73,0-3.73-6.54-3.73-8.81C-285,353-283.67,347.59-281.16,347.59Zm-1.43,6.63c.73.07,2,.14,2.75.17.4.27.22-4.59-1.19-4.8C-282.45,349.59-283.4,354.12-282.59,354.22Z" transform="translate(305.76 -338.55)"/><path class="cls-1" d="M-264.08,363.69c-.11.49.13,1.85-1.07,1.85a1,1,0,0,1-.93-.94c0-.4-.11-10.87-.1-11.43.07-5.53-.88-.84-.88-.84-.09,1.78-.47,2.58-.83,2.57-.74,0-.7-1.27-.95-2.5,0,0-.69-4.92-.75.5l-.15,10.79c-.11.49.13,1.85-1.07,1.85a1,1,0,0,1-.93-1c-.08-.73.07-14.17.07-14.17-.09-1.71.88-2.94,1.53-2.94,1.66,0,2.29,2,2.34,3.16,0-1,.58-3.14,2.49-3.14.71,0,1.38,1.62,1.38,2.92C-263.93,350.42-264.16,363.23-264.08,363.69Z" transform="translate(305.76 -338.55)"/><path class="cls-1" d="M-252.86,347.59c2,0,3.61,5,2.57,8-.45.67-3.31.33-4.36.36-.77.09-.54,7.46,1.66,7.8,1.8-.25.54-3.85,2.44-3.68,1.47.13,0,5.65-2.43,5.65-3.74,0-3.74-6.54-3.74-8.81C-256.72,353-255.37,347.59-252.86,347.59Zm-1.43,6.63c.72.07,2,.14,2.74.17.41.27.23-4.59-1.19-4.8C-254.16,349.59-255.1,354.12-254.29,354.22Z" transform="translate(305.76 -338.55)"/><path class="cls-1" d="M-240.76,347.59c1.65,0,3.61,1.26,3.61,4.62v12c0,.82-.35,1.4-.69,1.42s-1.12-.31-1.12-1.57c0-5.89.6-14-1.53-14-1.95,0-1.8,8.64-1.8,14.61-.16,1.31-1.48,1.49-1.92,0,0,0,.12-9,.12-11.61C-244.09,348.67-241.81,347.59-240.76,347.59Z" transform="translate(305.76 -338.55)"/><path class="cls-1" d="M-227.67,341c0,1.22-.13,6.12-.14,6.3s.44,0,1.24.12c.51.06,1.22.08,1.23,1.06,0,.58-.91.71-1.23.71l-1.34,0c0,.82,0,14.29.06,14.61,0,.66.09,1.78-.86,1.78a1,1,0,0,1-.9-.95c0-.3,0-14.45-.06-15.45-.58,0-.78,0-1.26.05-.25,0-1.15-.15-1.19-.82a1,1,0,0,1,1.15-1c1,0,1.1.1,1.28-.1a55.76,55.76,0,0,1,.12-6.46s0-2.15,1-2.15S-227.67,339.54-227.67,341Z" transform="translate(305.76 -338.55)"/><path class="cls-1" d="M-217.67,348.64c0,6-.14,14.61,1.8,14.61,2.13,0,1.53-8.1,1.53-14,0-1.26.84-1.59,1.12-1.58s.69.61.69,1.43v12c0,3.36-1.95,4.62-3.6,4.62-1.06,0-3.34-1.08-3.34-5.52,0-2.62-.12-11.61-.12-11.61C-219.14,347.15-217.82,347.33-217.67,348.64Z" transform="translate(305.76 -338.55)"/><path class="cls-1" d="M-201.34,365.65c-3.64,0-4.71-1.6-4.71-5.13,0-2.83.52-5.89,3.93-6h0c0-3.59-.18-5.06-.65-5.1-2.11-.21-1.11,3.1-2.43,3.05-1-.24-.75-5.22,2.54-4.9,1.51.15,2.39,2.55,2.32,4.59C-200.16,356.2-200.18,365.4-201.34,365.65Zm-.8-9.37h0v-.07a.38.38,0,0,0,0-.1c-3.12,0-3.54,7.93-.17,7.93A40.83,40.83,0,0,0-202.14,356.28Z" transform="translate(305.76 -338.55)"/><path class="cls-1" d="M-188.48,352.88c-1.32.06-.1-2.94-2.21-2.72-.47,0-1.23,1.87-1.23,5.55,0,0,0,6.33-.21,8.58-.09,1-.25,1.32-.54,1.32s-.81,0-.9-1.69c-.15-2.95-.25-6.85-.13-9.91a3.27,3.27,0,0,1,0-.44h0V348.4a1,1,0,0,1,1-1c.76,0,.58,1.22.58,1.22v.67a2.11,2.11,0,0,1,1.35-.94C-187.5,348-187.48,352.64-188.48,352.88Z" transform="translate(305.76 -338.55)"/><path class="cls-1" d="M-178.27,347.59c2,0,3.61,5,2.57,8-.45.67-3.31.33-4.36.36-.77.09-.54,7.46,1.66,7.8,1.8-.25.54-3.85,2.44-3.68,1.47.13,0,5.65-2.43,5.65-3.74,0-3.74-6.54-3.74-8.81C-182.13,353-180.78,347.59-178.27,347.59Zm-1.43,6.63c.72.07,2,.14,2.74.17.41.27.23-4.59-1.18-4.8C-179.56,349.59-180.51,354.12-179.7,354.22Z" transform="translate(305.76 -338.55)"/><path class="cls-1" d="M-166.17,347.59c1.65,0,3.61,1.26,3.61,4.62v12c0,.82-.35,1.4-.69,1.42s-1.12-.31-1.12-1.57c0-5.89.6-14-1.53-14-1.95,0-1.8,8.64-1.8,14.61-.15,1.31-1.47,1.49-1.92,0,0,0,.12-9,.12-11.61C-169.5,348.67-167.22,347.59-166.17,347.59Z" transform="translate(305.76 -338.55)"/><path class="cls-1" d="M-303.81,396c3.57,0,4.87,4.65,4.81,6.58-.11,4.14-2.44,6.44-5.07,6.44-1.75-.16-1.49-3-1.67-11.89-.05-2.92,0-12.58.06-13.37s.19-1.59,1-1.59c.51,0,.92.67.91,2C-303.79,384.75-303.85,393.47-303.81,396Zm.2,1.86a53.8,53.8,0,0,0,.17,9.28C-300,406.91-299.87,397.84-303.61,397.84Z" transform="translate(305.76 -338.55)"/><path class="cls-1" d="M-289.25,408.85c-3.64,0-4.71-1.6-4.71-5.13,0-2.83.52-5.89,3.93-6h0c0-3.59-.18-5.06-.65-5.1-2.11-.21-1.11,3.1-2.43,3.05-1-.24-.75-5.22,2.54-4.9,1.51.15,2.39,2.55,2.32,4.59C-288.07,399.4-288.09,408.6-289.25,408.85Zm-.8-9.37h0v-.06a.38.38,0,0,0,0-.1c-3.12,0-3.54,7.93-.17,7.93A40.83,40.83,0,0,0-290,399.48Z" transform="translate(305.76 -338.55)"/><path class="cls-1" d="M-278.68,384.22c0,1.22-.13,6.12-.14,6.3s.44,0,1.24.12c.51.06,1.22.08,1.23,1.06,0,.58-.91.7-1.23.7h-1.34c0,.82,0,14.29.06,14.61,0,.66.09,1.78-.86,1.78a1,1,0,0,1-.91-.95c0-.3,0-14.45-.05-15.45-.58,0-.78,0-1.26.05-.25,0-1.15-.15-1.19-.82a1,1,0,0,1,1.15-1c1,0,1.1.1,1.28-.1a55.76,55.76,0,0,1,.12-6.46s0-2.15,1-2.15S-278.68,382.74-278.68,384.22Z" transform="translate(305.76 -338.55)"/><path class="cls-1" d="M-266.61,408.85c-3.64,0-4.71-1.6-4.71-5.13,0-2.83.52-5.89,3.93-6h0c0-3.59-.18-5.06-.65-5.1-2.1-.21-1.1,3.1-2.42,3.05-1-.24-.75-5.22,2.53-4.9,1.51.15,2.39,2.55,2.33,4.59C-265.43,399.4-265.45,408.6-266.61,408.85Zm-.8-9.37h0v-.16c-3.12,0-3.54,7.93-.18,7.93A40,40,0,0,0-267.41,399.48Z" transform="translate(305.76 -338.55)"/><path class="cls-1" d="M-251.55,407.87c0,1-1.3.94-1.82.93-.95,0-4.73,0-4.85,0-.59,0-1-.59-.72-1.65,1-3.65,5.77-12.81,6-13.9-1.71,0-2.65,0-3.38,0-.52,0-1.83.07-1.83-.94,0-.76.35-.87,1.27-.94.54,0,5.22,0,5.4,0a1,1,0,0,1,.7,1.13c-.06.52-5.46,12.65-5.86,14.17,2.27,0,3.31,0,3.77.06C-251.92,406.85-251.55,407.11-251.55,407.87Z" transform="translate(305.76 -338.55)"/><path class="cls-1" d="M-234.4,396c3.56,0,4.87,4.65,4.81,6.58-.12,4.14-2.45,6.44-5.07,6.44-1.75-.16-1.49-3-1.67-11.89,0-2.92,0-12.58.06-13.37s.19-1.59,1-1.59c.52,0,.92.67.92,2C-234.38,384.75-234.45,393.47-234.4,396Zm.19,1.86a53.84,53.84,0,0,0,.18,9.28C-230.61,406.91-230.46,397.84-234.21,397.84Z" transform="translate(305.76 -338.55)"/><path class="cls-1" d="M-220,390.79c2,0,3.61,5,2.58,8-.45.67-3.32.33-4.37.36-.76.08-.54,7.46,1.67,7.8,1.8-.25.54-3.85,2.43-3.68,1.48.13,0,5.65-2.43,5.65-3.73,0-3.73-6.54-3.73-8.81C-223.81,396.24-222.47,390.79-220,390.79Zm-1.43,6.63c.73.07,2,.14,2.75.17.4.27.22-4.59-1.19-4.8C-221.25,392.79-222.2,397.32-221.39,397.42Z" transform="translate(305.76 -338.55)"/><path class="cls-1" d="M-204.6,405.28c0,1.88-.88,3.57-2.67,3.57-2.13,0-3.22-1.53-3.22-4.5,0-.77.41-1.61.8-1.58s.79.75.78,1.37c0,2.12.54,2.8,1.53,2.81s1.2-1.45,1-2.71c-.36-2.81-4.24-4.76-4.24-9.86,0-1.89.88-3.58,2.67-3.58,2.56,0,3.22,2,3.22,4.87,0,.77-.41,1.24-.8,1.22s-.79-.76-.79-1.37c0-1.56-.17-2.44-1.16-2.46-1.18-.13-1.62,1.78-1.18,3.82S-204.59,400.83-204.6,405.28Z" transform="translate(305.76 -338.55)"/><path class="cls-1" d="M-194.41,384.22c0,1.22-.13,6.12-.14,6.3s.45,0,1.24.12c.52.06,1.23.08,1.23,1.06,0,.58-.9.7-1.22.7h-1.34c0,.82,0,14.29.06,14.61,0,.66.09,1.78-.86,1.78a1,1,0,0,1-.91-.95c0-.3,0-14.45-.05-15.45-.58,0-.79,0-1.26.05-.25,0-1.16-.15-1.19-.82a1,1,0,0,1,1.15-1c1,0,1.09.1,1.27-.1a60.73,60.73,0,0,1,.12-6.46s0-2.15,1-2.15S-194.41,382.74-194.41,384.22Z" transform="translate(305.76 -338.55)"/><path class="cls-1" d="M-182.45,390.79c2,0,3.61,5,2.58,8-.45.67-3.32.33-4.36.36-.77.08-.55,7.46,1.66,7.8,1.8-.25.54-3.85,2.43-3.68,1.48.13-.05,5.65-2.42,5.65-3.74,0-3.74-6.54-3.74-8.81C-186.3,396.24-185,390.79-182.45,390.79Zm-1.42,6.63c.72.07,2,.14,2.74.17.4.27.22-4.59-1.19-4.8C-183.74,392.79-184.68,397.32-183.87,397.42Z" transform="translate(305.76 -338.55)"/><path class="cls-1" d="M-165.69,406.59c.19.44.65,1.59-.31,2s-1.54-.84-1.75-1.36c-.4-1.07-1.68-4.09-3.08-7.36-.11,3-.19,6.49-.11,6.92-.11.5.13,1.87-1.08,1.87a1,1,0,0,1-.94-.95c-.08-.74-.08-13.68-.11-19.17,0-1.9.07-3.68.17-5.49.05-.88.49-1.68,1.19-1.67,1,0,1,1.63.94,2.29-.09,1.77-.12,7.12-.13,10.2.76-1.33,2.12-3.27,3-5,.46-.82,1.09-2,2.09-1.65s.17,1.84-.14,2.61c-.66,1.62-1.55,2.94-3.88,7.39,1.06,2.37,1.78,3.72,2.49,5.29S-166.23,405.14-165.69,406.59Z" transform="translate(305.76 -338.55)"/><path class="cls-1" d="M-156.67,408.62c-1.72,0-2.23-1.18-2.54-2.94a55.08,55.08,0,0,1-.36-6.28c.08-.76-.32-8.86,3-8.86,3,0,3.26,4.59,3.23,9.24,0,4.36-.23,4.77-.58,6.21S-155.27,408.62-156.67,408.62Zm-1-8.83c-.17,5.61.07,6.68,1.25,6.67,1.59,0,1.34-7,1.34-7s.33-6.56-1.13-6.54C-157.22,392.76-157.54,394.06-157.71,399.79Z" transform="translate(305.76 -338.55)"/><path class="cls-1" d="M-298.06,450.09c-.11.49.13,1.85-1.07,1.85a1,1,0,0,1-.93-.94c0-.4-.11-10.87-.1-11.43.06-5.53-.88-.84-.88-.84-.09,1.78-.47,2.58-.84,2.57-.74,0-.7-1.27-.94-2.5,0,0-.7-4.92-.75.5l-.15,10.79c-.12.49.13,1.85-1.07,1.85a1,1,0,0,1-.93-.95c-.09-.73.07-14.17.07-14.17-.1-1.71.88-2.94,1.53-2.94,1.66,0,2.29,2,2.33,3.16,0-1,.59-3.14,2.5-3.14.71,0,1.37,1.62,1.37,2.92C-297.92,436.82-298.14,449.63-298.06,450.09Z" transform="translate(305.76 -338.55)"/><path class="cls-1" d="M-286.73,452.05c-3.64,0-4.71-1.6-4.71-5.13,0-2.83.52-5.89,3.93-6h0c0-3.6-.18-5.06-.65-5.11-2.11-.21-1.11,3.1-2.43,3-1-.24-.75-5.22,2.54-4.9,1.51.15,2.39,2.55,2.32,4.6C-285.55,442.6-285.57,451.8-286.73,452.05Zm-.8-9.37h0v-.07a.28.28,0,0,0,0-.09c-3.12,0-3.54,7.92-.17,7.92A40.83,40.83,0,0,0-287.53,442.68Z" transform="translate(305.76 -338.55)"/><path class="cls-1" d="M-273.18,448.48c0,1.88-.88,3.58-2.67,3.58-2.13,0-3.22-1.54-3.22-4.51,0-.77.41-1.61.8-1.58s.79.75.78,1.37c0,2.12.54,2.8,1.53,2.81s1.2-1.45,1-2.71c-.36-2.81-4.24-4.76-4.24-9.86,0-1.89.88-3.58,2.67-3.58,2.56,0,3.22,2,3.22,4.87,0,.77-.41,1.24-.8,1.22s-.78-.76-.78-1.37c0-1.56-.18-2.44-1.17-2.46-1.18-.13-1.62,1.78-1.18,3.82S-273.17,444-273.18,448.48Z" transform="translate(305.76 -338.55)"/><path class="cls-1" d="M-262,452.05c-3.64,0-4.71-1.6-4.71-5.13,0-2.83.52-5.89,3.93-6h0c0-3.6-.18-5.06-.65-5.11-2.1-.21-1.1,3.1-2.43,3-1-.24-.74-5.22,2.54-4.9,1.51.15,2.39,2.55,2.32,4.6C-260.82,442.6-260.84,451.8-262,452.05Zm-.8-9.37h0v-.07a.28.28,0,0,0,0-.09c-3.12,0-3.53,7.92-.17,7.92A40.83,40.83,0,0,0-262.8,442.68Z" transform="translate(305.76 -338.55)"/><path class="cls-1" d="M-243.24,452.05c-3.65,0-4.71-1.6-4.72-5.13,0-2.83.53-5.89,3.94-6h0c0-3.6-.18-5.06-.64-5.11-2.11-.21-1.11,3.1-2.43,3-1-.24-.75-5.22,2.53-4.9,1.51.15,2.4,2.55,2.33,4.6C-242.07,442.6-242.08,451.8-243.24,452.05Zm-.81-9.37h0a.2.2,0,0,0,0-.07s0-.06,0-.09c-3.12,0-3.54,7.92-.17,7.92A40,40,0,0,0-244,442.68Z" transform="translate(305.76 -338.55)"/><path class="cls-1" d="M-232.67,427.42c0,1.22-.14,6.12-.14,6.3s.44,0,1.23.12c.52.06,1.23.08,1.24,1.06,0,.58-.91.71-1.23.71l-1.34,0c0,.82,0,14.29.06,14.61,0,.66.09,1.78-.86,1.78a1,1,0,0,1-.91-1c0-.3,0-14.45,0-15.45-.58,0-.79,0-1.26.05-.25,0-1.15-.15-1.19-.82a1,1,0,0,1,1.15-1c1,0,1.1.1,1.27-.1a60.73,60.73,0,0,1,.12-6.46s0-2.15,1-2.15S-232.68,425.94-232.67,427.42Z" transform="translate(305.76 -338.55)"/><path class="cls-1" d="M-222.41,451.82c-1.71,0-2.22-1.18-2.53-2.94a53.13,53.13,0,0,1-.37-6.28c.08-.76-.32-8.86,3-8.86,3,0,3.27,4.59,3.23,9.24,0,4.36-.23,4.77-.58,6.21S-221,451.82-222.41,451.82Zm-1-8.83c-.17,5.61.07,6.68,1.26,6.67,1.58,0,1.33-7.05,1.33-7.05s.33-6.56-1.12-6.54C-222.95,436-223.27,437.26-223.45,443Z" transform="translate(305.76 -338.55)"/><path class="cls-1" d="M-204.93,450.09c-.11.49.13,1.85-1.07,1.85a1,1,0,0,1-.93-.94c0-.4-.11-10.87-.1-11.43.06-5.53-.88-.84-.88-.84-.09,1.78-.47,2.58-.84,2.57-.74,0-.69-1.27-.94-2.5,0,0-.7-4.92-.75.5l-.15,10.79c-.11.49.13,1.85-1.07,1.85a1,1,0,0,1-.93-.95c-.09-.73.07-14.17.07-14.17-.1-1.71.88-2.94,1.53-2.94,1.66,0,2.29,2,2.33,3.16,0-1,.59-3.14,2.5-3.14.71,0,1.38,1.62,1.38,2.92C-204.78,436.82-205,449.63-204.93,450.09Z" transform="translate(305.76 -338.55)"/><path class="cls-1" d="M-196.48,434c.91,0,1.11,1.16,1.11,1.28,0,.29-.28,1.19-1,1.19a1.15,1.15,0,0,1-1.21-1.25A1.12,1.12,0,0,1-196.48,434Zm.79,6.1c.36,2.67,0,7.89-.14,11,0,.71-.37,1.11-.65,1.11s-.74-.32-.87-1c-.45-2.31,0-7.89,0-11,0-.84.5-1.31.85-1.31S-195.8,439.3-195.69,440.09Z" transform="translate(305.76 -338.55)"/><path class="cls-1" d="M-180.92,449.79c.19.44.66,1.59-.31,2s-1.54-.84-1.75-1.36c-.4-1.07-1.68-4.09-3.08-7.36-.1,3-.19,6.49-.11,6.93-.11.49.13,1.86-1.08,1.86a1,1,0,0,1-.94-.95c-.08-.74-.08-13.68-.11-19.17,0-1.89.08-3.68.17-5.49,0-.88.49-1.68,1.19-1.67,1,0,1,1.63.94,2.29-.09,1.77-.12,7.12-.13,10.2.76-1.33,2.12-3.27,3-5,.45-.82,1.08-2,2.08-1.65s.17,1.84-.14,2.61c-.66,1.62-1.54,2.94-3.88,7.39,1.06,2.37,1.78,3.72,2.49,5.29S-181.46,448.34-180.92,449.79Z" transform="translate(305.76 -338.55)"/><path class="cls-1" d="M-171.9,451.82c-1.72,0-2.23-1.18-2.54-2.94a55.08,55.08,0,0,1-.36-6.28c.08-.76-.32-8.86,3-8.86,3,0,3.27,4.59,3.23,9.24,0,4.36-.23,4.77-.58,6.21S-170.5,451.82-171.9,451.82Zm-1-8.83c-.17,5.61.07,6.68,1.25,6.67,1.59,0,1.34-7.05,1.34-7.05s.33-6.56-1.13-6.54C-172.45,436-172.77,437.26-172.94,443Z" transform="translate(305.76 -338.55)"/><path class="cls-1" d="M-158.14,452.05c-3.64,0-4.71-1.6-4.71-5.13,0-2.83.52-5.89,3.93-6h0c0-3.6-.18-5.06-.65-5.11-2.11-.21-1.11,3.1-2.43,3-1-.24-.75-5.22,2.54-4.9,1.51.15,2.39,2.55,2.32,4.6C-157,442.6-157,451.8-158.14,452.05Zm-.8-9.37h0v-.07a.28.28,0,0,0,0-.09c-3.12,0-3.54,7.92-.17,7.92A40.83,40.83,0,0,0-158.94,442.68Z" transform="translate(305.76 -338.55)"/><path class="cls-1" d="M-65.06,345.94c0,1-1.32,1.07-1.87,1.62-2,2-2.27,5.83-2.27,9.77,0,3.41-.17,8.13,2.77,11.4.71.79,1.89,1,1.89,1.89a1.22,1.22,0,0,1-1.57,1.09c-3.48-.16-5.41-8.56-5.41-14.12,0-5.92,1.76-12.91,5.14-12.91C-65.37,344.68-65.06,345.25-65.06,345.94Z" transform="translate(305.76 -338.55)"/><path class="cls-1" d="M-56.24,353.59c.91,0,1.11,1.16,1.11,1.28,0,.29-.28,1.19-1,1.19a1.15,1.15,0,0,1-1.21-1.25A1.12,1.12,0,0,1-56.24,353.59Zm.79,6.1c.36,2.67,0,7.89-.14,10.95,0,.71-.37,1.11-.64,1.11s-.75-.32-.88-1c-.45-2.31,0-7.89,0-11,0-.84.5-1.31.86-1.31S-55.56,358.9-55.45,359.69Z" transform="translate(305.76 -338.55)"/><path class="cls-1" d="M-42.08,368.08c0,1.88-.88,3.57-2.67,3.57-2.12,0-3.22-1.53-3.22-4.5,0-.77.42-1.61.8-1.58s.79.75.79,1.37c0,2.12.53,2.8,1.53,2.81s1.19-1.45,1-2.71c-.36-2.81-4.24-4.76-4.24-9.86,0-1.89.87-3.58,2.66-3.58,2.57,0,3.23,2,3.23,4.87,0,.77-.42,1.24-.8,1.22s-.79-.76-.79-1.37c0-1.56-.18-2.44-1.17-2.46-1.17-.13-1.61,1.78-1.17,3.82S-42.07,363.63-42.08,368.08Z" transform="translate(305.76 -338.55)"/><path class="cls-1" d="M-32.7,371.42c-1.72,0-2.23-1.18-2.54-2.94a55,55,0,0,1-.36-6.28c.08-.76-.33-8.86,3-8.86,3,0,3.26,4.6,3.22,9.24,0,4.36-.22,4.77-.57,6.21S-31.3,371.42-32.7,371.42Zm-1-8.83c-.17,5.61.08,6.68,1.26,6.67,1.58,0,1.34-7.05,1.34-7.05s.33-6.56-1.13-6.54C-33.25,355.56-33.57,356.86-33.75,362.59Z" transform="translate(305.76 -338.55)"/><path class="cls-1" d="M-19.93,347c0,1.22-.13,6.12-.14,6.3s.44,0,1.24.12c.51.06,1.22.08,1.23,1.06,0,.58-.91.71-1.23.71l-1.34,0c0,.82,0,14.29.06,14.61,0,.66.09,1.78-.86,1.78a1,1,0,0,1-.9-.95c0-.3,0-14.45-.06-15.45-.58,0-.78,0-1.26.05-.25,0-1.15-.15-1.19-.82a1,1,0,0,1,1.15-1c1,0,1.1.1,1.28-.1a58.14,58.14,0,0,1,.12-6.46s0-2.15,1-2.15S-19.93,345.54-19.93,347Z" transform="translate(305.76 -338.55)"/><path class="cls-1" d="M-9.66,371.42c-1.72,0-2.23-1.18-2.54-2.94a52.75,52.75,0,0,1-.36-6.28c.08-.76-.33-8.86,3-8.86,3,0,3.26,4.6,3.22,9.24,0,4.36-.22,4.77-.58,6.21S-8.26,371.42-9.66,371.42Zm-1.05-8.83c-.17,5.61.08,6.68,1.26,6.67,1.58,0,1.33-7.05,1.33-7.05s.34-6.56-1.12-6.54C-10.21,355.56-10.53,356.86-10.71,362.59Z" transform="translate(305.76 -338.55)"/><path class="cls-1" d="M1.15,381c-1.12,0-1-1.09-1-3.11,0-.27-.06-11.74,0-12.07C.27,356.94,0,354.11,1.77,354c4.11,0,4.95,4.46,5.07,8.6,0,1.93-.41,9.09-4.81,9.09-.16,1.4-.14,5.35-.14,6.89C1.89,379.36,2.17,381,1.15,381Zm1.07-11.23c3.74,0,3.6-13.75.18-14A121.26,121.26,0,0,0,2.22,369.79Z" transform="translate(305.76 -338.55)"/><path class="cls-1" d="M15.5,371.42c-1.72,0-2.23-1.18-2.54-2.94a55,55,0,0,1-.36-6.28c.08-.76-.32-8.86,3-8.86,3,0,3.26,4.6,3.23,9.24,0,4.36-.23,4.77-.58,6.21S16.9,371.42,15.5,371.42Zm-1-8.83c-.17,5.61.07,6.68,1.25,6.67,1.59,0,1.34-7.05,1.34-7.05s.33-6.56-1.13-6.54C15,355.56,14.63,356.86,14.46,362.59Z" transform="translate(305.76 -338.55)"/><path class="cls-1" d="M29.26,371.65c-3.64,0-4.71-1.6-4.71-5.13,0-2.83.52-5.89,3.93-6h0c0-3.59-.18-5.06-.65-5.1-2.11-.21-1.11,3.1-2.43,3.05-1-.24-.75-5.22,2.54-4.9,1.5.15,2.39,2.55,2.32,4.59C30.44,362.2,30.42,371.4,29.26,371.65Zm-.8-9.37h0v-.07a.38.38,0,0,0,0-.1c-3.12,0-3.54,7.93-.17,7.93A40.83,40.83,0,0,0,28.46,362.28Z" transform="translate(305.76 -338.55)"/><path class="cls-1" d="M42.12,358.88c-1.32.06-.1-2.94-2.21-2.72-.47,0-1.23,1.87-1.23,5.55,0,0,0,6.33-.21,8.58-.09,1-.25,1.32-.54,1.32s-.81,0-.9-1.69c-.15-2.95-.25-6.85-.13-9.91,0-.14,0-.29,0-.44h0V354.4a1,1,0,0,1,1-1c.76,0,.58,1.22.58,1.22v.67a2.11,2.11,0,0,1,1.35-.94C43.1,354,43.12,358.64,42.12,358.88Z" transform="translate(305.76 -338.55)"/><path class="cls-1" d="M52.33,353.59c2,0,3.61,5,2.57,8-.45.67-3.31.33-4.36.36-.77.09-.54,7.46,1.66,7.8,1.8-.25.54-3.85,2.44-3.68,1.47.13,0,5.65-2.43,5.65-3.74,0-3.74-6.54-3.74-8.81C48.47,359,49.82,353.59,52.33,353.59Zm-1.43,6.63c.72.07,2,.14,2.74.17.41.27.23-4.59-1.18-4.8C51,355.59,50.09,360.12,50.9,360.22Z" transform="translate(305.76 -338.55)"/><path class="cls-1" d="M64.43,353.59c1.65,0,3.61,1.26,3.61,4.62v12c0,.82-.35,1.4-.69,1.42s-1.12-.31-1.12-1.57c0-5.89.6-14-1.53-14-2,0-1.8,8.64-1.8,14.61-.15,1.31-1.47,1.49-1.92,0,0,0,.12-9,.12-11.61C61.1,354.67,63.38,353.59,64.43,353.59Z" transform="translate(305.76 -338.55)"/><path class="cls-1" d="M89.43,369.69c-.12.49.12,1.85-1.08,1.85a1,1,0,0,1-.93-.94c0-.4-.11-10.87-.09-11.43.06-5.53-.89-.84-.89-.84-.09,1.78-.46,2.58-.83,2.57-.74,0-.7-1.27-.94-2.5,0,0-.7-4.92-.76.5l-.15,10.79c-.11.49.13,1.85-1.07,1.85a1,1,0,0,1-.93-1c-.08-.73.07-14.17.07-14.17-.09-1.71.88-2.94,1.53-2.94,1.66,0,2.29,2,2.34,3.16,0-1,.58-3.14,2.49-3.14.71,0,1.38,1.62,1.38,2.92C89.57,356.42,89.34,369.23,89.43,369.69Z" transform="translate(305.76 -338.55)"/><path class="cls-1" d="M100.75,371.65c-3.64,0-4.71-1.6-4.71-5.13,0-2.83.52-5.89,3.93-6h0c0-3.59-.18-5.06-.64-5.1-2.11-.21-1.11,3.1-2.43,3.05-1-.24-.75-5.22,2.53-4.9,1.51.15,2.4,2.55,2.33,4.59C101.93,362.2,101.91,371.4,100.75,371.65Zm-.8-9.37h0a.15.15,0,0,1,0-.07.31.31,0,0,1,0-.1c-3.12,0-3.54,7.93-.18,7.93A40,40,0,0,0,100,362.28Z" transform="translate(305.76 -338.55)"/><path class="cls-1" d="M114.3,368.08c0,1.88-.87,3.57-2.67,3.57-2.12,0-3.22-1.53-3.22-4.5,0-.77.42-1.61.8-1.58s.79.75.79,1.37c0,2.12.53,2.8,1.53,2.81s1.2-1.45,1-2.71c-.36-2.81-4.24-4.76-4.24-9.86,0-1.89.87-3.58,2.67-3.58,2.56,0,3.22,2,3.22,4.87,0,.77-.42,1.24-.8,1.22s-.79-.76-.79-1.37c0-1.56-.18-2.44-1.17-2.46-1.17-.13-1.61,1.78-1.17,3.82S114.31,363.63,114.3,368.08Z" transform="translate(305.76 -338.55)"/><path class="cls-1" d="M125.49,371.65c-3.65,0-4.72-1.6-4.72-5.13,0-2.83.53-5.89,3.94-6h0c0-3.59-.18-5.06-.64-5.1-2.11-.21-1.11,3.1-2.43,3.05-1-.24-.75-5.22,2.53-4.9,1.51.15,2.4,2.55,2.33,4.59C126.66,362.2,126.64,371.4,125.49,371.65Zm-.81-9.37h0s0-.05,0-.07a.31.31,0,0,1,0-.1c-3.12,0-3.54,7.93-.18,7.93A39.25,39.25,0,0,0,124.68,362.28Z" transform="translate(305.76 -338.55)"/><path class="cls-1" d="M140,357.59c0,5.56-1.93,14-5.41,14.12a1.22,1.22,0,0,1-1.57-1.09c0-.9,1.18-1.1,1.89-1.89,2.94-3.27,2.77-8,2.77-11.4,0-3.94-.31-7.8-2.27-9.77-.55-.55-1.87-.64-1.87-1.62,0-.69.31-1.26,1.32-1.26C138.28,344.68,140,351.67,140,357.59Z" transform="translate(305.76 -338.55)"/><path class="cls-1" d="M152.39,362.21a2.15,2.15,0,0,1,2.16-2.26,2.27,2.27,0,1,1-2.16,2.26Z" transform="translate(305.76 -338.55)"/><path class="cls-1" d="M175.52,345.94c0,1-1.32,1.07-1.87,1.62-2,2-2.26,5.83-2.26,9.77,0,3.41-.18,8.13,2.76,11.4.71.79,1.89,1,1.89,1.89a1.22,1.22,0,0,1-1.57,1.09c-3.48-.16-5.41-8.56-5.41-14.12,0-5.92,1.76-12.91,5.14-12.91C175.22,344.68,175.52,345.25,175.52,345.94Z" transform="translate(305.76 -338.55)"/><path class="cls-1" d="M185.15,354.64c0,6-.14,14.61,1.81,14.61,2.13,0,1.53-8.1,1.53-14,0-1.26.84-1.59,1.11-1.58s.7.61.7,1.43v12c0,3.36-2,4.62-3.61,4.62-1.06,0-3.34-1.08-3.34-5.52,0-2.62-.12-11.61-.12-11.61C183.68,353.15,185,353.33,185.15,354.64Z" transform="translate(305.76 -338.55)"/><path class="cls-1" d="M204.18,377.84c-.33,1.88-.87,3.12-2.7,3.12-2.86,0-3.67-2.69-3.27-5.66.11-.77.43-1.26.81-1.23s.81.76.81,1.38c0,2.14.17,3.21,1.18,3.23,1.19.14,1.49-1.67,1.5-4.42h0c0-.36-.06-1.29-.21-2.69-4.42,0-4.87-7.16-4.81-9.09.11-4.14.95-8.6,5.07-8.6,1.75.16,1.49,3,1.67,11.89C204.23,366.1,204.22,377.57,204.18,377.84Zm-2.25-22.08c-3.42.21-3.57,14,.17,14A121.21,121.21,0,0,0,201.93,355.76Z" transform="translate(305.76 -338.55)"/><path class="cls-1" d="M215.41,371.65c-3.64,0-4.71-1.6-4.71-5.13,0-2.83.52-5.89,3.93-6h0c0-3.59-.18-5.06-.65-5.1-2.1-.21-1.1,3.1-2.42,3.05-1-.24-.75-5.22,2.53-4.9,1.51.15,2.39,2.55,2.33,4.59C216.59,362.2,216.57,371.4,215.41,371.65Zm-.8-9.37h0v-.07a.38.38,0,0,0,0-.1c-3.11,0-3.53,7.93-.17,7.93A40.83,40.83,0,0,0,214.61,362.28Z" transform="translate(305.76 -338.55)"/><path class="cls-1" d="M228.27,358.88c-1.32.06-.1-2.94-2.21-2.72-.46,0-1.22,1.87-1.22,5.55,0,0,0,6.33-.21,8.58-.09,1-.25,1.32-.55,1.32s-.81,0-.89-1.69c-.16-2.95-.25-6.85-.14-9.91a3.27,3.27,0,0,1,0-.44h0V354.4a1,1,0,0,1,1-1c.77,0,.58,1.22.58,1.22v.67a2.1,2.1,0,0,1,1.34-.94C229.26,354,229.27,358.64,228.27,358.88Z" transform="translate(305.76 -338.55)"/><path class="cls-1" d="M235.71,353.59c.92,0,1.11,1.16,1.11,1.28,0,.29-.27,1.19-1,1.19a1.15,1.15,0,0,1-1.21-1.25A1.12,1.12,0,0,1,235.71,353.59Zm.8,6.1c.36,2.67,0,7.89-.14,10.95,0,.71-.38,1.11-.65,1.11s-.75-.32-.87-1c-.45-2.31,0-7.89,0-11,0-.84.5-1.31.86-1.31S236.4,358.9,236.51,359.69Z" transform="translate(305.76 -338.55)"/><path class="cls-1" d="M246.9,347c0,1.22-.14,6.12-.14,6.3s.44,0,1.23.12c.52.06,1.23.08,1.24,1.06,0,.58-.91.71-1.23.71l-1.34,0c0,.82,0,14.29.06,14.61,0,.66.09,1.78-.86,1.78a1,1,0,0,1-.91-.95c0-.3,0-14.45,0-15.45-.58,0-.79,0-1.26.05-.25,0-1.15-.15-1.19-.82a1,1,0,0,1,1.15-1c1,0,1.1.1,1.27-.1a60.73,60.73,0,0,1,.12-6.46s0-2.15,1-2.15S246.9,345.54,246.9,347Z" transform="translate(305.76 -338.55)"/><path class="cls-1" d="M259,371.65c-3.64,0-4.71-1.6-4.71-5.13,0-2.83.52-5.89,3.93-6h0c0-3.59-.18-5.06-.65-5.1-2.1-.21-1.1,3.1-2.42,3.05-1-.24-.75-5.22,2.53-4.9,1.51.15,2.39,2.55,2.32,4.59C260.15,362.2,260.13,371.4,259,371.65Zm-.8-9.37h0v-.07a.38.38,0,0,0,0-.1c-3.11,0-3.53,7.93-.17,7.93A40.83,40.83,0,0,0,258.17,362.28Z" transform="translate(305.76 -338.55)"/><path class="cls-1" d="M272.52,368.08c0,1.88-.88,3.57-2.67,3.57-2.12,0-3.22-1.53-3.22-4.5,0-.77.41-1.61.8-1.58s.79.75.79,1.37c0,2.12.53,2.8,1.53,2.81s1.19-1.45,1-2.71c-.35-2.81-4.24-4.76-4.24-9.86,0-1.89.88-3.58,2.67-3.58,2.57,0,3.23,2,3.23,4.87,0,.77-.42,1.24-.8,1.22s-.79-.76-.79-1.37c0-1.56-.18-2.44-1.17-2.46-1.17-.13-1.62,1.78-1.17,3.82S272.53,363.63,272.52,368.08Z" transform="translate(305.76 -338.55)"/><path class="cls-1" d="M281.63,354.64c0,6-.15,14.61,1.81,14.61,2.12,0,1.52-8.1,1.52-14,0-1.26.84-1.59,1.12-1.58s.69.61.69,1.43v12c0,3.36-1.95,4.62-3.61,4.62-1.05,0-3.33-1.08-3.33-5.52,0-2.62-.12-11.61-.12-11.61C280.16,353.15,281.48,353.33,281.63,354.64Z" transform="translate(305.76 -338.55)"/><path class="cls-1" d="M296.7,353.59c1.65,0,3.61,1.26,3.61,4.62v12c0,.82-.35,1.4-.69,1.42s-1.12-.31-1.12-1.57c0-5.89.6-14-1.53-14-2,0-1.8,8.64-1.8,14.61-.16,1.31-1.48,1.49-1.92,0,0,0,.12-9,.12-11.61C293.37,354.67,295.65,353.59,296.7,353.59Z" transform="translate(305.76 -338.55)"/><path class="cls-1" d="M310.78,371.65c-3.65,0-4.72-1.6-4.72-5.13,0-2.83.52-5.89,3.93-6h0c0-3.59-.18-5.06-.64-5.1-2.11-.21-1.11,3.1-2.43,3.05-1-.24-.75-5.22,2.53-4.9,1.51.15,2.4,2.55,2.33,4.59C312,362.2,311.93,371.4,310.78,371.65Zm-.81-9.37h0a.15.15,0,0,1,0-.07.31.31,0,0,1,0-.1c-3.12,0-3.54,7.93-.18,7.93A40,40,0,0,0,310,362.28Z" transform="translate(305.76 -338.55)"/><path class="cls-1" d="M327.59,349.13c1.43,0,1.86,1.29,1.86,2.36a2.47,2.47,0,0,1-2,2.37c-1.4,0-1.94-1.27-1.94-2.36A2.26,2.26,0,0,1,327.59,349.13Zm.7,22.37c-.44-.13-.83-1-.46-2.27.21-.75,5.91-21.1,6.52-22.87.37-1.3,1-2.23,1.94-2,1.18.33.63,1.94.43,2.59-1,3.28-6.31,21.6-6.69,22.95S328.82,371.65,328.29,371.5Zm9.18-10.07c1.43,0,1.86,1.3,1.86,2.36a2.48,2.48,0,0,1-2,2.38c-1.4,0-1.93-1.28-1.93-2.36A2.25,2.25,0,0,1,337.47,361.43Z" transform="translate(305.76 -338.55)"/><path class="cls-1" d="M353.52,357.59c0,5.56-1.93,14-5.41,14.12a1.22,1.22,0,0,1-1.57-1.09c0-.9,1.18-1.1,1.89-1.89,2.94-3.27,2.76-8,2.76-11.4,0-3.94-.3-7.8-2.26-9.77-.55-.55-1.87-.64-1.87-1.62,0-.69.3-1.26,1.32-1.26C351.76,344.68,353.52,351.67,353.52,357.59Z" transform="translate(305.76 -338.55)"/><path class="cls-1" d="M381.7,357.35c0,1.22-1.63,1.13-2.28,1.11-1.07,0-2.31,0-3.54,0,0,1.6.06,2.95.06,3.56,0,1.44-.69,1.9-1.24,1.9s-1.06-.67-1.06-2c0-.32,0-1.76,0-3.46-1.73,0-3.2.08-3.85.08-1.44,0-1.91-.7-1.91-1.25s.68-1.06,2-1.06h3.79c0-1.62,0-3.12.07-3.83,0-1.3.11-2.34,1-2.34,1.22,0,1.13,1.64,1.11,2.29,0,1.16,0,2.53,0,3.88,1.5,0,2.87,0,3.53.07C380.67,356.31,381.7,356.43,381.7,357.35Z" transform="translate(305.76 -338.55)"/><path class="cls-1" d="M402.57,345.94c0,1-1.32,1.07-1.87,1.62-2,2-2.26,5.83-2.26,9.77,0,3.41-.18,8.13,2.76,11.4.71.79,1.89,1,1.89,1.89a1.22,1.22,0,0,1-1.57,1.09c-3.48-.16-5.41-8.56-5.41-14.12,0-5.92,1.76-12.91,5.14-12.91C402.26,344.68,402.57,345.25,402.57,345.94Z" transform="translate(305.76 -338.55)"/><path class="cls-1" d="M412.24,358.79c3.57,0,4.87,4.64,4.82,6.57-.12,4.14-2.45,6.44-5.08,6.44-1.74-.16-1.49-3-1.66-11.89-.06-2.92,0-12.58.05-13.37s.19-1.59,1-1.59c.52,0,.92.67.92,2C412.26,347.55,412.2,356.27,412.24,358.79Zm.2,1.85a54.82,54.82,0,0,0,.17,9.28C416,369.71,416.18,360.64,412.44,360.64Z" transform="translate(305.76 -338.55)"/><path class="cls-1" d="M426.69,353.59c2,0,3.61,5,2.57,8-.45.67-3.32.33-4.36.36-.77.09-.54,7.46,1.66,7.8,1.8-.25.54-3.85,2.44-3.68,1.47.13-.05,5.65-2.43,5.65-3.74,0-3.74-6.54-3.74-8.81C422.83,359,424.18,353.59,426.69,353.59Zm-1.43,6.63c.72.07,1.95.14,2.74.17.41.27.23-4.59-1.19-4.8C425.39,355.59,424.45,360.12,425.26,360.22Z" transform="translate(305.76 -338.55)"/><path class="cls-1" d="M442,368.08c0,1.88-.87,3.57-2.67,3.57-2.12,0-3.22-1.53-3.22-4.5,0-.77.42-1.61.8-1.58s.79.75.79,1.37c0,2.12.53,2.8,1.53,2.81s1.2-1.45,1-2.71c-.36-2.81-4.24-4.76-4.24-9.86,0-1.89.87-3.58,2.67-3.58,2.56,0,3.22,2,3.22,4.87,0,.77-.42,1.24-.8,1.22s-.79-.76-.79-1.37c0-1.56-.18-2.44-1.17-2.46-1.17-.13-1.61,1.78-1.17,3.82S442.05,363.63,442,368.08Z" transform="translate(305.76 -338.55)"/><path class="cls-1" d="M452.24,347c0,1.22-.13,6.12-.14,6.3s.44,0,1.24.12c.51.06,1.22.08,1.23,1.06,0,.58-.91.71-1.23.71l-1.34,0c0,.82,0,14.29.06,14.61,0,.66.09,1.78-.86,1.78a1,1,0,0,1-.91-.95c0-.3,0-14.45-.05-15.45-.58,0-.78,0-1.26.05-.25,0-1.15-.15-1.19-.82a1,1,0,0,1,1.15-1c1,0,1.1.1,1.27-.1a60.73,60.73,0,0,1,.12-6.46s0-2.15,1-2.15S452.24,345.54,452.24,347Z" transform="translate(305.76 -338.55)"/><path class="cls-1" d="M464.2,353.59c2,0,3.61,5,2.57,8-.45.67-3.31.33-4.36.36-.77.09-.54,7.46,1.66,7.8,1.8-.25.54-3.85,2.44-3.68,1.47.13-.05,5.65-2.43,5.65-3.74,0-3.74-6.54-3.74-8.81C460.34,359,461.69,353.59,464.2,353.59Zm-1.43,6.63c.72.07,2,.14,2.74.17.41.27.23-4.59-1.18-4.8C462.9,355.59,462,360.12,462.77,360.22Z" transform="translate(305.76 -338.55)"/><path class="cls-1" d="M481.88,353.59c.91,0,1.11,1.16,1.11,1.28,0,.29-.28,1.19-1,1.19a1.15,1.15,0,0,1-1.21-1.25A1.12,1.12,0,0,1,481.88,353.59Zm.79,6.1c.36,2.67,0,7.89-.14,10.95,0,.71-.37,1.11-.65,1.11s-.74-.32-.87-1c-.45-2.31,0-7.89.05-11,0-.84.5-1.31.86-1.31S482.57,358.9,482.67,359.69Z" transform="translate(305.76 -338.55)"/><path class="cls-1" d="M496,368.08c0,1.88-.87,3.57-2.67,3.57-2.12,0-3.22-1.53-3.22-4.5,0-.77.42-1.61.8-1.58s.79.75.79,1.37c0,2.12.53,2.8,1.53,2.81s1.2-1.45,1-2.71c-.36-2.81-4.24-4.76-4.24-9.86,0-1.89.87-3.58,2.67-3.58,2.56,0,3.22,2,3.22,4.87,0,.77-.42,1.24-.8,1.22s-.79-.76-.79-1.37c0-1.56-.18-2.44-1.17-2.46-1.17-.13-1.61,1.78-1.17,3.82S496.05,363.63,496,368.08Z" transform="translate(305.76 -338.55)"/><path class="cls-1" d="M505.42,371.42c-1.72,0-2.23-1.18-2.54-2.94a55,55,0,0,1-.36-6.28c.08-.76-.33-8.86,3-8.86,3,0,3.26,4.6,3.23,9.24,0,4.36-.23,4.77-.58,6.21S506.82,371.42,505.42,371.42Zm-1-8.83c-.17,5.61.07,6.68,1.25,6.67,1.58,0,1.34-7.05,1.34-7.05s.33-6.56-1.13-6.54C504.87,355.56,504.55,356.86,504.38,362.59Z" transform="translate(305.76 -338.55)"/><path class="cls-1" d="M518.19,347c0,1.22-.13,6.12-.14,6.3s.45,0,1.24.12c.51.06,1.22.08,1.23,1.06,0,.58-.91.71-1.23.71l-1.34,0c0,.82,0,14.29.06,14.61,0,.66.09,1.78-.86,1.78a1,1,0,0,1-.9-.95c0-.3,0-14.45-.06-15.45-.58,0-.78,0-1.26.05-.25,0-1.15-.15-1.19-.82a1,1,0,0,1,1.16-1c1,0,1.09.1,1.27-.1a55.76,55.76,0,0,1,.12-6.46s0-2.15,1-2.15S518.19,345.54,518.19,347Z" transform="translate(305.76 -338.55)"/><path class="cls-1" d="M528.46,371.42c-1.72,0-2.23-1.18-2.54-2.94a52.75,52.75,0,0,1-.36-6.28c.08-.76-.33-8.86,3-8.86,3,0,3.26,4.6,3.22,9.24,0,4.36-.22,4.77-.57,6.21S529.86,371.42,528.46,371.42Zm-1.05-8.83c-.17,5.61.08,6.68,1.26,6.67,1.58,0,1.33-7.05,1.33-7.05s.33-6.56-1.12-6.54C527.91,355.56,527.59,356.86,527.41,362.59Z" transform="translate(305.76 -338.55)"/><path class="cls-1" d="M539.27,381c-1.12,0-1-1.09-1-3.11,0-.27-.06-11.74,0-12.07.17-8.9-.08-11.73,1.66-11.89,4.12,0,5,4.46,5.08,8.6,0,1.93-.41,9.09-4.81,9.09C540,373,540,377,540,378.53,540,379.36,540.29,381,539.27,381Zm1.07-11.23c3.74,0,3.6-13.75.18-14A121.26,121.26,0,0,0,540.34,369.79Z" transform="translate(305.76 -338.55)"/><path class="cls-1" d="M553.62,371.42c-1.72,0-2.23-1.18-2.54-2.94a55,55,0,0,1-.36-6.28c.08-.76-.32-8.86,3-8.86,3,0,3.27,4.6,3.23,9.24,0,4.36-.23,4.77-.58,6.21S555,371.42,553.62,371.42Zm-1-8.83c-.17,5.61.07,6.68,1.25,6.67,1.59,0,1.34-7.05,1.34-7.05s.33-6.56-1.13-6.54C553.07,355.56,552.75,356.86,552.58,362.59Z" transform="translate(305.76 -338.55)"/><path class="cls-1" d="M572.55,358.79c3.56,0,4.87,4.64,4.81,6.57-.12,4.14-2.45,6.44-5.07,6.44-1.75-.16-1.49-3-1.67-11.89-.06-2.92,0-12.58,0-13.37s.2-1.59,1-1.59c.52,0,.92.67.92,2C572.57,347.55,572.5,356.27,572.55,358.79Zm.2,1.85a52.82,52.82,0,0,0,.17,9.28C576.34,369.71,576.48,360.64,572.75,360.64Z" transform="translate(305.76 -338.55)"/><path class="cls-1" d="M587.11,371.65c-3.65,0-4.72-1.6-4.72-5.13,0-2.83.53-5.89,3.94-6h0c0-3.59-.18-5.06-.64-5.1-2.11-.21-1.11,3.1-2.43,3.05-1-.24-.75-5.22,2.53-4.9,1.51.15,2.4,2.55,2.33,4.59C588.28,362.2,588.26,371.4,587.11,371.65Zm-.81-9.37h0s0-.05,0-.07a.31.31,0,0,1,0-.1c-3.12,0-3.54,7.93-.18,7.93A40,40,0,0,0,586.3,362.28Z" transform="translate(305.76 -338.55)"/><path class="cls-1" d="M597.67,347c0,1.22-.13,6.12-.13,6.3s.44,0,1.23.12c.52.06,1.23.08,1.23,1.06,0,.58-.9.71-1.22.71l-1.34,0c0,.82,0,14.29.06,14.61,0,.66.09,1.78-.86,1.78a1,1,0,0,1-.91-.95c0-.3,0-14.45-.05-15.45-.58,0-.79,0-1.26.05-.25,0-1.16-.15-1.19-.82a1,1,0,0,1,1.15-1c1,0,1.09.1,1.27-.1a60.73,60.73,0,0,1,.12-6.46s0-2.15,1-2.15S597.67,345.54,597.67,347Z" transform="translate(305.76 -338.55)"/><path class="cls-1" d="M609.64,353.59c2,0,3.61,5,2.57,8-.45.67-3.32.33-4.36.36-.77.09-.54,7.46,1.66,7.8,1.8-.25.54-3.85,2.43-3.68,1.48.13,0,5.65-2.42,5.65-3.74,0-3.74-6.54-3.74-8.81C605.78,359,607.13,353.59,609.64,353.59Zm-1.43,6.63c.72.07,1.95.14,2.74.17.41.27.23-4.59-1.19-4.8C608.34,355.59,607.4,360.12,608.21,360.22Z" transform="translate(305.76 -338.55)"/><path class="cls-1" d="M621.74,353.59c1.65,0,3.61,1.26,3.61,4.62v12c0,.82-.35,1.4-.69,1.42s-1.12-.31-1.12-1.57c0-5.89.6-14-1.53-14-2,0-1.8,8.64-1.8,14.61-.16,1.31-1.48,1.49-1.92,0,0,0,.12-9,.12-11.61C618.41,354.67,620.68,353.59,621.74,353.59Z" transform="translate(305.76 -338.55)"/><path class="cls-1" d="M646.73,369.69c-.11.49.13,1.85-1.07,1.85a1,1,0,0,1-.93-.94c0-.4-.11-10.87-.1-11.43.06-5.53-.88-.84-.88-.84-.09,1.78-.47,2.58-.83,2.57-.75,0-.7-1.27-.95-2.5,0,0-.69-4.92-.75.5l-.15,10.79c-.11.49.13,1.85-1.07,1.85a1,1,0,0,1-.93-1c-.08-.73.07-14.17.07-14.17-.1-1.71.88-2.94,1.53-2.94,1.66,0,2.29,2,2.33,3.16,0-1,.59-3.14,2.5-3.14.71,0,1.38,1.62,1.38,2.92C646.88,356.42,646.65,369.23,646.73,369.69Z" transform="translate(305.76 -338.55)"/><path class="cls-1" d="M658.06,371.65c-3.64,0-4.71-1.6-4.71-5.13,0-2.83.52-5.89,3.93-6h0c0-3.59-.18-5.06-.65-5.1-2.1-.21-1.11,3.1-2.43,3.05-1-.24-.75-5.22,2.54-4.9,1.51.15,2.39,2.55,2.32,4.59C659.24,362.2,659.22,371.4,658.06,371.65Zm-.8-9.37h0v-.07a.38.38,0,0,0,0-.1c-3.11,0-3.53,7.93-.17,7.93A40.83,40.83,0,0,0,657.26,362.28Z" transform="translate(305.76 -338.55)"/><path class="cls-1" d="M671.61,368.08c0,1.88-.88,3.57-2.67,3.57-2.12,0-3.22-1.53-3.22-4.5,0-.77.41-1.61.8-1.58s.79.75.78,1.37c0,2.12.54,2.8,1.53,2.81s1.2-1.45,1-2.71c-.35-2.81-4.24-4.76-4.24-9.86,0-1.89.88-3.58,2.67-3.58,2.57,0,3.22,2,3.22,4.87,0,.77-.41,1.24-.8,1.22s-.78-.76-.78-1.37c0-1.56-.18-2.44-1.17-2.46-1.18-.13-1.62,1.78-1.17,3.82S671.62,363.63,671.61,368.08Z" transform="translate(305.76 -338.55)"/><path class="cls-1" d="M682.79,371.65c-3.64,0-4.71-1.6-4.71-5.13,0-2.83.52-5.89,3.93-6h0c0-3.59-.18-5.06-.65-5.1-2.1-.21-1.1,3.1-2.42,3.05-1-.24-.75-5.22,2.53-4.9,1.51.15,2.39,2.55,2.33,4.59C684,362.2,684,371.4,682.79,371.65Zm-.8-9.37h0v-.07a.38.38,0,0,0,0-.1c-3.11,0-3.53,7.93-.17,7.93A40.83,40.83,0,0,0,682,362.28Z" transform="translate(305.76 -338.55)"/><path class="cls-1" d="M697.35,357.59c0,5.56-1.93,14-5.41,14.12a1.22,1.22,0,0,1-1.57-1.09c0-.9,1.18-1.1,1.89-1.89,2.94-3.27,2.76-8,2.76-11.4,0-3.94-.3-7.8-2.26-9.77-.55-.55-1.87-.64-1.87-1.62,0-.69.3-1.26,1.32-1.26C695.59,344.68,697.35,351.67,697.35,357.59Z" transform="translate(305.76 -338.55)"/><path class="cls-1" d="M709.7,362.21a2.15,2.15,0,0,1,2.16-2.26,2.27,2.27,0,1,1-2.16,2.26Z" transform="translate(305.76 -338.55)"/><path class="cls-1" d="M732.83,345.94c0,1-1.32,1.07-1.87,1.62-2,2-2.27,5.83-2.27,9.77,0,3.41-.17,8.13,2.77,11.4.71.79,1.89,1,1.89,1.89a1.22,1.22,0,0,1-1.57,1.09c-3.48-.16-5.41-8.56-5.41-14.12,0-5.92,1.76-12.91,5.14-12.91C732.52,344.68,732.83,345.25,732.83,345.94Z" transform="translate(305.76 -338.55)"/><path class="cls-1" d="M742.46,354.64c0,6-.15,14.61,1.8,14.61,2.13,0,1.53-8.1,1.53-14,0-1.26.84-1.59,1.12-1.58s.69.61.69,1.43v12c0,3.36-2,4.62-3.61,4.62-1,0-3.33-1.08-3.33-5.52,0-2.62-.12-11.61-.12-11.61C741,353.15,742.31,353.33,742.46,354.64Z" transform="translate(305.76 -338.55)"/><path class="cls-1" d="M761.48,377.84c-.33,1.88-.87,3.12-2.69,3.12-2.87,0-3.68-2.69-3.27-5.66.1-.77.42-1.26.81-1.23s.8.76.8,1.38c0,2.14.18,3.21,1.19,3.23,1.19.14,1.49-1.67,1.49-4.42h0c0-.36-.06-1.29-.21-2.69-4.43,0-4.87-7.16-4.82-9.09.12-4.14,1-8.6,5.08-8.6,1.74.16,1.49,3,1.66,11.89C761.54,366.1,761.53,377.57,761.48,377.84Zm-2.25-22.08c-3.42.21-3.56,14,.18,14A121.26,121.26,0,0,0,759.23,355.76Z" transform="translate(305.76 -338.55)"/><path class="cls-1" d="M772.72,371.65c-3.64,0-4.71-1.6-4.71-5.13,0-2.83.52-5.89,3.93-6h0c0-3.59-.18-5.06-.65-5.1-2.11-.21-1.11,3.1-2.43,3.05-1-.24-.75-5.22,2.54-4.9,1.5.15,2.39,2.55,2.32,4.59C773.9,362.2,773.88,371.4,772.72,371.65Zm-.8-9.37h0v-.07a.38.38,0,0,0,0-.1c-3.12,0-3.54,7.93-.17,7.93A40.83,40.83,0,0,0,771.92,362.28Z" transform="translate(305.76 -338.55)"/><path class="cls-1" d="M785.58,358.88c-1.33.06-.1-2.94-2.21-2.72-.47,0-1.23,1.87-1.23,5.55,0,0,0,6.33-.21,8.58-.09,1-.25,1.32-.54,1.32s-.81,0-.9-1.69c-.15-2.95-.25-6.85-.13-9.91a3.23,3.23,0,0,1,0-.44h0V354.4a1,1,0,0,1,1-1c.77,0,.59,1.22.59,1.22v.67a2.11,2.11,0,0,1,1.35-.94C786.56,354,786.58,358.64,785.58,358.88Z" transform="translate(305.76 -338.55)"/><path class="cls-1" d="M793,353.59c.91,0,1.11,1.16,1.11,1.28,0,.29-.28,1.19-1,1.19a1.15,1.15,0,0,1-1.21-1.25A1.12,1.12,0,0,1,793,353.59Zm.79,6.1c.36,2.67,0,7.89-.14,10.95,0,.71-.37,1.11-.64,1.11s-.75-.32-.88-1c-.45-2.31,0-7.89.05-11,0-.84.5-1.31.86-1.31S793.71,358.9,793.81,359.69Z" transform="translate(305.76 -338.55)"/><path class="cls-1" d="M804.2,347c0,1.22-.13,6.12-.14,6.3s.45,0,1.24.12c.52.06,1.23.08,1.23,1.06,0,.58-.9.71-1.22.71l-1.34,0c0,.82,0,14.29.06,14.61,0,.66.09,1.78-.86,1.78a1,1,0,0,1-.91-.95c0-.3,0-14.45,0-15.45-.58,0-.79,0-1.26.05-.25,0-1.16-.15-1.19-.82a1,1,0,0,1,1.15-1c1,0,1.09.1,1.27-.1a60.73,60.73,0,0,1,.12-6.46s0-2.15,1-2.15S804.2,345.54,804.2,347Z" transform="translate(305.76 -338.55)"/><path class="cls-1" d="M816.28,371.65c-3.65,0-4.71-1.6-4.71-5.13,0-2.83.52-5.89,3.93-6h0c0-3.59-.17-5.06-.64-5.1-2.11-.21-1.11,3.1-2.43,3.05-1-.24-.75-5.22,2.54-4.9,1.5.15,2.39,2.55,2.32,4.59C817.46,362.2,817.44,371.4,816.28,371.65Zm-.8-9.37h0a.2.2,0,0,0,0-.07s0-.06,0-.1c-3.12,0-3.54,7.93-.17,7.93A40.83,40.83,0,0,0,815.48,362.28Z" transform="translate(305.76 -338.55)"/><path class="cls-1" d="M829.83,368.08c0,1.88-.88,3.57-2.67,3.57-2.13,0-3.23-1.53-3.23-4.5,0-.77.42-1.61.8-1.58s.79.75.79,1.37c0,2.12.54,2.8,1.53,2.81s1.2-1.45,1-2.71c-.36-2.81-4.24-4.76-4.24-9.86,0-1.89.88-3.58,2.67-3.58,2.56,0,3.22,2,3.22,4.87,0,.77-.42,1.24-.8,1.22s-.79-.76-.79-1.37c0-1.56-.17-2.44-1.17-2.46-1.17-.13-1.61,1.78-1.17,3.82S829.84,363.63,829.83,368.08Z" transform="translate(305.76 -338.55)"/><path class="cls-1" d="M838.94,354.64c0,6-.15,14.61,1.8,14.61,2.13,0,1.53-8.1,1.53-14,0-1.26.84-1.59,1.12-1.58s.69.61.69,1.43v12c0,3.36-2,4.62-3.61,4.62-1.05,0-3.33-1.08-3.33-5.52,0-2.62-.12-11.61-.12-11.61C837.46,353.15,838.78,353.33,838.94,354.64Z" transform="translate(305.76 -338.55)"/><path class="cls-1" d="M854,353.59c1.65,0,3.61,1.26,3.61,4.62v12c0,.82-.35,1.4-.7,1.42s-1.11-.31-1.11-1.57c0-5.89.6-14-1.53-14-1.95,0-1.81,8.64-1.81,14.61-.15,1.31-1.47,1.49-1.92,0,0,0,.13-9,.13-11.61C850.68,354.67,853,353.59,854,353.59Z" transform="translate(305.76 -338.55)"/><path class="cls-1" d="M868.08,371.65c-3.64,0-4.71-1.6-4.71-5.13,0-2.83.52-5.89,3.93-6h0c0-3.59-.18-5.06-.65-5.1-2.1-.21-1.11,3.1-2.43,3.05-1-.24-.75-5.22,2.54-4.9,1.51.15,2.39,2.55,2.32,4.59C869.26,362.2,869.24,371.4,868.08,371.65Zm-.8-9.37h0v-.07a.38.38,0,0,0,0-.1c-3.12,0-3.53,7.93-.17,7.93A40.83,40.83,0,0,0,867.28,362.28Z" transform="translate(305.76 -338.55)"/><path class="cls-1" d="M884.9,349.13c1.42,0,1.86,1.29,1.86,2.36a2.48,2.48,0,0,1-2,2.37c-1.41,0-1.94-1.27-1.94-2.36A2.26,2.26,0,0,1,884.9,349.13Zm.7,22.37c-.44-.13-.83-1-.47-2.27.21-.75,5.91-21.1,6.53-22.87.36-1.3,1.05-2.23,1.94-2,1.17.33.63,1.94.42,2.59-1,3.28-6.31,21.6-6.69,22.95S886.13,371.65,885.6,371.5Zm9.18-10.07c1.43,0,1.86,1.3,1.86,2.36a2.48,2.48,0,0,1-2,2.38c-1.4,0-1.94-1.28-1.94-2.36A2.26,2.26,0,0,1,894.78,361.43Z" transform="translate(305.76 -338.55)"/><path class="cls-1" d="M910.82,357.59c0,5.56-1.93,14-5.41,14.12a1.22,1.22,0,0,1-1.57-1.09c0-.9,1.19-1.1,1.9-1.89,2.93-3.27,2.76-8,2.76-11.4,0-3.94-.3-7.8-2.26-9.77-.55-.55-1.87-.64-1.87-1.62,0-.69.3-1.26,1.31-1.26C909.06,344.68,910.82,351.67,910.82,357.59Z" transform="translate(305.76 -338.55)"/><path class="cls-1" d="M-132.59,398.57c0-.45.67-1.06,2-1.06.75,0,7,0,8.81.07,1.29,0,2.33.12,2.33,1,0,1.22-1.63,1.14-2.28,1.11-3.31-.09-7.58.09-8.92.09S-132.59,399.12-132.59,398.57Zm0,5c0-.46.67-1.06,2-1.06.75,0,7,0,8.81.07,1.29,0,2.33.11,2.33,1,0,1.22-1.63,1.13-2.28,1.11-3.31-.1-7.58.08-8.92.08S-132.59,404.14-132.59,403.59Z" transform="translate(305.76 -338.55)"/><path class="cls-1" d="M382.43,426.79c-.38,0-.81-.23-.89-.89s0-22.84.06-24.64c.08-1.15.35-1.62,1.12-1.62,1,0,1,1.64.94,2.29-.08,3.3-.26,22.49-.18,22.95C383.67,426.7,382.5,426.78,382.43,426.79Z" transform="translate(305.76 -338.55)"/><path class="cls-1" d="M393.9,426.59c-1.79,0-2.32-1.23-2.64-3.07-.24-1.35-.44-10.09-.38-10.69.08-.79-.34-13,3.13-13a2.71,2.71,0,0,1,2.92,2.54c.34,1.17.49,6,.45,10.87a71.32,71.32,0,0,1-.61,10.61C396.39,425.43,395.37,426.59,393.9,426.59Zm-1.08-13.35c-.18,5.86.05,11.39,1.55,11.1,1.68.34,1.15-11.5,1.15-11.5s.48-10.57-1.17-10.59C393.33,402.14,393,407.26,392.82,413.24Z" transform="translate(305.76 -338.55)"/><path class="cls-1" d="M407.62,426.59c-1.79,0-2.32-1.23-2.65-3.07-.23-1.35-.44-10.09-.38-10.69.09-.79-.34-13,3.13-13a2.72,2.72,0,0,1,2.93,2.54c.34,1.17.48,6,.44,10.87a70.32,70.32,0,0,1-.6,10.61C410.1,425.43,409.08,426.59,407.62,426.59Zm-1.09-13.35c-.18,5.86.06,11.39,1.55,11.1,1.69.34,1.16-11.5,1.16-11.5s.47-10.57-1.18-10.59C407.05,402.14,406.71,407.26,406.53,413.24Z" transform="translate(305.76 -338.55)"/><rect class="cls-1" x="229.76" y="51.7" width="991" height="4.75"/></svg>