<svg id="Capa_1" data-name="Capa 1" xmlns="http://www.w3.org/2000/svg" viewBox="0 0 547.13 652.59"><defs><style>.cls-1{fill:none;}.cls-1,.cls-2,.cls-3,.cls-4,.cls-5,.cls-6,.cls-7,.cls-9{stroke:#fff;stroke-miterlimit:10;stroke-width:2px;}.cls-2{fill:#1d71b8;}.cls-3{fill:#36a9e1;}.cls-4{fill:#662483;}.cls-5{fill:#a3195b;}.cls-6{fill:#e6007e;}.cls-7{fill:#e6332a;}.cls-8{fill:#fdfeff;}.cls-9{fill:#e94e1b;}</style></defs><title>konfigurazioa2</title><line class="cls-1" x1="16.83" y1="34.22" x2="16.83" y2="651.59"/><line class="cls-1" x1="42.1" y1="34.07" x2="42.1" y2="650.57"/><line class="cls-1" x1="16.83" y1="651.59" x2="42.1" y2="651.59"/><line class="cls-1" x1="16.83" y1="34.22" x2="0.75" y2="34.22"/><line class="cls-1" x1="58.19" y1="34.07" x2="42.1" y2="34.07"/><line class="cls-1" x1="0.75" y1="34.22" x2="30.77" y2="0.67"/><line class="cls-1" x1="58.19" y1="34.07" x2="30.77" y2="0.67"/><rect class="cls-2" x="75.53" y="626.18" width="25.41" height="25.41"/><rect class="cls-3" x="75.53" y="589.94" width="25.41" height="25.41"/><rect class="cls-3" x="163.17" y="559.23" width="25.41" height="25.41"/><rect class="cls-3" x="188.58" y="559.23" width="25.41" height="25.41"/><rect class="cls-3" x="213.99" y="558.92" width="25.41" height="25.41"/><rect class="cls-4" x="75.53" y="519.99" width="25.41" height="25.41"/><rect class="cls-4" x="163.17" y="489.44" width="25.41" height="25.41"/><rect class="cls-4" x="188.58" y="489.44" width="25.41" height="25.41"/><rect class="cls-4" x="213.99" y="489.13" width="25.41" height="25.41"/><rect class="cls-5" x="75.53" y="450.04" width="25.41" height="25.41"/><rect class="cls-5" x="163.17" y="390.02" width="25.41" height="25.41"/><rect class="cls-5" x="188.58" y="390.02" width="25.41" height="25.41"/><rect class="cls-5" x="213.99" y="389.71" width="25.41" height="25.41"/><rect class="cls-6" x="75.53" y="359.32" width="25.41" height="25.41"/><rect class="cls-7" x="163.17" y="146.34" width="25.41" height="25.41"/><rect class="cls-7" x="188.58" y="146.34" width="25.41" height="25.41"/><rect class="cls-7" x="213.99" y="146.03" width="25.41" height="25.41"/><rect class="cls-7" x="75.53" y="237.61" width="25.41" height="25.41"/><rect class="cls-6" x="163.17" y="272.2" width="25.41" height="25.41"/><rect class="cls-6" x="188.58" y="272.2" width="25.41" height="25.41"/><rect class="cls-6" x="213.99" y="271.89" width="25.41" height="25.41"/><rect class="cls-4" x="264.44" y="423.55" width="25.41" height="25.41"/><rect class="cls-4" x="289.85" y="423.55" width="25.41" height="25.41"/><rect class="cls-4" x="315.26" y="423.24" width="25.41" height="25.41"/><rect class="cls-4" x="340.67" y="423.55" width="25.41" height="25.41"/><rect class="cls-5" x="264.44" y="303.33" width="25.41" height="25.41"/><rect class="cls-5" x="289.85" y="303.33" width="25.41" height="25.41"/><rect class="cls-5" x="315.26" y="303.02" width="25.41" height="25.41"/><rect class="cls-5" x="340.67" y="303.33" width="25.41" height="25.41"/><rect class="cls-5" x="393.14" y="214.18" width="25.41" height="25.41"/><rect class="cls-5" x="418.55" y="214.18" width="25.41" height="25.41"/><rect class="cls-5" x="443.96" y="213.87" width="25.41" height="25.41"/><rect class="cls-5" x="469.37" y="214.18" width="25.41" height="25.41"/><rect class="cls-5" x="494.77" y="214.18" width="25.41" height="25.41"/><rect class="cls-6" x="271.18" y="174.19" width="25.41" height="25.41"/><rect class="cls-6" x="296.58" y="174.19" width="25.41" height="25.41"/><rect class="cls-6" x="321.99" y="173.88" width="25.41" height="25.41"/><rect class="cls-6" x="347.4" y="174.19" width="25.41" height="25.41"/><path class="cls-8" d="M297.94,582.79h-.05l-2.71,1.47-.41-1.61,3.41-1.83H300v15.6h-2Z" transform="translate(-179.72 51.45)"/><path class="cls-8" d="M306.05,594.26a5.55,5.55,0,0,0,2.79.84c1.53,0,2.25-.76,2.25-1.72s-.6-1.56-2.16-2.14c-2.09-.74-3.07-1.9-3.07-3.29,0-1.87,1.51-3.41,4-3.41a5.81,5.81,0,0,1,2.85.72l-.52,1.54a4.53,4.53,0,0,0-2.38-.67c-1.25,0-1.94.72-1.94,1.58s.69,1.39,2.2,2c2,.77,3.05,1.78,3.05,3.5,0,2-1.58,3.49-4.34,3.49a6.67,6.67,0,0,1-3.27-.8Z" transform="translate(-179.72 51.45)"/><path class="cls-8" d="M293.36,557.85v-1.3L295,555c4-3.8,5.79-5.81,5.81-8.16a2.78,2.78,0,0,0-3.09-3,5.33,5.33,0,0,0-3.32,1.32l-.67-1.49a6.87,6.87,0,0,1,4.42-1.58,4.38,4.38,0,0,1,4.77,4.53c0,2.88-2.09,5.21-5.37,8.38l-1.25,1.15v.05h7v1.75Z" transform="translate(-179.72 51.45)"/><path class="cls-8" d="M306.05,555.69a5.55,5.55,0,0,0,2.79.84c1.53,0,2.25-.77,2.25-1.73s-.6-1.56-2.16-2.13c-2.09-.75-3.07-1.9-3.07-3.29,0-1.87,1.51-3.41,4-3.41a5.81,5.81,0,0,1,2.85.72l-.52,1.54a4.52,4.52,0,0,0-2.38-.68c-1.25,0-1.94.72-1.94,1.59s.69,1.39,2.2,2c2,.76,3.05,1.77,3.05,3.5,0,2-1.58,3.48-4.34,3.48a6.67,6.67,0,0,1-3.27-.79Z" transform="translate(-179.72 51.45)"/><path class="cls-8" d="M430.69,526.83v-1.29l1.66-1.61c4-3.79,5.78-5.81,5.81-8.16a2.79,2.79,0,0,0-3.1-3,5.3,5.3,0,0,0-3.31,1.32l-.67-1.49a6.84,6.84,0,0,1,4.41-1.58,4.39,4.39,0,0,1,4.78,4.54c0,2.88-2.09,5.2-5.38,8.37L433.64,525v0h7v1.75Z" transform="translate(-179.72 51.45)"/><path class="cls-8" d="M443.67,519c0-1.49,0-2.69-.09-3.79h1.9l.09,2h.05a4.56,4.56,0,0,1,4.13-2.26c2.81,0,4.92,2.38,4.92,5.91,0,4.18-2.55,6.24-5.28,6.24a4.07,4.07,0,0,1-3.58-1.83h-.05v6.32h-2.09Zm2.09,3.1a4.51,4.51,0,0,0,.1.86,3.26,3.26,0,0,0,3.17,2.47c2.23,0,3.53-1.82,3.53-4.49,0-2.32-1.23-4.32-3.46-4.32a3.38,3.38,0,0,0-3.19,2.62,3.1,3.1,0,0,0-.15.86Z" transform="translate(-179.72 51.45)"/><path class="cls-8" d="M297.11,485.48a7.1,7.1,0,0,0,3.46,1c2.71,0,3.55-1.73,3.53-3,0-2.19-2-3.12-4-3.12h-1.17v-1.59h1.17c1.54,0,3.48-.79,3.48-2.64,0-1.25-.79-2.35-2.73-2.35a5.72,5.72,0,0,0-3.12,1l-.55-1.53a7.4,7.4,0,0,1,4.08-1.2c3.07,0,4.46,1.82,4.46,3.72a3.88,3.88,0,0,1-2.88,3.67v.05a4.06,4.06,0,0,1,3.48,4c0,2.49-1.94,4.68-5.69,4.68a7.92,7.92,0,0,1-4-1.06Z" transform="translate(-179.72 51.45)"/><path class="cls-8" d="M309.3,485.74a5.55,5.55,0,0,0,2.79.84c1.53,0,2.25-.77,2.25-1.73s-.6-1.56-2.16-2.13c-2.08-.75-3.07-1.9-3.07-3.29,0-1.87,1.51-3.41,4-3.41a5.85,5.85,0,0,1,2.86.72l-.53,1.54a4.52,4.52,0,0,0-2.38-.68c-1.25,0-1.94.72-1.94,1.59s.69,1.39,2.21,2c2,.76,3,1.77,3,3.5,0,2-1.58,3.48-4.34,3.48a6.6,6.6,0,0,1-3.26-.79Z" transform="translate(-179.72 51.45)"/><path class="cls-8" d="M299.88,418V413.7h-7.24v-1.39l7-10h2.28v9.7h2.18v1.65h-2.18V418Zm0-5.9v-5.21c0-.82,0-1.63.08-2.45h-.08c-.47.91-.86,1.59-1.29,2.31l-3.82,5.3v.05Z" transform="translate(-179.72 51.45)"/><path class="cls-8" d="M306.05,415.79a5.55,5.55,0,0,0,2.79.84c1.53,0,2.25-.77,2.25-1.73s-.6-1.56-2.16-2.13c-2.09-.75-3.07-1.9-3.07-3.29,0-1.87,1.51-3.41,4-3.41a5.81,5.81,0,0,1,2.85.72l-.52,1.54a4.53,4.53,0,0,0-2.38-.67c-1.25,0-1.94.72-1.94,1.58s.69,1.39,2.2,2c2,.77,3.05,1.77,3.05,3.5,0,2-1.58,3.48-4.34,3.48a6.67,6.67,0,0,1-3.27-.79Z" transform="translate(-179.72 51.45)"/><path class="cls-8" d="M433.42,454.62a7.1,7.1,0,0,0,3.46,1c2.71,0,3.55-1.73,3.52-3,0-2.19-2-3.12-4-3.12H435.2v-1.59h1.17c1.54,0,3.48-.79,3.48-2.64,0-1.24-.79-2.35-2.73-2.35a5.72,5.72,0,0,0-3.12,1l-.56-1.53a7.43,7.43,0,0,1,4.08-1.2c3.08,0,4.47,1.82,4.47,3.72a3.88,3.88,0,0,1-2.88,3.67v.05a4.06,4.06,0,0,1,3.48,4c0,2.49-1.95,4.68-5.69,4.68a8,8,0,0,1-4.06-1.06Z" transform="translate(-179.72 51.45)"/><path class="cls-8" d="M445.9,449.22c0-1.49,0-2.69-.1-3.8h1.9l.1,2h0a4.58,4.58,0,0,1,4.13-2.26c2.81,0,4.92,2.38,4.92,5.91,0,4.17-2.54,6.24-5.28,6.24a4.07,4.07,0,0,1-3.57-1.83H448v6.31H445.9Zm2.09,3.09a5.67,5.67,0,0,0,.09.87,3.27,3.27,0,0,0,3.17,2.47c2.23,0,3.53-1.82,3.53-4.49,0-2.33-1.22-4.32-3.46-4.32a3.37,3.37,0,0,0-3.19,2.62,3.44,3.44,0,0,0-.14.86Z" transform="translate(-179.72 51.45)"/><path class="cls-8" d="M436.57,357.94v-4.25h-7.25V352.3l7-10h2.28V352h2.19v1.66h-2.19v4.25Zm0-5.91v-5.21c0-.81,0-1.63.07-2.44h-.07c-.48.91-.87,1.58-1.3,2.3l-3.81,5.3v0Z" transform="translate(-179.72 51.45)"/><path class="cls-8" d="M443,350.11c0-1.49,0-2.69-.09-3.79h1.89l.1,2H445a4.57,4.57,0,0,1,4.13-2.25c2.8,0,4.92,2.37,4.92,5.9,0,4.18-2.55,6.24-5.28,6.24a4.08,4.08,0,0,1-3.58-1.82h-.05v6.31H443Zm2.09,3.1a4.51,4.51,0,0,0,.1.86,3.24,3.24,0,0,0,3.17,2.47c2.23,0,3.52-1.82,3.52-4.48,0-2.33-1.22-4.32-3.45-4.32a3.36,3.36,0,0,0-3.19,2.61,3.17,3.17,0,0,0-.15.87Z" transform="translate(-179.72 51.45)"/><path class="cls-8" d="M559.24,389a7,7,0,0,0,3.46,1c2.71,0,3.55-1.73,3.53-3,0-2.18-2-3.12-4-3.12H561V382.3h1.18c1.53,0,3.48-.79,3.48-2.64,0-1.25-.8-2.35-2.74-2.35a5.72,5.72,0,0,0-3.12,1l-.55-1.54a7.4,7.4,0,0,1,4.08-1.2c3.07,0,4.46,1.83,4.46,3.72a3.86,3.86,0,0,1-2.88,3.67V383a4.07,4.07,0,0,1,3.48,4c0,2.5-1.94,4.68-5.69,4.68a8,8,0,0,1-4.05-1.05Z" transform="translate(-179.72 51.45)"/><path class="cls-8" d="M581.76,374.43v14c0,1,0,2.21.09,3H580l-.1-2h-.05a4.29,4.29,0,0,1-4,2.28c-2.81,0-5-2.38-5-5.9,0-3.87,2.38-6.24,5.21-6.24a3.9,3.9,0,0,1,3.51,1.77h0v-6.93Zm-2.12,10.15a3.79,3.79,0,0,0-.09-.89,3.12,3.12,0,0,0-3-2.45c-2.18,0-3.48,1.92-3.48,4.49,0,2.35,1.15,4.3,3.43,4.3a3.18,3.18,0,0,0,3.1-2.52,3.8,3.8,0,0,0,.09-.91Z" transform="translate(-179.72 51.45)"/><path class="cls-8" d="M302.67,312.84h-5.95l-.6,4a8.14,8.14,0,0,1,1.27-.09,6.55,6.55,0,0,1,3.36.84,4.44,4.44,0,0,1,2.23,4c0,3-2.42,5.33-5.81,5.33a7.67,7.67,0,0,1-3.89-1l.53-1.61a6.92,6.92,0,0,0,3.34.87,3.44,3.44,0,0,0,3.69-3.39c0-2-1.36-3.45-4.48-3.45a14.77,14.77,0,0,0-2.16.17l1-7.49h7.46Z" transform="translate(-179.72 51.45)"/><path class="cls-8" d="M306.05,324.51a5.55,5.55,0,0,0,2.79.84c1.53,0,2.25-.77,2.25-1.73s-.6-1.56-2.16-2.14c-2.09-.74-3.07-1.89-3.07-3.28,0-1.88,1.51-3.41,4-3.41a5.7,5.7,0,0,1,2.85.72L312.2,317a4.63,4.63,0,0,0-2.38-.67c-1.25,0-1.94.72-1.94,1.59s.69,1.39,2.2,2c2,.77,3.05,1.78,3.05,3.51,0,2-1.58,3.48-4.34,3.48a6.67,6.67,0,0,1-3.27-.79Z" transform="translate(-179.72 51.45)"/><path class="cls-8" d="M302.26,191.41a7.63,7.63,0,0,0-1.58.1,6.35,6.35,0,0,0-5.43,5.54h.07a4.68,4.68,0,0,1,3.77-1.8c2.76,0,4.71,2,4.71,5a5.22,5.22,0,0,1-5.19,5.5c-3.33,0-5.52-2.59-5.52-6.65a9.84,9.84,0,0,1,2.64-7,8.54,8.54,0,0,1,5-2.31,10.92,10.92,0,0,1,1.53-.12Zm-.6,9c0-2.23-1.27-3.57-3.21-3.57a3.48,3.48,0,0,0-3,1.92,1.82,1.82,0,0,0-.24.93c.05,2.57,1.22,4.47,3.43,4.47C300.44,204.16,301.66,202.65,301.66,200.41Z" transform="translate(-179.72 51.45)"/><path class="cls-8" d="M306.05,203.37a5.65,5.65,0,0,0,2.79.84c1.53,0,2.25-.77,2.25-1.73s-.6-1.56-2.16-2.14c-2.09-.74-3.07-1.89-3.07-3.29,0-1.87,1.51-3.4,4-3.4a5.7,5.7,0,0,1,2.85.72l-.52,1.53a4.53,4.53,0,0,0-2.38-.67c-1.25,0-1.94.72-1.94,1.58s.69,1.4,2.2,2c2,.77,3.05,1.78,3.05,3.51,0,2-1.58,3.48-4.34,3.48a6.67,6.67,0,0,1-3.27-.8Z" transform="translate(-179.72 51.45)"/><path class="cls-8" d="M714.2,182.1v-4.25H707v-1.39l7-10h2.28v9.69h2.19v1.66h-2.19v4.25Zm0-5.91V171c0-.82,0-1.64.07-2.45h-.07c-.48.91-.86,1.58-1.3,2.3l-3.81,5.31v0Z" transform="translate(-179.72 51.45)"/><path class="cls-8" d="M720.87,182.1v-10h-1.63v-1.61h1.63v-.55a5.47,5.47,0,0,1,1.35-4.06,4.06,4.06,0,0,1,2.83-1.08,4.87,4.87,0,0,1,1.8.34l-.29,1.63a3.2,3.2,0,0,0-1.34-.26c-1.8,0-2.26,1.58-2.26,3.36v.62h2.81v1.61H723v10Z" transform="translate(-179.72 51.45)"/><path class="cls-8" d="M560.14,271.24V267h-7.25v-1.4l7-10h2.28v9.7h2.19V267h-2.19v4.24Zm0-5.9v-5.21c0-.82,0-1.63.07-2.45h-.07c-.48.91-.86,1.59-1.3,2.31l-3.81,5.3v0Z" transform="translate(-179.72 51.45)"/><path class="cls-8" d="M576.63,254.2v14c0,1,0,2.21.09,3h-1.89l-.1-2h-.05a4.29,4.29,0,0,1-4,2.28c-2.8,0-5-2.38-5-5.91,0-3.86,2.38-6.24,5.21-6.24a3.89,3.89,0,0,1,3.51,1.78h0V254.2Zm-2.11,10.15a3.77,3.77,0,0,0-.1-.88,3.1,3.1,0,0,0-3-2.45c-2.18,0-3.48,1.92-3.48,4.49,0,2.35,1.15,4.29,3.43,4.29a3.17,3.17,0,0,0,3.1-2.52,3.68,3.68,0,0,0,.1-.91Z" transform="translate(-179.72 51.45)"/><path class="cls-8" d="M439.35,226.29h-6l-.6,4a8.24,8.24,0,0,1,1.27-.09,6.55,6.55,0,0,1,3.36.84,4.43,4.43,0,0,1,2.24,4c0,3-2.43,5.33-5.81,5.33a7.62,7.62,0,0,1-3.89-1l.53-1.61a6.88,6.88,0,0,0,3.33.87,3.45,3.45,0,0,0,3.7-3.39c0-2-1.37-3.45-4.49-3.45a14.89,14.89,0,0,0-2.16.17l1-7.49h7.46Z" transform="translate(-179.72 51.45)"/><path class="cls-8" d="M443,232.29c0-1.48,0-2.68-.09-3.79h1.89l.1,2H445a4.57,4.57,0,0,1,4.13-2.25c2.8,0,4.92,2.37,4.92,5.9,0,4.18-2.55,6.24-5.28,6.24a4.08,4.08,0,0,1-3.58-1.82h-.05v6.31H443Zm2.09,3.1a4.51,4.51,0,0,0,.1.86,3.25,3.25,0,0,0,3.17,2.48c2.23,0,3.52-1.83,3.52-4.49,0-2.33-1.22-4.32-3.45-4.32a3.36,3.36,0,0,0-3.19,2.61,3.17,3.17,0,0,0-.15.87Z" transform="translate(-179.72 51.45)"/><path class="cls-8" d="M572,128.28h-6l-.6,4a7.94,7.94,0,0,1,1.27-.1,6.65,6.65,0,0,1,3.36.84,4.46,4.46,0,0,1,2.23,4c0,3.05-2.42,5.33-5.81,5.33a7.67,7.67,0,0,1-3.89-1l.53-1.61a6.92,6.92,0,0,0,3.34.87,3.45,3.45,0,0,0,3.7-3.39c0-2-1.37-3.45-4.49-3.45a16.55,16.55,0,0,0-2.16.16l1-7.49H572Z" transform="translate(-179.72 51.45)"/><path class="cls-8" d="M585.69,125.06v14.05c0,1,0,2.2.1,3h-1.9l-.09-2h0a4.3,4.3,0,0,1-4,2.28c-2.81,0-5-2.38-5-5.91,0-3.86,2.38-6.24,5.21-6.24a3.88,3.88,0,0,1,3.5,1.78h.05v-6.94Zm-2.11,10.16a3.79,3.79,0,0,0-.09-.89,3.11,3.11,0,0,0-3-2.45c-2.19,0-3.48,1.92-3.48,4.49,0,2.35,1.15,4.3,3.43,4.3a3.19,3.19,0,0,0,3.1-2.52,3.83,3.83,0,0,0,.09-.92Z" transform="translate(-179.72 51.45)"/><path class="cls-8" d="M438.94,99.83a7.63,7.63,0,0,0-1.58.1,6.33,6.33,0,0,0-5.42,5.54H432a4.66,4.66,0,0,1,3.77-1.8c2.76,0,4.7,2,4.7,5a5.21,5.21,0,0,1-5.18,5.5c-3.34,0-5.52-2.59-5.52-6.65a9.78,9.78,0,0,1,2.64-7,8.42,8.42,0,0,1,5-2.31,10.92,10.92,0,0,1,1.53-.12Zm-.6,9c0-2.23-1.27-3.58-3.21-3.58a3.51,3.51,0,0,0-3,1.92,1.89,1.89,0,0,0-.24.94c.05,2.57,1.23,4.47,3.44,4.47C437.12,112.58,438.34,111.06,438.34,108.83Z" transform="translate(-179.72 51.45)"/><path class="cls-8" d="M443,106.12c0-1.49,0-2.69-.09-3.79h1.89l.1,2H445a4.56,4.56,0,0,1,4.13-2.26c2.8,0,4.92,2.38,4.92,5.91,0,4.17-2.55,6.24-5.28,6.24a4.07,4.07,0,0,1-3.58-1.83h-.05v6.32H443Zm2.09,3.09a4.52,4.52,0,0,0,.1.87,3.25,3.25,0,0,0,3.17,2.47c2.23,0,3.52-1.82,3.52-4.49,0-2.33-1.22-4.32-3.45-4.32a3.36,3.36,0,0,0-3.19,2.62,3,3,0,0,0-.15.86Z" transform="translate(-179.72 51.45)"/><rect class="cls-9" x="79.49" y="121.28" width="25.41" height="25.41"/><path class="cls-8" d="M307.44,73.59V75l-6.79,14.21h-2.18l6.77-13.8v0H297.6V73.59Z" transform="translate(-179.72 51.45)"/><path class="cls-8" d="M310,87a5.51,5.51,0,0,0,2.78.84c1.54,0,2.26-.77,2.26-1.72s-.6-1.57-2.16-2.14c-2.09-.75-3.07-1.9-3.07-3.29,0-1.87,1.51-3.41,4-3.41a5.84,5.84,0,0,1,2.85.72l-.53,1.54a4.46,4.46,0,0,0-2.37-.67c-1.25,0-1.95.72-1.95,1.58s.7,1.39,2.21,2c2,.77,3,1.77,3,3.5,0,2-1.58,3.48-4.34,3.48a6.64,6.64,0,0,1-3.27-.79Z" transform="translate(-179.72 51.45)"/><rect class="cls-6" x="393.14" y="86.71" width="25.41" height="25.41"/><rect class="cls-6" x="418.55" y="86.71" width="25.41" height="25.41"/><rect class="cls-6" x="443.96" y="86.4" width="25.41" height="25.41"/><rect class="cls-6" x="469.37" y="86.71" width="25.41" height="25.41"/><rect class="cls-6" x="494.77" y="86.71" width="25.41" height="25.41"/><path class="cls-8" d="M717,40.8h-6l-.6,4a8,8,0,0,1,1.27-.1,6.65,6.65,0,0,1,3.36.84,4.45,4.45,0,0,1,2.24,4c0,3-2.43,5.33-5.81,5.33a7.62,7.62,0,0,1-3.89-1l.53-1.61a6.91,6.91,0,0,0,3.33.87,3.44,3.44,0,0,0,3.7-3.39c0-2-1.37-3.45-4.49-3.45a16.7,16.7,0,0,0-2.16.16l1-7.49H717Z" transform="translate(-179.72 51.45)"/><path class="cls-8" d="M720.87,54.63v-10h-1.63V43h1.63v-.55a5.46,5.46,0,0,1,1.35-4.06,4,4,0,0,1,2.83-1.08,4.87,4.87,0,0,1,1.8.34l-.29,1.63a3,3,0,0,0-1.34-.27c-1.8,0-2.26,1.59-2.26,3.36V43h2.81v1.61H723v10Z" transform="translate(-179.72 51.45)"/><rect class="cls-7" x="267.32" y="51.77" width="25.41" height="25.41"/><rect class="cls-7" x="292.73" y="51.77" width="25.41" height="25.41"/><rect class="cls-7" x="318.13" y="51.45" width="25.41" height="25.41"/><rect class="cls-7" x="343.54" y="51.77" width="25.41" height="25.41"/><path class="cls-8" d="M567.72,5.57a7.55,7.55,0,0,0-1.58.09,6.35,6.35,0,0,0-5.43,5.55h.08a4.62,4.62,0,0,1,3.76-1.8c2.77,0,4.71,2,4.71,5a5.21,5.21,0,0,1-5.18,5.49c-3.34,0-5.53-2.59-5.53-6.65a9.84,9.84,0,0,1,2.64-7,8.53,8.53,0,0,1,5-2.3,9.58,9.58,0,0,1,1.53-.12Zm-.6,9c0-2.24-1.27-3.58-3.21-3.58a3.48,3.48,0,0,0-3,1.92,1.84,1.84,0,0,0-.24.94c.05,2.57,1.23,4.46,3.44,4.46C565.9,18.31,567.12,16.8,567.12,14.57Z" transform="translate(-179.72 51.45)"/><path class="cls-8" d="M581.83,2.64v14c0,1,0,2.21.1,3H580l-.1-2h-.05a4.29,4.29,0,0,1-4,2.28c-2.81,0-5-2.37-5-5.9,0-3.87,2.38-6.24,5.21-6.24a3.86,3.86,0,0,1,3.5,1.78h.05V2.64Zm-2.11,10.15a3.9,3.9,0,0,0-.09-.89,3.12,3.12,0,0,0-3-2.44c-2.19,0-3.48,1.92-3.48,4.48,0,2.35,1.15,4.3,3.43,4.3a3.18,3.18,0,0,0,3.1-2.52,3.8,3.8,0,0,0,.09-.91Z" transform="translate(-179.72 51.45)"/><rect class="cls-9" x="163.17" y="17.3" width="25.41" height="25.41"/><rect class="cls-9" x="188.58" y="17.3" width="25.41" height="25.41"/><rect class="cls-9" x="213.99" y="16.98" width="25.41" height="25.41"/><path class="cls-8" d="M440.17-30.7v1.39L433.38-15.1h-2.19L438-28.9v-.05h-7.63V-30.7Z" transform="translate(-179.72 51.45)"/><path class="cls-8" d="M443-22.92c0-1.49,0-2.69-.09-3.8h1.89l.1,2H445A4.57,4.57,0,0,1,449.1-27c2.8,0,4.92,2.37,4.92,5.9,0,4.18-2.55,6.24-5.28,6.24a4.08,4.08,0,0,1-3.58-1.82h-.05v6.31H443Zm2.09,3.09a4.72,4.72,0,0,0,.1.87,3.25,3.25,0,0,0,3.17,2.47c2.23,0,3.52-1.83,3.52-4.49,0-2.33-1.22-4.32-3.45-4.32a3.36,3.36,0,0,0-3.19,2.61,3.17,3.17,0,0,0-.15.87Z" transform="translate(-179.72 51.45)"/></svg>