<svg id="Capa_1" data-name="Capa 1" xmlns="http://www.w3.org/2000/svg" viewBox="0 0 259.15 369.6"><defs><style>.cls-1{fill:#fff;}.cls-2{fill:none;stroke:#fff;stroke-miterlimit:10;stroke-width:2px;}</style></defs><title>konfigurazioa1</title><path class="cls-1" d="M-93.79,313.44v1.39L-100.58,329h-2.19l6.77-13.8v-.05h-7.63v-1.75Z" transform="translate(131.94 -240.21)"/><path class="cls-1" d="M-91.22,326.88a5.47,5.47,0,0,0,2.78.84c1.54,0,2.26-.77,2.26-1.73s-.6-1.56-2.16-2.13c-2.09-.75-3.08-1.9-3.08-3.29,0-1.87,1.52-3.41,4-3.41a5.85,5.85,0,0,1,2.86.72l-.53,1.54a4.52,4.52,0,0,0-2.38-.68c-1.24,0-1.94.72-1.94,1.59s.7,1.39,2.21,2c2,.76,3,1.77,3,3.5,0,2-1.59,3.48-4.35,3.48a6.6,6.6,0,0,1-3.26-.79Z" transform="translate(131.94 -240.21)"/><path class="cls-1" d="M-41.45,313.44v1.39L-48.24,329h-2.18l6.76-13.8v-.05h-7.63v-1.75Z" transform="translate(131.94 -240.21)"/><path class="cls-1" d="M-38.59,321.22c0-1.49,0-2.69-.1-3.8h1.9l.09,2h.05a4.56,4.56,0,0,1,4.13-2.26c2.81,0,4.92,2.38,4.92,5.9,0,4.18-2.55,6.24-5.28,6.24a4.08,4.08,0,0,1-3.58-1.82h0v6.31h-2.08Zm2.08,3.09a4.72,4.72,0,0,0,.1.87,3.26,3.26,0,0,0,3.17,2.47c2.23,0,3.53-1.83,3.53-4.49,0-2.33-1.23-4.32-3.46-4.32a3.37,3.37,0,0,0-3.19,2.62,3.44,3.44,0,0,0-.15.86Z" transform="translate(131.94 -240.21)"/><path class="cls-1" d="M-95,358.13a7.55,7.55,0,0,0-1.58.09,6.34,6.34,0,0,0-5.42,5.55h.07a4.63,4.63,0,0,1,3.77-1.8c2.76,0,4.7,2,4.7,5a5.21,5.21,0,0,1-5.18,5.49c-3.34,0-5.52-2.59-5.52-6.65a9.8,9.8,0,0,1,2.64-7,8.47,8.47,0,0,1,5-2.3A9.58,9.58,0,0,1-95,356.4Zm-.6,9c0-2.23-1.27-3.58-3.21-3.58a3.49,3.49,0,0,0-3,1.92,1.84,1.84,0,0,0-.24.94c0,2.57,1.23,4.46,3.44,4.46C-96.84,370.87-95.62,369.36-95.62,367.13Z" transform="translate(131.94 -240.21)"/><path class="cls-1" d="M-91.22,370.08a5.47,5.47,0,0,0,2.78.84c1.54,0,2.26-.77,2.26-1.73s-.6-1.56-2.16-2.13c-2.09-.75-3.08-1.9-3.08-3.29,0-1.87,1.52-3.41,4-3.41a5.74,5.74,0,0,1,2.86.72l-.53,1.53a4.63,4.63,0,0,0-2.38-.67c-1.24,0-1.94.72-1.94,1.59s.7,1.39,2.21,2c2,.76,3,1.77,3,3.5,0,2-1.59,3.48-4.35,3.48a6.6,6.6,0,0,1-3.26-.79Z" transform="translate(131.94 -240.21)"/><path class="cls-1" d="M-42.67,358.13a7.64,7.64,0,0,0-1.59.09,6.34,6.34,0,0,0-5.42,5.55h.07a4.64,4.64,0,0,1,3.77-1.8c2.76,0,4.7,2,4.7,5a5.21,5.21,0,0,1-5.18,5.49c-3.34,0-5.52-2.59-5.52-6.65a9.8,9.8,0,0,1,2.64-7,8.5,8.5,0,0,1,5-2.3,9.69,9.69,0,0,1,1.54-.12Zm-.6,9c0-2.23-1.27-3.58-3.22-3.58a3.46,3.46,0,0,0-3,1.92,1.74,1.74,0,0,0-.24.94c0,2.57,1.22,4.46,3.43,4.46C-44.5,370.87-43.27,369.36-43.27,367.13Z" transform="translate(131.94 -240.21)"/><path class="cls-1" d="M-38.59,364.42c0-1.49,0-2.69-.1-3.8h1.9l.09,2h.05a4.57,4.57,0,0,1,4.13-2.25c2.81,0,4.92,2.37,4.92,5.9,0,4.18-2.55,6.24-5.28,6.24a4.08,4.08,0,0,1-3.58-1.82h0V377h-2.08Zm2.08,3.09a4.72,4.72,0,0,0,.1.87,3.26,3.26,0,0,0,3.17,2.47c2.23,0,3.53-1.83,3.53-4.49,0-2.33-1.23-4.32-3.46-4.32a3.37,3.37,0,0,0-3.19,2.62,3.44,3.44,0,0,0-.15.86Z" transform="translate(131.94 -240.21)"/><path class="cls-1" d="M8.73,358.13a7.55,7.55,0,0,0-1.58.09,6.34,6.34,0,0,0-5.42,5.55H1.8A4.63,4.63,0,0,1,5.57,362c2.76,0,4.7,2,4.7,5a5.21,5.21,0,0,1-5.18,5.49c-3.34,0-5.52-2.59-5.52-6.65a9.8,9.8,0,0,1,2.64-7,8.47,8.47,0,0,1,5-2.3,9.58,9.58,0,0,1,1.53-.12Zm-.6,9c0-2.23-1.27-3.58-3.21-3.58a3.49,3.49,0,0,0-3,1.92,1.84,1.84,0,0,0-.24.94c.05,2.57,1.23,4.46,3.44,4.46C6.91,370.87,8.13,369.36,8.13,367.13Z" transform="translate(131.94 -240.21)"/><path class="cls-1" d="M22.85,355.2v14c0,1,0,2.21.09,3H21.05l-.1-2H20.9a4.29,4.29,0,0,1-4,2.28c-2.81,0-5-2.37-5-5.9,0-3.87,2.38-6.24,5.21-6.24a3.9,3.9,0,0,1,3.51,1.77h0V355.2Zm-2.12,10.15a3.9,3.9,0,0,0-.09-.89A3.12,3.12,0,0,0,17.59,362c-2.18,0-3.48,1.93-3.48,4.49,0,2.36,1.15,4.3,3.43,4.3a3.18,3.18,0,0,0,3.1-2.52,3.8,3.8,0,0,0,.09-.91Z" transform="translate(131.94 -240.21)"/><path class="cls-1" d="M-94.61,401.61h-6l-.6,4a9.73,9.73,0,0,1,1.27-.09,6.55,6.55,0,0,1,3.36.84,4.43,4.43,0,0,1,2.24,4c0,3-2.43,5.32-5.81,5.32a7.62,7.62,0,0,1-3.89-1l.53-1.6a7,7,0,0,0,3.33.86,3.45,3.45,0,0,0,3.7-3.38c0-2-1.37-3.46-4.49-3.46a16.46,16.46,0,0,0-2.16.17l1-7.49h7.46Z" transform="translate(131.94 -240.21)"/><path class="cls-1" d="M-91.22,413.28a5.47,5.47,0,0,0,2.78.84c1.54,0,2.26-.77,2.26-1.73s-.6-1.56-2.16-2.13c-2.09-.75-3.08-1.9-3.08-3.29,0-1.87,1.52-3.41,4-3.41a5.85,5.85,0,0,1,2.86.72l-.53,1.53a4.63,4.63,0,0,0-2.38-.67c-1.24,0-1.94.72-1.94,1.59s.7,1.39,2.21,2c2,.76,3,1.77,3,3.5,0,2-1.59,3.48-4.35,3.48a6.6,6.6,0,0,1-3.26-.79Z" transform="translate(131.94 -240.21)"/><path class="cls-1" d="M-42.26,401.61h-6l-.6,4a9.77,9.77,0,0,1,1.28-.09,6.55,6.55,0,0,1,3.36.84,4.45,4.45,0,0,1,2.23,4c0,3-2.43,5.32-5.81,5.32a7.65,7.65,0,0,1-3.89-1l.53-1.6a7,7,0,0,0,3.34.86,3.44,3.44,0,0,0,3.69-3.38c0-2-1.37-3.46-4.49-3.46a16.61,16.61,0,0,0-2.16.17l1-7.49h7.47Z" transform="translate(131.94 -240.21)"/><path class="cls-1" d="M-38.59,407.62c0-1.49,0-2.69-.1-3.8h1.9l.09,2h.05a4.57,4.57,0,0,1,4.13-2.25c2.81,0,4.92,2.38,4.92,5.9,0,4.18-2.55,6.24-5.28,6.24a4.08,4.08,0,0,1-3.58-1.82h0v6.31h-2.08Zm2.08,3.09a4.72,4.72,0,0,0,.1.87,3.26,3.26,0,0,0,3.17,2.47c2.23,0,3.53-1.83,3.53-4.49,0-2.33-1.23-4.32-3.46-4.32a3.37,3.37,0,0,0-3.19,2.62,3.44,3.44,0,0,0-.15.86Z" transform="translate(131.94 -240.21)"/><path class="cls-1" d="M9.14,401.61h-6l-.6,4a9.73,9.73,0,0,1,1.27-.09,6.55,6.55,0,0,1,3.36.84,4.43,4.43,0,0,1,2.23,4c0,3-2.42,5.32-5.8,5.32a7.62,7.62,0,0,1-3.89-1l.53-1.6a7,7,0,0,0,3.33.86,3.45,3.45,0,0,0,3.7-3.38c0-2-1.37-3.46-4.49-3.46a16.46,16.46,0,0,0-2.16.17l1-7.49H9.14Z" transform="translate(131.94 -240.21)"/><path class="cls-1" d="M22.85,398.4v14c0,1,0,2.21.09,3H21.05l-.1-2H20.9a4.29,4.29,0,0,1-4,2.28c-2.81,0-5-2.37-5-5.9,0-3.86,2.38-6.24,5.21-6.24a3.9,3.9,0,0,1,3.51,1.77h0V398.4Zm-2.12,10.15a3.9,3.9,0,0,0-.09-.89,3.12,3.12,0,0,0-3.05-2.45c-2.18,0-3.48,1.93-3.48,4.49,0,2.36,1.15,4.3,3.43,4.3a3.18,3.18,0,0,0,3.1-2.52,3.8,3.8,0,0,0,.09-.91Z" transform="translate(131.94 -240.21)"/><path class="cls-1" d="M65.52,401.61h-6l-.6,4a9.77,9.77,0,0,1,1.28-.09,6.55,6.55,0,0,1,3.36.84,4.45,4.45,0,0,1,2.23,4c0,3-2.43,5.32-5.81,5.32a7.67,7.67,0,0,1-3.89-1l.53-1.6A7,7,0,0,0,60,414a3.44,3.44,0,0,0,3.69-3.38c0-2-1.37-3.46-4.49-3.46a16.61,16.61,0,0,0-2.16.17l1-7.49h7.47Z" transform="translate(131.94 -240.21)"/><path class="cls-1" d="M69.4,415.44v-10H67.77v-1.61H69.4v-.55a5.47,5.47,0,0,1,1.35-4.06,4.08,4.08,0,0,1,2.83-1.08,4.87,4.87,0,0,1,1.8.34l-.29,1.63a3.2,3.2,0,0,0-1.34-.26c-1.8,0-2.26,1.58-2.26,3.36v.62H74.3v1.61H71.49v10Z" transform="translate(131.94 -240.21)"/><path class="cls-1" d="M-97.39,458.64v-4.25h-7.25V453l7-10h2.28v9.7h2.19v1.65H-95.4v4.25Zm0-5.9v-5.21c0-.82,0-1.64.07-2.45h-.07c-.48.91-.87,1.58-1.3,2.3l-3.81,5.31v.05Z" transform="translate(131.94 -240.21)"/><path class="cls-1" d="M-91.22,456.48a5.47,5.47,0,0,0,2.78.84c1.54,0,2.26-.77,2.26-1.73s-.6-1.56-2.16-2.13c-2.09-.75-3.08-1.9-3.08-3.29,0-1.88,1.52-3.41,4-3.41a5.74,5.74,0,0,1,2.86.72l-.53,1.53a4.63,4.63,0,0,0-2.38-.67c-1.24,0-1.94.72-1.94,1.59s.7,1.39,2.21,2c2,.76,3,1.77,3,3.5,0,2-1.59,3.48-4.35,3.48a6.6,6.6,0,0,1-3.26-.79Z" transform="translate(131.94 -240.21)"/><path class="cls-1" d="M-45,458.64v-4.25H-52.3V453l7-10h2.28v9.7h2.19v1.65h-2.19v4.25Zm0-5.9v-5.21c0-.82,0-1.64.07-2.45H-45c-.48.91-.86,1.58-1.29,2.3l-3.82,5.31v.05Z" transform="translate(131.94 -240.21)"/><path class="cls-1" d="M-38.59,450.82c0-1.49,0-2.69-.1-3.8h1.9l.09,2h.05a4.57,4.57,0,0,1,4.13-2.25c2.81,0,4.92,2.37,4.92,5.9,0,4.18-2.55,6.24-5.28,6.24a4.08,4.08,0,0,1-3.58-1.82h0v6.31h-2.08Zm2.08,3.09a4.72,4.72,0,0,0,.1.87,3.26,3.26,0,0,0,3.17,2.47c2.23,0,3.53-1.83,3.53-4.49,0-2.33-1.23-4.32-3.46-4.32a3.37,3.37,0,0,0-3.19,2.61,3.6,3.6,0,0,0-.15.87Z" transform="translate(131.94 -240.21)"/><path class="cls-1" d="M6.36,458.64v-4.25H-.89V453l7-10H8.35v9.7h2.18v1.65H8.35v4.25Zm0-5.9v-5.21c0-.82,0-1.64.07-2.45H6.36c-.48.91-.87,1.58-1.3,2.3l-3.81,5.31v.05Z" transform="translate(131.94 -240.21)"/><path class="cls-1" d="M22.85,441.6v14c0,1,0,2.21.09,3H21.05l-.1-2H20.9a4.29,4.29,0,0,1-4,2.28c-2.81,0-5-2.37-5-5.9,0-3.87,2.38-6.24,5.21-6.24a3.89,3.89,0,0,1,3.51,1.78h0V441.6Zm-2.12,10.15a3.9,3.9,0,0,0-.09-.89,3.11,3.11,0,0,0-3.05-2.44c-2.18,0-3.48,1.91-3.48,4.48,0,2.35,1.15,4.3,3.43,4.3a3.18,3.18,0,0,0,3.1-2.52,3.8,3.8,0,0,0,.09-.91Z" transform="translate(131.94 -240.21)"/><path class="cls-1" d="M62.73,458.64v-4.25H55.48V453l7-10h2.28v9.7h2.19v1.65H64.72v4.25Zm0-5.9v-5.21c0-.82,0-1.64.07-2.45h-.07c-.48.91-.86,1.58-1.29,2.3l-3.82,5.31v.05Z" transform="translate(131.94 -240.21)"/><path class="cls-1" d="M69.4,458.64v-10H67.77V447H69.4v-.55a5.47,5.47,0,0,1,1.35-4.06,4.08,4.08,0,0,1,2.83-1.08,4.87,4.87,0,0,1,1.8.34l-.29,1.63a3.2,3.2,0,0,0-1.34-.26c-1.8,0-2.26,1.58-2.26,3.36V447H74.3v1.61H71.49v10Z" transform="translate(131.94 -240.21)"/><path class="cls-1" d="M-103.42,499.42a7.14,7.14,0,0,0,3.46,1c2.71,0,3.55-1.73,3.53-3,0-2.19-2-3.13-4-3.13h-1.18v-1.58h1.18c1.53,0,3.48-.79,3.48-2.64,0-1.25-.8-2.35-2.74-2.35a5.72,5.72,0,0,0-3.12,1l-.55-1.54a7.4,7.4,0,0,1,4.08-1.2c3.07,0,4.46,1.83,4.46,3.72a3.88,3.88,0,0,1-2.88,3.68v.05a4.06,4.06,0,0,1,3.48,4c0,2.5-1.94,4.68-5.69,4.68a8,8,0,0,1-4-1.05Z" transform="translate(131.94 -240.21)"/><path class="cls-1" d="M-91.22,499.68a5.47,5.47,0,0,0,2.78.84c1.54,0,2.26-.77,2.26-1.73s-.6-1.56-2.16-2.13c-2.09-.75-3.08-1.9-3.08-3.29,0-1.87,1.52-3.41,4-3.41a5.74,5.74,0,0,1,2.86.72l-.53,1.53a4.63,4.63,0,0,0-2.38-.67c-1.24,0-1.94.72-1.94,1.59s.7,1.39,2.21,2c2,.76,3,1.77,3,3.5,0,2-1.59,3.48-4.35,3.48a6.6,6.6,0,0,1-3.26-.79Z" transform="translate(131.94 -240.21)"/><path class="cls-1" d="M-51.07,499.42a7.09,7.09,0,0,0,3.45,1c2.72,0,3.56-1.73,3.53-3,0-2.19-2-3.13-4-3.13H-49.3v-1.58h1.18c1.54,0,3.48-.79,3.48-2.64,0-1.25-.79-2.35-2.74-2.35a5.72,5.72,0,0,0-3.12,1l-.55-1.54A7.43,7.43,0,0,1-47,486c3.07,0,4.47,1.83,4.47,3.72a3.88,3.88,0,0,1-2.88,3.68v.05a4.06,4.06,0,0,1,3.48,4c0,2.5-2,4.68-5.69,4.68a8,8,0,0,1-4.06-1.05Z" transform="translate(131.94 -240.21)"/><path class="cls-1" d="M-38.59,494c0-1.49,0-2.69-.1-3.8h1.9l.09,2h.05A4.57,4.57,0,0,1-32.52,490c2.81,0,4.92,2.37,4.92,5.9,0,4.18-2.55,6.24-5.28,6.24a4.08,4.08,0,0,1-3.58-1.82h0v6.31h-2.08Zm2.08,3.09a4.72,4.72,0,0,0,.1.87,3.26,3.26,0,0,0,3.17,2.47c2.23,0,3.53-1.83,3.53-4.49,0-2.33-1.23-4.32-3.46-4.32a3.37,3.37,0,0,0-3.19,2.61,3.6,3.6,0,0,0-.15.87Z" transform="translate(131.94 -240.21)"/><path class="cls-1" d="M.33,499.42a7.14,7.14,0,0,0,3.46,1c2.71,0,3.55-1.73,3.53-3,0-2.19-2-3.13-4-3.13H2.11v-1.58H3.29c1.53,0,3.48-.79,3.48-2.64,0-1.25-.8-2.35-2.74-2.35a5.72,5.72,0,0,0-3.12,1l-.55-1.54A7.4,7.4,0,0,1,4.44,486c3.07,0,4.46,1.83,4.46,3.72A3.88,3.88,0,0,1,6,493.37v.05a4.06,4.06,0,0,1,3.48,4c0,2.5-1.94,4.68-5.69,4.68a8,8,0,0,1-4-1.05Z" transform="translate(131.94 -240.21)"/><path class="cls-1" d="M22.85,484.8v14c0,1,0,2.21.09,3H21.05l-.1-2H20.9a4.29,4.29,0,0,1-4,2.28c-2.81,0-5-2.37-5-5.9,0-3.87,2.38-6.24,5.21-6.24a3.89,3.89,0,0,1,3.51,1.78h0V484.8ZM20.73,495a3.9,3.9,0,0,0-.09-.89,3.11,3.11,0,0,0-3.05-2.44c-2.18,0-3.48,1.92-3.48,4.48,0,2.36,1.15,4.3,3.43,4.3a3.18,3.18,0,0,0,3.1-2.52,3.8,3.8,0,0,0,.09-.91Z" transform="translate(131.94 -240.21)"/><path class="cls-1" d="M-103.92,545v-1.3l1.66-1.6c4-3.8,5.78-5.81,5.8-8.17a2.77,2.77,0,0,0-3.09-3,5.3,5.3,0,0,0-3.31,1.32l-.68-1.49a6.87,6.87,0,0,1,4.42-1.59,4.4,4.4,0,0,1,4.78,4.54c0,2.88-2.09,5.21-5.38,8.38l-1.25,1.15v0h7V545Z" transform="translate(131.94 -240.21)"/><path class="cls-1" d="M-91.22,542.88a5.47,5.47,0,0,0,2.78.84c1.54,0,2.26-.77,2.26-1.73s-.6-1.56-2.16-2.13c-2.09-.75-3.08-1.9-3.08-3.29,0-1.87,1.52-3.41,4-3.41a5.85,5.85,0,0,1,2.86.72l-.53,1.54a4.52,4.52,0,0,0-2.38-.68c-1.24,0-1.94.72-1.94,1.59s.7,1.39,2.21,2c2,.76,3,1.77,3,3.5,0,2-1.59,3.48-4.35,3.48a6.6,6.6,0,0,1-3.26-.79Z" transform="translate(131.94 -240.21)"/><path class="cls-1" d="M-51.58,545v-1.3l1.66-1.6c4-3.8,5.78-5.81,5.81-8.17a2.78,2.78,0,0,0-3.1-3,5.3,5.3,0,0,0-3.31,1.32l-.67-1.49a6.84,6.84,0,0,1,4.41-1.59A4.4,4.4,0,0,1-42,533.71c0,2.88-2.09,5.21-5.38,8.38l-1.25,1.15v0h7V545Z" transform="translate(131.94 -240.21)"/><path class="cls-1" d="M-38.59,537.22c0-1.49,0-2.69-.1-3.8h1.9l.09,2h.05a4.56,4.56,0,0,1,4.13-2.26c2.81,0,4.92,2.38,4.92,5.9,0,4.18-2.55,6.24-5.28,6.24a4.08,4.08,0,0,1-3.58-1.82h0v6.31h-2.08Zm2.08,3.09a4.72,4.72,0,0,0,.1.87,3.26,3.26,0,0,0,3.17,2.47c2.23,0,3.53-1.83,3.53-4.49,0-2.33-1.23-4.32-3.46-4.32a3.37,3.37,0,0,0-3.19,2.62,3.44,3.44,0,0,0-.15.86Z" transform="translate(131.94 -240.21)"/><path class="cls-1" d="M-99.34,574.61h0l-2.72,1.46-.4-1.61,3.4-1.82h1.8v15.6h-2Z" transform="translate(131.94 -240.21)"/><path class="cls-1" d="M-91.22,586.08a5.47,5.47,0,0,0,2.78.84c1.54,0,2.26-.77,2.26-1.73s-.6-1.56-2.16-2.13c-2.09-.75-3.08-1.9-3.08-3.29,0-1.87,1.52-3.41,4-3.41a5.85,5.85,0,0,1,2.86.72l-.53,1.54a4.52,4.52,0,0,0-2.38-.68c-1.24,0-1.94.72-1.94,1.59s.7,1.39,2.21,2c2,.76,3,1.77,3,3.5,0,2-1.59,3.48-4.35,3.48a6.6,6.6,0,0,1-3.26-.79Z" transform="translate(131.94 -240.21)"/><circle class="cls-2" cx="39.26" cy="339.07" r="18"/><circle class="cls-2" cx="39.26" cy="298.27" r="18"/><circle class="cls-2" cx="39.2" cy="254.36" r="18"/><circle class="cls-2" cx="39.2" cy="211.36" r="18"/><circle class="cls-2" cx="39.2" cy="168.36" r="18"/><circle class="cls-2" cx="39.2" cy="124.36" r="18"/><circle class="cls-2" cx="39.2" cy="82.36" r="18"/><circle class="cls-2" cx="91.07" cy="298.27" r="18"/><circle class="cls-2" cx="91.07" cy="254.36" r="18"/><circle class="cls-2" cx="91.07" cy="211.36" r="18"/><circle class="cls-2" cx="91.07" cy="168.36" r="18"/><circle class="cls-2" cx="91.07" cy="125.36" r="18"/><circle class="cls-2" cx="91.07" cy="82.36" r="18"/><circle class="cls-2" cx="143.97" cy="254.36" r="18"/><circle class="cls-2" cx="143.97" cy="210.32" r="18"/><circle class="cls-2" cx="143.97" cy="168.36" r="18"/><circle class="cls-2" cx="143.97" cy="125.36" r="18"/><circle class="cls-2" cx="198.11" cy="211.36" r="18"/><circle class="cls-2" cx="198.11" cy="168.36" r="18"/><line class="cls-2" x1="73.07" y1="368.85" x2="52.74" y2="351"/><line class="cls-2" x1="25.39" y1="326.2" x2="5.06" y2="308.34"/><line class="cls-2" x1="124.97" y1="329" x2="104.65" y2="311.15"/><line class="cls-2" x1="77.03" y1="287" x2="53.46" y2="266.29"/><line class="cls-2" x1="99.16" y1="350.87" x2="53.46" y2="310.72"/><line class="cls-2" x1="149.93" y1="306.97" x2="104.23" y2="266.81"/><line class="cls-2" x1="177.44" y1="284.57" x2="157.11" y2="266.72"/><line class="cls-2" x1="202.96" y1="263.37" x2="157.26" y2="223.21"/><line class="cls-2" x1="232.29" y1="241.62" x2="211.97" y2="223.76"/><line class="cls-2" x1="258.49" y1="220.05" x2="212.61" y2="179.73"/><line class="cls-2" x1="77.9" y1="243.67" x2="54.33" y2="222.96"/><line class="cls-2" x1="130.17" y1="244.04" x2="106.6" y2="223.33"/><line class="cls-2" x1="77.03" y1="198.22" x2="53.46" y2="177.51"/><line class="cls-2" x1="182.9" y1="198.22" x2="159.33" y2="177.51"/><line class="cls-2" x1="129.97" y1="199.23" x2="106.4" y2="178.52"/><line class="cls-2" x1="78.39" y1="155.79" x2="54.82" y2="135.08"/><line class="cls-2" x1="130.44" y1="156.7" x2="106.87" y2="135.99"/><line class="cls-2" x1="78.39" y1="112.84" x2="54.82" y2="92.13"/><line class="cls-2" x1="183.22" y1="155.79" x2="159.65" y2="135.08"/><line class="cls-2" x1="130.67" y1="111.62" x2="107.1" y2="90.9"/><line class="cls-2" x1="27.61" y1="154.79" x2="4.04" y2="134.08"/><line class="cls-2" x1="24.85" y1="285.57" x2="1.28" y2="264.86"/><line class="cls-2" x1="25.85" y1="242.15" x2="2.28" y2="221.44"/><line class="cls-2" x1="25.85" y1="198.06" x2="2.28" y2="177.35"/><line class="cls-2" x1="27.23" y1="112.72" x2="3.66" y2="92.01"/><line class="cls-2" x1="28.01" y1="67.82" x2="4.44" y2="47.11"/><line class="cls-2" x1="80.17" y1="67.9" x2="6.24" y2="2.94"/><line class="cls-2" x1="5.01" y1="321.77" x2="3.89" y2="308.06"/><line class="cls-2" x1="17.39" y1="307.04" x2="3.67" y2="308.16"/><line class="cls-2" x1="13.85" y1="263.7" x2="0.14" y2="264.81"/><line class="cls-2" x1="2.15" y1="278.28" x2="1.03" y2="264.56"/><line class="cls-2" x1="2.15" y1="234.34" x2="1.03" y2="220.62"/><line class="cls-2" x1="13.8" y1="220.05" x2="0.08" y2="221.17"/><line class="cls-2" x1="14.25" y1="175.54" x2="0.53" y2="176.66"/><line class="cls-2" x1="2.15" y1="190.09" x2="1.03" y2="176.37"/><line class="cls-2" x1="5.02" y1="147" x2="3.9" y2="133.28"/><line class="cls-2" x1="17.87" y1="133.06" x2="4.15" y2="134.18"/><line class="cls-2" x1="16.54" y1="90.59" x2="2.83" y2="91.71"/><line class="cls-2" x1="4.45" y1="105.3" x2="3.33" y2="91.58"/><line class="cls-2" x1="16.54" y1="45.19" x2="2.83" y2="46.31"/><line class="cls-2" x1="5.02" y1="59.07" x2="3.9" y2="45.35"/><line class="cls-2" x1="7.02" y1="15.84" x2="5.9" y2="2.12"/><line class="cls-2" x1="18.87" y1="1" x2="5.15" y2="2.11"/></svg>