<svg id="Capa_1" data-name="Capa 1" xmlns="http://www.w3.org/2000/svg" viewBox="0 0 602.43 325.17"><defs><style>.cls-1{fill:#3fb5e9;}.cls-2{fill:#fff;}.cls-3{fill:#f39200;}.cls-4{fill:#ffed00;}.cls-5{fill:#70b62c;}</style></defs><title>lewis</title><path class="cls-1" d="M19.49,261.86c-.12-.53-.07-7.22,0-9.19.12-6,.17-7.92,1.27-8,1.37,0,2.67,1.32,2.74,4.11a5.6,5.6,0,0,1-.55,2.76,5.33,5.33,0,0,1-1.25,1.68c1.2.33,2.09,2.42,2,4.41-.09,1.83-.77,5.29-3,5.14C20,262.7,19.63,262.56,19.49,261.86Zm1.18-7.56c-.22,2-.44,7.18,0,7.11C23,261.24,23.07,254.33,20.67,254.3Zm.24-8.37a33.88,33.88,0,0,0-.12,6.26C23,251.4,23,246.07,20.91,245.93Z" transform="translate(8.26 -140.42)"/><path class="cls-1" d="M30.55,250.76c1.33,0,2.41,3.34,1.72,5.35-.3.45-2.22.22-2.91.24-.51.06-.36,5,1.1,5.2,1.21-.16.37-2.56,1.63-2.45,1,.08,0,3.76-1.62,3.76C28,262.86,28,258.51,28,257,28,254.4,28.88,250.76,30.55,250.76Zm-.95,4.42c.48,0,1.3.1,1.83.12.27.18.15-3.06-.8-3.21C29.69,252.09,29.06,255.12,29.6,255.18Z" transform="translate(8.26 -140.42)"/><path class="cls-1" d="M37.72,244.76c.27,0,.62.63.61,1.25-.07,2.19-.26,5.55-.26,8.79a2.42,2.42,0,0,1,2.3-1.14c1.6.1,1.32,7,1.13,8.35-.09.75-.61,1.07-1.06.15-.48-1.08.29-7.08-.58-7-2,0-1.81,6.64-1.79,7-.1.87-1,1-1.28,0L36.86,246C36.85,245.08,37.46,244.76,37.72,244.76Z" transform="translate(8.26 -140.42)"/><path class="cls-1" d="M48.15,262.81c-2.43,0-3.15-1.07-3.15-3.43,0-1.89.35-3.93,2.62-4h0c0-2.39-.12-3.37-.43-3.4-1.41-.14-.74,2.07-1.62,2-.67-.15-.5-3.48,1.69-3.26,1,.1,1.59,1.7,1.55,3.06C48.93,256.5,48.92,262.64,48.15,262.81Zm-.54-6.25h0v0a.2.2,0,0,1,0-.07c-2.08,0-2.36,5.28-.12,5.28A26.57,26.57,0,0,0,47.61,256.56Z" transform="translate(8.26 -140.42)"/><path class="cls-1" d="M56.72,254.29c-.88,0-.07-2-1.47-1.82-.32,0-.82,1.25-.82,3.71,0,0,0,4.21-.14,5.72-.06.67-.17.88-.37.88s-.53,0-.59-1.13c-.1-2-.17-4.57-.09-6.61a2.8,2.8,0,0,1,0-.29h0V251.3a.65.65,0,0,1,.66-.66c.51,0,.39.81.39.81v.45a1.41,1.41,0,0,1,.9-.63C57.38,251.05,57.38,254.13,56.72,254.29Z" transform="translate(8.26 -140.42)"/><path class="cls-1" d="M70,246.06c0,.53.07,7,0,8.91-.11,5.94-.18,7.83-1.35,7.94-1.46,0-2.82-1.3-2.9-4.06a4.92,4.92,0,0,1,.59-2.73,4.64,4.64,0,0,1,1.33-1.65,8.75,8.75,0,0,1,1-.72c.22-2,0-7,0-7.41,0-.94.27-1.34.62-1.34C69.84,245,70,245.49,70,246.06Zm-1.5,15.59a35.91,35.91,0,0,0,.12-6.19C66.27,256.25,66.19,261.51,68.47,261.65Z" transform="translate(8.26 -140.42)"/><path class="cls-1" d="M75.55,250.76c.61,0,.74.77.74.86s-.18.79-.67.79a.76.76,0,0,1-.8-.84C74.82,251.51,74.82,250.76,75.55,250.76Zm.53,4.07a51.26,51.26,0,0,1-.09,7.3c0,.47-.25.74-.44.74s-.49-.22-.58-.64c-.3-1.54,0-5.26,0-7.36,0-.56.34-.88.57-.88S76,254.3,76.08,254.83Z" transform="translate(8.26 -140.42)"/><path class="cls-1" d="M84.53,254.29c-.88,0-.06-2-1.47-1.82-.31,0-.82,1.25-.82,3.71,0,0,0,4.21-.14,5.72-.06.67-.16.88-.36.88s-.54,0-.6-1.13c-.1-2-.16-4.57-.09-6.61,0-.09,0-.19,0-.29h0V251.3a.65.65,0,0,1,.66-.66c.51,0,.39.81.39.81v.45a1.44,1.44,0,0,1,.9-.63C85.19,251.05,85.2,254.13,84.53,254.29Z" transform="translate(8.26 -140.42)"/><path class="cls-1" d="M91.34,250.76c1.33,0,2.41,3.34,1.72,5.35-.3.45-2.22.22-2.91.24-.51.06-.36,5,1.11,5.2,1.2-.16.36-2.56,1.62-2.45,1,.08,0,3.76-1.62,3.76-2.49,0-2.49-4.35-2.49-5.87C88.77,254.4,89.67,250.76,91.34,250.76Zm-1,4.42c.48,0,1.3.1,1.83.12.27.18.15-3.06-.8-3.21C90.48,252.09,89.85,255.12,90.39,255.18Z" transform="translate(8.26 -140.42)"/><path class="cls-1" d="M99.41,250.76c1.1,0,2.41.84,2.41,3.08v8c0,.55-.24.94-.47.95s-.74-.21-.74-1.05c0-3.93.4-9.33-1-9.33s-1.2,5.76-1.2,9.74c-.11.88-1,1-1.28,0,0,0,.08-6,.08-7.74C97.19,251.48,98.71,250.76,99.41,250.76Z" transform="translate(8.26 -140.42)"/><path class="cls-1" d="M118.32,250.76c1.32,0,2.4,3.34,1.71,5.35-.3.45-2.21.22-2.91.24-.51.06-.36,5,1.11,5.2,1.2-.16.36-2.56,1.62-2.45,1,.08,0,3.76-1.61,3.76-2.5,0-2.5-4.35-2.5-5.87C115.74,254.4,116.64,250.76,118.32,250.76Zm-1,4.42c.48,0,1.31.1,1.83.12.27.18.15-3.06-.79-3.21C117.45,252.09,116.82,255.12,117.36,255.18Z" transform="translate(8.26 -140.42)"/><path class="cls-1" d="M24.51,281.69c0,1.77-1.29,9.79-3.6,9.89-1.87.28-1.49-3.56-1.44-5.31.05-1.58.05-8.28.12-9.79.05-1,.22-2.93,1.49-2.93C23,273.55,24.51,277.73,24.51,281.69Zm-1.34.76c.19-2.52-.51-7.6-2.14-7.34.1,3.86-.26,10.27-.29,14.64C22.16,290.23,23,284.71,23.17,282.45Z" transform="translate(8.26 -140.42)"/><path class="cls-1" d="M29.57,279.56c.61,0,.74.77.74.86s-.19.79-.67.79a.77.77,0,0,1-.81-.84A.75.75,0,0,1,29.57,279.56Zm.53,4.07a51.32,51.32,0,0,1-.1,7.3c0,.47-.25.74-.43.74s-.5-.22-.58-.64c-.3-1.54,0-5.26,0-7.36,0-.56.33-.88.57-.88S30,283.1,30.1,283.63Z" transform="translate(8.26 -140.42)"/><path class="cls-1" d="M37,275.18c0,.81-.09,4.08-.09,4.2s.3,0,.82.08c.35,0,.82.05.83.71,0,.38-.61.47-.82.47h-.9c0,.55,0,9.53,0,9.74,0,.44.06,1.19-.58,1.19a.64.64,0,0,1-.6-.64c0-.2,0-9.63,0-10.3l-.84,0c-.16,0-.77-.1-.79-.55a.67.67,0,0,1,.77-.67c.66,0,.73.06.84-.07a41.53,41.53,0,0,1,.08-4.31s0-1.43.67-1.43S37,274.19,37,275.18Z" transform="translate(8.26 -140.42)"/><path class="cls-1" d="M43.69,280.26c0,4-.1,9.74,1.2,9.74s1-5.4,1-9.33c0-.84.56-1.06.75-1.05s.46.41.46.95v8c0,2.24-1.31,3.08-2.41,3.08-.7,0-2.22-.72-2.22-3.68,0-1.74-.08-7.74-.08-7.74C42.71,279.27,43.59,279.39,43.69,280.26Z" transform="translate(8.26 -140.42)"/><path class="cls-1" d="M56.37,295.73c-.22,1.25-.58,2.08-1.79,2.08-1.91,0-2.45-1.79-2.18-3.77.07-.52.28-.84.54-.83s.53.51.53.93c0,1.43.12,2.14.8,2.15s1-1.12,1-3h0c0-.24-.05-.86-.15-1.79-2.95,0-3.24-4.77-3.21-6.06.08-2.76.64-5.74,3.39-5.74,1.16.11,1,2,1.11,7.93C56.41,287.9,56.4,295.55,56.37,295.73ZM54.88,281c-2.29.14-2.38,9.31.11,9.31A83.14,83.14,0,0,0,54.88,281Z" transform="translate(8.26 -140.42)"/><path class="cls-1" d="M62.48,280.26c0,4-.09,9.74,1.21,9.74s1-5.4,1-9.33c0-.84.56-1.06.74-1.05s.46.41.46.95v8c0,2.24-1.3,3.08-2.4,3.08-.71,0-2.23-.72-2.23-3.68,0-1.74-.08-7.74-.08-7.74C61.5,279.27,62.38,279.39,62.48,280.26Z" transform="translate(8.26 -140.42)"/><path class="cls-1" d="M72.53,279.56c1.1,0,2.41.84,2.41,3.08v8c0,.55-.24.94-.47.95s-.74-.21-.74-1.05c0-3.93.4-9.33-1-9.33s-1.2,5.76-1.2,9.74c-.11.88-1,1-1.28,0,0,0,.08-6,.08-7.74C70.31,280.28,71.83,279.56,72.53,279.56Z" transform="translate(8.26 -140.42)"/><path class="cls-1" d="M91.44,279.56c1.32,0,2.4,3.34,1.71,5.35-.3.45-2.21.22-2.91.24-.51.06-.36,5,1.11,5.2,1.2-.16.36-2.56,1.63-2.45,1,.08,0,3.76-1.62,3.76-2.5,0-2.5-4.35-2.5-5.87C88.86,283.2,89.76,279.56,91.44,279.56Zm-1,4.42c.48,0,1.31.1,1.83.12.27.18.15-3.06-.79-3.21C90.57,280.89,89.94,283.92,90.48,284Z" transform="translate(8.26 -140.42)"/><rect class="cls-1" x="22.06" y="162.71" width="116.39" height="0.75"/><rect class="cls-1" x="5" y="130.71" width="11.51" height="0.75"/><path class="cls-1" d="M24.35,332.66c.12.29.43,1.06-.22,1.35s-1-.58-1.18-.92c-.28-.69-1.12-2.71-2.06-4.89-.07,2-.12,4.32-.07,4.61s.09,1.24-.72,1.24a.65.65,0,0,1-.63-.62c0-.5,0-9.12-.07-12.77,0-1.27.05-2.47.12-3.67,0-.6.34-1.13.79-1.13.65,0,.65,1.1.63,1.54-.07,1.2-.1,3.55-.1,5.61.31-1,.63-1.89.87-2.61.43-1.28.79-2.21,1.27-3.39.14-.38.48-1.32,1.17-1.08s.32,1.3.15,1.73c-.43,1.08-1.71,4.71-2.91,8.16.7,1.56,1.37,3.07,1.85,4.13S24,331.7,24.35,332.66Z" transform="translate(8.26 -140.42)"/><path class="cls-1" d="M30.31,333.93c-1.15,0-1.49-.79-1.69-2a36.33,36.33,0,0,1-.25-4.19c.06-.5-.21-5.91,2-5.91,2,0,2.18,3.07,2.16,6.16a13.37,13.37,0,0,1-.39,4.14A2,2,0,0,1,30.31,333.93Zm-.7-5.89c-.11,3.74.05,4.46.84,4.45,1.06,0,.89-4.7.89-4.7s.22-4.37-.75-4.37C29.94,323.35,29.73,324.22,29.61,328Z" transform="translate(8.26 -140.42)"/><path class="cls-1" d="M38.64,322c1.1,0,2.41.84,2.41,3.08v8c0,.55-.23.93-.46,1s-.75-.21-.75-1.05c0-3.93.4-9.33-1-9.33s-1.2,5.76-1.2,9.74c-.1.88-1,1-1.28,0,0,0,.08-6,.08-7.74C36.42,322.76,37.94,322,38.64,322Z" transform="translate(8.26 -140.42)"/><path class="cls-1" d="M46.06,340.33c-.74,0-.67-.73-.67-2.07,0-.18,0-7.83,0-8.05.12-5.94,0-7.82,1.11-7.93,2.74,0,3.31,3,3.38,5.73,0,1.29-.27,6.07-3.21,6.07-.1.93-.09,3.56-.09,4.59C46.56,339.22,46.74,340.33,46.06,340.33Zm.72-7.49c2.49,0,2.39-9.17.11-9.31A80.85,80.85,0,0,0,46.78,332.84Z" transform="translate(8.26 -140.42)"/><path class="cls-1" d="M56.83,334.08c-2.43,0-3.14-1.06-3.14-3.42,0-1.89.35-3.93,2.62-4h0c0-2.39-.12-3.37-.43-3.4-1.4-.14-.74,2.07-1.62,2-.66-.15-.5-3.48,1.69-3.26,1,.1,1.6,1.7,1.55,3.06C57.62,327.78,57.6,333.92,56.83,334.08Zm-.53-6.25h0v-.11c-2.08,0-2.36,5.28-.12,5.28A26.69,26.69,0,0,0,56.3,327.83Z" transform="translate(8.26 -140.42)"/><path class="cls-1" d="M65.4,325.57c-.88,0-.06-2-1.47-1.82-.31,0-.82,1.25-.82,3.71,0,0,0,4.21-.14,5.72,0,.67-.16.88-.36.88s-.54,0-.6-1.13c-.1-2-.16-4.57-.09-6.61,0-.09,0-.19,0-.3h0v-3.45a.65.65,0,0,1,.66-.66c.51,0,.39.81.39.81v.45a1.4,1.4,0,0,1,.89-.63C66.06,322.33,66.07,325.41,65.4,325.57Z" transform="translate(8.26 -140.42)"/><path class="cls-1" d="M71.63,317.66c0,.81-.09,4.08-.09,4.2s.29,0,.82.08c.35,0,.82.05.82.7,0,.39-.6.48-.81.48h-.9c0,.55,0,9.53,0,9.74,0,.44.06,1.19-.57,1.19a.65.65,0,0,1-.61-.64c0-.2,0-9.63,0-10.3-.39,0-.53,0-.84,0s-.77-.1-.8-.55a.67.67,0,0,1,.77-.67c.67,0,.73.06.85-.07a38.8,38.8,0,0,1,.08-4.31s0-1.43.67-1.43S71.63,316.67,71.63,317.66Z" transform="translate(8.26 -140.42)"/><path class="cls-1" d="M77.76,322c.61,0,.74.77.74.85s-.19.8-.67.8a.77.77,0,0,1-.81-.84C77,322.79,77,322,77.76,322Zm.53,4.07a51.32,51.32,0,0,1-.1,7.3c0,.47-.25.74-.43.74s-.5-.22-.58-.64c-.3-1.54,0-5.26,0-7.37,0-.55.33-.87.57-.87S78.22,325.58,78.29,326.11Z" transform="translate(8.26 -140.42)"/><path class="cls-1" d="M85.21,317.66c0,.81-.08,4.08-.09,4.2s.3,0,.83.08c.34,0,.81.05.82.7,0,.39-.61.48-.82.48h-.89c0,.55,0,9.53,0,9.74,0,.44.06,1.19-.58,1.19a.65.65,0,0,1-.6-.64c0-.2,0-9.63,0-10.3-.38,0-.52,0-.84,0-.16,0-.77-.1-.79-.55a.67.67,0,0,1,.77-.67c.67,0,.73.06.85-.07a39.3,39.3,0,0,1,.07-4.31s0-1.43.67-1.43S85.21,316.67,85.21,317.66Z" transform="translate(8.26 -140.42)"/><path class="cls-1" d="M91.88,322.74c0,4-.09,9.74,1.21,9.74s1-5.4,1-9.33c0-.84.56-1.06.74-1s.46.4.46.95v8c0,2.24-1.3,3.08-2.4,3.08-.71,0-2.23-.72-2.23-3.68,0-1.74-.08-7.74-.08-7.74C90.9,321.74,91.78,321.86,91.88,322.74Z" transform="translate(8.26 -140.42)"/><path class="cls-1" d="M102.11,317.66c0,.81-.09,4.08-.09,4.2s.29,0,.82.08c.35,0,.82.05.82.7,0,.39-.6.48-.81.48H102c0,.55,0,9.53,0,9.74,0,.44.06,1.19-.57,1.19a.65.65,0,0,1-.61-.64c0-.2,0-9.63,0-10.3-.39,0-.53,0-.84,0s-.77-.1-.8-.55a.67.67,0,0,1,.77-.67c.67,0,.73.06.85-.07a38.8,38.8,0,0,1,.08-4.31s0-1.43.67-1.43S102.11,316.67,102.11,317.66Z" transform="translate(8.26 -140.42)"/><path class="cls-1" d="M110.16,334.08c-2.43,0-3.14-1.06-3.14-3.42,0-1.89.35-3.93,2.62-4h0c0-2.39-.12-3.37-.43-3.4-1.4-.14-.74,2.07-1.62,2-.67-.15-.5-3.48,1.69-3.26,1,.1,1.6,1.7,1.55,3.06C111,327.78,110.93,333.92,110.16,334.08Zm-.53-6.25h0v-.11c-2.08,0-2.36,5.28-.12,5.28A27.51,27.51,0,0,0,109.63,327.83Z" transform="translate(8.26 -140.42)"/><path class="cls-1" d="M120.13,332.58c.12.29.43,1.06-.21,1.34s-1-.56-1.17-.91c-.27-.71-1.12-2.72-2-4.9-.07,2-.13,4.33-.07,4.62s.08,1.24-.72,1.24a.65.65,0,0,1-.63-.64c-.06-.49,0-9.11-.08-12.77,0-1.27.06-2.46.12-3.67,0-.58.33-1.12.79-1.11.67,0,.64,1.09.63,1.52-.06,1.19-.08,4.75-.09,6.81.51-.89,1.42-2.19,2-3.35.3-.54.72-1.33,1.39-1.1s.11,1.22-.1,1.74c-.43,1.08-1,2-2.58,4.93.7,1.58,1.19,2.48,1.66,3.52S119.77,331.61,120.13,332.58Z" transform="translate(8.26 -140.42)"/><path class="cls-1" d="M126.14,333.93c-1.15,0-1.49-.79-1.69-2a36.06,36.06,0,0,1-.24-4.19c.05-.5-.22-5.91,2-5.91,2,0,2.17,3.07,2.15,6.16a13,13,0,0,1-.39,4.14A2,2,0,0,1,126.14,333.93Zm-.7-5.89c-.11,3.74,0,4.46.84,4.45,1.06,0,.89-4.7.89-4.7s.22-4.37-.75-4.37C125.77,323.35,125.56,324.22,125.44,328Z" transform="translate(8.26 -140.42)"/><path class="cls-1" d="M144.84,322c1.32,0,2.4,3.33,1.71,5.34-.3.45-2.21.23-2.91.25-.51.05-.36,5,1.11,5.2,1.2-.16.36-2.57,1.62-2.46,1,.09,0,3.77-1.61,3.77-2.5,0-2.5-4.36-2.5-5.87C142.26,325.67,143.16,322,144.84,322Zm-1,4.42c.48.05,1.31.1,1.83.11.27.18.15-3.06-.79-3.2S143.34,326.39,143.88,326.46Z" transform="translate(8.26 -140.42)"/><path class="cls-1" d="M21.32,385.89c0,1.77-1.3,9.79-3.6,9.89-1.88.28-1.49-3.56-1.44-5.31,0-1.58,0-8.28.12-9.79,0-1,.21-2.93,1.48-2.93C19.83,377.75,21.32,381.93,21.32,385.89Zm-1.35.76c.19-2.52-.5-7.6-2.13-7.34.09,3.86-.27,10.27-.29,14.64C19,394.43,19.83,388.91,20,386.65Z" transform="translate(8.26 -140.42)"/><path class="cls-1" d="M26.37,383.76c.61,0,.74.77.74.86s-.19.79-.67.79a.76.76,0,0,1-.8-.84A.74.74,0,0,1,26.37,383.76Zm.53,4.07a52.78,52.78,0,0,1-.09,7.3c0,.47-.25.74-.44.74s-.49-.22-.58-.64c-.3-1.54,0-5.26,0-7.36,0-.56.34-.88.57-.88S26.83,387.3,26.9,387.83Z" transform="translate(8.26 -140.42)"/><path class="cls-1" d="M33.82,379.38c0,.81-.08,4.08-.09,4.2s.3,0,.83.08c.34,0,.82,0,.82.71,0,.38-.61.47-.82.47h-.89c0,.55,0,9.53,0,9.74,0,.44.06,1.19-.58,1.19a.65.65,0,0,1-.6-.64c0-.2,0-9.63,0-10.3l-.85,0c-.16,0-.77-.1-.79-.54a.67.67,0,0,1,.77-.68c.67,0,.73.06.85-.07a38.87,38.87,0,0,1,.08-4.31s0-1.43.67-1.43S33.82,378.39,33.82,379.38Z" transform="translate(8.26 -140.42)"/><path class="cls-1" d="M40.49,384.46c0,4-.09,9.74,1.21,9.74s1-5.4,1-9.33c0-.84.56-1.06.74-1.05s.46.41.46.95v8c0,2.24-1.3,3.08-2.4,3.08-.71,0-2.23-.72-2.23-3.68,0-1.74-.08-7.74-.08-7.74C39.51,383.47,40.39,383.59,40.49,384.46Z" transform="translate(8.26 -140.42)"/><path class="cls-1" d="M53.18,399.93c-.22,1.25-.58,2.08-1.8,2.08-1.91,0-2.45-1.79-2.18-3.77.07-.52.28-.84.54-.82s.54.5.54.92c0,1.43.11,2.14.79,2.15s1-1.12,1-2.95h0c0-.24,0-.86-.14-1.79-3,0-3.25-4.77-3.21-6.06.07-2.76.64-5.74,3.38-5.74,1.16.11,1,2,1.11,7.93C53.21,392.1,53.21,399.75,53.18,399.93Zm-1.5-14.72c-2.28.14-2.38,9.31.11,9.31A80.82,80.82,0,0,0,51.68,385.21Z" transform="translate(8.26 -140.42)"/><path class="cls-1" d="M59.29,384.46c0,4-.1,9.74,1.2,9.74s1-5.4,1-9.33c0-.84.56-1.06.74-1.05s.47.41.47.95v8c0,2.24-1.31,3.08-2.41,3.08-.71,0-2.22-.72-2.22-3.68,0-1.74-.08-7.74-.08-7.74C58.3,383.47,59.18,383.59,59.29,384.46Z" transform="translate(8.26 -140.42)"/><path class="cls-1" d="M69.33,383.76c1.1,0,2.41.84,2.41,3.08v8c0,.55-.23.94-.46.95s-.75-.21-.75-1.05c0-3.93.4-9.33-1-9.33s-1.2,5.76-1.2,9.74c-.1.88-1,1-1.28,0,0,0,.08-6,.08-7.74C67.11,384.48,68.63,383.76,69.33,383.76Z" transform="translate(8.26 -140.42)"/><path class="cls-1" d="M88.24,383.76c1.33,0,2.41,3.34,1.72,5.35-.3.45-2.22.22-2.91.24-.51.06-.36,5,1.1,5.2,1.21-.16.37-2.56,1.63-2.45,1,.08,0,3.76-1.62,3.76-2.49,0-2.49-4.35-2.49-5.87C85.67,387.4,86.57,383.76,88.24,383.76Zm-.95,4.42c.48.05,1.3.1,1.83.12.27.18.15-3.06-.8-3.21C87.38,385.09,86.75,388.12,87.29,388.18Z" transform="translate(8.26 -140.42)"/><path class="cls-1" d="M21.15,423.18c.12.29.43,1.06-.22,1.35s-1-.58-1.17-.91c-.29-.7-1.13-2.72-2.07-4.9-.07,2-.12,4.32-.07,4.61s.1,1.25-.72,1.25a.65.65,0,0,1-.62-.63c-.05-.5-.05-9.12-.07-12.77,0-1.27,0-2.47.12-3.67,0-.6.33-1.13.79-1.13.65,0,.65,1.11.62,1.54-.07,1.2-.09,3.55-.09,5.61.31-1,.62-1.89.86-2.61.43-1.27.79-2.21,1.27-3.39.15-.38.48-1.32,1.18-1.08s.31,1.3.14,1.73c-.43,1.08-1.7,4.71-2.9,8.16.69,1.56,1.37,3.07,1.85,4.13S20.77,422.22,21.15,423.18Z" transform="translate(8.26 -140.42)"/><path class="cls-1" d="M27.11,424.45c-1.14,0-1.48-.78-1.69-2a35.94,35.94,0,0,1-.24-4.19c.05-.5-.22-5.91,2-5.91,2,0,2.17,3.07,2.15,6.17a12.81,12.81,0,0,1-.39,4.14A2,2,0,0,1,27.11,424.45Zm-.69-5.89c-.12,3.74,0,4.46.83,4.45,1.06,0,.89-4.7.89-4.7s.22-4.37-.75-4.37C26.75,413.88,26.53,414.74,26.42,418.56Z" transform="translate(8.26 -140.42)"/><path class="cls-1" d="M35.44,412.56c1.11,0,2.41.84,2.41,3.08v8c0,.55-.23.94-.46.95s-.74-.21-.74-1.05c0-3.93.39-9.33-1-9.33s-1.2,5.76-1.2,9.74c-.1.88-1,1-1.28,0,0,0,.08-6,.08-7.74C33.22,413.28,34.74,412.56,35.44,412.56Z" transform="translate(8.26 -140.42)"/><path class="cls-1" d="M42.86,430.85c-.74,0-.66-.73-.66-2.07,0-.18,0-7.83,0-8,.12-5.93,0-7.82,1.11-7.93,2.75,0,3.31,3,3.39,5.73,0,1.29-.28,6.07-3.21,6.07-.1.93-.09,3.57-.09,4.59C43.36,429.74,43.54,430.85,42.86,430.85Zm.72-7.49c2.49,0,2.4-9.17.12-9.31A80.9,80.9,0,0,0,43.58,423.36Z" transform="translate(8.26 -140.42)"/><path class="cls-1" d="M53.64,424.61c-2.43,0-3.15-1.07-3.15-3.43,0-1.89.35-3.93,2.62-4h0c0-2.39-.12-3.37-.43-3.4-1.41-.14-.74,2.07-1.62,2-.67-.15-.5-3.48,1.69-3.26,1,.1,1.59,1.7,1.55,3.06C54.42,418.3,54.41,424.44,53.64,424.61Zm-.54-6.25h0v-.05a.13.13,0,0,1,0-.06c-2.08,0-2.36,5.28-.12,5.28A26.57,26.57,0,0,0,53.1,418.36Z" transform="translate(8.26 -140.42)"/><path class="cls-1" d="M62.21,416.09c-.88,0-.07-2-1.47-1.82-.31,0-.82,1.25-.82,3.71,0,0,0,4.21-.14,5.72-.06.67-.17.88-.36.88s-.54,0-.6-1.13c-.1-2-.17-4.57-.09-6.61a2.8,2.8,0,0,1,0-.29h0V413.1a.65.65,0,0,1,.66-.66c.51,0,.39.81.39.81v.45a1.44,1.44,0,0,1,.9-.63C62.87,412.85,62.88,415.93,62.21,416.09Z" transform="translate(8.26 -140.42)"/><path class="cls-1" d="M68.43,408.18c0,.81-.08,4.08-.09,4.2s.3,0,.83.08c.34,0,.81.05.82.71,0,.38-.61.47-.82.47h-.89c0,.55,0,9.53,0,9.74,0,.44.06,1.19-.58,1.19a.64.64,0,0,1-.6-.64c0-.2,0-9.63,0-10.3l-.84,0c-.16,0-.77-.1-.79-.55a.67.67,0,0,1,.77-.67c.66,0,.73.06.84-.07a41.53,41.53,0,0,1,.08-4.31s0-1.43.67-1.43S68.43,407.19,68.43,408.18Z" transform="translate(8.26 -140.42)"/><path class="cls-1" d="M74.56,412.56c.61,0,.74.77.74.86s-.18.79-.66.79a.77.77,0,0,1-.81-.84C73.83,413.31,73.83,412.56,74.56,412.56Zm.53,4.07a51.26,51.26,0,0,1-.09,7.3c0,.47-.25.74-.43.74s-.5-.22-.59-.64c-.3-1.54,0-5.26,0-7.36,0-.56.33-.88.57-.88S75,416.1,75.09,416.63Z" transform="translate(8.26 -140.42)"/><path class="cls-1" d="M82,408.18c0,.81-.09,4.08-.1,4.2s.3,0,.83.08c.34,0,.82.05.82.71,0,.38-.6.47-.82.47h-.89c0,.55,0,9.53,0,9.74,0,.44.06,1.19-.57,1.19a.65.65,0,0,1-.61-.64c0-.2,0-9.63,0-10.3l-.84,0c-.17,0-.77-.1-.8-.55a.67.67,0,0,1,.77-.67c.67,0,.73.06.85-.07a38.87,38.87,0,0,1,.08-4.31s0-1.43.67-1.43S82,407.19,82,408.18Z" transform="translate(8.26 -140.42)"/><path class="cls-1" d="M88.69,413.26c0,4-.1,9.74,1.2,9.74s1-5.4,1-9.33c0-.84.56-1.06.74-1.05s.47.41.47.95v8c0,2.24-1.31,3.08-2.41,3.08-.71,0-2.22-.72-2.22-3.68,0-1.74-.08-7.74-.08-7.74C87.7,412.27,88.58,412.39,88.69,413.26Z" transform="translate(8.26 -140.42)"/><path class="cls-1" d="M98.91,408.18c0,.81-.08,4.08-.09,4.2s.3,0,.83.08c.34,0,.81.05.82.71,0,.38-.61.47-.82.47h-.89c0,.55,0,9.53,0,9.74,0,.44.06,1.19-.58,1.19a.64.64,0,0,1-.6-.64c0-.2,0-9.63,0-10.3l-.84,0c-.16,0-.77-.1-.79-.55a.67.67,0,0,1,.77-.67c.66,0,.73.06.84-.07a41.53,41.53,0,0,1,.08-4.31s0-1.43.67-1.43S98.91,407.19,98.91,408.18Z" transform="translate(8.26 -140.42)"/><path class="cls-1" d="M107,424.61c-2.43,0-3.14-1.07-3.14-3.43,0-1.89.35-3.93,2.62-4h0c0-2.39-.13-3.37-.44-3.4-1.4-.14-.73,2.07-1.61,2-.67-.15-.5-3.48,1.69-3.26,1,.1,1.59,1.7,1.55,3.06C107.75,418.3,107.74,424.44,107,424.61Zm-.53-6.25h0v-.11c-2.08,0-2.36,5.28-.12,5.28A26.57,26.57,0,0,0,106.43,418.36Z" transform="translate(8.26 -140.42)"/><path class="cls-1" d="M116.93,423.1c.13.29.44,1.06-.21,1.34s-1-.56-1.16-.9c-.27-.72-1.12-2.73-2.06-4.91-.07,2-.12,4.33-.07,4.62s.09,1.24-.72,1.24a.65.65,0,0,1-.63-.63c0-.5,0-9.12-.07-12.78,0-1.27,0-2.46.11-3.67,0-.58.33-1.12.8-1.11.66,0,.64,1.09.62,1.52-.06,1.19-.08,4.75-.09,6.81.51-.89,1.42-2.18,2-3.35.3-.54.73-1.32,1.39-1.1s.12,1.22-.09,1.74c-.44,1.08-1,2-2.59,4.93.71,1.58,1.19,2.48,1.66,3.52S116.57,422.13,116.93,423.1Z" transform="translate(8.26 -140.42)"/><path class="cls-1" d="M122.94,424.45c-1.14,0-1.48-.78-1.69-2a35.94,35.94,0,0,1-.24-4.19c0-.5-.22-5.91,2-5.91,2,0,2.18,3.07,2.15,6.17a12.81,12.81,0,0,1-.39,4.14A2,2,0,0,1,122.94,424.45Zm-.69-5.89c-.12,3.74,0,4.46.83,4.45,1.06,0,.89-4.7.89-4.7s.22-4.37-.75-4.37C122.58,413.88,122.36,414.74,122.25,418.56Z" transform="translate(8.26 -140.42)"/><path class="cls-1" d="M141.64,412.56c1.33,0,2.41,3.34,1.72,5.35-.3.45-2.22.22-2.91.24-.51.06-.37,5,1.1,5.2,1.21-.16.37-2.56,1.63-2.45,1,.08,0,3.76-1.62,3.76-2.49,0-2.49-4.35-2.49-5.87C139.07,416.2,140,412.56,141.64,412.56Zm-.95,4.42c.48,0,1.3.1,1.83.12.27.18.15-3.06-.8-3.21C140.78,413.89,140.15,416.92,140.69,417Z" transform="translate(8.26 -140.42)"/><rect class="cls-1" x="21.72" y="297.21" width="139.07" height="0.75"/><rect class="cls-1" y="263.71" width="11.51" height="0.75"/><path class="cls-1" d="M22.31,447.69c.63,1.08.53,3,.65,4.49.19,2.64.48,5.47.53,8.16,0,2.07.57,5.16-.22,5.16-.69.17-.62-1.77-.72-2.88s-.14-2.4-.31-3.41a2.58,2.58,0,0,0-1.06,0c-.12.74-.16,2.13-.33,2.95-.22,1.06-.24,3.31-.77,3.31s-.65-.48-.67-1,.36-2.73.55-4.08.69-7.15,1-9.07a14,14,0,0,1,.91-3.79C22.14,447.4,22.26,447.55,22.31,447.69Zm0,10.49a30.67,30.67,0,0,0-.36-4c-.24,1.41-.52,2.85-.6,4C21.64,458.18,21.93,458.16,22.26,458.18Z" transform="translate(8.26 -140.42)"/><path class="cls-1" d="M32.48,463.1c0,1.26-.58,2.39-1.78,2.39-1.42,0-2.15-1-2.15-3,0-.51.28-1.07.54-1.05s.52.5.52.91c0,1.41.36,1.87,1,1.88s.8-1,.69-1.81c-.24-1.88-2.82-3.18-2.82-6.58,0-1.25.58-2.38,1.78-2.38,1.7,0,2.14,1.35,2.14,3.24,0,.52-.27.83-.53.81s-.52-.5-.52-.91c0-1-.12-1.63-.78-1.64s-1.08,1.19-.79,2.55S32.49,460.13,32.48,463.1Z" transform="translate(8.26 -140.42)"/><path class="cls-1" d="M42.2,464c.13.29.44,1.06-.21,1.34s-1-.56-1.16-.91c-.27-.71-1.12-2.72-2.06-4.9-.07,2-.12,4.32-.07,4.62s.09,1.24-.72,1.24a.66.66,0,0,1-.63-.64c-.05-.49-.05-9.11-.07-12.77,0-1.27,0-2.46.11-3.67,0-.58.33-1.12.8-1.11.66,0,.64,1.09.62,1.52-.06,1.18-.08,4.75-.09,6.81.51-.89,1.42-2.19,2-3.35.3-.54.72-1.33,1.39-1.1s.12,1.22-.09,1.74c-.44,1.08-1,2-2.59,4.93.71,1.58,1.19,2.48,1.66,3.52S41.84,463,42.2,464Z" transform="translate(8.26 -140.42)"/><path class="cls-1" d="M49.34,453.44c1.33,0,2.41,3.33,1.72,5.34-.3.45-2.22.23-2.91.25-.51.05-.36,5,1.11,5.2,1.2-.17.36-2.57,1.62-2.46,1,.09,0,3.77-1.62,3.77-2.49,0-2.49-4.36-2.49-5.87C46.77,457.07,47.67,453.44,49.34,453.44Zm-1,4.42c.48.05,1.3.1,1.83.11.27.18.15-3.06-.8-3.2S47.85,457.79,48.39,457.86Z" transform="translate(8.26 -140.42)"/><path class="cls-1" d="M64.62,448.74c0,.53.07,7,0,8.91-.11,5.94-.18,7.82-1.35,7.93-1.46,0-2.82-1.29-2.9-4.05A4.9,4.9,0,0,1,61,458.8a4.72,4.72,0,0,1,1.34-1.65,8.34,8.34,0,0,1,1-.73c.22-2,0-7,0-7.4,0-.94.27-1.34.61-1.34C64.49,447.68,64.6,448.17,64.62,448.74Zm-1.5,15.59a37,37,0,0,0,.12-6.19C60.91,458.93,60.84,464.19,63.12,464.33Z" transform="translate(8.26 -140.42)"/><path class="cls-1" d="M72.12,465.48c-2.43,0-3.14-1.06-3.14-3.42,0-1.89.35-3.93,2.62-4h0c0-2.39-.12-3.37-.43-3.4-1.4-.14-.74,2.07-1.62,2-.67-.16-.5-3.48,1.69-3.26,1,.1,1.6,1.7,1.55,3.06C72.9,459.18,72.89,465.32,72.12,465.48Zm-.54-6.25h0v-.05a.13.13,0,0,0,0-.06c-2.07,0-2.35,5.28-.11,5.28A26.67,26.67,0,0,0,71.58,459.23Z" transform="translate(8.26 -140.42)"/><path class="cls-1" d="M78.44,454.14c0,4-.1,9.74,1.21,9.74s1-5.4,1-9.33c0-.84.56-1.06.74-1.05s.46.4.46.95v8c0,2.24-1.3,3.08-2.41,3.08-.7,0-2.22-.72-2.22-3.68,0-1.74-.08-7.74-.08-7.74C77.46,453.14,78.34,453.26,78.44,454.14Z" transform="translate(8.26 -140.42)"/><path class="cls-1" d="M90.9,448.74c0,.53.07,7,0,8.91-.11,5.94-.18,7.82-1.35,7.93-1.46,0-2.82-1.29-2.9-4.05a4.9,4.9,0,0,1,.58-2.73,4.72,4.72,0,0,1,1.34-1.65,8.34,8.34,0,0,1,1.05-.73c.22-2,0-7,0-7.4,0-.94.27-1.34.61-1.34C90.77,447.68,90.88,448.17,90.9,448.74Zm-1.5,15.59a37,37,0,0,0,.12-6.19C87.19,458.93,87.12,464.19,89.4,464.33Z" transform="translate(8.26 -140.42)"/><path class="cls-1" d="M98.32,453.44c1.33,0,2.41,3.33,1.72,5.34-.3.45-2.21.23-2.91.25-.51.05-.36,5,1.11,5.2,1.2-.17.36-2.57,1.62-2.46,1,.09,0,3.77-1.62,3.77-2.49,0-2.49-4.36-2.49-5.87C95.75,457.07,96.65,453.44,98.32,453.44Zm-.95,4.42c.48.05,1.3.1,1.83.11.27.18.15-3.06-.79-3.2S96.83,457.79,97.37,457.86Z" transform="translate(8.26 -140.42)"/><path class="cls-1" d="M106.39,453.44c1.1,0,2.41.84,2.41,3.08v8c0,.55-.23.93-.46.95s-.75-.21-.75-1.05c0-3.93.4-9.33-1-9.33s-1.2,5.76-1.2,9.74c-.1.88-1,1-1.28,0,0,0,.08-6,.08-7.74C104.17,454.16,105.69,453.44,106.39,453.44Z" transform="translate(8.26 -140.42)"/><path class="cls-1" d="M125.3,453.44c1.33,0,2.41,3.33,1.72,5.34-.3.45-2.22.23-2.91.25-.51.05-.36,5,1.1,5.2,1.21-.17.37-2.57,1.63-2.46,1,.09,0,3.77-1.62,3.77-2.49,0-2.49-4.36-2.49-5.87C122.73,457.07,123.63,453.44,125.3,453.44Zm-1,4.42c.48.05,1.3.1,1.83.11.27.18.15-3.06-.8-3.2S123.81,457.79,124.35,457.86Z" transform="translate(8.26 -140.42)"/><path class="cls-2" d="M300.14,174.45c0-1-.15-14.06-.05-18,.24-12,.34-15.79,2.59-16,2.79,0,5.38,2.64,5.52,8.21a11,11,0,0,1-1.1,5.52,9.33,9.33,0,0,1-2.55,3.31,16.69,16.69,0,0,1-2,1.44c-.43,4.13,0,14.21,0,15,0,1.88-.48,2.69-1.16,2.69C300.38,176.61,300.19,175.6,300.14,174.45ZM303,143a77.32,77.32,0,0,0-.24,12.48C307.19,153.91,307.34,143.25,303,143Z" transform="translate(8.26 -140.42)"/><path class="cls-2" d="M326,143.73c-.24,4.46-.33,29.91-.24,30.53-.14.62.15,2.45-1.44,2.45a1.28,1.28,0,0,1-1.24-1.25c-.05-.53-.1-5.28-.1-11,0-.48-4.08-.43-4.13,0-.14,4.08-.24,9.27-.14,9.89-.15.62.14,2.45-1.44,2.45a1.3,1.3,0,0,1-1.25-1.25c-.1-1-.1-18.05-.14-25.3,0-2.49.09-4.85.24-7.25.09-1.15.67-2.21,1.58-2.21,1.34,0,1.3,2.16,1.25,2.93-.2,4.18-.2,15.7-.2,18.1.15.34,4.23.34,4.28.14,0-4.41,0-8.83,0-11.76-.05-2.49,0-4.36.19-6.77,0-.71.05-2.64,1.44-2.64S326.05,142.86,326,143.73Z" transform="translate(8.26 -140.42)"/><path class="cls-2" d="M332.16,166.34a10.65,10.65,0,0,1,5.52-1.49c4.12,0,5.85,2.21,5.85,4.51,0,1.92-1.39,3.56-3.69,4.32v.1c2.64.38,4.46,2.21,4.46,4.66,0,3-2.69,5.61-7.58,5.61a10.64,10.64,0,0,1-5.48-1.34l.87-2.4a9,9,0,0,0,4.46,1.25c2.93,0,4.23-1.73,4.18-3.22,0-2.4-2.55-3.36-5.09-3.36h-1.3v-2.21h1.35c1.77,0,4.32-.81,4.37-3.07,0-1.15-.87-2.35-3-2.35a7.81,7.81,0,0,0-4.08,1.24Z" transform="translate(8.26 -140.42)"/><path class="cls-2" d="M449.66,175.6c0-.52-.08-7,0-9,.12-6,.17-7.89,1.3-8,1.39,0,2.69,1.32,2.76,4.1a5.58,5.58,0,0,1-.55,2.76,4.67,4.67,0,0,1-1.28,1.66,8.86,8.86,0,0,1-1,.72c-.22,2.06,0,7.1,0,7.51,0,.94-.24,1.34-.58,1.34C449.78,176.68,449.68,176.18,449.66,175.6Zm1.44-15.72a37.56,37.56,0,0,0-.12,6.24C453.18,165.33,453.26,160,451.1,159.88Z" transform="translate(8.26 -140.42)"/><path class="cls-2" d="M486.47,175.32c.12.28.44,1.05-.21,1.34s-1-.58-1.18-.91c-.29-.7-1.13-2.71-2.06-4.9-.07,2-.12,4.32-.07,4.61s.09,1.25-.72,1.25a.65.65,0,0,1-.63-.63c-.05-.5-.05-9.12-.07-12.77,0-1.27.05-2.47.12-3.67,0-.6.34-1.13.79-1.13.65,0,.65,1.11.63,1.54-.08,1.2-.1,3.55-.1,5.62.31-1,.62-1.9.86-2.62.44-1.27.8-2.21,1.28-3.38.14-.39.48-1.32,1.17-1.08s.31,1.29.15,1.72c-.44,1.08-1.71,4.71-2.91,8.16.7,1.57,1.37,3.08,1.85,4.13S486.09,174.36,486.47,175.32Z" transform="translate(8.26 -140.42)"/><path class="cls-2" d="M490.51,175c.51,0,.67.47.67.85a.9.9,0,0,1-.71.85c-.5,0-.69-.46-.69-.85A.81.81,0,0,1,490.51,175Z" transform="translate(8.26 -140.42)"/><path class="cls-2" d="M497.33,164.69c1.33,0,2.41,3.34,1.72,5.35-.3.45-2.21.22-2.91.24-.51.06-.36,5,1.11,5.2,1.2-.16.36-2.56,1.62-2.45,1,.08,0,3.76-1.62,3.76-2.49,0-2.49-4.35-2.49-5.87C494.76,168.33,495.66,164.69,497.33,164.69Zm-.95,4.42c.48,0,1.3.1,1.83.12.27.18.15-3.06-.79-3.21S495.84,169.05,496.38,169.11Z" transform="translate(8.26 -140.42)"/><path class="cls-2" d="M504.31,163.51c.51,0,.67.47.67.85a.89.89,0,0,1-.71.85c-.5,0-.69-.45-.69-.84A.81.81,0,0,1,504.31,163.51Zm0,9.37c.51,0,.67.46.67.84a.89.89,0,0,1-.71.85c-.5,0-.69-.45-.69-.84A.8.8,0,0,1,504.31,172.88Z" transform="translate(8.26 -140.42)"/><path class="cls-2" d="M524.21,162.8c0,1.17,0,3.49-1.59,4.71,2.58,1.29,2.25,9.15-.64,9.15-2.17,0-2.64-1.85-2.64-4A.7.7,0,0,1,520,172a.82.82,0,0,1,.63.54c.12,1.81.3,2.39,1.2,2.39s1-1.72,1-3.62a3.17,3.17,0,0,0-1.56-2.9,1.41,1.41,0,0,1-.63-1.15c0-.42.22-.66.84-.82,1.09-.3,1.38-1.92,1.33-3-.07-1.66-.08-3.48-1-3.48-.33,0-.71.19-.86,1.44a.8.8,0,0,1-.78.68c-.22,0-.57-.26-.54-.92,0-2.21,1.13-2.58,2.19-2.58C523.6,158.57,524.17,161.15,524.21,162.8Z" transform="translate(8.26 -140.42)"/><path class="cls-2" d="M533.15,174.36c0,1.25-.58,2.38-1.78,2.38-1.41,0-2.15-1-2.15-3,0-.52.28-1.08.54-1.06s.52.5.52.91c0,1.42.36,1.87,1,1.88s.8-1,.7-1.81c-.24-1.87-2.83-3.17-2.83-6.58,0-1.25.58-2.38,1.78-2.38,1.71,0,2.15,1.36,2.15,3.24,0,.52-.28.84-.54.82s-.52-.5-.52-.91c0-1-.12-1.63-.78-1.64s-1.08,1.18-.78,2.54S533.16,171.39,533.15,174.36Z" transform="translate(8.26 -140.42)"/><path class="cls-2" d="M535.84,165.23l1.51-1.39c2-1.82,3-3,3-4.17a1.62,1.62,0,0,0-1.83-1.66,3.5,3.5,0,0,0-2,.74l-.51-1.1a4.8,4.8,0,0,1,2.93-1c2.25,0,3.19,1.44,3.19,2.71,0,1.83-1.37,3.15-3.19,4.73l-.75.67v.05h4.11v1.32h-6.48Z" transform="translate(8.26 -140.42)"/><path class="cls-2" d="M555.07,162.8c0,1.17,0,3.49-1.59,4.71,2.58,1.29,2.25,9.15-.63,9.15-2.18,0-2.64-1.85-2.64-4a.69.69,0,0,1,.63-.66.85.85,0,0,1,.64.54c.12,1.81.29,2.39,1.19,2.39s1-1.72,1.05-3.62a3.17,3.17,0,0,0-1.57-2.9,1.41,1.41,0,0,1-.63-1.15c0-.42.22-.66.85-.82,1.08-.3,1.37-1.92,1.32-3-.07-1.66-.07-3.48-1-3.48-.33,0-.71.19-.86,1.44a.8.8,0,0,1-.77.68c-.23,0-.58-.26-.55-.92,0-2.21,1.13-2.58,2.2-2.58C554.46,158.57,555,161.15,555.07,162.8Z" transform="translate(8.26 -140.42)"/><path class="cls-2" d="M560.72,183c-.74,0-.66-.72-.66-2.07,0-.18,0-7.83,0-8,.12-5.93,0-7.82,1.11-7.93,2.75,0,3.31,3,3.39,5.74,0,1.28-.28,6.06-3.21,6.06-.1.93-.09,3.57-.09,4.59C561.22,181.88,561.4,183,560.72,183Zm.72-7.48c2.49,0,2.4-9.18.11-9.31A80.82,80.82,0,0,0,561.44,175.5Z" transform="translate(8.26 -140.42)"/><path class="cls-2" d="M567.11,157.41a5.31,5.31,0,0,1,2.76-.77c2.06,0,2.93,1.11,2.93,2.28a2.41,2.41,0,0,1-1.85,2.16v0a2.36,2.36,0,0,1,2.23,2.3c0,1.49-1.34,2.81-3.79,2.81a5.25,5.25,0,0,1-2.74-.65l.44-1.2a4.75,4.75,0,0,0,2.23.63c1.46,0,2.11-.87,2.09-1.61,0-1.22-1.28-1.7-2.55-1.7h-.65V160.6h.68c.88,0,2.16-.41,2.18-1.51,0-.6-.43-1.2-1.51-1.2a3.77,3.77,0,0,0-2,.65Z" transform="translate(8.26 -140.42)"/><path class="cls-2" d="M454,189c-.12,2.23-.17,15-.12,15.27s.07,1.22-.72,1.22a.65.65,0,0,1-.63-.62c0-.27,0-2.64,0-5.52,0-.24-2.05-.22-2.07,0-.07,2-.12,4.64-.07,4.95s.07,1.22-.72,1.22a.65.65,0,0,1-.63-.62c0-.51,0-9-.07-12.65,0-1.25.05-2.43.12-3.63.05-.57.34-1.1.79-1.1.68,0,.65,1.08.63,1.46-.1,2.09-.1,7.85-.1,9a6,6,0,0,0,2.14.08c0-2.21,0-4.42,0-5.89,0-1.24,0-2.18.09-3.38,0-.36,0-1.32.72-1.32S454,188.61,454,189Z" transform="translate(8.26 -140.42)"/><path class="cls-2" d="M487.71,204.12c.12.28.43,1-.22,1.34s-1-.58-1.18-.91c-.28-.7-1.12-2.72-2.06-4.9-.07,2-.12,4.32-.07,4.61s.09,1.25-.72,1.25a.65.65,0,0,1-.63-.63c0-.5,0-9.12-.07-12.77,0-1.27.05-2.47.12-3.67,0-.6.34-1.13.79-1.13.65,0,.65,1.11.63,1.54-.07,1.2-.1,3.55-.1,5.62.31-1,.63-1.9.87-2.62.43-1.27.79-2.21,1.27-3.38.14-.39.48-1.32,1.17-1.08s.32,1.29.15,1.72c-.43,1.08-1.71,4.71-2.91,8.16.7,1.56,1.37,3.08,1.85,4.13S487.32,203.16,487.71,204.12Z" transform="translate(8.26 -140.42)"/><path class="cls-2" d="M491.74,203.81c.51,0,.67.47.67.85a.9.9,0,0,1-.71.85c-.5,0-.69-.46-.69-.85A.81.81,0,0,1,491.74,203.81Z" transform="translate(8.26 -140.42)"/><path class="cls-2" d="M498.56,193.49c1.33,0,2.41,3.34,1.72,5.35-.3.45-2.21.22-2.91.24-.51.06-.36,5,1.11,5.2,1.2-.16.36-2.56,1.62-2.45,1,.08,0,3.76-1.62,3.76-2.49,0-2.49-4.35-2.49-5.87C496,197.13,496.89,193.49,498.56,193.49Zm-.95,4.42c.48.05,1.31.1,1.83.12.27.18.15-3.06-.79-3.21C497.7,194.82,497.07,197.85,497.61,197.91Z" transform="translate(8.26 -140.42)"/><path class="cls-2" d="M519.83,205.59c-.25,0-.54-.15-.59-.59s0-15.23,0-16.43c.05-.77.23-1.08.75-1.08.68,0,.63,1.09.62,1.52,0,2.21-.17,15-.12,15.31C520.66,205.53,519.88,205.59,519.83,205.59Z" transform="translate(8.26 -140.42)"/><path class="cls-2" d="M529.44,203.16c0,1.25-.58,2.38-1.78,2.38-1.42,0-2.15-1-2.15-3,0-.52.28-1.08.53-1.06s.53.5.53.91c0,1.42.36,1.87,1,1.88s.8-1,.69-1.81c-.24-1.87-2.82-3.17-2.82-6.58,0-1.25.58-2.38,1.78-2.38,1.7,0,2.14,1.36,2.14,3.24,0,.52-.27.84-.53.82s-.52-.5-.52-.91c0-1-.12-1.63-.79-1.64s-1.07,1.18-.78,2.54S529.45,200.19,529.44,203.16Z" transform="translate(8.26 -140.42)"/><path class="cls-2" d="M534.41,199.17v-7.9h0l-1.73.84-.26-1.24,2.25-1.06h1.47v9.36Z" transform="translate(8.26 -140.42)"/><path class="cls-2" d="M253.49,262.2c-.12-.53-.07-7.23-.05-9.2.12-6,.17-7.92,1.27-8,1.37,0,2.67,1.32,2.74,4.1a5.58,5.58,0,0,1-.55,2.76,5.22,5.22,0,0,1-1.25,1.68c1.2.34,2.09,2.43,2,4.42-.09,1.82-.77,5.28-3,5.13C254,263,253.63,262.89,253.49,262.2Zm1.18-7.57c-.22,2-.44,7.18,0,7.11C257,261.57,257.07,254.66,254.67,254.63Zm.24-8.37a33.88,33.88,0,0,0-.12,6.26C257,251.73,257,246.4,254.91,246.26Z" transform="translate(8.26 -140.42)"/><path class="cls-2" d="M262.69,249.92c.51,0,.67.46.67.84a.88.88,0,0,1-.7.85c-.51,0-.7-.45-.7-.84A.81.81,0,0,1,262.69,249.92Zm0,9.36c.51,0,.67.46.67.84a.88.88,0,0,1-.7.85c-.51,0-.7-.45-.7-.84A.81.81,0,0,1,262.69,259.28Z" transform="translate(8.26 -140.42)"/><path class="cls-2" d="M278.12,262.36c0,.47-.59.84-1.82.81,0,0-1.6-.05-3,0-.68,0-.25-1.43-.15-2.08h0c.21-1.23,2-6.16,2.19-7.58,0,0,2.76-7,.9-7-.71,0-1.54.61-1.87,2.08a.81.81,0,0,1-.95.46,1.62,1.62,0,0,1-.24-1.67,3.37,3.37,0,0,1,3.4-2.31c2.28,0,1.46,4.26,1.45,4.41-.25.63-3.13,10.6-3.35,12.1a12.08,12.08,0,0,0,1.62-.06C276.4,261.61,278.12,261.44,278.12,262.36Z" transform="translate(8.26 -140.42)"/><path class="cls-2" d="M297,253.6c0,.82-1.09.76-1.52.74-.71,0-1.54,0-2.36,0,0,1.06,0,2,0,2.37,0,1-.46,1.27-.83,1.27s-.7-.45-.7-1.31c0-.22,0-1.18,0-2.31l-2.57.05c-1,0-1.27-.47-1.27-.83s.45-.71,1.32-.71h2.53c0-1.08,0-2.08,0-2.55,0-.87.08-1.56.7-1.56.81,0,.75,1.09.74,1.52,0,.78,0,1.69,0,2.59,1,0,1.91,0,2.36,0C296.29,252.91,297,253,297,253.6Z" transform="translate(8.26 -140.42)"/><path class="cls-2" d="M310.91,258.16a9.27,9.27,0,0,1-.38,3.45,1.9,1.9,0,0,1-1.84,1.46c-3.14,0-2-7.5-1.42-9.68l.81-3.64c.23-1.09.49-2.1.76-3.12h0c.2-.63.16-1.37,1.07-1.37.4,0,.56.37.48,1.09l-1,4.51-.48,2.16C310.79,253.11,310.94,255.62,310.91,258.16Zm-1.18-.21s.22-3.64-.75-3.64c-.65-.06-.87.67-1,3.85s.05,3.72.83,3.71C309.89,261.87,309.73,258,309.73,258Z" transform="translate(8.26 -140.42)"/><path class="cls-2" d="M329.67,253.6c0,.82-1.09.76-1.52.74-.71,0-1.54,0-2.36,0,0,1.06,0,2,0,2.37,0,1-.46,1.27-.83,1.27s-.71-.45-.71-1.31v-2.31l-2.57.05c-1,0-1.27-.47-1.27-.83s.45-.71,1.31-.71h2.53c0-1.08,0-2.08,0-2.55,0-.87.08-1.56.69-1.56.82,0,.76,1.09.75,1.52,0,.78,0,1.69,0,2.59,1,0,1.91,0,2.36,0C329,252.91,329.67,253,329.67,253.6Z" transform="translate(8.26 -140.42)"/><path class="cls-2" d="M344.13,249.2c0,1.17,0,3.48-1.59,4.71,2.58,1.3,2.25,9.15-.64,9.15-2.17,0-2.64-1.85-2.64-4a.7.7,0,0,1,.64-.65.8.8,0,0,1,.63.54c.12,1.81.3,2.39,1.2,2.39s1-1.72,1-3.62a3.17,3.17,0,0,0-1.56-2.9,1.41,1.41,0,0,1-.63-1.15c0-.42.21-.65.84-.82,1.09-.3,1.37-1.92,1.33-3-.07-1.66-.08-3.48-1-3.48-.33,0-.71.19-.87,1.44a.78.78,0,0,1-.77.68c-.22,0-.57-.26-.54-.92,0-2.21,1.13-2.58,2.19-2.58C343.52,245,344.08,247.55,344.13,249.2Z" transform="translate(8.26 -140.42)"/><path class="cls-2" d="M347.74,256.84a1.43,1.43,0,1,1,1.42,1.52A1.41,1.41,0,0,1,347.74,256.84Z" transform="translate(8.26 -140.42)"/><path class="cls-2" d="M359.23,262.36c0,.47-.58.84-1.81.81,0,0-1.61-.05-3,0-.68,0-.25-1.43-.15-2.08h0c.21-1.23,2-6.16,2.19-7.58,0,0,2.76-7,.9-7-.71,0-1.54.61-1.87,2.08a.81.81,0,0,1-.95.46,1.62,1.62,0,0,1-.24-1.67,3.37,3.37,0,0,1,3.4-2.31c2.28,0,1.46,4.26,1.45,4.41-.26.63-3.13,10.6-3.35,12.1a12.08,12.08,0,0,0,1.62-.06C357.52,261.61,359.24,261.44,359.23,262.36Z" transform="translate(8.26 -140.42)"/><path class="cls-2" d="M368.88,252.28c0-.3.45-.7,1.32-.7.49,0,4.67,0,5.87,0,.86,0,1.55.08,1.55.7,0,.81-1.09.75-1.52.74-2.2-.07-5.05.05-6,.05S368.88,252.65,368.88,252.28Zm0,3.35c0-.31.45-.71,1.32-.71.49,0,4.67,0,5.87.05.86,0,1.55.07,1.55.69,0,.81-1.09.76-1.52.74-2.2-.07-5.05.06-6,.06S368.88,256,368.88,255.63Z" transform="translate(8.26 -140.42)"/><path class="cls-2" d="M387.84,263.19c-.25,0-.55-.15-.59-.59s0-15.23,0-16.43c.06-.77.23-1.08.75-1.08.69,0,.64,1.09.63,1.52-.06,2.21-.17,15-.12,15.31C388.66,263.13,387.88,263.19,387.84,263.19Z" transform="translate(8.26 -140.42)"/><path class="cls-2" d="M398.59,246.64c-.06,2.2-.13,14.41-.13,15.31s-.2,1.27-.55,1.27-.66-.45-.66-1.31c0-.23,0-3.06,0-6.24-1.39,0-2.26,0-2.86,0s-.92-.41-.92-.74v-8.39c0-1,.32-1.25.69-1.25s.61.43.61,1.29c0,.5-.06,7.46-.1,7.71.57,0,1.94-.08,2.58-.06,0-3.48,0-7,.05-7.55,0-.86,0-1.55.6-1.55C398.66,245.12,398.6,246.21,398.59,246.64Z" transform="translate(8.26 -140.42)"/><path class="cls-2" d="M576.78,263.19c-.25,0-.54-.15-.59-.59s0-15.23,0-16.43c0-.77.23-1.08.75-1.08.68,0,.63,1.09.62,1.52-.05,2.21-.17,15-.12,15.31C577.61,263.13,576.83,263.19,576.78,263.19Z" transform="translate(8.26 -140.42)"/><path class="cls-2" d="M587.53,246.64c-.06,2.2-.13,14.41-.13,15.31s-.2,1.27-.54,1.27-.67-.45-.67-1.31c0-.23,0-3.06,0-6.24-1.4,0-2.26,0-2.87,0s-.91-.41-.91-.74v-8.39c0-1,.32-1.25.68-1.25s.61.43.61,1.29c0,.5-.05,7.46-.1,7.71.57,0,1.94-.08,2.59-.06,0-3.48,0-7,0-7.55,0-.86,0-1.55.6-1.55C587.6,245.12,587.55,246.21,587.53,246.64Z" transform="translate(8.26 -140.42)"/><path class="cls-2" d="M256.28,290.71c.77,0,1.34.07,1.34.53,0,.67-.79.74-1.63.69l-1.92-.05c-.26,0-.55-.14-.6-.6s-.05-9-.07-12.67c0-1.25.1-3.17.14-4.37,0-.6,1.52-.29,3.17-.36.19,0,.89.1.91.55s-.33.7-.88.68c-1.06,0-1.85-.15-1.88.28-.21,2.14-.07,7.8-.07,9-.12.2,1,.17,1.37.17a.61.61,0,0,1,.67.58c-.09.38-.57.45-.89.45s-1.15-.07-1.1.24c-.05,2.05-.12,4.47-.05,4.78S255.58,290.73,256.28,290.71Z" transform="translate(8.26 -140.42)"/><path class="cls-2" d="M262.67,278.71c.51,0,.67.47.67.85a.89.89,0,0,1-.71.85c-.5,0-.69-.45-.69-.84A.81.81,0,0,1,262.67,278.71Zm0,9.37c.51,0,.67.46.67.84a.89.89,0,0,1-.71.85c-.5,0-.69-.45-.69-.84A.8.8,0,0,1,262.67,288.08Z" transform="translate(8.26 -140.42)"/><path class="cls-2" d="M278.09,291.16c0,.47-.58.84-1.82.81,0,0-1.6-.05-3,0-.68,0-.25-1.43-.15-2.08h0c.21-1.23,2-6.16,2.19-7.58,0,0,2.76-7,.9-7-.71,0-1.54.61-1.87,2.08a.82.82,0,0,1-.95.46,1.62,1.62,0,0,1-.24-1.67,3.38,3.38,0,0,1,3.4-2.32c2.28,0,1.46,4.27,1.45,4.42-.26.63-3.14,10.6-3.35,12.1a12.14,12.14,0,0,0,1.62-.06C276.37,290.41,278.09,290.24,278.09,291.16Z" transform="translate(8.26 -140.42)"/><path class="cls-2" d="M297,282.4c0,.81-1.09.76-1.52.74-.71,0-1.54,0-2.37,0,0,1.06.05,2,.05,2.37,0,1-.46,1.27-.83,1.27s-.71-.45-.71-1.31v-2.31l-2.57.05c-1,0-1.27-.47-1.27-.83s.45-.71,1.31-.71h2.53c0-1.08,0-2.08.05-2.55,0-.87.08-1.56.69-1.56.82,0,.76,1.09.74,1.52,0,.78,0,1.69,0,2.59,1,0,1.91,0,2.35,0C296.27,281.71,297,281.78,297,282.4Z" transform="translate(8.26 -140.42)"/><path class="cls-2" d="M311.42,278c0,1.17,0,3.48-1.59,4.71,2.58,1.29,2.25,9.15-.64,9.15-2.17,0-2.64-1.86-2.64-4a.69.69,0,0,1,.64-.65.8.8,0,0,1,.63.54c.12,1.81.3,2.39,1.2,2.39s1-1.72,1-3.62a3.17,3.17,0,0,0-1.56-2.9,1.41,1.41,0,0,1-.63-1.15c0-.42.21-.66.84-.82,1.09-.3,1.37-1.92,1.33-3-.07-1.66-.08-3.48-1-3.48-.33,0-.71.19-.87,1.44a.78.78,0,0,1-.77.68c-.22,0-.57-.26-.54-.92,0-2.21,1.13-2.58,2.19-2.58C310.81,273.77,311.37,276.35,311.42,278Z" transform="translate(8.26 -140.42)"/><path class="cls-2" d="M330.39,282.4c0,.81-1.09.76-1.52.74-.71,0-1.54,0-2.36,0,0,1.06,0,2,0,2.37,0,1-.46,1.27-.83,1.27s-.7-.45-.7-1.31c0-.22,0-1.18,0-2.31l-2.57.05c-1,0-1.27-.47-1.27-.83s.45-.71,1.31-.71H325c0-1.08,0-2.08.05-2.55,0-.87.08-1.56.69-1.56.82,0,.76,1.09.75,1.52,0,.78,0,1.69,0,2.59,1,0,1.91,0,2.36,0C329.7,281.71,330.39,281.78,330.39,282.4Z" transform="translate(8.26 -140.42)"/><path class="cls-2" d="M344.85,278c0,1.17,0,3.48-1.59,4.71,2.58,1.29,2.25,9.15-.64,9.15-2.17,0-2.64-1.86-2.64-4a.69.69,0,0,1,.64-.65.8.8,0,0,1,.63.54c.13,1.81.3,2.39,1.2,2.39s1-1.72,1-3.62a3.17,3.17,0,0,0-1.56-2.9,1.41,1.41,0,0,1-.63-1.15c0-.42.22-.66.84-.82,1.09-.3,1.38-1.92,1.33-3-.07-1.66-.08-3.48-1-3.48-.33,0-.71.19-.86,1.44a.8.8,0,0,1-.78.68c-.22,0-.57-.26-.54-.92,0-2.21,1.13-2.58,2.19-2.58C344.24,273.77,344.81,276.35,344.85,278Z" transform="translate(8.26 -140.42)"/><path class="cls-2" d="M348.46,285.64a1.43,1.43,0,0,1,1.44-1.51,1.52,1.52,0,1,1-1.44,1.51Z" transform="translate(8.26 -140.42)"/><path class="cls-2" d="M355.39,292c-.25,0-.54-.15-.59-.59s0-15.23,0-16.43c.05-.77.23-1.08.75-1.08.68,0,.63,1.09.62,1.52-.06,2.21-.17,15-.12,15.31C356.21,291.93,355.43,292,355.39,292Z" transform="translate(8.26 -140.42)"/><path class="cls-2" d="M365.81,281.08c0-.3.45-.7,1.31-.7.5,0,4.67,0,5.87,0,.87,0,1.56.08,1.56.7,0,.81-1.09.75-1.52.74-2.2-.07-5,.05-5.95.05S365.81,281.45,365.81,281.08Zm0,3.35c0-.31.45-.71,1.31-.71.5,0,4.67,0,5.87,0,.87,0,1.56.07,1.56.69,0,.81-1.09.75-1.52.74-2.2-.07-5,.06-5.95.06S365.81,284.79,365.81,284.43Z" transform="translate(8.26 -140.42)"/><path class="cls-2" d="M387.4,282.44c.84.87.92,2.74.9,4.63a8.88,8.88,0,0,1-.39,3.44,1.87,1.87,0,0,1-1.83,1.45c-1.14,0-1.48-.65-1.69-1.63a24.74,24.74,0,0,1-.24-3.47c0-.32-.11-3,.8-4.26a2.09,2.09,0,0,1-.56-1.13,20.36,20.36,0,0,1-.24-3.14c.05-.38-.22-4.44,2-4.44,2,0,2.18,2.3,2.15,4.63a7.37,7.37,0,0,1-.39,3.11A2,2,0,0,1,387.4,282.44Zm-1.18-.58c1.06,0,.89-3.53.89-3.53s.22-3.28-.75-3.28c-.64-.05-.86.61-1,3.47S385.43,281.87,386.22,281.86Zm.89,5s.22-3.64-.75-3.63c-.64-.06-.86.66-1,3.84s0,3.7.83,3.69C387.28,290.77,387.11,286.87,387.11,286.87Z" transform="translate(8.26 -140.42)"/><path class="cls-2" d="M588.34,282.44c.85.87.92,2.74.9,4.63a9.2,9.2,0,0,1-.38,3.44A1.88,1.88,0,0,1,587,292c-1.15,0-1.49-.65-1.7-1.63a24.74,24.74,0,0,1-.24-3.47c0-.32-.1-3,.81-4.26a2.09,2.09,0,0,1-.57-1.13,20.36,20.36,0,0,1-.24-3.14c0-.38-.21-4.44,2-4.44,2,0,2.18,2.3,2.15,4.63a7.63,7.63,0,0,1-.38,3.11A2,2,0,0,1,588.34,282.44Zm-1.17-.58c1.05,0,.89-3.53.89-3.53s.22-3.28-.75-3.28c-.65-.05-.86.61-1,3.47S586.38,281.87,587.17,281.86Zm.89,5s.22-3.64-.75-3.63c-.65-.06-.86.66-1,3.84s0,3.7.84,3.69C588.22,290.77,588.06,286.87,588.06,286.87Z" transform="translate(8.26 -140.42)"/><path class="cls-3" d="M588.92,325.36a9.4,9.4,0,0,1-.39,3.45,1.89,1.89,0,0,1-1.83,1.46c-3.15,0-2-7.5-1.43-9.68.22-1,.78-3.47.81-3.64.23-1.09.49-2.1.76-3.12h0c.19-.62.16-1.37,1.06-1.37.4,0,.56.37.49,1.09l-1,4.51-.48,2.16C588.79,320.31,588.94,322.82,588.92,325.36Zm-1.19-.21s.22-3.64-.75-3.64c-.65-.05-.86.67-1,3.85s0,3.72.84,3.71C587.9,329.07,587.73,325.15,587.73,325.15Z" transform="translate(8.26 -140.42)"/><path class="cls-2" d="M256.65,378.44c.84.87.92,2.74.9,4.63a8.88,8.88,0,0,1-.39,3.44,1.87,1.87,0,0,1-1.83,1.45c-1.14,0-1.48-.65-1.69-1.62a25,25,0,0,1-.24-3.48c0-.32-.11-3,.8-4.26a2.09,2.09,0,0,1-.56-1.13,20.36,20.36,0,0,1-.24-3.14c0-.38-.22-4.44,2-4.44,2,0,2.18,2.3,2.15,4.63a7.37,7.37,0,0,1-.39,3.11A2,2,0,0,1,256.65,378.44Zm-1.18-.58c1.06,0,.89-3.53.89-3.53s.22-3.28-.75-3.27c-.64-.06-.86.6-1,3.46S254.68,377.87,255.47,377.86Zm.89,5s.22-3.64-.75-3.63c-.64-.06-.86.66-1,3.84s0,3.7.83,3.69C256.53,386.77,256.36,382.87,256.36,382.87Z" transform="translate(8.26 -140.42)"/><path class="cls-2" d="M257.73,411.76a9,9,0,0,1-.39,3.45,1.88,1.88,0,0,1-1.83,1.46c-3.14,0-2-7.5-1.43-9.68.23-1,.78-3.47.82-3.64.22-1.09.48-2.1.76-3.12h0c.2-.62.16-1.37,1.07-1.37.4,0,.55.37.48,1.09l-1,4.51-.48,2.16C257.61,406.71,257.75,409.22,257.73,411.76Zm-1.19-.21s.22-3.64-.75-3.64c-.64-.05-.86.67-1,3.85s0,3.72.83,3.71C256.71,415.47,256.54,411.55,256.54,411.55Z" transform="translate(8.26 -140.42)"/><path class="cls-4" d="M258.58,464c0,.47-.58.84-1.82.81,0,0-1.6,0-3,0-.67,0-.24-1.43-.14-2.08h0c.21-1.23,2-6.16,2.19-7.57,0,0,2.76-7,.9-7-.72,0-1.54.61-1.87,2.08a.82.82,0,0,1-.95.46,1.6,1.6,0,0,1-.24-1.67,3.36,3.36,0,0,1,3.4-2.31c2.28,0,1.46,4.26,1.45,4.41-.26.63-3.14,10.6-3.35,12.1a12.14,12.14,0,0,0,1.62-.06C256.86,463.21,258.58,463,258.58,464Z" transform="translate(8.26 -140.42)"/><rect class="cls-2" x="239" y="255.71" width="11.51" height="0.75"/><rect class="cls-2" x="571.08" y="156.84" width="31.35" height="0.75"/><rect class="cls-2" x="554" y="135.71" width="11.51" height="0.75"/><rect class="cls-2" x="256.08" y="288.71" width="31.35" height="0.75"/><path class="cls-2" d="M477.89,389.43c-.12,2.23-.17,14.95-.12,15.26s.07,1.23-.72,1.23a.64.64,0,0,1-.62-.63c0-.26-.05-2.64-.05-5.52,0-.24-2-.21-2.07,0-.07,2-.12,4.63-.07,4.94s.07,1.23-.72,1.23a.65.65,0,0,1-.62-.63c0-.5,0-9-.07-12.65,0-1.24.05-2.42.12-3.62,0-.58.33-1.1.79-1.1.67,0,.65,1.08.62,1.46-.09,2.09-.09,7.85-.09,9.05a5.69,5.69,0,0,0,2.13.07c0-2.21,0-4.42,0-5.88,0-1.25,0-2.18.09-3.38,0-.36,0-1.32.73-1.32S477.92,389,477.89,389.43Z" transform="translate(8.26 -140.42)"/><path class="cls-2" d="M506.74,404.79c0-.53-.07-7,0-9,.12-6,.16-7.9,1.29-8,1.39,0,2.69,1.32,2.76,4.11a5.39,5.39,0,0,1-.55,2.76,4.69,4.69,0,0,1-1.27,1.65,7.89,7.89,0,0,1-1,.72c-.22,2.07,0,7.11,0,7.52,0,.93-.24,1.34-.58,1.34C506.86,405.87,506.76,405.37,506.74,404.79Zm1.44-15.72a39.83,39.83,0,0,0-.12,6.24C510.27,394.52,510.34,389.19,508.18,389.07Z" transform="translate(8.26 -140.42)"/><path class="cls-2" d="M543.67,389.43c-.12,2.23-.17,14.95-.12,15.26s.07,1.23-.72,1.23a.65.65,0,0,1-.62-.63c0-.26-.05-2.64-.05-5.52,0-.24-2-.21-2.06,0-.08,2-.12,4.63-.08,4.94s.08,1.23-.72,1.23a.65.65,0,0,1-.62-.63c0-.5,0-9-.07-12.65,0-1.24,0-2.42.12-3.62,0-.58.33-1.1.79-1.1.67,0,.65,1.08.62,1.46-.09,2.09-.09,7.85-.09,9.05a5.69,5.69,0,0,0,2.13.07c0-2.21,0-4.42,0-5.88,0-1.25,0-2.18.1-3.38,0-.36,0-1.32.72-1.32S543.7,389,543.67,389.43Z" transform="translate(8.26 -140.42)"/><path class="cls-2" d="M511.49,435c-.12,2.23-.17,15-.12,15.26s.07,1.23-.72,1.23a.64.64,0,0,1-.62-.63c0-.26,0-2.64,0-5.52,0-.24-2-.21-2.07,0-.07,2-.12,4.63-.07,4.94s.07,1.23-.72,1.23a.64.64,0,0,1-.62-.63c-.05-.5-.05-9-.08-12.65,0-1.24.05-2.42.12-3.62,0-.58.34-1.1.8-1.1.67,0,.65,1.08.62,1.46-.09,2.09-.09,7.85-.09,9a5.69,5.69,0,0,0,2.13.07c0-2.21,0-4.42,0-5.88,0-1.25,0-2.18.09-3.38,0-.36,0-1.32.72-1.32S511.51,434.6,511.49,435Z" transform="translate(8.26 -140.42)"/><rect class="cls-3" x="494.04" y="256.08" width="11.51" height="0.75"/><rect class="cls-3" x="529.67" y="256.46" width="11.51" height="0.75"/><rect class="cls-3" x="502.01" y="420.01" width="11.51" height="0.75" transform="translate(95.64 787.73) rotate(-90)"/><rect class="cls-4" x="510.64" y="237.21" width="11.51" height="0.75"/><path class="cls-5" d="M29.45,161.36c-.38-.07-.69-.6-.84-.84h0a2.73,2.73,0,0,0-.27-.5l-.1,13.44v.18c0,.4,0,1.05-.72,1.05a.65.65,0,0,1-.62-.63c-.05-.48-.05-9-.07-12.67,0-1.25,0-2.42.12-3.62v-.08l0,0,0,0c0-.56.33-1,.76-1a.6.6,0,0,1,.53.45c.58.94,1,1.59,1.27,2.14.34-.6.75-1.27,1.42-2.35h0a.66.66,0,0,1,.48-.22c.48,0,.63.53.7,1a.08.08,0,0,0,0,.05,4.46,4.46,0,0,1,0,.48c-.12,2.23-.12,15-.12,15.29v.18c0,.39-.05,1-.72,1a.64.64,0,0,1-.62-.62c0-.27-.05-2.67-.05-5.55l0-8.32a2.31,2.31,0,0,0-.17.31h0c-.15.26-.46.77-.84.84Z" transform="translate(8.26 -140.42)"/><path class="cls-5" d="M39.6,174.69c-2.43,0-3.15-1.07-3.15-3.43,0-1.89.35-3.93,2.63-4h0c0-2.39-.12-3.37-.43-3.4-1.41-.14-.74,2.07-1.62,2-.67-.15-.5-3.48,1.69-3.26,1,.1,1.59,1.7,1.55,3.06C40.38,168.38,40.37,174.52,39.6,174.69Zm-.54-6.26h0v-.05s0,0,0-.06c-2.08,0-2.36,5.28-.11,5.28A27.48,27.48,0,0,0,39.06,168.43Z" transform="translate(8.26 -140.42)"/><path class="cls-5" d="M48.17,166.17c-.88,0-.07-2-1.47-1.82-.31,0-.82,1.25-.82,3.71,0,0,0,4.21-.14,5.72-.06.67-.17.88-.36.88s-.54,0-.6-1.13c-.1-2-.17-4.57-.09-6.61a3,3,0,0,1,0-.3h0v-3.45a.65.65,0,0,1,.66-.66c.51,0,.39.81.39.81v.45a1.44,1.44,0,0,1,.9-.63C48.83,162.93,48.84,166,48.17,166.17Z" transform="translate(8.26 -140.42)"/><path class="cls-5" d="M55.92,166.17c-.88,0-.07-2-1.47-1.82-.31,0-.82,1.25-.82,3.71,0,0,0,4.21-.14,5.72-.06.67-.17.88-.36.88s-.54,0-.6-1.13c-.1-2-.17-4.57-.09-6.61v-.3h0v-3.45a.65.65,0,0,1,.66-.66c.51,0,.39.81.39.81v.45a1.44,1.44,0,0,1,.9-.63C56.58,162.93,56.59,166,55.92,166.17Z" transform="translate(8.26 -140.42)"/><path class="cls-5" d="M62.8,174.69c-2.42,0-3.14-1.07-3.14-3.43,0-1.89.35-3.93,2.62-4h0c0-2.39-.12-3.37-.44-3.4-1.4-.14-.73,2.07-1.61,2-.67-.15-.5-3.48,1.69-3.26,1,.1,1.59,1.7,1.55,3.06C63.59,168.38,63.58,174.52,62.8,174.69Zm-.53-6.26h0v-.05a.13.13,0,0,1,0-.06c-2.08,0-2.36,5.28-.12,5.28A26.69,26.69,0,0,0,62.27,168.43Z" transform="translate(8.26 -140.42)"/><path class="cls-5" d="M74,166.1c2.38,0,3.25,3.1,3.21,4.39-.07,2.76-1.63,4.29-3.38,4.29-1.16-.11-1-2-1.11-7.93,0-1.94,0-8.38,0-8.91s.12-1.06.65-1.06c.34,0,.61.44.61,1.34C74,158.61,73.92,164.43,74,166.1Zm.14,1.24a35.89,35.89,0,0,0,.11,6.19C76.48,173.39,76.58,167.34,74.09,167.34Z" transform="translate(8.26 -140.42)"/><path class="cls-5" d="M83.66,174.69c-2.43,0-3.14-1.07-3.14-3.43,0-1.89.35-3.93,2.62-4h0c0-2.39-.12-3.37-.43-3.4-1.4-.14-.74,2.07-1.62,2-.67-.15-.5-3.48,1.69-3.26,1,.1,1.6,1.7,1.55,3.06C84.44,168.38,84.43,174.52,83.66,174.69Zm-.54-6.26h0v-.05a.13.13,0,0,0,0-.06c-2.07,0-2.35,5.28-.11,5.28A26.67,26.67,0,0,0,83.12,168.43Z" transform="translate(8.26 -140.42)"/><path class="cls-5" d="M90.71,158.26c0,.81-.09,4.08-.1,4.2s.3,0,.83.08c.34,0,.82.05.82.7,0,.39-.61.48-.82.48h-.89c0,.55,0,9.53,0,9.74,0,.44.06,1.19-.58,1.19a.65.65,0,0,1-.6-.64c0-.2,0-9.63,0-10.3-.39,0-.53,0-.85,0-.16,0-.76-.1-.79-.55a.67.67,0,0,1,.77-.67c.67,0,.73.06.85-.07a38.8,38.8,0,0,1,.08-4.31s0-1.43.67-1.43S90.7,157.27,90.71,158.26Z" transform="translate(8.26 -140.42)"/><path class="cls-5" d="M121.81,164.44A24.2,24.2,0,0,0,124.5,167a10.16,10.16,0,0,0,2.15,1.32v.53a12,12,0,0,0-2.25,1.43,23.27,23.27,0,0,0-2.6,2.56h-.9a13.56,13.56,0,0,1,2.3-3.62H104.51v-1.18H123.2c-.59-.76-1-1.32-1.24-1.69s-.58-1-1-1.93Z" transform="translate(8.26 -140.42)"/><path class="cls-5" d="M140.25,173.74c-.12-.53-.07-7.22-.05-9.19.12-6,.17-7.92,1.28-8,1.36,0,2.66,1.32,2.73,4.11a5.39,5.39,0,0,1-.55,2.76,5.17,5.17,0,0,1-1.25,1.68c1.2.33,2.09,2.42,2,4.41-.09,1.83-.76,5.28-3,5.14C140.8,174.58,140.4,174.44,140.25,173.74Zm1.18-7.56c-.22,2-.43,7.18,0,7.11C143.71,173.12,143.83,166.21,141.43,166.18Zm.24-8.38a34,34,0,0,0-.12,6.27C143.73,163.28,143.8,158,141.67,157.8Z" transform="translate(8.26 -140.42)"/><path class="cls-5" d="M149.46,162.64c.62,0,.74.77.75.85s-.19.8-.67.8a.77.77,0,0,1-.81-.84C148.73,163.39,148.73,162.64,149.46,162.64Zm.53,4.07a49.83,49.83,0,0,1-.09,7.3c0,.47-.25.74-.43.74s-.5-.22-.58-.64c-.3-1.54,0-5.26,0-7.37,0-.55.33-.87.57-.87S149.92,166.18,150,166.71Z" transform="translate(8.26 -140.42)"/><path class="cls-5" d="M162.3,162.64c1.33,0,2.41,3.33,1.72,5.34-.3.45-2.21.23-2.91.25-.51.05-.36,5,1.11,5.2,1.2-.16.36-2.57,1.62-2.46,1,.09,0,3.77-1.62,3.77-2.49,0-2.49-4.36-2.49-5.87C159.73,166.27,160.63,162.64,162.3,162.64Zm-1,4.42c.48.05,1.3.1,1.83.11.27.18.15-3.06-.79-3.2S160.81,167,161.35,167.06Z" transform="translate(8.26 -140.42)"/><path class="cls-5" d="M168.69,174.74c-.25,0-.54-.15-.59-.59s0-15.24,0-16.44c.05-.76.23-1.07.74-1.07.69,0,.64,1.09.63,1.52-.06,2.2-.17,15-.12,15.31C169.51,174.68,168.73,174.73,168.69,174.74Z" transform="translate(8.26 -140.42)"/><path class="cls-5" d="M176.42,162.64c1.32,0,2.4,3.33,1.71,5.34-.3.45-2.21.23-2.91.25-.51.05-.36,5,1.11,5.2,1.2-.16.36-2.57,1.62-2.46,1,.09,0,3.77-1.62,3.77-2.49,0-2.49-4.36-2.49-5.87C173.84,166.27,174.74,162.64,176.42,162.64Zm-1,4.42c.48.05,1.31.1,1.83.11.27.18.15-3.06-.79-3.2S174.92,167,175.46,167.06Z" transform="translate(8.26 -140.42)"/><path class="cls-5" d="M187.58,173.18c.13.29.44,1.06-.2,1.34s-1-.56-1.17-.91c-.27-.71-1.12-2.72-2.05-4.9-.07,2-.13,4.33-.07,4.62s.08,1.24-.72,1.24a.65.65,0,0,1-.63-.64c-.06-.49-.05-9.11-.08-12.77,0-1.27.05-2.46.12-3.67,0-.58.33-1.12.79-1.11.66,0,.64,1.09.63,1.52-.06,1.19-.08,4.75-.09,6.81.51-.89,1.42-2.19,2-3.35.3-.54.72-1.33,1.39-1.1s.11,1.22-.1,1.74c-.43,1.08-1,2-2.58,4.93.7,1.58,1.18,2.48,1.66,3.52S187.23,172.21,187.58,173.18Z" transform="translate(8.26 -140.42)"/><path class="cls-5" d="M194.14,158.26c0,.81-.08,4.08-.09,4.2s.3,0,.83.08c.34,0,.81.05.82.7,0,.39-.61.48-.82.48H194c0,.55,0,9.53,0,9.74,0,.44.06,1.19-.58,1.19a.65.65,0,0,1-.6-.64c0-.2,0-9.63,0-10.3-.38,0-.52,0-.84,0-.16,0-.77-.1-.79-.55a.67.67,0,0,1,.77-.67c.67,0,.73.06.85-.07a36.47,36.47,0,0,1,.08-4.31s0-1.43.66-1.43S194.14,157.27,194.14,158.26Z" transform="translate(8.26 -140.42)"/><path class="cls-5" d="M203.06,166.17c-.88,0-.06-2-1.47-1.82-.31,0-.82,1.25-.82,3.71,0,0,0,4.21-.14,5.72-.06.67-.16.88-.36.88s-.54,0-.6-1.13c-.1-2-.16-4.57-.09-6.61,0-.09,0-.19,0-.3h0v-3.45a.65.65,0,0,1,.66-.66c.51,0,.39.81.39.81v.45a1.44,1.44,0,0,1,.9-.63C203.72,162.93,203.73,166,203.06,166.17Z" transform="translate(8.26 -140.42)"/><path class="cls-5" d="M208.74,174.53c-1.14,0-1.48-.79-1.69-2a35.94,35.94,0,0,1-.24-4.19c.05-.5-.22-5.91,2-5.91,2,0,2.18,3.07,2.15,6.16a12.72,12.72,0,0,1-.39,4.14A2,2,0,0,1,208.74,174.53Zm-.69-5.89c-.12,3.74,0,4.46.83,4.45,1.06,0,.89-4.7.89-4.7S210,164,209,164C208.38,164,208.16,164.82,208.05,168.64Z" transform="translate(8.26 -140.42)"/><path class="cls-5" d="M216,162.64c.61,0,.74.77.74.85s-.18.8-.66.8a.77.77,0,0,1-.81-.84C215.26,163.39,215.26,162.64,216,162.64Zm.53,4.07a51.26,51.26,0,0,1-.09,7.3c0,.47-.25.74-.43.74s-.5-.22-.58-.64c-.31-1.54,0-5.26,0-7.37,0-.55.33-.87.57-.87S216.45,166.18,216.52,166.71Z" transform="translate(8.26 -140.42)"/></svg>