<svg id="Capa_1" data-name="Capa 1" xmlns="http://www.w3.org/2000/svg" viewBox="0 0 137.55 178.65"><defs><style>.cls-1{fill:#13b2cc;}</style></defs><title>lotura</title><path class="cls-1" d="M108,275.16v7.39h11.26v-7.39a3.43,3.43,0,0,1,.72-2.37,2.37,2.37,0,0,1,1.87-.79,2.47,2.47,0,0,1,1.9.78,3.37,3.37,0,0,1,.73,2.38v20.31a3.42,3.42,0,0,1-.73,2.39,2.53,2.53,0,0,1-1.9.79,2.38,2.38,0,0,1-1.88-.8,3.52,3.52,0,0,1-.71-2.38V286.8H108v8.67a3.42,3.42,0,0,1-.74,2.39,2.51,2.51,0,0,1-1.9.79,2.38,2.38,0,0,1-1.88-.8,3.52,3.52,0,0,1-.7-2.38V275.16a3.53,3.53,0,0,1,.69-2.37,2.37,2.37,0,0,1,1.89-.79,2.51,2.51,0,0,1,1.91.78A3.42,3.42,0,0,1,108,275.16Z" transform="translate(-43.49 -272)"/><path class="cls-1" d="M113.65,312.41v28.95a2.67,2.67,0,0,1-.53,1.8,1.81,1.81,0,0,1-1.4.61,1.86,1.86,0,0,1-1.43-.62,2.59,2.59,0,0,1-.56-1.79V312.41a2.6,2.6,0,0,1,.56-1.8,1.85,1.85,0,0,1,1.43-.61,1.79,1.79,0,0,1,1.4.62A2.71,2.71,0,0,1,113.65,312.41Z" transform="translate(-43.49 -272)"/><path class="cls-1" d="M48.71,351.16v7.39H60v-7.39a3.43,3.43,0,0,1,.72-2.37,2.37,2.37,0,0,1,1.87-.79,2.47,2.47,0,0,1,1.9.78,3.37,3.37,0,0,1,.73,2.38v20.31a3.42,3.42,0,0,1-.73,2.39,2.53,2.53,0,0,1-1.9.79,2.38,2.38,0,0,1-1.88-.8,3.52,3.52,0,0,1-.71-2.38V362.8H48.71v8.67a3.42,3.42,0,0,1-.74,2.39,2.51,2.51,0,0,1-1.9.79,2.38,2.38,0,0,1-1.88-.8,3.52,3.52,0,0,1-.7-2.38V351.16a3.53,3.53,0,0,1,.69-2.37,2.37,2.37,0,0,1,1.89-.79,2.51,2.51,0,0,1,1.91.78A3.42,3.42,0,0,1,48.71,351.16Z" transform="translate(-43.49 -272)"/><path class="cls-1" d="M85.78,367H80.22a2.81,2.81,0,0,1-1.92-.59,2.13,2.13,0,0,1,0-3.06,2.81,2.81,0,0,1,1.94-.59h5.56a2.8,2.8,0,0,1,1.94.59,2,2,0,0,1,.64,1.54,2,2,0,0,1-.63,1.52A2.79,2.79,0,0,1,85.78,367Z" transform="translate(-43.49 -272)"/><path class="cls-1" d="M112.13,348a13.71,13.71,0,0,1,6.88,1.63,10.45,10.45,0,0,1,4.35,4.62,15.81,15.81,0,0,1,1.48,7,17.2,17.2,0,0,1-.81,5.43A11.79,11.79,0,0,1,121.6,371a10.63,10.63,0,0,1-4,2.74,14.41,14.41,0,0,1-5.4.95,14.21,14.21,0,0,1-5.41-1,10.83,10.83,0,0,1-4-2.75,11.78,11.78,0,0,1-2.42-4.27,17.36,17.36,0,0,1-.82-5.4,16.66,16.66,0,0,1,.86-5.45,11.8,11.8,0,0,1,2.47-4.22,10.78,10.78,0,0,1,3.93-2.66A14.33,14.33,0,0,1,112.13,348Zm7.42,13.25a12.07,12.07,0,0,0-.92-4.9,6.86,6.86,0,0,0-2.61-3.14,7.16,7.16,0,0,0-3.89-1.06,6.89,6.89,0,0,0-2.89.59,6.3,6.3,0,0,0-2.29,1.71,8.21,8.21,0,0,0-1.51,2.87,13,13,0,0,0-.55,3.93,13.34,13.34,0,0,0,.55,4,8.23,8.23,0,0,0,1.56,2.94,6.69,6.69,0,0,0,2.32,1.75,7.34,7.34,0,0,0,6.56-.42,6.9,6.9,0,0,0,2.67-3.1A12,12,0,0,0,119.55,361.25Z" transform="translate(-43.49 -272)"/><path class="cls-1" d="M144.28,367h-5.56a2.81,2.81,0,0,1-1.92-.59,2.13,2.13,0,0,1,0-3.06,2.81,2.81,0,0,1,1.94-.59h5.56a2.8,2.8,0,0,1,1.94.59,2,2,0,0,1,.64,1.54,2,2,0,0,1-.63,1.52A2.79,2.79,0,0,1,144.28,367Z" transform="translate(-43.49 -272)"/><path class="cls-1" d="M164.55,351.16v7.39h11.26v-7.39a3.43,3.43,0,0,1,.72-2.37,2.37,2.37,0,0,1,1.87-.79,2.47,2.47,0,0,1,1.9.78,3.37,3.37,0,0,1,.73,2.38v20.31a3.42,3.42,0,0,1-.73,2.39,2.53,2.53,0,0,1-1.9.79,2.38,2.38,0,0,1-1.88-.8,3.52,3.52,0,0,1-.71-2.38V362.8H164.55v8.67a3.42,3.42,0,0,1-.74,2.39,2.51,2.51,0,0,1-1.9.79,2.38,2.38,0,0,1-1.88-.8,3.52,3.52,0,0,1-.7-2.38V351.16a3.53,3.53,0,0,1,.69-2.37,2.37,2.37,0,0,1,1.89-.79,2.51,2.51,0,0,1,1.91.78A3.42,3.42,0,0,1,164.55,351.16Z" transform="translate(-43.49 -272)"/><path class="cls-1" d="M113.65,388.41v28.95a2.67,2.67,0,0,1-.53,1.8,1.81,1.81,0,0,1-1.4.61,1.86,1.86,0,0,1-1.43-.62,2.59,2.59,0,0,1-.56-1.79V388.41a2.6,2.6,0,0,1,.56-1.8,1.85,1.85,0,0,1,1.43-.61,1.79,1.79,0,0,1,1.4.62A2.71,2.71,0,0,1,113.65,388.41Z" transform="translate(-43.49 -272)"/><path class="cls-1" d="M105.71,427.16v7.39H117v-7.39a3.43,3.43,0,0,1,.72-2.37,2.37,2.37,0,0,1,1.87-.79,2.47,2.47,0,0,1,1.9.78,3.37,3.37,0,0,1,.73,2.38v20.31a3.42,3.42,0,0,1-.73,2.39,2.53,2.53,0,0,1-1.9.79,2.38,2.38,0,0,1-1.88-.8,3.52,3.52,0,0,1-.71-2.38V438.8H105.71v8.67a3.42,3.42,0,0,1-.74,2.39,2.51,2.51,0,0,1-1.9.79,2.38,2.38,0,0,1-1.88-.8,3.52,3.52,0,0,1-.7-2.38V427.16a3.53,3.53,0,0,1,.69-2.37,2.37,2.37,0,0,1,1.89-.79,2.51,2.51,0,0,1,1.91.78A3.42,3.42,0,0,1,105.71,427.16Z" transform="translate(-43.49 -272)"/></svg>