<svg id="Capa_1" data-name="Capa 1" xmlns="http://www.w3.org/2000/svg" viewBox="0 0 282.45 137.75"><defs><style>.cls-1{fill:#8ebf22;}.cls-2{fill:#eee543;}</style></defs><title>oreka</title><path class="cls-1" d="M51.39,275.82v-1.15a8.14,8.14,0,0,0,1.74-.51,1.89,1.89,0,0,0,.86-.79,2.76,2.76,0,0,0,.28-1.35,8.37,8.37,0,0,0-.19-1.72,18.84,18.84,0,0,0-.54-2.07l-.86-3H41.75L41,267.5a24,24,0,0,0-.8,2.62,8.42,8.42,0,0,0-.19,1.62,2.64,2.64,0,0,0,.72,2.06,4,4,0,0,0,2.19.87v1.15h-10v-1.15a3.55,3.55,0,0,0,2.29-1.52A15.82,15.82,0,0,0,37,269.4l9.78-25.95h3.7l8,26.13a23.83,23.83,0,0,0,1,2.79,4.2,4.2,0,0,0,1,1.5,3.79,3.79,0,0,0,1.66.8v1.15Zm-9-12.66h9.79l-4.45-15.11Z" transform="translate(-32.87 -199.19)"/><path class="cls-1" d="M88.21,263.73v8.88H84.76v-8.88H76.11v-3.26h8.65v-8.86h3.45v8.86h8.67v3.26Z" transform="translate(-32.87 -199.19)"/><path class="cls-1" d="M113.19,275.82v-1.15a4.9,4.9,0,0,0,2-.83,2.26,2.26,0,0,0,.64-1.3,16.07,16.07,0,0,0,.15-2.58V249.69a16.75,16.75,0,0,0-.11-2.36,3,3,0,0,0-.39-1.15,2,2,0,0,0-.71-.65,7.49,7.49,0,0,0-1.53-.55v-1.15H126a18.51,18.51,0,0,1,6,.79,6.69,6.69,0,0,1,3.36,2.36,6.77,6.77,0,0,1,1.11,4,7.58,7.58,0,0,1-.79,3.54,7.43,7.43,0,0,1-2.05,2.48,14.22,14.22,0,0,1-3.26,1.83v.21a9.56,9.56,0,0,1,4.83,3,7.29,7.29,0,0,1,1.64,4.77,8.8,8.8,0,0,1-1.42,5.2,7.93,7.93,0,0,1-4,2.92,18.73,18.73,0,0,1-6.19.9Zm11.23-17.65a7.82,7.82,0,0,0,5.45-1.72,6.44,6.44,0,0,0,1.88-5,6.07,6.07,0,0,0-.52-2.68,4.32,4.32,0,0,0-1.46-1.7,6,6,0,0,0-2.19-.9,13.06,13.06,0,0,0-2.74-.27c-.59,0-1.37,0-2.34.05s-1.7.06-2.18.09v12.14Zm-4.1,15.42c1.14.11,2.41.17,3.82.17a11.77,11.77,0,0,0,4.77-.78,4.9,4.9,0,0,0,2.46-2.28,8.36,8.36,0,0,0,.76-3.79,7.65,7.65,0,0,0-.83-3.75,5.09,5.09,0,0,0-2.57-2.2,12.75,12.75,0,0,0-4.78-.73h-3.63Z" transform="translate(-32.87 -199.19)"/><path class="cls-1" d="M187.4,271.93h-29l4.12,5.46-1.38,1.29-8-7.55v-1.5l8-7.57,1.38,1.29-4.12,5.46h29Zm-34-19.67h29l-4.12-5.46,1.38-1.29,8,7.57v1.5l-8,7.55-1.38-1.29,4.12-5.46h-29Z" transform="translate(-32.87 -199.19)"/><path class="cls-1" d="M236.05,244.51V251h-2.32a10.16,10.16,0,0,0-1.43-3.25,5.08,5.08,0,0,0-2-1.72,6.81,6.81,0,0,0-2.77-.52,6.46,6.46,0,0,0-4.3,1.61,10.57,10.57,0,0,0-3,4.83,25,25,0,0,0-1.07,7.79,29.69,29.69,0,0,0,.89,7.84,10.41,10.41,0,0,0,2.62,4.9,6,6,0,0,0,4.27,1.65,7.62,7.62,0,0,0,3.14-.55,5,5,0,0,0,2.05-1.75,13.65,13.65,0,0,0,1.58-3.51h2.32V275a33.6,33.6,0,0,1-4.51.88,39.62,39.62,0,0,1-5.07.29q-6,0-9-4t-3.05-12a22.72,22.72,0,0,1,1.58-8.79,12.27,12.27,0,0,1,12-7.9,34.24,34.24,0,0,1,3.94.22A31.76,31.76,0,0,1,236.05,244.51Z" transform="translate(-32.87 -199.19)"/><path class="cls-1" d="M264.2,263.73v8.88h-3.45v-8.88h-8.64v-3.26h8.64v-8.86h3.45v8.86h8.67v3.26Z" transform="translate(-32.87 -199.19)"/><path class="cls-1" d="M289.16,275.82v-1.15a7.51,7.51,0,0,0,1.55-.54,2,2,0,0,0,.72-.65,2.92,2.92,0,0,0,.38-1.15,16.64,16.64,0,0,0,.12-2.37V249.69a16.51,16.51,0,0,0-.12-2.38,2.91,2.91,0,0,0-.39-1.14,2.09,2.09,0,0,0-.71-.64,7.32,7.32,0,0,0-1.55-.55v-1.15h10.27a22.61,22.61,0,0,1,7.25,1,12.72,12.72,0,0,1,4.77,2.87,11.78,11.78,0,0,1,2.91,4.72,21.06,21.06,0,0,1,1,6.74,24.36,24.36,0,0,1-.9,7,14.05,14.05,0,0,1-2.64,5.06,12.2,12.2,0,0,1-3.68,2.92,13.8,13.8,0,0,1-4.17,1.34,39,39,0,0,1-6.28.4Zm7.15-2.18c.62.06,1.55.09,2.77.09a17.64,17.64,0,0,0,3.51-.32,10,10,0,0,0,2.81-1,7.73,7.73,0,0,0,2.28-1.95,10.86,10.86,0,0,0,1.64-2.89,16.38,16.38,0,0,0,.92-3.62,29.37,29.37,0,0,0,.3-4.36,19.25,19.25,0,0,0-1.37-7.81,9.33,9.33,0,0,0-3.87-4.47,12,12,0,0,0-6-1.4c-1.06,0-2.07,0-3,.09Z" transform="translate(-32.87 -199.19)"/><path class="cls-2" d="M114.48,218.32c12.47-10.59,30.19-12.69,45.91-13.74,17.76-1.19,36.19.08,52.67,7.33a70.41,70.41,0,0,1,22.39,15.3c2.24,2.32,5.77-1.22,3.54-3.53-12.13-12.55-28.78-19.88-45.82-22.76a137,137,0,0,0-29.66-1.53,156.64,156.64,0,0,0-26.95,3.37c-9.31,2.12-18.28,5.79-25.61,12a2.5,2.5,0,1,0,3.53,3.54Z" transform="translate(-32.87 -199.19)"/><path class="cls-2" d="M220.71,225.94a65.1,65.1,0,0,0,19.83,5.7,2.48,2.48,0,0,0,2.41-1.83,150.69,150.69,0,0,0,1.46-15.87,2.5,2.5,0,0,0-5,0,138.69,138.69,0,0,1-1.28,14.54l2.41-1.84a57.42,57.42,0,0,1-17.3-5,2.57,2.57,0,0,0-3.42.9,2.52,2.52,0,0,0,.89,3.42Z" transform="translate(-32.87 -199.19)"/><path class="cls-2" d="M255.69,290.47a89.26,89.26,0,0,1-51.19,38.31,87,87,0,0,1-63.83-7,88.19,88.19,0,0,1-28.75-23.91,2.52,2.52,0,0,0-3.54,0,2.57,2.57,0,0,0,0,3.54,93.94,93.94,0,0,0,58.9,34.41A93.32,93.32,0,0,0,260,293c1.7-2.74-2.63-5.25-4.32-2.52Z" transform="translate(-32.87 -199.19)"/><path class="cls-2" d="M106.26,300.7l16.84.94a2.5,2.5,0,1,0,0-5l-16.84-.94a2.5,2.5,0,1,0,0,5Z" transform="translate(-32.87 -199.19)"/><path class="cls-2" d="M104,298.16A148.94,148.94,0,0,1,105.32,315a2.55,2.55,0,0,0,2.5,2.5,2.52,2.52,0,0,0,2.5-2.5A148.94,148.94,0,0,0,109,298.16a2.58,2.58,0,0,0-2.5-2.5c-1.21,0-2.68,1.15-2.5,2.5Z" transform="translate(-32.87 -199.19)"/></svg>