<svg id="Capa_1" data-name="Capa 1" xmlns="http://www.w3.org/2000/svg" viewBox="0 0 423.91 179.35"><defs><style>.cls-1{fill:#2d509f;}.cls-2,.cls-8,.cls-9{fill:none;}.cls-2,.cls-8{stroke:#fff;}.cls-11,.cls-2,.cls-8,.cls-9{stroke-miterlimit:10;}.cls-2{stroke-width:3px;}.cls-3{fill:#834a97;}.cls-4{fill:#b17f4a;}.cls-5{fill:#683c11;}.cls-6{fill:#5391cd;}.cls-7{fill:#956aab;}.cls-8{stroke-width:2px;}.cls-9{stroke:#b2b2b2;}.cls-10{fill:#fff;}.cls-11{fill:#e6332a;stroke:#e6332a;}.cls-12{fill:#b2b2b2;}</style></defs><title>pilia</title><rect class="cls-1" x="73.99" y="81.1" width="87.81" height="67"/><line class="cls-2" x1="74" y1="148.6" x2="161.79" y2="147.6"/><line class="cls-2" x1="162.3" y1="148.6" x2="161.3" y2="60.81"/><line class="cls-2" x1="74.01" y1="149.61" x2="73.01" y2="61.81"/><rect class="cls-3" x="240.17" y="77.77" width="87.81" height="67"/><line class="cls-2" x1="240.17" y1="145.27" x2="327.97" y2="144.27"/><line class="cls-2" x1="328.48" y1="145.27" x2="327.48" y2="57.48"/><line class="cls-2" x1="240.18" y1="146.28" x2="239.18" y2="58.48"/><path class="cls-4" d="M-27.3,419c-.05-1.8-.08-3.6,0-5.41.21-7.54.33-15.09.55-22.64.19-6.82-.15-13.73,1.52-20.41a5.38,5.38,0,0,1,.94-2V355.19H-41.68V358c.6,8.12,1.2,16.23,1.46,24.36,1.39,6.15,2.68,12.33,3.81,18.51,1.29,7,2.46,14.07,3.79,21.09a69.54,69.54,0,0,1,1.28,9.44A47.11,47.11,0,0,1-27.3,419Z" transform="translate(150.9 -312.9)"/><rect class="cls-5" x="275.39" y="42.29" width="17.36" height="77.62"/><path class="cls-6" d="M-61.8,488.09l7.85-11.48v-.06h-7.18V475h9.56v1.12l-7.81,11.44v.06h7.91v1.54H-61.8Z" transform="translate(150.9 -312.9)"/><path class="cls-6" d="M-49.28,481.75c0-1.05,0-1.91-.09-2.75h1.64l.11,1.68h0a3.74,3.74,0,0,1,3.36-1.91c1.4,0,3.59.84,3.59,4.33v6.07h-1.85v-5.86c0-1.64-.61-3-2.35-3a2.64,2.64,0,0,0-2.48,1.89,2.8,2.8,0,0,0-.13.87v6.11h-1.84Z" transform="translate(150.9 -312.9)"/><path class="cls-6" d="M-37.82,486.94a6.53,6.53,0,0,0,3.28.92c1.87,0,3-1,3-2.41s-.76-2.08-2.67-2.81c-2.31-.82-3.73-2-3.73-4,0-2.21,1.82-3.85,4.57-3.85a6.39,6.39,0,0,1,3.13.7l-.5,1.49a5.57,5.57,0,0,0-2.69-.68c-1.93,0-2.67,1.16-2.67,2.13,0,1.32.86,2,2.82,2.72,2.39.93,3.61,2.08,3.61,4.16s-1.62,4.08-5,4.08a7.27,7.27,0,0,1-3.61-.91Z" transform="translate(150.9 -312.9)"/><path class="cls-6" d="M-15.12,481.94c0,4.87-3,7.46-6.57,7.46S-28,486.5-28,482.22c0-4.5,2.79-7.44,6.57-7.44S-15.12,477.74-15.12,481.94Zm-11,.23c0,3,1.64,5.74,4.52,5.74S-17,485.24-17,482c0-2.82-1.47-5.76-4.51-5.76S-26.1,479.07-26.1,482.17Z" transform="translate(150.9 -312.9)"/><path class="cls-6" d="M-10,492.25v-2.16h-4v-.84l3.71-5.23h1.66v5h1.18v1H-8.63v2.16Zm0-5.67c0-.46,0-.9.06-1.32h0c-.26.48-.47.86-.72,1.24L-12.55,489l0,0H-10Z" transform="translate(150.9 -312.9)"/><path class="cls-7" d="M115.46,485.83a9,9,0,0,1-3.73.67c-4,0-7-2.52-7-7.16a7,7,0,0,1,7.39-7.43,7.58,7.58,0,0,1,3.36.63L115,474a6.57,6.57,0,0,0-2.85-.59c-3.32,0-5.52,2.12-5.52,5.84,0,3.46,2,5.69,5.43,5.69a7.21,7.21,0,0,0,3-.59Z" transform="translate(150.9 -312.9)"/><path class="cls-7" d="M125.94,483.52c0,1.05,0,2,.09,2.77h-1.64l-.11-1.66h0a3.81,3.81,0,0,1-3.36,1.89c-1.59,0-3.5-.88-3.5-4.45v-5.94h1.84v5.63c0,1.93.59,3.23,2.27,3.23a2.68,2.68,0,0,0,2.44-1.68,2.82,2.82,0,0,0,.16-.95v-6.23h1.85Z" transform="translate(150.9 -312.9)"/><path class="cls-7" d="M128.82,484.07a6.53,6.53,0,0,0,3.28.92c1.86,0,3-1,3-2.41s-.76-2.08-2.67-2.82c-2.31-.82-3.74-2-3.74-4,0-2.2,1.83-3.84,4.58-3.84a6.52,6.52,0,0,1,3.13.69l-.51,1.49a5.62,5.62,0,0,0-2.68-.67c-1.94,0-2.67,1.16-2.67,2.12,0,1.32.86,2,2.81,2.73,2.4.92,3.61,2.08,3.61,4.16s-1.61,4.07-4.95,4.07a7.32,7.32,0,0,1-3.61-.9Z" transform="translate(150.9 -312.9)"/><path class="cls-7" d="M151.52,479.07c0,4.87-3,7.45-6.57,7.45s-6.37-2.9-6.37-7.18c0-4.49,2.8-7.43,6.58-7.43S151.52,474.87,151.52,479.07Zm-11,.23c0,3,1.64,5.73,4.51,5.73s4.54-2.67,4.54-5.88c0-2.81-1.47-5.75-4.52-5.75S140.54,476.19,140.54,479.3Z" transform="translate(150.9 -312.9)"/><path class="cls-7" d="M156.6,489.38v-2.17h-4v-.83l3.72-5.23H158v5h1.17v1H158v2.17Zm0-5.67c0-.46,0-.9.07-1.32h0a12.21,12.21,0,0,1-.71,1.23l-1.83,2.52,0,.05h2.5Z" transform="translate(150.9 -312.9)"/><line class="cls-8" x1="117.89" y1="41.82" x2="117.89" y2="21.91"/><line class="cls-8" x1="284.07" y1="41.82" x2="284.07" y2="21.91"/><line class="cls-8" x1="117.89" y1="21.91" x2="284.07" y2="21.91"/><line class="cls-9" x1="140.87" y1="81.1" x2="140.87" y2="40.33"/><line class="cls-9" x1="262.13" y1="77.13" x2="262.13" y2="40.05"/><line class="cls-9" x1="140.87" y1="40.33" x2="262.13" y2="40.21"/><line class="cls-9" x1="149.56" y1="80.52" x2="149.56" y2="48.26"/><line class="cls-9" x1="253.77" y1="78.18" x2="253.77" y2="48.75"/><line class="cls-9" x1="149.56" y1="48.75" x2="253.77" y2="48.75"/><path class="cls-10" d="M-119.25,326.41v-1l1.24-1.21c3-2.85,4.34-4.36,4.36-6.12a2.09,2.09,0,0,0-2.33-2.29,4,4,0,0,0-2.48,1l-.51-1.12a5.2,5.2,0,0,1,3.32-1.18,3.29,3.29,0,0,1,3.58,3.4c0,2.16-1.57,3.91-4,6.28l-.94.87v0h5.26v1.32Z" transform="translate(150.9 -312.9)"/><path class="cls-10" d="M-108.63,322.34a2.78,2.78,0,0,0,3,3,5.63,5.63,0,0,0,2.41-.45l.27,1.14a7.09,7.09,0,0,1-2.9.54,4.06,4.06,0,0,1-4.29-4.4c0-2.62,1.55-4.7,4.09-4.7,2.85,0,3.6,2.51,3.6,4.11a5.82,5.82,0,0,1-.05.74Zm4.64-1.14a2.25,2.25,0,0,0-2.19-2.57,2.62,2.62,0,0,0-2.43,2.57Z" transform="translate(150.9 -312.9)"/><path class="cls-10" d="M-98.7,314.7v.87h-2.79v-.87Z" transform="translate(150.9 -312.9)"/><path class="cls-10" d="M-85.73,317.69c0,.63-.08,1.33-.08,2.4v5.06c0,2-.39,3.22-1.24,4a4.63,4.63,0,0,1-3.17,1,5.62,5.62,0,0,1-2.9-.72l.4-1.21a4.91,4.91,0,0,0,2.56.69c1.62,0,2.8-.85,2.8-3v-1h0a3.11,3.11,0,0,1-2.77,1.46c-2.16,0-3.71-1.84-3.71-4.25,0-2.95,1.92-4.63,3.92-4.63A2.91,2.91,0,0,1-87.23,319h0l.07-1.32Zm-1.64,3.44a2.33,2.33,0,0,0-.09-.72,2.29,2.29,0,0,0-2.22-1.67c-1.51,0-2.59,1.28-2.59,3.29,0,1.71.86,3.14,2.57,3.14a2.32,2.32,0,0,0,2.2-1.63,2.72,2.72,0,0,0,.13-.84Z" transform="translate(150.9 -312.9)"/><path class="cls-10" d="M-78.36,326.41l-.12-1.1h-.06a3.24,3.24,0,0,1-2.66,1.3,2.49,2.49,0,0,1-2.67-2.51c0-2.1,1.88-3.26,5.24-3.24v-.18a1.79,1.79,0,0,0-2-2,4.42,4.42,0,0,0-2.27.64l-.36-1a5.41,5.41,0,0,1,2.87-.78c2.66,0,3.31,1.82,3.31,3.57v3.26a13.31,13.31,0,0,0,.14,2.09Zm-.23-4.45c-1.73,0-3.69.27-3.69,2a1.4,1.4,0,0,0,1.49,1.52A2.18,2.18,0,0,0-78.68,324a1.89,1.89,0,0,0,.09-.51Z" transform="translate(150.9 -312.9)"/><path class="cls-10" d="M-74.51,313.62h1.59v12.79h-1.59Z" transform="translate(150.9 -312.9)"/><path class="cls-10" d="M-68.35,315.19v2.5h2.27v1.21h-2.27v4.7c0,1.08.31,1.69,1.19,1.69a3.31,3.31,0,0,0,.92-.11l.07,1.19a3.78,3.78,0,0,1-1.4.22,2.23,2.23,0,0,1-1.72-.67,3.23,3.23,0,0,1-.61-2.27V318.9h-1.35v-1.21h1.35V315.6Z" transform="translate(150.9 -312.9)"/><path class="cls-10" d="M-65.29,325.49l3.94-5.13c.38-.47.74-.88,1.14-1.35v0h-4.72v-1.28h6.64v1l-3.89,5.06c-.36.49-.72.92-1.12,1.37v0h5.1v1.26h-7.08Z" transform="translate(150.9 -312.9)"/><path class="cls-10" d="M-55.84,322.34a2.79,2.79,0,0,0,3,3,5.59,5.59,0,0,0,2.41-.45l.27,1.14a7.09,7.09,0,0,1-2.9.54,4,4,0,0,1-4.28-4.4c0-2.62,1.55-4.7,4.09-4.7,2.84,0,3.6,2.51,3.6,4.11a5.45,5.45,0,0,1-.06.74Zm4.65-1.14a2.26,2.26,0,0,0-2.2-2.57,2.63,2.63,0,0,0-2.43,2.57Z" transform="translate(150.9 -312.9)"/><path class="cls-10" d="M-47.7,320.05c0-.9,0-1.64-.08-2.36h1.41l.09,1.44h0a3.2,3.2,0,0,1,2.88-1.64c1.2,0,3.07.72,3.07,3.71v5.21h-1.58v-5c0-1.4-.52-2.57-2-2.57A2.25,2.25,0,0,0-46,320.43a2.35,2.35,0,0,0-.11.74v5.24H-47.7Z" transform="translate(150.9 -312.9)"/><path class="cls-10" d="M-26.37,313.62v10.54c0,.77,0,1.65.07,2.25h-1.42l-.07-1.52h0a3.22,3.22,0,0,1-3,1.72c-2.11,0-3.73-1.79-3.73-4.43,0-2.9,1.78-4.69,3.91-4.69A2.93,2.93,0,0,1-28,318.83h0v-5.21ZM-28,321.24a2.55,2.55,0,0,0-.07-.67,2.33,2.33,0,0,0-2.28-1.83c-1.64,0-2.62,1.44-2.62,3.36,0,1.77.87,3.23,2.58,3.23A2.39,2.39,0,0,0-28,323.44a2.57,2.57,0,0,0,.07-.69Z" transform="translate(150.9 -312.9)"/><path class="cls-10" d="M-15.86,322a4.26,4.26,0,0,1-4.34,4.63,4.15,4.15,0,0,1-4.18-4.49A4.26,4.26,0,0,1-20,317.49C-17.55,317.49-15.86,319.31-15.86,322Zm-6.91.09c0,1.91,1.09,3.35,2.64,3.35s2.65-1.43,2.65-3.39c0-1.47-.74-3.35-2.61-3.35S-22.77,320.41-22.77,322.07Z" transform="translate(150.9 -312.9)"/><path class="cls-10" d="M-9,326.41l-.12-1.1h-.06a3.24,3.24,0,0,1-2.66,1.3,2.49,2.49,0,0,1-2.67-2.51c0-2.1,1.87-3.26,5.24-3.24v-.18a1.79,1.79,0,0,0-2-2,4.39,4.39,0,0,0-2.27.64l-.36-1a5.4,5.4,0,0,1,2.86-.78c2.67,0,3.32,1.82,3.32,3.57v3.26a12.2,12.2,0,0,0,.14,2.09ZM-9.27,322c-1.73,0-3.69.27-3.69,2a1.4,1.4,0,0,0,1.49,1.52A2.18,2.18,0,0,0-9.36,324a1.89,1.89,0,0,0,.09-.51Z" transform="translate(150.9 -312.9)"/><rect class="cls-11" x="183.3" y="8.12" width="44.6" height="14.79"/><path class="cls-10" d="M99.59,325.68v-1l1.24-1.21c3-2.84,4.34-4.35,4.36-6.12a2.09,2.09,0,0,0-2.33-2.28,4,4,0,0,0-2.48,1l-.5-1.12a5.15,5.15,0,0,1,3.31-1.19,3.29,3.29,0,0,1,3.58,3.4c0,2.17-1.57,3.91-4,6.29l-.94.86v0h5.26v1.31Z" transform="translate(150.9 -312.9)"/><path class="cls-10" d="M110.21,321.61a2.79,2.79,0,0,0,3,3,5.78,5.78,0,0,0,2.41-.45l.27,1.13a6.93,6.93,0,0,1-2.9.54,4,4,0,0,1-4.29-4.39c0-2.63,1.55-4.7,4.09-4.7,2.85,0,3.6,2.5,3.6,4.11a5.63,5.63,0,0,1,0,.73Zm4.64-1.13a2.25,2.25,0,0,0-2.19-2.58,2.62,2.62,0,0,0-2.43,2.58Z" transform="translate(150.9 -312.9)"/><path class="cls-10" d="M120.14,314v.86h-2.79V314Z" transform="translate(150.9 -312.9)"/><path class="cls-10" d="M127.36,314.52a1,1,0,0,1-2,0,1,1,0,0,1,1-1A.94.94,0,0,1,127.36,314.52Zm-1.76,11.16V317h1.58v8.71Z" transform="translate(150.9 -312.9)"/><path class="cls-10" d="M129.81,319.69c0-1,0-1.91-.07-2.72h1.38l.06,1.71h.07a2.62,2.62,0,0,1,2.41-1.91,2,2,0,0,1,.45.05v1.5a2.16,2.16,0,0,0-.54-.05,2.21,2.21,0,0,0-2.12,2,4.14,4.14,0,0,0-.07.74v4.64h-1.57Z" transform="translate(150.9 -312.9)"/><path class="cls-10" d="M140.43,325.68l-.13-1.1h-.05a3.23,3.23,0,0,1-2.66,1.3,2.48,2.48,0,0,1-2.67-2.5c0-2.11,1.87-3.26,5.24-3.24V320a1.8,1.8,0,0,0-2-2,4.31,4.31,0,0,0-2.27.65l-.36-1a5.49,5.49,0,0,1,2.86-.77c2.67,0,3.32,1.82,3.32,3.57v3.25a12.06,12.06,0,0,0,.14,2.09Zm-.23-4.44c-1.73,0-3.69.27-3.69,2a1.4,1.4,0,0,0,1.49,1.51,2.18,2.18,0,0,0,2.11-1.46,1.76,1.76,0,0,0,.09-.5Z" transform="translate(150.9 -312.9)"/><path class="cls-10" d="M144.21,325.68c0-.59.07-1.47.07-2.25V312.9h1.57v5.47h0a3.25,3.25,0,0,1,3-1.6c2.16,0,3.69,1.8,3.68,4.45,0,3.11-2,4.66-3.91,4.66a3.1,3.1,0,0,1-2.92-1.64h0l-.07,1.44Zm1.64-3.49a2.71,2.71,0,0,0,.07.58,2.45,2.45,0,0,0,2.38,1.85c1.65,0,2.64-1.35,2.64-3.35,0-1.74-.9-3.24-2.59-3.24a2.52,2.52,0,0,0-2.41,2,2.81,2.81,0,0,0-.09.64Z" transform="translate(150.9 -312.9)"/><path class="cls-10" d="M159.35,325.68l-.13-1.1h-.05a3.24,3.24,0,0,1-2.67,1.3,2.48,2.48,0,0,1-2.66-2.5c0-2.11,1.87-3.26,5.24-3.24V320a1.8,1.8,0,0,0-2-2,4.31,4.31,0,0,0-2.27.65l-.36-1a5.47,5.47,0,0,1,2.86-.77c2.67,0,3.31,1.82,3.31,3.57v3.25a12,12,0,0,0,.15,2.09Zm-.24-4.44c-1.72,0-3.69.27-3.69,2a1.41,1.41,0,0,0,1.5,1.51,2.16,2.16,0,0,0,2.1-1.46,1.47,1.47,0,0,0,.09-.5Z" transform="translate(150.9 -312.9)"/><path class="cls-10" d="M162.21,324.76l3.94-5.13,1.14-1.35v0h-4.72V317h6.64l0,1L165.3,323c-.36.48-.72.92-1.11,1.37v0h5.09v1.26h-7.07Z" transform="translate(150.9 -312.9)"/><path class="cls-10" d="M172.81,314.47V317h2.27v1.2h-2.27v4.7c0,1.08.31,1.7,1.19,1.7a3.75,3.75,0,0,0,.92-.11l.07,1.19a4.06,4.06,0,0,1-1.41.21,2.21,2.21,0,0,1-1.71-.66,3.25,3.25,0,0,1-.61-2.27v-4.76h-1.35V317h1.35v-2.09Z" transform="translate(150.9 -312.9)"/><path class="cls-10" d="M177.63,321.61a2.8,2.8,0,0,0,3,3,5.8,5.8,0,0,0,2.42-.45l.27,1.13a7,7,0,0,1-2.9.54,4,4,0,0,1-4.29-4.39c0-2.63,1.55-4.7,4.09-4.7,2.84,0,3.6,2.5,3.6,4.11,0,.32,0,.57-.05.73Zm4.65-1.13a2.26,2.26,0,0,0-2.2-2.58,2.63,2.63,0,0,0-2.43,2.58Z" transform="translate(150.9 -312.9)"/><path class="cls-10" d="M184.78,324.76l3.94-5.13,1.14-1.35v0h-4.72V317h6.64v1L187.88,323c-.36.48-.72.92-1.12,1.37v0h5.1v1.26h-7.08Z" transform="translate(150.9 -312.9)"/><path class="cls-10" d="M204.82,312.9v10.53c0,.78,0,1.66.07,2.25h-1.42l-.08-1.51h0a3.23,3.23,0,0,1-3,1.71c-2.11,0-3.73-1.78-3.73-4.43,0-2.9,1.78-4.68,3.91-4.68a2.93,2.93,0,0,1,2.63,1.33h0v-5.2Zm-1.59,7.62a3.05,3.05,0,0,0-.07-.67,2.33,2.33,0,0,0-2.29-1.84c-1.64,0-2.61,1.44-2.61,3.37,0,1.76.87,3.22,2.58,3.22a2.38,2.38,0,0,0,2.32-1.89,2.9,2.9,0,0,0,.07-.68Z" transform="translate(150.9 -312.9)"/><path class="cls-10" d="M215.33,321.25a4.26,4.26,0,0,1-4.34,4.63,4.14,4.14,0,0,1-4.18-4.48c0-2.92,1.91-4.63,4.32-4.63S215.33,318.59,215.33,321.25Zm-6.92.09c0,1.91,1.1,3.35,2.65,3.35s2.65-1.42,2.65-3.38c0-1.48-.74-3.35-2.61-3.35S208.41,319.69,208.41,321.34Z" transform="translate(150.9 -312.9)"/><path class="cls-10" d="M222.15,325.68l-.13-1.1H222a3.24,3.24,0,0,1-2.67,1.3,2.48,2.48,0,0,1-2.66-2.5c0-2.11,1.87-3.26,5.24-3.24V320a1.8,1.8,0,0,0-2-2,4.31,4.31,0,0,0-2.27.65l-.36-1a5.47,5.47,0,0,1,2.86-.77c2.67,0,3.32,1.82,3.32,3.57v3.25a12.06,12.06,0,0,0,.14,2.09Zm-.23-4.44c-1.73,0-3.7.27-3.7,2a1.41,1.41,0,0,0,1.5,1.51,2.18,2.18,0,0,0,2.11-1.46,1.76,1.76,0,0,0,.09-.5Z" transform="translate(150.9 -312.9)"/><path class="cls-10" d="M-150.9,335.3a9.19,9.19,0,0,1,1.75-.15,3,3,0,0,1,2,.54,1.56,1.56,0,0,1,.62,1.31,1.78,1.78,0,0,1-1.26,1.63v0a1.9,1.9,0,0,1,1.53,1.86,2,2,0,0,1-.63,1.48,3.72,3.72,0,0,1-2.56.69,12.4,12.4,0,0,1-1.49-.08Zm1,3h.87c1,0,1.61-.53,1.61-1.24,0-.87-.66-1.21-1.63-1.21a4.6,4.6,0,0,0-.85.06Zm0,3.55a4.27,4.27,0,0,0,.8.05c1,0,1.91-.37,1.91-1.44s-.87-1.44-1.92-1.44h-.79Z" transform="translate(150.9 -312.9)"/><path class="cls-10" d="M-144.38,340.13a1.7,1.7,0,0,0,1.82,1.85,3.61,3.61,0,0,0,1.48-.27l.16.69a4.36,4.36,0,0,1-1.77.33,2.48,2.48,0,0,1-2.62-2.69,2.59,2.59,0,0,1,2.5-2.87,2.26,2.26,0,0,1,2.2,2.51,4,4,0,0,1,0,.45Zm2.84-.69a1.38,1.38,0,0,0-1.35-1.57,1.59,1.59,0,0,0-1.48,1.57Z" transform="translate(150.9 -312.9)"/><path class="cls-10" d="M-139.41,339c0-.63,0-1.17-.05-1.67h.85l0,1h.05a1.59,1.59,0,0,1,1.47-1.17.82.82,0,0,1,.28,0v.91a1.61,1.61,0,0,0-.33,0,1.35,1.35,0,0,0-1.3,1.24,3,3,0,0,0,0,.45v2.84h-1Z" transform="translate(150.9 -312.9)"/><path class="cls-10" d="M-132.92,342.62-133,342h0a2,2,0,0,1-1.63.79,1.52,1.52,0,0,1-1.63-1.53c0-1.29,1.15-2,3.2-2v-.11a1.1,1.1,0,0,0-1.21-1.23,2.65,2.65,0,0,0-1.38.39l-.22-.63a3.28,3.28,0,0,1,1.75-.48c1.63,0,2,1.11,2,2.18v2a7.13,7.13,0,0,0,.09,1.28Zm-.14-2.72c-1.06,0-2.26.17-2.26,1.2a.85.85,0,0,0,.91.92,1.32,1.32,0,0,0,1.29-.89,1.14,1.14,0,0,0,.06-.3Z" transform="translate(150.9 -312.9)"/><path class="cls-10" d="M-131.17,342.06l2.41-3.14.69-.82v0h-2.88v-.79h4.06v.61l-2.38,3.09c-.22.3-.44.56-.68.84v0h3.11v.77h-4.32Z" transform="translate(150.9 -312.9)"/><path class="cls-10" d="M-126.49,344a14.86,14.86,0,0,0,.66-2.63l1.08-.11a13.78,13.78,0,0,1-1,2.68Z" transform="translate(150.9 -312.9)"/><path class="cls-10" d="M-121.72,342.06l4.11-6v0h-3.76v-.81h5v.59l-4.09,6v0h4.15v.8h-5.41Z" transform="translate(150.9 -312.9)"/><path class="cls-10" d="M-115.17,338.73c0-.54,0-1,0-1.44h.86l0,.88h0a2,2,0,0,1,1.76-1c.74,0,1.89.44,1.89,2.27v3.18h-1v-3.07c0-.86-.32-1.57-1.24-1.57a1.37,1.37,0,0,0-1.29,1,1.22,1.22,0,0,0-.07.45v3.2h-1Z" transform="translate(150.9 -312.9)"/><path class="cls-10" d="M-105.07,339.29l.69-.65c.92-.83,1.39-1.35,1.39-1.91a.74.74,0,0,0-.84-.77,1.71,1.71,0,0,0-.92.34l-.23-.49a2.15,2.15,0,0,1,1.34-.46,1.29,1.29,0,0,1,1.46,1.24c0,.83-.62,1.43-1.46,2.17l-.34.3v0h1.88v.6h-3Z" transform="translate(150.9 -312.9)"/><path class="cls-10" d="M-95.7,342.62l-.07-.67h0a2,2,0,0,1-1.63.79,1.52,1.52,0,0,1-1.62-1.53c0-1.29,1.14-2,3.2-2v-.11a1.1,1.1,0,0,0-1.21-1.23,2.68,2.68,0,0,0-1.39.39l-.22-.63a3.28,3.28,0,0,1,1.75-.48c1.63,0,2,1.11,2,2.18v2a8.19,8.19,0,0,0,.09,1.28Zm-.14-2.72c-1.06,0-2.26.17-2.26,1.2a.85.85,0,0,0,.92.92,1.31,1.31,0,0,0,1.28-.89.84.84,0,0,0,.06-.3Z" transform="translate(150.9 -312.9)"/><path class="cls-10" d="M-93.48,341.63a2.55,2.55,0,0,0,1.28.38c.7,0,1-.35,1-.79s-.27-.71-1-1c-1-.34-1.4-.87-1.4-1.51a1.64,1.64,0,0,1,1.83-1.56,2.7,2.7,0,0,1,1.31.33l-.24.71a2.08,2.08,0,0,0-1.09-.31c-.57,0-.89.33-.89.73s.32.63,1,.9c.93.35,1.4.81,1.4,1.6s-.73,1.6-2,1.6a3.08,3.08,0,0,1-1.5-.36Z" transform="translate(150.9 -312.9)"/><path class="cls-10" d="M-88,339.74h0c.13-.19.32-.42.47-.61l1.57-1.84h1.16l-2,2.19,2.34,3.14H-85.7l-1.84-2.55-.49.55v2h-1v-7.81h1Z" transform="translate(150.9 -312.9)"/><path class="cls-10" d="M-80.68,342.62l-.08-.67h0a2,2,0,0,1-1.63.79A1.52,1.52,0,0,1-84,341.21c0-1.29,1.15-2,3.2-2v-.11a1.1,1.1,0,0,0-1.21-1.23,2.65,2.65,0,0,0-1.38.39l-.22-.63a3.25,3.25,0,0,1,1.75-.48c1.62,0,2,1.11,2,2.18v2a7.13,7.13,0,0,0,.09,1.28Zm-.15-2.72c-1,0-2.25.17-2.25,1.2a.85.85,0,0,0,.91.92,1.32,1.32,0,0,0,1.29-.89,1.11,1.11,0,0,0,0-.3Z" transform="translate(150.9 -312.9)"/><path class="cls-10" d="M-77.21,335.76v1.53h1.39V338h-1.39v2.87c0,.66.19,1,.73,1a2.26,2.26,0,0,0,.56-.07l0,.73a2.48,2.48,0,0,1-.85.13,1.32,1.32,0,0,1-1-.41,2,2,0,0,1-.37-1.38V338H-79v-.74h.83V336Z" transform="translate(150.9 -312.9)"/><path class="cls-10" d="M-75.34,342.06l2.41-3.14c.23-.28.45-.54.7-.82v0h-2.89v-.79h4.06v.61L-73.44,341c-.23.3-.44.56-.69.84v0H-71v.77h-4.33Z" transform="translate(150.9 -312.9)"/><path class="cls-10" d="M-69.56,340.13A1.71,1.71,0,0,0-67.74,342a3.57,3.57,0,0,0,1.48-.27l.16.69a4.36,4.36,0,0,1-1.77.33A2.48,2.48,0,0,1-70.49,340a2.59,2.59,0,0,1,2.5-2.87,2.26,2.26,0,0,1,2.2,2.51,4,4,0,0,1,0,.45Zm2.84-.69a1.38,1.38,0,0,0-1.35-1.57,1.61,1.61,0,0,0-1.48,1.57Z" transform="translate(150.9 -312.9)"/><path class="cls-10" d="M-64.59,338.73c0-.54,0-1,0-1.44h.85l.06.88h0a2,2,0,0,1,1.76-1c.74,0,1.88.44,1.88,2.27v3.18h-1v-3.07c0-.86-.31-1.57-1.23-1.57a1.38,1.38,0,0,0-1.3,1,1.49,1.49,0,0,0-.06.45v3.2h-1Z" transform="translate(150.9 -312.9)"/><path class="cls-10" d="M-51.55,334.81v6.43c0,.48,0,1,0,1.38h-.87l0-.93h0a2,2,0,0,1-1.81,1.05A2.43,2.43,0,0,1-56.54,340c0-1.77,1.09-2.86,2.39-2.86a1.8,1.8,0,0,1,1.61.82h0v-3.18Zm-1,4.65a1.48,1.48,0,0,0,0-.41A1.42,1.42,0,0,0-54,337.93c-1,0-1.6.88-1.6,2.06s.53,2,1.57,2a1.45,1.45,0,0,0,1.42-1.16,1.36,1.36,0,0,0,0-.41Z" transform="translate(150.9 -312.9)"/><path class="cls-10" d="M-48.87,335.8a.57.57,0,0,1-.62.59.57.57,0,0,1-.58-.59.59.59,0,0,1,.6-.61A.58.58,0,0,1-48.87,335.8Zm-1.08,6.82v-5.33h1v5.33Z" transform="translate(150.9 -312.9)"/><path class="cls-10" d="M-47.38,339c0-.63,0-1.17,0-1.67h.85l0,1h0A1.61,1.61,0,0,1-45,337.17a.73.73,0,0,1,.27,0v.91a1.55,1.55,0,0,0-.33,0,1.34,1.34,0,0,0-1.29,1.24,2.06,2.06,0,0,0-.05.45v2.84h-1Z" transform="translate(150.9 -312.9)"/><path class="cls-10" d="M-40.88,342.62-41,342h0a2,2,0,0,1-1.63.79,1.52,1.52,0,0,1-1.63-1.53c0-1.29,1.14-2,3.2-2v-.11a1.1,1.1,0,0,0-1.21-1.23,2.71,2.71,0,0,0-1.39.39l-.22-.63a3.28,3.28,0,0,1,1.75-.48c1.63,0,2,1.11,2,2.18v2a7.13,7.13,0,0,0,.09,1.28ZM-41,339.9c-1,0-2.25.17-2.25,1.2a.85.85,0,0,0,.91.92,1.34,1.34,0,0,0,1.29-.89,1.11,1.11,0,0,0,0-.3Z" transform="translate(150.9 -312.9)"/><path class="cls-10" d="M140.29,335.09a9.08,9.08,0,0,1,1.75-.16,3.06,3.06,0,0,1,2,.54,1.56,1.56,0,0,1,.62,1.31,1.76,1.76,0,0,1-1.25,1.63v0a1.92,1.92,0,0,1,1.53,1.86,2,2,0,0,1-.63,1.49,3.75,3.75,0,0,1-2.57.69,11.76,11.76,0,0,1-1.48-.09Zm1,3h.87c1,0,1.6-.53,1.6-1.24,0-.87-.66-1.21-1.63-1.21a3.48,3.48,0,0,0-.84.07Zm0,3.56a5.52,5.52,0,0,0,.8,0c1,0,1.9-.36,1.9-1.44s-.87-1.43-1.91-1.43h-.79Z" transform="translate(150.9 -312.9)"/><path class="cls-10" d="M146.8,339.92a1.7,1.7,0,0,0,1.83,1.84,3.56,3.56,0,0,0,1.47-.27l.17.69a4.23,4.23,0,0,1-1.77.33,2.47,2.47,0,0,1-2.62-2.68,2.58,2.58,0,0,1,2.5-2.87,2.26,2.26,0,0,1,2.2,2.5,3.72,3.72,0,0,1,0,.46Zm2.84-.7a1.38,1.38,0,0,0-1.34-1.57,1.61,1.61,0,0,0-1.49,1.57Z" transform="translate(150.9 -312.9)"/><path class="cls-10" d="M151.77,338.74c0-.63,0-1.17,0-1.66h.85l0,1h0a1.61,1.61,0,0,1,1.48-1.16,1.12,1.12,0,0,1,.27,0v.91a1.61,1.61,0,0,0-.33,0,1.37,1.37,0,0,0-1.3,1.24,3.14,3.14,0,0,0,0,.45v2.84h-1Z" transform="translate(150.9 -312.9)"/><path class="cls-10" d="M158.26,342.4l-.07-.67h0a2,2,0,0,1-1.62.79A1.52,1.52,0,0,1,154.9,341c0-1.28,1.14-2,3.2-2v-.11a1.1,1.1,0,0,0-1.21-1.23,2.69,2.69,0,0,0-1.39.4l-.22-.64A3.27,3.27,0,0,1,157,337c1.63,0,2,1.11,2,2.17v2a8.14,8.14,0,0,0,.08,1.27Zm-.14-2.71c-1.06,0-2.25.16-2.25,1.19a.86.86,0,0,0,.91.93,1.34,1.34,0,0,0,1.29-.89,1.12,1.12,0,0,0,.05-.31Z" transform="translate(150.9 -312.9)"/><path class="cls-10" d="M160,341.84l2.41-3.13c.23-.29.45-.54.69-.83v0h-2.88v-.78h4.06v.6l-2.38,3.09c-.22.3-.44.56-.68.84v0h3.12v.77H160Z" transform="translate(150.9 -312.9)"/><path class="cls-10" d="M164.7,343.76a16,16,0,0,0,.66-2.63l1.08-.11a13.87,13.87,0,0,1-1.05,2.67Z" transform="translate(150.9 -312.9)"/><path class="cls-10" d="M175.15,342.16a4.7,4.7,0,0,1-2,.35,3.46,3.46,0,0,1-3.66-3.75,3.68,3.68,0,0,1,3.87-3.89,3.86,3.86,0,0,1,1.76.33l-.23.78a3.42,3.42,0,0,0-1.5-.31,2.75,2.75,0,0,0-2.89,3.06,2.69,2.69,0,0,0,2.85,3,3.76,3.76,0,0,0,1.56-.31Z" transform="translate(150.9 -312.9)"/><path class="cls-10" d="M180.64,341c0,.55,0,1,0,1.45h-.86l0-.87h0a2,2,0,0,1-1.76,1c-.84,0-1.84-.46-1.84-2.33v-3.11h1V340c0,1,.31,1.69,1.19,1.69a1.39,1.39,0,0,0,1.27-.88,1.3,1.3,0,0,0,.09-.49v-3.27h1Z" transform="translate(150.9 -312.9)"/><path class="cls-10" d="M186.24,339.07l.69-.65c.91-.83,1.39-1.34,1.39-1.9a.75.75,0,0,0-.84-.77,1.58,1.58,0,0,0-.92.34l-.24-.5a2.18,2.18,0,0,1,1.35-.46,1.29,1.29,0,0,1,1.46,1.24c0,.83-.63,1.43-1.46,2.17l-.34.31v0h1.88v.61h-3Z" transform="translate(150.9 -312.9)"/><path class="cls-10" d="M197.88,342.16a4.74,4.74,0,0,1-2,.35,3.47,3.47,0,0,1-3.67-3.75,3.69,3.69,0,0,1,3.88-3.89,3.9,3.9,0,0,1,1.76.33l-.24.78a3.41,3.41,0,0,0-1.49-.31,2.75,2.75,0,0,0-2.89,3.06,2.69,2.69,0,0,0,2.84,3,3.81,3.81,0,0,0,1.57-.31Z" transform="translate(150.9 -312.9)"/><path class="cls-10" d="M203.36,341c0,.55,0,1,0,1.45h-.86l-.06-.87h0a2,2,0,0,1-1.76,1c-.83,0-1.83-.46-1.83-2.33v-3.11h1V340c0,1,.31,1.69,1.19,1.69a1.41,1.41,0,0,0,1.28-.88,1.52,1.52,0,0,0,.09-.49v-3.27h1Z" transform="translate(150.9 -312.9)"/><path class="cls-10" d="M207.26,342.4c0-.36,0-.9,0-1.37v-6.44h1v3.35h0a2,2,0,0,1,1.82-1c1.32,0,2.25,1.1,2.24,2.71,0,1.91-1.2,2.85-2.39,2.85a1.89,1.89,0,0,1-1.78-1h0l0,.88Zm1-2.13a2,2,0,0,0,0,.35,1.5,1.5,0,0,0,1.45,1.13c1,0,1.62-.82,1.62-2,0-1.07-.55-2-1.58-2a1.55,1.55,0,0,0-1.48,1.19,2,2,0,0,0-.05.39Z" transform="translate(150.9 -312.9)"/><path class="cls-10" d="M214.64,335.58a.6.6,0,1,1-1.2,0,.58.58,0,0,1,.6-.6A.57.57,0,0,1,214.64,335.58Zm-1.08,6.82v-5.32h1v5.32Z" transform="translate(150.9 -312.9)"/><path class="cls-10" d="M216.13,334.59h1v7.81h-1Z" transform="translate(150.9 -312.9)"/><path class="cls-10" d="M221.68,342.4l-.08-.67h0a2,2,0,0,1-1.63.79,1.52,1.52,0,0,1-1.63-1.53c0-1.28,1.15-2,3.2-2v-.11a1.1,1.1,0,0,0-1.21-1.23,2.66,2.66,0,0,0-1.38.4l-.22-.64a3.25,3.25,0,0,1,1.75-.47c1.62,0,2,1.11,2,2.17v2a7,7,0,0,0,.09,1.27Zm-.15-2.71c-1.05,0-2.25.16-2.25,1.19a.86.86,0,0,0,.91.93,1.32,1.32,0,0,0,1.29-.89,1.12,1.12,0,0,0,.05-.31Z" transform="translate(150.9 -312.9)"/><path class="cls-10" d="M225,339.52h0c.13-.19.32-.42.47-.6l1.57-1.84h1.16l-2.06,2.19,2.35,3.13h-1.18l-1.84-2.55-.49.55v2h-1v-7.81h1Z" transform="translate(150.9 -312.9)"/><path class="cls-10" d="M232.34,342.4l-.08-.67h0a2,2,0,0,1-1.63.79A1.52,1.52,0,0,1,229,341c0-1.28,1.14-2,3.2-2v-.11a1.1,1.1,0,0,0-1.21-1.23,2.66,2.66,0,0,0-1.38.4l-.22-.64a3.24,3.24,0,0,1,1.74-.47c1.63,0,2,1.11,2,2.17v2a7,7,0,0,0,.09,1.27Zm-.15-2.71c-1.05,0-2.25.16-2.25,1.19a.86.86,0,0,0,.91.93,1.34,1.34,0,0,0,1.29-.89,1.12,1.12,0,0,0,.05-.31Z" transform="translate(150.9 -312.9)"/><path class="cls-10" d="M235.81,335.55v1.53h1.39v.73h-1.39v2.88c0,.66.19,1,.73,1a1.86,1.86,0,0,0,.56-.07l0,.73a2.25,2.25,0,0,1-.85.13,1.35,1.35,0,0,1-1-.4,2,2,0,0,1-.37-1.39v-2.91H234v-.73h.83V335.8Z" transform="translate(150.9 -312.9)"/><path class="cls-10" d="M237.68,341.84l2.41-3.13c.23-.29.45-.54.69-.83v0H237.9v-.78H242v.6l-2.38,3.09c-.22.3-.44.56-.68.84v0H242v.77h-4.33Z" transform="translate(150.9 -312.9)"/><path class="cls-10" d="M243.46,339.92a1.7,1.7,0,0,0,1.82,1.84,3.57,3.57,0,0,0,1.48-.27l.16.69a4.19,4.19,0,0,1-1.77.33,2.47,2.47,0,0,1-2.62-2.68A2.58,2.58,0,0,1,245,337a2.25,2.25,0,0,1,2.2,2.5,4.19,4.19,0,0,1,0,.46Zm2.84-.7a1.38,1.38,0,0,0-1.35-1.57,1.6,1.6,0,0,0-1.48,1.57Z" transform="translate(150.9 -312.9)"/><path class="cls-10" d="M248.43,338.52c0-.55,0-1,0-1.44h.85l.06.88h0a1.94,1.94,0,0,1,1.76-1c.74,0,1.88.44,1.88,2.26v3.18h-1v-3.07c0-.86-.32-1.57-1.23-1.57a1.38,1.38,0,0,0-1.3,1,1.53,1.53,0,0,0-.06.45v3.2h-1Z" transform="translate(150.9 -312.9)"/><path class="cls-10" d="M261.46,334.59V341c0,.47,0,1,.05,1.37h-.87l0-.92h0a2,2,0,0,1-1.81,1,2.43,2.43,0,0,1-2.28-2.7c0-1.77,1.09-2.86,2.39-2.86a1.77,1.77,0,0,1,1.6.81h0v-3.18Zm-1,4.66a1.4,1.4,0,0,0-.05-.41,1.41,1.41,0,0,0-1.39-1.12c-1,0-1.6.88-1.6,2s.53,2,1.57,2a1.45,1.45,0,0,0,1.42-1.15,1.42,1.42,0,0,0,.05-.42Z" transform="translate(150.9 -312.9)"/><path class="cls-10" d="M264.15,335.58a.6.6,0,1,1-1.2,0,.58.58,0,0,1,.6-.6A.57.57,0,0,1,264.15,335.58Zm-1.08,6.82v-5.32h1v5.32Z" transform="translate(150.9 -312.9)"/><path class="cls-10" d="M265.64,338.74c0-.63,0-1.17,0-1.66h.85l0,1h0A1.61,1.61,0,0,1,268,337a1.06,1.06,0,0,1,.27,0v.91a1.55,1.55,0,0,0-.33,0,1.35,1.35,0,0,0-1.29,1.24,2.14,2.14,0,0,0,0,.45v2.84h-1Z" transform="translate(150.9 -312.9)"/><path class="cls-10" d="M272.13,342.4l-.07-.67h0a2,2,0,0,1-1.62.79,1.52,1.52,0,0,1-1.63-1.53c0-1.28,1.14-2,3.2-2v-.11a1.1,1.1,0,0,0-1.21-1.23,2.69,2.69,0,0,0-1.39.4l-.22-.64a3.27,3.27,0,0,1,1.75-.47c1.63,0,2,1.11,2,2.17v2a7,7,0,0,0,.09,1.27Zm-.14-2.71c-1.05,0-2.25.16-2.25,1.19a.86.86,0,0,0,.91.93,1.34,1.34,0,0,0,1.29-.89,1.12,1.12,0,0,0,.05-.31Z" transform="translate(150.9 -312.9)"/><path class="cls-10" d="M-107.2,336.05v1.65h1.58v.42h-1.58v1.66h-.45v-1.66h-1.58v-.42h1.58v-1.65Z" transform="translate(150.9 -312.9)"/><path class="cls-10" d="M183.36,336.05v1.65H185v.42h-1.59v1.66h-.45v-1.66h-1.58v-.42h1.58v-1.65Z" transform="translate(150.9 -312.9)"/><path class="cls-12" d="M19.35,365.57,18.94,371c0,.37,1.07.91,1.1.51l.41-5.44c0-.37-1.07-.91-1.1-.52Z" transform="translate(150.9 -312.9)"/><path class="cls-12" d="M15.85,368.71a14.88,14.88,0,0,1,4.61.29.57.57,0,0,0,.69-.37c.06-.32-.27-.52-.53-.58a16.08,16.08,0,0,0-4.94-.31c-.27,0-.58.2-.53.51a.66.66,0,0,0,.7.46Z" transform="translate(150.9 -312.9)"/><path class="cls-12" d="M16.52,376.48H29.46c.72,0,.43-1.16-.15-1.16H16.37c-.72,0-.43,1.16.15,1.16Z" transform="translate(150.9 -312.9)"/><path class="cls-12" d="M25.92,373.68l2,1.71a.68.68,0,0,0,.88,0,.53.53,0,0,0,0-.79l-2-1.71a.68.68,0,0,0-.88,0,.53.53,0,0,0,0,.79Z" transform="translate(150.9 -312.9)"/><path class="cls-12" d="M28.48,375.53a3.65,3.65,0,0,1-.35.64l-.11.15-.05.06s0,0,0,0l0,0-.25.27-.25.23-.15.12-.08.05h0a4.36,4.36,0,0,1-.64.35.35.35,0,0,0-.07.6.87.87,0,0,0,.88.1,4.35,4.35,0,0,0,2.24-2.21c.12-.27-.12-.5-.37-.57a.79.79,0,0,0-.48,0,.52.52,0,0,0-.32.22Z" transform="translate(150.9 -312.9)"/><path class="cls-12" d="M71.56,368.09a27.53,27.53,0,0,1,6.48.22c.24,0,0-.46,0-.52-.12-.21-.32-.49-.58-.53A27.55,27.55,0,0,0,71,367c-.31,0,.26,1.08.61,1Z" transform="translate(150.9 -312.9)"/><path class="cls-12" d="M79.84,374.45a49.16,49.16,0,0,1-13.27-.6c-.3-.05-.23.32-.16.47a1,1,0,0,0,.68.53,49.61,49.61,0,0,0,13.27.6c.59-.05-.11-1-.52-1Z" transform="translate(150.9 -312.9)"/><path class="cls-12" d="M65.28,374.42a7.7,7.7,0,0,0,1.48,3,.54.54,0,0,0,.79.1.65.65,0,0,0,0-.86l-.22-.3-.11-.16c0-.06,0-.05,0,0l0-.08a4.94,4.94,0,0,1-.35-.64l-.15-.32L66.6,375s-.09-.23,0-.06a5.94,5.94,0,0,1-.21-.72.66.66,0,0,0-.68-.53.55.55,0,0,0-.4.69Z" transform="translate(150.9 -312.9)"/><path class="cls-12" d="M66.73,374.66a.81.81,0,0,1,0-.22s0-.06,0-.09,0-.14,0,0,0,0,0-.06a.44.44,0,0,1,0-.1l.06-.18a.36.36,0,0,0,0-.09c.05-.11-.06.12,0,0l.1-.17.11-.16.06-.08c.07-.09-.1.11,0,0a3.83,3.83,0,0,1,.29-.28s.13-.07,0,0l.08-.06.17-.1.18-.08c-.2.09,0,0,.06,0l.19,0h.06c-.11,0-.13,0-.08,0l.11,0a.63.63,0,0,0,.63-.58.55.55,0,0,0-.6-.53,3,3,0,0,0-2.72,2.92.56.56,0,0,0,.6.53c.3,0,.65-.25.64-.58Z" transform="translate(150.9 -312.9)"/><path class="cls-5" d="M132.52,434.26c1.92,1.34,4.1,2.62,6.52,2.6a6.82,6.82,0,0,0,5.38-2.78c3-4,1.45-8.76.65-13.2-.86-4.78-.83-9.71-1-14.54l-.56-14.9-.66-17.38c-.12-3.2-5.12-3.22-5,0l1,27.31c.17,4.47.28,8.94.54,13.4.13,2.18.35,4.35.69,6.51a63.94,63.94,0,0,1,1.16,6.39c.07,1.32-.09,3-1.25,3.86-1.51,1.12-3.78-.76-5-1.59a2.5,2.5,0,1,0-2.52,4.32Z" transform="translate(150.9 -312.9)"/><path class="cls-5" d="M135,428.46c-1.3.87-2.77,2-4.38,2.18-.66.08-1.9-.09-2.15-.76l-4.18,2.43a11.8,11.8,0,0,0,10.37,4.29,2.5,2.5,0,0,0,0-5c-2.36-.24-5-.53-6.52-2.57s-1.71-4.95-1.49-7.5c.27-3.09,1-6.16,1.55-9.21l1.82-10-4.91-.67-1.24,11.69,4.26-1.77c-2.29-2.69-2.5-6.55-2.49-9.91,0-4.64.3-9.29.64-13.91a268.79,268.79,0,0,1,3.57-28.14,2.57,2.57,0,0,0-1.75-3.08,2.52,2.52,0,0,0-3.07,1.75,280.94,280.94,0,0,0-3.82,30.44c-.33,4.75-.69,9.56-.56,14.33.13,4.38,1,8.64,4,12.05a2.48,2.48,0,0,0,2.73.52,2.59,2.59,0,0,0,1.54-2.28l1.24-11.69c.29-2.78-4.41-3.43-4.91-.66l-2.08,11.47c-.68,3.75-1.65,7.61-1.55,11.43a13.55,13.55,0,0,0,3.57,9.32c2.56,2.56,6.08,3.08,9.52,3.43v-5a7.27,7.27,0,0,1-6.83-2.83c-1.54-1.93-5,.16-4.18,2.44a6.8,6.8,0,0,0,6.09,4.42c2.87.24,5.49-1.32,7.78-2.85,2.66-1.79.16-6.12-2.52-4.32Z" transform="translate(150.9 -312.9)"/><path class="cls-5" d="M121.55,411.45a31.75,31.75,0,0,0,.34,7.48,2.46,2.46,0,0,0,1.15,1.49,2.49,2.49,0,0,0,3.42-.89l.25-.6a2.5,2.5,0,0,0,0-1.33c0-.22-.07-.43-.1-.65l.09.66a28.82,28.82,0,0,1-.15-6.16,2.49,2.49,0,0,0-2.5-2.5,2.57,2.57,0,0,0-1.77.73,2.87,2.87,0,0,0-.73,1.77Z" transform="translate(150.9 -312.9)"/><path class="cls-5" d="M141.37,424a6.46,6.46,0,0,0,5.87-2.71,8.63,8.63,0,0,0,1.44-5.16,30.73,30.73,0,0,0-.77-5.57l-1.32-6.91a2.5,2.5,0,1,0-4.82,1.32l1.06,5.57c.17.9.35,1.8.52,2.7l.18,1c0,.05.07.52,0,.28s0,.41,0,.4a12.54,12.54,0,0,1,0,1.94c0,.16,0,.32,0,.47,0-.26,0-.18,0,0a8.7,8.7,0,0,1-.26.87c.18-.43-.17.25-.27.38.21-.29,0,0-.12.09-.28.25.27-.16-.09.07a1.12,1.12,0,0,1-.65.28c-.4.09.26,0-.15,0a5.17,5.17,0,0,1-.68,0,2.52,2.52,0,0,0-2.5,2.5,2.56,2.56,0,0,0,2.5,2.5Z" transform="translate(150.9 -312.9)"/><path class="cls-5" d="M141.55,414.18c.25,2.36.58,4.74.73,7.11a12.48,12.48,0,0,1,0,1.37c0,.17,0,.34,0,.51s0,.22,0-.17l-.06.32c-.05.21-.12.42-.18.62s-.07.2.08-.16l-.15.27a2.33,2.33,0,0,1-.17.26c.24-.3.28-.35.1-.15l-.23.21c.31-.22.35-.26.12-.11a2.5,2.5,0,1,0,2.53,4.32c2.27-1.46,3-4,3-6.61,0-1.15-.18-2.3-.3-3.45l-.46-4.34a2.5,2.5,0,0,0-5,0Z" transform="translate(150.9 -312.9)"/><path class="cls-5" d="M144.21,405a35.36,35.36,0,0,1,.06-8.54l-.09.67,0-.17-4.91-.66a32.76,32.76,0,0,0,.59,9.05,2.5,2.5,0,0,0,3.07,1.74,2.56,2.56,0,0,0,1.75-3.07c-.14-.66-.25-1.33-.34-2l.09.67a30.34,30.34,0,0,1-.16-6.39,2.48,2.48,0,0,0-2.17-2.46,2.39,2.39,0,0,0-1.59.3,2.35,2.35,0,0,0-1.15,1.49,37.2,37.2,0,0,0-.18,9.37,2.78,2.78,0,0,0,.73,1.77,2.57,2.57,0,0,0,1.77.73,2.53,2.53,0,0,0,1.77-.73,2.44,2.44,0,0,0,.73-1.77Z" transform="translate(150.9 -312.9)"/></svg>