<svg id="Capa_1" data-name="Capa 1" xmlns="http://www.w3.org/2000/svg" viewBox="0 0 408.38 144.89"><defs><style>.cls-1{fill:#fff;}.cls-2{fill:none;stroke:#e14391;stroke-miterlimit:10;stroke-width:6px;}</style></defs><title>unitatiak</title><path class="cls-1" d="M135,343.13l.38,1.31a3.91,3.91,0,0,1-.09.75c.07,1.29.09,2.36.09,3.19s-.19,1.38-.19,1.59l.28,1.69c-.35,1.75-.77,2.62-1.22,2.62a24.9,24.9,0,0,1-2.53.28,3.52,3.52,0,0,1-3.47-2,31.67,31.67,0,0,1-.84-6.84c-.45.3-.66.56-.66.75,0,.77.1,2.13.29,4v.66a14.59,14.59,0,0,1-.1,1.5,50.08,50.08,0,0,1,1,5.9l-.09.38a1.52,1.52,0,0,1,.28.75v.75c0,.07.09.7.28,1.87a3.08,3.08,0,0,1-.09.85,12.61,12.61,0,0,0,.84,4.87,13,13,0,0,0,.66,3.66,5.46,5.46,0,0,1,.09,1.12v.29a7.15,7.15,0,0,1,1.13,2.25h.09a38.19,38.19,0,0,0,.66-6.85v-.65a18.51,18.51,0,0,0-.28-3.38c.07-1.34.09-2.34.09-3a8.75,8.75,0,0,1-2-.66l-.09-.46v-.1c0-.91,1.24-1.48,3.75-1.69h.84c1.24,0,2,.36,2.34,1,.45,0,.73,1.19.85,3.56v.19a16.1,16.1,0,0,1-.66,2.9c0,.47-.07,1.34-.19,2.63,0,.35.12,1.52.38,3.47-.54,2.62-1.06,4.21-1.5,4.78a6.09,6.09,0,0,1-2.91,1.87,8.75,8.75,0,0,1-3.93,1.22,5.76,5.76,0,0,1-3.66-1.78c-1.52-1.31-2.79-4.22-3.75-8.72a13.67,13.67,0,0,1-.38-3.37c-.11,0-.21-.57-.28-1.69a12.15,12.15,0,0,0,.19-1.78v-.19a1.9,1.9,0,0,1-.37-1.31,3.92,3.92,0,0,1,.28-1.5,4.68,4.68,0,0,0-.1-.57c.19-4.1.35-6.84.47-8.25a24.29,24.29,0,0,1,2.16-7,9.45,9.45,0,0,1,4.5-2.53,10.3,10.3,0,0,1,3-.37C132.88,341.16,134.33,341.81,135,343.13Z" transform="translate(-89.36 -319.6)"/><path class="cls-1" d="M146.87,346.08c3.21,0,5.09,1.1,5.63,3.28a11.06,11.06,0,0,0,1.21,2.62,12.59,12.59,0,0,1,.38,2.91,33.18,33.18,0,0,1,1,8.06,26.73,26.73,0,0,1-1.5,9.1,4.1,4.1,0,0,1-1.69,2.34q-.27.81-2.25,1.41a17.53,17.53,0,0,1-2.9.37h-.38c-3.91,0-6.68-4.24-8.25-12.75-.07-1.45-.12-2.39-.19-2.81a44.39,44.39,0,0,1,.94-6.19c0-.84.73-2.81,2.16-5.9.44-1.32,1.52-2,3.19-2h.84a7.63,7.63,0,0,1,1.22-.47Zm-1.5,10.31a20.64,20.64,0,0,0-.28,3.38,48.88,48.88,0,0,0,.66,5.62v.19c0,.07,0,.09-.1.09a14.34,14.34,0,0,1,1.69,4.13c.26.63.49,1,.75,1.12q1.13-1.83,1.12-7.22l-.09-.18c0-.07,0-.1.09-.1a46.55,46.55,0,0,0-1.12-7.22,30.57,30.57,0,0,1-1.31-4.87,1.67,1.67,0,0,0-.66-.66A16.48,16.48,0,0,0,145.37,356.39Z" transform="translate(-89.36 -319.6)"/><path class="cls-1" d="M170.64,343.13l.37,1.31a3.91,3.91,0,0,1-.09.75c.07,1.29.09,2.36.09,3.19s-.19,1.38-.19,1.59l.28,1.69c-.35,1.75-.77,2.62-1.21,2.62a25.14,25.14,0,0,1-2.54.28,3.49,3.49,0,0,1-3.46-2,31.11,31.11,0,0,1-.85-6.84c-.44.3-.65.56-.65.75,0,.77.09,2.13.28,4v.66a14.59,14.59,0,0,1-.1,1.5,50.08,50.08,0,0,1,1,5.9l-.09.38a1.52,1.52,0,0,1,.28.75v.75c0,.07.1.7.28,1.87a3.08,3.08,0,0,1-.09.85,12.61,12.61,0,0,0,.84,4.87,13,13,0,0,0,.66,3.66,5.46,5.46,0,0,1,.09,1.12v.29a7.15,7.15,0,0,1,1.13,2.25h.09a38.19,38.19,0,0,0,.66-6.85v-.65a18.51,18.51,0,0,0-.28-3.38c.07-1.34.09-2.34.09-3a9,9,0,0,1-2-.66l-.09-.46v-.1c0-.91,1.24-1.48,3.75-1.69h.84c1.24,0,2,.36,2.35,1,.44,0,.72,1.19.84,3.56v.19a16.1,16.1,0,0,1-.66,2.9c0,.47-.07,1.34-.18,2.63,0,.35.11,1.52.37,3.47-.54,2.62-1,4.21-1.5,4.78A6.09,6.09,0,0,1,168.1,379a8.72,8.72,0,0,1-3.93,1.22,5.8,5.8,0,0,1-3.66-1.78c-1.52-1.31-2.79-4.22-3.75-8.72a13.85,13.85,0,0,1-.37-3.37c-.12,0-.22-.57-.29-1.69a12.15,12.15,0,0,0,.19-1.78v-.19a1.9,1.9,0,0,1-.37-1.31,3.92,3.92,0,0,1,.28-1.5,4.68,4.68,0,0,0-.1-.57c.19-4.1.36-6.84.47-8.25a24.29,24.29,0,0,1,2.16-7,9.45,9.45,0,0,1,4.5-2.53,10.3,10.3,0,0,1,3-.37C168.55,341.16,170,341.81,170.64,343.13Z" transform="translate(-89.36 -319.6)"/><path class="cls-1" d="M182.54,346.08c3.21,0,5.09,1.1,5.63,3.28a10.74,10.74,0,0,0,1.22,2.62,13.37,13.37,0,0,1,.37,2.91,33.18,33.18,0,0,1,1,8.06,26.73,26.73,0,0,1-1.5,9.1,4.1,4.1,0,0,1-1.69,2.34q-.27.81-2.25,1.41a17.53,17.53,0,0,1-2.9.37h-.38c-3.91,0-6.68-4.24-8.25-12.75-.07-1.45-.11-2.39-.18-2.81a43.75,43.75,0,0,1,.93-6.19c0-.84.73-2.81,2.16-5.9.44-1.32,1.52-2,3.19-2h.84a8,8,0,0,1,1.22-.47ZM181,356.39a20.64,20.64,0,0,0-.28,3.38,48.88,48.88,0,0,0,.66,5.62v.19c0,.07,0,.09-.1.09A14.07,14.07,0,0,1,183,369.8c.26.63.49,1,.75,1.12q1.13-1.83,1.13-7.22l-.1-.18c0-.07,0-.1.1-.1a47.65,47.65,0,0,0-1.13-7.22,31.68,31.68,0,0,1-1.31-4.87,1.67,1.67,0,0,0-.66-.66A16.48,16.48,0,0,0,181,356.39Z" transform="translate(-89.36 -319.6)"/><path class="cls-1" d="M200.57,343.8a10.88,10.88,0,0,1,2.9,3.85,13.52,13.52,0,0,1,.94,4.69c.12,0,.19.63.19,1.87v.56a4.52,4.52,0,0,1-.47,1.5l.09.66a8.82,8.82,0,0,1-2.15,5.06c-.17,0-.45.26-.85.75a8.65,8.65,0,0,1,3.47,4.31,21.15,21.15,0,0,0,1.5,3c.54,2.28,1,3.59,1.5,3.94a23,23,0,0,0,1,3.19,4.44,4.44,0,0,1,.1.84v.1q0,.94-2.25,2.25a6.71,6.71,0,0,1-.75.09c-1.76-.26-2.63-.63-2.63-1.12,0-.87-1-3.17-2.91-6.94l-.28-.94h-.09a3.93,3.93,0,0,0-.09.56,30.5,30.5,0,0,1,.46,4.6v1.5c0,.58-1.61,1.05-4.87,1.4-1.1,0-1.81-.37-2.06-1.12-.45-.8-.78-4.15-1-10a52,52,0,0,1-.66-8.53c-.07,0-.09-.17-.09-.47.11-7.34.18-12.35.18-15,0-.78.82-1.29,2.44-1.6C197.85,342.77,200,343.13,200.57,343.8Zm-3.19,2.44a24.51,24.51,0,0,1,.28,3.85,3.54,3.54,0,0,0-.09.56,8.88,8.88,0,0,1,.46,2.15v2.25l.57,3.94h.09a6.65,6.65,0,0,0,1.5-4.12v-1.32q0-5.66-2.72-7.31Z" transform="translate(-89.36 -319.6)"/><path class="cls-1" d="M219.32,345.94a7.46,7.46,0,0,1,.89,2.83c1,1.39,1.5,3.87,1.5,7.41a52.44,52.44,0,0,1,1.5,6.14,54.75,54.75,0,0,0,.72,6l1,4.26v.1c0,1.89-.18,3.07-.54,3.56a2.32,2.32,0,0,1-1.66.7,2.15,2.15,0,0,1-1.15.54l-.79-.09a5,5,0,0,1-.9.18c-1,0-1.71-2.43-2.2-7.31a20.55,20.55,0,0,1-3.19-.61c-.39,3.45-.61,5.82-.61,7.13,0,2.37-.35,3.56-1.07,3.56a9.19,9.19,0,0,0-1.76.26v-.1c-.07,0-.1,0-.1.1-1.52,0-2.29-.68-2.29-2,.23-2.56.35-4,.35-4.45a.58.58,0,0,0-.09-.29,60,60,0,0,0,.53-8c.12,0,.24-1.59.36-4.81q.42-1.61,1.33-9a27.11,27.11,0,0,0,.52-3.82,17,17,0,0,1,1.69-5.69,6.75,6.75,0,0,1,2.39-.63C217.21,341.84,218.4,343.2,219.32,345.94Zm-3.45,9.89a35.24,35.24,0,0,0-.52,7,16.82,16.82,0,0,0-.63,3.47h.1a8,8,0,0,1,1.59-.19h.7v-.07c0-.47-.26-2.65-.79-6.52a36,36,0,0,0-.36-3.72Z" transform="translate(-89.36 -319.6)"/><path class="cls-1" d="M236.82,342.45c.54-.07.89-.1,1-.1,3.07.45,4.6,1.06,4.6,1.78.12,0,.19.28.19.85s-1.53,1.33-4.6,2h-1.31l-.47-.1a6,6,0,0,1-.19,1.13.66.66,0,0,1,.1.37.56.56,0,0,1-.1.28,65.35,65.35,0,0,1,.38,7.78c-.12,0-.21,1-.28,3a5.93,5.93,0,0,0-.66,1.88v.47c0,.07,0,.09.09.09s0,.1-.09.1l.09.65a3.46,3.46,0,0,1-.75,1.78l-.46,4.5c0,.42,0,1.39.09,2.91a42,42,0,0,0-.38,4.41,10.46,10.46,0,0,1,.19,1.5c0,1.61-.44,2.43-1.31,2.43a.89.89,0,0,1-.47.1h-.75c-2-.14-3-.43-3-.85a4.5,4.5,0,0,1-.28-1.22l.09-1.31c-.25-2.72-.37-4.22-.37-4.5q.28-4.14.47-5.9c0-.68-.12-1-.19-1s0-.09.09-.09l-.09-.66v-1.21c0-.07,0-.1-.09-.1s0-.09.09-.09l-.19-3.28c.07-2.32.17-4.34.28-6l-.09-.85.56-7.22c-2.55-.35-3.84-1-3.84-2v-.19c0-.59,1.15-1.06,3.47-1.41a43.35,43.35,0,0,1,4.87-.28C235.49,342.33,236.57,342.45,236.82,342.45Z" transform="translate(-89.36 -319.6)"/><path class="cls-1" d="M245.8,345c2.37.35,3.56.75,3.56,1.22a4.69,4.69,0,0,1,1,2.81v2.25a26.53,26.53,0,0,1-.37,3.57,37.78,37.78,0,0,0,.75,4.31s0,.44-.1,1.22a40.14,40.14,0,0,1,.57,6.56c.37,1.88.82,2.81,1.31,2.81,0,.14.28.24.84.28l.28-.37v-.28a.9.9,0,0,0-.09-.47l.28-2v-.28a18.31,18.31,0,0,0-.75-3.56c.07-1.25.1-2,.1-2.44a12.48,12.48,0,0,1-.38-2.81v-1a23.61,23.61,0,0,1,.84-5.44c0-2.39.31-4,.94-4.88a4.66,4.66,0,0,1,3.28-1.22,4.12,4.12,0,0,1,1.69,1.5l.09,1.13v2.34a6.5,6.5,0,0,0,.1,1,8.67,8.67,0,0,0-.28,2.25v.57a9.43,9.43,0,0,0,.65,2.34v.09a12.15,12.15,0,0,0-.18,1.6,5.32,5.32,0,0,0,.37,1.4,10.14,10.14,0,0,0-.09,1.32,4.85,4.85,0,0,1,.28,1.5l-.1,1.12a8.58,8.58,0,0,1,.47,2.91V367a15.57,15.57,0,0,1-.84,4,4.18,4.18,0,0,1-2.72,4c0,.21-.77.4-2.34.56a9,9,0,0,1-4.32.94c-2.55,0-4.71-1.29-6.46-3.85a15.79,15.79,0,0,1-1.79-7.22,6.25,6.25,0,0,1-.28-2.06,17.1,17.1,0,0,1,.19-1.78c-.07-1.24-.09-2.34-.09-3.28v-3.19c0-.26.16-1.29.47-3.09a12.89,12.89,0,0,1-.57-3V349c0-.46.1-.72.28-.75l-.09-.46a9.41,9.41,0,0,0,.84-2c.08,0,.92-.28,2.54-.85Z" transform="translate(-89.36 -319.6)"/><path class="cls-1" d="M279.74,343.27l.56-.1h.28c1.1,0,2.56.82,4.31,2.44a11.39,11.39,0,0,1,1.22,5.25,29.21,29.21,0,0,1-1.69,8.72l-.93,1a3,3,0,0,1-.47,1.59,6.29,6.29,0,0,1,3.94,2.35,6.66,6.66,0,0,1,2.43,2.15,7.7,7.7,0,0,1,.85,4v.19a4.58,4.58,0,0,1-.94,3.28q0,1.88-3.09,4.41l-1.88.37c0,.24-.49.5-1.5.75a5.53,5.53,0,0,1-1.31-.46,18.18,18.18,0,0,1-3.38.56c-1.5-.07-2.25-.42-2.25-1-.75-.89-1.12-3.59-1.12-8.07a72,72,0,0,1-.66-8.43,17.35,17.35,0,0,1-.37-3.85c.11-1.15.21-3.16.28-6.09-.12-.75-.21-1.57-.28-2.44,0-.37.09-1.52.28-3.47l-.1-1.5q.33-2.25,2.25-2.25a9.48,9.48,0,0,0,1.22-.09Zm.75,4,.75,7.22h.09a21.83,21.83,0,0,0,.47-3.75v-.1c0-1.9-.45-3.07-1.31-3.56Zm1.78,19.12a5.09,5.09,0,0,0-.1.56,53.14,53.14,0,0,1,.47,7v.09h.1a6.77,6.77,0,0,0,1.5-3.75,6.27,6.27,0,0,0-1.88-3.84v-.1Z" transform="translate(-89.36 -319.6)"/><path class="cls-1" d="M301,342.35l.65-.09c1.88,0,2.81.28,2.81.84,0,1.06-.39,1.67-1.21,1.88a16.89,16.89,0,0,1-3,.93l-.19-.09c-.07,0-.1,0-.1.09l-.65-.09h-1.69v.09q.39,1.23,1.41,3.75l-.1.66v.28c.07.56.24.85.47.85.61,0,1.74,0,3.38-.1.75,0,1.12.28,1.12.85v.28c0,1.1-1.38,1.9-4.12,2.43h-.19v.19a29.46,29.46,0,0,1,.47,4.13v2.15a9.19,9.19,0,0,1-.19,1.69c.07.84.09,1.48.09,1.88a9.33,9.33,0,0,1-.09,1,7.34,7.34,0,0,1,.56,1.87c-.26,2.72-.37,4.41-.37,5.06.09,1.57.44,2.35,1,2.35,3.12.26,4.69.49,4.69.75a2,2,0,0,1,.28.84c0,1-1.69,2-5.06,3a8,8,0,0,1-2.25.28,10.27,10.27,0,0,1-5.63-1.87,6,6,0,0,1-.56-3.19c-.12,0-.28-1.85-.47-5.53-.12,0-.19-.26-.19-.75A15.22,15.22,0,0,1,292,367q-.18-1.86-.29-6.47a8.33,8.33,0,0,0,.1-1.41,17.71,17.71,0,0,1-.38-2.81c.07-2.51.1-4.22.1-5.16a5.89,5.89,0,0,0-.28-2.06,13.9,13.9,0,0,0,.09-1.5v-.47c0-.07,0-.09.09-.09a10.39,10.39,0,0,1-.65-2.72c0-.37.63-.73,1.87-1l6.56-.75c0-.12.31-.16.94-.19h.66c.07,0,.09,0,.09-.09S301,342.28,301,342.35Z" transform="translate(-89.36 -319.6)"/><path class="cls-1" d="M318,342.45a10.35,10.35,0,0,1,1-.1c3.07.45,4.59,1.06,4.59,1.78.12,0,.19.28.19.85s-1.53,1.33-4.6,2h-1.31l-.47-.1a6,6,0,0,1-.19,1.13.66.66,0,0,1,.1.37.56.56,0,0,1-.1.28,65.35,65.35,0,0,1,.38,7.78c-.12,0-.21,1-.28,3a5.93,5.93,0,0,0-.66,1.88v.47c0,.07,0,.09.1.09s0,.1-.1.1l.1.65a3.55,3.55,0,0,1-.75,1.78l-.47,4.5c0,.42,0,1.39.09,2.91a40.21,40.21,0,0,0-.37,4.41,11.66,11.66,0,0,1,.18,1.5c0,1.61-.44,2.43-1.31,2.43a.89.89,0,0,1-.47.1H313c-2-.14-3-.43-3-.85a4.5,4.5,0,0,1-.28-1.22l.09-1.31c-.25-2.72-.37-4.22-.37-4.5q.29-4.14.47-5.9c-.05-.68-.12-1-.19-1s0-.09.09-.09l-.09-.66v-1.21c0-.07,0-.1-.09-.1s0-.09.09-.09L309.5,360c.07-2.32.17-4.34.28-6l-.09-.85.56-7.22c-2.55-.35-3.84-1-3.84-2v-.19c0-.59,1.15-1.06,3.47-1.41a43.62,43.62,0,0,1,4.87-.28C316.7,342.33,317.78,342.45,318,342.45Z" transform="translate(-89.36 -319.6)"/><path class="cls-1" d="M326.5,343.71c1.71,0,2.78.45,3.28,1.31a4,4,0,0,1,.18.85v1a6.73,6.73,0,0,1,.66,2.9,18.37,18.37,0,0,1,.09,1.88c-.07,1.59-.09,2.53-.09,2.81a9.59,9.59,0,0,1,.09,1.22l-.18.94.18,1.59c-.07,1.24-.09,2.18-.09,2.81s0,1.76.09,3.66l-.09.38c0,.61.16,2.36.47,5.25v.18c0,.64,0,1.39-.09,2.25a3,3,0,0,1,.37,1.41c0,.33,0,1-.09,1.87a11.28,11.28,0,0,1,.28,2.16v.09c-.12.68-.71,1-1.78,1a8,8,0,0,1-2.72.37c-1.81,0-2.72-.37-2.72-1.12a10.44,10.44,0,0,1-.56-3.75V370.9c-.12-1.38-.19-2.09-.19-2.16,0-1,.07-2.51.19-4.59a37.31,37.31,0,0,0-.38-5.53,10,10,0,0,0,.1-1.22c0-.52-.08-2-.19-4.6a38.06,38.06,0,0,0,.56-6.65v-.94c0-.44.56-.94,1.69-1.5Z" transform="translate(-89.36 -319.6)"/><path class="cls-1" d="M348,345c2.37.35,3.57.75,3.57,1.22a4.69,4.69,0,0,1,1,2.81v2.25a27,27,0,0,1-.38,3.57,40.17,40.17,0,0,0,.75,4.31s0,.44-.09,1.22a41.22,41.22,0,0,1,.56,6.56c.38,1.88.82,2.81,1.31,2.81,0,.14.29.24.85.28l.28-.37v-.28a.9.9,0,0,0-.09-.47l.28-2v-.28a18.31,18.31,0,0,0-.75-3.56c.07-1.25.09-2,.09-2.44a12.4,12.4,0,0,1-.37-2.81v-1a23.61,23.61,0,0,1,.84-5.44c0-2.39.3-4,.94-4.88a4.66,4.66,0,0,1,3.28-1.22,4.18,4.18,0,0,1,1.69,1.5l.09,1.13v2.34a6.3,6.3,0,0,0,.09,1,9.12,9.12,0,0,0-.28,2.25v.57a9.17,9.17,0,0,0,.66,2.34v.09a11,11,0,0,0-.19,1.6,5.5,5.5,0,0,0,.38,1.4,10.42,10.42,0,0,0-.1,1.32,4.57,4.57,0,0,1,.28,1.5l-.09,1.12a8.83,8.83,0,0,1,.47,2.91V367a15.27,15.27,0,0,1-.85,4,4.19,4.19,0,0,1-2.71,4c0,.21-.78.4-2.35.56a9,9,0,0,1-4.31.94c-2.56,0-4.71-1.29-6.47-3.85a15.91,15.91,0,0,1-1.78-7.22,5.92,5.92,0,0,1-.28-2.06,17.1,17.1,0,0,1,.19-1.78c-.07-1.24-.1-2.34-.1-3.28v-3.19c0-.26.17-1.29.47-3.09a13.09,13.09,0,0,1-.56-3V349c0-.46.09-.72.28-.75l-.09-.46a10,10,0,0,0,.84-2c.07,0,.91-.28,2.53-.85Z" transform="translate(-89.36 -319.6)"/><path class="cls-1" d="M381.92,342.49c.85,0,1.41.68,1.69,2.06v1.5a29.74,29.74,0,0,0,.56,3.66v.19c0,1.15,0,2.08.1,2.81a21.91,21.91,0,0,0-.1,2.34,25.79,25.79,0,0,1,.47,5v.1c0,1.22-.07,2.36-.18,3.47.07.77.09,1.24.09,1.4-.07,1.34-.09,2.35-.09,3l.28,1.5a6.75,6.75,0,0,0-.19,1.6v2.53a10.72,10.72,0,0,1-.09,1.4,3.33,3.33,0,0,1,.09.94c-.4,1.38-1.05,2.06-2,2.06,0,.12-.21.19-.66.19h-.09a4.5,4.5,0,0,1-1.12-.19,3.94,3.94,0,0,1-1.88.57l-.19-.1h-.09c-1.55,0-2.46-.28-2.72-.84a9.39,9.39,0,0,1-1.59-3.85,29.89,29.89,0,0,1-2.53-6.37h-.1V370c0,.59,0,1.38.1,2.44l-.19.56c.07.82.09,1.48.09,2V375a2.67,2.67,0,0,1-.94,2.35,4.15,4.15,0,0,0-2,.65h-1.32c-1.5,0-2.55-.86-3.18-2.62l-.1-.66s0-.44.1-1.22l-.29-2.34c0-.21,0-1.1.1-2.72,0-.37-.07-1.31-.19-2.81.26-1.52.54-4,.84-7.41a4.54,4.54,0,0,0,.29-1.87c0-3.31.21-5.51.65-6.66v-.66a7.92,7.92,0,0,0-.84-1.68v-.28c0-.5.56-1.06,1.69-1.69a4.15,4.15,0,0,1,1.21-.28c2.09,0,3.83,1.24,5.25,3.75q0,.87,2.25,4.22a16.59,16.59,0,0,0,1.13,3.65,5.6,5.6,0,0,1,.56,1.6,2.35,2.35,0,0,0-.09.65c.35,0,.7,1.22,1,3.66a5,5,0,0,1,.75,2.34v.66l.09.47h.1l.37-2.25c-.07-1.06-.09-1.85-.09-2.44V358.9a62.06,62.06,0,0,0,.56-8.44,5.13,5.13,0,0,0,.19-2c-.12-2.65-.19-4.29-.19-4.87,0-.26.45-.64,1.31-1.13Z" transform="translate(-89.36 -319.6)"/><path class="cls-1" d="M388.63,343.71c1.71,0,2.79.45,3.28,1.31a3.62,3.62,0,0,1,.19.85v1a6.87,6.87,0,0,1,.65,2.9,18.56,18.56,0,0,1,.1,1.88c-.07,1.59-.1,2.53-.1,2.81a10,10,0,0,1,.1,1.22l-.19.94.19,1.59c-.07,1.24-.1,2.18-.1,2.81s0,1.76.1,3.66l-.1.38c0,.61.17,2.36.47,5.25v.18c0,.64,0,1.39-.09,2.25a2.86,2.86,0,0,1,.37,1.41c0,.33,0,1-.09,1.87a10.53,10.53,0,0,1,.28,2.16v.09c-.12.68-.7,1-1.78,1a7.93,7.93,0,0,1-2.72.37c-1.8,0-2.72-.37-2.72-1.12a10.66,10.66,0,0,1-.56-3.75V370.9c-.12-1.38-.19-2.09-.19-2.16,0-1,.07-2.51.19-4.59a37.31,37.31,0,0,0-.38-5.53,10,10,0,0,0,.1-1.22c0-.52-.07-2-.19-4.6a37.12,37.12,0,0,0,.56-6.65v-.94c0-.44.57-.94,1.69-1.5Z" transform="translate(-89.36 -319.6)"/><path class="cls-1" d="M405.85,342.45c.54-.07.9-.1,1-.1,3.07.45,4.59,1.06,4.59,1.78.12,0,.19.28.19.85s-1.53,1.33-4.6,2h-1.31l-.47-.1a6,6,0,0,1-.19,1.13.66.66,0,0,1,.1.37.56.56,0,0,1-.1.28,65.35,65.35,0,0,1,.38,7.78c-.12,0-.21,1-.28,3a5.93,5.93,0,0,0-.66,1.88v.47c0,.07,0,.09.1.09s0,.1-.1.1l.1.65a3.55,3.55,0,0,1-.75,1.78l-.47,4.5c0,.42,0,1.39.09,2.91a40.21,40.21,0,0,0-.37,4.41,11.66,11.66,0,0,1,.18,1.5c0,1.61-.44,2.43-1.31,2.43a.89.89,0,0,1-.47.1h-.75c-2-.14-3-.43-3-.85a4.5,4.5,0,0,1-.28-1.22l.09-1.31c-.25-2.72-.37-4.22-.37-4.5q.28-4.14.47-5.9c-.05-.68-.12-1-.19-1s0-.09.09-.09l-.09-.66v-1.21c0-.07,0-.1-.09-.1s0-.09.09-.09l-.19-3.28c.07-2.32.17-4.34.28-6l-.09-.85.56-7.22c-2.55-.35-3.84-1-3.84-2v-.19c0-.59,1.15-1.06,3.47-1.41a43.62,43.62,0,0,1,4.87-.28C404.52,342.33,405.6,342.45,405.85,342.45Z" transform="translate(-89.36 -319.6)"/><path class="cls-1" d="M422.1,345.94a7.46,7.46,0,0,1,.89,2.83c1,1.39,1.5,3.87,1.5,7.41a50.16,50.16,0,0,1,1.5,6.14,54.75,54.75,0,0,0,.72,6l1,4.26v.1c0,1.89-.18,3.07-.53,3.56a2.34,2.34,0,0,1-1.67.7,2.15,2.15,0,0,1-1.15.54l-.79-.09a5.12,5.12,0,0,1-.89.18c-1,0-1.72-2.43-2.21-7.31a20.25,20.25,0,0,1-3.18-.61c-.4,3.45-.61,5.82-.61,7.13,0,2.37-.36,3.56-1.08,3.56a9.19,9.19,0,0,0-1.76.26v-.1c-.07,0-.09,0-.09.1-1.53,0-2.3-.68-2.3-2,.23-2.56.35-4,.35-4.45a.58.58,0,0,0-.09-.29,60,60,0,0,0,.54-8,26.08,26.08,0,0,0,.35-4.81q.42-1.61,1.33-9a27.11,27.11,0,0,0,.52-3.82,17,17,0,0,1,1.69-5.69,6.81,6.81,0,0,1,2.39-.63C420,341.84,421.18,343.2,422.1,345.94Zm-3.45,9.89a35.39,35.39,0,0,0-.51,7,16.36,16.36,0,0,0-.64,3.47h.1a8,8,0,0,1,1.59-.19h.7v-.07c0-.47-.25-2.65-.79-6.52,0-.63-.12-1.87-.35-3.72Z" transform="translate(-89.36 -319.6)"/><path class="cls-1" d="M439.6,342.45c.54-.07.9-.1,1-.1,3.07.45,4.59,1.06,4.59,1.78.12,0,.19.28.19.85s-1.53,1.33-4.6,2h-1.31l-.47-.1a6,6,0,0,1-.19,1.13.66.66,0,0,1,.1.37.56.56,0,0,1-.1.28,65.35,65.35,0,0,1,.38,7.78c-.12,0-.21,1-.28,3a5.93,5.93,0,0,0-.66,1.88v.47c0,.07,0,.09.1.09s0,.1-.1.1l.1.65a3.55,3.55,0,0,1-.75,1.78l-.47,4.5c0,.42,0,1.39.09,2.91a40.21,40.21,0,0,0-.37,4.41,11.66,11.66,0,0,1,.18,1.5c0,1.61-.44,2.43-1.31,2.43a.89.89,0,0,1-.47.1h-.75c-2-.14-3-.43-3-.85a4.5,4.5,0,0,1-.28-1.22l.09-1.31c-.25-2.72-.37-4.22-.37-4.5q.28-4.14.47-5.9c-.05-.68-.12-1-.19-1s0-.09.09-.09l-.09-.66v-1.21c0-.07,0-.1-.09-.1s0-.09.09-.09l-.19-3.28c.07-2.32.17-4.34.28-6l-.09-.85.56-7.22c-2.55-.35-3.84-1-3.84-2v-.19c0-.59,1.15-1.06,3.47-1.41a43.62,43.62,0,0,1,4.87-.28C438.27,342.33,439.35,342.45,439.6,342.45Z" transform="translate(-89.36 -319.6)"/><path class="cls-1" d="M455,342.35l.66-.09c1.87,0,2.81.28,2.81.84,0,1.06-.4,1.67-1.22,1.88a16.63,16.63,0,0,1-3,.93l-.19-.09c-.07,0-.09,0-.09.09l-.66-.09H451.6v.09q.39,1.23,1.41,3.75l-.09.66v.28c.07.56.23.85.47.85.61,0,1.73,0,3.37-.1.75,0,1.13.28,1.13.85v.28c0,1.1-1.39,1.9-4.13,2.43h-.19v.19a28,28,0,0,1,.47,4.13v2.15a9.19,9.19,0,0,1-.19,1.69c.07.84.1,1.48.1,1.88,0,.14,0,.49-.1,1a7.55,7.55,0,0,1,.57,1.87c-.26,2.72-.38,4.41-.38,5.06.1,1.57.45,2.35,1,2.35,3.12.26,4.69.49,4.69.75a1.9,1.9,0,0,1,.28.84c0,1-1.69,2-5.06,3a7.86,7.86,0,0,1-2.25.28,10.29,10.29,0,0,1-5.63-1.87,6,6,0,0,1-.56-3.19c-.12,0-.28-1.85-.47-5.53-.11,0-.18-.26-.18-.75A17.45,17.45,0,0,1,446,367q-.18-1.86-.28-6.47a8.42,8.42,0,0,0,.09-1.41,17.78,17.78,0,0,1-.37-2.81c.07-2.51.09-4.22.09-5.16a5.89,5.89,0,0,0-.28-2.06,13.9,13.9,0,0,0,.09-1.5v-.47c0-.07,0-.09.1-.09a10.13,10.13,0,0,1-.66-2.72c0-.37.63-.73,1.88-1l6.56-.75c0-.12.3-.16.94-.19h.65c.07,0,.1,0,.1-.09S455,342.28,455,342.35Z" transform="translate(-89.36 -319.6)"/><path class="cls-1" d="M126.36,400.87l.56-.1h.29c1.1,0,2.55.82,4.31,2.44a11.39,11.39,0,0,1,1.22,5.25,29.53,29.53,0,0,1-1.69,8.72l-.94,1a3,3,0,0,1-.47,1.59,6.25,6.25,0,0,1,3.94,2.35A6.77,6.77,0,0,1,136,424.3a7.81,7.81,0,0,1,.84,4v.19a4.53,4.53,0,0,1-.94,3.28c0,1.24-1,2.72-3.09,4.41l-1.87.37c0,.24-.5.5-1.5.75a5.54,5.54,0,0,1-1.32-.46,18.11,18.11,0,0,1-3.37.56c-1.5-.07-2.25-.42-2.25-1-.75-.89-1.13-3.59-1.13-8.07a74.34,74.34,0,0,1-.65-8.43,17.32,17.32,0,0,1-.38-3.85c.12-1.15.21-3.16.28-6.09-.11-.75-.21-1.57-.28-2.44,0-.37.1-1.52.28-3.47l-.09-1.5q.32-2.25,2.25-2.25a9.59,9.59,0,0,0,1.22-.09Zm.75,4,.75,7.22h.1a22.65,22.65,0,0,0,.46-3.75v-.1c0-1.9-.44-3.07-1.31-3.56ZM128.89,424a3.93,3.93,0,0,0-.09.56,54.88,54.88,0,0,1,.47,7v.09h.09a6.77,6.77,0,0,0,1.5-3.75,6.23,6.23,0,0,0-1.87-3.84V424Z" transform="translate(-89.36 -319.6)"/><path class="cls-1" d="M147.62,400l.66-.09c1.87,0,2.81.28,2.81.84,0,1.06-.4,1.67-1.22,1.88a16.63,16.63,0,0,1-3,.93l-.19-.09c-.07,0-.09,0-.09.09l-.66-.09h-1.68v.09c.25.82.72,2.07,1.4,3.75l-.09.66v.28c.07.56.23.84.47.84.61,0,1.73,0,3.37-.09.75,0,1.13.28,1.13.84v.29c0,1.1-1.39,1.89-4.13,2.43h-.19v.19a28,28,0,0,1,.47,4.13V419a10.16,10.16,0,0,1-.18,1.69c.07.84.09,1.48.09,1.87a9.26,9.26,0,0,1-.09,1,7.82,7.82,0,0,1,.56,1.87c-.26,2.72-.38,4.41-.38,5.06.1,1.57.45,2.35,1,2.35,3.12.26,4.69.49,4.69.75a1.9,1.9,0,0,1,.28.84c0,1-1.68,2-5.06,3a7.86,7.86,0,0,1-2.25.28,10.24,10.24,0,0,1-5.62-1.87,5.87,5.87,0,0,1-.57-3.19,33.43,33.43,0,0,1-.47-5.53c-.11,0-.18-.26-.18-.75a17.45,17.45,0,0,1,.09-1.78q-.18-1.86-.28-6.47a8.42,8.42,0,0,0,.09-1.41,19.22,19.22,0,0,1-.37-2.81c.07-2.51.09-4.22.09-5.16a5.89,5.89,0,0,0-.28-2.06,13.9,13.9,0,0,0,.09-1.5v-.47c0-.07,0-.09.1-.09a10.13,10.13,0,0,1-.66-2.72c0-.38.63-.73,1.88-1l6.56-.75c0-.12.3-.17.94-.19h.65c.07,0,.1,0,.1-.09S147.62,399.88,147.62,400Z" transform="translate(-89.36 -319.6)"/><path class="cls-1" d="M162.27,401.4a10.88,10.88,0,0,1,2.9,3.85,13.29,13.29,0,0,1,.94,4.69c.12,0,.19.63.19,1.87v.56a4.28,4.28,0,0,1-.47,1.5l.09.66a8.82,8.82,0,0,1-2.15,5.06c-.17,0-.45.26-.85.75a8.6,8.6,0,0,1,3.47,4.31,23.3,23.3,0,0,0,1.5,3c.54,2.28,1,3.59,1.5,3.94a24.72,24.72,0,0,0,1,3.19,3.74,3.74,0,0,1,.1.84v.1q0,.94-2.25,2.25a6.71,6.71,0,0,1-.75.09c-1.76-.26-2.63-.63-2.63-1.12,0-.87-1-3.17-2.9-6.94l-.28-.94h-.1a3.93,3.93,0,0,0-.09.56,30.71,30.71,0,0,1,.47,4.6v1.5c0,.58-1.62,1-4.88,1.4-1.1,0-1.8-.37-2.06-1.12-.45-.8-.77-4.15-1-10a52,52,0,0,1-.66-8.53c-.07,0-.09-.17-.09-.47.12-7.34.19-12.35.19-15,0-.78.82-1.29,2.43-1.6C159.55,400.37,161.68,400.72,162.27,401.4Zm-3.19,2.44a24.51,24.51,0,0,1,.28,3.85,3.54,3.54,0,0,0-.09.56,9,9,0,0,1,.47,2.15v2.25l.56,3.94h.09a6.65,6.65,0,0,0,1.5-4.12v-1.32q0-5.65-2.72-7.31Z" transform="translate(-89.36 -319.6)"/><path class="cls-1" d="M173.82,400.77a22,22,0,0,0,4.69,1,10.39,10.39,0,0,1,3.38,2.53C184,406.89,185,409,185,410.62v.65l-.09.47c.3,0,.49,1.2.56,3.56a12.47,12.47,0,0,1,.37,3.57,26.59,26.59,0,0,1-.84,6.37,4.58,4.58,0,0,1-1.13,2.81,5.71,5.71,0,0,0-1,2.53A9.84,9.84,0,0,0,180.2,434q-2.61,3.56-5,3.56a24.11,24.11,0,0,1-3.09-1.69,4.64,4.64,0,0,1-1.32-3.56v-.09c0-.49.1-2.06.28-4.69a26.09,26.09,0,0,1-.37-3.66v-3.46c-.26-2.23-.38-3.57-.38-4v-4.68a26.76,26.76,0,0,0-.37-4v-.19c.19-1.71.28-2.65.28-2.81v-.75a2.78,2.78,0,0,1-.75-1.6c.26-1.19.75-1.78,1.5-1.78,0-.07.19-.16.56-.28A7.49,7.49,0,0,1,173.82,400.77Zm3.1,7.22v1.13c0,.28.35,2.74,1,7.4v1a65.73,65.73,0,0,0,.65,7.6h.1a19.82,19.82,0,0,1,.65-2.16c0-.28,0-1.66.1-4.12-.33-4-.63-6-.94-6A28.9,28.9,0,0,0,177,408Z" transform="translate(-89.36 -319.6)"/><path class="cls-1" d="M189.69,401.31c1.71,0,2.79.45,3.28,1.31a3.62,3.62,0,0,1,.19.85v1a6.88,6.88,0,0,1,.66,2.9,18.37,18.37,0,0,1,.09,1.88c-.07,1.59-.09,2.53-.09,2.81a9.59,9.59,0,0,1,.09,1.22l-.19.94.19,1.59c-.07,1.24-.09,2.18-.09,2.81s0,1.76.09,3.66l-.09.38c0,.6.16,2.36.46,5.25v.18c0,.64,0,1.39-.09,2.25a2.88,2.88,0,0,1,.38,1.41c0,.33,0,1-.1,1.87a10.53,10.53,0,0,1,.28,2.16v.09c-.11.68-.7,1-1.78,1a7.93,7.93,0,0,1-2.72.37c-1.8,0-2.72-.37-2.72-1.12a10.7,10.7,0,0,1-.56-3.75V428.5c-.12-1.38-.19-2.09-.19-2.16,0-1,.07-2.51.19-4.59a39.37,39.37,0,0,0-.37-5.53,9.59,9.59,0,0,0,.09-1.22c0-.52-.07-2-.19-4.6a37.1,37.1,0,0,0,.57-6.65v-.94q0-.66,1.68-1.5Z" transform="translate(-89.36 -319.6)"/><path class="cls-1" d="M213.53,400.09c.84,0,1.4.68,1.68,2.06v1.5a28.57,28.57,0,0,0,.57,3.66v.19c0,1.15,0,2.08.09,2.81a22.25,22.25,0,0,0-.09,2.34,26.53,26.53,0,0,1,.47,5v.1c0,1.22-.08,2.36-.19,3.47.07.77.09,1.24.09,1.4-.07,1.34-.09,2.35-.09,3l.28,1.5a6.75,6.75,0,0,0-.19,1.6v2.53a10.72,10.72,0,0,1-.09,1.4,3.33,3.33,0,0,1,.09.94c-.4,1.38-1.05,2.06-2,2.06,0,.12-.21.19-.65.19h-.1a4.5,4.5,0,0,1-1.12-.19,3.94,3.94,0,0,1-1.88.57l-.18-.1h-.1c-1.55,0-2.46-.28-2.72-.84a9.39,9.39,0,0,1-1.59-3.85,29.89,29.89,0,0,1-2.53-6.37h-.1v2.53c0,.59,0,1.38.1,2.44l-.19.56c.07.82.09,1.48.09,2v.09a2.71,2.71,0,0,1-.93,2.35,4.15,4.15,0,0,0-2,.65H199c-1.5,0-2.56-.86-3.19-2.62l-.1-.66s0-.44.1-1.22l-.28-2.34c0-.21,0-1.1.09-2.72,0-.37-.07-1.31-.19-2.81.26-1.53.54-4,.85-7.41a4.75,4.75,0,0,0,.28-1.87c0-3.31.21-5.51.65-6.66v-.66a7.92,7.92,0,0,0-.84-1.68v-.28c0-.5.56-1.06,1.69-1.69a4.13,4.13,0,0,1,1.22-.28c2.08,0,3.82,1.24,5.25,3.75q0,.87,2.25,4.22a16.49,16.49,0,0,0,1.12,3.65,5.6,5.6,0,0,1,.56,1.6,2.35,2.35,0,0,0-.09.65c.35,0,.7,1.22,1,3.66a5,5,0,0,1,.75,2.34v.66l.1.47h.09l.37-2.25c-.07-1.06-.09-1.85-.09-2.44V416.5a60.36,60.36,0,0,0,.56-8.44c.1,0,.17-.66.19-2-.12-2.65-.19-4.29-.19-4.87,0-.26.45-.64,1.32-1.13Z" transform="translate(-89.36 -319.6)"/><path class="cls-1" d="M227.14,400l.66-.09c1.87,0,2.81.28,2.81.84,0,1.06-.4,1.67-1.22,1.88a16.38,16.38,0,0,1-3,.93l-.18-.09c-.07,0-.1,0-.1.09l-.65-.09h-1.69v.09c.26.82.73,2.07,1.4,3.75l-.09.66v.28c.07.56.24.84.47.84.61,0,1.73,0,3.37-.09.75,0,1.13.28,1.13.84v.29c0,1.1-1.38,1.89-4.13,2.43h-.18v.19a29.46,29.46,0,0,1,.47,4.13V419a9.28,9.28,0,0,1-.19,1.69c.07.84.09,1.48.09,1.87a9.26,9.26,0,0,1-.09,1,7.82,7.82,0,0,1,.56,1.87c-.26,2.72-.37,4.41-.37,5.06.09,1.57.44,2.35,1,2.35,3.11.26,4.68.49,4.68.75a1.94,1.94,0,0,1,.29.84c0,1-1.69,2-5.07,3a7.86,7.86,0,0,1-2.25.28,10.26,10.26,0,0,1-5.62-1.87,5.9,5.9,0,0,1-.56-3.19c-.12,0-.29-1.85-.47-5.53-.12,0-.19-.26-.19-.75a17.45,17.45,0,0,1,.09-1.78c-.11-1.24-.21-3.4-.28-6.47a8.33,8.33,0,0,0,.1-1.41,17.87,17.87,0,0,1-.38-2.81c.07-2.51.09-4.22.09-5.16a5.64,5.64,0,0,0-.28-2.06,14.42,14.42,0,0,0,.1-1.5v-.47c0-.07,0-.09.09-.09a10.55,10.55,0,0,1-.66-2.72c0-.38.64-.73,1.88-1l6.56-.75c0-.12.31-.17.94-.19H227c.07,0,.09,0,.09-.09S227.14,399.88,227.14,400Z" transform="translate(-89.36 -319.6)"/><path class="cls-1" d="M244.18,400a9.33,9.33,0,0,1,1-.09c3.07.45,4.6,1.06,4.6,1.78.11,0,.19.28.19.85s-1.53,1.33-4.6,2h-1.31l-.47-.09a6,6,0,0,1-.19,1.13.66.66,0,0,1,.1.37.56.56,0,0,1-.1.28,65.35,65.35,0,0,1,.38,7.78c-.12,0-.21,1-.28,3a5.85,5.85,0,0,0-.66,1.88v.47c0,.07,0,.09.09.09s0,.09-.09.09l.09.66a3.46,3.46,0,0,1-.75,1.78l-.46,4.5c0,.42,0,1.39.09,2.91a42,42,0,0,0-.38,4.4,10.8,10.8,0,0,1,.19,1.5c0,1.62-.44,2.44-1.31,2.44a.89.89,0,0,1-.47.1h-.75c-2-.14-3-.43-3-.85a4.6,4.6,0,0,1-.28-1.22l.09-1.31c-.26-2.72-.37-4.22-.37-4.5q.28-4.14.47-5.91c-.05-.67-.12-1-.19-1s0-.09.09-.09l-.09-.66V421c0-.07,0-.09-.09-.09s0-.09.09-.09l-.19-3.28c.07-2.32.17-4.34.28-6l-.09-.85.56-7.22c-2.55-.35-3.84-1-3.84-2v-.18c0-.59,1.15-1.06,3.47-1.41a43.35,43.35,0,0,1,4.87-.28C242.85,399.93,243.92,400,244.18,400Z" transform="translate(-89.36 -319.6)"/><path class="cls-1" d="M260.42,403.54a7.22,7.22,0,0,1,.9,2.83c1,1.39,1.5,3.87,1.5,7.41a51.92,51.92,0,0,1,1.5,6.14,54.75,54.75,0,0,0,.72,6l1,4.26v.1c0,1.89-.18,3.07-.54,3.56a2.32,2.32,0,0,1-1.66.7,2.15,2.15,0,0,1-1.15.54l-.8-.09a4.79,4.79,0,0,1-.89.18c-1,0-1.71-2.43-2.2-7.31a20.55,20.55,0,0,1-3.19-.61c-.4,3.45-.61,5.81-.61,7.13,0,2.36-.35,3.56-1.07,3.56a9.19,9.19,0,0,0-1.76.26v-.1c-.07,0-.1,0-.1.1-1.52,0-2.29-.68-2.29-2,.23-2.56.35-4,.35-4.45a.58.58,0,0,0-.09-.29,60,60,0,0,0,.53-8c.12,0,.24-1.6.36-4.81q.42-1.6,1.33-9a27.11,27.11,0,0,0,.52-3.82,17.27,17.27,0,0,1,1.68-5.69,6.89,6.89,0,0,1,2.4-.63C258.32,399.44,259.51,400.79,260.42,403.54ZM257,413.43a35.24,35.24,0,0,0-.52,7,16.82,16.82,0,0,0-.63,3.47h.09a8.23,8.23,0,0,1,1.6-.19h.7v-.07c0-.47-.26-2.65-.8-6.52a35.05,35.05,0,0,0-.35-3.72Z" transform="translate(-89.36 -319.6)"/><path class="cls-1" d="M275.54,401.4a10.91,10.91,0,0,1,2.91,3.85,13.52,13.52,0,0,1,.94,4.69c.11,0,.18.63.18,1.87v.56a4.28,4.28,0,0,1-.47,1.5l.1.66a8.85,8.85,0,0,1-2.16,5.06c-.16,0-.44.26-.84.75a8.65,8.65,0,0,1,3.47,4.31,21.78,21.78,0,0,0,1.5,3c.54,2.28,1,3.59,1.5,3.94a23,23,0,0,0,1,3.19,4.29,4.29,0,0,1,.09.84v.1q0,.94-2.25,2.25a6.45,6.45,0,0,1-.75.09c-1.76-.26-2.62-.63-2.62-1.12,0-.87-1-3.17-2.91-6.94l-.28-.94h-.09a5.09,5.09,0,0,0-.1.56,29.44,29.44,0,0,1,.47,4.6v1.5q0,.87-4.87,1.4c-1.11,0-1.81-.37-2.07-1.12-.44-.8-.77-4.15-1-10a53.18,53.18,0,0,1-.65-8.53c-.07,0-.1-.17-.1-.47.12-7.34.19-12.35.19-15,0-.78.82-1.29,2.44-1.6C272.82,400.37,275,400.72,275.54,401.4Zm-3.19,2.44a23.91,23.91,0,0,1,.29,3.85,4.36,4.36,0,0,0-.1.56,8.55,8.55,0,0,1,.47,2.15v2.25l.56,3.94h.1a6.71,6.71,0,0,0,1.5-4.12v-1.32c0-3.77-.92-6.21-2.72-7.31Z" transform="translate(-89.36 -319.6)"/><path class="cls-1" d="M294.29,403.54a7.28,7.28,0,0,1,.89,2.83c1,1.39,1.5,3.87,1.5,7.41a49.68,49.68,0,0,1,1.5,6.14,55.89,55.89,0,0,0,.73,6l1,4.26v.1c0,1.89-.19,3.07-.54,3.56a2.34,2.34,0,0,1-1.66.7,2.18,2.18,0,0,1-1.15.54l-.8-.09a4.79,4.79,0,0,1-.89.18c-1,0-1.71-2.43-2.2-7.31a20.33,20.33,0,0,1-3.19-.61c-.4,3.45-.61,5.81-.61,7.13,0,2.36-.35,3.56-1.08,3.56a9,9,0,0,0-1.75.26v-.1c-.08,0-.1,0-.1.1-1.52,0-2.3-.68-2.3-2,.24-2.56.36-4,.36-4.45a.62.62,0,0,0-.1-.29,60,60,0,0,0,.54-8c.12,0,.24-1.6.35-4.81q.42-1.6,1.34-9a27.84,27.84,0,0,0,.51-3.82,17.47,17.47,0,0,1,1.69-5.69,6.81,6.81,0,0,1,2.39-.63C292.18,399.44,293.38,400.79,294.29,403.54Zm-3.44,9.89a35.24,35.24,0,0,0-.52,7,16.82,16.82,0,0,0-.63,3.47h.09a8.23,8.23,0,0,1,1.6-.19h.7v-.07c0-.47-.26-2.65-.8-6.52,0-.63-.12-1.87-.35-3.72Z" transform="translate(-89.36 -319.6)"/><path class="cls-1" d="M323,402.74c.21,0,.56.33,1,1a3.49,3.49,0,0,1,1.24,2.16,9.37,9.37,0,0,0,.59,3.05v.44a19,19,0,0,0-.33,2.07,25.17,25.17,0,0,1,.23,2.85v1.15a12.66,12.66,0,0,1-4.66,10.22c-1.71.4-2.58.73-2.58,1v.25c.16,1.48.26,2.35.26,2.61v.09s0,.07.09.07l-.09.19c0,.21,0,1.08.09,2.6h.07a2.31,2.31,0,0,1-.49,1.62l.23.79c0,.73-.56,1.53-1.66,2.42h-.75c-1.76,0-2.84-.24-3.23-.73a4.64,4.64,0,0,1-.59-2c.28-2.37.42-3.77.42-4.22a16.68,16.68,0,0,1-.16-1.87c0-.38,0-.82.07-1.34a7.22,7.22,0,0,1-.17-1.71v-.8a2.46,2.46,0,0,1,.1-.72.54.54,0,0,0-.1-.26c0-.05,0-.77.1-2.16,0-2.22-.05-4.9-.17-8,0-.46.12-1.87.33-4.19v-1.52A19.71,19.71,0,0,1,313,405a3.22,3.22,0,0,1-.26-1c0-.66.58-1.5,1.76-2.51a7.45,7.45,0,0,1,2.9-.63C321.13,401.26,323,401.87,323,402.74Zm-3.75,8.41-.07.36a5.47,5.47,0,0,1,.16,1.61c0,.64,0,1.76-.09,3.4a15.52,15.52,0,0,1,.16,2.32V419a8.31,8.31,0,0,1-.23,1.71l.07.8-.23,1.24v.09c1.33-1.1,2-3.09,2-6,0-.25-.05-1.1-.17-2.58,0,0,0-.44.07-1.17q-.48-4.19-1.5-4.92a2.39,2.39,0,0,1-.39-.35A24.89,24.89,0,0,1,319.23,411.15Z" transform="translate(-89.36 -319.6)"/><path class="cls-1" d="M337.42,403.54a7.46,7.46,0,0,1,.89,2.83c1,1.39,1.5,3.87,1.5,7.41a49.68,49.68,0,0,1,1.5,6.14,54.75,54.75,0,0,0,.72,6l1,4.26v.1c0,1.89-.19,3.07-.54,3.56a2.34,2.34,0,0,1-1.67.7,2.15,2.15,0,0,1-1.15.54l-.79-.09a5.12,5.12,0,0,1-.89.18c-1,0-1.71-2.43-2.21-7.31a20.25,20.25,0,0,1-3.18-.61c-.4,3.45-.61,5.81-.61,7.13,0,2.36-.36,3.56-1.08,3.56a9.19,9.19,0,0,0-1.76.26v-.1c-.07,0-.09,0-.09.1-1.53,0-2.3-.68-2.3-2,.23-2.56.35-4,.35-4.45a.58.58,0,0,0-.09-.29,60,60,0,0,0,.54-8,26.22,26.22,0,0,0,.35-4.81q.42-1.6,1.33-9a27.11,27.11,0,0,0,.52-3.82,17,17,0,0,1,1.69-5.69,6.81,6.81,0,0,1,2.39-.63C335.31,399.44,336.5,400.79,337.42,403.54ZM334,413.43a35.39,35.39,0,0,0-.51,7,16.36,16.36,0,0,0-.64,3.47h.1a8,8,0,0,1,1.59-.19h.7v-.07c0-.47-.25-2.65-.79-6.52,0-.63-.12-1.87-.35-3.72Z" transform="translate(-89.36 -319.6)"/><path class="cls-1" d="M355.82,402v.18c0,.45-.38.9-1.13,1.32a6.46,6.46,0,0,0-2.44,5.25c0,1.54,1.43,4,4.32,7.22q1.4,1.82,2.34,7.12l.28,1.88v.18l-.47,2.44a4.54,4.54,0,0,1-.47,2.16,4,4,0,0,1-1,3,5.54,5.54,0,0,0-1,1.87,4.19,4.19,0,0,0-1.78,1,1.45,1.45,0,0,1-.84.38h-.66a3.78,3.78,0,0,1-3,1.22h-.47c-1.05,0-2.3-.68-3.75-2.07a9.12,9.12,0,0,1-2.25-5.81V429A2.66,2.66,0,0,1,346,427h.66c.84,0,1.38.85,1.59,2.54.56,2,1.06,3,1.5,3a6.69,6.69,0,0,0,1.5-2.91v-3.66c-.19-2.83-.49-4.64-.94-5.43a6.36,6.36,0,0,1-.65-2.16,18.57,18.57,0,0,1-2.91-5.25,19.5,19.5,0,0,1-.94-5.44,5.7,5.7,0,0,1,1.88-4.22,13.81,13.81,0,0,1,.94-1.5c.35-.4,1.61-.77,3.84-1.12C354.69,400.82,355.82,401.22,355.82,402Z" transform="translate(-89.36 -319.6)"/><path class="cls-1" d="M370.84,403.54a7.46,7.46,0,0,1,.89,2.83c1,1.39,1.5,3.87,1.5,7.41a49.68,49.68,0,0,1,1.5,6.14,53.2,53.2,0,0,0,.73,6l1,4.26v.1c0,1.89-.19,3.07-.54,3.56a2.34,2.34,0,0,1-1.67.7,2.12,2.12,0,0,1-1.14.54l-.8-.09a5.12,5.12,0,0,1-.89.18c-1,0-1.71-2.43-2.21-7.31a20.25,20.25,0,0,1-3.18-.61c-.4,3.45-.61,5.81-.61,7.13,0,2.36-.35,3.56-1.08,3.56a9.37,9.37,0,0,0-1.76.26v-.1c-.07,0-.09,0-.09.1-1.53,0-2.3-.68-2.3-2,.24-2.56.35-4,.35-4.45a.58.58,0,0,0-.09-.29,60,60,0,0,0,.54-8c.12,0,.23-1.6.35-4.81q.42-1.6,1.34-9a27.84,27.84,0,0,0,.51-3.82,17.22,17.22,0,0,1,1.69-5.69,6.81,6.81,0,0,1,2.39-.63C368.73,399.44,369.92,400.79,370.84,403.54Zm-3.45,9.89a35.39,35.39,0,0,0-.51,7,16.82,16.82,0,0,0-.63,3.47h.09a8,8,0,0,1,1.59-.19h.71v-.07c0-.47-.26-2.65-.8-6.52,0-.63-.12-1.87-.35-3.72Z" transform="translate(-89.36 -319.6)"/><path class="cls-1" d="M388.35,400a9.33,9.33,0,0,1,1-.09c3.07.45,4.59,1.06,4.59,1.78.12,0,.19.28.19.85s-1.52,1.33-4.59,2h-1.32l-.47-.09a7.68,7.68,0,0,1-.18,1.13.66.66,0,0,1,.09.37.53.53,0,0,1-.09.28A69,69,0,0,1,388,414c-.12,0-.21,1-.28,3a6.13,6.13,0,0,0-.66,1.88v.47c0,.07,0,.09.1.09s0,.09-.1.09l.1.66a3.55,3.55,0,0,1-.75,1.78l-.47,4.5c0,.42,0,1.39.09,2.91-.11.63-.25,2.11-.37,4.4a10.8,10.8,0,0,1,.19,1.5c0,1.62-.45,2.44-1.32,2.44a.84.84,0,0,1-.47.1h-.75c-2-.14-3-.43-3-.85a5,5,0,0,1-.28-1.22l.1-1.31c-.26-2.72-.38-4.22-.38-4.5q.28-4.14.47-5.91c-.05-.67-.12-1-.19-1s0-.09.1-.09l-.1-.66V421c0-.07,0-.09-.09-.09s0-.09.09-.09l-.18-3.28c.07-2.32.16-4.34.28-6l-.1-.85.57-7.22c-2.56-.35-3.85-1-3.85-2v-.18c0-.59,1.15-1.06,3.47-1.41a43.71,43.71,0,0,1,4.88-.28C387,399.93,388.09,400,388.35,400Z" transform="translate(-89.36 -319.6)"/><path class="cls-1" d="M397.6,401.71a19.35,19.35,0,0,1,3.57.35l.18-.09a.58.58,0,0,0,.29.09A.68.68,0,0,0,402,402c1.5,0,2.25.61,2.25,1.85.07.07.09.28.09.61a4.61,4.61,0,0,0-.28,1.4c0,.26,0,1.15.1,2.63h-.1c0,.07,0,.09.1.09-.45,2.51-.78,4.64-1,6.4h.09a3.28,3.28,0,0,0-.19.8h.1a3.75,3.75,0,0,0-.19.87H403c-.07.46-.12.7-.19.7s0,.09.1.09l-.1.35a10.66,10.66,0,0,1,.19,1.57H403c0,.07,0,.1.09.1l-.19,1.5s0,.07.1.07a14.54,14.54,0,0,0-.19,2.29h-.09s0,.08.09.08a20.3,20.3,0,0,1-.66,3.35l.1,1a30.36,30.36,0,0,1-.94,3.26,1.29,1.29,0,0,0,.56,1.14,26.88,26.88,0,0,0,3.38-.63l.47.1h2c.49,0,.93.35,1.31,1.05v.09c0,.64-.45,1.11-1.31,1.41,0,.77-1.25,1.29-3.75,1.57a2.46,2.46,0,0,0-.66.09v-.09a23.74,23.74,0,0,1-3.19.35h-.75a.66.66,0,0,1-.37-.09c-.07,0-.1,0-.1.09a11.24,11.24,0,0,1-3.28-.87,4.44,4.44,0,0,1-2-3.51c0-1.9.64-6.52,1.88-13.85,0-.07,0-.1-.1-.1a29.59,29.59,0,0,1,1.69-8.69,20.3,20.3,0,0,0,.47-3.59V405a17,17,0,0,0-3.66-.35,1.17,1.17,0,0,1-.65-1.06c0-.59.72-1.17,2.15-1.76a10,10,0,0,1,1.69-.16Z" transform="translate(-89.36 -319.6)"/><path class="cls-1" d="M419,400l.66-.09c1.87,0,2.81.28,2.81.84,0,1.06-.4,1.67-1.22,1.88a16.63,16.63,0,0,1-3,.93l-.19-.09c-.07,0-.09,0-.09.09l-.66-.09H415.6v.09q.39,1.23,1.41,3.75l-.09.66v.28c.07.56.23.84.47.84.61,0,1.73,0,3.37-.09.75,0,1.13.28,1.13.84v.29c0,1.1-1.39,1.89-4.13,2.43h-.19v.19a28,28,0,0,1,.47,4.13V419a9.28,9.28,0,0,1-.19,1.69c.07.84.1,1.48.1,1.87a10.35,10.35,0,0,1-.1,1,7.55,7.55,0,0,1,.57,1.87c-.26,2.72-.38,4.41-.38,5.06.1,1.57.45,2.35,1,2.35,3.12.26,4.69.49,4.69.75a1.9,1.9,0,0,1,.28.84c0,1-1.69,2-5.06,3a7.86,7.86,0,0,1-2.25.28,10.29,10.29,0,0,1-5.63-1.87,6,6,0,0,1-.56-3.19c-.12,0-.28-1.85-.47-5.53-.11,0-.18-.26-.18-.75a17.45,17.45,0,0,1,.09-1.78q-.18-1.86-.28-6.47a8.42,8.42,0,0,0,.09-1.41,17.94,17.94,0,0,1-.37-2.81c.07-2.51.09-4.22.09-5.16a5.89,5.89,0,0,0-.28-2.06,13.9,13.9,0,0,0,.09-1.5v-.47c0-.07,0-.09.1-.09a10.13,10.13,0,0,1-.66-2.72c0-.38.63-.73,1.88-1l6.56-.75c0-.12.3-.17.94-.19h.65c.07,0,.1,0,.1-.09S419,399.88,419,400Z" transform="translate(-89.36 -319.6)"/><path class="cls-1" d="M442.63,400.09c.84,0,1.4.68,1.69,2.06v1.5a27.76,27.76,0,0,0,.56,3.66v.19c0,1.15,0,2.08.09,2.81a22.25,22.25,0,0,0-.09,2.34,26.53,26.53,0,0,1,.47,5v.1a32,32,0,0,1-.19,3.47c.07.77.09,1.24.09,1.4-.07,1.34-.09,2.35-.09,3l.28,1.5a6.75,6.75,0,0,0-.19,1.6v2.53a10.72,10.72,0,0,1-.09,1.4,3.33,3.33,0,0,1,.09.94c-.4,1.38-1.05,2.06-2,2.06,0,.12-.21.19-.65.19h-.1a4.5,4.5,0,0,1-1.12-.19,3.94,3.94,0,0,1-1.88.57l-.18-.1h-.1c-1.54,0-2.46-.28-2.72-.84a9.39,9.39,0,0,1-1.59-3.85,29.89,29.89,0,0,1-2.53-6.37h-.09v2.53c0,.59,0,1.38.09,2.44l-.19.56c.07.82.1,1.48.1,2v.09a2.71,2.71,0,0,1-.94,2.35,4.15,4.15,0,0,0-2,.65H428.1c-1.5,0-2.56-.86-3.19-2.62l-.09-.66s0-.44.09-1.22l-.28-2.34c0-.21,0-1.1.09-2.72,0-.37-.07-1.31-.19-2.81.26-1.53.54-4,.85-7.41a4.57,4.57,0,0,0,.28-1.87c0-3.31.21-5.51.66-6.66v-.66a8.28,8.28,0,0,0-.85-1.68v-.28c0-.5.56-1.06,1.69-1.69a4.13,4.13,0,0,1,1.22-.28c2.08,0,3.82,1.24,5.25,3.75q0,.87,2.25,4.22a16.49,16.49,0,0,0,1.12,3.65,5.77,5.77,0,0,1,.57,1.6,2.4,2.4,0,0,0-.1.65c.35,0,.7,1.22,1,3.66a4.84,4.84,0,0,1,.75,2.34v.66l.1.47h.09l.38-2.25c-.07-1.06-.1-1.85-.1-2.44V416.5a60.36,60.36,0,0,0,.56-8.44c.1,0,.17-.66.19-2-.12-2.65-.19-4.29-.19-4.87,0-.26.45-.64,1.32-1.13Z" transform="translate(-89.36 -319.6)"/><path class="cls-1" d="M466.28,430.61c.07,0,.09.18.09.56a5.83,5.83,0,0,0-.37,1.22,6.45,6.45,0,0,1,.09.75,2.1,2.1,0,0,1-.75,1.4c0,.87-1.24,1.48-3.75,1.79h-.66c-1.87-.21-2.81-.82-2.81-1.88a2.32,2.32,0,0,1-.19-.94c.47-2.36.78-3.56.94-3.56a14.46,14.46,0,0,1,4.41-1.22C465.27,429,466.28,429.6,466.28,430.61Zm-3.75-32.35c1.94,0,3,.64,3.28,1.88a3.37,3.37,0,0,1,.37,1.31v.09a15.58,15.58,0,0,1-.28,2l.28.85a16.92,16.92,0,0,0-.18,1.87,13.41,13.41,0,0,1,.18,1.78V409a14.62,14.62,0,0,1-.18,2c0,.26.11.37.18.37l-.09.66v1.78a3.76,3.76,0,0,1-.66,2.06c0,1.18-.26,1.86-.75,2.07.24,0,.61,1.87,1.13,5.62V424c-.12,1.69-.45,2.54-.94,2.54a13.62,13.62,0,0,1-3.56.56c-.92,0-1.62-.66-2.06-2l-.1-.56c.07-2.74.12-4.67.19-5.72l-.28-2.06c0-1.06.09-2.7.28-5v-1.5a3.62,3.62,0,0,1,.19-.85,4.5,4.5,0,0,1-.19-1.12c.26-1.67.37-2.6.37-2.81-.07-1.15-.09-1.88-.09-2.16a22.93,22.93,0,0,0,.19-2.44v-.47a14.59,14.59,0,0,0-.1-1.5c0-.23.33-.49.94-.75Z" transform="translate(-89.36 -319.6)"/><rect class="cls-2" x="3" y="3" width="402.38" height="138.89"/></svg>