<svg id="Capa_1" data-name="Capa 1" xmlns="http://www.w3.org/2000/svg" viewBox="0 0 868.07 245.71"><defs><style>.cls-1,.cls-2{fill:#fff;}.cls-2{font-size:18px;font-family:MyriadPro-Regular, Myriad Pro;}.cls-3,.cls-4,.cls-6,.cls-7,.cls-8{fill:none;stroke-miterlimit:10;}.cls-3{stroke:#eee542;}.cls-3,.cls-4{stroke-width:2px;}.cls-4{stroke:#ffed00;}.cls-5{fill:#dedc00;}.cls-6{stroke:#e71d73;}.cls-6,.cls-7,.cls-8{stroke-width:3px;}.cls-7{stroke:#fff;}.cls-8{stroke:#36a9e1;}.cls-9{fill:#36a9e1;}</style></defs><title>urak</title><path class="cls-1" d="M-241,313.3v10.15h11.73V313.3h3.17v24.26h-3.17V326.19H-241v11.37h-3.13V313.3Z" transform="translate(252.77 -235.58)"/><path class="cls-1" d="M-222.93,341.52l2.27-2.12c3-2.7,4.54-4.4,4.54-6.23a2.45,2.45,0,0,0-2.74-2.52,5.54,5.54,0,0,0-3,1.11l-.76-1.62a7,7,0,0,1,4.39-1.51c3.39,0,4.79,2.13,4.79,4.07,0,2.7-2,4.68-4.79,7.09l-1.11,1v.07h6.15v2h-9.72Z" transform="translate(252.77 -235.58)"/><path class="cls-1" d="M-188.69,325.18c0,8.35-5.08,12.78-11.27,12.78-6.41,0-10.91-5-10.91-12.31,0-7.71,4.79-12.75,11.27-12.75S-188.69,318-188.69,325.18Zm-18.83.39c0,5.19,2.81,9.83,7.74,9.83s7.78-4.57,7.78-10.08c0-4.82-2.52-9.86-7.74-9.86S-207.52,320.25-207.52,325.57Z" transform="translate(252.77 -235.58)"/><path class="cls-1" d="M-175.48,318.41v8.46h8.14V329h-8.14v8.53h-2.3V329h-8.14v-2.16h8.14v-8.46Z" transform="translate(252.77 -235.58)"/><path class="cls-1" d="M-152.4,313.3v10.15h11.73V313.3h3.17v24.26h-3.17V326.19H-152.4v11.37h-3.13V313.3Z" transform="translate(252.77 -235.58)"/><path class="cls-1" d="M-134.37,341.52l2.27-2.12c3-2.7,4.54-4.4,4.54-6.23a2.45,2.45,0,0,0-2.74-2.52,5.54,5.54,0,0,0-3,1.11l-.76-1.62a7,7,0,0,1,4.39-1.51c3.39,0,4.79,2.13,4.79,4.07,0,2.7-2,4.68-4.79,7.09l-1.11,1v.07h6.15v2h-9.72Z" transform="translate(252.77 -235.58)"/><path class="cls-1" d="M-100.13,325.18c0,8.35-5.08,12.78-11.27,12.78-6.41,0-10.91-5-10.91-12.31,0-7.71,4.79-12.75,11.27-12.75S-100.13,318-100.13,325.18Zm-18.83.39c0,5.19,2.81,9.83,7.74,9.83s7.77-4.57,7.77-10.08c0-4.82-2.52-9.86-7.73-9.86S-119,320.25-119,325.57Z" transform="translate(252.77 -235.58)"/><path class="cls-1" d="M-47.76,334.64H-69.54l3.09,4.1-1,1-6-5.66v-1.12l6-5.68,1,1-3.09,4.09h21.78Zm-25.53-14.75h21.78l-3.09-4.09,1-1,6,5.68v1.12l-6,5.66-1-1,3.09-4.1H-73.29Z" transform="translate(252.77 -235.58)"/><path class="cls-1" d="M1.81,325.18C1.81,333.53-3.27,338-9.46,338c-6.41,0-10.9-5-10.9-12.31,0-7.71,4.78-12.75,11.26-12.75S1.81,318,1.81,325.18Zm-18.83.39c0,5.19,2.81,9.83,7.74,9.83s7.78-4.57,7.78-10.08c0-4.82-2.52-9.86-7.74-9.86S-17,320.25-17,325.57Z" transform="translate(252.77 -235.58)"/><path class="cls-1" d="M9,313.3v10.15H20.75V313.3h3.16v24.26H20.75V326.19H9v11.37H5.88V313.3Z" transform="translate(252.77 -235.58)"/><path class="cls-1" d="M32.84,314.16v1.73H27.26v-1.73Z" transform="translate(252.77 -235.58)"/><path class="cls-1" d="M53,318.41v8.46h8.14V329H53v8.53H50.7V329H42.56v-2.16H50.7v-8.46Z" transform="translate(252.77 -235.58)"/><path class="cls-1" d="M76.08,313.3v10.15H87.81V313.3H91v24.26H87.81V326.19H76.08v11.37H73V313.3Z" transform="translate(252.77 -235.58)"/><path class="cls-1" d="M94.69,324.46a8,8,0,0,1,4.14-1.12c3.1,0,4.39,1.66,4.39,3.39a3.56,3.56,0,0,1-2.77,3.23V330a3.58,3.58,0,0,1,3.35,3.49c0,2.23-2,4.21-5.69,4.21a7.93,7.93,0,0,1-4.1-1l.64-1.8a6.73,6.73,0,0,0,3.35.94c2.2,0,3.17-1.3,3.13-2.41,0-1.8-1.9-2.52-3.81-2.52h-1v-1.66h1c1.34,0,3.24-.61,3.28-2.3,0-.87-.65-1.77-2.27-1.77a5.8,5.8,0,0,0-3.06.94Z" transform="translate(252.77 -235.58)"/><path class="cls-1" d="M128.13,325.18c0,8.35-5.07,12.78-11.27,12.78-6.4,0-10.9-5-10.9-12.31,0-7.71,4.79-12.75,11.26-12.75C123.85,312.9,128.13,318,128.13,325.18Zm-18.82.39c0,5.19,2.8,9.83,7.73,9.83s7.78-4.57,7.78-10.08c0-4.82-2.52-9.86-7.74-9.86S109.31,320.25,109.31,325.57Z" transform="translate(252.77 -235.58)"/><path class="cls-1" d="M347.51,328.13h.07c.43-.61,1.05-1.37,1.55-2l5.11-6h3.82l-6.74,7.16L359,337.56h-3.85l-6-8.35-1.62,1.8v6.55h-3.13V312h3.13Z" transform="translate(252.77 -235.58)"/><path class="cls-1" d="M367.71,325.43v-2.16h18.57v2.16Zm0,7.05v-2.16h18.57v2.16Z" transform="translate(252.77 -235.58)"/><path class="cls-1" d="M398.3,341.59V312.9h6.59v2h-4.14v24.73h4.14v2Z" transform="translate(252.77 -235.58)"/><path class="cls-1" d="M428.61,325.18c0,8.35-5.07,12.78-11.26,12.78-6.41,0-10.91-5-10.91-12.31,0-7.71,4.79-12.75,11.27-12.75S428.61,318,428.61,325.18Zm-18.82.39c0,5.19,2.81,9.83,7.74,9.83s7.77-4.57,7.77-10.08c0-4.82-2.52-9.86-7.74-9.86S409.79,320.25,409.79,325.57Z" transform="translate(252.77 -235.58)"/><path class="cls-1" d="M435.82,313.3v10.15h11.73V313.3h3.17v24.26h-3.17V326.19H435.82v11.37h-3.14V313.3Z" transform="translate(252.77 -235.58)"/><path class="cls-1" d="M459.65,314.16v1.73h-5.58v-1.73Z" transform="translate(252.77 -235.58)"/><path class="cls-1" d="M467.57,312.87v28.72H461v-2h4.14V314.85H461v-2Z" transform="translate(252.77 -235.58)"/><path class="cls-1" d="M490.29,345.12h-7.83V312.41h7.83v1.44h-4.74v29.83h4.74Z" transform="translate(252.77 -235.58)"/><path class="cls-1" d="M496.92,313.3v10.15h11.73V313.3h3.17v24.26h-3.17V326.19H496.92v11.37h-3.13V313.3Z" transform="translate(252.77 -235.58)"/><path class="cls-1" d="M515.53,324.46a8,8,0,0,1,4.14-1.12c3.1,0,4.39,1.66,4.39,3.39a3.56,3.56,0,0,1-2.77,3.23V330a3.58,3.58,0,0,1,3.35,3.49c0,2.23-2,4.21-5.69,4.21a7.93,7.93,0,0,1-4.1-1l.64-1.8a6.73,6.73,0,0,0,3.35.94c2.2,0,3.17-1.3,3.13-2.41,0-1.8-1.9-2.52-3.81-2.52h-1v-1.66h1c1.34,0,3.24-.61,3.28-2.3,0-.87-.65-1.77-2.27-1.77a5.8,5.8,0,0,0-3.06.94Z" transform="translate(252.77 -235.58)"/><path class="cls-1" d="M549,325.18c0,8.35-5.07,12.78-11.26,12.78-6.41,0-10.91-5-10.91-12.31,0-7.71,4.79-12.75,11.26-12.75C544.69,312.9,549,318,549,325.18Zm-18.82.39c0,5.19,2.8,9.83,7.73,9.83s7.78-4.57,7.78-10.08c0-4.82-2.52-9.86-7.74-9.86S530.15,320.25,530.15,325.57Z" transform="translate(252.77 -235.58)"/><path class="cls-1" d="M565.21,312.87v28.72h-6.59v-2h4.14V314.85h-4.14v-2Z" transform="translate(252.77 -235.58)"/><path class="cls-1" d="M436.28,384.79V356.1h6.59v2h-4.14v24.73h4.14v2Z" transform="translate(252.77 -235.58)"/><path class="cls-1" d="M449.42,356.5v10.15h11.74V356.5h3.17v24.26h-3.17V369.39H449.42v11.37h-3.13V356.5Z" transform="translate(252.77 -235.58)"/><path class="cls-1" d="M467.46,384.72l2.27-2.12c3-2.7,4.53-4.4,4.53-6.23a2.44,2.44,0,0,0-2.73-2.52,5.6,5.6,0,0,0-3,1.11l-.75-1.62a7,7,0,0,1,4.39-1.51c3.38,0,4.79,2.13,4.79,4.07,0,2.7-2.05,4.68-4.79,7.09L471,384v.07h6.16v2h-9.72Z" transform="translate(252.77 -235.58)"/><path class="cls-1" d="M501.69,368.38c0,8.35-5.07,12.78-11.26,12.78-6.41,0-10.91-5-10.91-12.31,0-7.71,4.79-12.75,11.27-12.75S501.69,361.18,501.69,368.38Zm-18.82.39c0,5.19,2.8,9.83,7.74,9.83s7.77-4.57,7.77-10.08c0-4.82-2.52-9.86-7.74-9.86S482.87,363.45,482.87,368.77Z" transform="translate(252.77 -235.58)"/><path class="cls-1" d="M510.05,356.07v28.72h-6.59v-2h4.14V358.05h-4.14v-2Z" transform="translate(252.77 -235.58)"/><path class="cls-1" d="M513.43,369.85l2.27-2.12c3-2.7,4.53-4.39,4.53-6.23A2.44,2.44,0,0,0,517.5,359a5.46,5.46,0,0,0-3,1.12l-.76-1.62a7,7,0,0,1,4.39-1.51c3.39,0,4.79,2.12,4.79,4.06,0,2.7-2,4.68-4.79,7.1l-1.11,1v.08h6.15v2h-9.72Z" transform="translate(252.77 -235.58)"/><text class="cls-2" transform="translate(382.04 77.18)"><tspan xml:space="preserve">+      </tspan></text><line class="cls-3" x1="34.77" y1="63.42" x2="68.77" y2="63.42"/><line class="cls-3" x1="51.77" y1="63.42" x2="51.77" y2="37.42"/><line class="cls-3" x1="51.77" y1="37.42" x2="138.77" y2="37.42"/><line class="cls-3" x1="137.67" y1="63.42" x2="137.67" y2="37.42"/><line class="cls-3" x1="137.48" y1="64.61" x2="129.88" y2="55.55"/><line class="cls-3" x1="136.98" y1="64.61" x2="144.59" y2="55.55"/><line class="cls-4" x1="830.67" y1="112.21" x2="867.07" y2="112.21"/><line class="cls-4" x1="867.07" y1="112.21" x2="867.07" y2="234.01"/><line class="cls-4" x1="830.67" y1="232.47" x2="867.07" y2="232.47"/><line class="cls-4" x1="829.01" y1="232.21" x2="841.69" y2="221.56"/><line class="cls-4" x1="829.01" y1="231.51" x2="841.69" y2="242.16"/><path class="cls-5" d="M-150,257.68a14.88,14.88,0,0,0,0,1.53,2.92,2.92,0,0,0,.17.81,1.78,1.78,0,0,0,.3.5,1.84,1.84,0,0,0,.5.36,7,7,0,0,0,1,.33v.86h-7.36v-.86a4,4,0,0,0,1.35-.54,1.59,1.59,0,0,0,.54-.92,9.86,9.86,0,0,0,.15-2.07v-7.37H-163v7.37a14.26,14.26,0,0,0,.07,1.72,2.42,2.42,0,0,0,.27.86,1.45,1.45,0,0,0,.54.53,5,5,0,0,0,1.17.42v.86h-7.4v-.86a3.78,3.78,0,0,0,1.46-.62,1.66,1.66,0,0,0,.48-1,11.32,11.32,0,0,0,.12-1.93V242.47a12.05,12.05,0,0,0-.09-1.76,2.39,2.39,0,0,0-.29-.87,1.42,1.42,0,0,0-.54-.49,5.9,5.9,0,0,0-1.14-.41v-.86h7.4v.86a4.67,4.67,0,0,0-1.11.39,1.61,1.61,0,0,0-.55.48,2.29,2.29,0,0,0-.3.87,12.83,12.83,0,0,0-.09,1.79v6.22h9.77v-6.22a9.51,9.51,0,0,0-.15-2.09,1.66,1.66,0,0,0-.5-.86,4,4,0,0,0-1.39-.58v-.86h7.36v.86a3.9,3.9,0,0,0-1.37.55,1.6,1.6,0,0,0-.52.93,9.88,9.88,0,0,0-.14,2.05Z" transform="translate(252.77 -235.58)"/><path class="cls-5" d="M-137.47,242.17v4.68h-2v-4.68H-144v-1.93h4.54v-4.66h2v4.66h4.55v1.93Z" transform="translate(252.77 -235.58)"/><line class="cls-6" y1="118.42" x2="68.26" y2="118.42"/><line class="cls-6" x1="220.7" y1="117.42" x2="288.95" y2="117.42"/><line class="cls-7" x1="648.91" y1="114.42" x2="807.88" y2="114.42"/><line class="cls-8" x1="88.87" y1="118.42" x2="157.13" y2="118.42"/><line class="cls-8" x1="318.51" y1="117.42" x2="386.77" y2="117.42"/><path class="cls-1" d="M435.18,393.94a99,99,0,0,1-48,6.39c-14.08-1.62-30.56-6.25-39.27-18.35-4.48-6.2-6.91-14.08-5-21.66.79-3.12-4-4.45-4.82-1.33a30.47,30.47,0,0,0,3.39,22.22c3.86,6.92,10,12.26,17,16a76.29,76.29,0,0,0,23.35,7.43,102.86,102.86,0,0,0,54.66-5.83,2.59,2.59,0,0,0,1.75-3.08,2.52,2.52,0,0,0-3.08-1.74Z" transform="translate(252.77 -235.58)"/><path class="cls-1" d="M337.36,354.65l-6.84,8.47a2.74,2.74,0,0,0-.74,1.77,2.56,2.56,0,0,0,.74,1.77,2.52,2.52,0,0,0,3.53,0l6.84-8.47a2.71,2.71,0,0,0,.73-1.77,2.57,2.57,0,0,0-.73-1.77,2.53,2.53,0,0,0-3.53,0Z" transform="translate(252.77 -235.58)"/><path class="cls-1" d="M339.87,358.77l.67.06-.66-.09a9.7,9.7,0,0,1,2.37.66l-.59-.26a10.58,10.58,0,0,1,2,1.19l-.5-.39a10.09,10.09,0,0,1,1.67,1.66l-.39-.51a10.57,10.57,0,0,1,.79,1.22,2.51,2.51,0,0,0,3.42.9,2.55,2.55,0,0,0,.9-3.42,11.85,11.85,0,0,0-9.71-6,2.52,2.52,0,0,0-2.5,2.5,2.55,2.55,0,0,0,2.5,2.5Z" transform="translate(252.77 -235.58)"/><path class="cls-9" d="M336.58,464.3h.07c.43-.61,1.05-1.37,1.55-2l5.11-6h3.82l-6.73,7.16,7.66,10.26h-3.85l-6-8.35-1.62,1.8v6.55h-3.13V448.17h3.13Z" transform="translate(252.77 -235.58)"/><path class="cls-9" d="M349.65,465l1.15,4.43c.25,1,.49,1.87.65,2.77h.05c.2-.88.49-1.82.78-2.76L353.7,465H355l1.35,4.35c.33,1.05.58,2,.78,2.85h0a27.69,27.69,0,0,1,.67-2.83l1.24-4.37h1.57l-2.81,8.71h-1.44l-1.33-4.16a29.32,29.32,0,0,1-.78-2.86h0a24.21,24.21,0,0,1-.79,2.88l-1.4,4.14h-1.44L348,465Z" transform="translate(252.77 -235.58)"/><path class="cls-9" d="M370,461.6v-2.16H388.6v2.16Zm0,7V466.5H388.6v2.15Z" transform="translate(252.77 -235.58)"/><path class="cls-9" d="M400.62,477.76V449.07h6.59v2h-4.14v24.73h4.14v2Z" transform="translate(252.77 -235.58)"/><path class="cls-9" d="M430.93,461.35c0,8.35-5.07,12.78-11.26,12.78-6.41,0-10.91-5-10.91-12.31,0-7.71,4.79-12.75,11.27-12.75S430.93,454.15,430.93,461.35Zm-18.82.39c0,5.19,2.81,9.83,7.74,9.83s7.77-4.57,7.77-10.08c0-4.82-2.52-9.86-7.74-9.86S412.11,456.42,412.11,461.74Z" transform="translate(252.77 -235.58)"/><path class="cls-9" d="M438.14,449.47v10.15h11.73V449.47H453v24.26h-3.17V462.36H438.14v11.37H435V449.47Z" transform="translate(252.77 -235.58)"/><path class="cls-9" d="M462,450.33v1.73h-5.58v-1.73Z" transform="translate(252.77 -235.58)"/><path class="cls-9" d="M469.89,449v28.72H463.3v-2h4.14V451H463.3v-2Z" transform="translate(252.77 -235.58)"/><path class="cls-9" d="M492.62,481.29h-7.84V448.58h7.84V450h-4.75v29.83h4.75Z" transform="translate(252.77 -235.58)"/><path class="cls-9" d="M499.24,449.47v10.15H511V449.47h3.17v24.26H511V462.36H499.24v11.37h-3.13V449.47Z" transform="translate(252.77 -235.58)"/><path class="cls-9" d="M517.85,460.63a8,8,0,0,1,4.14-1.12c3.1,0,4.39,1.66,4.39,3.39a3.56,3.56,0,0,1-2.77,3.23v.08A3.58,3.58,0,0,1,527,469.7c0,2.23-2,4.21-5.69,4.21a7.93,7.93,0,0,1-4.1-1l.64-1.8a6.73,6.73,0,0,0,3.35.94c2.2,0,3.17-1.3,3.13-2.41,0-1.8-1.9-2.52-3.81-2.52h-1v-1.66h1c1.34,0,3.24-.61,3.28-2.3,0-.87-.65-1.77-2.27-1.77a5.8,5.8,0,0,0-3.06.94Z" transform="translate(252.77 -235.58)"/><path class="cls-9" d="M551.29,461.35c0,8.35-5.07,12.78-11.27,12.78-6.4,0-10.9-5-10.9-12.31,0-7.71,4.79-12.75,11.26-12.75C547,449.07,551.29,454.15,551.29,461.35Zm-18.82.39c0,5.19,2.8,9.83,7.73,9.83S548,467,548,461.49c0-4.82-2.52-9.86-7.74-9.86S532.47,456.42,532.47,461.74Z" transform="translate(252.77 -235.58)"/><path class="cls-9" d="M567.53,449v28.72h-6.59v-2h4.14V451h-4.14v-2Z" transform="translate(252.77 -235.58)"/><path class="cls-1" d="M552.77,305.34v4.23h4.07v1.08h-4.07v4.26h-1.15v-4.26h-4.07v-1.08h4.07v-4.23Z" transform="translate(252.77 -235.58)"/><path class="cls-9" d="M556.23,441.5v4.23h4.07v1.08h-4.07v4.26h-1.15v-4.26H551v-1.08h4.07V441.5Z" transform="translate(252.77 -235.58)"/></svg>